<?xml version="1.0" encoding="UTF-8"?>
<svg id="Layer_2" xmlns="http://www.w3.org/2000/svg" version="1.1" viewBox="0 0 510.6 128.9">
  <!-- Generator: Adobe Illustrator 29.6.1, SVG Export Plug-In . SVG Version: 2.1.1 Build 9)  -->
  <defs>
    <style>
      .st0 {
        fill: #00325b;
      }

      .st1 {
        fill: #00aca6;
      }
    </style>
  </defs>
  <path class="st0" d="M21,44.3h-.9C9,44.3,0,53.3,0,64.5s9,20.2,20.2,20.2h24.1v24.1c0,11.1,9,20.2,20.2,20.2,0-84.3-43.4-84.6-43.4-84.6h0Z"/>
  <path class="st0" d="M108.7,44.3h-.9s-43.4.3-43.4,84.6c11.1,0,20.2-9,20.2-20.2v-24.1h24.1c11.1,0,20.2-9,20.2-20.2s-9-20.2-20.2-20.2h0Z"/>
  <path class="st1" d="M78.3,34c-7.8,7.8-20.4,7.8-28.2,0-7.8-7.8-7.8-20.4,0-28.2,7.8-7.8,20.4-7.8,28.2,0,7.8,7.8,7.8,20.4,0,28.2h0Z"/>
  <rect class="st1" x="54.3" y="24.1" width="19.9" height="19.9" transform="translate(-5.3 55.4) rotate(-45)"/>
  <g>
    <polygon class="st0" points="206 56.4 186 90.4 165.7 56.4 157.8 56.4 157.8 107.6 166.9 107.6 166.9 74.1 183.8 101.8 188 101.8 204.8 73.7 204.9 107.6 213.9 107.6 213.8 56.4 206 56.4"/>
    <path class="st0" d="M254,70.6c-3-1.7-6.4-2.5-10.2-2.5s-7.4.9-10.4,2.6c-3.1,1.7-5.4,4.1-7.2,7.1-1.7,3-2.6,6.5-2.6,10.4s.9,7.3,2.7,10.3c1.8,3,4.3,5.4,7.5,7.1,3.2,1.7,7,2.6,11.4,2.6s6.5-.5,9.1-1.6c2.7-1.1,4.9-2.7,6.6-4.7l-4.9-5.6c-1.4,1.5-2.9,2.5-4.7,3.2-1.8.7-3.7,1-5.9,1s-4.8-.5-6.7-1.5c-2-1-3.5-2.4-4.5-4.2-.7-1.1-1.1-2.4-1.4-3.7h30.6c0-.4,0-.9.1-1.4,0-.5,0-.9,0-1.3,0-4.1-.9-7.7-2.6-10.7-1.7-3-4.1-5.4-7-7ZM234,81c1-1.7,2.3-3.1,4-4.1,1.7-1,3.6-1.5,5.9-1.5s4.1.5,5.8,1.5c1.7,1,3,2.3,4,4,.7,1.2,1.1,2.6,1.3,4h-22.2c.2-1.5.6-2.8,1.3-4Z"/>
    <path class="st0" d="M301.6,73.4c-1.1-1.3-2.4-2.3-3.8-3.1-2.6-1.4-5.5-2.2-8.8-2.2s-7.1.8-10.1,2.5c-3,1.7-5.4,4-7.1,7-1.7,3-2.6,6.5-2.6,10.5s.9,7.6,2.6,10.5c1.7,3,4.1,5.3,7.1,7,3,1.7,6.4,2.5,10.1,2.5s6.3-.7,8.9-2.2c1.5-.9,2.9-2,4-3.4v5.1h8.7v-54.3h-9.1v20ZM300.1,94.6c-1,1.9-2.4,3.3-4.2,4.2-1.7,1-3.7,1.5-5.9,1.5s-4.2-.5-5.9-1.5c-1.7-1-3.1-2.4-4.2-4.2-1-1.9-1.6-4-1.6-6.5s.5-4.7,1.6-6.6c1-1.8,2.4-3.2,4.2-4.2s3.7-1.5,5.9-1.5,4.2.5,5.9,1.5c1.7,1,3.1,2.4,4.2,4.2,1,1.8,1.6,4,1.6,6.6s-.5,4.7-1.6,6.5Z"/>
    <rect class="st0" x="322.7" y="68.5" width="9.2" height="39.1"/>
    <path class="st0" d="M327.3,51.1c-1.7,0-3.1.5-4.2,1.6-1.1,1.1-1.6,2.4-1.6,3.9s.5,2.8,1.6,3.9c1.1,1.1,2.5,1.6,4.2,1.6s3.2-.5,4.2-1.6c1.1-1.1,1.6-2.5,1.6-4.1s-.5-2.8-1.6-3.8c-1.1-1-2.5-1.5-4.2-1.5Z"/>
    <path class="st0" d="M360.6,56.4l-23.1,51.2h9.8l5.1-11.9h25.6l5.1,11.9h10l-23.1-51.2h-9.4ZM355.6,88.3l9.6-22.4,9.6,22.4h-19.2Z"/>
    <rect class="st0" x="399.6" y="56.4" width="9.5" height="51.2"/>
    <path class="st0" d="M452.6,69.9c-2.5-1.2-5.3-1.8-8.4-1.8s-6.4.7-9,2c-1.8.9-3.2,2.1-4.4,3.5v-5.1h-8.7v39.1h9.2v-19.8c0-2.6.5-4.8,1.4-6.6.9-1.7,2.2-3,3.8-3.9,1.7-.9,3.6-1.3,5.7-1.3s5.2.9,6.8,2.6c1.6,1.7,2.5,4.3,2.5,7.8v21.2h9.2v-22.4c0-4-.7-7.2-2.1-9.7-1.4-2.5-3.4-4.4-5.8-5.6Z"/>
    <path class="st0" d="M500.3,72.2c-3.1-2.7-7.5-4.1-13.1-4.1s-6.1.4-9,1.2c-2.9.8-5.4,2-7.5,3.6l3.6,6.7c1.5-1.2,3.3-2.2,5.4-2.9,2.1-.7,4.3-1,6.5-1,3.3,0,5.7.7,7.3,2.2,1.6,1.5,2.4,3.6,2.4,6.3v.6h-10.1c-4,0-7.1.5-9.5,1.5-2.4,1-4.1,2.4-5.2,4.2-1,1.8-1.6,3.7-1.6,5.9s.6,4.3,1.8,6c1.2,1.8,2.9,3.2,5.1,4.2s4.8,1.5,7.7,1.5,6.3-.6,8.6-1.9c1.6-.9,2.8-2,3.7-3.4v4.8h8.6v-22.9c0-5.7-1.5-9.8-4.6-12.6ZM491.9,100c-1.8,1-3.8,1.5-6,1.5s-4.2-.5-5.5-1.5c-1.3-1-2-2.3-2-4s.5-2.7,1.6-3.7c1.1-1,3.2-1.5,6.3-1.5h9.4v4.5c-.8,2-2.1,3.5-3.8,4.5Z"/>
  </g>
</svg>