<?xml version="1.0" encoding="UTF-8"?>
<svg id="Layer_1" xmlns="http://www.w3.org/2000/svg" version="1.1" viewBox="0 0 197.4 66">
  <!-- Generator: Adobe Illustrator 29.3.0, SVG Export Plug-In . SVG Version: 2.1.0 Build 146)  -->
  <defs>
    <style>
      .st0 {
        fill: #00335b;
      }
    </style>
  </defs>
  <path class="st0" d="M22,10.6c.4,0,.9,0,1.3,0s.8,0,1.3,0c1.6,0,3.2.3,4.8.8,1.6.4,2.9,1.2,4.1,2.4,1.1,1,1.9,2.2,2.4,3.6.5,1.4.9,2.8,1,4.3,0,.3,0,.6,0,.8,0,.3,0,.6,0,.8,0,3-.6,5.5-2,7.7s-3.6,3.6-6.5,4.3l10.6,17.7h-10.1l-9.3-16.7h-10.5v16.7H0V10.6h22,0ZM19.9,18.1h-10.9v10.7h10.9c0,0,.2,0,.2,0h.2c1.9,0,3.6-.3,5.2-.9s2.3-2.1,2.3-4.5c0-2.5-.8-4-2.5-4.6-1.6-.5-3.5-.8-5.5-.8h0c0,0,0,0,0,0Z"/>
  <path class="st0" d="M43.6,18.3v-7.8h8.6v7.8h-8.6ZM43.6,53.1v-31.2h8.6v31.2h-8.6Z"/>
  <path class="st0" d="M76.8,21.9c1.8,0,3.6.2,5.2.6,1.7.4,3.2,1.2,4.5,2.6,1.1,1.1,1.9,2.4,2.4,3.9.4,1.5.7,3,.7,4.6v19.5h-22.1c-3.2,0-5.6-.9-7.3-2.6-1.7-1.8-2.5-4.2-2.3-7.3.3-3.8,1.6-6.2,4-7.3s5.2-1.7,8.5-1.7h10.8c.1-2.6-.5-4.2-2-4.8s-3.3-.9-5.5-.9h-13.7v-6.5h16.9,0ZM70.9,46.8h10.3v-6.4h-9.7c0,0-.2,0-.2,0h-.2c-1.1,0-2.1.2-3.1.6-.9.4-1.4,1.2-1.5,2.6,0,1.5.3,2.4,1.3,2.7.9.3,2,.4,3.2.5h0c0,0,0,0,0,0Z"/>
  <path class="st0" d="M96.8,53.1V10.6h8.6v42.5h-8.6Z"/>
  <path class="st0" d="M115.1,21.9v-11.3h8.2v11.3h8.7v6.2h-8.7v12.6c0,3.1.7,4.9,2.1,5.4s3.5.8,6,.8h.5v6.2h-7.5c-3.1,0-5.5-.9-7-2.6-1.6-1.7-2.4-4.1-2.4-7.1v-15.3h-5.8v-6.2h5.8Z"/>
  <path class="st0" d="M144.4,52.3c-2.1-.5-3.9-1.6-5.5-3.3-1.3-1.4-2.2-3-2.8-4.7-.6-1.8-.9-3.6-1-5.4v-2c0-.3,0-.5,0-.8.1-1.8.5-3.5,1-5.2.6-1.7,1.5-3.2,2.7-4.6,1.6-1.7,3.4-2.9,5.5-3.4,2.1-.5,4.2-.8,6.4-.8h12c0,0,0,6.5,0,6.5h-10.9c-2.3,0-4.1.4-5.5,1-1.4.7-2.1,2.3-2.2,4.9h18.6c0,0,0,6.5,0,6.5h-18.6c0,2.7.8,4.4,2.1,5s3.2.9,5.6.9h11c0,0,0,6.4,0,6.4h-12c-2.2,0-4.4-.3-6.4-.8h0Z"/>
  <path class="st0" d="M185,46.6c0,0,.2,0,.2,0h.2c1,0,1.9-.3,2.7-.6s1.2-1.2,1.2-2.4-.4-1.9-1.2-2.3c-.8-.4-1.6-.6-2.5-.7h-7.8c-3.3,0-5.9-.5-7.8-1.4s-2.9-3.3-2.9-7.2c0-3.6,1-6.2,3-7.7s4.7-2.2,8-2.2h17.7c0,0,0,6.5,0,6.5h-14.6c-.1,0-.2,0-.3,0h-2c-.7,0-1.4.2-2,.5-.6.3-1.1.8-1.3,1.5-.3,1.4,0,2.3.8,2.8s1.9.8,3,.8h7.5c2.9,0,5.4.7,7.3,2s3,3.6,3.1,6.8v.2c0,2.5-.7,4.8-2.2,6.9-1.5,2.1-3.6,3.1-6.4,3.1h-21.2v-6.5h17.3,0Z"/>
</svg>