<svg xmlns="http://www.w3.org/2000/svg" width="45.409" height="45.303" viewBox="0 0 45.409 45.303">
  <g id="recaptcha" transform="translate(0 0.04)">
    <path id="Path_178" data-name="Path 178" d="M102.523,22.579q0-.488-.023-.972V3.222L97.42,8.3a22.664,22.664,0,0,0-35.63.629l8.327,8.42a11.043,11.043,0,0,1,3.373-3.787A10.051,10.051,0,0,1,79.852,11.5a2.275,2.275,0,0,1,.805.117,10.977,10.977,0,0,1,8.392,5.057l-5.894,5.9c7.465-.03,15.9-.047,19.366,0" transform="translate(-57.114 0)" fill="#134874"/>
    <path id="Path_179" data-name="Path 179" d="M22.607-.03c-.326,0-.649.009-.972.023H3.26L8.34,5.076a22.692,22.692,0,0,0,.629,35.649l8.414-8.331A11.03,11.03,0,0,1,13.6,29.02a10.06,10.06,0,0,1-2.062-6.366,2.282,2.282,0,0,1,.116-.806,10.986,10.986,0,0,1,5.055-8.4l5.894,5.9c-.03-7.47-.047-15.908,0-19.378" transform="translate(0 -0.009)" fill="#fff"/>
    <path id="Path_180" data-name="Path 180" d="M.01,299.68q0,.488.023.972v18.385l5.08-5.083a22.664,22.664,0,0,0,35.63-.629l-8.327-8.42a11.036,11.036,0,0,1-3.373,3.787,10.05,10.05,0,0,1-6.363,2.063,2.275,2.275,0,0,1-.805-.117,10.975,10.975,0,0,1-8.392-5.057l5.894-5.9c-7.466.03-15.9.047-19.367,0" transform="translate(-0.009 -277.036)" fill="#505050"/>
  </g>
</svg>
