<?xml version="1.0" encoding="UTF-8"?>
<svg id="Layer_1" xmlns="http://www.w3.org/2000/svg" version="1.1" viewBox="0 0 811 154">
  <!-- Generator: Adobe Illustrator 29.4.0, SVG Export Plug-In . SVG Version: 2.1.0 Build 152)  -->
  <defs>
    <style>
      .st0 {
        fill: none;
        stroke: #707070;
      }
    </style>
  </defs>
  <polygon class="st0" points="86.6 95.6 72.6 54.2 52.4 54.2 38 95.3 24.1 54.2 1.6 54.2 25.8 122 48.8 122 61.9 85.1 74.8 122 97.8 122 121.9 54.2 101 54.2 86.6 95.6"/>
  <rect class="st0" x="129.1" y="54.2" width="23.8" height="67.8"/>
  <path class="st0" d="M151.5,24.9c-2.7-2.3-6.2-3.4-10.5-3.4s-7.8,1.2-10.5,3.6c-2.7,2.4-4,5.4-4,9s1.3,6.6,4,9c2.7,2.4,6.2,3.6,10.5,3.6s7.9-1.2,10.6-3.7c2.6-2.5,3.9-5.6,3.9-9.3s-1.3-6.5-4-8.8Z"/>
  <path class="st0" d="M201.9,104.8c-2.1,0-3.8-.7-5.1-2.1-1.3-1.4-2-3.3-2-5.7v-22.5h15.5v-17.8h-15.5v-17.6h-23.8v17.6h-9.9v17.8h9.9v22.8c0,8.7,2.4,15.1,7.2,19.4,4.8,4.3,11.6,6.4,20.2,6.4s6.2-.3,9.1-.9c2.9-.6,5.4-1.6,7.4-2.9l-5.9-16.6c-2,1.4-4.4,2.1-7.2,2.1Z"/>
  <path class="st0" d="M282.5,56.3c-4.2-2.1-9-3.2-14.2-3.2s-10.8,1.2-15.2,3.7c-1.9,1-3.6,2.3-5.1,3.7v-31.3h-23.8v92.8h23.8v-32.8c0-3.8.6-6.8,1.8-9.1,1.2-2.3,2.8-4.1,4.9-5.2,2.1-1.1,4.4-1.7,6.9-1.7s6.2,1.1,8.2,3.3c2,2.2,2.9,5.7,2.9,10.6v34.9h23.8v-38.8c0-7-1.2-12.7-3.7-17.1-2.5-4.4-5.8-7.7-10.1-9.8Z"/>
  <rect class="st0" x="348.6" y="34.5" width="24.8" height="87.5"/>
  <path class="st0" d="M492.2,56.3c-4.1-2.1-8.8-3.2-14.1-3.2s-11.9,1.6-16.8,4.7c-2.6,1.7-4.8,3.7-6.7,6-1.6-2.4-3.5-4.4-5.8-6-4.6-3.1-10-4.7-16.1-4.7s-10.2,1.2-14.5,3.7c-2.1,1.2-4.1,2.7-5.8,4.5v-7.1h-22.6v67.8h23.8v-33.6c0-3.5.5-6.4,1.6-8.6,1-2.2,2.5-3.9,4.2-4.9,1.8-1.1,3.9-1.6,6.2-1.6s5.8,1.1,7.6,3.3c1.8,2.2,2.7,5.7,2.7,10.6v34.9h23.8v-33.6c0-3.5.5-6.4,1.5-8.6,1-2.2,2.4-3.9,4.2-4.9,1.8-1.1,3.9-1.6,6.1-1.6s5.7,1.1,7.5,3.3c1.8,2.2,2.8,5.7,2.8,10.6v34.9h23.8v-38.8c0-7-1.2-12.7-3.6-17.1-2.4-4.4-5.6-7.7-9.8-9.8Z"/>
  <path class="st0" d="M579.9,57.4c-5-2.9-10.6-4.3-16.8-4.3s-11.1,1.2-15.2,3.8c-1.8,1.1-3.4,2.5-4.8,4.2v-6.8h-22.6v92h23.8v-30.3c1.2,1.3,2.6,2.4,4.1,3.3,4.1,2.5,9,3.8,14.8,3.8s11.8-1.4,16.8-4.2c5-2.8,9-6.9,12-12.1,3-5.2,4.4-11.5,4.4-18.6s-1.5-13.4-4.4-18.6c-3-5.2-7-9.2-12-12.1ZM570.4,96.9c-1.3,2.4-3,4.2-5.1,5.5s-4.5,1.9-7.2,1.9-5.1-.6-7.2-1.9-3.8-3.1-5.1-5.5c-1.3-2.4-1.9-5.3-1.9-8.8s.6-6.3,1.9-8.8c1.3-2.4,3-4.2,5.1-5.5s4.5-1.9,7.2-1.9,5.1.6,7.2,1.9,3.8,3.1,5.1,5.5c1.3,2.4,1.9,5.3,1.9,8.8s-.6,6.3-1.9,8.8Z"/>
  <path class="st0" d="M660.3,60.7c-6-5-14.6-7.6-25.6-7.6s-10.7.7-16.1,2.1-10,3.3-13.8,5.8l8,16.1c2.3-1.8,5.2-3.3,8.5-4.3,3.3-1,6.6-1.6,9.9-1.6,5,0,8.6,1,10.9,3.1,2.1,1.9,3.2,4.4,3.4,7.7h-13.5c-7,0-12.7.8-17.1,2.4-4.4,1.6-7.7,4-9.8,7-2.1,3-3.2,6.6-3.2,10.8s1,7.5,2.9,10.6c2,3.2,4.8,5.7,8.6,7.5s8.3,2.8,13.8,2.8,10.7-1.2,14.3-3.6c2.4-1.6,4.3-3.7,5.7-6.4v8.8h22.1v-37.6c0-10.8-3-18.6-9.1-23.7ZM640.9,106.2c-2.1,1.3-4.5,1.9-7.1,1.9s-4.9-.6-6.5-1.9c-1.6-1.2-2.4-2.9-2.4-5s.8-3.8,2.3-5c1.5-1.2,4.2-1.9,8.1-1.9h10.2v5.9c-1,2.7-2.6,4.6-4.7,5.9Z"/>
  <path class="st0" d="M712.2,73.9c2.2-1.2,4.8-1.9,7.5-1.9s5.3.7,7.6,2.2c2.3,1.5,4.3,3.8,5.9,6.9l18.4-9.4c-2.3-5.9-6.3-10.5-11.9-13.8-5.6-3.2-12.2-4.9-19.9-4.9s-14.2,1.5-20.1,4.4c-5.9,3-10.5,7.1-13.8,12.3-3.3,5.2-5,11.3-5,18.1s1.7,12.9,5,18.2c3.3,5.3,7.9,9.4,13.8,12.4s12.6,4.5,20.1,4.5,14.3-1.6,19.9-4.9c5.6-3.2,9.5-7.8,11.9-13.8l-18.4-9.4c-1.6,3.2-3.5,5.5-5.9,6.9-2.3,1.5-4.9,2.2-7.6,2.2s-5.2-.6-7.5-1.9-4-3.1-5.3-5.5c-1.3-2.4-1.9-5.4-1.9-8.9s.6-6.3,1.9-8.7c1.3-2.4,3.1-4.2,5.3-5.4Z"/>
  <path class="st0" d="M802.6,102.6c-2,1.4-4.4,2.1-7.2,2.1s-3.8-.7-5.1-2.1c-1.3-1.4-2-3.3-2-5.7v-22.5h15.5v-17.8h-15.5v-17.6h-23.8v17.6h-9.9v17.8h9.9v22.8c0,8.7,2.4,15.1,7.2,19.4,4.8,4.3,11.6,6.4,20.2,6.4s6.2-.3,9.1-.9c2.9-.6,5.4-1.6,7.4-2.9l-5.9-16.6Z"/>
</svg>