<svg xmlns="http://www.w3.org/2000/svg" width="82.5" height="82.5" viewBox="0 0 82.5 82.5">
  <g id="_x31_3" transform="translate(-1 -1)">
    <g id="Group_982" data-name="Group 982" transform="translate(1 1)">
      <path id="Path_2754" data-name="Path 2754" d="M78.177,70.194H75.516V40.837A22.605,22.605,0,1,0,38.632,19.629H35.6V15.637l-.076-1.331H34.19a2.608,2.608,0,0,1-1.774-4.482l.93-.941-4.7-4.7L27.653,3.3l-.941.941A2.606,2.606,0,0,1,22.29,2.331V1H15.637l-1.331.076V2.406A2.56,2.56,0,0,1,12.68,4.783a2.587,2.587,0,0,1-2.857-.6l-.941-.93-4.7,4.7L3.3,8.943l.941.941a2.607,2.607,0,0,1-1.908,4.423H1V20.96l.076,1.331H2.406a2.607,2.607,0,0,1,1.779,4.476l-.938.938,5.736,5.779V35.6H6.323a2.664,2.664,0,0,0-2.661,2.661v21.29A2.664,2.664,0,0,0,6.323,62.21H8.984v7.984H6.323a2.664,2.664,0,0,0-2.661,2.661v1.331A9.326,9.326,0,0,0,12.976,83.5H71.524a9.326,9.326,0,0,0,9.315-9.315V72.855A2.664,2.664,0,0,0,78.177,70.194ZM16.968,62.21h2.661a2.664,2.664,0,0,0,2.661-2.661V38.258A2.664,2.664,0,0,0,19.629,35.6H16.968V27.613H38.632a22.6,22.6,0,0,0,28.9,17.627V64.871H16.968ZM19.63,51.565H6.323V46.242H19.63ZM52.9,19.629h.156l.333,2.661H52.9a1.331,1.331,0,0,1,0-2.661Zm.888-2.661H52.9a3.953,3.953,0,0,0-.927.12l-.337-1.345a2.287,2.287,0,0,1-.067-.547,2.252,2.252,0,0,1,1.248-2.023l1.17-.584.291-.876a3.99,3.99,0,0,1,3.788-2.729h6.283a5.848,5.848,0,0,1,5.7,7.143l-.221.973a3.915,3.915,0,0,0-.965-.132H67.748a4.2,4.2,0,0,1-2.877-3.992V11.645H62.21v1.331a6.849,6.849,0,0,0,.845,3.28,4.823,4.823,0,0,1-3.506-4.611H56.887a7.372,7.372,0,0,0,.484,2.631Zm14.925,2.661h.156a1.331,1.331,0,0,1,0,2.661h-.488Zm-9.955-3.063A7.449,7.449,0,0,0,63.3,19.037l2.75.393-.877,7.016a1.333,1.333,0,0,1-1.321,1.167H57.905a1.332,1.332,0,0,1-1.32-1.166L55.642,18.9ZM62.5,30.274l.665,2.661H58.592l.665-2.661ZM60.588,40.919h.583l.653,2.613c-.315.015-.625.048-.945.048s-.629-.033-.945-.048Zm.8-2.661H60.371L59.04,35.6h3.678Zm-5.3-2.612,2.048,4.1-.873,3.493a19.856,19.856,0,0,1-8.54-3.819,10.6,10.6,0,0,1,7.365-3.771Zm8.4,7.59-.873-3.493,2.048-4.1a10.6,10.6,0,0,1,7.365,3.771,19.848,19.848,0,0,1-8.54,3.819ZM60.879,3.661A19.946,19.946,0,0,1,75.041,37.667,13.251,13.251,0,0,0,65.926,33l-.741-2.965a3.994,3.994,0,0,0,2.628-3.259l.229-1.826h.821a3.988,3.988,0,0,0,3.32-6.2l.462-2.032a8.513,8.513,0,0,0-8.3-10.394H58.062A6.643,6.643,0,0,0,51.811,10.7l-.188.093a4.925,4.925,0,0,0-2.573,5.6l.574,2.294A3.984,3.984,0,0,0,52.9,24.952h.821l.229,1.826a3.992,3.992,0,0,0,2.628,3.259L55.832,33a13.246,13.246,0,0,0-9.115,4.667A19.946,19.946,0,0,1,60.879,3.661ZM6.9,27.6a5.243,5.243,0,0,0,.323-4.754A5.172,5.172,0,0,0,3.661,19.79V16.816a5.231,5.231,0,0,0,3.577-3.11A5.192,5.192,0,0,0,6.893,9L9,6.9a5.246,5.246,0,0,0,4.75.321,5.17,5.17,0,0,0,3.058-3.559h2.974a5.231,5.231,0,0,0,3.11,3.577,5.2,5.2,0,0,0,4.7-.345L29.7,9a5.246,5.246,0,0,0-.321,4.75,5.17,5.17,0,0,0,3.559,3.058v2.822H27.5a9.054,9.054,0,0,0,.114-1.331A9.315,9.315,0,1,0,9.579,21.552a3.954,3.954,0,0,0-.595,2.069v6.085ZM16.968,18.3A1.331,1.331,0,1,1,18.3,19.629,1.333,1.333,0,0,1,16.968,18.3ZM18.3,14.306A4,4,0,0,0,14.306,18.3a3.947,3.947,0,0,0,.245,1.331H12.976a3.946,3.946,0,0,0-1.154.19,6.661,6.661,0,1,1,12.982-.19H22.045A3.947,3.947,0,0,0,22.29,18.3,4,4,0,0,0,18.3,14.306Zm-6.653,9.315a1.333,1.333,0,0,1,1.331-1.331h25.35c-.027.443-.068.881-.068,1.331s.041.888.068,1.331H14.306V35.6H11.645Zm7.984,14.637v5.323H6.323V38.258ZM6.323,54.226H19.63v5.323H6.323Zm5.323,7.984h2.661v5.323H70.194V44.211a22.728,22.728,0,0,0,2.661-1.434V70.194H11.645ZM78.177,74.185a6.661,6.661,0,0,1-6.653,6.653H12.976a6.661,6.661,0,0,1-6.653-6.653V72.855H78.177Z" transform="translate(-1 -1)" fill="#0c8aed"/>
      <path id="Path_2755" data-name="Path 2755" d="M49,57h5.323v2.661H49Z" transform="translate(14.871 17.516)" fill="#0c8aed"/>
      <path id="Path_2756" data-name="Path 2756" d="M43,57h5.323v2.661H43Z" transform="translate(12.887 17.516)" fill="#0c8aed"/>
      <path id="Path_2757" data-name="Path 2757" d="M37,57h5.323v2.661H37Z" transform="translate(10.903 17.516)" fill="#0c8aed"/>
      <path id="Path_2758" data-name="Path 2758" d="M45,45h2.661v2.661H45Z" transform="translate(13.548 13.548)" fill="#0c8aed"/>
      <path id="Path_2759" data-name="Path 2759" d="M41,45h2.661v2.661H41Z" transform="translate(12.226 13.548)" fill="#0c8aed"/>
      <path id="Path_2760" data-name="Path 2760" d="M37,45h2.661v2.661H37Z" transform="translate(10.903 13.548)" fill="#0c8aed"/>
      <path id="Path_2761" data-name="Path 2761" d="M19,41H40.29v2.661H19Z" transform="translate(4.952 12.226)" fill="#0c8aed"/>
      <path id="Path_2762" data-name="Path 2762" d="M19,37H40.29v2.661H19Z" transform="translate(4.952 10.903)" fill="#0c8aed"/>
      <path id="Path_2763" data-name="Path 2763" d="M19,33H40.29v2.661H19Z" transform="translate(4.952 9.581)" fill="#0c8aed"/>
      <path id="Path_2764" data-name="Path 2764" d="M19,29H34.968v2.661H19Z" transform="translate(4.952 8.258)" fill="#0c8aed"/>
    </g>
  </g>
</svg>
