<?xml version="1.0" encoding="UTF-8" standalone="no"?>
<!-- Created with Inkscape (http://www.inkscape.org/) -->

<svg
   version="1.1"
   id="svg201"
   xml:space="preserve"
   width="682.66669"
   height="682.66669"
   viewBox="0 0 682.66669 682.66669"
   xmlns="http://www.w3.org/2000/svg"
   xmlns:svg="http://www.w3.org/2000/svg"><defs
     id="defs205"><clipPath
       clipPathUnits="userSpaceOnUse"
       id="clipPath215"><path
         d="M 0,512 H 512 V 0 H 0 Z"
         id="path213" /></clipPath></defs><g
     id="g207"
     transform="matrix(1.3333333,0,0,-1.3333333,0,682.66667)"><g
       id="g209"><g
         id="g211"
         clip-path="url(#clipPath215)"><g
           id="g217"
           transform="translate(79.645,23.5322)"><path
             d="m 0,0 v 0 c 0,-8.854 7.178,-16.032 16.032,-16.032 h 368.742 c 8.855,0 16.033,7.178 16.033,16.032 v 394.166 c 0,4.252 -1.69,8.33 -4.696,11.337 l -70.772,70.769 c -3.007,3.007 -7.085,4.696 -11.337,4.696 H 16.032 C 7.178,480.968 0,473.79 0,464.936 V 208.417"
             style="fill:none;stroke:#000000;stroke-width:15;stroke-linecap:round;stroke-linejoin:round;stroke-miterlimit:10;stroke-dasharray:none;stroke-opacity:1"
             id="path219" /></g><g
           id="g221"
           transform="translate(392.2744,504.5)"><path
             d="m 0,0 v -80.161 c 0,-4.427 3.589,-8.016 8.016,-8.016 h 80.161"
             style="fill:none;stroke:#000000;stroke-width:15;stroke-linecap:round;stroke-linejoin:round;stroke-miterlimit:10;stroke-dasharray:none;stroke-opacity:1"
             id="path223" /></g><g
           id="g225"
           transform="translate(262.3726,159.5715)"><path
             d="M 0,0 H -25.801 V -63.659"
             style="fill:none;stroke:#000000;stroke-width:15;stroke-linecap:round;stroke-linejoin:round;stroke-miterlimit:10;stroke-dasharray:none;stroke-opacity:1"
             id="path227" /></g><g
           id="g229"
           transform="translate(236.5713,128.3447)"><path
             d="M 0,0 H 23.751"
             style="fill:none;stroke:#000000;stroke-width:15;stroke-linecap:round;stroke-linejoin:round;stroke-miterlimit:10;stroke-dasharray:none;stroke-opacity:1"
             id="path231" /></g><g
           id="g233"
           transform="translate(162.8975,158.7935)"><path
             d="M 0,0 V -61.157"
             style="fill:none;stroke:#000000;stroke-width:15;stroke-linecap:round;stroke-linejoin:round;stroke-miterlimit:10;stroke-dasharray:none;stroke-opacity:1"
             id="path235" /></g><g
           id="g237"
           transform="translate(205.6543,127.7419)"><path
             d="m 0,0 c 0,-17.147 -9.517,-30.715 -24.616,-30.979 -5.026,-0.088 -18.014,-0.137 -18.014,-0.137 0,0 -0.081,22.541 -0.081,31.185 0,7.098 -0.046,31.047 -0.046,31.047 h 17.626 C -8.57,31.116 0,17.147 0,0 Z"
             style="fill:none;stroke:#000000;stroke-width:15;stroke-linecap:round;stroke-linejoin:round;stroke-miterlimit:10;stroke-dasharray:none;stroke-opacity:1"
             id="path239" /></g><g
           id="g241"
           transform="translate(95.4448,159.8064)"><path
             d="M 0,0 V -64.129"
             style="fill:none;stroke:#000000;stroke-width:15;stroke-linecap:round;stroke-linejoin:round;stroke-miterlimit:10;stroke-dasharray:none;stroke-opacity:1"
             id="path243" /></g><g
           id="g245"
           transform="translate(131.7529,141.7092)"><path
             d="m 0,0 c 0,-9.995 -8.457,-18.097 -18.452,-18.097 -4.957,0 -17.732,-0.08 -17.732,-0.08 0,0 -0.08,13.139 -0.08,18.177 0,4.138 -0.044,18.097 -0.044,18.097 h 17.856 C -8.457,18.097 0,9.995 0,0 Z"
             style="fill:none;stroke:#000000;stroke-width:15;stroke-linecap:round;stroke-linejoin:round;stroke-miterlimit:10;stroke-dasharray:none;stroke-opacity:1"
             id="path247" /></g><g
           id="g249"
           transform="translate(190.6577,246.9675)"><path
             d="M 0,0 C -26.532,40.961 194.555,78.842 182.161,41.023 163.114,-17.093 19.072,178.701 81.557,175.324 117.696,173.37 27.837,-42.976 0,0 Z"
             style="fill:none;stroke:#000000;stroke-width:15;stroke-linecap:round;stroke-linejoin:round;stroke-miterlimit:10;stroke-dasharray:none;stroke-opacity:1"
             id="path251" /></g><g
           id="g253"
           transform="translate(31.5483,223.9355)"><path
             d="m 0,0 v -144.29 c 0,-13.282 10.767,-24.049 24.048,-24.049 h 248.5 c 8.855,0 16.033,7.178 16.033,16.033 v 112.225 c 0,8.855 -7.178,16.033 -16.033,16.033 H 24.048 C 10.767,-24.048 0,-13.282 0,0 0,13.281 10.767,24.048 24.048,24.048 h 24.049"
             style="fill:none;stroke:#000000;stroke-width:15;stroke-linecap:round;stroke-linejoin:round;stroke-miterlimit:10;stroke-dasharray:none;stroke-opacity:1"
             id="path255" /></g></g></g></g></svg>
