<svg xmlns="http://www.w3.org/2000/svg" width="80.565" height="87" viewBox="0 0 80.565 87">
  <g id="artificial-intelligence_17092469" transform="translate(-4.219 -2)">
    <path id="Path_2783" data-name="Path 2783" d="M9.8,36.451V76.368H5.669a1.45,1.45,0,0,0-1.45,1.45v5.474A5.714,5.714,0,0,0,9.928,89H79.075a5.714,5.714,0,0,0,5.709-5.709V77.818a1.45,1.45,0,0,0-1.45-1.45H79.207V36.451A8.758,8.758,0,0,0,70.523,27.7V25.277a2.89,2.89,0,0,0-2.61-2.852l-3.364-.29a20.546,20.546,0,0,0-1.73-4.108l2.2-2.594a2.881,2.881,0,0,0-.17-3.872L60.966,7.688a2.868,2.868,0,0,0-3.876-.164l-2.575,2.16A19.972,19.972,0,0,0,50.378,8l-.29-3.4A2.851,2.851,0,0,0,47.246,2h-5.49a2.855,2.855,0,0,0-2.851,2.61l-.29,3.364A20.238,20.238,0,0,0,34.5,9.707L31.92,7.532a2.872,2.872,0,0,0-3.883.155l-3.9,3.883A2.877,2.877,0,0,0,24,15.436l2.175,2.578a20.282,20.282,0,0,0-1.679,4.131l-3.4.281a2.887,2.887,0,0,0-2.6,2.851V27.7A8.758,8.758,0,0,0,9.8,36.451ZM81.884,83.286A2.812,2.812,0,0,1,79.075,86.1H9.928a2.812,2.812,0,0,1-2.809-2.809V79.268H81.884ZM30.3,72.47a14.21,14.21,0,0,1,28.406,0v3.9H30.3Zm4.734-26.564a9.466,9.466,0,1,0,0-.006ZM24.7,25.036a2.852,2.852,0,0,0,2.535-2.075,19.14,19.14,0,0,1,1.48-3.571,2.872,2.872,0,0,0-.318-3.248l-2.2-2.533L30.041,9.74l2.581,2.175a2.875,2.875,0,0,0,3.254.318,18.6,18.6,0,0,1,3.539-1.47,2.861,2.861,0,0,0,2.1-2.523L41.757,4.9l5.451-.045.29,3.4a2.846,2.846,0,0,0,2.063,2.506,18.548,18.548,0,0,1,3.548,1.467,2.88,2.88,0,0,0,3.268-.3l2.539-2.175L62.8,13.565l-2.194,2.581a2.874,2.874,0,0,0-.322,3.249,19,19,0,0,1,1.473,3.538,2.858,2.858,0,0,0,2.523,2.1l3.344.242V27.7h-8.1a15.026,15.026,0,1,0-30.053,0H21.357l-.029-2.384ZM32.377,27.7a12.129,12.129,0,0,1,24.25,0ZM12.7,36.451A5.857,5.857,0,0,1,18.546,30.6h51.91a5.857,5.857,0,0,1,5.851,5.851V76.368h-14.7v-3.9A17.1,17.1,0,0,0,50.752,56.563a12.368,12.368,0,1,0-12.47.007,17.171,17.171,0,0,0-7.4,5.622l-6.471-9.164V43.023a1.45,1.45,0,0,0-2.9,0V53.491a1.45,1.45,0,0,0,.265.837l7.444,10.54a16.94,16.94,0,0,0-1.834,7.6v3.9H12.7Z" transform="translate(0 0)" fill="#0c8aed"/>
    <path id="Path_2784" data-name="Path 2784" d="M44.932,29.446h6.479a1.45,1.45,0,0,0,0-2.9H44.932a1.45,1.45,0,1,0,0,2.9Z" transform="translate(17.668 11.046)" fill="#0c8aed"/>
    <path id="Path_2785" data-name="Path 2785" d="M44.932,33.081H56.075a1.45,1.45,0,1,0,0-2.9H44.932a1.45,1.45,0,0,0,0,2.9Z" transform="translate(17.668 12.681)" fill="#0c8aed"/>
    <path id="Path_2786" data-name="Path 2786" d="M44.932,36.953h4.06a1.45,1.45,0,1,0,0-2.9h-4.06a1.45,1.45,0,1,0,0,2.9Z" transform="translate(17.668 14.424)" fill="#0c8aed"/>
    <path id="Path_2787" data-name="Path 2787" d="M51.448,34.053h-.457a1.45,1.45,0,0,0,0,2.9h.457a1.45,1.45,0,0,0,0-2.9Z" transform="translate(20.395 14.424)" fill="#0c8aed"/>
    <path id="Path_2788" data-name="Path 2788" d="M14.011,26.646H24.377a1.45,1.45,0,0,0,0-2.9H14.011a1.45,1.45,0,0,0,0,2.9Z" transform="translate(3.754 9.786)" fill="#0c8aed"/>
    <path id="Path_2789" data-name="Path 2789" d="M25.827,28.35a1.45,1.45,0,0,0-1.45-1.45H14.011a1.45,1.45,0,0,0,0,2.9H24.377A1.45,1.45,0,0,0,25.827,28.35Z" transform="translate(3.754 11.205)" fill="#0c8aed"/>
  </g>
</svg>
