<svg xmlns="http://www.w3.org/2000/svg" width="78.18" height="75.613" viewBox="0 0 78.18 75.613">
  <g id="computer_11981853" transform="translate(-41.91 -48.94)">
    <path id="Path_2790" data-name="Path 2790" d="M115.074,48.94H46.927c-2.766,0-5.017,2.573-5.017,5.735V105.5c0,3.162,2.25,5.734,5.017,5.734H79.6v10.509H55.919v2.809h50.163v-2.809H82.4V111.235h32.67c2.766,0,5.016-2.572,5.016-5.734V54.675C120.09,51.513,117.84,48.94,115.074,48.94Zm2.207,56.561c0,1.586-1.011,2.925-2.207,2.925H46.927c-1.2,0-2.207-1.339-2.207-2.925V54.675c0-1.586,1.011-2.925,2.207-2.925h68.148c1.2,0,2.207,1.34,2.207,2.925Z" fill="#0c8aed"/>
    <path id="Path_2791" data-name="Path 2791" d="M117.956,117.188a11.013,11.013,0,1,0-11.859,0,13.531,13.531,0,0,0-10.358,13.134v10.319h2.809V130.322a10.712,10.712,0,0,1,6.263-9.733l5.811,4.869v11.233h2.809V125.458l5.81-4.869a10.712,10.712,0,0,1,6.263,9.733v10.319h2.809V130.322A13.531,13.531,0,0,0,117.956,117.188Zm-5.93,5.783-3.922-3.287a10.77,10.77,0,0,1,1.144-.062h5.556a10.767,10.767,0,0,1,1.144.062Zm0-6.852a8.2,8.2,0,1,1,8.2-8.2A8.213,8.213,0,0,1,112.026,116.118Z" transform="translate(-44.001 -39.205)" fill="#0c8aed"/>
    <path id="Path_2792" data-name="Path 2792" d="M321.381,105.354h16.381v2.809H321.381Z" transform="translate(-228.443 -46.114)" fill="#0c8aed"/>
    <path id="Path_2793" data-name="Path 2793" d="M321.381,146.96h16.381v2.809H321.381Z" transform="translate(-228.443 -80.123)" fill="#0c8aed"/>
    <path id="Path_2794" data-name="Path 2794" d="M321.381,192.39h16.381V195.2H321.381Z" transform="translate(-228.443 -117.258)" fill="#0c8aed"/>
    <path id="Path_2795" data-name="Path 2795" d="M321.381,234h16.381v2.809H321.381Z" transform="translate(-228.443 -151.268)" fill="#0c8aed"/>
    <path id="Path_2796" data-name="Path 2796" d="M321.381,279.71h16.381v2.809H321.381Z" transform="translate(-228.443 -188.634)" fill="#0c8aed"/>
    <path id="Path_2797" data-name="Path 2797" d="M321.381,321.316h16.381v2.809H321.381Z" transform="translate(-228.443 -222.644)" fill="#0c8aed"/>
  </g>
</svg>
