<svg xmlns="http://www.w3.org/2000/svg" width="79.9" height="79.525" viewBox="0 0 79.9 79.525">
  <g id="data-analytics_9948626" transform="translate(-1 -1.1)">
    <g id="Group_983" data-name="Group 983" transform="translate(1 70.014)">
      <path id="Path_2765" data-name="Path 2765" d="M74.533,66.912H7.367A6.394,6.394,0,0,1,1,60.545v-3A1.179,1.179,0,0,1,2.248,56.3H32.71a1.179,1.179,0,0,1,1.248,1.248v1a1.119,1.119,0,0,0,1.124,1.124H46.818a1.119,1.119,0,0,0,1.124-1.124v-1A1.179,1.179,0,0,1,49.19,56.3H79.652A1.179,1.179,0,0,1,80.9,57.548v3A6.314,6.314,0,0,1,74.533,66.912ZM3.5,58.922V60.67a3.89,3.89,0,0,0,3.87,3.87H74.533a3.89,3.89,0,0,0,3.87-3.87V58.922H50.438a3.665,3.665,0,0,1-3.62,3.371H35.082a3.665,3.665,0,0,1-3.62-3.371Z" transform="translate(-1 -56.3)" fill="#0c8aed"/>
    </g>
    <g id="Group_987" data-name="Group 987" transform="translate(3.622 20.825)">
      <g id="Group_984" data-name="Group 984" transform="translate(61.173)">
        <path id="Path_2766" data-name="Path 2766" d="M64.335,68.71a1.179,1.179,0,0,1-1.248-1.248V22.643A3.305,3.305,0,0,0,59.84,19.4H53.348a1.248,1.248,0,0,1,0-2.5H59.84a5.809,5.809,0,0,1,5.743,5.743V67.337A1.367,1.367,0,0,1,64.335,68.71Z" transform="translate(-52.1 -16.9)" fill="#0c8aed"/>
      </g>
      <g id="Group_985" data-name="Group 985" transform="translate(0)">
        <path id="Path_2767" data-name="Path 2767" d="M4.348,68.71A1.179,1.179,0,0,1,3.1,67.462V22.643A5.809,5.809,0,0,1,8.843,16.9h6.242a1.248,1.248,0,0,1,0,2.5H8.843A3.305,3.305,0,0,0,5.6,22.643V67.337A1.283,1.283,0,0,1,4.348,68.71Z" transform="translate(-3.1 -16.9)" fill="#0c8aed"/>
      </g>
      <g id="Group_986" data-name="Group 986" transform="translate(4.994 4.994)">
        <path id="Path_2768" data-name="Path 2768" d="M70.521,62.723H8.348A1.179,1.179,0,0,1,7.1,61.474V22.148A1.179,1.179,0,0,1,8.348,20.9h5.743a1.248,1.248,0,1,1,0,2.5H9.6V60.1H69.272V23.4H65.277a1.248,1.248,0,0,1,0-2.5h5.243a1.179,1.179,0,0,1,1.248,1.248v39.2A1.367,1.367,0,0,1,70.521,62.723Z" transform="translate(-7.1 -20.9)" fill="#0c8aed"/>
      </g>
    </g>
    <g id="Group_991" data-name="Group 991" transform="translate(14.358 1.1)">
      <g id="Group_988" data-name="Group 988" transform="translate(50.437 5.868)">
        <path id="Path_2769" data-name="Path 2769" d="M53.348,66.474A1.179,1.179,0,0,1,52.1,65.226V7.048a1.248,1.248,0,1,1,2.5,0V65.1A1.367,1.367,0,0,1,53.348,66.474Z" transform="translate(-52.1 -5.8)" fill="#0c8aed"/>
      </g>
      <g id="Group_989" data-name="Group 989">
        <path id="Path_2770" data-name="Path 2770" d="M12.948,67.642A1.179,1.179,0,0,1,11.7,66.393V5.594A4.476,4.476,0,0,1,16.194,1.1H68a1.179,1.179,0,0,1,1.248,1.248A1.179,1.179,0,0,1,68,3.6H16.194a1.972,1.972,0,0,0-2,2V66.268a1.283,1.283,0,0,1-1.248,1.373Z" transform="translate(-11.7 -1.1)" fill="#0c8aed"/>
      </g>
      <g id="Group_990" data-name="Group 990" transform="translate(50.437 0.125)">
        <path id="Path_2771" data-name="Path 2771" d="M65.583,16.805H53.348A1.179,1.179,0,0,1,52.1,15.557V8.566A7.3,7.3,0,0,1,59.466,1.2a7.379,7.379,0,0,1,7.366,7.366v6.991A1.343,1.343,0,0,1,65.583,16.805ZM54.6,14.309h9.738V8.566A4.875,4.875,0,0,0,59.466,3.7,4.958,4.958,0,0,0,54.6,8.566Z" transform="translate(-52.1 -1.2)" fill="#0c8aed"/>
      </g>
    </g>
    <g id="Group_999" data-name="Group 999" transform="translate(20.85 7.842)">
      <g id="Group_994" data-name="Group 994">
        <g id="Group_992" data-name="Group 992" transform="translate(3.745)">
          <path id="Path_2772" data-name="Path 2772" d="M24.519,15.738a4.619,4.619,0,1,1,0-9.238,4.69,4.69,0,0,1,4.619,4.619A4.69,4.69,0,0,1,24.519,15.738Zm0-6.866A2.1,2.1,0,0,0,22.4,10.994a2.122,2.122,0,0,0,4.245,0A2.188,2.188,0,0,0,24.519,8.872Z" transform="translate(-19.9 -6.5)" fill="#0c8aed"/>
        </g>
        <g id="Group_993" data-name="Group 993" transform="translate(0 10.737)">
          <path id="Path_2773" data-name="Path 2773" d="M28.885,26.461H21.519a4.6,4.6,0,0,1-4.619-4v-1c0-2.372,1.124-6.367,8.365-6.367s8.365,3.995,8.365,6.367v1A4.829,4.829,0,0,1,28.885,26.461Zm-3.62-8.989c-5.868,0-5.868,2.871-5.868,3.87v.749a2.054,2.054,0,0,0,2.122,1.748h7.366a2.054,2.054,0,0,0,2.122-1.748v-.749c0-1,0-3.87-5.743-3.87Z" transform="translate(-16.9 -15.1)" fill="#0c8aed"/>
        </g>
      </g>
      <g id="Group_998" data-name="Group 998" transform="translate(20.724 0.375)">
        <g id="Group_995" data-name="Group 995">
          <path id="Path_2774" data-name="Path 2774" d="M51.1,15.914H34.748A1.179,1.179,0,0,1,33.5,14.665V8.048A1.179,1.179,0,0,1,34.748,6.8H51.1a1.179,1.179,0,0,1,1.248,1.248v6.617A1.251,1.251,0,0,1,51.1,15.914ZM36,13.417H49.855V9.3H36Z" transform="translate(-33.5 -6.8)" fill="#0c8aed"/>
        </g>
        <g id="Group_996" data-name="Group 996" transform="translate(0 12.859)">
          <path id="Path_2775" data-name="Path 2775" d="M51.1,19.6H34.748a1.248,1.248,0,0,1,0-2.5H51.1a1.248,1.248,0,1,1,0,2.5Z" transform="translate(-33.5 -17.1)" fill="#0c8aed"/>
        </g>
        <g id="Group_997" data-name="Group 997" transform="translate(0 18.727)">
          <path id="Path_2776" data-name="Path 2776" d="M51.1,24.3H34.748a1.248,1.248,0,0,1,0-2.5H51.1a1.248,1.248,0,1,1,0,2.5Z" transform="translate(-33.5 -21.8)" fill="#0c8aed"/>
        </g>
      </g>
    </g>
    <g id="Group_1008" data-name="Group 1008" transform="translate(22.848 33.934)">
      <g id="Group_1004" data-name="Group 1004">
        <g id="Group_1000" data-name="Group 1000" transform="translate(0 18.477)">
          <path id="Path_2777" data-name="Path 2777" d="M27.988,50.565h-8.24A1.179,1.179,0,0,1,18.5,49.316V43.448A1.179,1.179,0,0,1,19.748,42.2h8.24a1.248,1.248,0,0,1,0,2.5H21v3.371h6.991a1.248,1.248,0,1,1,0,2.5Z" transform="translate(-18.5 -42.2)" fill="#0c8aed"/>
        </g>
        <g id="Group_1001" data-name="Group 1001" transform="translate(8.24 14.482)">
          <path id="Path_2778" data-name="Path 2778" d="M34.588,51.36h-8.24A1.179,1.179,0,0,1,25.1,50.111V40.248A1.179,1.179,0,0,1,26.348,39h8.24a1.248,1.248,0,1,1,0,2.5H27.6v7.366h6.991a1.248,1.248,0,0,1,0,2.5Z" transform="translate(-25.1 -39)" fill="#0c8aed"/>
        </g>
        <g id="Group_1002" data-name="Group 1002" transform="translate(16.479 10.487)">
          <path id="Path_2779" data-name="Path 2779" d="M41.188,52.155h-8.24A1.179,1.179,0,0,1,31.7,50.906V37.048A1.179,1.179,0,0,1,32.948,35.8h8.24a1.248,1.248,0,1,1,0,2.5H34.2V49.658h6.991a1.248,1.248,0,1,1,0,2.5Z" transform="translate(-31.7 -35.8)" fill="#0c8aed"/>
        </g>
        <g id="Group_1003" data-name="Group 1003" transform="translate(24.719)">
          <path id="Path_2780" data-name="Path 2780" d="M47.788,54.241h-8.24A1.179,1.179,0,0,1,38.3,52.993V28.648A1.179,1.179,0,0,1,39.548,27.4h8.24a1.179,1.179,0,0,1,1.248,1.248V52.993A1.179,1.179,0,0,1,47.788,54.241Zm-6.991-2.5H46.54V29.9H40.8Z" transform="translate(-38.3 -27.4)" fill="#0c8aed"/>
        </g>
      </g>
      <g id="Group_1007" data-name="Group 1007" transform="translate(2.529 0)">
        <g id="Group_1005" data-name="Group 1005" transform="translate(0 0.781)">
          <path id="Path_2781" data-name="Path 2781" d="M21.742,41.726a1.135,1.135,0,0,1-1-.5,1.343,1.343,0,0,1,.25-1.748L35.974,28.243a1.248,1.248,0,1,1,1.5,2L22.491,41.477a1.774,1.774,0,0,1-.749.25Z" transform="translate(-20.526 -28.026)" fill="#0c8aed"/>
        </g>
        <g id="Group_1006" data-name="Group 1006" transform="translate(9.831)">
          <path id="Path_2782" data-name="Path 2782" d="M34.018,35.515h-.125a1.237,1.237,0,0,1-1-1.373l.5-3.745-3.87-.5A1.463,1.463,0,0,1,28.4,28.524,1.463,1.463,0,0,1,29.773,27.4l5.243.749a1.264,1.264,0,0,1,.874.5,1.189,1.189,0,0,1,.25.874l-.749,4.994a1.461,1.461,0,0,1-1.373,1Z" transform="translate(-28.4 -27.4)" fill="#0c8aed"/>
        </g>
      </g>
    </g>
  </g>
</svg>
