<svg xmlns="http://www.w3.org/2000/svg" width="79.9" height="89.473" viewBox="0 0 79.9 89.473">
  <g id="folder_13684196" transform="translate(-10.35 -5.307)">
    <path id="Path_2744" data-name="Path 2744" d="M88.74,53.88a1.5,1.5,0,0,1-1.5-1.5v-10a3,3,0,0,0-3-3h-5.6a1.5,1.5,0,0,1,0-3h5.6a6,6,0,0,1,6,6v10a1.5,1.5,0,0,1-1.5,1.5Z" fill="#0c8aed"/>
    <path id="Path_2745" data-name="Path 2745" d="M11.85,43.17a1.5,1.5,0,0,1-1.5-1.5v-10a6,6,0,0,1,6-6h8.72a1.5,1.5,0,0,1,0,3H16.35a3,3,0,0,0-3,3v10A1.5,1.5,0,0,1,11.85,43.17Z" fill="#0c8aed"/>
    <path id="Path_2746" data-name="Path 2746" d="M78.65,49.38a1.5,1.5,0,0,1-1.5-1.5V22.5L63.77,8.31H28.87a2.3,2.3,0,0,0-2.3,2.3V37.18a1.5,1.5,0,1,1-3,0V10.61a5.31,5.31,0,0,1,5.3-5.3H64.42a1.5,1.5,0,0,1,1.09.47L79.74,20.87a1.52,1.52,0,0,1,.41,1v26a1.5,1.5,0,0,1-1.5,1.51Z" fill="#0c8aed"/>
    <path id="Path_2747" data-name="Path 2747" d="M78.65,23.4H64.42a1.5,1.5,0,0,1-1.5-1.5V6.81a1.5,1.5,0,0,1,.94-1.4,1.52,1.52,0,0,1,1.65.37L79.74,20.87A1.53,1.53,0,0,1,80,22.5a1.5,1.5,0,0,1-1.35.9Zm-12.73-3h9.25l-9.25-9.81Z" fill="#0c8aed"/>
    <path id="Path_2748" data-name="Path 2748" d="M66.68,32.44H35.74a1.5,1.5,0,1,1,0-3H66.68a1.5,1.5,0,0,1,0,3Z" fill="#0c8aed"/>
    <path id="Path_2749" data-name="Path 2749" d="M56.89,19.22H35.74a1.5,1.5,0,1,1,0-3H56.89a1.5,1.5,0,0,1,0,3Z" fill="#0c8aed"/>
    <path id="Path_2750" data-name="Path 2750" d="M84.25,94.78H16.35a6,6,0,0,1-6-6V41.67a6,6,0,0,1,6-6H35.11a6,6,0,0,1,4.66,2.23l6,7.36a3,3,0,0,0,2.33,1.11H84.25a6,6,0,0,1,6,6v36.4a6,6,0,0,1-6,6.01Zm-67.9-56.1a3,3,0,0,0-3,3v47.1a3,3,0,0,0,3,3h67.9a3,3,0,0,0,3-3V52.38a3,3,0,0,0-3-3H48.06a6,6,0,0,1-4.67-2.22l-6-7.37a3,3,0,0,0-2.32-1.11Z" fill="#0c8aed"/>
    <path id="Path_2751" data-name="Path 2751" d="M50,75.29a10.8,10.8,0,1,1,10.8-10.8A10.8,10.8,0,0,1,50,75.29Zm0-18.6a7.8,7.8,0,1,0,7.8,7.8,7.8,7.8,0,0,0-7.8-7.8Z" fill="#0c8aed"/>
    <path id="Path_2752" data-name="Path 2752" d="M64.94,94.78H35.06a1.5,1.5,0,0,1-1.5-1.5V88A10.58,10.58,0,0,1,44.13,77.48H55.87A10.58,10.58,0,0,1,66.44,88v5.24a1.5,1.5,0,0,1-1.5,1.54Zm-28.38-3H63.44V88a7.58,7.58,0,0,0-7.57-7.56H44.13A7.58,7.58,0,0,0,36.56,88Z" fill="#0c8aed"/>
  </g>
</svg>
