<svg xmlns="http://www.w3.org/2000/svg" width="93.023" height="93.023" viewBox="0 0 93.023 93.023">
  <g id="Layer_32_copy_11" data-name="Layer 32 copy 11" transform="translate(-3.488 -3.488)">
    <path id="Path_2753" data-name="Path 2753" d="M70.14,44.67l-3.71-.35a16.119,16.119,0,0,0-.79-1.92L68,39.52a1.49,1.49,0,0,0-.1-2L62.48,32.1a1.49,1.49,0,0,0-2-.1L57.6,34.36a16.121,16.121,0,0,0-1.92-.79l-.35-3.71a1.51,1.51,0,0,0-1.5-1.36H46.17a1.51,1.51,0,0,0-1.5,1.36l-.35,3.71a16.12,16.12,0,0,0-1.92.79L39.52,32a1.49,1.49,0,0,0-2,.1L32.1,37.52a1.49,1.49,0,0,0-.1,2l2.37,2.88a16.121,16.121,0,0,0-.79,1.92l-3.71.35a1.51,1.51,0,0,0-1.36,1.5v7.66a1.51,1.51,0,0,0,1.36,1.5l3.71.35a16.12,16.12,0,0,0,.79,1.92L32,60.48a1.49,1.49,0,0,0,.1,2l5.42,5.42a1.49,1.49,0,0,0,2,.1l2.88-2.37a16.119,16.119,0,0,0,1.92.79l.35,3.71a1.51,1.51,0,0,0,1.5,1.36h7.66a1.51,1.51,0,0,0,1.5-1.36l.35-3.71a16.12,16.12,0,0,0,1.92-.79L60.48,68a1.49,1.49,0,0,0,2-.1l5.42-5.42a1.49,1.49,0,0,0,.1-2L65.64,57.6a16.12,16.12,0,0,0,.79-1.92l3.71-.35a1.51,1.51,0,0,0,1.36-1.5V46.17a1.51,1.51,0,0,0-1.36-1.5Zm-1.64,7.8-3.34.32a1.52,1.52,0,0,0-1.31,1.09,13.84,13.84,0,0,1-1.31,3.17,1.51,1.51,0,0,0,.15,1.69l2.14,2.59-3.5,3.5-2.58-2.14a1.53,1.53,0,0,0-1.7-.15,13.84,13.84,0,0,1-3.17,1.31,1.52,1.52,0,0,0-1.09,1.3l-.32,3.35H47.53l-.32-3.35a1.52,1.52,0,0,0-1.09-1.3A13.84,13.84,0,0,1,43,62.54a1.53,1.53,0,0,0-1.7.15l-2.58,2.14-3.5-3.5,2.14-2.59a1.51,1.51,0,0,0,.15-1.69,13.84,13.84,0,0,1-1.31-3.17,1.52,1.52,0,0,0-1.31-1.09l-3.34-.32V47.53l3.34-.32a1.52,1.52,0,0,0,1.31-1.09A13.84,13.84,0,0,1,37.46,43a1.51,1.51,0,0,0-.15-1.69l-2.14-2.59,3.5-3.5,2.58,2.14a1.53,1.53,0,0,0,1.7.15,13.84,13.84,0,0,1,3.17-1.31,1.52,1.52,0,0,0,1.09-1.3l.32-3.35h4.94l.32,3.35a1.52,1.52,0,0,0,1.09,1.3,13.84,13.84,0,0,1,3.17,1.31,1.53,1.53,0,0,0,1.7-.15l2.58-2.14,3.5,3.5-2.14,2.59A1.51,1.51,0,0,0,62.54,43a13.84,13.84,0,0,1,1.31,3.17,1.52,1.52,0,0,0,1.31,1.09l3.34.32ZM50,41.18A8.82,8.82,0,1,0,58.82,50,8.82,8.82,0,0,0,50,41.18Zm0,14.64A5.82,5.82,0,1,1,55.82,50,5.82,5.82,0,0,1,50,55.82ZM85.17,51.5a5.77,5.77,0,1,0,0-3H79.71v-12h5.46a5.77,5.77,0,1,0,0-3H79.71V32.37A12.09,12.09,0,0,0,67.63,20.29H66.5V14.83a5.77,5.77,0,1,0-3,0v5.46h-12V14.83a5.77,5.77,0,1,0-3,0v5.46h-12V14.83a5.77,5.77,0,1,0-3,0v5.46H32.37A12.09,12.09,0,0,0,20.29,32.37V33.5H14.83a5.77,5.77,0,1,0,0,3h5.46v12H14.83a5.77,5.77,0,1,0,0,3h5.46v12H14.83a5.77,5.77,0,1,0,0,3h5.46v1.13A12.09,12.09,0,0,0,32.37,79.71H33.5v5.46a5.77,5.77,0,1,0,3,0V79.71h12v5.46a5.77,5.77,0,1,0,3,0V79.71h12v5.46a5.77,5.77,0,1,0,3,0V79.71h1.13A12.09,12.09,0,0,0,79.71,67.63V66.5h5.46a5.77,5.77,0,1,0,0-3H79.71v-12Zm5.56-4.27A2.77,2.77,0,1,1,88,50a2.77,2.77,0,0,1,2.73-2.77Zm0-15A2.77,2.77,0,1,1,88,35a2.77,2.77,0,0,1,2.73-2.77ZM9.27,37.77A2.77,2.77,0,1,1,12,35a2.77,2.77,0,0,1-2.73,2.77Zm0,15A2.77,2.77,0,1,1,12,50a2.77,2.77,0,0,1-2.73,2.77Zm0,15A2.77,2.77,0,1,1,12,65a2.77,2.77,0,0,1-2.73,2.77Zm81.46-5.54A2.77,2.77,0,1,1,88,65a2.77,2.77,0,0,1,2.73-2.77Zm-28.5-53a2.75,2.75,0,1,1,0,.04Zm-15,0a2.75,2.75,0,1,1,0,.04Zm-15,0a2.75,2.75,0,1,1,0,.04Zm5.54,81.46a2.711,2.711,0,1,0,0,.04Zm15,0a2.711,2.711,0,1,0,0,.04Zm15,0a2.711,2.711,0,1,0,0,.04Zm8.94-23.1a9.09,9.09,0,0,1-9.08,9.08H32.37a9.09,9.09,0,0,1-9.08-9.08V32.37a9.09,9.09,0,0,1,9.08-9.08H67.63a9.09,9.09,0,0,1,9.08,9.08V67.63Z" fill="#0c8aed"/>
  </g>
</svg>
