<svg xmlns="http://www.w3.org/2000/svg" xmlns:xlink="http://www.w3.org/1999/xlink" width="118" height="118" viewBox="0 0 118 118">
  <defs>
    <clipPath id="clip-path">
      <rect id="Rectangle_442" data-name="Rectangle 442" width="118" height="118" transform="translate(280 10374)" fill="#0083e3" stroke="#707070" stroke-width="1"/>
    </clipPath>
  </defs>
  <g id="Mask_Group_103" data-name="Mask Group 103" transform="translate(-280 -10374)" clip-path="url(#clip-path)">
    <path id="reputation-management_17049396" d="M106.791,66.97H89.623a1.851,1.851,0,0,0-1.851,1.851,28.541,28.541,0,1,1-57.081,0A1.851,1.851,0,0,0,28.84,66.97H11.672a1.851,1.851,0,0,0-1.851,1.851V75.2a3.41,3.41,0,0,0,3.406,3.406h4.918A41.761,41.761,0,0,0,23.261,90.95l-3.48,3.48a3.408,3.408,0,0,0,0,4.817l9.025,9.025a3.41,3.41,0,0,0,4.817,0l3.48-3.481a41.756,41.756,0,0,0,12.341,5.115v4.918a3.41,3.41,0,0,0,3.406,3.406H65.613a3.41,3.41,0,0,0,3.406-3.406v-4.919a41.768,41.768,0,0,0,12.341-5.115l3.48,3.48a3.41,3.41,0,0,0,4.817,0l9.025-9.024a3.408,3.408,0,0,0,0-4.817L95.2,90.95a41.766,41.766,0,0,0,5.115-12.341h4.919a3.41,3.41,0,0,0,3.406-3.406V68.821a1.851,1.851,0,0,0-1.851-1.851Zm-1.851,7.937H98.826A1.851,1.851,0,0,0,97.011,76.4,38.139,38.139,0,0,1,91.3,90.177a1.851,1.851,0,0,0,.231,2.336l4.325,4.325-8.606,8.606-4.325-4.325a1.852,1.852,0,0,0-2.336-.231A38.138,38.138,0,0,1,66.806,106.6a1.851,1.851,0,0,0-1.489,1.815v6.113H53.146v-6.113a1.851,1.851,0,0,0-1.489-1.815,38.145,38.145,0,0,1-13.782-5.712,1.851,1.851,0,0,0-2.336.231l-4.325,4.325-8.606-8.606,4.325-4.325a1.851,1.851,0,0,0,.231-2.336A38.134,38.134,0,0,1,21.451,76.4a1.851,1.851,0,0,0-1.815-1.489H13.523V70.672H27.041a32.243,32.243,0,0,0,64.38,0H104.94ZM15.85,62.417A1.851,1.851,0,0,0,19.1,63.472l4.366-5.058,6.5,1.526a1.851,1.851,0,0,0,2.006-2.761l-3.461-5.715,3.461-5.715a1.851,1.851,0,0,0-2.006-2.761l-6.5,1.526L19.1,39.457a1.851,1.851,0,0,0-3.246,1.054l-.559,6.658L9.132,49.758a1.851,1.851,0,0,0,0,3.413l6.159,2.589Zm1.909-12.27A1.851,1.851,0,0,0,18.886,48.6l.284-3.387,2.221,2.573a1.851,1.851,0,0,0,1.824.593l3.309-.776-1.761,2.907a1.851,1.851,0,0,0,0,1.918l1.761,2.907-3.309-.776a1.851,1.851,0,0,0-1.824.593l-2.221,2.573-.284-3.387a1.851,1.851,0,0,0-1.127-1.551l-3.133-1.317Zm56.706-22,6.488,1.594,1.594,6.488a1.851,1.851,0,0,0,3.371.534l3.521-5.678,6.663.489a1.851,1.851,0,0,0,1.549-3.041l-4.312-5.1,2.524-6.186a1.851,1.851,0,0,0-2.413-2.413l-6.186,2.524-5.1-4.312a1.851,1.851,0,0,0-3.041,1.549l.489,6.663-5.678,3.521a1.851,1.851,0,0,0,.534,3.371Zm8.048-4.336a1.851,1.851,0,0,0,.871-1.709l-.249-3.39,2.6,2.194a1.851,1.851,0,0,0,1.894.3l3.147-1.284L89.488,23.07a1.851,1.851,0,0,0,.3,1.894l2.194,2.6-3.39-.249a1.849,1.849,0,0,0-1.709.871l-1.791,2.889-.811-3.3a1.851,1.851,0,0,0-1.356-1.356l-3.3-.81Zm26.817,25.946-6.159-2.589-.559-6.658a1.851,1.851,0,0,0-3.246-1.054L95,44.515l-6.5-1.526a1.851,1.851,0,0,0-2.006,2.761l3.461,5.715-3.461,5.715A1.851,1.851,0,0,0,88.5,59.94L95,58.415l4.366,5.058a1.851,1.851,0,0,0,3.246-1.055l.559-6.658,6.159-2.589a1.851,1.851,0,0,0,0-3.413ZM100.7,52.781a1.851,1.851,0,0,0-1.127,1.551l-.284,3.387-2.221-2.573a1.85,1.85,0,0,0-1.824-.592l-3.309.776L93.7,52.424a1.851,1.851,0,0,0,0-1.918L91.938,47.6l3.309.776a1.848,1.848,0,0,0,1.824-.593l2.221-2.573.284,3.387a1.851,1.851,0,0,0,1.127,1.551l3.133,1.317ZM52.281,15.694l-1.526,6.5a1.851,1.851,0,0,0,2.761,2.006l5.715-3.461,5.715,3.461A1.851,1.851,0,0,0,67.707,22.2l-1.525-6.5,5.057-4.366a1.851,1.851,0,0,0-1.055-3.245l-6.658-.559L60.938,1.365a1.851,1.851,0,0,0-3.413,0L54.936,7.524l-6.658.559a1.851,1.851,0,0,0-1.055,3.245Zm4.082-4.575a1.851,1.851,0,0,0,1.552-1.127l1.317-3.133,1.317,3.133A1.851,1.851,0,0,0,62.1,11.119l3.387.284-2.573,2.221a1.851,1.851,0,0,0-.593,1.824l.776,3.309L60.19,17a1.851,1.851,0,0,0-1.918,0l-2.907,1.761.776-3.309a1.851,1.851,0,0,0-.593-1.824L52.976,11.4Zm-34,20.456,6.663-.489,3.521,5.678a1.851,1.851,0,0,0,3.371-.534l1.594-6.488L44,28.148a1.851,1.851,0,0,0,.534-3.371l-5.678-3.521.489-6.663A1.851,1.851,0,0,0,36.3,13.044l-5.1,4.313-6.186-2.525A1.851,1.851,0,0,0,22.6,17.246l2.524,6.186-4.312,5.1a1.851,1.851,0,0,0,1.55,3.04Zm6.614-8.5L27.69,19.923l3.147,1.284a1.852,1.852,0,0,0,1.894-.3l2.6-2.194-.249,3.39a1.851,1.851,0,0,0,.871,1.709L38.838,25.6l-3.3.811a1.851,1.851,0,0,0-1.356,1.356l-.811,3.3-1.791-2.889a1.851,1.851,0,0,0-1.573-.876q-.068,0-.136,0l-3.39.249,2.194-2.6a1.85,1.85,0,0,0,.3-1.894Zm23.8,32.4A23.355,23.355,0,0,0,36.063,76.042,3.336,3.336,0,0,0,39.4,79.634h39.67A3.336,3.336,0,0,0,82.4,76.042,23.355,23.355,0,0,0,65.689,55.475a13.407,13.407,0,1,0-12.914,0Zm25.9,20.458H39.788a19.532,19.532,0,0,1,38.887,0ZM59.231,34.023a9.705,9.705,0,1,1-9.705,9.705A9.716,9.716,0,0,1,59.231,34.023Z" transform="translate(279.77 10373.769)" fill="#0083e3"/>
  </g>
</svg>
