<svg xmlns="http://www.w3.org/2000/svg" xmlns:xlink="http://www.w3.org/1999/xlink" width="118" height="118" viewBox="0 0 118 118">
  <defs>
    <clipPath id="clip-path">
      <rect id="Rectangle_446" data-name="Rectangle 446" width="118" height="118" transform="translate(695 10664)" fill="#0083e3" stroke="#707070" stroke-width="1"/>
    </clipPath>
  </defs>
  <g id="Mask_Group_99" data-name="Mask Group 99" transform="translate(-695 -10664)" clip-path="url(#clip-path)">
    <g id="ability_15896211" transform="translate(695.012 10663.993)">
      <path id="Path_372" data-name="Path 372" d="M54.148,14.344a1.844,1.844,0,0,0,2.59-.286l.415-.507V21.2a1.844,1.844,0,1,0,3.687,0V13.551l.406.507a1.844,1.844,0,1,0,2.876-2.3L60.435,7.144,60.379,7.1a1.844,1.844,0,0,0-2.765,0l-.055.046-3.687,4.609a1.844,1.844,0,0,0,.277,2.59Z" fill="#0083e3"/>
      <path id="Path_373" data-name="Path 373" d="M117.763,66.371a1.844,1.844,0,0,0,.055-1.659,2.056,2.056,0,0,0-.507-.664L112.7,60.361a1.844,1.844,0,1,0-2.3,2.876l.507.406h-7.66a1.844,1.844,0,0,0,0,3.687H110.9l-.507.406a1.844,1.844,0,0,0,2.3,2.876l4.609-3.687A1.843,1.843,0,0,0,117.763,66.371Z" fill="#0083e3"/>
      <path id="Path_374" data-name="Path 374" d="M14.749,63.606H7.08l.507-.406a1.844,1.844,0,0,0-2.3-2.876L.673,64.011a1.844,1.844,0,0,0-.065,2.812l.065.065,4.609,3.687a1.844,1.844,0,0,0,2.3-2.876l-.507-.406h7.67a1.844,1.844,0,1,0,0-3.687Z" fill="#0083e3"/>
      <path id="Path_375" data-name="Path 375" d="M21.054,30.7l-.074-.645,5.411,5.411A1.845,1.845,0,1,0,29,32.854l-5.411-5.411.645.074a1.855,1.855,0,0,0,.406-3.687l-5.872-.654h-.083a1.844,1.844,0,0,0-1.954,1.945v.092l.654,5.863a1.844,1.844,0,0,0,1.844,1.641h.2A1.844,1.844,0,0,0,21.054,30.7Z" fill="#0083e3"/>
      <path id="Path_376" data-name="Path 376" d="M101.253,24.889a1.844,1.844,0,0,0-1.309-1.622,2.074,2.074,0,0,0-.728-.083l-5.872.654a1.855,1.855,0,1,0,.406,3.687l.645-.074-5.411,5.411a1.845,1.845,0,1,0,2.609,2.609L97,30.061l-.074.645a1.844,1.844,0,0,0,1.632,2.037h.2a1.844,1.844,0,0,0,1.844-1.641l.654-5.863A1.742,1.742,0,0,0,101.253,24.889Z" fill="#0083e3"/>
      <path id="Path_377" data-name="Path 377" d="M92.182,57.78H88.366A30.623,30.623,0,0,0,85.343,50.5l2.71-2.71a5.771,5.771,0,0,0-.323-8.149l-2.922-2.913a6.241,6.241,0,0,0-4.028-1.844A5.319,5.319,0,0,0,76.668,36.4l-2.71,2.71a30.54,30.54,0,0,0-7.282-3.024V32.264a5.78,5.78,0,0,0-5.983-5.531H56.545a5.78,5.78,0,0,0-5.992,5.531v3.826a30.568,30.568,0,0,0-7.292,3.024l-2.7-2.719a5.78,5.78,0,0,0-8.14.332L29.5,39.638A6.231,6.231,0,0,0,27.655,44a5.282,5.282,0,0,0,1.53,3.77l3.733,3.687a1.845,1.845,0,0,0,2.609-2.609L31.794,45.16a1.613,1.613,0,0,1-.452-1.143,2.526,2.526,0,0,1,.784-1.761l2.9-2.922A2.12,2.12,0,0,1,37.961,39l3.687,3.687a1.844,1.844,0,0,0,2.3.249,26.917,26.917,0,0,1,8.813-3.687A1.844,1.844,0,0,0,54.2,37.408V32.264a2.111,2.111,0,0,1,2.3-1.844h4.139a2.111,2.111,0,0,1,2.3,1.844v5.273A1.844,1.844,0,0,0,64.38,39.38a26.908,26.908,0,0,1,8.813,3.687,1.844,1.844,0,0,0,2.3-.249l3.687-3.687a1.678,1.678,0,0,1,1.281-.442,2.553,2.553,0,0,1,1.641.774l2.931,2.931a2.129,2.129,0,0,1,.415,2.775l-3.687,3.687a1.844,1.844,0,0,0-.249,2.3A26.954,26.954,0,0,1,85.2,59.965a1.844,1.844,0,0,0,1.844,1.447h5.144a2.111,2.111,0,0,1,1.844,2.3v4.139a2.139,2.139,0,0,1-1.844,2.3H86.919a1.844,1.844,0,0,0-1.844,1.447A26.982,26.982,0,0,1,81.388,80.4a1.844,1.844,0,0,0,.249,2.3l3.687,3.687a2.111,2.111,0,0,1-.2,3.033L82.2,92.339a2.12,2.12,0,0,1-2.922.332L75.59,88.938a1.844,1.844,0,0,0-2.6,0l-2.71,2.6a1.845,1.845,0,1,0,2.6,2.618l1.346-1.337,2.434,2.443a5.282,5.282,0,0,0,3.77,1.53,6.222,6.222,0,0,0,4.379-1.844l2.931-2.922a5.78,5.78,0,0,0,.313-8.14l-2.71-2.765a30.6,30.6,0,0,0,3.024-7.282h3.816a5.78,5.78,0,0,0,5.531-5.983V63.763a5.771,5.771,0,0,0-5.531-5.983Z" fill="#0083e3"/>
      <path id="Path_378" data-name="Path 378" d="M60.84,53.2V49.991a1.844,1.844,0,0,0-3.687,0V53.2a1.844,1.844,0,0,0,3.687,0Z" fill="#0083e3"/>
      <path id="Path_379" data-name="Path 379" d="M57.153,82.042V85.25a1.844,1.844,0,0,0,3.687,0V82.042a1.844,1.844,0,1,0-3.687,0Z" fill="#0083e3"/>
      <path id="Path_380" data-name="Path 380" d="M76.613,69.469a1.844,1.844,0,0,0,0-3.687H73.4a1.844,1.844,0,1,0,0,3.687Z" fill="#0083e3"/>
      <path id="Path_381" data-name="Path 381" d="M67.874,76.511a1.844,1.844,0,0,0,0,2.609l2.268,2.268a1.845,1.845,0,0,0,2.609-2.609l-2.268-2.268a1.844,1.844,0,0,0-2.609,0Z" fill="#0083e3"/>
      <path id="Path_382" data-name="Path 382" d="M47.465,58.729a1.845,1.845,0,1,0,2.609-2.609l-2.268-2.268a1.854,1.854,0,1,0-2.636,2.609Z" fill="#0083e3"/>
      <path id="Path_383" data-name="Path 383" d="M50.073,76.511a1.844,1.844,0,0,0-2.609,0l-2.3,2.286a1.845,1.845,0,1,0,2.609,2.609l2.268-2.268a1.844,1.844,0,0,0,.028-2.627Z" fill="#0083e3"/>
      <path id="Path_384" data-name="Path 384" d="M70.142,53.853l-2.268,2.268a1.845,1.845,0,0,0,2.609,2.609l2.268-2.268a1.845,1.845,0,0,0-2.609-2.609Z" fill="#0083e3"/>
      <path id="Path_385" data-name="Path 385" d="M44.248,91.261H36.965c-4.757.258-5.3-2.821-5.356-3.5V75.295a1.844,1.844,0,0,0-1.844-1.844H25.092L32.347,58.9a1.845,1.845,0,1,0-3.3-1.65L20.455,74.474a1.844,1.844,0,0,0,1.669,2.664h5.807V87.905a7.725,7.725,0,0,0,1.346,3.687c1.069,1.539,3.162,3.309,7.144,3.309h7.826a1.844,1.844,0,1,0,0-3.687Z" fill="#0083e3"/>
      <circle id="Ellipse_145" data-name="Ellipse 145" cx="2.074" cy="2.074" r="2.074" transform="translate(35.665 64.537)" fill="#0083e3"/>
      <path id="Path_386" data-name="Path 386" d="M67.293,100.479H50.7a1.844,1.844,0,1,0,0,3.687H67.293a1.844,1.844,0,0,0,0-3.687Z" fill="#0083e3"/>
      <path id="Path_387" data-name="Path 387" d="M64.528,107.853H53.466a1.844,1.844,0,1,0,0,3.687H64.528a1.844,1.844,0,1,0,0-3.687Z" fill="#0083e3"/>
      <path id="Path_388" data-name="Path 388" d="M52.332,68.215a6.453,6.453,0,1,0,6.453-6.453,6.453,6.453,0,0,0-6.453,6.453Zm6.453-2.765a2.765,2.765,0,1,1-2.765,2.765,2.765,2.765,0,0,1,2.765-2.765Z" fill="#0083e3"/>
    </g>
  </g>
</svg>
