<svg xmlns="http://www.w3.org/2000/svg" width="50" height="47.756" viewBox="0 0 50 47.756">
  <path id="open-mail_10732928" d="M50.5,28.445a.684.684,0,0,0-.294-.562l-7.125-4.936V21.029a3.14,3.14,0,0,0-3.136-3.136H35.706a.68.68,0,0,0-.175-.177L28.583,12.9a5.581,5.581,0,0,0-5.992-.119l-7.377,5.11h-4.16a3.139,3.139,0,0,0-3.134,3.136v1.918L.794,27.883a.683.683,0,0,0-.294.562c0,.02,0,.04,0,.06a.7.7,0,0,0,0,.071V54.627a5.1,5.1,0,0,0,5.1,5.1h39.81a5.1,5.1,0,0,0,5.094-5.1V28.5c0-.01,0-.019,0-.029S50.5,28.453,50.5,28.445Zm-1.884,0-5.535,3.837V24.611ZM23.37,13.906a4.254,4.254,0,0,1,4.434.119l5.582,3.867H17.616ZM7.922,24.61v7.674L2.384,28.445ZM5.6,58.356a3.708,3.708,0,0,1-1.427-.284L23.717,41.888a3.312,3.312,0,0,1,3.722.1L46.832,58.072a3.7,3.7,0,0,1-1.426.284H5.6Zm42.424-1.075L28.311,40.937a4.648,4.648,0,0,0-5.467-.1L2.98,57.281a3.717,3.717,0,0,1-1.113-2.654V29.751L8.2,34.139l.041.029,10.972,7.606a.684.684,0,1,0,.779-1.124l-10.7-7.418v-12.2a1.769,1.769,0,0,1,1.766-1.769H39.945a1.771,1.771,0,0,1,1.769,1.769v12.2l-10.69,7.411a.684.684,0,1,0,.779,1.124l10.945-7.588a.693.693,0,0,0,.082-.057l6.3-4.37V54.627a3.718,3.718,0,0,1-1.112,2.654Zm-18.4-21.69A7,7,0,1,1,32.5,29.929a5.4,5.4,0,0,1-.526,2.742.917.917,0,0,1-.76.543,1.214,1.214,0,0,1-1.075-1.192V25.97a.684.684,0,1,0-1.368,0v.67a4.644,4.644,0,1,0,.2,6.362,2.516,2.516,0,0,0,2.242,1.58,2.244,2.244,0,0,0,1.934-1.21,6.805,6.805,0,0,0,.719-3.443A8.373,8.373,0,1,0,30.426,36.7a.684.684,0,1,0-.806-1.1ZM25.5,33.2a3.276,3.276,0,1,1,3.275-3.275A3.279,3.279,0,0,1,25.5,33.2Z" transform="translate(-0.5 -11.967)"/>
</svg>
