<svg xmlns="http://www.w3.org/2000/svg" xmlns:xlink="http://www.w3.org/1999/xlink" width="118" height="118" viewBox="0 0 118 118">
  <defs>
    <clipPath id="clip-path">
      <rect id="Rectangle_443" data-name="Rectangle 443" width="118" height="118" transform="translate(694 10374)" fill="#0083e3" stroke="#707070" stroke-width="1"/>
    </clipPath>
  </defs>
  <g id="Mask_Group_102" data-name="Mask Group 102" transform="translate(-694 -10374)" clip-path="url(#clip-path)">
    <path id="accredited_12797149" d="M12.5,20.41h7.256a1.868,1.868,0,0,0,1.859-1.859V9.366ZM21.612,105.7a1.57,1.57,0,0,1,0-3.141H87.534a1.57,1.57,0,1,1,0,3.141Zm41.436-72a11.985,11.985,0,1,0,0,16.95,11.985,11.985,0,0,0,0-16.95Zm-8.475-6.651A15.126,15.126,0,1,1,39.447,42.181,15.126,15.126,0,0,1,54.573,27.055ZM41.039,60.266,36.167,68.81,40.006,68v0a1.565,1.565,0,0,1,1.809,1.034l1.254,3.716,4.969-8.71A6.822,6.822,0,0,1,44,63.789c-1.591-.78-2.113-2.271-2.957-3.522Zm29.832-1.475,6.522,11.438a1.568,1.568,0,0,1-1.65,2.372l-5.891-1.247-1.916,5.673a1.567,1.567,0,0,1-2.855.3L58.017,64.937c-2.729,1.754-4.158,1.754-6.886,0l-7.065,12.39a1.567,1.567,0,0,1-2.855-.3l-1.916-5.673L33.4,72.6a1.568,1.568,0,0,1-1.65-2.372l6.522-11.438a5.1,5.1,0,0,1-2.47-1.562c-1.37-1.707-.856-4.12-1.379-5.186s-2.763-2.172-3.274-4.351.988-4.164.988-5.511-1.5-3.337-.989-5.511,2.758-3.3,3.274-4.35.009-3.479,1.379-5.186,3.822-1.718,4.738-2.453S42.013,21.547,44,20.575s4.23.051,5.437-.232,2.848-2.22,5.14-2.22,3.928,1.935,5.14,2.22,3.443-.746,5.437.232,2.532,3.368,3.452,4.105,3.373.752,4.738,2.453.856,4.12,1.379,5.186,2.763,2.172,3.274,4.35-.988,4.164-.988,5.511,1.5,3.337.988,5.511-2.758,3.3-3.274,4.351-.009,3.479-1.379,5.186a5.1,5.1,0,0,1-2.47,1.562Zm-2.928-2.3a5.307,5.307,0,0,0-1.3.75c-1.445,1.16-2.065,3.347-2.863,3.738-.782.384-2.948-.443-4.775-.013-1.859.436-3.389,2.134-4.428,2.134S52,61.4,50.145,60.966c-1.827-.428-3.992.4-4.775.013-.8-.391-1.418-2.578-2.863-3.738s-3.7-1.283-4.26-1.975-.185-2.913-1.011-4.6c-.833-1.7-2.814-2.771-3.029-3.687s1.075-2.86,1.075-4.8-1.292-3.875-1.075-4.8,2.2-1.989,3.029-3.687c.826-1.683.461-3.911,1.011-4.6s2.811-.811,4.26-1.975,2.065-3.347,2.863-3.738c.782-.384,2.948.443,4.775.013,1.859-.436,3.389-2.134,4.428-2.134S57.143,22.961,59,23.4c1.827.428,3.992-.4,4.775-.013s1.418,2.578,2.863,3.738,3.706,1.284,4.26,1.975.185,2.913,1.011,4.6,2.814,2.771,3.029,3.688-1.075,2.86-1.075,4.8,1.292,3.875,1.075,4.8-2.2,1.989-3.029,3.688c-.826,1.683-.461,3.911-1.011,4.6-.4.5-2.122.856-2.957,1.225Zm-6.834,7.547,4.967,8.712,1.255-3.716A1.565,1.565,0,0,1,69.14,68v0l3.839.813-4.872-8.545c-.844,1.251-1.366,2.742-2.957,3.522a6.817,6.817,0,0,1-4.042.25ZM47.957,43.65A1.568,1.568,0,1,1,49.9,41.184l3.436,2.7L59.037,37.3A1.566,1.566,0,0,1,61.4,39.344L54.779,47a1.573,1.573,0,0,1-2.213.277l-4.61-3.625ZM101.54,65.309a18.29,18.29,0,0,1,0,36.446v15.179a5.01,5.01,0,0,1-5,5H12.606a5.01,5.01,0,0,1-5-5V21.98a1.575,1.575,0,0,1,.449-1.1L21.566,4.51a1.561,1.561,0,0,1,1.208-.571V3.933H96.541a5.01,5.01,0,0,1,5,5V65.31ZM87.037,70.6a18.225,18.225,0,0,0-5.343,12.22H21.612a1.57,1.57,0,0,0,0,3.141H81.842a18.225,18.225,0,0,0,2.293,6.73H21.612a1.57,1.57,0,1,0,0,3.141H86.434A18.229,18.229,0,0,0,98.4,101.755v15.179a1.868,1.868,0,0,1-1.859,1.858H12.606a1.868,1.868,0,0,1-1.859-1.858V23.551h9.01a5.01,5.01,0,0,0,5-5V7.074H96.54A1.868,1.868,0,0,1,98.4,8.933V65.31A18.216,18.216,0,0,0,87.037,70.6Zm2.221,2.22a15.149,15.149,0,1,0,21.425,0A15.149,15.149,0,0,0,89.258,72.82Zm.917,12.314,7.2,5.665a1.573,1.573,0,0,0,2.212-.277l10.388-12a1.566,1.566,0,0,0-2.368-2.049L98.144,87.41l-6.03-4.742a1.568,1.568,0,1,0-1.938,2.466Z" transform="translate(690.064 10370.066)" fill="#0083e3" fill-rule="evenodd"/>
  </g>
</svg>
