<svg xmlns="http://www.w3.org/2000/svg" xmlns:xlink="http://www.w3.org/1999/xlink" width="118" height="118" viewBox="0 0 118 118">
  <defs>
    <clipPath id="clip-path">
      <rect id="Rectangle_444" data-name="Rectangle 444" width="118" height="118" transform="translate(1108 10374)" fill="#0083e3" stroke="#707070" stroke-width="1"/>
    </clipPath>
  </defs>
  <g id="Mask_Group_101" data-name="Mask Group 101" transform="translate(-1108 -10374)" clip-path="url(#clip-path)">
    <path id="job_15914007" d="M76.308,3.672A45.417,45.417,0,0,0,30.944,49.036c0,1.2.051,2.4.144,3.594h-6.8A1.47,1.47,0,0,0,22.824,54.1v8.086a7.664,7.664,0,0,0,1.606,4.7V81.513A1.47,1.47,0,0,0,25.9,82.982h20.32A45.233,45.233,0,0,0,57.433,90.3l-7.724,6.037A9.485,9.485,0,0,0,44.676,94.9H36.991a.658.658,0,0,1-.382-.105A19.357,19.357,0,0,0,26.8,92.322a19.889,19.889,0,0,0-8.945,2v-.984a1.47,1.47,0,0,0-1.469-1.469H5.141a1.47,1.47,0,0,0-1.469,1.469V120.2a1.47,1.47,0,0,0,1.469,1.469H16.383a1.47,1.47,0,0,0,1.469-1.469V118.83H47.521a10.631,10.631,0,0,0,8.248-3.763l18-20.736c.845.047,1.7.071,2.541.071a45.365,45.365,0,0,0,0-90.73Zm0,87.327-.1,0a6.553,6.553,0,0,0-1.765-7.415c-2.336-2.025-5.7-1.924-8.671.218a46.824,46.824,0,0,1-6.025-14.278,90.259,90.259,0,0,0,16.564,1.484,90.8,90.8,0,0,0,16.569-1.481,54.783,54.783,0,0,1-3.4,9.6C85.858,86.781,81.183,91,76.308,91ZM44.842,52.63H36.316V50.5h8.527Zm.22-5.063h-8.97a2.717,2.717,0,0,0-2.069.96c.291-4.688,4.5-9.163,11.932-12.649a55.548,55.548,0,0,1,9.91-3.469,88.939,88.939,0,0,0-1.525,16.628c0,1.2.024,2.4.069,3.594H47.78V50.282A2.72,2.72,0,0,0,45.063,47.567Zm31.246,20.5a86.274,86.274,0,0,1-17.3-1.684q-.386-1.836-.69-3.758c.007-.147.015-.294.015-.441V54.1a1.472,1.472,0,0,0-.982-1.386c-.049-1.222-.073-2.453-.073-3.677A85.093,85.093,0,0,1,59,31.689a89.928,89.928,0,0,1,34.609-.007A84.99,84.99,0,0,1,95.34,49.034a84.99,84.99,0,0,1-1.726,17.352,86.851,86.851,0,0,1-17.306,1.679Zm0-60.993c4.874,0,9.55,4.218,13.166,11.878a54.712,54.712,0,0,1,3.4,9.6,93.2,93.2,0,0,0-33.14.007,54.768,54.768,0,0,1,3.405-9.6C66.758,11.293,71.434,7.073,76.308,7.073ZM96.748,32.4a55.955,55.955,0,0,1,9.976,3.474c7.746,3.616,12.011,8.292,12.011,13.164S114.47,58.584,106.726,62.2a56.093,56.093,0,0,1-9.976,3.474,88.855,88.855,0,0,0,1.528-16.638A89.039,89.039,0,0,0,96.748,32.4Zm21.007,7.572a30.964,30.964,0,0,0-9.788-6.759,60.27,60.27,0,0,0-11.9-4A58.967,58.967,0,0,0,92.131,17.7,29.6,29.6,0,0,0,84.723,7.45a42.551,42.551,0,0,1,33.033,32.521ZM67.894,7.45A29.572,29.572,0,0,0,60.486,17.7a58.9,58.9,0,0,0-3.939,11.526A59.947,59.947,0,0,0,44.71,33.219a30.526,30.526,0,0,0-9.886,6.923A42.546,42.546,0,0,1,67.894,7.45ZM25.762,55.568H55.4v6.617a4.775,4.775,0,0,1-4.769,4.769H45.57V63.918A1.47,1.47,0,0,0,44.1,62.449H37.055a1.47,1.47,0,0,0-1.469,1.469v3.036H30.528a4.775,4.775,0,0,1-4.769-4.769V55.568Zm16.87,9.819V69.5H38.524V65.387ZM27.365,69.209a7.68,7.68,0,0,0,3.163.683h5.058v1.072a1.47,1.47,0,0,0,1.469,1.469H44.1a1.47,1.47,0,0,0,1.469-1.469V69.892h5.058a7.633,7.633,0,0,0,3.163-.683V80.042H27.365ZM50.853,82.982h4.409a1.47,1.47,0,0,0,1.469-1.469V69.571A50.418,50.418,0,0,0,63.443,85.6l-3.381,2.642a42.258,42.258,0,0,1-9.21-5.261ZM6.61,118.734V94.8h8.3v23.935Zm46.94-5.594a7.672,7.672,0,0,1-6.03,2.752H17.852V97.737a15.937,15.937,0,0,1,8.945-2.48,16.392,16.392,0,0,1,8.3,2.059,3.581,3.581,0,0,0,1.892.524h7.685a6.237,6.237,0,0,1,6.38,6.066v.512a1.408,1.408,0,0,1-1.462,1.344H33.27a1.469,1.469,0,1,0,0,2.938H49.594a4.347,4.347,0,0,0,4.4-4.282v-.512a8.771,8.771,0,0,0-2.032-5.6L67.243,86.358c1.5-1.175,3.68-1.939,5.276-.558a3.609,3.609,0,0,1,.362,5.068ZM84.723,90.623a29.583,29.583,0,0,0,7.408-10.248,59.022,59.022,0,0,0,3.937-11.516,60.429,60.429,0,0,0,11.9-4,30.964,30.964,0,0,0,9.788-6.759A42.548,42.548,0,0,1,84.723,90.623Z" transform="translate(1104.328 10370.328)" fill="#0083e3"/>
  </g>
</svg>
