<svg xmlns="http://www.w3.org/2000/svg" xmlns:xlink="http://www.w3.org/1999/xlink" width="118" height="118" viewBox="0 0 118 118">
  <defs>
    <clipPath id="clip-path">
      <rect id="Rectangle_445" data-name="Rectangle 445" width="118" height="118" transform="translate(280 10664)" fill="#0083e3" stroke="#707070" stroke-width="1"/>
    </clipPath>
  </defs>
  <g id="Mask_Group_100" data-name="Mask Group 100" transform="translate(-280 -10664)" clip-path="url(#clip-path)">
    <g id="gear_7096298" transform="translate(277.678 10661.677)">
      <path id="Path_389" data-name="Path 389" d="M73.06,77.873l4.814-4.814A1.409,1.409,0,0,0,78,71.238l-1.617-2.156A15.068,15.068,0,0,0,77.446,66.5l2.658-.372a1.383,1.383,0,0,0,1.189-1.375V62.726H99.414a20.909,20.909,0,0,0,.019-41.817H96.812a1.394,1.394,0,0,0,0,2.788h2.621a18.121,18.121,0,1,1,0,36.242H81.312V57.931a1.4,1.4,0,0,0-1.189-1.375l-2.658-.372A18.8,18.8,0,0,0,76.405,53.6l1.617-2.156a1.409,1.409,0,0,0-.13-1.821L73.078,44.81a1.409,1.409,0,0,0-1.821-.13L69.1,46.3a15.707,15.707,0,0,0-2.583-1.059l-.39-2.676a1.383,1.383,0,0,0-1.375-1.189h-6.8a1.383,1.383,0,0,0-1.375,1.189l-.39,2.676A17.518,17.518,0,0,0,53.6,46.3L51.445,44.68a1.409,1.409,0,0,0-1.821.13l-4.832,4.814a1.409,1.409,0,0,0-.13,1.821L46.278,53.6a15.707,15.707,0,0,0-1.059,2.583l-2.658.372a1.383,1.383,0,0,0-1.189,1.375v2.007h-8.2L36,57.113a1.393,1.393,0,0,0-1.97-1.97l-5.2,5.2a1.4,1.4,0,0,0,0,1.97l5.2,5.2a1.391,1.391,0,0,0,1.97,0,1.4,1.4,0,0,0,0-1.97l-2.825-2.825h8.2v2.026a1.4,1.4,0,0,0,1.189,1.375l2.658.372a16.725,16.725,0,0,0,1.059,2.583l-1.617,2.156a1.411,1.411,0,0,0,.13,1.821L49.6,77.873a1.409,1.409,0,0,0,1.821.13l2.156-1.617a18.481,18.481,0,0,0,2.583,1.078l.39,2.676a1.383,1.383,0,0,0,1.375,1.189h6.8a1.383,1.383,0,0,0,1.375-1.189l.39-2.676a15.515,15.515,0,0,0,2.583-1.078L71.238,78a1.409,1.409,0,0,0,1.821-.13Zm-4.553-4.349A14.078,14.078,0,0,1,64.9,75.011a1.394,1.394,0,0,0-1.022,1.152l-.335,2.36H59.158l-.335-2.36A1.394,1.394,0,0,0,57.8,75.011,15.542,15.542,0,0,1,54.2,73.524a1.411,1.411,0,0,0-1.543.093l-1.914,1.431-3.1-3.1,1.431-1.914a1.375,1.375,0,0,0,.074-1.543A13.388,13.388,0,0,1,47.653,64.9,1.394,1.394,0,0,0,46.5,63.878l-2.36-.335V59.158l2.36-.335A1.394,1.394,0,0,0,47.653,57.8a13.91,13.91,0,0,1,1.487-3.587,1.375,1.375,0,0,0-.074-1.543l-1.431-1.914,3.1-3.1,1.914,1.431a1.411,1.411,0,0,0,1.543.093,14.186,14.186,0,0,1,3.587-1.487A1.394,1.394,0,0,0,58.8,46.538l.335-2.36h4.386l.335,2.36a1.394,1.394,0,0,0,1.022,1.152,14.314,14.314,0,0,1,3.606,1.487,1.376,1.376,0,0,0,1.543-.093l1.914-1.431,3.1,3.1-1.431,1.914a1.375,1.375,0,0,0-.074,1.543A13.388,13.388,0,0,1,75.03,57.8a1.394,1.394,0,0,0,1.152,1.022l2.36.335v4.386l-2.36.335A1.394,1.394,0,0,0,75.03,64.9a13.388,13.388,0,0,1-1.487,3.587,1.375,1.375,0,0,0,.074,1.543l1.431,1.914-3.1,3.1L70.03,73.617A1.38,1.38,0,0,0,68.506,73.524Z" fill="#0083e3"/>
      <path id="Path_390" data-name="Path 390" d="M61.332,52.318a9,9,0,1,0,9,9.014A9.023,9.023,0,0,0,61.332,52.318Zm0,15.222a6.217,6.217,0,1,1,6.208-6.208A6.223,6.223,0,0,1,61.332,67.54Z" fill="#0083e3"/>
      <path id="Path_391" data-name="Path 391" d="M3.531,27.1l2.658.372a18.8,18.8,0,0,0,1.059,2.583L5.631,32.209a1.409,1.409,0,0,0,.13,1.821l4.814,4.814a1.409,1.409,0,0,0,1.821.13l2.156-1.617a19.462,19.462,0,0,0,2.583,1.078l.39,2.676A1.383,1.383,0,0,0,18.9,42.3h6.8a1.383,1.383,0,0,0,1.375-1.189l.39-2.676a15.515,15.515,0,0,0,2.583-1.078l2.156,1.617a1.409,1.409,0,0,0,1.821-.13l4.814-4.814a1.409,1.409,0,0,0,.13-1.821l-1.617-2.156a15.068,15.068,0,0,0,1.059-2.583l2.658-.372a1.383,1.383,0,0,0,1.189-1.375V23.715H85.549L82.724,26.54a1.4,1.4,0,0,0,0,1.97,1.391,1.391,0,0,0,1.97,0l5.2-5.2a1.391,1.391,0,0,0,0-1.97l-5.2-5.2a1.393,1.393,0,0,0-1.97,1.97l2.825,2.825H42.282V18.92a1.4,1.4,0,0,0-1.189-1.375l-2.658-.372a17.518,17.518,0,0,0-1.059-2.583l1.617-2.156a1.411,1.411,0,0,0-.13-1.821L34.03,5.762a1.409,1.409,0,0,0-1.821-.13L30.053,7.248a15.707,15.707,0,0,0-2.583-1.059l-.39-2.676A1.383,1.383,0,0,0,25.7,2.323H18.9a1.383,1.383,0,0,0-1.375,1.189l-.39,2.676a16.4,16.4,0,0,0-2.583,1.059L12.4,5.631a1.413,1.413,0,0,0-1.821.13l-4.8,4.832a1.367,1.367,0,0,0-.13,1.821l1.6,2.156a18.8,18.8,0,0,0-1.059,2.583l-2.658.372A1.4,1.4,0,0,0,2.323,18.9v6.8A1.4,1.4,0,0,0,3.531,27.1Zm1.58-6.988,2.36-.335a1.394,1.394,0,0,0,1.152-1.022,13.388,13.388,0,0,1,1.487-3.587,1.407,1.407,0,0,0-.074-1.561l-1.431-1.9,3.1-3.122,1.914,1.431a1.411,1.411,0,0,0,1.543.093,14.187,14.187,0,0,1,3.587-1.487,1.394,1.394,0,0,0,1.022-1.152l.335-2.36H24.5l.335,2.36a1.394,1.394,0,0,0,1.022,1.152,13.91,13.91,0,0,1,3.587,1.487,1.376,1.376,0,0,0,1.543-.093L32.9,8.587l3.1,3.1L34.569,13.6a1.375,1.375,0,0,0-.074,1.543,13.91,13.91,0,0,1,1.487,3.587,1.394,1.394,0,0,0,1.152,1.022l2.36.335v4.386l-2.36.335a1.394,1.394,0,0,0-1.152,1.022,13.389,13.389,0,0,1-1.487,3.587,1.375,1.375,0,0,0,.074,1.543L36,32.878l-3.1,3.1L30.982,34.55a1.382,1.382,0,0,0-1.524-.093,14.078,14.078,0,0,1-3.606,1.487A1.394,1.394,0,0,0,24.83,37.1l-.335,2.36H20.11l-.335-2.36a1.394,1.394,0,0,0-1.022-1.152,14.078,14.078,0,0,1-3.606-1.487,1.38,1.38,0,0,0-1.524.093l-1.914,1.468-3.1-3.1L10.036,31a1.375,1.375,0,0,0,.074-1.543,14.02,14.02,0,0,1-1.487-3.587,1.394,1.394,0,0,0-1.152-1.022l-2.36-.335Z" fill="#0083e3"/>
      <path id="Path_392" data-name="Path 392" d="M22.321,31.3a9,9,0,1,0-9.014-9A9,9,0,0,0,22.321,31.3Zm0-15.2A6.217,6.217,0,1,1,16.1,22.321,6.223,6.223,0,0,1,22.321,16.1Z" fill="#0083e3"/>
      <path id="Path_393" data-name="Path 393" d="M100.362,91.348a9,9,0,1,0,9,9.014A9.023,9.023,0,0,0,100.362,91.348Zm0,15.222a6.217,6.217,0,1,1,6.208-6.208A6.223,6.223,0,0,1,100.362,106.569Z" fill="#0083e3"/>
      <path id="Path_394" data-name="Path 394" d="M119.133,95.567l-2.658-.372a17.518,17.518,0,0,0-1.059-2.583l1.617-2.156a1.409,1.409,0,0,0-.13-1.821l-4.814-4.814a1.409,1.409,0,0,0-1.821-.13l-2.156,1.617a15.708,15.708,0,0,0-2.583-1.059l-.39-2.676a1.383,1.383,0,0,0-1.375-1.189h-6.8a1.383,1.383,0,0,0-1.375,1.189l-.39,2.676a17.518,17.518,0,0,0-2.583,1.059l-2.156-1.617a1.409,1.409,0,0,0-1.821.13l-4.814,4.814a1.409,1.409,0,0,0-.13,1.821l1.617,2.156A15.069,15.069,0,0,0,84.248,95.2l-2.658.372A1.383,1.383,0,0,0,80.4,96.942v2.007H70.792a1.394,1.394,0,1,0,0,2.788H80.4v2.007a1.4,1.4,0,0,0,1.189,1.375l2.658.372a18.8,18.8,0,0,0,1.059,2.583l-1.617,2.156a1.409,1.409,0,0,0,.13,1.821l4.814,4.814a1.409,1.409,0,0,0,1.821.13l2.156-1.617a18.481,18.481,0,0,0,2.583,1.078l.39,2.676a1.383,1.383,0,0,0,1.375,1.189h6.8a1.383,1.383,0,0,0,1.375-1.189l.39-2.676a15.515,15.515,0,0,0,2.583-1.078L110.268,117a1.409,1.409,0,0,0,1.821-.13l4.814-4.814a1.409,1.409,0,0,0,.13-1.821l-1.617-2.156a15.069,15.069,0,0,0,1.059-2.583l2.658-.372a1.383,1.383,0,0,0,1.189-1.375v-6.8a1.367,1.367,0,0,0-1.189-1.375Zm-1.58,6.988-2.36.335a1.394,1.394,0,0,0-1.152,1.022,13.389,13.389,0,0,1-1.487,3.587,1.375,1.375,0,0,0,.074,1.543l1.431,1.914-3.1,3.1-1.914-1.431a1.409,1.409,0,0,0-1.543-.093,14.077,14.077,0,0,1-3.606,1.487,1.394,1.394,0,0,0-1.022,1.152l-.335,2.36H98.15l-.335-2.36a1.394,1.394,0,0,0-1.022-1.152,15.541,15.541,0,0,1-3.606-1.487,1.411,1.411,0,0,0-1.543.093l-1.914,1.431-3.1-3.1,1.431-1.914a1.375,1.375,0,0,0,.074-1.543,14.02,14.02,0,0,1-1.487-3.587,1.394,1.394,0,0,0-1.152-1.022l-2.36-.335V98.169l2.36-.335a1.394,1.394,0,0,0,1.152-1.022,13.911,13.911,0,0,1,1.487-3.587,1.375,1.375,0,0,0-.074-1.543l-1.431-1.914,3.1-3.1L91.645,88.1a1.411,1.411,0,0,0,1.543.093A14.187,14.187,0,0,1,96.775,86.7,1.394,1.394,0,0,0,97.8,85.549l.335-2.36h4.386l.335,2.36a1.394,1.394,0,0,0,1.022,1.152,13.911,13.911,0,0,1,3.587,1.487A1.376,1.376,0,0,0,109,88.1l1.914-1.431,3.1,3.1-1.431,1.914a1.375,1.375,0,0,0-.074,1.543A13.91,13.91,0,0,1,114,96.812a1.394,1.394,0,0,0,1.152,1.022l2.36.335v4.386Z" fill="#0083e3"/>
      <path id="Path_395" data-name="Path 395" d="M58.675,94.154a1.393,1.393,0,0,0-1.97,1.97l2.825,2.825h-36.3a18.121,18.121,0,1,1,0-36.242,1.394,1.394,0,0,0,0-2.788,20.909,20.909,0,1,0,0,41.817H59.511l-2.825,2.825a1.4,1.4,0,0,0,0,1.97,1.391,1.391,0,0,0,1.97,0l5.2-5.2a1.391,1.391,0,0,0,0-1.97Z" fill="#0083e3"/>
    </g>
  </g>
</svg>
