<svg xmlns="http://www.w3.org/2000/svg" xmlns:xlink="http://www.w3.org/1999/xlink" width="100" height="100" viewBox="0 0 100 100">
  <defs>
    <clipPath id="clip-path">
      <rect id="Rectangle_352" data-name="Rectangle 352" width="100" height="100" transform="translate(1485 3116)" fill="#0092e0" stroke="#0092e0" stroke-width="1"/>
    </clipPath>
  </defs>
  <g id="Mask_Group_91" data-name="Mask Group 91" transform="translate(-1485 -3116)" clip-path="url(#clip-path)">
    <g id="crisis-management_17989737" transform="translate(1474.789 3105.78)">
      <path id="Path_471" data-name="Path 471" d="M46.369,60.448H79.5c.044.235.1.205.175.277l2.294,2.313a.944.944,0,0,0,1.075.191l1.815-.873,1.124.47.674,1.918a.957.957,0,0,0,.887.644h3.207a.957.957,0,0,0,.887-.643l.675-1.909,1.124-.472,1.816.876a.941.941,0,0,0,1.075-.183l2.294-2.3a.941.941,0,0,0,.178-1.082l-.9-1.812.462-1.112,1.908-.653a.932.932,0,0,0,.628-.891V51.98a.933.933,0,0,0-.62-.888l-1.921-.676-.459-1.1.9-1.837A.941.941,0,0,0,98.62,46.4l-2.294-2.27a.941.941,0,0,0-1.071-.178l-1.816.877-1.122-.466-.675-1.895a.916.916,0,0,0-.888-.6h-.986L73.461,13.618a6.743,6.743,0,0,0-11.7-.024L51.13,32l-10.605,18.4a6.438,6.438,0,0,0,0,6.705,6.551,6.551,0,0,0,5.849,3.349ZM91.207,45.939l1.9.79a.94.94,0,0,0,.771-.022l1.6-.772,1.342,1.327-.789,1.614a.941.941,0,0,0-.022.778l.789,1.875a.924.924,0,0,0,.546.523l1.681.593v1.891l-1.672.573a.934.934,0,0,0-.561.53L96,57.539a.941.941,0,0,0,.027.778l.787,1.591-1.344,1.345-1.594-.771a.94.94,0,0,0-.771-.022l-1.9.79a.97.97,0,0,0-.525.571l-.592,1.685H88.211l-.592-1.685a.955.955,0,0,0-.525-.562l-1.9-.795a.941.941,0,0,0-.771.02l-1.594.77-1.34-1.34c.005-.014.008-.028.013-.042l.768-1.554a.94.94,0,0,0,.025-.778l-.79-1.9a.937.937,0,0,0-.563-.529l-1.679-.573V52.645l1.688-.593a.939.939,0,0,0,.554-.522l.789-1.875a.941.941,0,0,0-.022-.778l-.789-1.614,1.342-1.327,1.6.772a.94.94,0,0,0,.771.022l1.9-.79a.9.9,0,0,0,.526-.529l.593-1.661h1.874l.593,1.662a.9.9,0,0,0,.527.529Zm-49.056,5.4,10.609-18.4L63.394,14.526a4.852,4.852,0,0,1,8.436.031l15.764,27.31h-.048a.916.916,0,0,0-.888.6l-.675,1.909-1.122.46-1.816-.881a.94.94,0,0,0-1.071.176L79.681,46.4a.94.94,0,0,0-.184,1.081l.9,1.836-.462,1.1-1.924.676a.938.938,0,0,0-.627.887V55.21a.939.939,0,0,0,.635.891l1.916.653.462,1.077-.382.736H46.369a4.659,4.659,0,0,1-4.222-2.412,4.555,4.555,0,0,1,0-4.817Z" fill="#0092e0" stroke="#0092e0" stroke-width="1"/>
      <path id="Path_472" data-name="Path 472" d="M82.658,53.582A6.492,6.492,0,1,0,89.15,47.09,6.5,6.5,0,0,0,82.658,53.582Zm11.1,0a4.61,4.61,0,1,1-4.61-4.61A4.616,4.616,0,0,1,93.76,53.582Z" fill="#0092e0" stroke="#0092e0" stroke-width="1"/>
      <path id="Path_473" data-name="Path 473" d="M62.825,43.3a3.5,3.5,0,0,0,3.5,3.274h.37A3.551,3.551,0,0,0,70.227,43.3l1.135-15.376a4.425,4.425,0,0,0-1.178-3.4,4.369,4.369,0,0,0-3.313-1.477h-.715a4.332,4.332,0,0,0-3.279,1.463,4.409,4.409,0,0,0-1.188,3.395Zm1.439-17.511a2.444,2.444,0,0,1,1.892-.854h.715A2.478,2.478,0,0,1,68.8,25.8a2.526,2.526,0,0,1,.687,1.968L68.351,43.153A1.669,1.669,0,0,1,66.7,44.689h-.37a1.629,1.629,0,0,1-1.627-1.53L63.566,27.771a2.547,2.547,0,0,1,.7-1.985Z" fill="#0092e0" stroke="#0092e0" stroke-width="1"/>
      <path id="Path_474" data-name="Path 474" d="M66.526,47.88a4.21,4.21,0,1,0,4.222,4.2A4.215,4.215,0,0,0,66.526,47.88Zm0,6.538a2.328,2.328,0,1,1,2.341-2.34A2.343,2.343,0,0,1,66.526,54.418Z" fill="#0092e0" stroke="#0092e0" stroke-width="1"/>
      <path id="Path_475" data-name="Path 475" d="M103.066,65.784a5.744,5.744,0,0,0-7.822-1.292L78.169,75.707a6.624,6.624,0,0,0-4.784-2.087H63.044c-13.351-9.173-25.309-7.142-35.561,5.871a3.136,3.136,0,0,0-1.913-.627,3.172,3.172,0,0,0-2.219.912L16.912,86.22a3.135,3.135,0,0,0-.923,2.254,3.064,3.064,0,0,0,.923,2.188l18.637,18.662a3.166,3.166,0,0,0,2.219.9,3.1,3.1,0,0,0,2.21-.9l6.439-6.439a3.086,3.086,0,0,0,.923-2.231,2.859,2.859,0,0,0-.852-2.093h28.3a5.438,5.438,0,0,0,3.962-1.643l23.882-23.25a5.721,5.721,0,0,0,.431-7.875ZM45.087,101.545l-6.439,6.439a1.231,1.231,0,0,1-.88.354,1.287,1.287,0,0,1-.9-.353L18.233,89.324a1.2,1.2,0,0,1-.363-.861,1.261,1.261,0,0,1,.372-.908l6.429-6.43a1.3,1.3,0,0,1,1.787-.01L43.543,98.22l.031.032L45.1,99.776a1.2,1.2,0,0,1,.363.862,1.26,1.26,0,0,1-.372.907ZM101.324,72.3,77.432,95.569a3.579,3.579,0,0,1-2.641,1.1H44.616L28.843,80.857c9.743-12.477,20.667-14.3,33.373-5.481a.905.905,0,0,0,.536.125H73.385a4.754,4.754,0,0,1,3.774,1.922c.011.019.018.055.029.073a1.008,1.008,0,0,0,.125.16,4.9,4.9,0,0,1,.8,2.7,4.789,4.789,0,0,1-4.733,4.792H51.18a.941.941,0,0,0,0,1.882H73.385A6.677,6.677,0,0,0,79.263,77.3L96.279,66.077a3.864,3.864,0,0,1,5.32.89,3.822,3.822,0,0,1-.275,5.333Z" fill="#0092e0" stroke="#0092e0" stroke-width="1"/>
    </g>
  </g>
</svg>
