<svg xmlns="http://www.w3.org/2000/svg" xmlns:xlink="http://www.w3.org/1999/xlink" width="100" height="100" viewBox="0 0 100 100">
  <defs>
    <clipPath id="clip-path">
      <rect id="Rectangle_252" data-name="Rectangle 252" width="100" height="100" transform="translate(1108 3129)" fill="#0092e0" stroke="#707070" stroke-width="1"/>
    </clipPath>
  </defs>
  <g id="Mask_Group_59" data-name="Mask Group 59" transform="translate(-1108 -3129)" clip-path="url(#clip-path)">
    <g id="easy_5578751" transform="translate(1117.917 3129)">
      <g id="svg3687" transform="translate(0 0)">
        <g id="Group_249" data-name="Group 249">
          <path id="Path_321" data-name="Path 321" d="M101.14,23.992l-3.989-1.838L95.847,19l1.508-4.115a1.47,1.47,0,0,0-.346-1.555L92.926,9.244A1.494,1.494,0,0,0,91.371,8.9l-4.115,1.508L84.1,9.1,82.262,5.129a1.472,1.472,0,0,0-1.335-.848H75.163a1.456,1.456,0,0,0-1.335.848L71.99,9.1l-3.157,1.3L64.718,8.9a1.47,1.47,0,0,0-1.555.346L59.08,13.328a1.494,1.494,0,0,0-.346,1.555L60.242,19l-1.3,3.157-3.974,1.838a1.472,1.472,0,0,0-.848,1.335v5.764a1.456,1.456,0,0,0,.848,1.335l3.974,1.838h0l1.3,3.157-.33.9,2.513-3.33L61.436,32.6a1.472,1.472,0,0,0-.738-.77l-3.644-1.681h0V26.27L60.7,24.589a1.472,1.472,0,0,0,.738-.77l1.743-4.209a1.4,1.4,0,0,0,.016-1.068l-1.382-3.769,2.749-2.749,3.769,1.382a1.475,1.475,0,0,0,1.068-.016l4.209-1.743a1.472,1.472,0,0,0,.77-.738l1.681-3.644h3.879l1.681,3.644a1.472,1.472,0,0,0,.77.738L86.6,13.391a1.4,1.4,0,0,0,1.068.016l3.769-1.382,2.749,2.749L92.8,18.542a1.475,1.475,0,0,0,.016,1.068l1.743,4.209a1.472,1.472,0,0,0,.738.77l3.644,1.681v3.879L95.3,31.829a1.531,1.531,0,0,0-.738.77l-1.743,4.225a1.474,1.474,0,0,0-.016,1.068l1.382,3.769L91.434,44.41l-3.769-1.382a1.473,1.473,0,0,0-1.068.016l-4.209,1.743a1.472,1.472,0,0,0-.77.738l-1.681,3.644H76.058l-1.681-3.644a1.472,1.472,0,0,0-.77-.738l-1.429-.6-1.822,2.434,1.6.66L73.8,51.258a1.473,1.473,0,0,0,1.335.848H80.9a1.456,1.456,0,0,0,1.335-.848l1.838-3.974,3.157-1.3L91.34,47.5a1.47,1.47,0,0,0,1.555-.346l4.084-4.084a1.494,1.494,0,0,0,.346-1.555l-1.508-4.115,1.3-3.157,3.974-1.838a1.487,1.487,0,0,0,.864-1.335V25.311a1.456,1.456,0,0,0-.848-1.335Z" transform="translate(-21.792 -4.281)" fill="#0092e0"/>
          <path id="Path_322" data-name="Path 322" d="M80.464,19.849A10.758,10.758,0,0,0,69.721,30.592c0,5.921.079,1.414.2,2.089a6.757,6.757,0,0,1,2.968-.188,7.59,7.59,0,0,1-.236-1.9A7.806,7.806,0,1,1,80.464,38.4c-4.3,0-1.3-.079-1.916-.236a6.348,6.348,0,0,1-.236,2.968,10.742,10.742,0,1,0,2.152-21.266Z" transform="translate(-24.173 -6.656)" fill="#0092e0"/>
          <g id="Group_248" data-name="Group 248" transform="translate(0 25.729)">
            <path id="Path_323" data-name="Path 323" d="M79.4,79.118a6.864,6.864,0,0,0-7-5.638,6.454,6.454,0,0,0-.047-1.9,6.854,6.854,0,0,0-6.738-5.638A6.664,6.664,0,0,0,63,59.313a6.842,6.842,0,0,0-3.392-1.335L69.219,45.1a6.661,6.661,0,0,0-10.664-7.963L48.471,50.486a1.571,1.571,0,0,0,2.513,1.885L61.067,39a3.524,3.524,0,0,1,5.623,4.209L51.031,64.182h0l-.707.958a1.571,1.571,0,0,0,2.513,1.885l3.518-4.712A3.067,3.067,0,0,1,58.507,61.1a3.6,3.6,0,0,1,2.607.722,3.386,3.386,0,0,1,.88,4.7l-1.429,1.916h0l-4.837,6.487a1.571,1.571,0,0,0,2.513,1.885l4.837-6.487a3.067,3.067,0,0,1,2.152-1.209,3.672,3.672,0,0,1,2.607.722,3.6,3.6,0,0,1,1.429,2.293,3.07,3.07,0,0,1-.55,2.4L65.229,79.2,62.5,82.872a1.571,1.571,0,1,0,2.513,1.885L66.3,83.029h0l1.445-1.948,2.4-3.22A3.067,3.067,0,0,1,72.3,76.652a3.672,3.672,0,0,1,2.607.722,3.6,3.6,0,0,1,1.429,2.293,3.07,3.07,0,0,1-.55,2.4L64.727,96.9A21.981,21.981,0,0,1,25.87,89.405l-6.675-25.13v-.047c-.455-1.523.942-4.256,2.639-5.136a1.566,1.566,0,0,1,2.2.6l7.932,10.774a3.46,3.46,0,0,0,2.717,1.4,3.251,3.251,0,0,0,2.607-1.256l9.3-12.3a1.571,1.571,0,0,0-2.513-1.885l-9.282,12.3c0,.016-.047.016-.079.016a.233.233,0,0,1-.22-.126l-7.947-10.79-.031-.031a4.659,4.659,0,0,0-6.125-1.476c-3.047,1.586-5.089,5.843-4.209,8.811l6.675,25.114a25.11,25.11,0,0,0,44.4,8.575L78.312,83.987a6.189,6.189,0,0,0,1.131-4.822Z" transform="translate(-15.974 -34.641)" fill="#0092e0"/>
            <path id="Path_324" data-name="Path 324" d="M45.712,41.883a1.574,1.574,0,0,0,1.571,1.445h.126a1.567,1.567,0,0,0,1.429-1.7L48.382,36.1a1.568,1.568,0,1,0-3.125.267l.455,5.529Z" transform="translate(-20.44 -34.645)" fill="#0092e0"/>
            <path id="Path_325" data-name="Path 325" d="M32.761,54.284h.126l5.513-.455a1.576,1.576,0,0,0-.251-3.141l-5.513.455a1.59,1.59,0,0,0-1.445,1.7A1.574,1.574,0,0,0,32.761,54.284Z" transform="translate(-18.294 -37.088)" fill="#0092e0"/>
            <path id="Path_326" data-name="Path 326" d="M35.148,42.629l5.01,4.256a1.581,1.581,0,0,0,1.021.377,1.687,1.687,0,0,0,1.194-.55,1.557,1.557,0,0,0-.188-2.215l-5.01-4.256a1.572,1.572,0,0,0-2.026,2.4Z" transform="translate(-18.813 -35.438)" fill="#0092e0"/>
          </g>
        </g>
      </g>
    </g>
  </g>
</svg>
