<svg xmlns="http://www.w3.org/2000/svg" xmlns:xlink="http://www.w3.org/1999/xlink" width="100" height="100" viewBox="0 0 100 100">
  <defs>
    <clipPath id="clip-path">
      <rect id="Rectangle_249" data-name="Rectangle 249" width="100" height="100" transform="translate(694 3129)" fill="#0092e0" stroke="#707070" stroke-width="1"/>
    </clipPath>
  </defs>
  <g id="Mask_Group_56" data-name="Mask Group 56" transform="translate(-694 -3129)" clip-path="url(#clip-path)">
    <g id="agile_2973247" transform="translate(694.001 3129)">
      <path id="Path_293" data-name="Path 293" d="M92.839,11.419a12.9,12.9,0,1,0,12.9,12.9A12.918,12.918,0,0,0,92.839,11.419Zm0,22.581a9.677,9.677,0,1,1,9.677-9.677A9.687,9.687,0,0,1,92.839,34Z" transform="translate(-13.806 -3.355)" fill="#0092e0"/>
      <path id="Path_294" data-name="Path 294" d="M94,19.032a6.452,6.452,0,1,0,6.452,6.452A6.458,6.458,0,0,0,94,19.032Zm0,9.677a3.226,3.226,0,1,1,3.226-3.226A3.229,3.229,0,0,1,94,28.71Z" transform="translate(-14.968 -4.516)" fill="#0092e0"/>
      <path id="Path_295" data-name="Path 295" d="M101.9,28.852V16.892l-2.945-1.04q-.15-.38-.316-.76l1.348-2.819L91.532,3.816,88.713,5.165c-.252-.111-.5-.218-.76-.316L86.916,1.9H74.956l-1.04,2.945q-.38.15-.76.316L70.339,3.816l-8.458,8.458,1.348,2.819c-.111.252-.218.5-.316.76L59.968,16.89v5.3a35.653,35.653,0,0,0-8.065-.932H9.871a4.764,4.764,0,0,1-4.742-4.774v-.161a4.748,4.748,0,0,1,4.742-4.742h5.1a8.065,8.065,0,0,0,15.8,0H50.531L46.056,15.16l2.015,2.519,9.64-7.711L48.073,2.256,46.058,4.776l4.474,3.579H30.773a8.065,8.065,0,0,0-15.8,0h-5.1A7.977,7.977,0,0,0,1.9,16.323v.161a7.993,7.993,0,0,0,7.968,8H37.148A35.524,35.524,0,0,0,16.419,56.742V67.365l-3.7-3.7L10.44,65.947l7.592,7.592,7.592-7.592-2.281-2.281-3.7,3.7V56.742A32.209,32.209,0,0,1,59.968,25.523v3.329l2.945,1.04q.15.38.316.76l-1.348,2.819,8.458,8.458,2.819-1.348c.252.111.5.218.76.316l1.037,2.942h6.51a31.96,31.96,0,0,1,2.7,12.9A32.3,32.3,0,0,1,51.9,89H29.194a11.29,11.29,0,1,0,0,3.226H79.323v5.455a4.224,4.224,0,0,0,6.111,3.777L99.568,94.39a4.223,4.223,0,0,0,0-7.555L85.434,79.768a4.224,4.224,0,0,0-6.111,3.777V89H66.658a35.469,35.469,0,0,0,18.3-45.161h1.958l1.04-2.945q.38-.15.76-.316l2.819,1.348,8.458-8.458-1.348-2.819c.111-.252.218-.5.316-.76ZM22.871,5.129a4.839,4.839,0,1,1-4.839,4.839A4.845,4.845,0,0,1,22.871,5.129ZM18.032,98.677A8.065,8.065,0,1,1,26.1,90.613,8.074,8.074,0,0,1,18.032,98.677ZM82.548,83.545a1,1,0,0,1,1.442-.892l14.135,7.068a1,1,0,0,1,0,1.784L83.99,98.573a1.024,1.024,0,0,1-1.442-.892ZM98.677,26.568l-2.245.792-.253.739a15.769,15.769,0,0,1-.771,1.85l-.344.7L96.094,32.8l-5.229,5.229L88.713,37l-.7.344a16.049,16.049,0,0,1-1.85.771l-.739.253-.79,2.244h-7.4l-.792-2.245-.739-.253a15.769,15.769,0,0,1-1.85-.771l-.7-.344L71,38.029,65.774,32.8,66.8,30.648l-.344-.7a16.049,16.049,0,0,1-.771-1.85l-.253-.739-2.242-.79v-7.4l2.245-.792.253-.739a15.771,15.771,0,0,1,.771-1.85l.344-.7-1.029-2.152L71.006,7.71l2.152,1.029.7-.344a16.05,16.05,0,0,1,1.85-.771l.739-.253.79-2.242h7.4l.792,2.245.739.253a15.769,15.769,0,0,1,1.85.771l.7.344,2.152-1.029L96.1,12.942l-1.029,2.152.344.7a16.05,16.05,0,0,1,.771,1.85l.253.739,2.242.79Z" transform="translate(-1.903 -1.903)" fill="#0092e0"/>
      <path id="Path_296" data-name="Path 296" d="M20.065,100.871A4.839,4.839,0,1,0,24.9,105.71,4.845,4.845,0,0,0,20.065,100.871Zm0,6.452a1.613,1.613,0,1,1,1.613-1.613A1.616,1.616,0,0,1,20.065,107.323Z" transform="translate(-3.935 -17)" fill="#0092e0"/>
      <path id="Path_297" data-name="Path 297" d="M47.742,47.581H38.065v9.677h9.677Zm-3.226,6.452H41.29V50.806h3.226Z" transform="translate(-7.419 -8.871)" fill="#0092e0"/>
      <path id="Path_298" data-name="Path 298" d="M38.065,72.484h9.677V62.806H38.065Zm3.226-6.452h3.226v3.226H41.29Z" transform="translate(-7.419 -11.194)" fill="#0092e0"/>
      <path id="Path_299" data-name="Path 299" d="M53.29,47.581h3.226v3.226H53.29Z" transform="translate(-9.742 -8.871)" fill="#0092e0"/>
      <path id="Path_300" data-name="Path 300" d="M60.9,47.581h12.9v3.226H60.9Z" transform="translate(-10.903 -8.871)" fill="#0092e0"/>
      <path id="Path_301" data-name="Path 301" d="M53.29,55.194h3.226v3.226H53.29Z" transform="translate(-9.742 -10.032)" fill="#0092e0"/>
      <path id="Path_302" data-name="Path 302" d="M60.9,55.194h12.9v3.226H60.9Z" transform="translate(-10.903 -10.032)" fill="#0092e0"/>
      <path id="Path_303" data-name="Path 303" d="M53.29,62.806H72.645v3.226H53.29Z" transform="translate(-9.742 -11.194)" fill="#0092e0"/>
      <path id="Path_304" data-name="Path 304" d="M53.29,70.419H72.645v3.226H53.29Z" transform="translate(-9.742 -12.355)" fill="#0092e0"/>
      <path id="Path_305" data-name="Path 305" d="M38.065,87.71h9.677V78.032H38.065Zm3.226-6.452h3.226v3.226H41.29Z" transform="translate(-7.419 -13.516)" fill="#0092e0"/>
      <path id="Path_306" data-name="Path 306" d="M53.29,78.032H72.645v3.226H53.29Z" transform="translate(-9.742 -13.516)" fill="#0092e0"/>
      <path id="Path_307" data-name="Path 307" d="M53.29,85.645H72.645v3.226H53.29Z" transform="translate(-9.742 -14.677)" fill="#0092e0"/>
    </g>
  </g>
</svg>
