<svg xmlns="http://www.w3.org/2000/svg" xmlns:xlink="http://www.w3.org/1999/xlink" width="100" height="100" viewBox="0 0 100 100">
  <defs>
    <clipPath id="clip-path">
      <rect id="Rectangle_251" data-name="Rectangle 251" width="100" height="100" transform="translate(1169 3116)" fill="#0092e0" stroke="#0092e0" stroke-width="1.5"/>
    </clipPath>
  </defs>
  <g id="Mask_Group_90" data-name="Mask Group 90" transform="translate(-1169 -3116)" clip-path="url(#clip-path)">
    <g id="Icons" transform="translate(1160.816 3109.637)">
      <g id="Group_383" data-name="Group 383">
        <path id="Path_466" data-name="Path 466" d="M102.659,70.215l-4.073-2.364a.893.893,0,0,1-.422-.984,41.061,41.061,0,0,0,0-17.361.893.893,0,0,1,.42-.991l4.06-2.356a2.7,2.7,0,0,0,1.255-3.207,48.469,48.469,0,0,0-9.682-16.744,2.752,2.752,0,0,0-3.4-.518l-4.073,2.364a.91.91,0,0,1-1.06-.14,40.5,40.5,0,0,0-15.028-8.678A.923.923,0,0,1,70,18.368V13.655H68.184v4.709a2.758,2.758,0,0,0,1.906,2.593,38.758,38.758,0,0,1,14.377,8.3,2.724,2.724,0,0,0,3.193.365l4.06-2.356a.937.937,0,0,1,1.149.156,46.615,46.615,0,0,1,9.308,16.1.89.89,0,0,1-.429,1.055l-4.073,2.364a2.733,2.733,0,0,0-1.285,2.944,39.284,39.284,0,0,1,0,16.6,2.731,2.731,0,0,0,1.287,2.936l4.086,2.369a.885.885,0,0,1,.416,1.049,46.59,46.59,0,0,1-9.3,16.091.93.93,0,0,1-1.145.173l-4.073-2.364a2.719,2.719,0,0,0-3.195.367,38.781,38.781,0,0,1-14.391,8.3A2.751,2.751,0,0,0,68.184,98v4.709a.941.941,0,0,1-.709.909,46.855,46.855,0,0,1-18.571,0,.941.941,0,0,1-.72-.911V98a2.758,2.758,0,0,0-1.906-2.593A38.758,38.758,0,0,1,31.9,87.11a2.716,2.716,0,0,0-3.193-.365L24.648,89.1a.935.935,0,0,1-1.149-.156,46.615,46.615,0,0,1-9.308-16.1.89.89,0,0,1,.429-1.055l4.073-2.364a2.733,2.733,0,0,0,1.285-2.944,39.284,39.284,0,0,1,0-16.6,2.731,2.731,0,0,0-1.287-2.936l-4.086-2.369a.885.885,0,0,1-.416-1.049,46.59,46.59,0,0,1,9.3-16.091.93.93,0,0,1,1.145-.173l4.073,2.364a2.722,2.722,0,0,0,3.195-.367,38.781,38.781,0,0,1,14.391-8.3,2.751,2.751,0,0,0,1.889-2.587V13.655H46.365v4.709a.914.914,0,0,1-.642.86,40.54,40.54,0,0,0-15.04,8.684.9.9,0,0,1-1.062.142l-4.086-2.369a2.749,2.749,0,0,0-3.4.535A48.468,48.468,0,0,0,12.466,42.95a2.7,2.7,0,0,0,1.244,3.2l4.073,2.364a.893.893,0,0,1,.422.984,41.061,41.061,0,0,0,0,17.361.893.893,0,0,1-.42.991l-4.06,2.356a2.7,2.7,0,0,0-1.255,3.207A48.469,48.469,0,0,0,22.15,90.159a2.75,2.75,0,0,0,3.4.518l4.073-2.364a.908.908,0,0,1,1.06.14A40.5,40.5,0,0,0,45.71,97.132a.923.923,0,0,1,.656.867v4.709a2.76,2.76,0,0,0,2.164,2.689,48.739,48.739,0,0,0,19.321,0A2.76,2.76,0,0,0,70,102.707V98a.914.914,0,0,1,.642-.86,40.54,40.54,0,0,0,15.04-8.684.9.9,0,0,1,1.062-.142l4.086,2.369a2.752,2.752,0,0,0,3.4-.535A48.469,48.469,0,0,0,103.9,73.417a2.7,2.7,0,0,0-1.244-3.2Z" fill="#0092e0" stroke="#0092e0" stroke-width="1.5"/>
        <path id="Path_467" data-name="Path 467" d="M69.433,30.357l-.682,1.687A28.173,28.173,0,0,1,85.139,66.389a8.132,8.132,0,0,0-4.427-1.766A6.334,6.334,0,0,0,82.73,60V56.364a6.364,6.364,0,0,0-12.728,0V60a6.33,6.33,0,0,0,1.991,4.6,8.062,8.062,0,0,0-6.72,4.793,7.016,7.016,0,0,0-2.991-1.115,5.73,5.73,0,0,0,1.66-4.035V61.213a5.758,5.758,0,0,0-11.517,0v3.031a5.734,5.734,0,0,0,1.66,4.035,7.041,7.041,0,0,0-2.993,1.116A8.069,8.069,0,0,0,44.374,64.6,6.323,6.323,0,0,0,46.365,60V56.365a6.364,6.364,0,1,0-12.728,0V60a6.334,6.334,0,0,0,2.018,4.624,8.127,8.127,0,0,0-4.427,1.766A28.176,28.176,0,0,1,47.614,32.045l-.682-1.686a30,30,0,1,0,22.5,0ZM71.82,60V56.365a4.546,4.546,0,0,1,9.091,0V60a4.546,4.546,0,0,1-9.091,0Zm.909,6.364H80a6.372,6.372,0,0,1,4.486,1.853A28.5,28.5,0,0,1,66.366,85.144V72.729a6.367,6.367,0,0,1,6.364-6.364ZM54.243,61.215a3.94,3.94,0,0,1,7.88,0v3.031a3.94,3.94,0,0,1-7.88,0ZM55.074,70h6.218a5.176,5.176,0,0,1,3.4,1.26,8.193,8.193,0,0,0-.147,1.467V85.615a27.465,27.465,0,0,1-12.728,0V72.729a8.193,8.193,0,0,0-.147-1.467,5.177,5.177,0,0,1,3.4-1.26ZM35.456,60V56.365a4.546,4.546,0,1,1,9.091,0V60a4.546,4.546,0,1,1-9.091,0Zm.909,6.364h7.273A6.367,6.367,0,0,1,50,72.729V85.141A28.5,28.5,0,0,1,31.879,68.218,6.372,6.372,0,0,1,36.365,66.366Z" fill="#0092e0" stroke="#0092e0" stroke-width="1.5"/>
        <path id="Path_468" data-name="Path 468" d="M89.094,31.819a2.731,2.731,0,0,0-2.727,2.727v.909h-.909a2.727,2.727,0,0,0,0,5.455h.909v.909a2.727,2.727,0,1,0,5.455,0V40.91h.909a2.727,2.727,0,0,0,0-5.455h-.909v-.909A2.731,2.731,0,0,0,89.094,31.819Zm3.636,5.455a.909.909,0,0,1,0,1.818H90.912A.909.909,0,0,0,90,40v1.818a.909.909,0,1,1-1.818,0V40a.909.909,0,0,0-.909-.909H85.457a.909.909,0,0,1,0-1.818h1.818a.909.909,0,0,0,.909-.909V34.547a.909.909,0,0,1,1.818,0v1.818a.909.909,0,0,0,.909.909Z" fill="#0092e0" stroke="#0092e0" stroke-width="1.5"/>
        <path id="Path_469" data-name="Path 469" d="M27.274,84.548A2.731,2.731,0,0,0,30,81.821v-.909h.909a2.727,2.727,0,0,0,0-5.455H30v-.909a2.727,2.727,0,0,0-5.455,0v.909h-.909a2.727,2.727,0,0,0,0,5.455h.909v.909A2.731,2.731,0,0,0,27.274,84.548Zm-3.636-5.455a.909.909,0,0,1,0-1.818h1.818a.909.909,0,0,0,.909-.909V74.548a.909.909,0,0,1,1.818,0v1.818a.909.909,0,0,0,.909.909H30.91a.909.909,0,1,1,0,1.818H29.092a.909.909,0,0,0-.909.909v1.818a.909.909,0,0,1-1.818,0V80a.909.909,0,0,0-.909-.909Z" fill="#0092e0" stroke="#0092e0" stroke-width="1.5"/>
        <path id="Path_470" data-name="Path 470" d="M65.457,6.364H50.911A.909.909,0,0,0,50,7.273V35.3a.911.911,0,0,1-.909.909H48.027A2.727,2.727,0,0,0,46.1,40.863L56.254,51.02a2.729,2.729,0,0,0,3.856,0L70.268,40.863a2.727,2.727,0,0,0-1.929-4.657H67.275a.911.911,0,0,1-.909-.909V7.273a.909.909,0,0,0-.909-.909Zm1.818,31.661H68.34a.91.91,0,0,1,.644,1.553L58.827,49.734a.91.91,0,0,1-1.285,0L47.385,39.578a.909.909,0,0,1,.644-1.553h1.064A2.731,2.731,0,0,0,51.82,35.3V8.182H64.547V35.3A2.731,2.731,0,0,0,67.275,38.025Z" fill="#0092e0" stroke="#0092e0" stroke-width="1.5"/>
      </g>
    </g>
  </g>
</svg>
