<svg xmlns="http://www.w3.org/2000/svg" xmlns:xlink="http://www.w3.org/1999/xlink" width="100" height="100" viewBox="0 0 100 100">
  <defs>
    <clipPath id="clip-path">
      <rect id="Rectangle_250" data-name="Rectangle 250" width="100" height="100" transform="translate(280 3129)" fill="#0092e0" stroke="#707070" stroke-width="1"/>
    </clipPath>
  </defs>
  <g id="Mask_Group_57" data-name="Mask Group 57" transform="translate(-280 -3129)" clip-path="url(#clip-path)">
    <g id="school_15012509" transform="translate(280 3129)">
      <g id="Group_245" data-name="Group 245">
        <path id="Path_308" data-name="Path 308" d="M91.469,5.531H19.594A14,14,0,0,0,5.531,19.594V91.469a14.1,14.1,0,0,0,14.063,14.063H91.469a14.1,14.1,0,0,0,14.063-14.062V19.594A14,14,0,0,0,91.469,5.531Zm11.094,85.938a10.969,10.969,0,0,1-10.937,10.938H19.594A10.969,10.969,0,0,1,8.656,91.469V37.875H66.938a1.409,1.409,0,0,0,.781-.156c.156,0,.156,0,.313-.156.156,0,.313-.156.469-.156s.313-.156.469-.312l.156-.156h.156l.469-.469,2.969-3.281L76,29.594l.156-.156H88.344a.672.672,0,0,1,.625.625v4.063a3.536,3.536,0,0,0,3.594,3.594h10Zm0-56.719H92.406a.336.336,0,0,1-.312-.313V30.219A3.536,3.536,0,0,0,88.5,26.625H75.531a3.861,3.861,0,0,0-1.406.625c-.156.156-.312.313-.469.313l-3.437,3.75L67.25,34.438l-.156.156H8.5v-15A10.969,10.969,0,0,1,19.438,8.656H91.469a10.969,10.969,0,0,1,10.938,10.938V34.75Z" transform="translate(-5.531 -5.531)" fill="#0092e0"/>
        <path id="Path_309" data-name="Path 309" d="M24.219,19.359A5.781,5.781,0,1,0,30,25.141,5.87,5.87,0,0,0,24.219,19.359Zm0,8.438a2.634,2.634,0,0,1-2.656-2.656A2.656,2.656,0,1,1,24.219,27.8Z" transform="translate(-7.5 -7.641)" fill="#0092e0"/>
        <path id="Path_310" data-name="Path 310" d="M42.472,19.359a5.781,5.781,0,1,0,5.781,5.781A5.87,5.87,0,0,0,42.472,19.359Zm0,8.438a2.634,2.634,0,0,1-2.656-2.656,2.738,2.738,0,0,1,2.656-2.656,2.656,2.656,0,1,1,0,5.313Z" transform="translate(-10.284 -7.641)" fill="#0092e0"/>
        <path id="Path_311" data-name="Path 311" d="M60.909,19.359a5.781,5.781,0,1,0,5.781,5.781A5.87,5.87,0,0,0,60.909,19.359Zm0,8.438a2.634,2.634,0,0,1-2.656-2.656,2.738,2.738,0,0,1,2.656-2.656,2.634,2.634,0,0,1,2.656,2.656A2.738,2.738,0,0,1,60.909,27.8Z" transform="translate(-13.097 -7.641)" fill="#0092e0"/>
        <path id="Path_312" data-name="Path 312" d="M75.635,58.763a4.486,4.486,0,0,0-2.5-2.812,4.951,4.951,0,0,0-6.719,2.188L48.76,93.451a4.927,4.927,0,0,0,8.75,4.531L75.323,62.67a4.942,4.942,0,0,0,.313-3.906Zm-2.969,2.344L54.854,96.576a2,2,0,0,1-2.656.781,1.838,1.838,0,0,1-.781-2.656L69.229,59.388a2.12,2.12,0,0,1,1.719-1.094,1.982,1.982,0,0,1,.937.156,1.652,1.652,0,0,1,.938,1.094,2.57,2.57,0,0,1-.156,1.563Z" transform="translate(-12.041 -13.138)" fill="#0092e0"/>
        <path id="Path_313" data-name="Path 313" d="M87.92,76.078a4.95,4.95,0,0,0-3.594-1.406,5.018,5.018,0,0,0-3.437,1.563,4.957,4.957,0,0,0,.313,7.031l5.469,5-5.469,5a4.925,4.925,0,0,0,3.281,8.594,4.847,4.847,0,0,0,3.438-1.406l9.219-8.594a4.914,4.914,0,0,0,0-7.187Zm7.188,13.75-9.219,8.594a1.935,1.935,0,0,1-2.656-.156,1.8,1.8,0,0,1,.156-2.656l6.563-6.094a1.51,1.51,0,0,0,0-2.187l-6.562-6.094a1.944,1.944,0,0,1-.156-2.656,1.981,1.981,0,0,1,1.406-.625,1.774,1.774,0,0,1,1.25.469l9.219,8.594a2.327,2.327,0,0,1,.625,1.406A1.909,1.909,0,0,1,95.107,89.828Z" transform="translate(-16.826 -16.078)" fill="#0092e0"/>
        <path id="Path_314" data-name="Path 314" d="M44.419,74.459l-5.469-5,5.469-5A4.977,4.977,0,0,0,37.7,57.115l-9.219,8.594a4.914,4.914,0,0,0,0,7.188L37.7,81.49A4.847,4.847,0,0,0,41.138,82.9a5.086,5.086,0,0,0,3.594-1.562A4.776,4.776,0,0,0,44.419,74.459ZM42.544,79.3a1.944,1.944,0,0,1-2.656.156l-9.219-8.594a2.327,2.327,0,0,1-.625-1.406,1.7,1.7,0,0,1,.625-1.406l9.219-8.594a1.774,1.774,0,0,1,1.25-.469,1.7,1.7,0,0,1,1.406.625,1.8,1.8,0,0,1-.156,2.656l-6.563,6.094a1.51,1.51,0,0,0,0,2.188l6.563,6.094a1.944,1.944,0,0,1,.156,2.656Z" transform="translate(-8.794 -13.209)" fill="#0092e0"/>
      </g>
    </g>
  </g>
</svg>
