<svg id="Layer_1" enable-background="new 0 0 512 512" viewBox="0 0 512 512" xmlns="http://www.w3.org/2000/svg"><path d="m66.33 274.94h150.15c3.79 0 7.44-1.59 10.01-4.36s3.88-6.53 3.6-10.31c-2.76-36.82-28.14-67.24-61.8-78.04 14.89-9.09 24.85-25.5 24.85-44.19 0-28.53-23.21-51.74-51.74-51.74s-51.74 23.21-51.74 51.74c0 18.69 9.96 35.09 24.85 44.19-33.65 10.79-59.03 41.22-61.8 78.04-.28 3.78 1.03 7.54 3.6 10.31s6.23 4.36 10.02 4.36zm75.07-172.64c19.71 0 35.74 16.03 35.74 35.74s-16.03 35.74-35.74 35.74-35.74-16.03-35.74-35.74 16.04-35.74 35.74-35.74zm0 91.71c37.09 0 68.45 28.32 72.49 64.93h-144.98c4.04-36.62 35.4-64.93 72.49-64.93zm341.25-185.87h-204.83c-15.63 0-28.35 12.72-28.35 28.35v15.52h-216.36c-17.7.01-32.11 14.41-32.11 32.12v290.29c0 17.71 14.41 32.12 32.11 32.12h105.89l-22.43 38.5c-2.15 3.68-2.17 8.06-.07 11.72 2.11 3.67 6.02 5.94 10.22 5.94h219.11c1.73 3.79 3.29 8.05 4.77 13.03l.03-.01 5.95 22.21c.55 2.05 1.89 3.8 3.73 4.86 1.23.71 2.61 1.07 4 1.07.69 0 1.39-.09 2.07-.27l118.34-31.71c2.05-.55 3.8-1.89 4.86-3.73s1.35-4.02.8-6.07l-7.13-26.6c9.58-33.98.81-74.4-3.49-90.47l-6.99-26.1c-1.76-6.55-5.97-12.04-11.88-15.45s-12.77-4.32-19.32-2.56c-4.5 1.21-8.5 3.57-11.67 6.85-6.23-6.06-15.4-8.79-24.39-6.39-4.99 1.34-9.24 4.08-12.44 7.7-6.16-5.21-14.69-7.42-23.06-5.18-3.18.85-6.12 2.29-8.68 4.21l-3-11.18h124.32c15.63 0 28.35-12.72 28.35-28.35v-232.07c0-15.63-12.72-28.35-28.35-28.35zm-449.54 59.88h216.35v200.53c0 15.63 12.72 28.35 28.35 28.35h27.76l14.25 53.19-22-16.53c-16.03-12.04-29.54-7.34-36.24.35-3.66 4.21-5.97 9.87-6.61 16.25h-237.97v-266.03c0-8.88 7.23-16.11 16.11-16.11zm-16.11 306.4v-8.26h239.71c2.29 7.46 6.71 15.09 13.65 22.08l2.3 2.3h-239.55c-8.88 0-16.11-7.23-16.11-16.12zm117.12 72.28 23.4-40.16h131.99c9.41 8.51 17.47 15.14 24.48 20.89 9.11 7.48 15.98 13.12 21.44 19.27zm235.84 39.36-3.55-13.24 102.89-27.57 3.55 13.23zm-1.55-162.31c1.27-2.2 3.31-3.78 5.73-4.42 5.05-1.35 10.25 1.65 11.6 6.7l1.73 6.46c1.14 4.26 5.52 6.79 9.78 5.66s6.81-5.5 5.68-9.77c-1.33-5.03 1.68-10.22 6.71-11.56 5.05-1.35 10.25 1.65 11.6 6.7l2.3 8.58c1.14 4.27 5.53 6.8 9.8 5.66s6.8-5.53 5.66-9.8v-.01c-.65-2.42-.3-4.97.97-7.17s3.31-3.77 5.73-4.42c2.43-.65 4.97-.31 7.18.96 2.2 1.27 3.77 3.31 4.42 5.73l6.99 26.1c3.86 14.41 11.67 50.07 4.14 79.78l-107.35 28.76c-8.3-19.09-19.82-28.56-36.95-42.62-11.08-9.1-24.87-20.42-42.43-38.1-12.65-12.74-12.8-27.09-8.04-32.55 4.28-4.92 11.61-.29 14.56 1.93l40.53 30.45c2.73 2.05 6.46 2.14 9.28.23 2.83-1.91 4.13-5.4 3.25-8.7l-31.94-119.21c-.65-2.43-.31-4.98.96-7.18s3.31-3.77 5.73-4.42c5.03-1.35 10.23 1.65 11.59 6.66l15.66 58.46 11.47 42.82c.96 3.57 4.19 5.93 7.72 5.93.69 0 1.38-.09 2.08-.27 4.27-1.14 6.8-5.53 5.66-9.8l-2.78-10.38s0 0 0-.01c-.63-2.43-.29-4.98.98-7.18zm126.59-55.2c0 6.81-5.54 12.35-12.35 12.35h-128.61l-10.95-40.88c-.21-.76-.45-1.5-.72-2.22h6.4c3.36 10.15 12.94 17.5 24.21 17.5s20.84-7.35 24.21-17.5h61.37c4.42 0 8-3.58 8-8s-3.58-8-8-8h-61.37c-3.36-10.15-12.94-17.5-24.21-17.5s-20.84 7.35-24.21 17.5h-24.87c-3.49-.77-7.18-.81-10.86 0h-11.12c-4.42 0-8 3.58-8 8 0 2 .74 3.82 1.95 5.22-2.8 5.44-3.67 11.89-1.97 18.25l7.41 27.64h-23.48c-6.81 0-12.35-5.54-12.35-12.35v-232.07c0-6.81 5.54-12.35 12.35-12.35h204.83c6.81 0 12.35 5.54 12.35 12.35v232.06zm-131.52-38.76c0-5.24 4.26-9.5 9.5-9.5s9.5 4.26 9.5 9.5-4.26 9.5-9.5 9.5-9.5-4.26-9.5-9.5zm-146.38 60.11h-151.39c-6.66 0-12.07 5.42-12.07 12.07v21.16c0 6.66 5.41 12.07 12.07 12.07h151.39c6.66 0 12.07-5.42 12.07-12.07v-21.16c0-6.66-5.42-12.07-12.07-12.07zm-3.93 29.3h-143.53v-13.3h143.53zm245.38-174.68h-21.99c-3.36-10.15-12.94-17.5-24.21-17.5s-20.84 7.35-24.21 17.5h-86.23c-4.42 0-8 3.58-8 8s3.58 8 8 8h86.23c3.36 10.15 12.94 17.5 24.21 17.5s20.84-7.35 24.21-17.5h21.99c4.42 0 8-3.58 8-8s-3.58-8-8-8zm-46.19 17.5c-5.24 0-9.5-4.26-9.5-9.5s4.26-9.5 9.5-9.5 9.5 4.26 9.5 9.5-4.27 9.5-9.5 9.5zm46.19-94.77h-95.56c-3.36-10.15-12.94-17.5-24.21-17.5s-20.84 7.35-24.21 17.5h-12.66c-4.42 0-8 3.58-8 8s3.58 8 8 8h12.66c3.36 10.15 12.94 17.5 24.21 17.5s20.84-7.35 24.21-17.5h95.56c4.42 0 8-3.58 8-8s-3.58-8-8-8zm-119.76 17.5c-5.24 0-9.5-4.26-9.5-9.5s4.26-9.5 9.5-9.5 9.5 4.26 9.5 9.5-4.27 9.5-9.5 9.5z"/></svg>