<?xml version="1.0" encoding="UTF-8"?>
<svg id="Layer_1" xmlns="http://www.w3.org/2000/svg" version="1.1" viewBox="0 0 512 512">
  <!-- Generator: Adobe Illustrator 29.3.0, SVG Export Plug-In . SVG Version: 2.1.0 Build 146)  -->
  <path d="M396.6,506c-30.8,0-68.5-12.2-110.2-35.9-44.4-25.2-93-63.3-137.1-107.3-44.1-44.1-82.2-92.8-107.3-137.1C13.5,175.7,1.6,131.5,7.5,97.9c1.9-10.8,5.3-24.5,14.7-34.5,0,0,.1-.1.2-.2l43.8-43.8c12.5-12.5,30.5-16.4,50.8-11,36.3,9.7,75,48,84.5,83.5,5.4,20.1,1.2,38.2-11.7,51.1l-36.4,36.4c22.3,37.2,48.7,71.2,78.4,100.8,29.7,29.7,63.6,56,100.8,78.4l36.4-36.4c12.9-12.9,31-17,51.1-11.7,35.5,9.5,73.8,48.2,83.5,84.5,5.4,20.2,1.5,38.3-11,50.8l-43.8,43.8c0,0-.1.1-.2.2-10,9.5-23.7,12.9-34.5,14.7-5.6,1-11.4,1.4-17.5,1.4h0ZM36.7,77.2c-5.8,6.2-8.1,16.1-9.5,24.1-5,29,6.1,68.5,32.1,114.4,24.3,42.8,61.3,90,104.1,132.8,42.8,42.8,90,79.8,132.8,104.1,45.9,26,85.5,37.1,114.4,32.1,8-1.4,18-3.7,24.1-9.5l43.7-43.7c7.4-7.4,9.4-18,5.8-31.4-8-29.7-40.4-62.6-69.3-70.4-13.2-3.5-23.9-1.4-31.8,6.5l-38,38c-5.5,5.5-14.1,6.6-20.8,2.6-39.4-23.4-75.3-51.2-106.7-82.6-31.4-31.4-59.1-67.3-82.6-106.7-4-6.7-2.9-15.3,2.6-20.8l38-38c7.9-7.9,10-18.5,6.5-31.8-7.8-29-40.6-61.4-70.4-69.3-13.4-3.6-24-1.6-31.4,5.8l-43.7,43.7h0Z"/>
</svg>