<?xml version="1.0" encoding="UTF-8"?>
<svg xmlns="http://www.w3.org/2000/svg" xmlns:xodm="http://www.corel.com/coreldraw/odm/2003" version="1.1" viewBox="0 0 512 512">
  <!-- Generator: Adobe Illustrator 29.3.0, SVG Export Plug-In . SVG Version: 2.1.0 Build 146)  -->
  <defs>
    <style>
      .st0 {
        fill: #fff;
        fill-rule: evenodd;
      }
    </style>
  </defs>
  <g id="Layer_1" image-rendering="optimizeQuality" shape-rendering="geometricPrecision" text-rendering="geometricPrecision">
    <g id="Layer_x5F_1">
      <g id="_1810535787616">
        <g>
          <g id="_278978920">
            <path class="st0" d="M84.2,159.4c-28.5,0-51.6-23.1-51.6-51.6s23.2-51.6,51.6-51.6,51.6,23.2,51.6,51.6-23.2,51.6-51.6,51.6ZM84.2,68.2c-21.8,0-39.6,17.8-39.6,39.6s17.8,39.6,39.6,39.6,39.6-17.8,39.6-39.6-17.8-39.6-39.6-39.6Z"/>
          </g>
          <g id="_278978680">
            <path class="st0" d="M131,457.8c-3.3,0-6-2.7-6-6v-241.5c0-3.3,2.7-6,6-6s6,2.7,6,6v241.5c0,3.3-2.7,6-6,6ZM44.2,346.7H8.5c-4.7,0-8.5-3.7-8.5-8.3v-102.9c0-37.8,30.7-68.5,68.5-68.5h62.5c3.3,0,6,2.7,6,6s-2.7,6-6,6h-62.5c-31.1,0-56.5,25.3-56.5,56.5v99.2h29.9c1.1-1.4,2.8-2.3,4.7-2.3,3.3,0,6,2.7,6,6s-3.8,8.3-8.5,8.3Z"/>
          </g>
          <g id="_278978464">
            <path class="st0" d="M90.4,458h-43.7c-3.3,0-6-2.7-6-6v-200.1c0-3.3,2.7-6,6-6s6,2.7,6,6v194.1h31.7v-117.4c0-3.3,2.7-6,6-6s6,2.7,6,6v123.4c0,3.3-2.7,6-6,6Z"/>
          </g>
          <g id="_278978488">
            <path class="st0" d="M221.5,216.4h-90.5c-3.3,0-6-2.7-6-6s2.7-6,6-6h86.8v-25.4h-86.8c-3.3,0-6-2.7-6-6s2.7-6,6-6h90.5c4.6,0,8.3,3.7,8.3,8.3v32.8c0,4.6-3.7,8.3-8.3,8.3h0Z"/>
          </g>
          <g id="_278978584">
            <path class="st0" d="M506,458H15.3c-3.3,0-6-2.7-6-6s2.7-6,6-6h490.6c3.3,0,6,2.7,6,6s-2.7,6-6,6Z"/>
          </g>
          <g id="_278979208">
            <path class="st0" d="M488.6,330.7H195c-10.9,0-19.8-8.9-19.8-19.8v-100.5c0-3.3,2.7-6,6-6s6,2.7,6,6v100.5c0,4.3,3.5,7.8,7.8,7.8h293.5c4.3,0,7.8-3.5,7.8-7.8V101.4c0-4.3-3.5-7.8-7.8-7.8H195c-4.3,0-7.8,3.5-7.8,7.8v71.6c0,3.3-2.7,6-6,6s-6-2.7-6-6v-71.6c0-10.9,8.9-19.8,19.8-19.8h293.5c10.9,0,19.8,8.9,19.8,19.8v209.5c0,10.9-8.9,19.8-19.8,19.8Z"/>
          </g>
          <g id="_278979736">
            <path class="st0" d="M502.4,297.3H181.2c-3.3,0-6-2.7-6-6s2.7-6,6-6h321.1c3.3,0,6,2.7,6,6s-2.7,6-6,6Z"/>
          </g>
          <g id="_278979496">
            <path class="st0" d="M375.6,93.6c-3.3,0-6-2.7-6-6v-21.6h-58.8v21.6c0,3.3-2.7,6-6,6s-6-2.7-6-6v-23.2c0-5.7,4.7-10.4,10.4-10.4h62c5.7,0,10.4,4.7,10.4,10.4v23.2c0,3.3-2.7,6-6,6h0Z"/>
          </g>
          <g>
            <g id="_278979760">
              <path class="st0" d="M301.3,238c-1.5,0-3.1-.6-4.2-1.8l-25.8-25.8c-2.4-2.3-2.4-6.1,0-8.5l25.9-25.9c2.3-2.3,6.1-2.3,8.5,0,2.3,2.4,2.3,6.1,0,8.5l-21.6,21.6,21.6,21.6c2.4,2.3,2.4,6.1,0,8.5-1.2,1.2-2.7,1.8-4.2,1.8h0Z"/>
            </g>
            <g id="_278979976">
              <path class="st0" d="M382.4,238c-1.5,0-3.1-.6-4.2-1.8-2.3-2.3-2.3-6.1,0-8.5l21.6-21.6-21.6-21.6c-2.3-2.3-2.3-6.1,0-8.5,2.3-2.4,6.1-2.4,8.5,0l25.8,25.8c2.4,2.3,2.4,6.1,0,8.5l-25.8,25.8c-1.2,1.2-2.7,1.8-4.2,1.8h0Z"/>
            </g>
            <g id="_278979568">
              <path class="st0" d="M328.5,262.1c-.5,0-1,0-1.6-.2-3.2-.9-5.1-4.1-4.2-7.3l26.8-99.8c.9-3.2,4.1-5.1,7.4-4.2s5.1,4.1,4.2,7.4l-26.8,99.8c-.7,2.7-3.1,4.5-5.8,4.5h0Z"/>
            </g>
          </g>
        </g>
      </g>
    </g>
  </g>
</svg>