<svg clip-rule="evenodd" fill-rule="evenodd" height="512" image-rendering="optimizeQuality" shape-rendering="geometricPrecision" text-rendering="geometricPrecision" viewBox="0 0 512 512" width="512" xmlns="http://www.w3.org/2000/svg" xmlns:xodm="http://www.corel.com/coreldraw/odm/2003"><g id="Layer_x0020_1"><g id="_1810535787616"><g><g id="_278978920"><path d="m84.24 159.45c-28.46 0-51.62-23.15-51.62-51.61s23.16-51.62 51.62-51.62 51.61 23.16 51.61 51.62-23.16 51.61-51.61 51.61zm0-91.23c-21.85 0-39.62 17.77-39.62 39.62 0 21.84 17.77 39.61 39.62 39.61 21.84 0 39.61-17.77 39.61-39.61 0-21.85-17.77-39.62-39.61-39.62z"/></g><g id="_278978680"><path d="m131 457.84c-3.31 0-6-2.69-6-6v-241.48c0-3.31 2.69-6 6-6s6 2.69 6 6v241.48c0 3.31-2.69 6-6 6zm-86.83-111.16h-35.63c-4.68 0-8.5-3.72-8.5-8.3v-102.92c0-37.76 30.72-68.48 68.48-68.48h62.48c3.31 0 6 2.69 6 6s-2.69 6-6 6h-62.48c-31.14 0-56.48 25.34-56.48 56.48v99.22h29.91c1.1-1.4 2.8-2.3 4.72-2.3 3.32 0 6 2.69 6 6 0 4.58-3.81 8.3-8.5 8.3z"/></g><g id="_278978464"><path d="m90.37 458.03h-43.7c-3.31 0-6-2.69-6-6v-200.09c0-3.31 2.69-6 6-6s6 2.69 6 6v194.09h31.7v-117.43c0-3.31 2.69-6 6-6s6 2.69 6 6v123.43c0 3.31-2.69 6-6 6z"/></g><g id="_278978488"><path d="m221.46 216.36h-90.46c-3.31 0-6-2.69-6-6s2.69-6 6-6h86.76v-25.38h-86.76c-3.31 0-6-2.69-6-6s2.69-6 6-6h90.46c4.58 0 8.3 3.72 8.3 8.3v32.78c0 4.57-3.72 8.3-8.3 8.3z"/></g><g id="_278978584"><path d="m505.96 458.02h-490.64c-3.31 0-6-2.68-6-5.99 0-3.32 2.69-6 6-6h490.64c3.31 0 6 2.68 6 6 0 3.31-2.69 5.99-6 5.99z"/></g><g id="_278979208"><path d="m488.59 330.69h-293.54c-10.92 0-19.8-8.88-19.8-19.79v-100.54c0-3.31 2.69-6 6-6s6 2.69 6 6v100.54c0 4.3 3.5 7.8 7.8 7.8h293.54c4.3 0 7.8-3.5 7.8-7.8v-209.5c0-4.3-3.49-7.8-7.8-7.8h-293.54c-4.3 0-7.8 3.5-7.8 7.8v71.58c0 3.31-2.69 6-6 6s-6-2.69-6-6v-71.58c0-10.92 8.88-19.8 19.8-19.8h293.54c10.92 0 19.8 8.88 19.8 19.8v209.5c0 10.91-8.88 19.79-19.8 19.79z"/></g><g id="_278979736"><path d="m502.39 297.33h-321.14c-3.31 0-6-2.68-6-6 0-3.31 2.69-6 6-6h321.14c3.31 0 6 2.69 6 6 0 3.32-2.69 6-6 6z"/></g><g id="_278979496"><path d="m375.65 93.6c-3.31 0-6-2.69-6-6v-21.63h-58.79v21.63c0 3.31-2.69 6-6 6-3.32 0-6-2.69-6-6v-23.24c0-5.73 4.66-10.39 10.39-10.39h62.01c5.73 0 10.39 4.66 10.39 10.39v23.24c0 3.32-2.69 6-6 6z"/></g><g><g id="_278979760"><path d="m301.28 237.99c-1.53 0-3.07-.59-4.24-1.76l-25.84-25.84c-2.35-2.34-2.35-6.14-.01-8.48l25.85-25.85c2.34-2.34 6.14-2.34 8.48 0 2.34 2.35 2.34 6.15 0 8.49l-21.6 21.6 21.6 21.6c2.35 2.34 2.35 6.14 0 8.48-1.17 1.17-2.71 1.76-4.24 1.76z"/></g><g id="_278979976"><path d="m382.36 237.99c-1.53 0-3.07-.59-4.24-1.76-2.34-2.34-2.34-6.14 0-8.48l21.6-21.6-21.6-21.6c-2.34-2.34-2.34-6.14 0-8.48 2.34-2.35 6.14-2.35 8.48 0l25.84 25.84c2.35 2.34 2.35 6.14 0 8.48l-25.84 25.84c-1.17 1.17-2.7 1.76-4.24 1.76z"/></g><g id="_278979568"><path d="m328.45 262.06c-.51 0-1.03-.06-1.56-.21-3.2-.85-5.1-4.14-4.24-7.34l26.75-99.83c.86-3.19 4.15-5.1 7.35-4.24s5.1 4.15 4.24 7.35l-26.75 99.82c-.72 2.68-3.14 4.45-5.79 4.45z"/></g></g></g></g></g></svg>