<?xml version="1.0" encoding="UTF-8"?>
<svg id="Layer_1" xmlns="http://www.w3.org/2000/svg" version="1.1" viewBox="0 0 512 512">
  <!-- Generator: Adobe Illustrator 29.3.0, SVG Export Plug-In . SVG Version: 2.1.0 Build 146)  -->
  <defs>
    <style>
      .st0 {
        fill: #fff;
      }
    </style>
  </defs>
  <g id="Calendar">
    <path class="st0" d="M456,64h-40v-16c0-17.7-14.3-32-32-32s-32,14.3-32,32v16h-64v-16c0-17.7-14.3-32-32-32s-32,14.3-32,32v16h-64v-16c0-17.7-14.3-32-32-32s-32,14.3-32,32v16h-40c-22.1,0-40,17.9-40,40v320c0,22.1,17.9,40,40,40h224c4.4,0,8-3.6,8-8s-3.6-8-8-8H56c-13.2,0-24-10.8-24-24v-248h448v136c0,4.4,3.6,8,8,8s8-3.6,8-8V104c0-22.1-17.9-40-40-40ZM368,48c0-8.8,7.2-16,16-16s16,7.2,16,16v48c0,8.8-7.2,16-16,16s-16-7.2-16-16v-48ZM240,48c0-8.8,7.2-16,16-16s16,7.2,16,16v48c0,8.8-7.2,16-16,16s-16-7.2-16-16v-48ZM112,48c0-8.8,7.2-16,16-16s16,7.2,16,16v48c0,8.8-7.2,16-16,16s-16-7.2-16-16v-48ZM480,160H32v-56c0-13.2,10.8-24,24-24h40v16c0,17.7,14.3,32,32,32s32-14.3,32-32v-16h64v16c0,17.7,14.3,32,32,32s32-14.3,32-32v-16h64v16c0,17.7,14.3,32,32,32s32-14.3,32-32v-16h40c13.2,0,24,10.8,24,24v56Z"/>
    <path class="st0" d="M240,232c0-8.8-7.2-16-16-16h-32c-8.8,0-16,7.2-16,16v24c0,8.8,7.2,16,16,16h32c8.8,0,16-7.2,16-16v-24ZM192,256v-24h32v24h-32Z"/>
    <path class="st0" d="M144,232c0-8.8-7.2-16-16-16h-32c-8.8,0-16,7.2-16,16v24c0,8.8,7.2,16,16,16h32c8.8,0,16-7.2,16-16v-24ZM96,256v-24h32v24h-32Z"/>
    <path class="st0" d="M416,272c8.8,0,16-7.2,16-16v-24c0-8.8-7.2-16-16-16h-32c-8.8,0-16,7.2-16,16v24c0,8.8,7.2,16,16,16h32ZM384,232h32v24h-32v-24Z"/>
    <path class="st0" d="M240,304c0-8.8-7.2-16-16-16h-32c-8.8,0-16,7.2-16,16v24c0,8.8,7.2,16,16,16h32c8.8,0,16-7.2,16-16v-24ZM192,328v-24h32v24h-32Z"/>
    <path class="st0" d="M144,304c0-8.8-7.2-16-16-16h-32c-8.8,0-16,7.2-16,16v24c0,8.8,7.2,16,16,16h32c8.8,0,16-7.2,16-16v-24ZM96,328v-24h32v24h-32Z"/>
    <path class="st0" d="M224,360h-32c-8.8,0-16,7.2-16,16v24c0,8.8,7.2,16,16,16h32c8.8,0,16-7.2,16-16v-24c0-8.8-7.2-16-16-16ZM192,400v-24h32v24h-32Z"/>
    <path class="st0" d="M288,272h32c8.8,0,16-7.2,16-16v-24c0-8.8-7.2-16-16-16h-32c-8.8,0-16,7.2-16,16v24c0,8.8,7.2,16,16,16ZM288,232h32v24h-32v-24Z"/>
    <path class="st0" d="M272,328c0,8.8,7.2,16,16,16s8-3.6,8-8-3.6-8-8-8v-24h32c4.4,0,8-3.6,8-8s-3.6-8-8-8h-32c-8.8,0-16,7.2-16,16v24Z"/>
    <path class="st0" d="M128,360h-32c-8.8,0-16,7.2-16,16v24c0,8.8,7.2,16,16,16h32c8.8,0,16-7.2,16-16v-24c0-8.8-7.2-16-16-16ZM96,400v-24h32v24h-32Z"/>
    <path class="st0" d="M392,288c-57.4,0-104,46.6-104,104s46.6,104,104,104,104-46.6,104-104c0-57.4-46.6-103.9-104-104ZM392,480c-48.6,0-88-39.4-88-88s39.4-88,88-88,88,39.4,88,88c0,48.6-39.4,87.9-88,88Z"/>
    <path class="st0" d="M438.2,358.5l-62.2,62.2-28.3-28.3c-3.2-3.1-8.2-3-11.3.2-3,3.1-3,8,0,11.1l33.9,33.9c3.1,3.1,8.2,3.1,11.3,0l67.9-67.9c3.1-3.2,3-8.2-.2-11.3-3.1-3-8-3-11.1,0Z"/>
  </g>
</svg>