<?xml version="1.0" encoding="UTF-8" standalone="no"?>
<!-- Created with Inkscape (http://www.inkscape.org/) -->
<svg xmlns="http://www.w3.org/2000/svg" xmlns:svg="http://www.w3.org/2000/svg" version="1.1" id="svg4053" width="682.66669" height="682.66669" viewBox="0 0 682.66669 682.66669">
  <defs id="defs4057">
    <clipPath clipPathUnits="userSpaceOnUse" id="clipPath4067">
      <path d="M 0,512 H 512 V 0 H 0 Z" id="path4065"/>
    </clipPath>
  </defs>
  <mask id="custom"><rect id="bg" x="0" y="0" width="100%" height="100%" fill="white"/><g transform="matrix(1.3333333,0,0,-1.3333333,0,682.66667)"><path transform="matrix(1,0,0,1,325.4316,396.1416)" d="m 0,0 c -3.905,-3.904 -10.237,-3.904 -14.143,0 -3.905,3.905 -3.905,10.237 0,14.143 3.906,3.905 10.238,3.905 14.143,0 C 3.905,10.237 3.905,3.905 0,0" style="fill:#ffffff;fill-opacity:1;fill-rule:nonzero;stroke:none" id="path4087"/></g></mask><g mask="url(#custom)"><g id="g4059" transform="matrix(1.3333333,0,0,-1.3333333,0,682.66667)">
    <g id="g4061">
      <g id="g4063" clip-path="url(#clipPath4067)">
        <g id="g4069" transform="translate(246.7451,328.9209)">
          <path d="m 0,0 c 18.924,-5.424 36.775,-15.589 51.682,-30.494 46.862,-46.863 46.862,-122.843 0,-169.706 l -83.575,-83.573 c -46.862,-46.864 -122.842,-46.864 -169.705,0 -46.863,46.862 -46.863,122.842 0,169.705 l 83.574,83.574 c 15.455,15.455 34.078,25.813 53.778,31.074 -19.7,-5.261 -38.323,-15.619 -53.778,-31.074 l -83.574,-83.574 c -46.863,-46.863 -46.863,-122.843 0,-169.705 46.863,-46.864 122.843,-46.864 169.705,0 l 83.575,83.573 c 46.862,46.863 46.862,122.843 0,169.706 C 36.775,-15.589 18.924,-5.424 0,0 Z" style="fill:none;stroke:#000000;stroke-width:20;stroke-linecap:round;stroke-linejoin:round;stroke-miterlimit:10;stroke-dasharray:none;stroke-opacity:1" id="path4071"/>
        </g>
        <g id="g4073" transform="translate(328.9209,246.7451)">
          <path d="m 0,0 c 4.261,2.514 8.275,5.599 11.932,9.255 l 83.574,83.573 c 23.394,23.396 23.394,61.458 0,84.854 -21.021,21.019 -53.88,23.153 -77.304,6.402" style="fill:none;stroke:#000000;stroke-width:20;stroke-linecap:round;stroke-linejoin:round;stroke-miterlimit:10;stroke-dasharray:none;stroke-opacity:1" id="path4075"/>
        </g>
        <g id="g4077" transform="translate(290.0762,374.9287)">
          <path d="m 0,0 -34.076,-34.076 c -23.396,-23.395 -23.396,-61.457 0,-84.853 23.395,-23.395 23.395,-61.458 0,-84.852 l -83.573,-83.574 c -23.396,-23.395 -61.458,-23.395 -84.854,0 -23.394,23.395 -23.394,61.458 0,84.853 l 83.574,83.573 c 3.657,3.657 7.671,6.741 11.932,9.255" style="fill:none;stroke:#000000;stroke-width:20;stroke-linecap:round;stroke-linejoin:round;stroke-miterlimit:10;stroke-dasharray:none;stroke-opacity:1" id="path4079"/>
        </g>
        <g id="g4081" transform="translate(265.2549,183.0791)">
          <path d="m 0,0 c -18.924,5.424 -36.775,15.589 -51.682,30.494 -46.862,46.863 -46.862,122.843 0,169.706 l 83.575,83.573 c 46.862,46.864 122.842,46.864 169.705,0 46.863,-46.862 46.863,-122.842 0,-169.705 L 118.024,30.494 C 102.569,15.039 83.946,4.681 64.246,-0.58 c 19.7,5.261 38.323,15.619 53.778,31.074 l 83.574,83.574 c 46.863,46.863 46.863,122.843 0,169.705 -46.863,46.864 -122.843,46.864 -169.705,0 L -51.682,200.2 C -98.544,153.337 -98.544,77.357 -51.682,30.494 -36.775,15.589 -18.924,5.424 0,0 Z" style="fill:none;stroke:#000000;stroke-width:20;stroke-linecap:round;stroke-linejoin:round;stroke-miterlimit:10;stroke-dasharray:none;stroke-opacity:1" id="path4083"/>
        </g>
        <g id="g4085" transform="translate(325.4316,396.1416)">
          <path d="m 0,0 c -3.905,-3.904 -10.237,-3.904 -14.143,0 -3.905,3.905 -3.905,10.237 0,14.143 3.906,3.905 10.238,3.905 14.143,0 C 3.905,10.237 3.905,3.905 0,0" style="fill:#000000;fill-opacity:1;fill-rule:nonzero;stroke:none" id="path4087"/>
        </g>
        <g id="g4089" transform="translate(86.2939,425.7061)">
          <path d="M 0,0 42.427,-42.427" style="fill:none;stroke:#000000;stroke-width:20;stroke-linecap:round;stroke-linejoin:round;stroke-miterlimit:10;stroke-dasharray:none;stroke-opacity:1" id="path4091"/>
        </g>
        <g id="g4093" transform="translate(38,334)">
          <path d="M 0,0 H 60" style="fill:none;stroke:#000000;stroke-width:20;stroke-linecap:round;stroke-linejoin:round;stroke-miterlimit:10;stroke-dasharray:none;stroke-opacity:1" id="path4095"/>
        </g>
        <g id="g4097" transform="translate(178,477)">
          <path d="M 0,0 V -60" style="fill:none;stroke:#000000;stroke-width:20;stroke-linecap:round;stroke-linejoin:round;stroke-miterlimit:10;stroke-dasharray:none;stroke-opacity:1" id="path4099"/>
        </g>
        <g id="g4101" transform="translate(383.2793,128.7207)">
          <path d="M 0,0 42.427,-42.427" style="fill:none;stroke:#000000;stroke-width:20;stroke-linecap:round;stroke-linejoin:round;stroke-miterlimit:10;stroke-dasharray:none;stroke-opacity:1" id="path4103"/>
        </g>
        <g id="g4105" transform="translate(333,95)">
          <path d="M 0,0 V -60" style="fill:none;stroke:#000000;stroke-width:20;stroke-linecap:round;stroke-linejoin:round;stroke-miterlimit:10;stroke-dasharray:none;stroke-opacity:1" id="path4107"/>
        </g>
        <g id="g4109" transform="translate(417,179)">
          <path d="M 0,0 H 60" style="fill:none;stroke:#000000;stroke-width:20;stroke-linecap:round;stroke-linejoin:round;stroke-miterlimit:10;stroke-dasharray:none;stroke-opacity:1" id="path4111"/>
        </g>
      </g>
    </g>
  </g></g>
</svg>
