<?xml version="1.0" encoding="UTF-8"?>
<svg id="svg4053" xmlns="http://www.w3.org/2000/svg" xmlns:svg="http://www.w3.org/2000/svg" version="1.1" viewBox="0 0 682.7 682.7">
  <!-- Generator: Adobe Illustrator 29.3.0, SVG Export Plug-In . SVG Version: 2.1.0 Build 146)  -->
  <defs>
    <style>
      .st0 {
        fill: #fff;
      }
    </style>
  </defs>
  <path class="st0" d="M520.5,407.3l111.4-111.4c32.7-32.7,50.8-76.3,50.8-122.6s-18-89.8-50.8-122.6C599.2,18,555.6,0,509.3,0s-89.8,18-122.6,50.8l-111.4,111.4c-20.4,20.4-34.6,44.6-42.7,70.4-26.5,8.3-50.7,23-70.4,42.8l-111.4,111.4C18,419.5,0,463,0,509.3s18,89.8,50.8,122.6c32.7,32.7,76.3,50.8,122.6,50.8s89.8-18,122.6-50.8l111.4-111.4c20.4-20.4,34.6-44.6,42.7-70.4,26.5-8.3,50.7-23,70.4-42.8ZM294.2,181.1l111.4-111.4c27.7-27.7,64.5-43,103.7-43s76,15.3,103.7,43c27.7,27.7,43,64.5,43,103.7s-15.3,76-43,103.7l-111.4,111.4c-13,13-28.2,23.4-44.9,30.7.9-7,1.3-14.1,1.3-21.2,0-12.9-1.4-25.7-4.3-38.4,3.6-2.7,7-5.6,10.2-8.8l111.4-111.4c36.4-36.4,36.4-95.6,0-132-15.7-15.7-36.6-25.3-58.7-27-21.9-1.7-43.8,4.4-61.5,17.1-6,4.3-7.4,12.6-3.1,18.6s12.6,7.4,18.6,3.1c12.7-9.1,28.3-13.4,44-12.2,15.8,1.2,30.7,8.1,41.9,19.3,26,26,26,68.3,0,94.3l-111.4,111.4s0,0,0,0c-8.4-20.6-21-39.9-37.7-56.6-16.2-16.2-35.5-29-56.6-37.7l45.4-45.4c5.2-5.2,5.2-13.6,0-18.9s-13.6-5.2-18.9,0l-45.4,45.4c-17.6,17.6-27.3,41-27.3,66s9.7,48.4,27.3,66,19.5,29.3,19.5,47.1-1.6,16.7-4.6,24.4c-19.7-7.3-37.7-18.8-52.6-33.8-28.6-28.6-42.9-66.2-42.9-103.7s14.3-75.1,42.9-103.7ZM237.6,350.8c8.4,20.6,21,39.9,37.7,56.6,16.2,16.2,35.5,29,56.6,37.7l-111.4,111.4c-26,26-68.3,26-94.3,0-26-26-26-68.3,0-94.3l111.4-111.4s0,0,0,0ZM388.5,501.6l-111.4,111.4c-27.7,27.7-64.5,43-103.7,43s-76-15.3-103.7-43c-27.7-27.7-43-64.5-43-103.7s15.3-76,43-103.7l111.4-111.4c13-13,28.2-23.4,44.9-30.7-.9,7-1.3,14.1-1.3,21.2,0,12.9,1.4,25.7,4.3,38.4-3.6,2.7-7,5.6-10.2,8.8l-111.4,111.4c-36.4,36.4-36.4,95.6,0,132,18.2,18.2,42.1,27.3,66,27.3s47.8-9.1,66-27.3l111.4-111.4c17.6-17.6,27.3-41,27.3-66s-9.7-48.4-27.3-66c-12.6-12.6-19.5-29.3-19.5-47.1s1.6-16.7,4.6-24.4c19.6,7.3,37.7,18.8,52.6,33.8,28.6,28.6,42.9,66.2,42.9,103.7s-14.3,75.1-42.9,103.7Z"/>
  <path class="st0" d="M424.5,158.9c3.5,0,7.1-1.3,9.8-4,5.4-5.4,5.4-14.2,0-19.6-5.4-5.4-14.2-5.4-19.6,0-5.4,5.4-5.4,14.2,0,19.6,2.7,2.7,6.2,4,9.8,4Z"/>
  <path class="st0" d="M162.2,181.1c2.6,2.6,6,3.9,9.4,3.9s6.8-1.3,9.4-3.9c5.2-5.2,5.2-13.6,0-18.9l-56.6-56.6c-5.2-5.2-13.6-5.2-18.9,0s-5.2,13.6,0,18.9l56.6,56.6Z"/>
  <path class="st0" d="M50.7,250.7h80c7.4,0,13.3-6,13.3-13.3s-6-13.3-13.3-13.3H50.7c-7.4,0-13.3,6-13.3,13.3s6,13.3,13.3,13.3Z"/>
  <path class="st0" d="M237.3,140c7.4,0,13.3-6,13.3-13.3V46.7c0-7.4-6-13.3-13.3-13.3s-13.3,6-13.3,13.3v80c0,7.4,6,13.3,13.3,13.3Z"/>
  <path class="st0" d="M520.5,501.6c-5.2-5.2-13.6-5.2-18.9,0s-5.2,13.6,0,18.9l56.6,56.6c2.6,2.6,6,3.9,9.4,3.9s6.8-1.3,9.4-3.9c5.2-5.2,5.2-13.6,0-18.9l-56.6-56.6Z"/>
  <path class="st0" d="M444,542.7c-7.4,0-13.3,6-13.3,13.3v80c0,7.4,6,13.3,13.3,13.3s13.3-6,13.3-13.3v-80c0-7.4-6-13.3-13.3-13.3Z"/>
  <path class="st0" d="M636,430.7h-80c-7.4,0-13.3,6-13.3,13.3s6,13.3,13.3,13.3h80c7.4,0,13.3-6,13.3-13.3s-6-13.3-13.3-13.3Z"/>
</svg>