<?xml version="1.0" encoding="UTF-8"?>
<svg xmlns="http://www.w3.org/2000/svg" version="1.1" viewBox="0 0 512 512">
  <!-- Generator: Adobe Illustrator 29.3.0, SVG Export Plug-In . SVG Version: 2.1.0 Build 146)  -->
  <defs>
    <style>
      .st0 {
        fill-rule: evenodd;
      }
    </style>
  </defs>
  <g id="Layer_1" image-rendering="optimizeQuality" shape-rendering="geometricPrecision" text-rendering="geometricPrecision">
    <g>
      <path class="st0" d="M510,185c-6-23-29-36-51-30l-186,50-1-6c-9-34-18-69-28-103-4-14-14-24-29-27-16-3-33,3-43,15-21,27-17,57-13,84,0,4,1,8,1,11,4,38-10,44-37,55-12,5.5-26.5,11.1-40.4,21.3-5.2-2.7-11.2-4.3-17.6-4.3s-6,0-9,1l-29,8c-9,2-17,8-22,16-5,9-6,19-4,28l47,173c4,16,18,27,35,27s6,0,9-1l29-8c7.2-1.8,13.3-5.6,17.8-10.6,5.4,1.5,10.8,3.1,16.2,4.6,36,11,58,18,87,18s54-5,100-18l27-7c22-6,36-29,30-52-3-9-9-18-17-23l11-3c11-3,20-10,25-20,6-10,8-21,5-32-3-10-9-18-17-24,20-7,32-29,26-50-3-10-8-18-17-24l66-17c10-3,20-10,25-20,6-10,7-21,4-32ZM117,480l-29,8c-2,1-3,1-5,1-10,0-18-7-21-16l-46-173c-2-5-1-11,2-16s7-8,13-10l29-8h5c6.2,0,12.1,2.3,16.1,6.3,2.2,2.6,4.1,5.7,4.9,8.7l46,173c3,12-3,23-15,26ZM493,209c-4,7-9,11-16,13l-166,44c-4,1-6,6-5,10s5,6,9,5l69-19c7-1,14,0,21,3,6,4,11,10,12,17,4,14-4,29-19,33l-68,18c-5,1-7,6-6,10s5,6,9,5l42-11c7-2,14-1,20,3,7,3,11,9,13,16s1,14-3,21c-3,6-9,10-16,12l-42,11c-4,1-6,6-5,10s5,6,9,5c7-2,14-1,20,3,7,3,11,9,13,16,4,15-5,30-19,33l-27,8c-95,25-113,20-179,0-3.9-1.9-7.8-2.9-12.6-3.9.5-1.7,1-3.5,1.3-5.3,1.2-5.2.8-10.5-.7-15.7l-46-173c-1.2-3.5-2.8-6.7-4.8-9.6l-1.2-2.4c12-8,23-13,34-17,28-12,51-21,46-71,0-3-1-7-1-11-4-25-7-51,10-72,6-8,18-13,28-10,5,1,14,4,18,16,9,34,18,69,27,103l4,13c0,2,2,3,3,4,2,1,4,2,6,1l193-51c14-4,29,4,33,19,2,7,1,14-3,20Z"/>
      <path class="st0" d="M348,111c4,0,7-3,7-7V13c0-5-3-8-7-8s-8,3-8,8v91c0,4,3,7,8,7Z"/>
      <path class="st0" d="M391,111h3c3,0,6-2,7-4l36-87c2-4,0-8-4-10s-8,0-10,4l-36,87c-2,4,0,8,4,10Z"/>
      <path class="st0" d="M294,107c2,2,4,4,7,4h3c4-2,6-6,4-10l-36-87c-2-4-6-6-10-4s-5,6-4,10l36,87Z"/>
    </g>
  </g>
</svg>