<svg id="Layer_1" enable-background="new 0 0 512 512" viewBox="0 0 512 512" xmlns="http://www.w3.org/2000/svg"><path d="m21 208.16c-3.31 0-6-2.69-6-6s2.69-6 6-6h90.63c3.31 0 6 2.69 6 6s-2.69 6-6 6zm71.61 78.48c0-3.31-2.69-6-6-6h-63.59c-3.31 0-6 2.69-6 6s2.69 6 6 6h63.59c3.32 0 6-2.68 6-6zm23.53 96.11c0-3.31-2.69-6-6-6h-49.18c-3.31 0-6 2.69-6 6s2.69 6 6 6h49.18c3.31 0 6-2.69 6-6zm380.86-86.15c0 101.64-82.69 184.32-184.32 184.32-45.69 0-87.54-16.72-119.78-44.34-.53.15-1.08.24-1.65.24h-72.32c-3.31 0-6-2.69-6-6s2.69-6 6-6h61.47c-22.39-23.09-38.79-52-46.72-84.21h-74.99c-3.31 0-6-2.69-6-6s2.69-6 6-6h72.45c-1.83-10.4-2.79-21.09-2.79-32.01 0-17.95 2.59-35.31 7.4-51.73h-43.04c-3.31 0-6-2.69-6-6s2.69-6 6-6h47c5.86-15.85 13.84-30.68 23.6-44.15l-15.91-15.91-2.84 2.84c-3.35 3.36-7.83 5.2-12.6 5.2s-9.24-1.85-12.6-5.2l-18.04-18.04c-6.95-6.95-6.95-18.25 0-25.19l46.95-46.95c3.36-3.36 7.83-5.2 12.6-5.2s9.24 1.85 12.6 5.2l18.03 18.03c3.36 3.36 5.2 7.83 5.2 12.6s-1.85 9.24-5.2 12.6l-2.62 2.62 15.91 15.91c22.82-16.53 49.56-27.96 78.54-32.62v-22.4h-4.02c-9.82 0-17.82-7.99-17.82-17.82v-25.5c0-9.82 7.99-17.82 17.82-17.82h66.4c9.82 0 17.82 7.99 17.82 17.82v25.51c0 9.82-7.99 17.82-17.82 17.82h-3.71v22.41c87.75 14.09 155 90.32 155 181.97zm-151.28-216.39c3.21 0 5.82-2.61 5.82-5.82v-25.5c0-3.21-2.61-5.82-5.82-5.82h-66.4c-3.21 0-5.82 2.61-5.82 5.82v25.51c0 3.21 2.61 5.82 5.82 5.82h66.4zm-50.38 12v20.89c5.71-.54 11.49-.82 17.33-.82s11.63.29 17.33.82v-20.89zm-112.31 28.01c1.09-1.09 1.69-2.55 1.69-4.11s-.6-3.02-1.69-4.11l-18.03-18.04c-1.09-1.09-2.55-1.69-4.11-1.69s-3.02.6-4.11 1.69l-46.95 46.95c-2.27 2.27-2.27 5.96 0 8.23l18.03 18.03c1.09 1.09 2.55 1.69 4.11 1.69s3.02-.6 4.11-1.69zm-12.31 58.94c7.39-8.92 15.6-17.13 24.52-24.52l-14.83-14.83-24.52 24.52zm314.28 117.44c0-95.02-77.3-172.32-172.32-172.32s-172.33 77.3-172.33 172.32 77.3 172.32 172.33 172.32c95.02.01 172.32-77.3 172.32-172.32zm-29.96 0c0 78.5-63.86 142.36-142.36 142.36s-142.37-63.86-142.37-142.36 63.86-142.36 142.36-142.36 142.37 63.86 142.37 142.36zm-12.15 6h-25.07c-3.31 0-6-2.69-6-6s2.69-6 6-6h25.07c-1.43-31.43-14.04-59.99-33.94-81.79l-17.69 17.69c-1.17 1.17-2.71 1.76-4.24 1.76s-3.07-.59-4.24-1.76c-2.34-2.34-2.34-6.14 0-8.49l17.69-17.69c-21.8-19.9-50.37-32.51-81.79-33.94v25.07c0 3.31-2.69 6-6 6s-6-2.69-6-6v-25.07c-31.43 1.43-59.99 14.04-81.79 33.94l17.69 17.69c2.34 2.34 2.34 6.14 0 8.49-1.17 1.17-2.71 1.76-4.24 1.76s-3.07-.59-4.24-1.76l-17.69-17.69c-19.9 21.8-32.51 50.37-33.94 81.79h25.07c3.31 0 6 2.69 6 6s-2.69 6-6 6h-25.07c1.43 31.43 14.04 59.99 33.94 81.79l17.69-17.69c2.34-2.34 6.14-2.34 8.48 0s2.34 6.14 0 8.49l-17.69 17.69c21.8 19.9 50.37 32.51 81.79 33.94v-25.07c0-3.31 2.69-6 6-6s6 2.69 6 6v25.07c31.43-1.43 59.99-14.04 81.79-33.94l-17.69-17.68c-2.34-2.34-2.34-6.14 0-8.49 2.34-2.34 6.14-2.34 8.48 0l17.69 17.69c19.9-21.81 32.51-50.37 33.94-81.8zm-85.46-30.43c.98 2.13.63 4.63-.89 6.41l-77.83 91.08c-1.18 1.38-2.86 2.1-4.56 2.1-1.07 0-2.15-.29-3.12-.88-2.51-1.53-3.54-4.67-2.43-7.39l23.76-58.05h-18.99c-2.08 0-4.01-1.08-5.1-2.84-1.09-1.77-1.19-3.98-.27-5.83l35.89-71.98c1.02-2.04 3.1-3.32 5.37-3.32h.06l39.51.41c2.17.02 4.17 1.22 5.21 3.13s.97 4.23-.19 6.07l-23.69 37.62h21.83c2.34-.02 4.46 1.34 5.44 3.47zm-18.47 8.51h-19.68c-2.18 0-4.2-1.19-5.25-3.1-1.06-1.91-.99-4.25.18-6.1l23.77-37.73-25.02-.26-29.89 59.94h18.23c2 0 3.87 1 4.98 2.66s1.33 3.77.57 5.62l-13 31.77z"/></svg>