<?xml version="1.0" encoding="UTF-8"?>
<svg id="Layer_1" xmlns="http://www.w3.org/2000/svg" version="1.1" viewBox="0 0 512 512">
  <!-- Generator: Adobe Illustrator 29.3.0, SVG Export Plug-In . SVG Version: 2.1.0 Build 146)  -->
  <defs>
    <style>
      .st0 {
        fill: none;
      }
    </style>
  </defs>
  <path class="st0" d="M379.5,285.3V79.7c0-4.4-3.5-7.9-7.9-7.9H23.7c-4.4,0-7.9,3.5-7.9,7.9v205.6c0,4.4,3.5,7.9,7.9,7.9h15.8c4.4,0,7.9,3.5,7.9,7.9v62.2l81.9-68.3c1.4-1.2,3.2-1.8,5.1-1.8h237.2c4.4,0,7.9-3.5,7.9-7.9ZM197.7,277.4c-52.4,0-94.9-42.5-94.9-94.9s42.5-94.9,94.9-94.9,94.9,42.5,94.9,94.9c0,52.4-42.5,94.8-94.9,94.9Z"/>
  <path class="st0" d="M197.7,103.4c-43.7,0-79.1,35.4-79.1,79.1s35.4,79.1,79.1,79.1,79.1-35.4,79.1-79.1c0-43.6-35.4-79-79.1-79.1ZM189.8,119.2c0-4.4,3.5-7.9,7.9-7.9s7.9,3.5,7.9,7.9v7.9c0,4.4-3.5,7.9-7.9,7.9s-7.9-3.5-7.9-7.9v-7.9ZM142.3,190.4h-7.9c-4.4,0-7.9-3.5-7.9-7.9s3.5-7.9,7.9-7.9h7.9c4.4,0,7.9,3.5,7.9,7.9s-3.5,7.9-7.9,7.9ZM205.6,245.8c0,4.4-3.5,7.9-7.9,7.9s-7.9-3.5-7.9-7.9v-7.9c0-4.4,3.5-7.9,7.9-7.9s7.9,3.5,7.9,7.9v7.9ZM234.9,156.5l-31.6,31.6s0,0,0,0,0,0,0,0c0,0-.2.2-.3.2-.1.1-.2.2-.3.3,0,0-.1,0-.2.1-.1.1-.3.2-.4.3,0,0-.1,0-.2.1-.1,0-.3.2-.4.3-.1,0-.3.1-.4.2-.1,0-.2.1-.3.2-.1,0-.3.1-.4.2,0,0-.2,0-.3.1-.1,0-.2,0-.4,0-.1,0-.3,0-.4,0-.1,0-.2,0-.3,0-.4,0-.8.1-1.2.1-.3,0-.5,0-.8,0-.2,0-.4,0-.6,0,0,0-.1,0-.2,0-.2,0-.5-.1-.7-.2,0,0,0,0,0,0-.2,0-.4-.1-.7-.2,0,0,0,0,0,0-.2,0-.4-.2-.6-.3,0,0,0,0-.1,0-.2,0-.4-.2-.5-.3,0,0,0,0-.1,0-.2-.1-.3-.2-.5-.3,0,0-.1,0-.2-.1-.2-.2-.4-.3-.5-.5,0,0,0,0,0,0l-15.8-15.8c-3-3.1-2.9-8.1.2-11.2,3.1-3,7.9-3,11,0l10.2,10.2,26-26c3.1-3,8.1-2.9,11.2.2,3,3.1,3,7.9,0,11ZM268.8,182.5c0,4.4-3.5,7.9-7.9,7.9h-7.9c-4.4,0-7.9-3.5-7.9-7.9s3.5-7.9,7.9-7.9h7.9c4.4,0,7.9,3.5,7.9,7.9Z"/>
  <path d="M371.6,309c13.1,0,23.7-10.6,23.7-23.7V79.7c0-13.1-10.6-23.7-23.7-23.7H23.7c-13.1,0-23.7,10.6-23.7,23.7v205.6c0,13.1,10.6,23.7,23.7,23.7h7.9v71.2c0,3.1,1.8,5.9,4.6,7.2,1,.5,2.2.8,3.4.8,1.9,0,3.6-.6,5.1-1.8l92.7-77.2h234.3ZM129.3,295l-81.9,68.3v-62.2c0-4.4-3.5-7.9-7.9-7.9h-15.8c-4.4,0-7.9-3.5-7.9-7.9V79.7c0-4.4,3.5-7.9,7.9-7.9h347.9c4.4,0,7.9,3.5,7.9,7.9v205.6c0,4.4-3.5,7.9-7.9,7.9h-237.2c-1.9,0-3.6.6-5.1,1.8Z"/>
  <path d="M482.3,119.2h-63.2c-4.4,0-7.9,3.5-7.9,7.9s3.5,7.9,7.9,7.9h63.2c4.4,0,7.9,3.5,7.9,7.9v205.6c0,4.4-3.5,7.9-7.9,7.9h-15.8c-4.4,0-7.9,3.5-7.9,7.9v62.2l-81.9-68.3c-1.4-1.2-3.2-1.8-5.1-1.8h-237.2c-4.4,0-7.9-3.5-7.9-7.9s-3.5-7.9-7.9-7.9-7.9,3.5-7.9,7.9c0,13.1,10.6,23.7,23.7,23.7h234.3l92.7,77.2c1.4,1.2,3.2,1.8,5.1,1.8,1.2,0,2.3-.3,3.4-.8,2.8-1.3,4.6-4.1,4.6-7.2v-71.2h7.9c13.1,0,23.7-10.6,23.7-23.7v-205.6c0-13.1-10.6-23.7-23.7-23.7Z"/>
  <path d="M197.7,87.6c-52.4,0-94.9,42.5-94.9,94.9s42.5,94.9,94.9,94.9c52.4,0,94.8-42.5,94.9-94.9,0-52.4-42.5-94.9-94.9-94.9ZM197.7,261.6c-43.7,0-79.1-35.4-79.1-79.1s35.4-79.1,79.1-79.1c43.6,0,79,35.4,79.1,79.1,0,43.7-35.4,79.1-79.1,79.1Z"/>
  <path d="M223.7,145.3l-26,26-10.2-10.2c-3.1-3-7.9-3-11,0-3.1,3-3.2,8-.2,11.2l15.8,15.8s0,0,0,0c.2.2.4.3.5.5,0,0,.1,0,.2.1.2.1.3.2.5.3,0,0,0,0,.1,0,.2.1.3.2.5.3,0,0,0,0,.1,0,.2.1.4.2.6.3,0,0,0,0,0,0,.2,0,.4.2.7.2,0,0,0,0,0,0,.2,0,.4.1.7.2,0,0,.1,0,.2,0,.2,0,.4,0,.6,0,.3,0,.5,0,.8,0,.4,0,.8,0,1.2-.1.1,0,.2,0,.3,0,.1,0,.3,0,.4,0,.1,0,.2,0,.4,0,0,0,.2,0,.3-.1.1,0,.3,0,.4-.2.1,0,.2-.1.3-.2.1,0,.3-.1.4-.2.2,0,.3-.2.4-.3,0,0,.1,0,.2-.1.2-.1.3-.2.4-.3,0,0,.1,0,.2-.1.1,0,.2-.2.3-.3,0,0,.2-.1.3-.2s0,0,0,0,0,0,0,0l31.6-31.6c3-3.1,3-7.9,0-11-3-3.1-8-3.2-11.2-.2Z"/>
  <path d="M197.7,135.1c4.4,0,7.9-3.5,7.9-7.9v-7.9c0-4.4-3.5-7.9-7.9-7.9s-7.9,3.5-7.9,7.9v7.9c0,4.4,3.5,7.9,7.9,7.9Z"/>
  <path d="M142.3,174.6h-7.9c-4.4,0-7.9,3.5-7.9,7.9s3.5,7.9,7.9,7.9h7.9c4.4,0,7.9-3.5,7.9-7.9s-3.5-7.9-7.9-7.9Z"/>
  <path d="M197.7,229.9c-4.4,0-7.9,3.5-7.9,7.9v7.9c0,4.4,3.5,7.9,7.9,7.9s7.9-3.5,7.9-7.9v-7.9c0-4.4-3.5-7.9-7.9-7.9Z"/>
  <path d="M245.1,182.5c0,4.4,3.5,7.9,7.9,7.9h7.9c4.4,0,7.9-3.5,7.9-7.9s-3.5-7.9-7.9-7.9h-7.9c-4.4,0-7.9,3.5-7.9,7.9Z"/>
</svg>