<?xml version="1.0"?>
<svg xmlns="http://www.w3.org/2000/svg" id="Layer_1" data-name="Layer 1" viewBox="0 0 64 64"><path d="M32,45.437a6.879,6.879,0,1,0-6.879-6.879A6.887,6.887,0,0,0,32,45.437Zm0-11.758a4.879,4.879,0,1,1-4.879,4.879A4.884,4.884,0,0,1,32,33.679Z"/><path d="M14.218,45.01A6.316,6.316,0,1,0,7.9,38.693,6.323,6.323,0,0,0,14.218,45.01Zm0-10.632A4.316,4.316,0,1,1,9.9,38.693,4.319,4.319,0,0,1,14.218,34.378Z"/><path d="M49.783,45.01a6.316,6.316,0,1,0-6.316-6.317A6.324,6.324,0,0,0,49.783,45.01Zm0-10.632a4.316,4.316,0,1,1-4.316,4.315A4.32,4.32,0,0,1,49.783,34.378Z"/><path d="M54.942,46.05a2.761,2.761,0,0,0-2.985,1.1,2.734,2.734,0,0,1-2.176.92,2.7,2.7,0,0,1-2.168-.92,2.769,2.769,0,0,0-2.978-1.1,9.627,9.627,0,0,0-3.911,2.176A10.471,10.471,0,0,0,37.677,46.8a2.966,2.966,0,0,0-3.192,1.174,3.448,3.448,0,0,1-4.97,0,2.951,2.951,0,0,0-3.18-1.176,10.4,10.4,0,0,0-3.079,1.42,9.634,9.634,0,0,0-3.88-2.164,2.775,2.775,0,0,0-2.992,1.1,2.7,2.7,0,0,1-2.165.915,2.73,2.73,0,0,1-2.175-.92,2.754,2.754,0,0,0-2.978-1.1A9.663,9.663,0,0,0,2,55.294a2.327,2.327,0,0,0,2.31,2.339h14.4a2.459,2.459,0,0,0,.61,1.053,2.414,2.414,0,0,0,1.72.714H42.966a2.409,2.409,0,0,0,1.716-.712,2.466,2.466,0,0,0,.61-1.055H59.7A2.317,2.317,0,0,0,62,55.3a9.644,9.644,0,0,0-7.058-9.253ZM4,55.3a7.656,7.656,0,0,1,5.6-7.323.792.792,0,0,1,.828.348,4.644,4.644,0,0,0,3.791,1.741A4.611,4.611,0,0,0,18,48.325a.8.8,0,0,1,.839-.347A7.627,7.627,0,0,1,21.7,49.507a10.592,10.592,0,0,0-3.01,6.126H4.31A.317.317,0,0,1,4,55.3Zm39.265,1.975a.416.416,0,0,1-.3.125H21.04a.42.42,0,0,1-.3-.126.486.486,0,0,1-.139-.351,8.569,8.569,0,0,1,6.268-8.2.8.8,0,0,1,.216-.03,1.025,1.025,0,0,1,.814.453,5.414,5.414,0,0,0,8.208,0,.98.98,0,0,1,1.04-.42A8.56,8.56,0,0,1,43.4,56.934.477.477,0,0,1,43.265,57.275ZM59.7,55.633H45.311a10.412,10.412,0,0,0-3-6.125l-.021-.019a7.64,7.64,0,0,1,2.877-1.512.782.782,0,0,1,.824.342,4.988,4.988,0,0,0,7.584,0,.785.785,0,0,1,.832-.34A7.642,7.642,0,0,1,60,55.309.311.311,0,0,1,59.7,55.633Z"/><path d="M58.241,4.6H5.759A3.763,3.763,0,0,0,2,8.358v8.985A3.764,3.764,0,0,0,5.759,21.1H25.713a2.6,2.6,0,0,1,2.3,1.37l3.059,5.663a1,1,0,0,0,.871.524h.009a1,1,0,0,0,.871-.509l3.226-5.719A2.614,2.614,0,0,1,38.32,21.1H58.241A3.764,3.764,0,0,0,62,17.343V8.358A3.763,3.763,0,0,0,58.241,4.6ZM60,17.343A1.762,1.762,0,0,1,58.241,19.1H38.32A4.617,4.617,0,0,0,34.3,21.448L31.968,25.59l-2.2-4.069A4.6,4.6,0,0,0,25.713,19.1H5.759A1.762,1.762,0,0,1,4,17.343V8.358A1.761,1.761,0,0,1,5.759,6.6H58.241A1.761,1.761,0,0,1,60,8.358Z"/><path d="M18.97,9.234,14.614,13.59,12.9,11.877a1,1,0,1,0-1.414,1.414l2.42,2.42a1,1,0,0,0,1.414,0l5.063-5.063A1,1,0,1,0,18.97,9.234Z"/><path d="M51.1,9.234,46.743,13.59,45.03,11.877a1,1,0,1,0-1.414,1.414l2.42,2.42a1,1,0,0,0,1.414,0l5.063-5.063A1,1,0,1,0,51.1,9.234Z"/><path d="M34.965,10.214a1,1,0,0,0-1.414,0L32,11.765l-1.551-1.551a1,1,0,1,0-1.414,1.414l1.551,1.551-1.551,1.55a1,1,0,1,0,1.414,1.415L32,14.593l1.551,1.551a1,1,0,1,0,1.414-1.415l-1.551-1.55,1.551-1.551A1,1,0,0,0,34.965,10.214Z"/></svg>
