<svg xmlns="http://www.w3.org/2000/svg" xmlns:xlink="http://www.w3.org/1999/xlink" width="100" height="100" viewBox="0 0 100 100">
  <defs>
    <clipPath id="clip-path">
      <rect id="Rectangle_130" data-name="Rectangle 130" width="100" height="100" transform="translate(1108 1753)" fill="#0092e0"/>
    </clipPath>
  </defs>
  <g id="Mask_Group_21" data-name="Mask Group 21" transform="translate(-1108 -1753)" clip-path="url(#clip-path)">
    <g id="aim_2910821" transform="translate(1108 1753)">
      <g id="Group_53" data-name="Group 53">
        <path id="Path_120" data-name="Path 120" d="M37.5,87.5a37.5,37.5,0,0,1,0-75A37.487,37.487,0,0,1,64.167,23.333a42.283,42.283,0,0,1,7.917,11.25A2.576,2.576,0,0,1,71.25,37.5a2.576,2.576,0,0,1-2.917-.833,41.872,41.872,0,0,0-6.667-10c-7.083-6.667-15.417-10-24.167-10a33.333,33.333,0,1,0,0,66.667,2.083,2.083,0,0,1,0,4.167Z" fill="#0092e0"/>
      </g>
      <g id="Group_54" data-name="Group 54">
        <path id="Path_121" data-name="Path 121" d="M35.417,72.917A22.745,22.745,0,0,1,14.583,50,23.12,23.12,0,0,1,37.5,27.083,23.758,23.758,0,0,1,53.75,33.75a25.97,25.97,0,0,1,3.75,5,2.145,2.145,0,0,1-3.75,2.083,14.965,14.965,0,0,0-2.917-4.167A20.067,20.067,0,0,0,37.5,31.25a18.789,18.789,0,0,0-1.667,37.5A1.906,1.906,0,0,1,37.5,70.833,1.968,1.968,0,0,1,35.417,72.917Z" fill="#0092e0"/>
      </g>
      <g id="Group_55" data-name="Group 55">
        <path id="Path_122" data-name="Path 122" d="M37.5,52.083a2.505,2.505,0,0,1-1.667-.417,2.014,2.014,0,0,1,0-2.917L62.917,21.667a2.062,2.062,0,0,1,2.917,2.917L38.75,51.667C38.75,52.083,37.917,52.083,37.5,52.083Z" fill="#0092e0"/>
      </g>
      <g id="Group_56" data-name="Group 56">
        <path id="Path_123" data-name="Path 123" d="M75,25H64.583A1.968,1.968,0,0,1,62.5,22.917V12.5c0-.417.417-1.25.417-1.667L73.333.417A5.285,5.285,0,0,1,75.833,0a2.291,2.291,0,0,1,1.25,2.083v8.333h8.333a2.291,2.291,0,0,1,2.083,1.25,5.285,5.285,0,0,1-.417,2.5L76.667,24.583C76.25,24.583,75.417,25,75,25Zm-8.333-4.167h7.5l6.25-6.25H75A1.968,1.968,0,0,1,72.917,12.5V7.083l-6.25,6.25Z" fill="#0092e0"/>
      </g>
      <g id="Group_57" data-name="Group 57">
        <path id="Path_124" data-name="Path 124" d="M72.917,100A27.083,27.083,0,1,1,100,72.917,27.029,27.029,0,0,1,72.917,100Zm0-50A22.917,22.917,0,1,0,95.833,72.917,23.12,23.12,0,0,0,72.917,50Z" fill="#0092e0"/>
      </g>
      <g id="Group_58" data-name="Group 58">
        <path id="Path_125" data-name="Path 125" d="M68.75,83.333c-.417,0-1.25-.417-1.667-.417L58.75,74.583a2.062,2.062,0,1,1,2.917-2.917l6.667,6.667,12.917-15a2.062,2.062,0,1,1,2.917,2.917L69.583,82.917c.417,0,0,.417-.833.417Z" fill="#0092e0"/>
      </g>
      <g id="Group_59" data-name="Group 59">
        <path id="Path_126" data-name="Path 126" d="M37.5,58.333A8.333,8.333,0,1,1,45.833,50,8.358,8.358,0,0,1,37.5,58.333Zm0-12.5a4.167,4.167,0,1,0,0,8.333,4.167,4.167,0,0,0,0-8.333Z" fill="#0092e0"/>
      </g>
    </g>
  </g>
</svg>
