<svg xmlns="http://www.w3.org/2000/svg" xmlns:xlink="http://www.w3.org/1999/xlink" width="100" height="100" viewBox="0 0 100 100">
  <defs>
    <clipPath id="clip-path">
      <rect id="Rectangle_131" data-name="Rectangle 131" width="100" height="100" transform="translate(280 2059)" fill="#0092e0"/>
    </clipPath>
  </defs>
  <g id="Mask_Group_22" data-name="Mask Group 22" transform="translate(-280 -2059)" clip-path="url(#clip-path)">
    <path id="methodology_17400656" d="M26.39,87.759a1.412,1.412,0,0,1,0,2l-3.7,3.7a1.411,1.411,0,0,1-2-2l1.3-1.3a20.951,20.951,0,0,1,.129-41.887h.03a1.411,1.411,0,0,1,.029,2.822,18.127,18.127,0,0,0-.211,36.24L20.7,86.064a1.411,1.411,0,0,1,1.994-2l3.7,3.692ZM80.659,54.494l-3.818-3.818a1.411,1.411,0,0,1,0-2l3.818-3.823a1.411,1.411,0,1,1,2,1.995l-1.4,1.4a18.131,18.131,0,0,0-.591-36.251h-11.1a8.309,8.309,0,1,1,0-2.823h11.1a20.954,20.954,0,0,1,.576,41.9L82.655,52.5a1.411,1.411,0,0,1-2,2Zm-13.792-43.9A5.487,5.487,0,1,0,61.38,16.08,5.493,5.493,0,0,0,66.867,10.594ZM39.692,49.678A10.3,10.3,0,1,1,50,59.982a10.315,10.315,0,0,1-10.3-10.3Zm2.823,0A7.481,7.481,0,1,0,50,42.2a7.49,7.49,0,0,0-7.481,7.481ZM31.7,55.484l-3.813-1.757a1.411,1.411,0,0,1-.821-1.282V46.912a1.411,1.411,0,0,1,.819-1.281L31.7,43.868l1.252-3.022L31.5,36.9a1.411,1.411,0,0,1,.327-1.485l3.909-3.909a1.411,1.411,0,0,1,1.485-.327l3.946,1.45,3.022-1.252,1.763-3.814a1.411,1.411,0,0,1,1.281-.819h5.532a1.411,1.411,0,0,1,1.281.819l1.763,3.814,3.021,1.252,3.94-1.45a1.411,1.411,0,0,1,1.485.326l3.915,3.909a1.411,1.411,0,0,1,.327,1.485l-1.45,3.947,1.248,3.021,3.819,1.763a1.411,1.411,0,0,1,.82,1.281v5.532a1.411,1.411,0,0,1-.821,1.282l-3.817,1.757-1.248,3.025,1.45,3.941a1.411,1.411,0,0,1-.327,1.485L64.252,67.85a1.411,1.411,0,0,1-1.487.326l-3.939-1.454-3.02,1.252-1.763,3.814a1.411,1.411,0,0,1-1.281.819H47.229a1.411,1.411,0,0,1-1.281-.819l-1.763-3.814-3.021-1.252-3.945,1.455a1.411,1.411,0,0,1-1.487-.327l-3.909-3.915A1.411,1.411,0,0,1,31.5,62.45l1.45-3.94-1.252-3.026Zm-1.811-3.943,3.494,1.61a1.411,1.411,0,0,1,.713.742l1.675,4.046a1.411,1.411,0,0,1,.021,1.027l-1.329,3.611,2.633,2.637,3.615-1.333a1.412,1.412,0,0,1,1.029.02l4.041,1.674a1.411,1.411,0,0,1,.741.712l1.616,3.5H51.86l1.616-3.5a1.412,1.412,0,0,1,.741-.712L58.257,63.9a1.411,1.411,0,0,1,1.029-.02l3.61,1.333,2.638-2.637-1.328-3.611a1.412,1.412,0,0,1,.02-1.025L65.894,53.9a1.411,1.411,0,0,1,.715-.744l3.5-1.611V47.816l-3.5-1.616a1.412,1.412,0,0,1-.713-.743l-1.669-4.041a1.411,1.411,0,0,1-.02-1.025l1.329-3.616L62.9,34.141,59.284,35.47a1.411,1.411,0,0,1-1.028-.021l-4.041-1.675a1.411,1.411,0,0,1-.741-.712l-1.616-3.5H48.132l-1.616,3.5a1.412,1.412,0,0,1-.741.712l-4.041,1.675a1.413,1.413,0,0,1-1.027.021l-3.617-1.329-2.633,2.633,1.329,3.617a1.411,1.411,0,0,1-.021,1.027l-1.675,4.041a1.411,1.411,0,0,1-.712.741l-3.5,1.616v3.726ZM1.613,10.594a8.308,8.308,0,0,1,16.5-1.411H44.754L43.466,7.894a1.411,1.411,0,0,1,2-2l3.7,3.7a1.411,1.411,0,0,1,0,2l-3.7,3.7a1.411,1.411,0,0,1-2-2l1.288-1.288H18.109a8.308,8.308,0,0,1-16.5-1.411Zm2.823,0A5.487,5.487,0,1,0,9.922,5.107a5.493,5.493,0,0,0-5.487,5.487ZM86.778,92.926a1.411,1.411,0,0,0,1.976.021l6.6-6.338A1.411,1.411,0,0,0,93.4,84.573l-5.6,5.379-2.32-2.324a1.411,1.411,0,0,0-2,1.994l3.3,3.3Zm14.834-14.942V99.53a1.411,1.411,0,0,1-1.411,1.411H78.656a1.411,1.411,0,0,1-1.411-1.411V77.985a1.411,1.411,0,0,1,1.411-1.411H100.2A1.411,1.411,0,0,1,101.613,77.985ZM98.79,79.4H80.068V98.119H98.79ZM73.332,87.759a1.412,1.412,0,0,1,0,2l-3.7,3.7a1.411,1.411,0,0,1-2-2l1.288-1.289H46.8a8.3,8.3,0,1,1,0-2.823H68.924l-1.284-1.282a1.411,1.411,0,0,1,1.994-2l3.7,3.692Zm-29.234,1a5.487,5.487,0,1,0-5.487,5.487A5.49,5.49,0,0,0,44.1,88.757Z" transform="translate(278.387 2057.387)" fill="#0092e0"/>
  </g>
</svg>
