<svg xmlns="http://www.w3.org/2000/svg" xmlns:xlink="http://www.w3.org/1999/xlink" width="100" height="100" viewBox="0 0 100 100">
  <defs>
    <clipPath id="clip-path">
      <rect id="Rectangle_128" data-name="Rectangle 128" width="100" height="100" transform="translate(280 1753)" fill="#0092e0"/>
    </clipPath>
  </defs>
  <g id="Mask_Group_19" data-name="Mask Group 19" transform="translate(-280 -1753)" clip-path="url(#clip-path)">
    <g id="cloud-service_2452586" transform="translate(278.387 1751.387)">
      <path id="Path_105" data-name="Path 105" d="M29.032,51.613a6.458,6.458,0,0,0,6.452-6.452H32.258a3.226,3.226,0,1,1-6.452,0H22.581A6.458,6.458,0,0,0,29.032,51.613Z" fill="#0092e0"/>
      <path id="Path_106" data-name="Path 106" d="M59.016,90.958a28.793,28.793,0,0,0,7.194-2.985l3.969,1.984,8.489-8.487L76.682,77.5a28.859,28.859,0,0,0,2.987-7.194l4.2-1.4v-12l-4.2-1.4a28.738,28.738,0,0,0-2.987-7.194l.768-1.534H91.935a9.678,9.678,0,0,0,1.613-19.221v-.134A16.147,16.147,0,0,0,77.419,11.29a15.881,15.881,0,0,0-5.879,1.116,20.94,20.94,0,0,0-38.556,4.771,8.006,8.006,0,0,0-10.5,2.332,7.618,7.618,0,0,0-1.521-.155,8.075,8.075,0,0,0-8.01,7.123A8.04,8.04,0,0,0,10.8,39.919,6.444,6.444,0,0,0,16.129,50h1.932A12.4,12.4,0,0,0,22.2,54.5l-.782,2.071-9.008,1a12.143,12.143,0,0,0-10.8,12.066V80.645A8.074,8.074,0,0,0,9.677,88.71v3.226H1.613v9.677h100V91.935H58.69ZM73.474,49.237a25.6,25.6,0,0,1,3.268,7.873l.2.882,3.7,1.235v7.353l-3.7,1.234-.2.882a25.6,25.6,0,0,1-3.268,7.873l-.481.768,1.748,3.5-5.2,5.2-3.5-1.747-.769.481A25.558,25.558,0,0,1,57.4,88.034l-.884.2-1.232,3.7h-6.9V88.71A8.057,8.057,0,0,0,55.029,85.2,22.561,22.561,0,0,0,67.411,46.774H73.84l-.848,1.7ZM29.839,88.71a5.645,5.645,0,1,0,0-11.29H19.355V70.968H38.71V91.935H19.355V88.71Zm0-8.065a2.419,2.419,0,1,1,0,4.839H25.806V80.645Zm12.1,8.065h3.226v3.226H41.935ZM35.86,54.5A12.381,12.381,0,0,0,40,50h1.934a6.431,6.431,0,0,0,5.555-3.226H50v6.6a9.646,9.646,0,0,0-6.26,3.979l-7.1-.789Zm6.076-12.565V40.323a3.226,3.226,0,0,1,0,6.452H41.3A18.213,18.213,0,0,0,41.935,41.935Zm20.34,4.839a19.221,19.221,0,0,1,8.59,14.516H61.145a9.689,9.689,0,0,0-7.919-7.919v-6.6ZM56.452,80.645v-9.39a9.662,9.662,0,0,0,4.69-6.739h9.75a19.326,19.326,0,0,1-14.544,17.14,7.754,7.754,0,0,0,.1-1.011ZM51.613,56.452a6.43,6.43,0,0,1,4.6,10.94,12,12,0,0,0-8.685-9.442A6.364,6.364,0,0,1,51.613,56.452ZM53.226,4.839a17.793,17.793,0,0,1,16.11,10.347l.7,1.531,1.5-.769a12.73,12.73,0,0,1,5.881-1.431A12.852,12.852,0,0,1,90.235,28.863l-.2,1.792h1.8l.2-.01a6.452,6.452,0,0,1-.1,12.9H48.387a6.407,6.407,0,0,0-1.124-3.629,8.04,8.04,0,0,0-2.156-13.442,8.075,8.075,0,0,0-8.01-7.123,7.715,7.715,0,0,0-1.326.134A17.749,17.749,0,0,1,53.226,4.839ZM14.937,29.2l1.268-.324-.055-1.308a.5.5,0,0,0-.019-.156.006.006,0,0,0,0,0,4.805,4.805,0,0,1,6.54-4.51l1.381.524.642-1.331a4.8,4.8,0,0,1,8.679,0l.642,1.331,1.381-.524a4.807,4.807,0,0,1,6.545,4.4l-.081,1.566,1.268.324a4.816,4.816,0,0,1,1.648,8.579,6.377,6.377,0,0,0-2.839-.687h-.3A4.832,4.832,0,0,0,37.1,33.871a9.019,9.019,0,0,1-5.015-1.518l-3.05-2.034-3.05,2.032a9.008,9.008,0,0,1-5.015,1.519A4.832,4.832,0,0,0,16.426,37.1h-.3a6.372,6.372,0,0,0-2.839.687A4.817,4.817,0,0,1,14.937,29.2Zm1.192,17.571a3.226,3.226,0,1,1,0-6.452v1.613a18.213,18.213,0,0,0,.637,4.839Zm3.226-4.839V38.71A1.615,1.615,0,0,1,20.968,37.1a12.241,12.241,0,0,0,6.8-2.06l1.26-.84,1.26.84a12.241,12.241,0,0,0,6.8,2.06A1.615,1.615,0,0,1,38.71,38.71v3.226c0,6.858-3.8,11.29-9.677,11.29S19.355,48.794,19.355,41.935Zm9.677,14.516a13.167,13.167,0,0,0,3.9-.577l.676,1.787-4.574,4.574-4.574-4.574.676-1.787A13.167,13.167,0,0,0,29.032,56.452ZM4.839,80.645V69.639a8.916,8.916,0,0,1,7.931-8.861l9.219-1.024L29.032,66.8l7.044-7.044L45.3,60.777a8.916,8.916,0,0,1,7.931,8.861V80.645a4.845,4.845,0,0,1-4.839,4.839H41.935V80.645h3.5a1.625,1.625,0,0,1,1.14.473l.668.668L49.527,79.5l-.668-.668a4.686,4.686,0,0,0-.473-.389V70.968H45.161v6.452H41.935V67.742H16.129v9.677H12.9V70.968H9.677v7.481a4.686,4.686,0,0,0-.473.389l-.668.668,2.281,2.281.668-.668a1.628,1.628,0,0,1,1.14-.473h9.955v4.839H9.677a4.845,4.845,0,0,1-4.839-4.839ZM12.9,88.71h3.226v3.226H12.9Zm85.484,9.677H4.839V95.161H98.387Z" fill="#0092e0"/>
      <path id="Path_107" data-name="Path 107" d="M53.226,11.29V8.065A14.577,14.577,0,0,0,40.66,15.308l2.79,1.619A11.338,11.338,0,0,1,53.226,11.29Z" fill="#0092e0"/>
      <path id="Path_108" data-name="Path 108" d="M80.645,27.419h3.226v3.226H80.645Z" fill="#0092e0"/>
      <path id="Path_109" data-name="Path 109" d="M61.29,27.419h3.226v3.226H61.29Z" fill="#0092e0"/>
      <path id="Path_110" data-name="Path 110" d="M54.839,27.419h3.226v3.226H54.839Z" fill="#0092e0"/>
      <path id="Path_111" data-name="Path 111" d="M67.742,27.419h3.226v3.226H67.742Z" fill="#0092e0"/>
      <path id="Path_112" data-name="Path 112" d="M74.194,27.419h3.226v3.226H74.194Z" fill="#0092e0"/>
      <circle id="Ellipse_40" data-name="Ellipse 40" cx="1.613" cy="1.613" r="1.613" transform="translate(22.581 38.71)" fill="#0092e0"/>
      <circle id="Ellipse_41" data-name="Ellipse 41" cx="1.613" cy="1.613" r="1.613" transform="translate(32.258 38.71)" fill="#0092e0"/>
    </g>
  </g>
</svg>
