<svg xmlns="http://www.w3.org/2000/svg" xmlns:xlink="http://www.w3.org/1999/xlink" width="90" height="90" viewBox="0 0 90 90">
  <defs>
    <clipPath id="clip-path">
      <rect id="Rectangle_117" data-name="Rectangle 117" width="90" height="90" transform="translate(1156 1821)" fill="#0092e0"/>
    </clipPath>
  </defs>
  <g id="Mask_Group_16" data-name="Mask Group 16" transform="translate(-1156 -1821)" clip-path="url(#clip-path)">
    <path id="change-management_12650058" d="M90.633,56.52a7.022,7.022,0,0,0-9.57-2.565L60.248,65.972q.105-.283.185-.582a6.332,6.332,0,0,0-4.472-7.747L35.352,52.122a7.508,7.508,0,0,0-5.819.6L15.246,60.975l-1.165-2.017a4.184,4.184,0,0,0-5.7-1.529l-4.72,2.725a4.181,4.181,0,0,0-1.528,5.7L15.52,89.053A4.147,4.147,0,0,0,18.056,91a4.218,4.218,0,0,0,1.092.145,4.138,4.138,0,0,0,2.075-.559l4.72-2.725a4.181,4.181,0,0,0,1.528-5.7l-1.165-2.017,1.99-1.149c.922-.532,1.282-.521,2.675-.212l20.554,5.508a8.558,8.558,0,0,0,6.537-.869l30-17.323a7.022,7.022,0,0,0,2.564-9.57ZM24.493,85.342l-4.72,2.725a1.281,1.281,0,0,1-1.739-.466L4.643,64.407a1.274,1.274,0,0,1,.466-1.739l4.72-2.725a1.281,1.281,0,0,1,1.739.466L24.959,83.6a1.274,1.274,0,0,1-.466,1.739Zm64.03-24.26a4.071,4.071,0,0,1-1.9,2.493l-30,17.323a5.677,5.677,0,0,1-4.334.579L31.694,75.962l-.06-.015a5.706,5.706,0,0,0-4.787.525l-1.99,1.149L16.7,63.489,30.985,55.24a4.609,4.609,0,0,1,3.5-.349l.081.024L55.21,60.448a3.426,3.426,0,0,1,2.42,4.191,3.313,3.313,0,0,1-4.109,2.326L37.99,62.853a1.452,1.452,0,1,0-.743,2.806l15.52,4.109h0l.011,0,2.463.652c1.833.485,2.87.132,5.262-1.249L82.515,56.469a4.1,4.1,0,0,1,6.008,4.613Zm-6.37-32.939a1.449,1.449,0,0,1,2.584-.23l2.374,2a1.451,1.451,0,0,1-1.834,2.248,22.38,22.38,0,0,1-42.057,10.81,1.452,1.452,0,1,1,2.554-1.38,19.476,19.476,0,0,0,36.6-9.207,1.451,1.451,0,0,1-2.211-1.88l1.993-2.363ZM7,23.166a19.343,19.343,0,0,1,2.211-11.7A19.193,19.193,0,0,1,30.364,2a19.366,19.366,0,0,1,7.541,3.621,1.451,1.451,0,0,1,2.894.081l.118,3.014a1.52,1.52,0,0,1-1.376,1.971l-3.479.136h-.058a1.452,1.452,0,0,1-.056-2.9l.179-.007a16.374,16.374,0,0,0-16.8-2.063A16.192,16.192,0,0,0,9.878,22.792a1.452,1.452,0,0,1-1.252,1.626,1.483,1.483,0,0,1-.189.012A1.452,1.452,0,0,1,7,23.166Zm34.809,1.89C43.773,20.529,46,15.4,53.682,11.928a22.349,22.349,0,0,1,26.7,6.428,1.452,1.452,0,0,1-2.27,1.81,19.448,19.448,0,0,0-23.236-5.592c-6.661,3.009-8.48,7.2-10.406,11.638-1.914,4.41-3.893,8.97-10.539,11.973a19.03,19.03,0,0,1-12.092,1.239A19.38,19.38,0,0,1,14.3,35.876a1.45,1.45,0,0,1-1.387,1.438h-.063A1.451,1.451,0,0,1,11.4,35.926l-.143-3.332a1.463,1.463,0,0,1,1.382-1.658l3.478-.149a1.452,1.452,0,0,1,.124,2.9l-.047,0a16.182,16.182,0,0,0,16.545,1.85c5.624-2.541,7.222-6.221,9.071-10.483Zm9.027-1.463a2.766,2.766,0,0,0-3.139,1.64l-.89,2.357a2.768,2.768,0,0,0,1.272,3.305l1.654,1.095a13.153,13.153,0,0,0,.047,1.489l-1.581,1.2a2.768,2.768,0,0,0-1.06,3.379l1.037,2.3a2.768,2.768,0,0,0,3.236,1.438l1.944-.4a13.18,13.18,0,0,0,1.086,1.018l-.272,1.966a2.768,2.768,0,0,0,1.64,3.139l2.356.89a2.51,2.51,0,0,0,.888.164,2.945,2.945,0,0,0,2.417-1.436l1.094-1.654a13.019,13.019,0,0,0,1.489-.047l1.2,1.581a2.768,2.768,0,0,0,3.379,1.06l2.3-1.037A2.768,2.768,0,0,0,72.363,43.8l-.4-1.944a13.12,13.12,0,0,0,1.018-1.086l1.966.272a2.767,2.767,0,0,0,3.139-1.64l.89-2.357a2.768,2.768,0,0,0-1.272-3.305l-1.654-1.095a13.11,13.11,0,0,0-.047-1.489l1.581-1.2a2.768,2.768,0,0,0,1.06-3.379l-1.037-2.3a2.769,2.769,0,0,0-3.236-1.438l-1.943.4a13.127,13.127,0,0,0-1.086-1.018l.272-1.965a2.768,2.768,0,0,0-1.64-3.139l-2.356-.89A2.768,2.768,0,0,0,64.316,17.5l-1.1,1.655a13.128,13.128,0,0,0-1.488.046l-1.2-1.581a2.768,2.768,0,0,0-3.379-1.06l-2.3,1.037a2.769,2.769,0,0,0-1.438,3.236l.4,1.944A13.154,13.154,0,0,0,52.8,23.864l-1.966-.272ZM54.6,26.271a10.194,10.194,0,0,1,1.732-1.847,1.451,1.451,0,0,0,.5-1.407l-.562-2.761a.985.985,0,0,1-.015-.1l1.9-.86a1,1,0,0,1,.065.078l1.7,2.247a1.449,1.449,0,0,0,1.383.558,10.205,10.205,0,0,1,2.53-.079,1.453,1.453,0,0,0,1.345-.644L66.737,19.1c.021-.032.042-.059.06-.082l1.954.738c0,.029,0,.063-.009.1l-.386,2.793a1.451,1.451,0,0,0,.584,1.373,10.2,10.2,0,0,1,1.847,1.732,1.452,1.452,0,0,0,1.406.5l2.761-.562a.98.98,0,0,1,.1-.015l.86,1.9a.973.973,0,0,1-.078.065l-2.246,1.7a1.452,1.452,0,0,0-.558,1.383,10.2,10.2,0,0,1,.079,2.531,1.451,1.451,0,0,0,.644,1.346l2.351,1.556a.911.911,0,0,1,.082.06l-.738,1.954a.975.975,0,0,1-.1-.009l-2.793-.386a1.45,1.45,0,0,0-1.372.584,10.2,10.2,0,0,1-1.732,1.847,1.452,1.452,0,0,0-.5,1.406l.562,2.762c.008.038.012.071.015.1l-1.9.86a.968.968,0,0,1-.065-.078l-1.7-2.246a1.451,1.451,0,0,0-1.383-.558,10.189,10.189,0,0,1-2.531.079,1.45,1.45,0,0,0-1.345.644L59.05,45.53a.983.983,0,0,1-.061.082l-1.954-.738c0-.029,0-.063.009-.1l.386-2.793a1.452,1.452,0,0,0-.584-1.372A10.2,10.2,0,0,1,55,38.876a1.452,1.452,0,0,0-1.406-.5l-2.762.562a.978.978,0,0,1-.1.015l-.86-1.9a.975.975,0,0,1,.078-.065l2.246-1.7a1.452,1.452,0,0,0,.558-1.383,10.2,10.2,0,0,1-.079-2.531,1.451,1.451,0,0,0-.644-1.346l-2.35-1.556a.951.951,0,0,1-.082-.06l.738-1.954a.975.975,0,0,1,.1.009l2.793.386a1.451,1.451,0,0,0,1.372-.584Zm8.3,14.025A7.978,7.978,0,1,0,55.623,35.6,7.932,7.932,0,0,0,62.906,40.3Zm-2.1-12.6a5.076,5.076,0,1,1-2.536,6.715A5.082,5.082,0,0,1,60.8,27.692ZM15.84,13.083a2.56,2.56,0,0,0-2.9,1.531l-.754,2a2.56,2.56,0,0,0,1.163,3.064l1.3.861q-.008.522.033,1.042l-1.243.941a2.56,2.56,0,0,0-.967,3.132l.879,1.947a2.561,2.561,0,0,0,2.989,1.344l1.529-.311q.363.373.76.713l-.214,1.546a2.56,2.56,0,0,0,1.531,2.9l2,.754a2.359,2.359,0,0,0,.835.155,2.71,2.71,0,0,0,2.23-1.317l.861-1.3c.347.005.7-.006,1.042-.033l.941,1.243a2.561,2.561,0,0,0,3.132.967l1.946-.879a2.56,2.56,0,0,0,1.345-2.989l-.311-1.529q.373-.363.713-.76l1.546.214a2.56,2.56,0,0,0,2.9-1.531l.754-2a2.56,2.56,0,0,0-1.163-3.064l-1.3-.861q.008-.522-.033-1.042l1.243-.941a2.56,2.56,0,0,0,.967-3.132L38.711,13.8a2.56,2.56,0,0,0-2.989-1.345l-1.528.311q-.363-.373-.76-.713l.214-1.545a2.56,2.56,0,0,0-1.531-2.9l-2-.754a2.56,2.56,0,0,0-3.065,1.163l-.861,1.3c-.347-.005-.7.006-1.041.032l-.942-1.244a2.561,2.561,0,0,0-3.132-.967l-1.946.879a2.56,2.56,0,0,0-1.345,2.989l.311,1.529q-.373.363-.713.76l-1.546-.214Zm3.343,2.62a8.432,8.432,0,0,1,1.431-1.525,1.451,1.451,0,0,0,.5-1.406l-.458-2.252,1.3-.587,1.387,1.832a1.451,1.451,0,0,0,1.383.558,8.418,8.418,0,0,1,2.09-.065,1.454,1.454,0,0,0,1.345-.644L29.425,9.7l1.334.5-.315,2.277a1.451,1.451,0,0,0,.584,1.373,8.424,8.424,0,0,1,1.525,1.431,1.451,1.451,0,0,0,1.406.5l2.251-.458.587,1.3L34.967,18a1.451,1.451,0,0,0-.558,1.383,8.426,8.426,0,0,1,.066,2.091,1.452,1.452,0,0,0,.644,1.345l1.916,1.268-.5,1.334-2.277-.315a1.45,1.45,0,0,0-1.372.584,8.42,8.42,0,0,1-1.431,1.525,1.451,1.451,0,0,0-.5,1.407l.458,2.252-1.3.587-1.387-1.832a1.451,1.451,0,0,0-1.383-.558,8.421,8.421,0,0,1-2.091.066,1.452,1.452,0,0,0-1.346.644L22.64,31.7l-1.334-.5.315-2.277a1.452,1.452,0,0,0-.584-1.372,8.426,8.426,0,0,1-1.525-1.431,1.451,1.451,0,0,0-1.406-.5l-2.252.458-.587-1.3L17.1,23.394a1.451,1.451,0,0,0,.558-1.383,8.424,8.424,0,0,1-.066-2.091,1.452,1.452,0,0,0-.644-1.345l-1.916-1.268.5-1.334,2.277.315a1.45,1.45,0,0,0,1.372-.584Zm4.382,11.53a6.985,6.985,0,1,0-3.9-3.658,6.985,6.985,0,0,0,3.9,3.658Zm-1.351-7.976a4.082,4.082,0,1,1,.1,3.122A4.055,4.055,0,0,1,22.214,19.256Z" transform="translate(1154.43 1819.68)" fill="#0092e0"/>
  </g>
</svg>
