<svg xmlns="http://www.w3.org/2000/svg" xmlns:xlink="http://www.w3.org/1999/xlink" width="90" height="90" viewBox="0 0 90 90">
  <defs>
    <clipPath id="clip-path">
      <rect id="Rectangle_120" data-name="Rectangle 120" width="90" height="90" transform="translate(750 1821)" fill="#0092e0"/>
    </clipPath>
  </defs>
  <g id="Mask_Group_15" data-name="Mask Group 15" transform="translate(-750 -1821)" clip-path="url(#clip-path)">
    <path id="services_12249556" d="M77.353,24.019A18.193,18.193,0,0,0,47.415,11.555,16.183,16.183,0,0,0,18.133,24.037a17.822,17.822,0,0,0,2.491,35.469H28.83a2.653,2.653,0,0,0,.586,2.849l3.628,3.628a2.645,2.645,0,0,0,3.7.039v8.339l-2.734,2.131a5.488,5.488,0,1,0,1.212,1.9l3.329-2.594a1.119,1.119,0,0,0,.431-.883V63.787l.42-.42a.386.386,0,0,1,.469-.075,17.665,17.665,0,0,0,2.442,1.014.384.384,0,0,1,.278.385v3.7a2.647,2.647,0,0,0,2.644,2.644h1.447V80.46a5.484,5.484,0,1,0,2.241,0v-9.43h1.445a2.647,2.647,0,0,0,2.644-2.644v-3.7a.384.384,0,0,1,.278-.385,17.4,17.4,0,0,0,2.442-1.014.386.386,0,0,1,.469.075l.42.42V74.905a1.116,1.116,0,0,0,.431.883l3.329,2.594a5.493,5.493,0,1,0,1.212-1.9L58.86,74.356V66.017a2.645,2.645,0,0,0,3.7-.039l3.628-3.628a2.647,2.647,0,0,0,.586-2.848h8.207a17.821,17.821,0,0,0,2.375-35.484ZM30.093,83.569a3.243,3.243,0,1,1,3.243-3.243A3.247,3.247,0,0,1,30.093,83.569Zm20.953,2.254A3.243,3.243,0,1,1,47.8,82.58h0A3.247,3.247,0,0,1,51.045,85.823Zm14.466-8.741a3.243,3.243,0,1,1-3.243,3.243A3.247,3.247,0,0,1,65.511,77.082ZM64.6,60.768,60.973,64.4a.406.406,0,0,1-.571,0l-2.618-2.618a2.642,2.642,0,0,0-3.066-.489,15.314,15.314,0,0,1-2.129.883,2.639,2.639,0,0,0-1.819,2.513v3.7a.409.409,0,0,1-.4.4H45.236a.409.409,0,0,1-.4-.4v-3.7a2.643,2.643,0,0,0-1.819-2.513,15.126,15.126,0,0,1-2.129-.883,2.645,2.645,0,0,0-3.066.489L35.2,64.4a.406.406,0,0,1-.571,0L31,60.768a.406.406,0,0,1,0-.571l2.618-2.618a2.639,2.639,0,0,0,.489-3.066,15.22,15.22,0,0,1-.883-2.129,2.639,2.639,0,0,0-2.513-1.819h-3.7a.409.409,0,0,1-.4-.4V45.031a.409.409,0,0,1,.4-.4h3.7a2.643,2.643,0,0,0,2.513-1.819,15.219,15.219,0,0,1,.883-2.129,2.642,2.642,0,0,0-.489-3.066L31,35a.406.406,0,0,1,0-.571L34.63,30.8a.409.409,0,0,1,.571,0l2.618,2.618a2.639,2.639,0,0,0,3.066.489,15.243,15.243,0,0,1,2.131-.883,2.639,2.639,0,0,0,1.819-2.513v-3.7a.409.409,0,0,1,.4-.4h5.131a.409.409,0,0,1,.4.4v3.7a2.643,2.643,0,0,0,1.819,2.513,15.22,15.22,0,0,1,2.129.883,2.639,2.639,0,0,0,3.066-.489L60.4,30.8a.409.409,0,0,1,.571,0L64.6,34.425a.409.409,0,0,1,0,.571l-2.618,2.618A2.639,2.639,0,0,0,61.5,40.68a15.314,15.314,0,0,1,.883,2.129,2.639,2.639,0,0,0,2.513,1.819h3.7a.409.409,0,0,1,.4.4v5.131a.409.409,0,0,1-.4.4h-3.7a2.643,2.643,0,0,0-2.513,1.819,15.313,15.313,0,0,1-.883,2.129,2.639,2.639,0,0,0,.489,3.066L64.6,60.2a.411.411,0,0,1,0,.571Zm10.378-3.5H64.839L63.569,56a.386.386,0,0,1-.075-.469,17.391,17.391,0,0,0,1.012-2.442.384.384,0,0,1,.385-.278h3.7a2.647,2.647,0,0,0,2.644-2.644V45.031a2.647,2.647,0,0,0-2.644-2.644h-3.7a.384.384,0,0,1-.385-.278,17.4,17.4,0,0,0-1.014-2.442.386.386,0,0,1,.075-.469l2.618-2.618a2.648,2.648,0,0,0,0-3.74l-3.628-3.628a2.648,2.648,0,0,0-3.74,0L56.2,31.829a.386.386,0,0,1-.469.075,17.39,17.39,0,0,0-2.442-1.012.384.384,0,0,1-.278-.385v-3.7a2.647,2.647,0,0,0-2.644-2.644H45.234a2.647,2.647,0,0,0-2.644,2.644v3.7a.384.384,0,0,1-.278.385A17.617,17.617,0,0,0,39.87,31.9a.386.386,0,0,1-.469-.075l-2.616-2.618a2.648,2.648,0,0,0-3.74,0l-3.628,3.628a2.651,2.651,0,0,0,0,3.742L32.035,39.2a.383.383,0,0,1,.075.469A17.626,17.626,0,0,0,31.1,42.11a.384.384,0,0,1-.385.278h-3.7a2.647,2.647,0,0,0-2.644,2.644v5.131a2.647,2.647,0,0,0,2.644,2.644h3.7a.384.384,0,0,1,.385.278,17.4,17.4,0,0,0,1.014,2.442.386.386,0,0,1-.075.469l-1.27,1.27H20.624a15.581,15.581,0,0,1-1-31.131,1.121,1.121,0,0,0,1-1.456A13.94,13.94,0,0,1,46.177,13.846a1.127,1.127,0,0,0,.823.575,1.114,1.114,0,0,0,.952-.316,15.854,15.854,0,0,1,11.26-4.651,16.038,16.038,0,0,1,15.948,15.6,1.121,1.121,0,0,0,1.033,1.092A15.582,15.582,0,0,1,74.98,57.265ZM47.8,37.338A10.259,10.259,0,1,0,58.061,47.6,10.27,10.27,0,0,0,47.8,37.338Zm0,18.277A8.018,8.018,0,1,1,55.82,47.6,8.026,8.026,0,0,1,47.8,55.614Z" transform="translate(747.199 1818.194)" fill="#0092e0"/>
  </g>
</svg>
