<svg xmlns="http://www.w3.org/2000/svg" xmlns:xlink="http://www.w3.org/1999/xlink" width="90" height="90" viewBox="0 0 90 90">
  <defs>
    <clipPath id="clip-path">
      <rect id="Rectangle_115" data-name="Rectangle 115" width="90" height="90" transform="translate(330 1821)" fill="#0092e0" stroke="#707070" stroke-width="1"/>
    </clipPath>
  </defs>
  <g id="Mask_Group_14" data-name="Mask Group 14" transform="translate(-330 -1821)" clip-path="url(#clip-path)">
    <path id="conflict-management_17048639" d="M35.86,41.706H27.376A11.824,11.824,0,0,1,21.992,19.35v-.039A18.036,18.036,0,0,1,51.919,5.744,16.44,16.44,0,0,1,72.811,18.755a11.826,11.826,0,0,1-4.018,22.95H60.742l-5.658,7.642q.607.292,1.2.624l2.9-1.291a1.452,1.452,0,0,1,1.616.3L65.024,53.2a1.451,1.451,0,0,1,.3,1.614l-1.286,2.9a20.194,20.194,0,0,1,1.876,4.532l2.961,1.14a1.451,1.451,0,0,1,.93,1.355v5.975a1.452,1.452,0,0,1-.93,1.355l-2.962,1.14a20.408,20.408,0,0,1-1.876,4.524l1.287,2.906a1.452,1.452,0,0,1-.3,1.614L60.8,86.488a1.452,1.452,0,0,1-1.614.3l-2.9-1.286a20.172,20.172,0,0,1-4.527,1.875l-1.14,2.961a1.451,1.451,0,0,1-1.355.93H43.285a1.452,1.452,0,0,1-1.355-.93l-1.14-2.961A20.37,20.37,0,0,1,36.26,85.5l-2.906,1.287a1.452,1.452,0,0,1-1.614-.3l-4.224-4.224a1.452,1.452,0,0,1-.3-1.616l1.29-2.9a20.357,20.357,0,0,1-1.879-4.525L23.664,72.08a1.452,1.452,0,0,1-.93-1.355V64.75a1.451,1.451,0,0,1,.93-1.355l2.963-1.14a20.385,20.385,0,0,1,1.88-4.53l-1.291-2.9a1.452,1.452,0,0,1,.3-1.616L31.74,48.98a1.452,1.452,0,0,1,1.616-.3l2.9,1.291A20.235,20.235,0,0,1,40.786,48.1L41.5,46.24H35.663a1.452,1.452,0,0,1-1.235-2.214Zm27.032-2.9h5.9a8.924,8.924,0,0,0,2.326-17.54,1.452,1.452,0,0,1-1.063-1.245,13.533,13.533,0,0,0-18-11.262,1.451,1.451,0,0,1-1.5-.324A15.133,15.133,0,0,0,24.9,19.311c0,.291.007.582.023.87a1.452,1.452,0,0,1-.9,1.427A8.924,8.924,0,0,0,27.376,38.8H37.652L50.792,17.51a1.452,1.452,0,0,1,2.679.911l-1.7,16.511,11.059.077a1.452,1.452,0,0,1,1.156,2.315ZM53.32,51.731l-3.465,4.68a11.875,11.875,0,1,1-6.68-.143L46.208,46.24H44.613l-1.388,3.6a1.451,1.451,0,0,1-1.019.89,17.341,17.341,0,0,0-5.092,2.11,1.452,1.452,0,0,1-1.351.091l-2.675-1.19-2.814,2.814,1.189,2.675a1.452,1.452,0,0,1-.091,1.351,17.488,17.488,0,0,0-2.117,5.1,1.452,1.452,0,0,1-.89,1.016l-2.728,1.05v3.982l2.728,1.05a1.452,1.452,0,0,1,.89,1.015,17.452,17.452,0,0,0,2.116,5.094,1.451,1.451,0,0,1,.092,1.353l-1.189,2.675,2.815,2.815,2.676-1.185a1.452,1.452,0,0,1,1.346.089,17.473,17.473,0,0,0,5.1,2.112,1.452,1.452,0,0,1,1.02.891l1.05,2.728h3.982l1.05-2.728a1.452,1.452,0,0,1,1.019-.891,17.279,17.279,0,0,0,5.09-2.109,1.452,1.452,0,0,1,1.351-.093l2.676,1.185,2.816-2.816-1.185-2.676a1.452,1.452,0,0,1,.089-1.346,17.5,17.5,0,0,0,2.112-5.1,1.452,1.452,0,0,1,.891-1.019l2.728-1.05V65.746L64.174,64.7a1.452,1.452,0,0,1-.891-1.02,17.307,17.307,0,0,0-2.11-5.1,1.452,1.452,0,0,1-.091-1.349l1.185-2.676-2.815-2.815-2.675,1.19a1.452,1.452,0,0,1-1.351-.091,17.384,17.384,0,0,0-2.105-1.106Zm-5.329,7.2-4.523,6.109a1.452,1.452,0,0,1-2.556-1.284l1.2-3.972a8.978,8.978,0,1,0,5.878-.853Zm1.942-34.5L38.265,43.337h9.9a1.451,1.451,0,0,1,1.389,1.872L46.112,56.587,59.953,37.893l-9.8-.069a1.451,1.451,0,0,1-1.434-1.6Z" transform="translate(326.915 1819.729)" fill="#0092e0" fill-rule="evenodd"/>
  </g>
</svg>
