<svg xmlns="http://www.w3.org/2000/svg" xmlns:xlink="http://www.w3.org/1999/xlink" width="90" height="90" viewBox="0 0 90 90">
  <defs>
    <clipPath id="clip-path">
      <rect id="Rectangle_118" data-name="Rectangle 118" width="90" height="90" transform="translate(333 2337)" fill="#0092e0"/>
    </clipPath>
  </defs>
  <g id="Mask_Group_17" data-name="Mask Group 17" transform="translate(-333 -2337)" clip-path="url(#clip-path)">
    <g id="cloud-storage_949302" transform="translate(333 2337)">
      <g id="Group_52" data-name="Group 52">
        <path id="Path_104" data-name="Path 104" d="M72.515,20.388A14.5,14.5,0,0,0,52.088,8.554a18.864,18.864,0,0,0-34.624,9.12,15.967,15.967,0,0,0-2.948,30.584V74.032a7.266,7.266,0,0,0,7.258,7.258h8.71V87.1H24.677V90H65.323V87.1H59.516V81.29h8.71a7.266,7.266,0,0,0,7.258-7.258V48.687a14.517,14.517,0,0,0-2.969-28.3ZM56.613,87.1H33.387V81.29H56.613ZM72.581,74.032a4.36,4.36,0,0,1-4.355,4.355H21.774a4.36,4.36,0,0,1-4.355-4.355V72.581H72.581Zm2.9-28.425V45a7.266,7.266,0,0,0-7.258-7.258H63.871V23.226h-2.9V46.452h2.9l-5.806,7.741-5.806-7.741h2.9V23.226h-2.9V43.548H46.452L58.065,59.033,69.677,43.548H63.871v-2.9h4.355A4.36,4.36,0,0,1,72.581,45V69.677H17.419V45a4.36,4.36,0,0,1,4.355-4.355h4.355V55.161h2.9V31.935h-2.9l5.806-7.741,5.806,7.741h-2.9V55.161h2.9V34.839h5.806L31.935,19.354,20.323,34.839h5.806v2.9H21.774A7.266,7.266,0,0,0,14.516,45v.094a13.067,13.067,0,0,1,4.5-24.706l1.3-.2V18.871a15.967,15.967,0,0,1,29.953-7.705l.716,1.3,1.282-.742a11.6,11.6,0,0,1,17.4,10.054v1.452h1.452a11.614,11.614,0,0,1,4.355,22.381Z" fill="#0092e0"/>
      </g>
    </g>
  </g>
</svg>
