<svg xmlns="http://www.w3.org/2000/svg" xmlns:xlink="http://www.w3.org/1999/xlink" width="118" height="118" viewBox="0 0 118 118">
  <defs>
    <clipPath id="clip-path">
      <rect id="Rectangle_99" data-name="Rectangle 99" width="118" height="118" transform="translate(1384 3192)" fill="#0092e0"/>
    </clipPath>
  </defs>
  <g id="Mask_Group_9" data-name="Mask Group 9" transform="translate(-1384 -3192)" clip-path="url(#clip-path)">
    <g id="Layer_6" data-name="Layer 6" transform="translate(1384 3192)">
      <path id="Path_78" data-name="Path 78" d="M49.781,47.938a1.844,1.844,0,0,0,1.844-1.844V42.406a1.844,1.844,0,0,0-3.687,0v3.688A1.844,1.844,0,0,0,49.781,47.938Z" fill="#0092e0"/>
      <path id="Path_79" data-name="Path 79" d="M68.219,40.563a1.844,1.844,0,0,0-1.844,1.844v3.688a1.844,1.844,0,0,0,3.688,0V42.406A1.844,1.844,0,0,0,68.219,40.563Z" fill="#0092e0"/>
      <path id="Path_80" data-name="Path 80" d="M68.219,51.625H49.781a1.844,1.844,0,0,0-1.844,1.844,9.23,9.23,0,0,0,9.219,9.219h3.687a9.23,9.23,0,0,0,9.219-9.219A1.844,1.844,0,0,0,68.219,51.625ZM60.844,59H57.156a5.542,5.542,0,0,1-5.216-3.687H66.06A5.542,5.542,0,0,1,60.844,59Z" fill="#0092e0"/>
      <path id="Path_81" data-name="Path 81" d="M118,64.531V53.469a5.531,5.531,0,0,0-3.687-5.192V27.656a5.531,5.531,0,0,0-5.531-5.531H64.192a5.469,5.469,0,0,0,.339-1.844,5.531,5.531,0,0,0-11.062,0,5.469,5.469,0,0,0,.339,1.844H9.219a5.531,5.531,0,0,0-5.531,5.531v20.62A5.531,5.531,0,0,0,0,53.469V64.531a5.531,5.531,0,0,0,3.688,5.192V84.813H1.844A1.844,1.844,0,0,0,0,86.656v7.375a9.23,9.23,0,0,0,9.219,9.219h99.562A9.23,9.23,0,0,0,118,94.031V86.656a1.844,1.844,0,0,0-1.844-1.844h-1.844V69.723A5.531,5.531,0,0,0,118,64.531Zm-3.687,0a1.844,1.844,0,0,1-1.844,1.844H91.107l3.147-3.147a5.5,5.5,0,0,0,1.621-3.912V53.469a1.844,1.844,0,0,1,1.844-1.844h14.75a1.844,1.844,0,0,1,1.844,1.844ZM82.969,55.313V44.25a1.844,1.844,0,0,1,1.844,1.844v7.375A1.844,1.844,0,0,1,82.969,55.313ZM79.281,42.406V64.531a1.844,1.844,0,0,1-1.844,1.844H40.563a1.844,1.844,0,0,1-1.844-1.844V38.719a1.844,1.844,0,0,1,1.844-1.844H77.438a1.844,1.844,0,0,1,1.844,1.844Zm1.844,42.406H36.875V77.438h44.25ZM47.938,88.5H70.063v1.844a1.844,1.844,0,0,1-1.844,1.844H49.781a1.844,1.844,0,0,1-1.844-1.844ZM66.375,73.75H51.625V70.063h14.75ZM35.031,55.313a1.844,1.844,0,0,1-1.844-1.844V46.094a1.844,1.844,0,0,1,1.844-1.844ZM57.4,33.188l.922-7.443a3.319,3.319,0,0,0,1.339,0l.922,7.443ZM59,18.438a1.844,1.844,0,1,1-1.844,1.844A1.844,1.844,0,0,1,59,18.438ZM3.688,53.469a1.844,1.844,0,0,1,1.844-1.844h14.75a1.844,1.844,0,0,1,1.844,1.844v5.847a5.491,5.491,0,0,0,1.621,3.912l3.147,3.147H5.531a1.844,1.844,0,0,1-1.844-1.844ZM7.375,70.063H31.344a1.844,1.844,0,0,0,1.3-3.147l-6.295-6.295a1.844,1.844,0,0,1-.54-1.305V53.469a5.531,5.531,0,0,0-5.531-5.531H7.375V27.656a1.844,1.844,0,0,1,1.844-1.844H54.606l-.922,7.375H40.563a5.531,5.531,0,0,0-5.531,5.531v1.844A5.531,5.531,0,0,0,29.5,46.094v7.375A5.531,5.531,0,0,0,35.031,59v5.531a5.531,5.531,0,0,0,5.531,5.531h7.375V73.75H35.031a1.844,1.844,0,0,0-1.844,1.844v9.219H7.375ZM114.313,94.031a5.531,5.531,0,0,1-5.531,5.531H9.219a5.531,5.531,0,0,1-5.531-5.531V88.5H44.25v1.844a5.531,5.531,0,0,0,5.531,5.531H68.219a5.531,5.531,0,0,0,5.531-5.531V88.5h40.563Zm-29.5-9.219V75.594a1.844,1.844,0,0,0-1.844-1.844H70.063V70.063h7.375a5.531,5.531,0,0,0,5.531-5.531V59A5.531,5.531,0,0,0,88.5,53.469V46.094a5.531,5.531,0,0,0-5.531-5.531V38.719a5.531,5.531,0,0,0-5.531-5.531H64.316l-.922-7.375h45.388a1.844,1.844,0,0,1,1.844,1.844V47.938H97.719a5.531,5.531,0,0,0-5.531,5.531v5.847a1.844,1.844,0,0,1-.54,1.305l-6.295,6.295a1.844,1.844,0,0,0,1.3,3.147h23.969v14.75Z" fill="#0092e0"/>
      <circle id="Ellipse_32" data-name="Ellipse 32" cx="1.844" cy="1.844" r="1.844" transform="translate(97.719 57.156)" fill="#0092e0"/>
      <circle id="Ellipse_33" data-name="Ellipse 33" cx="1.844" cy="1.844" r="1.844" transform="translate(103.25 57.156)" fill="#0092e0"/>
      <circle id="Ellipse_34" data-name="Ellipse 34" cx="1.844" cy="1.844" r="1.844" transform="translate(108.781 57.156)" fill="#0092e0"/>
      <circle id="Ellipse_35" data-name="Ellipse 35" cx="1.844" cy="1.844" r="1.844" transform="translate(5.531 57.156)" fill="#0092e0"/>
      <circle id="Ellipse_36" data-name="Ellipse 36" cx="1.844" cy="1.844" r="1.844" transform="translate(11.063 57.156)" fill="#0092e0"/>
      <circle id="Ellipse_37" data-name="Ellipse 37" cx="1.844" cy="1.844" r="1.844" transform="translate(16.594 57.156)" fill="#0092e0"/>
    </g>
  </g>
</svg>
