<svg xmlns="http://www.w3.org/2000/svg" xmlns:xlink="http://www.w3.org/1999/xlink" width="100" height="100" viewBox="0 0 100 100">
  <defs>
    <clipPath id="clip-path">
      <rect id="Rectangle_129" data-name="Rectangle 129" width="100" height="100" transform="translate(694 1753)" fill="#0092e0"/>
    </clipPath>
  </defs>
  <g id="Mask_Group_20" data-name="Mask Group 20" transform="translate(-694 -1753)" clip-path="url(#clip-path)">
    <g id="rating_14698766" transform="translate(690.667 1749.666)">
      <path id="Path_113" data-name="Path 113" d="M53.333,48.877A11.754,11.754,0,1,0,65.088,60.63,11.767,11.767,0,0,0,53.333,48.877Zm0,20.173a8.421,8.421,0,1,1,8.422-8.422A8.432,8.432,0,0,1,53.333,69.05Z" fill="#0092e0"/>
      <path id="Path_114" data-name="Path 114" d="M83.838,54.843A10.413,10.413,0,1,0,94.252,65.255,10.425,10.425,0,0,0,83.838,54.843Zm0,17.492a7.079,7.079,0,1,1,7.08-7.08A7.087,7.087,0,0,1,83.838,72.335Z" fill="#0092e0"/>
      <path id="Path_115" data-name="Path 115" d="M89.482,77.37h-11.3a13.594,13.594,0,0,0-6.817,1.853A15.619,15.619,0,0,0,59.85,74.187H46.817A15.618,15.618,0,0,0,35.3,79.223a13.6,13.6,0,0,0-6.817-1.853h-11.3A13.867,13.867,0,0,0,3.333,91.22V99.8A1.665,1.665,0,0,0,5,101.47h96.667a1.665,1.665,0,0,0,1.667-1.667V91.22A13.867,13.867,0,0,0,89.482,77.37Zm-56.29,4.705a15.348,15.348,0,0,0-.837,1.652c-.017.04-.03.082-.047.122a15.515,15.515,0,0,0-.582,1.673c-.032.112-.068.222-.1.333a15.582,15.582,0,0,0-.36,1.78c-.017.122-.03.243-.043.365a16.032,16.032,0,0,0-.125,1.9v8.233H6.667V91.22A10.53,10.53,0,0,1,17.185,80.7h11.3a10.308,10.308,0,0,1,4.808,1.178c-.037.062-.062.13-.1.193Zm39.04,16.062h-37.8V89.9a12.656,12.656,0,0,1,.205-2.2A12.333,12.333,0,0,1,46.817,77.52H59.85A12.368,12.368,0,0,1,72.233,89.9v8.233Zm27.767,0H75.565V89.9A16.031,16.031,0,0,0,75.44,88c-.015-.122-.027-.245-.045-.367a15.553,15.553,0,0,0-.36-1.778c-.03-.113-.067-.225-.1-.338a15.33,15.33,0,0,0-.578-1.663c-.018-.043-.032-.087-.05-.13a15.9,15.9,0,0,0-.835-1.647c-.037-.063-.062-.133-.1-.2A10.308,10.308,0,0,1,78.182,80.7h11.3A10.53,10.53,0,0,1,100,91.218v6.917Z" fill="#0092e0"/>
      <path id="Path_116" data-name="Path 116" d="M22.828,54.843A10.413,10.413,0,1,0,33.242,65.255,10.425,10.425,0,0,0,22.828,54.843Zm0,17.492a7.079,7.079,0,1,1,7.08-7.08A7.087,7.087,0,0,1,22.828,72.335Z" fill="#0092e0"/>
      <path id="Path_117" data-name="Path 117" d="M66.78,14.608l-6.658-.967a.505.505,0,0,1-.377-.273L56.768,7.335a3.832,3.832,0,0,0-6.873,0l-2.98,6.037a.5.5,0,0,1-.373.27l-6.66.967a3.831,3.831,0,0,0-2.123,6.533l4.82,4.7a.5.5,0,0,1,.145.442l-1.138,6.632a3.831,3.831,0,0,0,5.56,4.04l5.952-3.13a.509.509,0,0,1,.465,0l5.957,3.132a3.828,3.828,0,0,0,5.558-4.037l-1.138-6.632a.5.5,0,0,1,.145-.442l4.82-4.7a3.831,3.831,0,0,0-2.125-6.533Zm-.2,4.148L61.762,23.45a3.82,3.82,0,0,0-1.1,3.393L61.8,33.477a.5.5,0,0,1-.722.523l-5.958-3.133a3.834,3.834,0,0,0-3.563,0L45.6,34a.479.479,0,0,1-.527-.038.473.473,0,0,1-.2-.487l1.138-6.632a3.828,3.828,0,0,0-1.1-3.39l-4.82-4.7a.5.5,0,0,1,.277-.852l6.658-.967a3.817,3.817,0,0,0,2.883-2.1l2.978-6.033a.463.463,0,0,1,.9,0l2.977,6.033a3.831,3.831,0,0,0,2.885,2.1l6.657.967a.5.5,0,0,1,.278.852Z" fill="#0092e0"/>
      <path id="Path_118" data-name="Path 118" d="M97.557,23.973a3.415,3.415,0,0,0-2.777-2.342l-5.532-.85-2.438-4.94a3.438,3.438,0,0,0-6.167,0l-2.518,5-5.453.792A3.439,3.439,0,0,0,70.767,27.5l3.977,3.938-.933,5.432A3.434,3.434,0,0,0,78.8,40.492l4.977-2.563,4.875,2.563a3.439,3.439,0,0,0,4.99-3.625l-.9-5.523L96.682,27.5a3.416,3.416,0,0,0,.872-3.525Zm-3.2,1.138-3.942,3.843A3.445,3.445,0,0,0,89.425,32l.933,5.43L92,37.148l-1.8.393-4.877-2.565a3.457,3.457,0,0,0-3.2,0L77.25,37.54l-.155-.112L78.03,32a3.442,3.442,0,0,0-.992-3.042L73.1,25.11s.057-.18.057-.182l5.455-.792a3.447,3.447,0,0,0,2.587-1.882l2.533-5a.091.091,0,0,1,.1.058l2.438,4.943a3.451,3.451,0,0,0,2.59,1.878l5.452.792.24-1.648-.182,1.832Z" fill="#0092e0"/>
      <path id="Path_119" data-name="Path 119" d="M33.993,21.632l-5.532-.85-2.438-4.94a3.438,3.438,0,0,0-6.167,0l-2.518,5-5.453.792A3.439,3.439,0,0,0,9.98,27.5l3.977,3.938-.933,5.432a3.434,3.434,0,0,0,4.988,3.625l4.977-2.563,4.875,2.563a3.439,3.439,0,0,0,4.99-3.625l-.9-5.523L35.895,27.5a3.439,3.439,0,0,0-1.9-5.867Zm-.422,3.48L29.63,28.955A3.445,3.445,0,0,0,28.638,32l.933,5.43,1.642-.282-1.8.393-4.875-2.563a3.451,3.451,0,0,0-3.2,0l-4.877,2.563-.155-.112L17.243,32a3.442,3.442,0,0,0-.992-3.042l-3.943-3.845s.057-.18.057-.182l5.455-.792a3.447,3.447,0,0,0,2.587-1.882l2.533-5a.091.091,0,0,1,.1.058l2.438,4.943a3.451,3.451,0,0,0,2.59,1.878l5.452.792.24-1.648-.182,1.832Z" fill="#0092e0"/>
    </g>
  </g>
</svg>
