<svg xmlns="http://www.w3.org/2000/svg" xmlns:xlink="http://www.w3.org/1999/xlink" width="100" height="100" viewBox="0 0 100 100">
  <defs>
    <clipPath id="clip-path">
      <rect id="Rectangle_132" data-name="Rectangle 132" width="100" height="100" transform="translate(694 2059)" fill="#0092e0"/>
    </clipPath>
  </defs>
  <g id="Mask_Group_23" data-name="Mask Group 23" transform="translate(-694 -2059)" clip-path="url(#clip-path)">
    <g id="cloud-computing_445438" transform="translate(694 2059)">
      <g id="Group_61" data-name="Group 61">
        <g id="Group_60" data-name="Group 60">
          <path id="Path_127" data-name="Path 127" d="M50,95.833A20.833,20.833,0,1,1,70.834,75H75a24.983,24.983,0,1,0-2.407,10.716L68.83,83.928A20.945,20.945,0,0,1,50,95.833Z" fill="#0092e0"/>
        </g>
      </g>
      <g id="Group_63" data-name="Group 63">
        <g id="Group_62" data-name="Group 62">
          <path id="Path_128" data-name="Path 128" d="M72.316,82.35,60.672,84.832l.869,4.075,7.569-1.613,1.613,7.568,4.075-.869Z" fill="#0092e0"/>
        </g>
      </g>
      <g id="Group_65" data-name="Group 65">
        <g id="Group_64" data-name="Group 64">
          <path id="Path_129" data-name="Path 129" d="M52.083,72.917V58.333H47.917v18.75H61.458V72.917Z" fill="#0092e0"/>
        </g>
      </g>
      <g id="Group_67" data-name="Group 67">
        <g id="Group_66" data-name="Group 66">
          <path id="Path_130" data-name="Path 130" d="M89.484,31.746a16.583,16.583,0,0,0-.823-8.8A18.325,18.325,0,0,0,73.287,11.182a18.671,18.671,0,0,0-13.342,3.9A24.37,24.37,0,0,0,37.312,0h-.191C24.629.1,13.858,10.012,13.112,22.1a22.653,22.653,0,0,0,1.034,8.353A18.082,18.082,0,0,0,0,47.993c0,9.213,5.733,19.343,21.824,20.143l.208-4.16C5.907,63.174,4.167,52.531,4.167,47.993A14.043,14.043,0,0,1,17.2,34.169l2.91-.27-1.2-2.663a18.574,18.574,0,0,1-1.634-8.877C17.886,12.409,26.8,4.247,37.153,4.168h.16A20.008,20.008,0,0,1,56.928,19.381l.922,4.074,2.7-3.187A14.379,14.379,0,0,1,72.9,15.33,14.132,14.132,0,0,1,84.757,24.4a12.6,12.6,0,0,1,.3,8.023l-.538,1.884,1.847.653a13.974,13.974,0,0,1,9.469,13.029c0,7.582-5.99,16.029-14.583,16.029H78.326v4.167H81.25c11.216,0,18.75-10.442,18.75-20.2A18.08,18.08,0,0,0,89.484,31.746Z" fill="#0092e0"/>
        </g>
      </g>
    </g>
  </g>
</svg>
