<?xml version="1.0" encoding="UTF-8"?>
<svg id="Layer_2" data-name="Layer 2" xmlns="http://www.w3.org/2000/svg" viewBox="0 0 1456.1 1455.29">
  <defs>
    <style>
      .cls-1 {
        fill: #fff;
      }
    </style>
  </defs>
  <g id="Layer_1-2" data-name="Layer 1">
    <g>
      <path class="cls-1" d="M1310.21,0c42.42,9.51,71.83,40.28,76.69,83.89l-.11,1230.74c-.31,11.46,15.72,12.1,24.86,17.77,17.29,10.74,30.07,25.83,37.19,45.24,6.83,18.64,15.86,71.16-9.91,76.91l-1005.63.74c-41.01-2.09-23.87-71.73-9.31-94.84,13.74-21.82,31.3-28.93,53.12-40.67l.4-114.74c-39.65,5.92-83.99-13.56-88.24-56.71-41.22-1.96-84.56,3.9-125.08-4.24-87.89-17.65-156.33-98.45-161.97-187.61l-.25-431.75-2.4-3.28C7.9,503.44,22,415.06,22.92,342.79c-10.4-3.6-16.74-6.28-22.92-15.94v-17.05c3.01-3.47,11.55-14.21,15.63-14.21h52.58v-120.79c0-19.82,45.47-19.81,45.47,0v120.79h90.95v-120.79c0-19.82,45.47-19.81,45.47,0v120.79h52.58c2.23,0,10.84,7.43,12.46,10.25,10.22,17.79-1.94,33.12-19.75,36.95.91,71.71,14.5,161.13-76.63,178.67l-2.8,5.73-.1,417.95c6.81,98.57,97.94,92.48,173.38,89.27,4.24-43.15,48.59-62.62,88.24-56.71l.02-896.66c5.77-41.99,34.31-69.49,73.86-81.03h758.84ZM1341.47,1318.74V81c0-11.29-21.46-33.32-33.95-34.26l-743.38-1.27c-15.32-1.46-41.2,21.83-41.2,35.53v1237.74h818.53ZM250.11,341.05H68.21v100.89c0,12.92,21.38,31.62,33.95,34.26,17.14,3.61,96.96,3.59,114,0,12.65-2.66,33.95-21.41,33.95-34.26v-100.89ZM170.53,522.95h-22.74v439.11c0,61.09,79.59,140.68,140.68,140.68h98.05v-22.74h-98.05c-48.51,0-117.95-69.58-117.95-117.95v-439.11ZM477.47,1023.16c-14.97.17-38.51-4.13-44.2,14.06-3.64,11.61-2.82,82.84-1.41,98.34,2.61,28.64,22.47,24.23,45.61,24.02v-136.42ZM1409.68,1409.68c.48-23.56-17.9-43.23-41.2-45.48l-881.96,1.95c-18.21,4.73-32.68,24.59-31.79,43.53h954.95Z"/>
      <path class="cls-1" d="M607.4,114.29l653.78,1.53c7.32,3.8,11.93,10.79,12.15,19.11-7.14,102.55,9.28,217.45.07,318.51-.91,10.04-2.54,16.83-12.22,21.88h-657.93c-7.32-3.8-11.93-10.79-12.15-19.11,7.07-102.63-9.18-217.34-.07-318.51,1.08-11.98,4.07-19.57,16.37-23.42ZM1227.79,159.16h-591.16v272.84h591.16V159.16Z"/>
      <path class="cls-1" d="M989.05,909.47h109.42c11.69,0,22.15,27.56,11.24,36.82l-259.77,280.23c-17.07,5.49-31.96-5-31.66-22.87l28.66-180.5h-81c-5.49,0-17.43-14.5-15.81-21.36l92.52-260.04c4.37-11.19,11.74-13.33,22.63-14.32,36.88-3.34,123.37-4.15,159.36.07,17.14,2.01,24.65,15.01,20.01,31.49l-55.6,150.47ZM989.05,773.05h-110.84l-71.05,204.63h72.47c10.22,0,16.05,17.94,15.86,27.01-.84,39.54-18.04,85.99-18.71,126.45l160.59-176.2h-86.68c-8.84,0-19.66-20.65-15.51-29.62l53.88-152.28Z"/>
      <path class="cls-1" d="M1011.05,523.64c92.64-14.7,109.27,124.45,21.83,135.47-89.81,11.32-105.87-122.14-21.83-135.47ZM1016.7,568.98c-26.16,5.71-20.39,51.62,12.92,44.35,26.16-5.71,20.39-51.62-12.92-44.35Z"/>
      <path class="cls-1" d="M1192.94,523.64c93.2-14.78,108.77,124.56,21.83,135.47-89.87,11.28-105.82-122.15-21.83-135.47ZM1198.59,568.98c-26.16,5.71-20.39,51.62,12.92,44.35,26.16-5.71,20.39-51.62-12.92-44.35Z"/>
    </g>
  </g>
</svg>