<?xml version="1.0" encoding="UTF-8"?>
<svg id="Layer_2" data-name="Layer 2" xmlns="http://www.w3.org/2000/svg" viewBox="0 0 717.71 1045.5">
  <g id="Layer_1-2" data-name="Layer 1">
    <g>
      <path d="M709.54,732.78c-11.43-37.44-37.78-68.87-70.94-88.87-23.26-90.37-51.8-175.67-159.94-183.35-82.72-5.87-174.74,2.39-257.93,2.46-95.7,16.37-118.55,99.77-140.69,180.9C-.83,689.33-4.33,780.88,2.16,864.07c2.71,34.79,24.74,69.84,56.96,84.09,1.02,31.86-6.16,68.37,26.19,87.27,21,12.27,91.83,12.94,114.19,4.14,14.6-5.74,31.14-23.88,33.56-39.44,1.86-11.97-1.36-27.96,0-40.44h252.53v40.44c0,13.62,22.01,35.41,34.97,40,22.03,7.8,92.56,7.78,112.49-4.99,33.05-21.18,25.39-52.95,26.48-86.98,24.12-11,43.91-34.12,51.87-59.59,9.56-30.59,7.68-124.55-1.86-155.8ZM151.16,527.59c20.22-23.69,53.55-41.16,84.78-43.46,80.15,4.11,165.26-5.2,244.81-.02,26.35,1.72,52.69,12.88,72.85,29.75,38.82,32.49,44.17,81.05,60.23,126.21H104.82c13.99-37.93,19.36-80.86,46.34-112.48ZM96.03,661.87l529.55.98c42.95,25.01,67.82,69.46,69.09,119.23-34.39,4.96-68.94,10.4-103.55,13.84-143.11,14.23-300.49,14.79-443.88,1.98-41.25-3.69-82.9-8.96-123.45-16.92,2.31-49.92,27.28-96.02,72.24-119.11ZM694.62,835.3l-112.35,13.89,21.26-31.5,89.34-11.06,1.74,28.67ZM539.9,859.12c-13.72,11.67-20.8,16.45-39.43,17.78-84.23,6.02-172.31,4.18-256.48-.16-31.96-1.65-38.86,4.83-65.24-17.62-12.4-10.55-25.18-25.17-34.49-38.5l101.54,6.97,163.93,1.99,164.64-9.94c2.86,2.26-31.03,36.55-34.47,39.49ZM23.93,805.8l91.19,11.88,21.26,31.5-112.46-13.79v-29.59ZM211.36,992.24c0,13.25-17.83,27.25-30.57,28.61-14.97,1.61-58.29,1.91-72.53-.48-8.14-1.37-25.14-14.49-25.14-22.21v-37.49c0-.93-5.22-3.32,1.02-3.02l127.22,2.03v32.55ZM635.53,960.67v37.49c0,7.78-17.38,20.78-25.13,22.22-13.17,2.43-58.35,2-72.53.48-7.09-.76-17.3-5.29-21.99-10.55-1.99-2.24-8.58-16.18-8.58-18.06v-32.55l127.24-2.01c6.19-.47,1,2.16,1,3ZM614.57,937.73l-506.88.35c-46.3-3.02-78.4-32.85-83.75-78.99l138.63,16.22c28.38,30.58,65.08,23.77,103.03,25.21,62.59,2.37,124.73,2.29,187.37-.1,38.03-1.45,74.71,5.57,103.16-25.08l138.6-16.25c-4.99,44.25-35.54,74.56-80.16,78.64Z"/>
      <path d="M135.33,417.2l420.27-.1c104.58-12.25,171.52-116.86,136.65-217.47-27.24-78.59-109.92-122.22-190.97-105.07-10.09-16.85-21.87-34.09-36.23-47.46C360.27-50.41,190.63,12.6,171.63,152.5c-45.86-3.48-88.75,7.98-120.02,42.74-73.18,81.32-23.43,209.19,83.73,221.97ZM145.17,174.39c16.38-.61,31.24,6.95,45.99,1.58,5.41-37.26,13.3-69.73,38.01-99.11,60.46-71.88,172.27-71.82,232.69,0,5.97,7.1,24.5,39.88,27.71,41.35,6.59,3.01,33.85-4.64,44.25-4.99,36.44-1.24,77.02,14.74,102.99,40.24,89.36,87.72,29.02,234.14-94.91,242.06-129.5,8.28-267.94-6.16-398.36-.34-141.49-11.92-132.36-215.77,1.63-220.79Z"/>
      <path d="M284.78,254.79c58.13-16.29,114.38-15.33,170.57,7.95,2.12.07,8.66-2.56,9.99-3.95,8.29-8.68-1.59-16.5-9.38-20.17-47.31-22.24-118.52-22.11-168.08-8.36-9.63,2.67-49.75,12.62-34.56,28.53,8.51,8.91,22.25-1.41,31.47-4Z"/>
      <path d="M405.1,281.59c-26.46-6.01-56.67-6.35-83.36-1.67-11.97,2.09-48.13,8.16-33.45,25.75,8.14,9.75,21.63-.18,33.15-2.38,21.55-4.12,44.26-5.43,65.99-2.06,9.61,1.49,35.68,12.32,42.39,6.85,1.21-.98,4.3-8.5,4.32-10.31.12-10.48-20.7-14.29-29.04-16.18Z"/>
      <path d="M341.13,332.85c-8.48,1.01-24.74,3.96-22.92,15.77,2.62,17.04,30.51,5.1,42.09,5.21,11.28.1,37.52,11.83,40.14-5.21,3.05-19.88-47.77-17.15-59.31-15.77Z"/>
    </g>
  </g>
</svg>