<?xml version="1.0" encoding="UTF-8"?>
<svg id="Layer_2" data-name="Layer 2" xmlns="http://www.w3.org/2000/svg" viewBox="0 0 2083.17 2563.71">
  <defs>
    <style>
      .cls-1 {
        fill: #fff;
      }
    </style>
  </defs>
  <g id="Layer_1-2" data-name="Layer 1">
    <g>
      <path class="cls-1" d="M396.31,863.75c-78.66-22.3-201.3-108.52-275.22-122.29-38.69-7.21-132.21,20.57-119.99-44.31,6.6-35.07,93.32-15.13,123.49-22.88,78.75-20.22,185.45-95.97,268.18-120.2l217.55-.82c18.95-46.07,69.85-52.9,112.66-36.75-17-122.19,101.22-203.41,202.51-123.95,53.27-49.59,126.15-48.43,179.06.77,66.65-57.69,168.36-35.96,194.61,49.74,77.29-27.98,150.56-4.61,175.69,77.81,3.15,10.32-1.24,27.97,9.56,31.57l378.73.51c35.19,6.3,68.23,36.35,74.19,72.02,5.04,30.14,4.93,132.15.68,163-3.5,25.43-23.2,52.12-45.73,63.93-3.88,2.04-27.68,11.86-29.26,11.86h-340.4v217.04c0,19.68-59.4,18.91-59.4-4.57v-212.47h-420.37c25.81,26.05,110.64,111.91,104.39,147.39-2.42,13.72-19.19,27.04-33.22,26.17-21.56-1.32-48.83-59.08-64.26-77.67-37.46-45.14-96.07-85.52-151.94-103.93-21.27-7.01-69.87-12.17-83.35-21.73-25.25-17.92-.34-71.18-.54-99.96-.54-76.43-59.43-163.06-141.2-162.72-2.52,66.42,8.03,132.47,4.77,198.97-3.08,62.78-17.79,106.48-8.07,172.18,15.23,102.94,68.24,215.18,135.94,293.56,9.28,10.75,53.44,56.95,62.77,60.69,20,8,43.23.66,62.79.71,37.51.09,76.84,3.86,114.2,4.06,73.76.39,174.64-11.15,246.15-3.06,7.88.89,23.49,3.39,30.03,6.53,25.51,12.26,13.82,56.86-6.59,56.86h-564.29v143.93c0,18.06-58.86,44.83-64.14-18.1-3.02-36.02-4.32-120.8.61-155.09,6.14-42.65,53.22-36.88,86.35-30.16,6.15-6.48-34.73-50.26-42.11-60.65-49.64-69.92-126.93-222-126.93-307.15v-70.82h-207.9ZM975.7,693.28c29.11,25.72,87.99,11.34,94.3-28.55,9.62-60.79-5.82-145.56-.7-208.96-17.87-51.6-99.8-52.26-108.4,3.9-5.52,36.04-4.95,163.53-.42,200.87,1.15,9.52,8.51,26.81,15.22,32.74ZM881.33,633.7c7.41-7.13,14.15-21.98,15.43-32.56,2.79-23.06,3.47-120.58-1.09-140.81-10.79-47.86-96.92-47.98-107.74,0-2.6,11.51-3.07,74.68-.03,84.92,4.48,15.09,69.85,66.87,67.8,99,5.15,3.69,21.03-6.14,25.62-10.55ZM1169.46,426.08c-14.51,3.33-32.62,23.35-34.96,38.13-5.72,36.17-4.85,167.53-.36,205.46,6.78,57.37,98.01,57.54,108.68-1.19,6-33.01,5.41-160.35,1.19-195.5-4.66-38.82-38.23-55.22-74.54-46.9ZM1347.77,494.66c-52.53,10.65-48.63,92.08-44.41,133.71,7.36,72.7,95.73,78.96,111.04,19.78,6.06-23.41,6.88-106.98-4.1-126.72-12.03-21.61-38.87-31.57-62.52-26.77ZM608.78,612.45h-173.63v187.34c58.72,11.04,119.06,1.44,178.22.02l-4.59-187.36ZM1691.68,797.5v-178.2l-6.85-6.85h-207.9c14.26,109.57-99.36,174.99-189.73,114.29-22.3,12.38-29.72,31.4-55.78,40.01-51.51,17.03-94.9,1.85-135.37-30.59-58.31,55.39-156.01,37.21-188.03-36.98-5.52-9.58-31.12,5.33-33.5,12.23l-5.24,74.58,66.03,16.08c248.93-7.62,498.21,1.2,747.03.4,5.34-.02,5.91-.31,9.33-4.97ZM1853.88,612.45c-27.5-5.81-73.05,4.29-102.81,0v185.05l6.69,5.15c36.68.98,78.96,8.71,112.45-10.53,12.72-18.43,13.56-147.42,1.71-165.72-2.72-4.2-13.91-13.08-18.03-13.95ZM375.75,630.72l-173.62,73.16,173.62,82.19v-155.35Z"/>
      <path class="cls-1" d="M1251.89,1586.85c25.48,23.13-8.87,111.4,3.53,140.4,1.21,2.82,38.85,44.02,41.76,45.02,43.64,14.93,112.66-36.01,144.01,25.05,9.83,19.15,40.11,96.81,43.79,116.12,1.36,7.1,2.41,14.42,1.04,21.62-4.55,24.06-82.66,66.85-95.96,91.51,2.36,17.46-4.55,46.33,2.41,61.64,10.89,23.99,84.17,63.92,88.24,90.17,4.09,26.41-53.37,116.08-60.93,147.49-24.21,31.67-111.35-6.84-143.82,6.98-3.6,1.53-39.11,38.09-40.26,41.96-7.74,26.05,7.57,115.22-3.39,129-4.99,6.27-29.69,16.76-38.73,20.79-19.98,8.89-104.66,41.61-120.78,38.97-26.27-4.31-72.24-91.35-96.29-95.92-9.88-1.88-48.44-1.58-56.93,2.27-25.7,11.67-67.83,88.78-98.29,88.72-7.77-.02-125.73-52.27-136.32-59.88-36.68-26.36-3.1-99.75-9.81-140.71l-41.97-45.11c-26.67-6.35-114.51,7.73-132.11-4.96-9.78-7.06-56.5-130.66-58.32-147.37-1.05-9.63-.26-16.58,5.98-24.45l82.72-68.07,6.71-70.96c-17.2-23.58-86.58-66.57-89.28-94.3-1.24-12.7,8.19-29.33,12.91-41.49,6.84-17.64,41.66-98.76,50.86-107.8,21.16-20.79,106.14,4.17,137.13-.95l44.89-46.72c3.69-43.72-16.36-92.12,6.67-132.7l143.93-55.15c34.58-3.17,79.08,90.39,104.05,95,16.88,3.12,42.66-.7,61.52,2.67,13.29-15.91,74.59-87.45,89.39-89.51,30.46-4.24,116.74,53.46,151.69,60.69ZM1258.91,1826.49c-7.87-6.36-22.45-30.4-30.95-39.81-22.56-24.97-40.59-20.1-39.18-61.72.55-16.22,12.64-86.18,7.39-93.79-24.33-7.39-52.08-28.88-75.7-34.48-6.5-1.54-6.12-1.28-11.45,2.31-23.7,15.92-56.12,78.27-87.3,81.29-44.13-12.02-87.79,13.34-122.88-21.39-9.47-9.37-54.5-71.4-59.11-72.12l-84.11,31.53-4.93,125.28-82.37,73.3-114.44-5.09-34.51,75.32c-1.91,13.15,83.28,74.76,84.7,98.61l-6.78,102.5-87.71,79.99,31.32,83.95c31.37,5.11,62-6.06,93.21-4.07,43.47,2.77,43.1,22.54,68.25,50.51,10.37,11.54,26.71,16.97,33.13,30.81,12.9,27.83-11.31,109.71-2.56,123.7l76.73,35.39c14.83,2.36,71.91-84.93,98.29-85.3,25.08,10.4,86.11-2.56,103.98,5.85,20.99,9.87,56.09,67.94,75.17,86.23,4.71,1,75.87-24.38,81.03-28.12,22.91-16.59-13.58-97.81,11.69-129.96,24.88-10.42,55.77-61.84,77.54-68.64,23.66-7.39,110.95,11.15,118.41,6.41,5.01-21.57,29.87-56.04,31.93-75.93,2.35-22.74-82.39-72.6-81.84-103.98l7.24-102.63,83.75-76.41-27.16-83.14c-27.17-5.56-112.5,8.35-130.76-6.39Z"/>
      <path class="cls-1" d="M1729.17,1155.17c38.52,22.35,67.27-50.74,97.7-53.79,18.83-1.89,107.51,36.35,111.43,57.2,3.61,19.21-6.62,65.96-2.29,75.12.64,1.36,17.87,22.73,19.34,23.09,20.71,5.06,70.09-7.51,86.22,4.14,8.42,6.08,41.35,91.66,41.59,103.93.7,34.93-58.84,53.5-62.58,72.34-7.91,39.76,54.27,59.52,58.69,87.79,1.32,8.44-29.78,84.11-36.5,94.24-29.19,44.03-73.08.8-106.92,21.02-25.19,15.05,1.01,78.09-18.15,100.65-7.23,8.51-88.45,40.29-100.92,41.14-37.61,2.57-52.01-55.19-72.52-59.29-46.43-9.28-58.74,51.65-91.86,54.86-12.22,1.18-82.7-28.79-94.72-37.35-38.07-27.11-2.74-73.64-14.59-99.62-16.76-36.75-83.63-4.8-107.17-25.35-4.88-4.26-34.94-77.87-36.35-86.97-1.55-10.02-1.87-24.51,2.08-33.91,5.97-14.22,54.15-37.86,57.09-52.64,8.05-40.57-52.55-53.76-55.19-91.45-1.15-16.44,29.64-88.1,41.31-100.55,23.63-25.21,66.36,3.63,94.86-8.06,1.12-.46,14.45-16.3,14.98-19.12,4.5-23.75-8.46-64.73,6.8-84.63,8.39-10.94,94.66-42.92,109.22-41.07,6.66.84,10.81,3.62,16.19,7,14.34,9.02,35.05,47.12,42.28,51.32ZM1873.7,1184.32l-37.13-13.82c-14.04,3.6-29.07,42.6-52.34,48.53-16.79,4.28-69.94,3.54-83.68-5.48-30.13-19.78-29.77-69.95-79.88-34.72-7.35,10.86,2,53.13-3.03,70.08-1.3,4.39-41.03,44.76-47.04,48.92-28.86,20-46.89,3.25-73.17,4.14-21.27.72-16.77,25.6-29.19,39.36l53.57,55.94-3.86,71.79-52.81,57.52c12.62,61.48,45.22,20.89,82.96,35.93,13.83,5.51,59.54,52.34,61.28,67.01,1.66,13.91-12.24,58.14-1.69,66.3l35.4,12.29c35.95-44.57,55.55-56.41,114.95-49.42,48.67,5.72,46.21,81.91,100.61,41.41,7.35-10.86-2-53.12,3.03-70.08,1.06-3.56,47.01-51.24,51.36-53.73,23.23-13.33,74.27,5.96,82.51-4.31l14.75-34.34c-13.56-21.29-45.54-31.18-51.7-57.08-.87-3.66,1.75-65.37,2.77-70.7,4.12-21.5,54.17-43.06,52.82-57.52l-12.33-35.68c-26.58-4.17-47.73,9.87-73.65-1.8-19.44-8.76-30.34-38.89-51.37-49.1-15.46-20.79,4.72-56.04-3.13-81.45Z"/>
      <path class="cls-1" d="M575.53,1444.95c28.46-8.57,51.78,16.27,38.92,43.6-37.72,36.85-80.37,68.76-115.45,108.44-131.62,148.84-191.9,350.17-168.36,547.84,3.21,26.96,23.27,92.23,22.09,110.01-1.64,24.81-32.53,39.15-52.5,20.89-16.2-14.82-32.6-122-34.33-148.41-16.4-250.1,71.65-480.17,260.57-644.51,7.45-6.48,43.51-36.19,49.06-37.86Z"/>
      <path class="cls-1" d="M1743.56,2328.84c-126-120.99,41.03-318.86,178.86-217.69,162.05,118.94-38.04,352.91-178.86,217.69ZM1900.26,2278.61c70.21-76.19-55.76-187.1-121.75-101.2-61.27,79.77,54.15,174.55,121.75,101.2Z"/>
      <path class="cls-1" d="M1873.25,1829.01c5.35,5.68,5.31,16.25,5.95,23.77,3.74,43.67,5.3,150.25-.61,191.84-4.59,32.29-53.85,30.59-58.87,4.72l4.13-219.55c10.39-14.6,38.38-12.48,49.4-.79Z"/>
      <path class="cls-1" d="M1493.91,2212.66c18.12-4.01,149.26-4.1,167.08-.02,29.09,6.66,29.51,52.98.86,58.3-19.3,3.58-149.81,3.67-168.85.02-26.82-5.14-27.18-52.1.9-58.31Z"/>
      <path class="cls-1" d="M762.75,209.04c-13.59,16.84-38.28,11.93-50.99-3.42-4.13-4.99-38.31-66.88-38.98-70.98-5.97-36.38,33.79-52.65,56.9-24.62,3.55,4.3,37.03,63.49,38,67.23,2.59,9.99,1.7,23.59-4.93,31.8Z"/>
      <path class="cls-1" d="M429.33,362.04c23.82-5.23,99.36,35.99,101.78,61.24,1.96,20.47-17.89,36.82-37.72,32.93-5.81-1.14-71.14-38-76.28-42.76-16.84-15.59-10.86-46.34,12.23-51.41Z"/>
      <path class="cls-1" d="M1363.9,209.19c-19.21-20.46,18.77-80.7,33.38-99.05,22.94-28.8,59.5-8.51,56.8,19.78-.86,9.02-34.7,68.85-41.81,77.46-12.22,14.77-35.54,15.48-48.38,1.81Z"/>
      <path class="cls-1" d="M1676.76,362.13c30.25-6.09,53.61,21.65,33.24,47.07-10.63,13.27-72.91,49.37-88.69,47.86-22.9-2.19-32.88-29.25-21.31-48.28,4.47-7.35,67.53-44.8,76.77-46.66Z"/>
      <path class="cls-1" d="M1055.36.97c22.33-4.49,35.27,6.78,37.84,28.81,1.78,15.28,2.12,72.21-2.09,84.89-7.97,23.99-53.36,25.28-57.62-6.9-1.95-14.76-2.29-73.36.32-86.95,1.94-10.12,11.8-17.89,21.55-19.86Z"/>
      <path class="cls-1" d="M1123.48,2187.2c-208.9,226.46-530.96-126.03-293-313.56,207.87-163.82,469.24,122.51,293,313.56ZM955.21,1888.46c-184.83,10.82-189.28,286.81-10.54,304.87,223.89,22.63,225.19-317.44,10.54-304.87Z"/>
      <path class="cls-1" d="M1708.76,1294.35c229.94-35.78,236.62,311.96,12.64,291.28-167.19-15.44-168.17-267.08-12.64-291.28ZM1799.76,1501.85c78.99-73.67-33.94-205.17-120.21-124.76-79.32,73.94,35.76,203.53,120.21,124.76Z"/>
    </g>
  </g>
</svg>