<?xml version="1.0" encoding="UTF-8"?>
<svg id="Layer_2" data-name="Layer 2" xmlns="http://www.w3.org/2000/svg" viewBox="0 0 1660.67 1404">
  <defs>
    <style>
      .cls-1 {
        fill: #fff;
      }
    </style>
  </defs>
  <g id="Layer_1-2" data-name="Layer 1">
    <g>
      <g>
        <g>
          <path class="cls-1" d="M1557.84,228.21c-53.73-53.73-125.16-83.32-201.15-83.32h-441.39c.5,4.07.79,8.21.79,12.42,0,7.94-.95,15.65-2.69,23.06h443.28c137.29,0,248.98,111.69,248.98,248.98s-111.69,248.98-248.98,248.98h-70.48c.06,1.37.11,2.75.11,4.14,0,10.94-1.77,21.47-5,31.34h75.37c75.98,0,147.42-29.59,201.15-83.32,53.73-53.73,83.32-125.16,83.32-201.15s-29.59-147.42-83.32-201.15Z"/>
          <path class="cls-1" d="M714.62,144.89h-427.28v35.48h429.18c-1.74-7.41-2.68-15.13-2.68-23.06,0-4.21.29-8.35.79-12.42Z"/>
          <path class="cls-1" d="M1015.08,1247.65l314.98.22.03-35.48-315.09-.22c1.05,5.83,1.63,11.83,1.63,17.96s-.55,11.83-1.55,17.53Z"/>
          <path class="cls-1" d="M543.61,678.34h-78.76c-75.98,0-147.42,29.59-201.15,83.32-53.73,53.73-83.32,125.16-83.32,201.15s29.59,147.42,83.32,201.15c53.73,53.73,125.16,83.32,201.14,83.32l351.06.24c-.98-5.65-1.53-11.46-1.53-17.39s.59-12.22,1.65-18.09l-351.17-.24c-137.29,0-248.98-111.69-248.98-248.98s111.69-248.98,248.98-248.98h83.65c-3.23-9.88-5-20.4-5-31.34,0-1.39.05-2.76.11-4.14Z"/>
          <path class="cls-1" d="M1084.15,678.34h-338.49c.06,1.37.11,2.75.11,4.14,0,10.94-1.77,21.47-5,31.34h348.28c-3.23-9.88-5-20.4-5-31.34,0-1.39.05-2.76.11-4.14Z"/>
        </g>
        <path class="cls-1" d="M1486.21,1404c-96.2,0-174.47-78.26-174.47-174.47s78.26-174.47,174.47-174.47,174.47,78.26,174.47,174.47-78.26,174.47-174.47,174.47ZM1486.21,1090.55c-76.63,0-138.98,62.35-138.98,138.98s62.35,138.98,138.98,138.98,138.98-62.35,138.98-138.98-62.35-138.98-138.98-138.98Z"/>
        <path class="cls-1" d="M156.72,0C70.17,0,0,70.17,0,156.72s70.17,156.72,156.72,156.72,156.72-70.17,156.72-156.72S243.28,0,156.72,0ZM156.68,274.99v-85.43H43.17v-64.5h113.51V39.62l114.77,117.68-114.77,117.68Z"/>
        <path class="cls-1" d="M1486.21,1338.95c-60.33,0-109.41-49.08-109.41-109.41s49.08-109.41,109.41-109.41,109.41,49.08,109.41,109.41-49.08,109.41-109.41,109.41ZM1486.21,1155.61c-40.76,0-73.93,33.16-73.93,73.93s33.16,73.93,73.93,73.93,73.93-33.16,73.93-73.93-33.16-73.93-73.93-73.93Z"/>
        <circle class="cls-1" cx="1486.21" cy="1229.53" r="36.67" transform="translate(-51.9 2393.49) rotate(-76.72)"/>
      </g>
      <circle class="cls-1" cx="814.96" cy="157.31" r="88.12" transform="translate(127.46 622.34) rotate(-45)"/>
      <circle class="cls-1" cx="915.5" cy="1230.13" r="88.12" transform="translate(-601.69 1007.65) rotate(-45)"/>
      <circle class="cls-1" cx="1185.18" cy="682.48" r="88.12" transform="translate(-135.46 1037.94) rotate(-45)"/>
      <circle class="cls-1" cx="644.63" cy="682.48" r="88.12" transform="translate(-293.78 655.72) rotate(-45)"/>
    </g>
  </g>
</svg>