<?xml version="1.0" encoding="UTF-8"?>
<svg id="Layer_2" data-name="Layer 2" xmlns="http://www.w3.org/2000/svg" viewBox="0 0 558.97 630.66">
  <g id="Layer_1-2" data-name="Layer 1">
    <g>
      <path d="M509.76,408.44c-12.48,1.58-18.68,10.19-29.03,15.37l-75.78-42.58-.87-136.02-117.82-70.89-1.04-90.06c38.67-4.88,47.84-59.17,14.87-77.93-45.45-25.86-84.94,33.78-52.48,65.77,7.13,7.03,20.26,9.4,23.41,12.47,7.31,7.13,1.59,73.52,2.83,87.99l-117.82,70.89c-5.91,9.82,1.49,109.73-1.18,131.71-.36,2.94-.09,5.78-2.85,7.78-10.79,3.42-68.85,43.39-73.1,43.36-1.03,0-11.59-10.04-16.62-12.07-53.49-21.56-84.36,50.81-38.81,76.03,34.9,19.33,75.45-18.1,59.49-55.31l78.36-42.47,119.17,65.63,119.56-68.08,76.07,42.35c-12.44,38.74,23.91,75.4,61.71,54.67,39.85-21.85,19.33-84.6-28.07-78.62ZM19.12,470.7c-21.45-30.61,19.44-66.57,46.95-40.3,31.53,30.11-21.43,76.72-46.95,40.3ZM273.17,73.22c-32.87-4.52-33.85-54.65-2.25-60.37,51.11-9.25,48.92,66.79,2.25,60.37ZM392.58,379.01l-112.08,65.82-113.87-65.82v-127.61l112.08-65.82,113.87,65.82v127.61ZM517.07,481.73c-38.34,1.03-42.83-58.02-4.19-62.37,41.02-4.62,47.74,61.2,4.19,62.37Z"/>
      <path d="M403.22,421.49c-5.86,9.11-26.44,53.65-34.89,55.21h-177.46c-8.03-1.49-24.65-39.59-31.24-48.17-6.01-7.83-14.25-4.67-11.83,3.8,4.18,14.64,28.22,38.02,30.8,55.64h95.68v58.47c-42,5.24-48.27,64.11-9.83,80.25,56.74,23.83,85.12-66.96,22.99-81.99l-2.53-56.74h95.68c.81-14.35,30.55-47.65,31.51-57.59.37-3.8-4.78-9-8.89-8.88ZM293.04,617.01c-46.86,14.44-57.61-51.52-19.46-59.33,42.24-8.65,49.18,50.18,19.46,59.33Z"/>
      <path d="M313.2,155.36l55.13-1.65,4.42,3.1,91.68,160.87-30.23,49.37c6.64,9.24,9.2,8,15.07-.46,10.6-15.29,18.77-36.31,29.25-52.23l-47.36-80.24,49.14-30.02c17.09,18.92,49.13,22.3,66.49,2.21,34.04-39.39-16.83-93.89-58.53-61.19-23.53,18.45-10.07,43.63-14.33,49.27-2.33,3.09-46.33,28.42-49.35,27.93l-43.98-79.87h-71.76l4.36,12.91ZM540.08,159.72c21.45,30.61-19.44,66.57-46.95,40.3-31.53-30.11,21.43-76.72,46.95-40.3Z"/>
      <path d="M78.47,206.6l46.83,27.9-44.63,79.86,34.18,61.98,10.55-6.61-31.45-55.37,95.4-160.13c2.77-2.17,5.54,1.51,6.51,1.51h50.5l3.12-9.3-3.12-3.99h-67.78l-46.49,82.33-46.79-27.7c-2.21-13.91,2.12-19.89-4.57-35.19-21.53-49.22-100.21-17.09-76.26,36.39,13.72,30.63,52.04,29.48,73.98,8.32ZM42.13,148.69c48.97-1.32,35.31,80.89-12.39,58.88-29.65-13.69-20.11-58,12.39-58.88Z"/>
      <path d="M247.71,347.1h10.62s0-26.59,0-26.59c6.78,1.13,19.49-2.5,24.19,1.73,7.25,6.51,8.47,29.66,23.65,24.85l-13.44-27.72c17.3-3.04,16.65-32.48,4.16-36.06h-49.17v63.79ZM295.19,294.29l-2.13,14.45-34.73,1.17v-18.63c12.28.59,25.28-2.09,36.86,3.02Z"/>
      <polygon points="194.54 317.85 218.49 316.52 218.48 307.25 194.54 307.25 194.55 291.29 237.08 291.29 237.08 283.31 183.92 283.31 183.92 347.1 239.73 347.1 239.73 339.13 194.55 339.13 194.54 317.85"/>
      <path d="M327.43,320.51c10.54-.93,22.82,1.44,33.08-.14,22.69-3.52,19.45-34.69,5.47-37.05-13.53-2.29-32.3,1.67-46.51,0v63.79h7.96s0-26.59,0-26.59ZM329.93,292.44c16.01-1.97,44.61-6.85,34.72,17.45h-37.21l2.49-17.45Z"/>
    </g>
  </g>
</svg>