<?xml version="1.0" encoding="UTF-8"?>
<svg id="Layer_2" data-name="Layer 2" xmlns="http://www.w3.org/2000/svg" viewBox="0 0 646.82 714.02">
  <g id="Layer_1-2" data-name="Layer 1">
    <g>
      <path d="M361.6,694.69c-.76.55-6.64,11.75-9.23,14.25-1.52,1.47-4.14,3.26-6.15,3.84-5.57,1.6-35.58,1.44-42.29.67-3.28-.38-6.54-1.77-8.98-4-3.05-2.78-8.58-13.94-9.77-14.71s-5.31-.86-7.62-1.87c-8.32-3.63-10.99-13.47-10.01-21.8.28-2.41,1.99-4.49,1.87-6.99-.2-4.09-2.6-7-1.95-13.08.3-2.83,2.07-5.43,1.95-7.9-.1-2.09-1.71-13.83-2.16-15.86-.64-2.91-5.31-7.88-6.95-11.03-9.67-18.44-11.36-36.33-17.32-55.61-13.34-43.22-39.51-43.68-69.44-70.42C15.42,348.93,121.61,86.27,332.95,95.04c206.44,8.56,293.75,271.05,132.79,401.61-29.65,24.05-48.8,22.53-61.68,64.2-6.19,20.03-7.9,37.6-18.2,56.73-1.55,2.88-5.77,7.3-6.3,9.68-.44,1.94-2.06,13.82-2.16,15.86-.12,2.49,1.75,5.59,1.99,8.87.41,5.6-1.81,8.39-1.99,12.11-.12,2.47,1.66,5.07,1.95,7.9.89,8.47-2.45,17.84-10.79,21.19-1.93.78-6.08.89-6.97,1.52ZM476.61,468.05c140.18-145.82,15.9-385.66-183.52-357.84-173.01,24.14-243.89,239.17-119.04,362.53,34.07,33.66,65.83,33.14,81.7,85.1,6.08,19.93,7.62,42.16,20.72,59.2h93.89c23.01-34.44,13.81-75.66,48.49-104.36,20.1-16.63,37.97-24.05,57.76-44.64ZM281.96,630.54c-3.75,3.7-.65,8.27,4.05,8.93,23.46-1.51,49.8,2.21,72.92.11,9.72-.88,8.2-9.04,5.95-9.04h-82.92ZM366.37,652.51h-85.91c-.15,3.85-.08,7.7,4.55,7.9,23.97-1.61,51.38,2.45,74.93.16,5.13-.5,6.94-2.69,6.43-8.05ZM366.37,673.49h-85.91c-.15,3.85-.08,7.7,4.55,7.9,24.14-1.08,49.97,1.76,73.91.14,6.46-.44,7.71-.84,7.45-8.04ZM345.39,694.47h-44.95c1.55,2.22,2.66,5.41,5.51,5.98,5.07,1,27.18.66,33.01.08,4.14-.42,5.8-1.65,6.44-6.05Z"/>
      <path d="M321.13.38c6.02-1.79,8.68,3.04,9.27,8.29.96,8.43,1.07,32.64-.09,40.87-1.5,10.7-12.75,9.99-13.92.11-1.04-8.75-.98-32.17.02-40.98.33-2.88,1.62-7.37,4.71-8.29Z"/>
      <path d="M4.45,317.06l47.72-.18c7.08,2.78,6.93,10.26,0,12.94H5.26c-6.64-2.68-7.09-9.2-.82-12.75Z"/>
      <path d="M593.84,317.06l47.72-.18c7.08,2.78,6.93,10.26,0,12.94h-46.9c-6.64-2.68-7.09-9.2-.82-12.75Z"/>
      <path d="M105.99,530.99c6.93-7.12,14.73-13.64,21.64-20.81,4.33-2.58,10.52,2.29,9.82,6.75-.81,5.16-30.17,29.76-34.83,36.17-4.45,1.9-10.31-.67-9.96-5.91.22-3.36,10.36-13.16,13.33-16.2Z"/>
      <path d="M513.57,123.41l30.63-29.8c6.4-2.95,12.59,3.65,8.42,9.42l-33.43,33.5c-9.59,2.57-12.5-7.25-5.63-13.11Z"/>
      <path d="M105.28,95.43l30.75,31.71c3.56,5.97-3.04,12.68-8.98,8.94l-33.28-33.64c-4.26-8.05,5.9-12.46,11.5-7.01Z"/>
      <path d="M533.85,523.99c3.36,3.29,17.67,17.5,19.21,20.28,3.46,6.26-3.58,11.8-9.43,8.39l-33.3-33.68c-2.54-4.59,1.97-10.26,7.34-9.33,1.34.23,13.96,12.17,16.18,14.34Z"/>
      <path d="M462.52,356.07c-.5.62-2.24,7-2.08,8.02.67,4.23,10.89,14.95,12.35,20.67,2.49,9.74-4.5,20.2-10.11,27.91-4.58,6.29-7.28,10.02-15.88,10.15-9.04.14-26.13-7.45-27.54,6.36-.9,8.77,3.84,18.5-1.09,26.89-3.24,5.51-24.63,16.72-31.32,16.72-13.28,0-21.07-18.82-33.71-13.05-2.67,1.22-8.14,21.33-16.85,25.35-5.64,2.6-25.99,2.26-32.12.36-12.13-3.76-13.51-25.07-18.42-27.54-.54-.27-7.25-2.01-7.64-1.95-2.03.32-13.95,9.6-17.6,11.3-2,.93-5.55,2.33-7.65,2.37-6.59.14-29.2-13.68-31.86-19.9-3.79-8.86,2.1-20.04.51-28.5-.07-.39-4.13-5.3-4.41-5.51-3.8-2.78-22.06,3.1-30.91-2.1-5.67-3.33-17.07-25.55-16.71-32.34.5-9.47,15.11-20.38,14.65-26.47-.06-.81-1.53-6.33-1.84-6.72-.89-1.11-14.62-6.84-17.65-8.82-6.23-4.09-8.45-7.18-9.11-14.87-.62-7.28-.35-22.47,3.6-28.44,6.09-9.2,29.87-9.72,27.2-22.31-.89-4.19-10.2-14.22-12.01-18.99-3.39-8.94,2.15-17.33,6.8-24.61,4.61-7.23,9.08-14.84,18.79-14.97,8.25-.1,21.46,6.52,26.63-2.55,4.53-7.94-5.48-23.94,4.7-33.54,3.92-3.69,23.52-14.04,28.71-14.05,10.01,0,17.1,11.28,24.53,14.57,2.73,1.21,6.97-.75,9.69-1.74,8.64-13.58,7.53-25.72,26.67-26.76,5.59-.3,20.39.57,24.87,3.18,8.24,4.81,9.04,17.43,13.75,24.21,7.75,11.18,23.35-8.49,32.34-9.41,7.76-.8,17.7,5.62,24.02,9.99,16.58,11.48,10.01,15.49,9.42,32.46-.68,19.63,21.56,7.58,33,12.04,5.61,2.19,7.94,7.28,10.8,12.18,3.62,6.21,9.08,15.56,8.1,22.69-1.03,7.56-14.93,19.7-14.51,24.57.9,10.42,11.57,11.06,19.26,15.81,5.3,3.27,8.33,6.11,9.23,12.74.95,6.99.43,27.24-4.36,32.43s-21.91,9.26-24.28,12.19ZM415.73,226.54c-4.39-6.12-3.75-9.67-3.4-17.06.18-3.82,2.08-10.62,1.91-14.07s-16.58-12.23-20.42-13.37c-11.02,5.29-17.06,14.95-30.51,12.49-17.31-3.16-16.77-15.78-23.88-29.06-1.8-1.21-21.57-1.73-23.83-.27-1.84,1.2-8.27,17.93-11.53,21.44-3.72,4.01-13.75,6.69-19.15,6.42-8.14-.41-17.5-11.63-25.12-14.9l-20.15,11.48c-.17,13.49,5.11,24.46-6.14,34.82-13.04,12-21.44,1.97-34.48,4.48-2.41.46-12.66,16.67-12.48,19.41.44,6.51,13.67,15.72,13,27.01-1.15,19.35-15.36,20.63-29.83,27.66.36,5.95-3.9,20.37.87,24.29,8.18,6.73,20.26,6.38,24.67,18.29,6.66,17.99-5.02,22.54-12.5,36.84,1.43,3.77,8.49,19.23,11.47,20.13,16.14.54,25.45-5.56,36.79,9.16,6.82,8.85,2.21,21.15,1.71,31.37.51,2.72,17.04,12.81,20.17,12.6,4.61-.3,15.3-10.74,21.73-12.3,7.15-1.73,18.94,2.12,23.23,8.37,2.43,3.54,7.74,19.11,9.59,20.38,2.6,1.78,18.03,2.16,21.42,1.51,5.03-.96,9.98-20.33,17.17-24.79,3.04-1.88,13.02-4.45,16.55-3.97,7.77,1.06,18.32,13.55,23.49,14.62,2.34.49,19.81-8.92,20.73-10.81,1.45-9.91-3.92-21.74,2.5-30.47,11.87-16.14,22.72-8.95,39.76-8.7l11.19-19.36c-5.86-14.42-17.47-19.16-10.71-36.59,4.69-12.11,17.24-12.48,27.2-18.75.68-4.73,3.24-20.44.5-23.5-7.85-5.8-21.58-7.96-25.28-17.68-7.49-19.72,4.1-22.65,12.21-38.25-1.27-3.6-9.42-20.36-12.32-20.44-14.2,1.39-26.82,4.55-36.14-8.45Z"/>
      <path d="M311.23,214.26c87.12-8.12,147.85,82.92,102.9,158.84-43.7,73.81-154.66,66.51-187.79-12.62-26.81-64.03,15.06-139.72,84.89-146.23ZM390,383.44c45.5-47.17,28.04-127.14-33.09-150.52-72.09-27.57-143.65,39.1-121.89,112.9,19.75,67.02,106.34,88.05,154.99,37.62Z"/>
    </g>
  </g>
</svg>