<?xml version="1.0" encoding="UTF-8"?>
<svg id="Layer_2" data-name="Layer 2" xmlns="http://www.w3.org/2000/svg" viewBox="0 0 608.99 609.14">
  <defs>
    <style>
      .cls-1 {
        fill: #fff;
      }
    </style>
  </defs>
  <g id="Layer_1-2" data-name="Layer 1">
    <g>
      <path class="cls-1" d="M582.79,558.63c-.26,0-.53,0-.79,0-1.23,0-2.46.04-3.71.08-1.3.04-2.6.08-3.91.08-3.28,0-5.83-.26-8.29-.85l-1.54-.37v-8.34c0-6.93-.06-13.99-.12-20.82-.14-15.56-.29-31.64.31-47.45.45-11.83-3.63-23.11-11.18-30.95-7.31-7.59-17.37-11.61-29.08-11.61-.76,0-1.53.02-2.32.05-2.87.13-5.93.18-9.61.18-2.69,0-5.39-.03-8.09-.06-2.69-.03-5.39-.06-8.09-.06h-1.16s-6.28-10.89-9.1-15.78c-6.26-10.85-12.43-21.55-18.57-32.27-13.64-23.82-33.46-35.4-60.58-35.4h-.41c-18.89.08-41.21.17-63.56.17-20.92,0-39.66-.07-57.32-.23h-.75c-19.66,0-36.05,6.66-50.1,20.36-12.31,11.99-24.92,24.08-37.12,35.76-8.19,7.85-16.67,15.96-24.97,23.97-2.96,2.86-6.16,4.67-10.05,5.68-5.03,1.31-10.05,2.62-15.08,3.93-22.52,5.86-45.8,11.92-68.56,18.31-19.2,5.39-30.93,18.46-33.94,37.79-1.59,10.2-1.32,20.79-1.06,31.02.15,5.8.3,11.8.11,17.71-.01.46.01.93.04,1.42.1,1.92.24,4.56-1.87,7.29l-.69.89-1.12-.12c-4.08-.46-7.57-.68-10.66-.68-15.72,0-24.94,5.94-29.85,19.26v12.44c5.16,13.23,14.56,19.13,30.4,19.13h.63c20.39-.2,42.72-.3,70.25-.3,14.5,0,29,.02,43.5.05s29,.05,43.5.05h.71c.49,0,.98,0,1.47.02.47,0,.94.02,1.41.02.93,0,1.64-.03,2.29-.1,4-.42,6.68-3.29,6.68-7.14,0-3.87-2.68-6.72-6.67-7.11-.63-.06-1.33-.09-2.21-.09-.49,0-.97,0-1.46.02-.51,0-1.02.02-1.52.02H31.05c-.52,0-1.04,0-1.56.01-.54,0-1.08.02-1.62.02-1.19,0-2.12-.04-3-.12-6.25-.61-10.71-5.17-10.61-10.85.11-5.68,4.6-9.98,10.94-10.47.58-.05,1.21-.07,1.97-.07.4,0,.81,0,1.21.01.39,0,.77.01,1.16.01,0,0,427.64,0,549.82,0,.43,0,.85,0,1.28-.02.46,0,.92-.02,1.37-.02.83,0,1.94.03,3.08.23,5.79,1.06,9.26,4.99,9.28,10.53.02,5.26-3.23,9.13-8.69,10.36-1.47.33-2.97.37-4.25.37-.36,0-1.76-.01-2.13-.01-13.48.01-26.97.01-40.45.01H237.07s-2.97,0-2.97,0c-.6,0-1.2,0-1.8,0-6.37.04-9.68,2.38-9.83,6.94-.07,2,.49,3.62,1.67,4.84,1.64,1.7,4.46,2.6,8.14,2.6h7.12c55.8,0,111.58.01,167.38.01,58.69,0,117.4,0,176.08-.03,7.23,0,13.86-2.57,18.67-7.24,4.77-4.63,7.4-10.99,7.4-17.91,0-14.34-11-24.92-26.15-25.15ZM198.34,430.62c.25-.2.49-.39.71-.6,6.09-5.88,12.19-11.74,18.3-17.6,9.25-8.88,18.82-18.06,28.17-27.16,10.9-10.61,23.43-15.76,38.33-15.76h.75c5.13.06,10.68.09,17.46.09,4.12,0,8.24,0,12.36-.02,4.12-.01,8.25-.02,12.37-.02h3.19c1.35,0,2.71.08,4.14.16.7.04,1.44.08,2.23.12l1.91.09v67.94h-142.76l-.05-1.95c-.08-2.9,1.71-4.34,2.89-5.29ZM63.2,493.65c5.14-13.71,19.88-17.64,32.15-19.53l1.68-.26.53,1.62c1.09,3.34.81,6.61.54,9.77l-.04.45c-.55,6.52-4.95,10.39-12.08,10.6-2.38.07-4.93.1-8.05.1h-.01c-2.05,0-4.12-.01-6.22-.03-2.17-.01-4.37-.03-6.62-.03h-2.89l1.01-2.7ZM133.45,558.56l.69-2.53c2.54-9.3,17.18-18.63,31.33-19.97,1.17-.11,2.38-.17,3.59-.17,14.87,0,29.92,8.31,35.78,19.75l1.49,2.91h-72.88ZM409.52,558.47l2.13-3.13c8.06-11.84,19.17-18.3,33.03-19.21,1.13-.07,2.25-.11,3.35-.11,14.49,0,26.24,6.3,35.93,19.25l2.39,3.2h-76.83ZM549.47,558.38h-47.06l-.53-1.17c-10.02-22.05-30.77-35.76-54.16-35.76s-43.87,13.37-54.37,35.76l-.54,1.15h-168.72l-.55-1.1c-11.88-23.66-30.13-35.65-54.29-35.65-24.28.01-42.01,11.68-54.2,35.65l-.56,1.09h-55.29v-47.57h16.94c3.01,0,6,0,9,0,16.56-.06,27.25-10.4,27.9-26.99.11-2.88.08-5.81.05-8.91-.01-1.51-.03-3.07-.03-4.7v-1.66l1.64-.3c9.18-1.7,18.26-4.18,27.04-6.58,15.79-4.31,32.12-8.77,49.42-8.77.46,0,.91,0,1.37,0,25.17.34,52.5.5,86.01.5,19.29,0,38.9-.05,57.86-.1,18.92-.05,38.49-.1,57.73-.1.52,0,1.04,0,1.56.01.5,0,1.01.01,1.51.01.86,0,1.56-.02,2.2-.06,5.06-.31,8.39-3.32,8.29-7.5-.1-4.1-3.33-6.91-8.04-7-7.7-.14-15.55-.14-23.13-.14-4.65,0-9.29,0-14.03-.03-.41,0-.81.02-1.23.03-.47.02-.95.04-1.43.04-1.54,0-3.57-.17-5.63-1.51l-.91-.59v-64.82l.65-.59c1.48-1.36,3.1-1.51,4.18-1.51.35,0,.7.02,1.05.04.27.01.53.03.81.03l9.75-.02c6.41-.02,12.82-.03,19.24-.03,7.88,0,14.46.03,20.7.08,15.25.14,28.04,5.86,36.98,16.56,7.75,9.27,13.57,19.96,19.21,30.3,3.25,5.97,6.62,12.13,10.33,18.01l1.34,2.12-2.37.83c-2.86,1.01-5.4,1.14-7.29,1.14-.78,0-1.55-.02-2.3-.05-.69-.02-1.37-.05-2.04-.05h-.42c-3.66.06-7.38.07-10.97.07-5.22,0-10.62.01-15.91.18-4.29.14-6.62,2.42-6.91,6.78-.27,4.02,2.41,7,6.8,7.57.91.12,1.85.13,2.58.13.41,0,.82,0,1.23-.01.43,0,.86-.01,1.31-.01,12.71,0,68.58,0,68.58,0l.42,1.45c1.54,5.39,1.22,10.36.91,15.16l-.08,1.31c-.55,9.05,2.01,17.09,7.22,22.62,4.82,5.12,11.5,7.83,19.33,7.83,1.08,0,2.19-.05,3.29-.16.7-.07,1.45-.1,2.36-.1.63,0,1.27.01,1.95.03.71.02,1.47.03,2.27.03h2v57.01ZM549.34,484.79l-.21,1.41-1.39.27c-2.22.43-4.55.64-6.91.64h0c-2.13,0-4.3-.18-6.44-.52-4.96-.8-8.1-4.37-8.21-9.31-.11-5.01-.08-9.93-.06-15.14,0-2.18.02-4.38.02-6.61v-2.26l2.24.27c7.18.87,12.93,3.88,16.61,8.7,4.2,5.51,5.71,13.3,4.35,22.55Z"/>
      <path class="cls-1" d="M29.02,50.27c.65,0,1.32-.01,1.99-.04,7.04-.25,14.55-.37,23.62-.37,6.45,0,13,.06,19.34.12,5.45.05,10.89.1,16.36.11.43,0,.87-.03,1.32-.05.53-.03,1.07-.06,1.61-.06,1.17,0,2.93.13,4.73,1.22l.96.58v75.99l-.5.57c-11.34,12.76-13.88,26.52-7.54,40.9,6.24,14.16,17.74,21.46,35.17,22.3l.78.04,11.1,11.19c12.48,12.59,25.39,25.61,38.23,38.49,1.87,1.88,2.79,4.09,2.99,7.17.53,8.49,4.07,16.08,10.51,22.57,15.24,15.34,30.48,30.55,45.3,45.21,2.41,2.38,4.55,3.53,6.55,3.53,2.04,0,4.22-1.2,6.66-3.68,3.18-3.22,6.23-6.72,9.47-10.41,1.54-1.76,3.15-3.6,4.86-5.51l1.57-1.76,1.48,1.83c1,1.24,1.83,2.31,2.56,3.26,1.34,1.74,2.32,2.99,3.41,4.1,7.62,7.74,15.1,15.31,22.83,22.79,2.08,2.01,4.11,3.03,6.03,3.03,1.68,0,3.31-.8,4.85-2.38,3.07-3.15,2.8-7.19-.76-11.07-1.13-1.24-2.37-2.45-3.57-3.62-.48-.47-.95-.93-1.42-1.4l-25.33-25.17,1.48-1.42c1.22-1.17,2.39-2.28,3.53-3.35,2.38-2.25,4.63-4.38,6.79-6.55,5.88-5.91,5.88-8.98-.04-14.9-4.12-4.13-8.35-8.29-12.44-12.33-8.21-8.09-16.7-16.47-24.79-24.97-8.86-9.31-19-17.92-33.03-17.92h-1.15s-52.99-53.33-52.99-53.33l-.03-.78c-.36-9.82-4.16-18.74-11-25.8l-.56-.58V50.07h38.1c2.89,0,5.78,0,8.67.02,2.89,0,5.77.02,8.66.02,5.98,0,10.59-.04,14.96-.12,4.24-.08,7.11-2.93,7.12-7.1.01-4.1-2.73-6.85-7.16-7.19-.78-.06-1.62-.08-2.71-.08-.51,0-1.03,0-1.54.01-.53,0-1.05.01-1.58.01H30.18c-.5,0-.99,0-1.49.01-.53.01-1.05.02-1.58.02-1.29,0-2.28-.06-3.21-.21-5.83-.9-9.4-4.76-9.54-10.3-.14-5.57,3.26-9.58,9.09-10.71,1.41-.27,2.8-.31,3.86-.31.53,0,1.06,0,1.58.02.5,0,1,.02,1.5.02,123.55,0,548.02,0,548.02,0,6.55,0,10.98,1.3,13.56,3.98,1.75,1.82,2.58,4.23,2.47,7.14-.37,9.27-9.32,10.34-16.01,10.34h-63.7c-84.26,0-168.53,0-252.8,0-.58,0-1.15-.01-1.73-.02-.56,0-1.11-.02-1.67-.02-.96,0-2.21.03-3.41.23-3.74.65-5.86,3.05-5.99,6.75-.17,4.95,3.16,6.71,5.98,7.32.69.15,1.47.21,2.54.21.48,0,.97-.01,1.45-.02.52-.01,1.03-.03,1.55-.03h37.19c32.28,0,64.55,0,96.84.04.49,0,.98-.03,1.49-.06.59-.04,1.2-.07,1.8-.07,1.22,0,3.05.13,4.92,1.24l.97.58v134.83l-.53.57c-7.21,7.81-10.87,16.73-10.89,26.52-.04,17.35-.07,40.23,0,63.41.02,7.03,2.58,9.57,9.77,9.68,2.17.04,4.34.05,6.49.05,1.77,0,3.53,0,5.27-.01,1.69,0,3.35-.01,4.98-.01h1.19l.57,1.05c1.49,2.75,1.4,5.08,1.32,6.95-.02.41-.03.81-.03,1.2.03,4.02.02,8.04.01,12.06,0,6.43-.02,13.09.11,19.62.09,4.54,2.61,7.2,6.91,7.28h.18c3.98,0,6.82-2.75,7.24-7.01.14-1.46.12-2.95.09-4.52,0-.62-.02-1.24-.02-1.86,0-8,0-34.78,0-34.78h12.22c1.99,0,3.95,0,5.9,0,9.16-.04,11.27-2.13,11.31-11.18.03-6.47,0-13.06-.01-19.43-.03-10.11-.06-20.56.1-30.85.23-14.92-.4-28.03-10.58-37.55l-.63-.59V50.07h10.72c11.01,0,22.03,0,33.04,0,11.01,0,22.03.01,33.04.01,17.22,0,34.44-.01,51.65-.06,7.79-.02,14.76-3.09,19.63-8.64,4.71-5.37,6.79-12.35,5.86-19.65-1.29-10.09-7.43-17.21-18.77-21.74H18.7C9.5,3.38,3.38,9.5,0,18.7v12.44c5.09,13.06,14.32,19.14,29.02,19.14ZM215.75,223.09c5.59,0,10.97,2.22,15.14,6.26,9.48,9.19,18.89,18.73,27.98,27.97,3.87,3.93,7.75,7.86,11.63,11.77l1.4,1.41-31.04,31.14-1.42-1.42c-3.86-3.87-7.76-7.75-11.69-11.65-9.25-9.19-18.81-18.7-28.04-28.33-8.72-9.09-8.55-21.99.4-30.65,4.33-4.19,9.88-6.5,15.64-6.5ZM155.19,175.07l1.38-1.84,40.05,40.05-1.77,1.39c-2.87,2.26-6.89,5.78-9.72,9.73l-1.38,1.92-39.91-40.26,1.84-1.38c3.27-2.45,6.74-5.96,9.5-9.63ZM114.29,50.28h20.33v67.58h-20.33V50.28ZM124.42,132.49h.04c12.15,0,22.19,9.78,22.37,21.8.09,5.73-2.28,11.47-6.5,15.75-4.25,4.31-10,6.78-15.79,6.78,0,0-.27,0-.27,0-12.28-.16-21.87-9.97-21.84-22.33.03-12.52,9.48-21.97,21.99-22ZM418.98,50.37h20.54v126.42h-20.54V50.37ZM451.09,252.2c-.03,5.68-.06,11.39-.06,17.15v2h-42.48l-.54-1.14c-1.35-2.83-1.2-5.65-1.07-8.14.04-.74.08-1.48.07-2.21-.01-2.83-.03-5.65-.05-8.48-.08-12.12-.16-24.65.1-36.98.28-13.18,9.61-23.12,21.71-23.12,2.6,0,5.22.47,7.78,1.4,8.89,3.21,14.1,9.81,14.31,18.1.35,13.73.28,27.18.21,41.42Z"/>
      <path class="cls-1" d="M302.43,479.4c-2.04-.1-4.24-.15-6.91-.15-1.81,0-3.62.02-5.43.04-1.83.02-3.65.04-5.48.04l-2-.04h0c-1.16-.01-2.33-.03-3.49-.04-1.82-.02-3.63-.04-5.45-.04-2.66,0-4.86.04-6.9.13-4.84.21-7.88,2.93-7.92,7.1-.04,4.17,3.18,7.27,7.67,7.36,6.05.12,12.08.18,17.94.18s12-.06,17.83-.19c4.61-.1,7.54-3.01,7.46-7.43-.07-4.2-2.74-6.74-7.32-6.97Z"/>
    </g>
  </g>
</svg>