<?xml version="1.0" encoding="UTF-8"?>
<svg id="Layer_2" data-name="Layer 2" xmlns="http://www.w3.org/2000/svg" viewBox="0 0 1207.2 1502.5">
  <g id="Layer_1-2" data-name="Layer 1">
    <g>
      <path d="M1112.43,380.3c-4.43-60.25,16.41-129.05-36.97-173.76-35.16-29.45-83.87-33.26-124.94-49.92-69.4-28.14-78.1-101.83-134.53-138.97-62.19-40.92-115.67.08-176.46,15.1-67.6,16.7-103.96-18.78-165.51-29.57-127.5-22.36-124.37,115.76-217.27,153.44-46.01,18.66-108.13,23.06-140.51,65.74-33.61,44.3-17.62,106.5-21.41,157.94-6.19,84.03-103.38,122.38-94.22,212.86,5.39,53.18,61.77,95.15,83.32,140.86,23.45,49.74.98,116.36,16.41,169.66,23.08,79.72,115.89,74.13,175.93,108.69l-163.42,307.37c-2.81,14.42,7.7,21.56,21.14,21.25,46.56-1.08,100.66-11.68,147.96-15.86,6.71-.59,40.5-3.69,43.35-1.89l92.54,173.1c7.57,8.45,22.6,7.95,28.53-2.3l154.48-289.34,4.99-2.88,155.05,292.21c4.99,8.82,18.81,11.29,26.5,4.74l94.58-175.54c2.68-1.69,34.65,1.37,41.11,1.89,48.21,3.87,102.93,14.79,150.21,15.86,19.01.43,26.38-12.76,18.47-29.85l-160.78-298.75c39.52-23.79,87.82-26.17,127.78-49.28,94.16-54.45,26.93-160.33,68.52-236.37,22.15-40.5,72.39-82.09,78.82-129.67,12.66-93.63-87.37-131.25-93.66-216.79ZM1045.25,1302.7l-171.54-17.54-9.86,3.17-88.73,157.85-164.1-299.91c-9.46-1.85-17.9-1.48-22.7,7.75l-155.09,292.17-91.3-158.64-179.92,15.16,142.34-266.72c49.45,57.36,69.79,130.02,161.14,120.75,41.4-4.2,83.36-31.86,123.61-35.56,80.67-7.41,158.46,75.77,235.29,13.35,32.19-26.16,46.64-64.28,72.99-92.9,2.5-2.72,4.49-6.41,8.87-5.66l139.01,266.76ZM1079.15,761.58c-6.63,46.44,12.47,123.77-21.23,159.23-29.11,30.63-112.65,37.62-153.74,64.83-45.65,30.23-77.74,119.56-123.47,134.34-48.31,15.62-127.68-39.44-189.37-34.69-70.88,5.45-139.32,74.27-199.59,8.97-44.44-48.15-51.46-95.83-119.94-124.41-52.99-22.12-128.88-20.76-140.96-89.95-8.96-51.33,8.5-99.62-11.4-152.25-17.72-46.85-84.48-100.43-85.29-148.02-.8-47.06,70.78-105.67,87.57-154.49,18.42-53.56-7.25-139.9,21.35-180.41,26.93-38.13,120.55-43.22,163.12-74.51,40.87-30.04,80.09-122.29,122.98-132.59,50.85-12.22,117.74,35.98,173.57,36.36,56.18.38,124.29-48.63,175.33-36.36,41.53,9.98,82.46,101.87,121.66,131.66,46.17,35.08,154.22,35.63,172.54,91.99,16.77,51.57-5.42,109.57,13.25,163.85,16.69,48.52,86.77,105.88,87.57,152.47.95,54.88-83.64,111.75-93.95,183.98Z"/>
      <path d="M324.34,315.02c-211.13,225.24-84.21,599.23,220.53,644.05,337.47,49.63,569.13-327.35,369.95-605.34-139.23-194.32-426.65-213.49-590.48-38.71ZM898.24,766.73c-146.54,230.81-492.67,209.34-610.05-37.45-109.48-230.16,59.18-497.85,312.7-499.79,275.31-2.11,445.44,303.99,297.35,537.24Z"/>
      <path d="M790.74,428.33l-209.61,278.01c-2.43,1.7-12.2-6.89-14.54-8.86-50.25-42.23-96.82-100.83-146.88-144.55-20.65-12.96-39.49,8.15-24.57,26.82,59.07,50.91,110.67,113.1,168.94,163.96,8.87,7.74,17.39,11.25,28.23,4.03l227.57-299.24c8.27-20.49-13.91-36.21-29.12-20.17Z"/>
    </g>
  </g>
</svg>