<svg xmlns="http://www.w3.org/2000/svg" xmlns:xlink="http://www.w3.org/1999/xlink" width="138" height="138" viewBox="0 0 138 138">
  <defs>
    <clipPath id="clip-path">
      <rect id="Rectangle_745" data-name="Rectangle 745" width="138" height="138" transform="translate(648 3481)" fill="#006fbe" stroke="#707070" stroke-width="1"/>
    </clipPath>
  </defs>
  <g id="Mask_Group_136" data-name="Mask Group 136" transform="translate(-648 -3481)" clip-path="url(#clip-path)">
    <g id="Layer_x0020_1" transform="translate(648.002 3481.152)">
      <path id="Path_552" data-name="Path 552" d="M39.7,88.692H51.178A2.382,2.382,0,0,1,53.6,91.117v14.472h30.8V91.117a2.365,2.365,0,0,1,2.345-2.425H98.232a2.382,2.382,0,0,1,2.425,2.425V98.8c12.532,0,11.481-1.213,11.481,6.791h6.63a2.382,2.382,0,0,1,2.425,2.425v10.349a2.382,2.382,0,0,1-2.425,2.425h-6.63c0,8,1.051,6.791-11.481,6.791v7.681a2.382,2.382,0,0,1-2.425,2.425H86.751a2.365,2.365,0,0,1-2.345-2.425V120.789H53.6v14.472a2.382,2.382,0,0,1-2.425,2.425H39.7a2.432,2.432,0,0,1-2.425-2.425V127.58c-12.451,0-11.481,1.213-11.481-6.791H19.242a2.382,2.382,0,0,1-2.425-2.425V108.015a2.382,2.382,0,0,1,2.425-2.425h6.549c0-8-.97-6.791,11.481-6.791V91.117A2.432,2.432,0,0,1,39.7,88.692ZM51.582,55.139a2.425,2.425,0,1,1,4.851,0c0,5.9,8.247,15.2,12.532,19.808,4.366-4.608,12.612-13.906,12.612-19.808a2.425,2.425,0,1,1,4.851,0c0,8-10.025,19.4-15.766,25.063a2.415,2.415,0,0,1-3.4-.081C61.526,74.22,51.582,63.386,51.582,55.139Zm17.383-7.923c2.911-4.366,6.549-6.71,12.208-6.71A14.63,14.63,0,0,1,95.806,55.139c0,13.987-15.038,28.216-25.144,38.323a2.494,2.494,0,0,1-3.4,0C57.241,83.356,42.2,69.126,42.2,55.139c0-12.774,14.8-18.6,23.365-11.8A17.736,17.736,0,0,1,68.964,47.216Zm6.468-.162c-3.4,2.749-3.638,6.306-5.336,7.2a2.423,2.423,0,0,1-3.234-1.132c-2.506-4.851-4.689-7.762-10.106-7.762a9.817,9.817,0,0,0-9.783,9.783c0,11.561,13.421,24.578,21.991,33.148,8.57-8.57,21.991-21.587,21.991-33.148C90.955,46.327,80.688,42.85,75.432,47.054ZM38.727,56.514a2.434,2.434,0,0,1-2.345,2.506C-6.468,61.526.4,21.506.4,21.425A2.349,2.349,0,0,1,2.749,19.4C3.234,19.323,45.437,17.463,38.727,56.514ZM30.8,54.25,18.11,40.748c-2.183-2.264,1.294-5.579,3.477-3.315L34.523,51.178c1.455-24.336-22.314-26.842-29.591-27C4.366,31.046,4.689,53.118,30.8,54.25Zm70.42,4.689a2.375,2.375,0,0,1-1.94-2.425c-6.791-39.05,35.412-37.191,35.978-37.11a2.41,2.41,0,0,1,2.345,2.021c0,.081,6.791,40.1-36.059,37.595A.486.486,0,0,1,101.223,58.939Zm2.264-7.762,12.936-13.744c2.183-2.264,5.659,1.051,3.477,3.315l-12.693,13.5c26.033-1.132,26.357-23.2,25.872-30.076C125.8,24.336,101.951,26.842,103.487,51.178Zm-34.6-13.583c-1.94,0-27-.97-25.468-25.71A2.434,2.434,0,0,1,45.68,9.621,24.505,24.505,0,0,1,59.505,12.37c1.051-3.8,3.477-7.842,7.842-11.723a2.371,2.371,0,0,1,3.234,0A24.967,24.967,0,0,1,78.5,12.37,24.365,24.365,0,0,1,92.33,9.621a2.434,2.434,0,0,1,2.264,2.264C96.049,36.544,71.067,37.757,68.884,37.595Zm-20.7-23.2C48.429,26.519,57.4,30.642,63.467,32.1c-2.264-3.557-4.689-8.651-4.689-14.391A17.739,17.739,0,0,0,48.186,14.391ZM74.462,32.1c6.064-1.455,15.038-5.579,15.361-17.706a17.4,17.4,0,0,0-10.591,3.315C79.232,23.446,76.726,28.54,74.462,32.1Zm-5.5-.566c3.4-4.447,9.944-15.442,0-25.791C59.1,16.089,65.569,27.085,68.964,31.531Zm43.174,78.909v5.5h4.2v-5.5Zm-11.481-6.791v19.08h6.63v-19.08Zm-11.481,4.366v24.9h6.71V93.462h-6.71ZM53.6,110.44v5.5h30.8v-5.5Zm-27.812,5.5v-5.5H21.668v5.5Zm11.481,6.791v-19.08h-6.63v19.08ZM48.752,93.462h-6.63v39.454h6.63Z" fill="#006fbe"/>
    </g>
  </g>
</svg>
