<svg xmlns="http://www.w3.org/2000/svg" xmlns:xlink="http://www.w3.org/1999/xlink" width="138" height="138" viewBox="0 0 138 138">
  <defs>
    <clipPath id="clip-path">
      <rect id="Rectangle_742" data-name="Rectangle 742" width="138" height="138" transform="translate(1016 3133)" fill="#006fbe" stroke="#707070" stroke-width="1"/>
    </clipPath>
  </defs>
  <g id="Mask_Group_133" data-name="Mask Group 133" transform="translate(-1016 -3133)" clip-path="url(#clip-path)">
    <path id="furniture_17394426" d="M13.021,126.336H8.965a6.73,6.73,0,0,1-6.73-6.73V102.784A7.791,7.791,0,0,1,9,95.062V82.377a8.056,8.056,0,0,1,8.056-8.056H44.5V19.7H43.2a3.366,3.366,0,0,1-3.366-3.366V12.833A3.366,3.366,0,0,1,43.2,9.467h79.438a3.366,3.366,0,0,1,3.366,3.366v3.506a3.366,3.366,0,0,1-3.366,3.366h-1.3V80.667h15.525a3.366,3.366,0,0,1,3.366,3.366v3.212a3.365,3.365,0,0,1-3.3,3.365v35.13a4.212,4.212,0,0,1-4.212,4.212H103.282a4.212,4.212,0,0,1-4.212-4.212v-4.6H70.578a6.73,6.73,0,0,1-6.552,5.192H59.97v3.385A3.281,3.281,0,0,1,56.688,133h-7.7a3.282,3.282,0,0,1-3.282-3.282v-3.385H27.283v3.385A3.281,3.281,0,0,1,24,133H16.3a3.282,3.282,0,0,1-3.282-3.282Zm-.115-31.275a7.792,7.792,0,0,1,6.761,7.723v.6H53.323v-.6a7.793,7.793,0,0,1,6.761-7.723V82.377a4.145,4.145,0,0,0-4.145-4.145H17.052a4.145,4.145,0,0,0-4.145,4.145ZM19.668,107.3v3.8H53.323v-3.8ZM64,95.062a7.791,7.791,0,0,1,6.761,7.722v.693h6.422a.3.3,0,0,0,.3-.3V27.434a.3.3,0,0,0-.3-.3H56.5a.3.3,0,0,0-.3.3v46.89A8.056,8.056,0,0,1,64,82.377Zm6.761,12.326v3.518H99.07v-3.518h-10.4a4.212,4.212,0,0,1-4.212-4.212V27.434a4.212,4.212,0,0,1,4.212-4.212h20.679a4.212,4.212,0,0,1,4.212,4.212V80.667h3.874V19.7H48.413V74.321h3.874V27.434A4.212,4.212,0,0,1,56.5,23.223H77.178a4.212,4.212,0,0,1,4.212,4.212v75.742a4.212,4.212,0,0,1-4.212,4.212Zm0,7.429v2.416H99.07v-2.416Zm-14.7,11.519h-6.44v2.756h6.44Zm-32.687,0h-6.44v2.756h6.44ZM133.019,90.611H102.981V107.13h30.038Zm-33.949,0a3.365,3.365,0,0,1-3.3-3.365V84.033a3.366,3.366,0,0,1,3.366-3.366h10.516V27.434a.3.3,0,0,0-.3-.3H88.668a.3.3,0,0,0-.3.3v75.742a.3.3,0,0,0,.3.3h10.4Zm3.911,20.431v14.7a.3.3,0,0,0,.3.3h29.436a.3.3,0,0,0,.3-.3v-14.7ZM70.032,61.486a1.955,1.955,0,1,1,3.911,0v7.638a1.955,1.955,0,0,1-3.911,0ZM43.749,15.794H122.1V13.378H43.749ZM8.965,122.425H64.026a2.818,2.818,0,0,0,2.819-2.819V102.784a3.879,3.879,0,0,0-3.88-3.88H61.114a3.88,3.88,0,0,0-3.88,3.88v10.275a1.955,1.955,0,0,1-1.955,1.955H17.712a1.955,1.955,0,0,1-1.955-1.955V102.784a3.88,3.88,0,0,0-3.88-3.88H10.026a3.879,3.879,0,0,0-3.88,3.88v16.821a2.819,2.819,0,0,0,2.819,2.819ZM99.677,84.578V86.7h36.647V84.578Zm14.368,12.106a1.955,1.955,0,1,1,0-3.911h7.911a1.955,1.955,0,1,1,0,3.911ZM91.9,61.486a1.955,1.955,0,1,1,3.911,0v7.638a1.955,1.955,0,1,1-3.911,0Zm22.142,55.54a1.955,1.955,0,1,1,0-3.911h7.911a1.955,1.955,0,1,1,0,3.911Z" transform="translate(1013.766 3130.765)" fill="#006fbe" fill-rule="evenodd"/>
  </g>
</svg>
