<svg xmlns="http://www.w3.org/2000/svg" xmlns:xlink="http://www.w3.org/1999/xlink" width="138" height="138" viewBox="0 0 138 138">
  <defs>
    <clipPath id="clip-path">
      <rect id="Rectangle_744" data-name="Rectangle 744" width="138" height="138" transform="translate(1016 3481)" fill="#006fbe" stroke="#707070" stroke-width="1"/>
    </clipPath>
  </defs>
  <g id="Mask_Group_137" data-name="Mask Group 137" transform="translate(-1016 -3481)" clip-path="url(#clip-path)">
    <g id="duty-free_8110755" transform="translate(1016 3481)">
      <path id="Path_553" data-name="Path 553" d="M138,56.985c0-7.988-5.556-14.779-10.457-20.77-1.056-1.29-2.053-2.509-2.977-3.713-2.414-3.147-2.482-10.721-2.456-15.254h.732a2.091,2.091,0,0,0,2.091-2.091V7.318A7.326,7.326,0,0,0,117.614,0H107.156a7.326,7.326,0,0,0-7.318,7.318v7.839a2.091,2.091,0,0,0,2.091,2.091h.736c.042,4.445.042,12.153-2.428,15.213-.916,1.134-1.89,2.273-2.832,3.375-3.653,4.271-7.426,8.689-9.193,14.346H86.775V37.628a17.773,17.773,0,0,0-35.546,0V50.182h-5.75c-5.031,0-9.012,3.862-9.907,9.61a2.091,2.091,0,0,0,4.132.644c.436-2.8,2.211-6.072,5.775-6.072h5.75v2.091h-4.7c-1.919,0-4.194.491-4.758,4.32-.6,4.052-1.251,8.217-1.945,12.627q-.591,3.76-1.19,7.613A2.091,2.091,0,0,0,40.38,83.4a2.069,2.069,0,0,0,.321.025,2.092,2.092,0,0,0,2.064-1.773q.592-3.84,1.188-7.6c.7-4.42,1.353-8.6,1.952-12.668.055-.376.4-.747.62-.747h4.7v2.452a6.273,6.273,0,1,0,4.182.009V60.636h12.53a2.091,2.091,0,0,0,0-4.182H55.411V54.363H82.593V63.1a6.273,6.273,0,1,0,4.182-.005V54.363h5.75c3.51,0,5.307,3.284,5.778,6.1,3.29,19.617,10.455,67.916,10.455,67.916a4.1,4.1,0,0,1-1.051,3.306,6.391,6.391,0,0,1-4.722,2.136h-57.7A7.263,7.263,0,0,0,46,130.681V109.772a7.326,7.326,0,0,0-7.318-7.318h-5.75V98.77h3.135a2.091,2.091,0,0,0,2.091-2.091V86.231a7.283,7.283,0,0,0-1.72-4.7c.684-4.435,1.361-8.813,2.019-13.057a2.091,2.091,0,0,0-4.132-.641c-.571,3.684-1.156,7.468-1.748,11.3a7.291,7.291,0,0,0-1.736-.217H15.161a7.326,7.326,0,0,0-7.318,7.318V96.68a2.091,2.091,0,0,0,2.091,2.091h3.135v3.684H7.318A7.327,7.327,0,0,0,0,109.773v20.909A7.326,7.326,0,0,0,7.318,138H130.682A7.326,7.326,0,0,0,138,130.682ZM53.308,71.091A2.091,2.091,0,1,1,55.4,69,2.093,2.093,0,0,1,53.308,71.091Zm31.383,0A2.091,2.091,0,1,1,86.783,69,2.093,2.093,0,0,1,84.692,71.091ZM55.411,50.182V37.628a13.591,13.591,0,0,1,27.182,0V50.182ZM12.024,86.232A3.14,3.14,0,0,1,15.161,83.1H30.839a3.14,3.14,0,0,1,3.136,3.136v8.357H12.024Zm5.226,16.2V98.778h11.5v3.657ZM7.318,133.818a3.14,3.14,0,0,1-3.136-3.136V109.773a3.14,3.14,0,0,1,3.136-3.136H38.682a3.14,3.14,0,0,1,3.136,3.136v20.909a3.14,3.14,0,0,1-3.136,3.136ZM92.639,50.187c1.659-4.277,4.718-7.862,7.944-11.634.961-1.123,1.954-2.285,2.908-3.466,3.4-4.207,3.41-12.277,3.356-17.84h3.905a2.091,2.091,0,0,0,0-4.182H104.02V7.318a3.14,3.14,0,0,1,3.136-3.136h10.458a3.14,3.14,0,0,1,3.136,3.136v5.749h-3.07a2.091,2.091,0,1,0,0,4.182h.247c-.033,5.585.048,13.534,3.32,17.8.964,1.257,1.981,2.5,3.058,3.816,4.676,5.716,9.512,11.627,9.512,18.122v4.693H102.746c-.106-.637-.212-1.281-.318-1.911-.955-5.689-4.882-9.521-9.789-9.581Zm38.043,83.631H111.337a8.141,8.141,0,0,0,1.557-6.057s-2.181-14.7-2.981-20.057h8.718a2.091,2.091,0,1,0,0-4.182h-9.344c-1.912-12.744-3.9-25.729-5.852-37.663h30.382v37.663H127.06a2.091,2.091,0,0,0,0,4.182h6.758v22.977a3.14,3.14,0,0,1-3.137,3.137Z" fill="#006fbe"/>
      <path id="Path_554" data-name="Path 554" d="M108.372,39.028c2.36-2.923,3.795-6.942,4.387-12.285a2.091,2.091,0,1,0-4.156-.461c-.5,4.526-1.642,7.836-3.485,10.118-.775.96-5.74,7.05-8.266,10.432a2.091,2.091,0,1,0,3.35,2.5c2.479-3.318,7.381-9.33,8.17-10.308Z" fill="#006fbe"/>
      <path id="Path_555" data-name="Path 555" d="M114.474,8.364a2.091,2.091,0,0,0-2.091-2.091H108.2a2.091,2.091,0,0,0-2.091,2.091V9.927a2.091,2.091,0,0,0,4.115.528h2.157A2.091,2.091,0,0,0,114.474,8.364Z" fill="#006fbe"/>
      <path id="Path_556" data-name="Path 556" d="M50.766,109.253a2.092,2.092,0,0,0-2.025.8l-1.27,1.672a2.09,2.09,0,0,0,.465,2.977c1.374.962,2.641,1.95,3.867,2.9.976.76,3.024,2.341,3.024,2.341.864,1.191,1.851,2.477,2.806,3.723.838,1.092,1.629,2.125,2.306,3.048a2.089,2.089,0,0,0,1.409.837,2.136,2.136,0,0,0,.277.018,2.09,2.09,0,0,0,1.3-.455l2-1.592a2.09,2.09,0,0,0,.705-2.219c-.008-.029-.755-2.6-1.545-5.668l1.382-1.082c2.443-1.912,4.058-3.177,7.246-5.78,4,5.952,5.984,8.792,10.358,15.029a2.091,2.091,0,0,0,2.77.6l1.68-.986a2.092,2.092,0,0,0,.914-2.5c-.036-.1-3.529-10.028-7.306-20.045,7.863-8.02,12.2-14.132,8.468-17.861a4.56,4.56,0,0,0-3.293-1.355c-2.247,0-5.74,1.191-14.554,9.811-10.576-3.946-19.96-7.26-20.057-7.294a2.091,2.091,0,0,0-2.5.909l-.987,1.67a2.091,2.091,0,0,0,.624,2.792c3.435,2.337,5.938,4.073,8.358,5.753,2.12,1.472,4.146,2.878,6.633,4.571-3.2,3.823-4.475,5.459-6.881,8.653-3.465-.795-6.058-1.251-6.18-1.272Zm8.7,4.875c3.37-4.483,4.344-5.754,9.05-11.338a2.091,2.091,0,0,0-.428-3.08c-3.4-2.3-5.882-4.02-8.512-5.845l-1.255-.871c3.715,1.344,8.373,3.047,13.213,4.86a2.091,2.091,0,0,0,2.208-.476c8.337-8.3,11.449-9.537,12.561-9.537a.378.378,0,0,1,.336.13c.07.07,1.594,1.848-9.423,12.914a2.092,2.092,0,0,0-.473,2.217c1.809,4.769,3.583,9.611,4.977,13.462-2.043-2.95-3.9-5.68-6.816-10.032a2.091,2.091,0,0,0-3.065-.451c-4.4,3.619-6.018,4.883-8.95,7.177-.723.565-1.521,1.191-2.457,1.926a2.091,2.091,0,0,0-.737,2.15c.284,1.139.575,2.252.841,3.248-.841-1.1-2.557-3.4-2.635-3.478l-.392-.392c-.079-.08-3.218-2.472-3.257-2.5.929.2,1.965.433,3.054.695a2.091,2.091,0,0,0,2.159-.777Z" fill="#006fbe"/>
      <path id="Path_557" data-name="Path 557" d="M39.727,129.636V110.818a2.091,2.091,0,0,0-2.091-2.091H8.364a2.091,2.091,0,0,0-2.091,2.091v6.609a2.091,2.091,0,0,0,4.182,0v-4.518H35.546v14.636H10.455V124.6a2.091,2.091,0,0,0-4.182,0v5.041a2.091,2.091,0,0,0,2.091,2.091H37.636A2.092,2.092,0,0,0,39.727,129.636Z" fill="#006fbe"/>
      <path id="Path_558" data-name="Path 558" d="M20.392,85.19H16.21a2.091,2.091,0,0,0-2.091,2.091v3.656a2.091,2.091,0,0,0,4.182,0V89.372h2.091a2.091,2.091,0,1,0,0-4.182Z" fill="#006fbe"/>
    </g>
  </g>
</svg>
