<svg xmlns="http://www.w3.org/2000/svg" xmlns:xlink="http://www.w3.org/1999/xlink" width="200" height="200" viewBox="0 0 200 200">
  <defs>
    <clipPath id="clip-path">
      <rect id="Rectangle_500" data-name="Rectangle 500" width="200" height="200" transform="translate(970 11805)" fill="#fff"/>
    </clipPath>
  </defs>
  <g id="Mask_Group_107" data-name="Mask Group 107" transform="translate(-970 -11805)" clip-path="url(#clip-path)">
    <g id="communication" transform="translate(946.924 11781.923)">
      <path id="Path_404" data-name="Path 404" d="M188.461,96.153h-3.846V65.384a42.307,42.307,0,0,0-42.307-42.307H65.384A42.307,42.307,0,0,0,23.077,65.384V169.23a3.846,3.846,0,0,0,2.385,3.538,3.231,3.231,0,0,0,1.462.308,3.846,3.846,0,0,0,2.731-1.115l33.461-33.5h21.5v23.077a34.615,34.615,0,0,0,34.615,34.615h71.5L216.5,221.96a3.846,3.846,0,0,0,2.731,1.115,3.231,3.231,0,0,0,1.462-.308,3.846,3.846,0,0,0,2.385-3.538V130.769A34.615,34.615,0,0,0,188.461,96.153ZM61.538,130.769a3.846,3.846,0,0,0-2.731,1.115L30.769,159.961V65.384A34.615,34.615,0,0,1,65.384,30.769h76.923a34.615,34.615,0,0,1,34.615,34.615V96.153H119.23a34.615,34.615,0,0,0-34.615,34.615ZM215.383,209.96l-20.346-20.385a3.846,3.846,0,0,0-2.731-1.115H119.23a26.923,26.923,0,0,1-26.923-26.923V130.769a26.923,26.923,0,0,1,26.923-26.923h69.23a26.923,26.923,0,0,1,26.923,26.923Z" fill="#fff"/>
      <path id="Path_405" data-name="Path 405" d="M65.384,69.23A11.538,11.538,0,1,0,76.923,80.769,11.538,11.538,0,0,0,65.384,69.23Zm0,15.385a3.846,3.846,0,1,1,3.846-3.846A3.846,3.846,0,0,1,65.384,84.615Z" fill="#fff"/>
      <path id="Path_406" data-name="Path 406" d="M103.846,92.307A11.538,11.538,0,1,0,92.307,80.769,11.538,11.538,0,0,0,103.846,92.307Zm0-15.385A3.846,3.846,0,1,1,100,80.769,3.846,3.846,0,0,1,103.846,76.923Z" fill="#fff"/>
      <path id="Path_407" data-name="Path 407" d="M142.307,92.307a11.538,11.538,0,1,0-11.538-11.538A11.538,11.538,0,0,0,142.307,92.307Zm0-15.385a3.846,3.846,0,1,1-3.846,3.846A3.846,3.846,0,0,1,142.307,76.923Z" fill="#fff"/>
      <path id="Path_408" data-name="Path 408" d="M173.076,135.307v-.692a19.231,19.231,0,1,0-38.461,0v.692a11.538,11.538,0,0,0-7.692,10.846v19.231a11.538,11.538,0,0,0,11.538,11.538H169.23a11.538,11.538,0,0,0,11.538-11.538V146.153A11.538,11.538,0,0,0,173.076,135.307Zm-19.231-12.231a11.538,11.538,0,0,1,11.538,11.538H142.307A11.538,11.538,0,0,1,153.845,123.076Zm19.231,42.307a3.846,3.846,0,0,1-3.846,3.846H138.461a3.846,3.846,0,0,1-3.846-3.846V146.153a3.846,3.846,0,0,1,3.846-3.846H169.23a3.846,3.846,0,0,1,3.846,3.846Z" fill="#fff"/>
      <path id="Path_409" data-name="Path 409" d="M153.845,150A3.846,3.846,0,0,0,150,153.845v3.846a3.846,3.846,0,0,0,7.692,0v-3.846A3.846,3.846,0,0,0,153.845,150Z" fill="#fff"/>
    </g>
  </g>
</svg>
