<svg xmlns="http://www.w3.org/2000/svg" xmlns:xlink="http://www.w3.org/1999/xlink" width="200" height="200" viewBox="0 0 200 200">
  <defs>
    <clipPath id="clip-path">
      <rect id="Rectangle_498" data-name="Rectangle 498" width="200" height="200" transform="translate(970 11341)" fill="#fff" stroke="#fff" stroke-width="1"/>
    </clipPath>
  </defs>
  <g id="Mask_Group_105" data-name="Mask Group 105" transform="translate(-970 -11341)" clip-path="url(#clip-path)">
    <path id="process-automation_17915234" d="M91.27,89.371h4.606v-5.72a2.041,2.041,0,0,1,4.082,0v5.72h4.582v-5.72a2.041,2.041,0,0,1,4.082,0v5.72H113.2v-5.72a2.041,2.041,0,0,1,4.082,0v5.72h4.606a2.041,2.041,0,0,1,2.041,2.041v4.606H129.8a2.041,2.041,0,1,1,0,4.082h-5.869v4.582H129.8a2.041,2.041,0,1,1,0,4.082h-5.869v4.582H129.8a2.041,2.041,0,1,1,0,4.082h-5.869v4.606a2.041,2.041,0,0,1-2.041,2.041h-4.606v5.611a2.041,2.041,0,0,1-4.082,0v-5.611H108.62v5.611a2.041,2.041,0,1,1-4.082,0v-5.611H99.957v5.611a2.041,2.041,0,0,1-4.082,0v-5.611H91.27a2.041,2.041,0,0,1-2.041-2.041v-4.606H83.611a2.041,2.041,0,0,1,0-4.082h5.618v-4.582H83.611a2.041,2.041,0,0,1,0-4.082h5.618V100.1H83.611a2.041,2.041,0,0,1,0-4.082h5.618V91.412a2.041,2.041,0,0,1,2.041-2.041ZM77.458,176.626a2.04,2.04,0,0,0-2.043-3.208l-24.52,4.888v0l-.056.011a2.038,2.038,0,0,0-1.532,2.439L54.916,205.1a2.037,2.037,0,0,0,3.706.674l8.741-13.525A94.2,94.2,0,0,0,181.45,49.329a2.036,2.036,0,1,0-3.237,2.472A90.13,90.13,0,0,1,69.595,188.79Zm-19.645,22.9L53.751,181.9l17.736-3.535Zm78.24-162.734a2.041,2.041,0,0,0,2.045,3.208l24.52-4.886v0l.056-.011a2.035,2.035,0,0,0,1.529-2.439L158.595,8.316a2.037,2.037,0,0,0-3.706-.674l-8.725,13.5A94.2,94.2,0,0,0,32.05,164.126a2.035,2.035,0,1,0,3.221-2.488A90.13,90.13,0,0,1,143.929,24.6Zm19.647-22.9,4.062,17.624-17.736,3.535ZM106.706,66.934a39.733,39.733,0,1,0,28.1,11.638,39.617,39.617,0,0,0-28.1-11.638Zm25.212,14.523a35.658,35.658,0,1,0,10.442,25.212A35.548,35.548,0,0,0,131.918,81.457ZM90.374,54.611q-2.328.73-4.542,1.647-2.234.927-4.382,2.05L68.781,51.641a2.04,2.04,0,0,0-2.516.293L51.973,66.227l0,0a2.039,2.039,0,0,0-.362,2.388L58.346,81.41q-1.12,2.144-2.05,4.382Q55.38,88,54.649,90.334L41,94.571a2.041,2.041,0,0,0-1.589,1.992v20.21h0a2.035,2.035,0,0,0,1.438,1.945L54.649,123q.73,2.328,1.647,4.542.927,2.234,2.05,4.382l-6.667,12.667a2.043,2.043,0,0,0,.293,2.517L66.265,161.4l0,0a2.035,2.035,0,0,0,2.388.36l12.794-6.734q2.144,1.124,4.382,2.05,2.211.917,4.542,1.647l4.237,13.654a2.041,2.041,0,0,0,1.992,1.589h20.21v-.007a2.035,2.035,0,0,0,1.945-1.438l4.282-13.8q2.328-.73,4.542-1.647,2.234-.927,4.382-2.05l12.669,6.667a2.043,2.043,0,0,0,2.516-.293L161.438,147.1l0,0a2.039,2.039,0,0,0,.362-2.39l-6.734-12.794q1.124-2.144,2.05-4.382.917-2.211,1.647-4.544l13.654-4.237A2.039,2.039,0,0,0,174,116.761V96.552h0a2.037,2.037,0,0,0-1.438-1.945l-13.8-4.282q-.73-2.331-1.647-4.542-.927-2.234-2.05-4.382l6.667-12.669a2.043,2.043,0,0,0-.293-2.516L147.146,51.924l0,0a2.039,2.039,0,0,0-2.388-.362L131.962,58.3q-2.144-1.12-4.382-2.05-2.211-.917-4.542-1.647L118.8,40.946a2.041,2.041,0,0,0-1.992-1.589H96.6v.007A2.035,2.035,0,0,0,94.655,40.8ZM98.1,43.452,93.942,56.843A2.033,2.033,0,0,1,92.563,58.2a50.567,50.567,0,0,0-10.126,4.2,2.038,2.038,0,0,1-1.93.016l-12.42-6.536L55.916,68.052l6.5,12.356a2.034,2.034,0,0,1,.018,1.994A50.657,50.657,0,0,0,58.255,92.45,2.028,2.028,0,0,1,56.877,93.9L43.485,98.061v17.215l13.392,4.157v0a2.029,2.029,0,0,1,1.356,1.378,50.4,50.4,0,0,0,4.2,10.126,2.038,2.038,0,0,1,.016,1.93l-6.536,12.42,12.171,12.171,12.356-6.5a2.034,2.034,0,0,1,1.994-.018,50.471,50.471,0,0,0,10.048,4.179,2.028,2.028,0,0,1,1.454,1.378L98.1,169.89h17.215l4.155-13.392h0a2.029,2.029,0,0,1,1.378-1.356,49.881,49.881,0,0,0,5.171-1.823,50.877,50.877,0,0,0,4.953-2.379,2.039,2.039,0,0,1,1.93-.016l12.42,6.536,12.173-12.171-6.5-12.356a2.04,2.04,0,0,1-.02-1.994,50.471,50.471,0,0,0,4.179-10.048,2.035,2.035,0,0,1,1.378-1.456l13.392-4.157V98.063l-13.392-4.155a2.033,2.033,0,0,1-1.356-1.378,50.714,50.714,0,0,0-1.823-5.169,50.132,50.132,0,0,0-2.379-4.953,2.032,2.032,0,0,1-.016-1.93l6.536-12.42L145.321,55.887l-12.356,6.5a2.034,2.034,0,0,1-1.994.018,50.37,50.37,0,0,0-4.953-2.379,49.658,49.658,0,0,0-5.1-1.8,2.035,2.035,0,0,1-1.456-1.378l-4.155-13.392H98.1Zm1.552,54.3a2.041,2.041,0,0,0-2.041,2.041v13.861a2.041,2.041,0,0,0,2.041,2.041h13.861a2.041,2.041,0,0,0,2.041-2.041V99.793a2.041,2.041,0,0,0-2.041-2.041Zm11.82,4.082h-9.779v9.779h9.779Zm8.381-8.381H93.31v26.541h26.541V93.453Z" transform="translate(963.295 11334.294)" fill="#fff" stroke="#fff" stroke-width="2.223" fill-rule="evenodd"/>
  </g>
</svg>
