<svg xmlns="http://www.w3.org/2000/svg" xmlns:xlink="http://www.w3.org/1999/xlink" width="200" height="200" viewBox="0 0 200 200">
  <defs>
    <clipPath id="clip-path">
      <rect id="Rectangle_497" data-name="Rectangle 497" width="200" height="200" transform="translate(280 11341)" fill="#fff" stroke="#fff" stroke-width="1"/>
    </clipPath>
  </defs>
  <g id="Mask_Group_104" data-name="Mask Group 104" transform="translate(-280 -11341)" clip-path="url(#clip-path)">
    <path id="devops_12465365" d="M206.057,131.206a51.264,51.264,0,0,0-24.472-39.8v-9.5a6.174,6.174,0,0,0-4.913-6.079L163.495,73a1.159,1.159,0,0,1-.909-.8,60.779,60.779,0,0,0-2.548-6.141,1.16,1.16,0,0,1,.075-1.212l7.319-11.327a6.173,6.173,0,0,0-.826-7.771l-14.19-14.19a6.173,6.173,0,0,0-7.771-.826l-11.327,7.319a1.16,1.16,0,0,1-1.212.075,59.836,59.836,0,0,0-6.141-2.548,1.159,1.159,0,0,1-.8-.909l-2.83-13.182a6.17,6.17,0,0,0-6.079-4.908H96.187a6.174,6.174,0,0,0-6.079,4.913l-2.83,13.182a1.159,1.159,0,0,1-.8.909,60,60,0,0,0-6.141,2.548,1.16,1.16,0,0,1-1.212-.075L67.8,30.733a6.173,6.173,0,0,0-7.771.826l-14.19,14.19a6.173,6.173,0,0,0-.826,7.771L52.33,64.848a1.16,1.16,0,0,1,.075,1.212A58.921,58.921,0,0,0,49.857,72.2a1.159,1.159,0,0,1-.909.8l-13.182,2.83a6.174,6.174,0,0,0-4.913,6.079V99.942A51.342,51.342,0,0,0,54.69,195.049c.934.05,1.863.079,2.8.079a51.888,51.888,0,0,0,22.821-5.319l-.83,2.875a2.492,2.492,0,0,0,1.7,3.083,2.52,2.52,0,0,0,.693.1,2.492,2.492,0,0,0,2.39-1.8l2.655-9.195a2.492,2.492,0,0,0-1.7-3.083l-9.195-2.655a2.49,2.49,0,1,0-1.382,4.784l4.016,1.162a46.624,46.624,0,0,1-51.2-6.029,46.358,46.358,0,1,1,60.209-70.507,45.921,45.921,0,0,1,16.07,31.169,51.339,51.339,0,0,0,102.323-8.506ZM35.837,97.278V81.905a1.22,1.22,0,0,1,.979-1.212l13.178-2.83a6.085,6.085,0,0,0,4.56-4.021,54.323,54.323,0,0,1,2.336-5.626,6.1,6.1,0,0,0-.378-6.074L49.193,50.815a1.2,1.2,0,0,1,.166-1.548l14.19-14.19a1.206,1.206,0,0,1,1.548-.166l11.327,7.323a6.1,6.1,0,0,0,6.074.378,54.478,54.478,0,0,1,5.626-2.336,6.092,6.092,0,0,0,4.021-4.56l2.83-13.182a1.2,1.2,0,0,1,1.212-.979h20.07a1.2,1.2,0,0,1,1.212.979l2.83,13.182a6.085,6.085,0,0,0,4.021,4.56,54.324,54.324,0,0,1,5.626,2.336,6.1,6.1,0,0,0,6.074-.378l11.327-7.319a1.216,1.216,0,0,1,1.548.166l14.19,14.19a1.2,1.2,0,0,1,.166,1.548l-7.319,11.327a6.1,6.1,0,0,0-.378,6.074,54.865,54.865,0,0,1,2.336,5.626,6.085,6.085,0,0,0,4.56,4.021l13.182,2.83a1.213,1.213,0,0,1,.979,1.212v6.83a51.535,51.535,0,0,0-25.4-4.705,45.669,45.669,0,0,0-90.647,7.908c0,.207.008.411.012.618a51.649,51.649,0,0,0-24.737,4.718Zm106.07-11.713a36.25,36.25,0,0,0-71.935,6.377c0,.685.025,1.369.066,2.054-1.481-.369-2.979-.672-4.481-.9-.012-.382-.021-.768-.021-1.149a40.688,40.688,0,0,1,80.714-7.307q-2.191.367-4.344.929Zm48.226,79.776a46.355,46.355,0,0,1-81.428-26.02A51.328,51.328,0,0,0,75.158,95.556a31.944,31.944,0,0,1-.212-3.618,31.271,31.271,0,0,1,62.159-4.884,50.852,50.852,0,0,0-5.838,2.577l.9-3.112a2.49,2.49,0,0,0-4.784-1.382l-2.655,9.2a2.492,2.492,0,0,0,1.7,3.083l9.2,2.655a2.52,2.52,0,0,0,.693.1,2.491,2.491,0,0,0,.689-4.884l-3.738-1.079a46.363,46.363,0,0,1,56.861,71.13Z" transform="translate(273.781 11334.778)" fill="#fff" stroke="#fff" stroke-width="0.415"/>
  </g>
</svg>
