<svg id="Layer_1" enable-background="new 0 0 80 80" height="512" viewBox="0 0 80 80" width="512" xmlns="http://www.w3.org/2000/svg"><path d="m48.2 24.75c0-4.52-3.68-8.2-8.2-8.2s-8.2 3.68-8.2 8.2 3.68 8.2 8.2 8.2 8.2-3.68 8.2-8.2zm-14.4 0c0-3.42 2.78-6.2 6.2-6.2s6.2 2.78 6.2 6.2-2.78 6.2-6.2 6.2-6.2-2.78-6.2-6.2z"/><path d="m20.9 56.55c3.72 0 6.74-3.03 6.74-6.74s-3.03-6.74-6.74-6.74-6.74 3.03-6.74 6.74 3.02 6.74 6.74 6.74zm0-11.48c2.62 0 4.74 2.13 4.74 4.74s-2.13 4.74-4.74 4.74-4.74-2.13-4.74-4.74 2.13-4.74 4.74-4.74z"/><path d="m63.99 57.54c-.25 0-.49.09-.67.26l-4.23 3.82-4.23-3.82c-.18-.17-.42-.26-.67-.26-3.41 0-6.24 2.46-6.74 5.66h-6.45v-20.7h1.01c.5 0 .92-.36.99-.86l.51-3.49c1.22-.32 2.39-.81 3.49-1.45l2.83 2.11c.4.3.95.26 1.3-.09l2.84-2.84c.35-.35.39-.91.09-1.3l-2.11-2.83c.65-1.1 1.13-2.27 1.45-3.49l3.49-.51c.49-.07.86-.49.86-.99v-4.01c0-.5-.36-.92-.86-.99l-3.49-.51c-.32-1.22-.81-2.39-1.45-3.49l2.11-2.83c.3-.4.26-.95-.09-1.3l-2.84-2.84c-.35-.35-.91-.39-1.3-.09l-2.83 2.09c-1.1-.65-2.27-1.13-3.49-1.45l-.51-3.49c-.08-.49-.5-.85-.99-.85h-4.01c-.5 0-.92.36-.99.86l-.51 3.49c-1.22.32-2.39.81-3.49 1.45l-2.83-2.11c-.4-.3-.95-.26-1.3.09l-2.84 2.84c-.35.35-.39.91-.09 1.3l2.11 2.83c-.65 1.1-1.13 2.27-1.45 3.49l-3.49.51c-.49.07-.86.49-.86.99v4.01c0 .5.36.92.86.99l3.49.51c.32 1.22.81 2.39 1.45 3.49l-2.11 2.83c-.3.4-.26.95.09 1.3l2.84 2.84c.35.35.91.39 1.3.09l2.82-2.09c1.1.65 2.27 1.13 3.49 1.45l.51 3.49c.07.49.49.86.99.86h1.01v20.7h-6.46c-.5-3.2-3.33-5.66-6.74-5.66-.25 0-.49.09-.67.26l-4.23 3.82-4.23-3.82c-.18-.17-.42-.26-.67-.26-3.76 0-6.83 2.99-6.83 6.66v7.79c0 .55.45 1 1 1h21.45c.55 0 1-.45 1-1v-6.8h14.75v6.8c0 .55.45 1 1 1h21.45c.55 0 1-.45 1-1v-7.8c0-3.67-3.06-6.66-6.83-6.66zm-25.61-20.34c-.06-.42-.38-.75-.79-.83-1.45-.3-2.83-.87-4.09-1.7-.35-.23-.81-.22-1.15.03l-2.68 2-1.61-1.61 2-2.68c.25-.34.26-.79.03-1.15-.83-1.26-1.4-2.64-1.7-4.09-.09-.41-.42-.73-.83-.79l-3.3-.48v-2.28l3.3-.48c.42-.06.75-.38.83-.79.3-1.45.87-2.83 1.7-4.09.23-.35.22-.81-.03-1.15l-2-2.68 1.61-1.61 2.68 2c.34.25.79.26 1.15.03 1.26-.83 2.64-1.4 4.09-1.7.41-.08.73-.42.79-.83l.48-3.32h2.28l.48 3.3c.06.42.38.75.79.83 1.45.3 2.83.87 4.09 1.7.35.23.81.22 1.15-.03l2.68-2 1.61 1.61-2 2.68c-.25.34-.26.79-.03 1.15.83 1.26 1.4 2.64 1.7 4.09.09.41.42.73.83.79l3.3.48v2.28l-3.3.48c-.42.06-.75.38-.83.79-.3 1.45-.87 2.83-1.7 4.09-.23.35-.22.81.03 1.15l2 2.68-1.61 1.61-2.68-2c-.34-.25-.8-.27-1.15-.03-1.26.83-2.64 1.4-4.09 1.7-.41.08-.73.42-.79.83l-.48 3.3h-2.28zm-7.75 33.8h-4.48v-1.9c0-.55-.45-1-1-1s-1 .45-1 1v1.9h-6.49v-1.9c0-.55-.45-1-1-1s-1 .45-1 1v1.9h-4.48v-6.8c0-2.45 1.97-4.47 4.46-4.65l4.6 4.16c.38.34.96.34 1.34 0l4.6-4.16c2.49.18 4.46 2.2 4.46 4.65v6.8zm38.19 0h-4.48v-1.9c0-.55-.45-1-1-1s-1 .45-1 1v1.9h-6.49v-1.9c0-.55-.45-1-1-1s-1 .45-1 1v1.9h-4.48v-6.8c0-2.45 1.97-4.47 4.46-4.65l4.6 4.16c.38.34.96.34 1.34 0l4.6-4.16c2.49.18 4.46 2.2 4.46 4.65v6.8z"/><path d="m52.35 49.81c0 3.72 3.03 6.74 6.74 6.74s6.74-3.03 6.74-6.74-3.03-6.74-6.74-6.74-6.74 3.02-6.74 6.74zm6.75-4.74c2.62 0 4.74 2.13 4.74 4.74s-2.13 4.74-4.74 4.74-4.74-2.13-4.74-4.74 2.12-4.74 4.74-4.74z"/></svg>