<svg id="Layer_1" viewBox="0 0 512 512" xmlns="http://www.w3.org/2000/svg" data-name="Layer 1"><path d="m480.744 270.274h-66.895c-3.313 0-6 2.687-6 6v11.089c-68.911-2.523-133.712-3.313-150.342 6.29l-13.736 7.931-13.736-7.931c-16.021-9.249-69.35-8.718-125.885-6.49v-10.889c0-3.313-2.687-6-6-6h-66.894c-3.313 0-6 2.687-6 6v147.506c0 3.313 2.687 6 6 6h66.895c3.313 0 6-2.687 6-6v-7.668l15.607 8.824c-3.323 8.867-1.431 19.26 5.689 26.381 4.855 4.854 11.232 7.281 17.609 7.281 1.72 0 3.439-.183 5.129-.536.324 5.58 2.586 11.067 6.84 15.321 4.446 4.447 10.377 6.896 16.699 6.896 2.635 0 5.2-.432 7.619-1.25.806 3.92 2.716 7.656 5.752 10.691 3.991 3.992 9.314 6.19 14.988 6.19 2.921 0 5.745-.592 8.346-1.702.909 2.951 2.52 5.73 4.851 8.062 3.822 3.821 8.843 5.732 13.863 5.732s10.041-1.911 13.862-5.733l10.696-10.696c1.501-1.501 2.712-3.213 3.64-5.061l8.78 5.069c3.534 2.04 7.396 3.009 11.209 3.009 7.781 0 15.358-4.035 19.521-11.243 1.895-3.281 2.865-6.847 2.994-10.394 10.698 5.971 24.291 2.245 30.438-8.398 2.123-3.679 3.087-7.713 3.004-11.678 9.258 1.933 19.116-2.15 24.095-10.771 1.897-3.286 2.868-6.856 2.994-10.407 5.562 2.95 11.954 3.673 18.098 2.026 2.757-.739 5.302-1.939 7.59-3.493.017-.01.034-.016.051-.026l23.733-14.394v7.967c0 3.313 2.687 6 6 6h66.895c3.313 0 6-2.687 6-6v-147.506c0-3.313-2.687-6-6-6zm-388.594 147.506h-54.895v-135.506h54.895zm60.03 25.052c-2.423 2.422-5.663 3.756-9.124 3.756s-6.702-1.335-9.125-3.757c-2.422-2.423-3.756-5.663-3.756-9.124s1.334-6.701 3.756-9.124l14.86-14.86c2.423-2.422 5.663-3.756 9.124-3.756s6.701 1.334 9.124 3.756c2.423 2.423 3.757 5.664 3.757 9.125s-1.334 6.701-3.758 9.124zm32.914 16.911c-.006.006-.012.014-.018.02l-5.136 5.136c-4.531 4.527-11.899 4.527-16.429 0-2.18-2.181-3.381-5.099-3.381-8.215s1.201-6.034 3.382-8.215l13.847-13.848c2.265-2.265 5.239-3.396 8.214-3.396s5.951 1.132 8.216 3.396c4.524 4.525 4.527 11.885.012 16.416l-8.706 8.705zm31.559 11.429-3.372 3.372s-.005.006-.008.009l-6.684 6.685c-3.588 3.584-9.422 3.585-13.01 0-3.585-3.585-3.585-9.418-.003-13.004l8.698-8.697s.006-.007.009-.01l3.245-3.245c1.726-1.725 4.035-2.675 6.504-2.675s4.778.95 6.505 2.677c1.726 1.725 2.676 4.034 2.676 6.503s-.95 4.778-2.677 6.504l-1.883 1.883zm26.566 11.917-10.696 10.696c-2.966 2.965-7.789 2.965-10.757 0-2.96-2.961-2.964-7.775-.013-10.742l5.268-5.269s.003-.004.005-.005l5.436-5.435c1.483-1.483 3.431-2.225 5.379-2.225s3.896.741 5.378 2.224c1.433 1.433 2.166 3.299 2.215 5.18.003.082.001.163.007.245-.011 1.932-.75 3.861-2.221 5.332zm137.991-66.944c-.022.038-.049.073-.071.111-.204.344-.419.679-.651 1-.092.128-.196.245-.292.368-.176.226-.352.451-.542.664-.105.118-.22.226-.329.34-.201.208-.403.415-.618.608-.107.097-.22.186-.33.279-.232.196-.469.387-.716.567-1.273.927-2.717 1.63-4.291 2.052-3.342.897-6.819.446-9.785-1.267l-16.436-9.49-54.862-31.675c-2.872-1.655-6.539-.673-8.196 2.196-1.656 2.87-.674 6.539 2.196 8.196l54.862 31.675.026.015c4.991 2.901 6.704 9.319 3.816 14.321-2.895 5.011-9.326 6.736-14.338 3.842l-10.575-6.104c-.009-.005-.02-.011-.028-.017l-36.961-21.34c-2.871-1.654-6.54-.673-8.196 2.196-1.656 2.87-.674 6.539 2.196 8.196l36.961 21.34c5.012 2.894 6.735 9.325 3.842 14.337s-9.327 6.734-14.337 3.841l-16.937-9.778-10.825-6.251c-2.868-1.655-6.539-.673-8.196 2.196-1.656 2.869-.674 6.539 2.196 8.196l10.825 6.251.019.011c4.997 2.899 6.713 9.321 3.823 14.326-2.894 5.011-9.325 6.733-14.337 3.842l-13.13-7.581c-.775-3.677-2.581-7.052-5.291-9.761-5.105-5.105-12.346-6.783-18.871-5.068-.784-4.143-2.775-7.949-5.811-10.985-4.872-4.87-11.541-6.846-17.891-5.976-.244-5.704-2.512-11.336-6.857-15.681-5.314-5.315-12.55-7.542-19.49-6.723.004-.189.014-.377.014-.567 0-6.667-2.583-12.921-7.272-17.609-4.688-4.689-10.942-7.271-17.608-7.271s-12.92 2.582-17.608 7.271l-13.763 13.762-22.395-12.671v-103.16c33.367-1.346 104.928-3.759 119.886 4.876l7.735 4.466-25.635 14.8c-6.821 3.938-11.708 10.321-13.758 17.973-2.051 7.651-1.011 15.622 2.928 22.443 8.158 14.129 26.288 18.985 40.417 10.83l25.051-14.463c12.174-7.029 35.44-7.918 46.103-1.764l69.611 40.187c.371.214.729.445 1.072.691 2.407 1.726 4.134 4.224 4.918 7.149.224.836.364 1.68.42 2.522.029.421.037.842.024 1.261-.064 2.095-.642 4.148-1.712 6.002zm26.639-14.366-12.916 7.833c0-.041-.004-.083-.005-.124-.005-.473-.022-.946-.055-1.42-.006-.089-.018-.178-.024-.267-.031-.392-.071-.784-.121-1.176-.021-.159-.044-.318-.067-.476-.05-.339-.107-.678-.171-1.017-.028-.151-.055-.302-.087-.453-.099-.476-.207-.952-.334-1.425-1.726-6.44-5.839-11.812-11.581-15.128l-10.348-5.975s-.009-.004-.014-.007l-59.25-34.205c-15.755-9.096-43.668-6.569-58.103 1.764l-25.051 14.463c-8.396 4.846-19.175 1.962-24.024-6.438-2.336-4.046-2.95-8.782-1.729-13.338 1.221-4.555 4.121-8.35 8.167-10.686l34.583-19.966c.006-.003.011-.007.017-.01l16.771-9.683c15.687-9.061 104.278-6.173 144.341-4.676v102.409zm66.895 16.001h-54.895v-135.506h54.895zm-339.796-245.128h8.286c2.44 8.514 5.839 16.71 10.145 24.465l-5.866 5.867c-2.872 2.872-4.454 6.696-4.454 10.77s1.582 7.898 4.454 10.77l24.243 24.243c5.937 5.938 15.6 5.94 21.538 0l5.873-5.872c7.758 4.307 15.953 7.705 24.46 10.143v8.293c0 8.398 6.832 15.23 15.23 15.23h34.285c8.398 0 15.23-6.832 15.23-15.23v-8.286c8.514-2.44 16.71-5.839 24.465-10.145l5.868 5.866c5.937 5.939 15.6 5.941 21.538 0l24.243-24.243c5.938-5.938 5.938-15.601 0-21.538l-5.872-5.872c4.308-7.761 7.706-15.955 10.144-24.461h8.293c8.398 0 15.23-6.832 15.23-15.23v-34.285c0-8.398-6.832-15.23-15.23-15.23h-8.293c-2.438-8.509-5.836-16.704-10.142-24.462l5.87-5.871c5.938-5.938 5.938-15.601 0-21.538l-24.243-24.243c-5.936-5.938-15.599-5.939-21.538 0l-5.869 5.868c-7.757-4.308-15.953-7.706-24.464-10.146v-8.287c0-8.398-6.832-15.23-15.23-15.23h-34.285c-8.398 0-15.23 6.832-15.23 15.23v8.294c-8.509 2.438-16.704 5.836-24.462 10.142l-5.871-5.87c-5.938-5.939-15.602-5.938-21.538 0l-24.243 24.242c-2.872 2.872-4.454 6.696-4.454 10.77s1.582 7.898 4.454 10.77l5.867 5.868c-4.308 7.758-7.706 15.953-10.146 24.465h-8.286c-8.398 0-15.231 6.832-15.231 15.23v34.285c0 8.398 6.833 15.23 15.231 15.23zm-3.231-49.516c0-1.781 1.449-3.23 3.231-3.23h12.903c2.768 0 5.177-1.894 5.83-4.583 2.549-10.486 6.697-20.491 12.331-29.736 1.44-2.364 1.076-5.407-.882-7.364l-9.134-9.135c-.817-.816-.939-1.781-.939-2.284s.122-1.467.939-2.284l24.243-24.243c1.26-1.257 3.31-1.259 4.569 0l9.137 9.137c1.958 1.957 4.999 2.323 7.363.882 9.247-5.633 19.251-9.779 29.734-12.327 2.689-.653 4.583-3.062 4.583-5.83v-12.911c0-1.781 1.449-3.23 3.23-3.23h34.285c1.781 0 3.23 1.449 3.23 3.23v12.904c0 2.768 1.894 5.177 4.583 5.83 10.485 2.549 20.489 6.697 29.735 12.331 2.363 1.439 5.405 1.075 7.364-.881l9.135-9.135c1.261-1.259 3.311-1.257 4.569 0l24.243 24.243c1.259 1.26 1.259 3.31 0 4.569l-9.137 9.137c-1.958 1.957-2.322 4.999-.882 7.363 5.632 9.247 9.779 19.251 12.327 29.734.653 2.689 3.062 4.583 5.83 4.583h12.91c1.781 0 3.23 1.449 3.23 3.23v34.285c0 1.781-1.449 3.23-3.23 3.23h-12.91c-2.768 0-5.177 1.894-5.83 4.583-2.547 10.479-6.694 20.482-12.328 29.733-1.44 2.364-1.076 5.406.882 7.363l9.138 9.138c1.259 1.26 1.259 3.31 0 4.569l-24.243 24.243c-1.261 1.259-3.311 1.258-4.569 0l-9.134-9.133c-1.958-1.957-5.001-2.32-7.364-.881-9.241 5.631-19.246 9.779-29.737 12.33-2.688.654-4.582 3.062-4.582 5.83v12.903c0 1.781-1.449 3.23-3.23 3.23h-34.285c-1.781 0-3.23-1.449-3.23-3.23v-12.91c0-2.768-1.894-5.177-4.583-5.83-10.48-2.547-20.483-6.694-29.732-12.328-.967-.589-2.046-.876-3.119-.876-1.551 0-3.087.601-4.244 1.757l-9.139 9.139c-1.26 1.259-3.31 1.257-4.569 0l-24.243-24.244c-.817-.816-.939-1.781-.939-2.284s.122-1.467.94-2.284l9.133-9.134c1.957-1.957 2.321-5 .881-7.364-5.631-9.241-9.779-19.246-12.33-29.737-.654-2.688-3.062-4.582-5.83-4.582h-12.903c-1.782 0-3.231-1.449-3.231-3.23v-34.285zm124.283 103.867c47.82 0 86.725-38.904 86.725-86.725s-38.904-86.725-86.725-86.725-86.725 38.904-86.725 86.725 38.904 86.725 86.725 86.725zm32.605-19.502c4.015-5.591 7.49-12.232 10.317-19.679 3.766 1.332 7.319 2.841 10.601 4.527-6.016 6.182-13.081 11.336-20.917 15.152zm28.703-24.577c-4.493-2.481-9.439-4.661-14.748-6.515 2.434-9.243 3.95-19.388 4.363-30.13h23.539c-1.083 13.549-5.787 26.086-13.154 36.646zm0-85.291c7.367 10.559 12.072 23.096 13.154 36.646h-23.539c-.414-10.742-1.929-20.887-4.363-30.13 5.309-1.854 10.254-4.034 14.748-6.515zm-7.786-9.425c-3.281 1.686-6.834 3.195-10.6 4.527-2.827-7.448-6.302-14.088-10.317-19.679 7.837 3.816 14.901 8.97 20.917 15.152zm-47.522-21.724c10.2 3.16 19.226 14.198 25.258 29.631-7.895 1.832-16.414 2.964-25.258 3.317zm0 44.957c10.107-.378 19.883-1.71 28.952-3.894 2.161 8.226 3.542 17.26 3.957 26.731h-32.909zm0 34.837h32.909c-.416 9.471-1.796 18.505-3.957 26.731-9.069-2.183-18.845-3.515-28.952-3.894zm0 34.846c8.844.354 17.364 1.485 25.258 3.317-6.032 15.432-15.059 26.471-25.258 29.631zm-59.522 11.224c3.282-1.686 6.835-3.195 10.601-4.527 2.827 7.448 6.302 14.088 10.317 19.679-7.837-3.816-14.901-8.97-20.917-15.152zm47.522 21.724c-10.2-3.16-19.226-14.198-25.258-29.631 7.895-1.832 16.414-2.964 25.258-3.317zm0-44.957c-10.107.378-19.883 1.71-28.952 3.894-2.161-8.226-3.542-17.26-3.957-26.731h32.909zm0-34.837h-32.909c.416-9.471 1.796-18.505 3.957-26.731 9.069 2.183 18.845 3.515 28.952 3.894zm0-67.794v32.948c-8.844-.354-17.364-1.485-25.258-3.317 6.032-15.432 15.059-26.471 25.258-29.631zm-26.605 6.572c-4.015 5.591-7.49 12.232-10.317 19.679-3.766-1.332-7.319-2.841-10.6-4.527 6.016-6.182 13.08-11.336 20.917-15.152zm-28.703 24.577c4.493 2.481 9.439 4.661 14.748 6.515-2.434 9.243-3.95 19.388-4.363 30.13h-23.539c1.083-13.549 5.787-26.086 13.154-36.646zm-13.154 48.646h23.539c.414 10.742 1.929 20.887 4.363 30.13-5.309 1.854-10.254 4.034-14.748 6.515-7.367-10.559-12.072-23.096-13.154-36.646z"/></svg>