<svg id="Layer_1" enable-background="new 0 0 500 500" viewBox="0 0 500 500" xmlns="http://www.w3.org/2000/svg"><g><path d="m217.398 359.933c-3.807 0-6.892-3.085-6.892-6.892v-43.319c0-3.807 3.085-6.892 6.892-6.892s6.892 3.085 6.892 6.892v43.319c0 3.807-3.085 6.892-6.892 6.892z"/><path d="m282.602 359.933c-3.806 0-6.892-3.085-6.892-6.892v-43.319c0-3.807 3.086-6.892 6.892-6.892 3.807 0 6.892 3.085 6.892 6.892v43.319c0 3.807-3.085 6.892-6.892 6.892z"/><path d="m250 260.921c-18.033 0-32.704-14.672-32.704-32.705 0-18.032 14.672-32.701 32.704-32.701s32.701 14.669 32.701 32.701c.001 18.033-14.669 32.705-32.701 32.705zm0-51.622c-10.433 0-18.921 8.486-18.921 18.917 0 10.433 8.488 18.921 18.921 18.921 10.432 0 18.917-8.488 18.917-18.921.001-10.432-8.485-18.917-18.917-18.917z"/><path d="m250 365.411c-21.179 0-41.89-5.788-59.893-16.739-2.057-1.249-3.311-3.481-3.311-5.888v-40.808c0-20.633 16.786-37.418 37.418-37.418h51.568c20.633 0 37.421 16.785 37.421 37.418v40.808c0 2.407-1.255 4.639-3.311 5.888-18.002 10.951-38.712 16.739-59.892 16.739zm-49.42-26.587c15.052 8.389 32.053 12.804 49.42 12.804s34.368-4.415 49.419-12.804v-36.848c0-13.033-10.604-23.634-23.637-23.634h-51.568c-13.032 0-23.634 10.601-23.634 23.634z"/><path d="m250 365.414c-63.64 0-115.413-51.773-115.413-115.413s51.773-115.413 115.413-115.413 115.412 51.773 115.412 115.413c.001 63.641-51.772 115.413-115.412 115.413zm0-217.041c-56.038 0-101.629 45.592-101.629 101.629s45.592 101.629 101.629 101.629 101.629-45.592 101.629-101.629c.001-56.038-45.591-101.629-101.629-101.629z"/><path d="m374.518 127.89c-23.048 0-41.795-18.748-41.795-41.795 0-23.048 18.748-41.799 41.795-41.799 23.048 0 41.796 18.751 41.796 41.799 0 23.047-18.749 41.795-41.796 41.795zm0-69.81c-15.445 0-28.012 12.567-28.012 28.015 0 15.445 12.567 28.011 28.012 28.011s28.012-12.567 28.012-28.011c0-15.448-12.567-28.015-28.012-28.015z"/><path d="m433.205 291.797c-23.048 0-41.798-18.749-41.798-41.796s18.751-41.795 41.798-41.795c23.048 0 41.795 18.748 41.795 41.795s-18.748 41.796-41.795 41.796zm0-69.807c-15.448 0-28.015 12.567-28.015 28.011 0 15.445 12.568 28.012 28.015 28.012 15.445 0 28.012-12.567 28.012-28.012s-12.568-28.011-28.012-28.011z"/><path d="m398.298 256.893h-39.777c-3.807 0-6.892-3.085-6.892-6.892s3.085-6.892 6.892-6.892h39.777c3.807 0 6.891 3.085 6.891 6.892s-3.084 6.892-6.891 6.892z"/><path d="m313.656 169c-1.51 0-3.031-.495-4.302-1.513-2.972-2.377-3.452-6.714-1.071-9.687l39.047-48.774c2.375-2.972 6.714-3.457 9.687-1.071 2.972 2.377 3.451 6.714 1.071 9.686l-39.047 48.774c-1.36 1.699-3.363 2.585-5.385 2.585z"/><path d="m374.518 455.704c-23.048 0-41.795-18.749-41.795-41.796 0-23.048 18.748-41.795 41.795-41.795 23.048 0 41.796 18.748 41.796 41.795 0 23.048-18.749 41.796-41.796 41.796zm0-69.807c-15.445 0-28.012 12.567-28.012 28.012s12.567 28.012 28.012 28.012 28.012-12.567 28.012-28.012c0-15.446-12.567-28.012-28.012-28.012z"/><path d="m352.715 393.558c-2.022 0-4.025-.883-5.385-2.584l-39.047-48.774c-2.38-2.972-1.901-7.309 1.071-9.687 2.972-2.386 7.307-1.903 9.687 1.071l39.047 48.774c2.38 2.972 1.901 7.309-1.071 9.687-1.271 1.018-2.792 1.513-4.302 1.513z"/><path d="m125.48 127.89c-23.048 0-41.796-18.748-41.796-41.795 0-23.048 18.749-41.799 41.796-41.799 23.048 0 41.798 18.751 41.798 41.799 0 23.047-18.751 41.795-41.798 41.795zm0-69.81c-15.445 0-28.012 12.567-28.012 28.015 0 15.445 12.567 28.011 28.012 28.011 15.448 0 28.014-12.567 28.014-28.011 0-15.448-12.567-28.015-28.014-28.015z"/><path d="m66.796 291.797c-23.047 0-41.796-18.748-41.796-41.796s18.749-41.795 41.796-41.795c23.048 0 41.795 18.748 41.795 41.795s-18.747 41.796-41.795 41.796zm0-69.807c-15.445 0-28.012 12.567-28.012 28.011 0 15.445 12.567 28.012 28.012 28.012s28.012-12.567 28.012-28.012-12.567-28.011-28.012-28.011z"/><path d="m141.479 256.893h-39.779c-3.807 0-6.892-3.085-6.892-6.892s3.085-6.892 6.892-6.892h39.78c3.806 0 6.892 3.085 6.892 6.892-.001 3.807-3.086 6.892-6.893 6.892z"/><path d="m186.341 169c-2.022 0-4.024-.883-5.384-2.584l-39.047-48.774c-2.38-2.972-1.901-7.309 1.071-9.686 2.969-2.385 7.309-1.904 9.687 1.071l39.047 48.774c2.38 2.972 1.901 7.31-1.071 9.687-1.272 1.016-2.792 1.512-4.303 1.512z"/><path d="m125.48 455.704c-23.048 0-41.796-18.749-41.796-41.796 0-23.048 18.749-41.795 41.796-41.795 23.048 0 41.798 18.748 41.798 41.795 0 23.048-18.751 41.796-41.798 41.796zm0-69.807c-15.445 0-28.012 12.567-28.012 28.012s12.567 28.012 28.012 28.012c15.448 0 28.014-12.567 28.014-28.012 0-15.446-12.567-28.012-28.014-28.012z"/><path d="m147.283 393.558c-1.51 0-3.031-.495-4.302-1.512-2.972-2.378-3.451-6.714-1.071-9.687l39.047-48.774c2.372-2.969 6.712-3.457 9.687-1.071 2.972 2.377 3.451 6.714 1.071 9.687l-39.047 48.774c-1.36 1.697-3.362 2.583-5.385 2.583z"/><path d="m250 452.665c-32.721 0-65.277-8.025-94.154-23.207-2.88-1.515-4.31-4.837-3.427-7.969.713-2.53 1.074-5.08 1.074-7.581 0-15.445-12.567-28.012-28.012-28.012-5.082 0-10.093 1.41-14.489 4.078-2.784 1.688-6.364 1.2-8.596-1.171-27.299-29.021-45.296-65.021-52.045-104.106-.403-2.339.426-4.719 2.192-6.304 1.766-1.58 4.219-2.138 6.501-1.494 2.577.74 5.185 1.114 7.751 1.114 15.445 0 28.012-12.567 28.012-28.012 0-15.448-12.567-28.014-28.012-28.014-2.569 0-5.174.374-7.745 1.114-2.278.658-4.736.097-6.507-1.491-1.766-1.583-2.595-3.965-2.192-6.305 6.75-39.087 24.746-75.087 52.045-104.105 2.231-2.367 5.812-2.862 8.596-1.168 4.396 2.665 9.407 4.075 14.489 4.075 15.445 0 28.012-12.567 28.012-28.011 0-2.502-.361-5.054-1.074-7.584-.883-3.131.546-6.454 3.427-7.969 28.877-15.182 61.433-23.208 94.154-23.208 32.717 0 65.274 8.026 94.15 23.207 2.881 1.513 4.308 4.832 3.43 7.963-.714 2.536-1.074 5.088-1.074 7.59 0 15.445 12.567 28.011 28.012 28.011 5.083 0 10.091-1.411 14.487-4.075 2.787-1.686 6.365-1.206 8.596 1.168 27.298 29.018 45.296 65.018 52.045 104.105.403 2.34-.426 4.723-2.195 6.305-1.766 1.588-4.235 2.149-6.504 1.491-2.568-.74-5.174-1.114-7.742-1.114-15.448 0-28.015 12.567-28.015 28.014 0 15.445 12.568 28.012 28.015 28.012 2.565 0 5.174-.374 7.748-1.114 2.272-.644 4.732-.094 6.501 1.494 1.766 1.585 2.595 3.965 2.192 6.304-6.749 39.085-24.747 75.085-52.045 104.106-2.231 2.366-5.809 2.865-8.596 1.168-4.396-2.665-9.404-4.075-14.487-4.075-15.445 0-28.012 12.567-28.012 28.012 0 2.501.36 5.054 1.074 7.59.877 3.131-.552 6.45-3.43 7.963-28.879 15.182-61.434 23.205-94.15 23.205zm-83.126-33.063c25.737 12.627 54.363 19.279 83.126 19.279 29.191 0 57.13-6.483 83.125-19.273-.269-1.903-.403-3.807-.403-5.7 0-23.048 18.748-41.795 41.795-41.795 5.691 0 11.315 1.176 16.53 3.438 21.346-23.955 36.121-52.664 43.136-83.764-23.476.633-42.778-18.412-42.778-41.785s19.149-42.345 42.778-41.787c-7.018-31.103-21.79-59.807-43.136-83.761-5.215 2.261-10.839 3.438-16.53 3.438-23.048 0-41.795-18.748-41.795-41.795 0-1.893.134-3.796.403-5.7-25.992-12.795-53.931-19.278-83.125-19.278-28.763 0-57.389 6.652-83.126 19.279.27 1.9.404 3.804.404 5.697 0 23.048-18.749 41.795-41.796 41.795-5.694 0-11.317-1.176-16.533-3.438-21.346 23.954-36.118 52.658-43.136 83.761 23.303-.555 42.776 18.412 42.778 41.787 0 23.379-19.324 42.499-42.778 41.785 7.016 31.1 21.79 59.809 43.136 83.764 5.217-2.261 10.842-3.438 16.533-3.438 23.048 0 41.796 18.748 41.796 41.795 0 1.892-.134 3.796-.404 5.696z"/></g></svg>