<svg id="Layer_1" enable-background="new 0 0 512 512" viewBox="0 0 512 512" xmlns="http://www.w3.org/2000/svg"><path d="m269.17 277.75c1.29 6.12 6.35 10.72 12.42 11.58v15.57c0 11.01 8.79 19.99 19.72 20.33v7.18c0 13.55 11.02 24.58 24.58 24.58h20.7c13.55 0 24.58-11.02 24.58-24.58v-7.18c10.93-.34 19.72-9.32 19.72-20.33v-15.57c6.06-.86 11.12-5.45 12.42-11.57 2.43-11.53 7-20.6 14.82-29.41 17.76-20.02 27.54-45.79 27.54-72.57 0-3.31-2.69-6-6-6h-35.36c-2.21 0-4.23 1.21-5.28 3.15s-.95 4.3.27 6.14c1.45 2.2 2.21 4.77 2.21 7.42 0 7.47-6.08 13.54-13.54 13.54s-13.54-6.08-13.54-13.54c0-2.65.77-5.22 2.21-7.42 1.21-1.84 1.31-4.2.27-6.14-1.05-1.94-3.08-3.15-5.28-3.15h-29.36v-20.6c1.55.29 3.12.44 4.72.44 14.08 0 25.54-11.46 25.54-25.54s-11.46-25.54-25.54-25.54c-1.59 0-3.17.15-4.72.44v-26.6c0-3.31-2.69-6-6-6-60.33 0-109.42 49.08-109.42 109.42 0 26.78 9.78 52.55 27.54 72.57 7.78 8.78 12.34 17.85 14.78 29.38zm11.74-2.48c-2.85-13.49-8.43-24.58-17.58-34.89-14.48-16.32-22.97-36.94-24.31-58.61h29.16c2.21 0 4.23-1.21 5.28-3.15s.95-4.3-.27-6.14c-1.45-2.2-2.21-4.77-2.21-7.42 0-7.47 6.08-13.54 13.54-13.54s13.54 6.08 13.54 13.54c0 2.65-.77 5.22-2.21 7.42-1.21 1.84-1.31 4.2-.27 6.14 1.05 1.94 3.07 3.15 5.28 3.15h29.36v20.6c-1.55-.29-3.12-.44-4.72-.44-14.08 0-25.54 11.46-25.54 25.54s11.46 25.54 25.54 25.54c1.59 0 3.17-.15 4.72-.44v24.9h-46.61c-1.29.01-2.43-.92-2.7-2.2zm65.67 69.71h-20.7c-6.93 0-12.58-5.64-12.58-12.58v-7.15h45.85v7.15c.01 6.94-5.64 12.58-12.57 12.58zm23.93-31.72h-68.56c-4.61 0-8.37-3.75-8.37-8.37v-15.42h85.29v15.42c.01 4.62-3.75 8.37-8.36 8.37zm-7.68-131.49c-.29 1.55-.44 3.12-.44 4.72 0 14.08 11.46 25.54 25.54 25.54s25.54-11.46 25.54-25.54c0-1.59-.15-3.17-.44-4.72h20.42c-1.33 21.67-9.85 42.29-24.33 58.61-9.15 10.31-14.74 21.4-17.58 34.89-.27 1.28-1.41 2.21-2.71 2.21h-46.61v-33.66c0-2.21-1.21-4.23-3.15-5.28s-4.3-.95-6.14.27c-2.2 1.45-4.77 2.21-7.42 2.21-7.47 0-13.54-6.08-13.54-13.54s6.08-13.54 13.54-13.54c2.65 0 5.22.77 7.42 2.21 1.84 1.21 4.2 1.31 6.14.27 1.94-1.05 3.15-3.07 3.15-5.28v-29.36h20.61zm-32.6-103.23v29.18c0 2.21 1.21 4.23 3.15 5.28s4.3.95 6.14-.27c2.2-1.45 4.77-2.21 7.42-2.21 7.47 0 13.54 6.08 13.54 13.54s-6.08 13.54-13.54 13.54c-2.65 0-5.22-.77-7.42-2.21-1.84-1.21-4.2-1.31-6.14-.27-1.94 1.05-3.15 3.08-3.15 5.28v29.36h-20.6c.29-1.55.44-3.12.44-4.72 0-14.08-11.46-25.54-25.54-25.54s-25.54 11.46-25.54 25.54c0 1.59.15 3.17.44 4.72h-20.43c2.99-48.93 42.29-88.23 91.23-91.22zm57.35-63.54c-3.31 0-6 2.69-6 6v35.36c0 2.21 1.21 4.23 3.15 5.28s4.3.94 6.14-.27c2.2-1.45 4.77-2.21 7.42-2.21 7.47 0 13.54 6.08 13.54 13.54s-6.08 13.54-13.54 13.54c-2.65 0-5.22-.77-7.42-2.21-1.84-1.21-4.2-1.31-6.14-.27-1.94 1.05-3.15 3.08-3.15 5.28v35.36c0 3.31 2.69 6 6 6h26.6c-.29 1.55-.44 3.12-.44 4.72 0 14.08 11.46 25.54 25.54 25.54s25.54-11.46 25.54-25.54c0-1.59-.15-3.17-.44-4.72h26.62c3.31 0 6-2.69 6-6 0-60.32-49.08-109.4-109.42-109.4zm68.06 103.42c-2.21 0-4.23 1.21-5.28 3.15s-.95 4.3.27 6.14c1.45 2.2 2.21 4.77 2.21 7.42 0 7.47-6.08 13.54-13.54 13.54s-13.54-6.08-13.54-13.54c0-2.65.77-5.22 2.21-7.42 1.21-1.84 1.31-4.2.27-6.14-1.05-1.94-3.07-3.15-5.28-3.15h-29.36v-20.6c1.55.29 3.12.44 4.72.44 14.08 0 25.54-11.46 25.54-25.54s-11.46-25.54-25.54-25.54c-1.59 0-3.17.15-4.72.44v-20.44c48.94 2.99 88.24 42.29 91.23 91.23h-29.19zm33.58 305.45c-2.91-10.84-9.88-19.93-19.64-25.6-9.78-5.68-21.13-7.21-31.97-4.31l-100.43 26.91c8.72-20.54-.19-44.6-20.51-54.37l-97.26-46.79c-13.53-6.51-27.15-7.79-41.65-3.9l-58.96 15.8-.3-1.13c-2.45-9.13-11.87-14.57-21-12.13l-27.6 7.39c-4.41 1.18-8.11 4.02-10.4 8-.69 1.19-1.21 2.45-1.59 3.73l-38.47 10.31c-3.2.86-5.1 4.15-4.24 7.35.72 2.68 3.14 4.45 5.79 4.45.51 0 1.04-.07 1.56-.21l36.03-9.65 33.72 125.83-36.03 9.65c-3.2.86-5.1 4.15-4.24 7.35.72 2.68 3.14 4.45 5.79 4.45.51 0 1.04-.07 1.56-.21l38.47-10.31c.97.92 2.05 1.75 3.24 2.44 2.65 1.53 5.59 2.31 8.56 2.31 1.48 0 2.97-.19 4.44-.59l27.6-7.39c4.41-1.18 8.11-4.02 10.4-8 2.29-3.97 2.91-8.59 1.72-13l-.3-1.13 22.84-6.12c5.69-1.53 10.9-1.23 16.38.94l83.31 32.95c7.2 2.85 14.36 4.27 21.63 4.27 5.14 0 10.33-.71 15.62-2.13l168.17-45.06c3.23-.87 5.77-2.31 7.54-4.3 2.48-2.78 3.28-6.39 2.28-10.16zm-347.52 45.39c-.69 1.2-1.8 2.05-3.11 2.41l-27.6 7.39c-2.75.73-5.57-.9-6.3-3.64l-35.31-131.78c-.35-1.32-.17-2.7.53-3.9.69-1.2 1.8-2.05 3.11-2.41l27.59-7.39c.45-.12.89-.18 1.33-.18 2.27 0 4.36 1.52 4.97 3.82l1.85 6.92s0 0 0 0l33.46 124.86c.36 1.32.17 2.7-.52 3.9zm336.65-34.87-168.17 45.06c-10.33 2.77-19.78 2.23-29.73-1.71l-83.31-32.95c-7.89-3.12-15.7-3.57-23.9-1.37l-22.84 6.12-28.5-106.35 58.96-15.8c11.61-3.11 22.52-2.09 33.35 3.12l97.26 46.79c14.96 7.2 21.28 25.23 14.08 40.19l-3.43 7.14c-.07.14-.16.25-.27.35l-1.09.29c-.09-.02-.19-.03-.27-.07l-114.75-55.21c-2.99-1.44-6.57-.18-8.01 2.8-1.44 2.99-.18 6.57 2.8 8.01l114.75 55.21c1.84.89 3.79 1.31 5.71 1.31 1.84 0 3.66-.39 5.33-1.12l114.39-30.65c16.04-4.3 32.59 5.31 36.91 21.42l1.88 7.01c-.27.13-.65.27-1.15.41z"/></svg>