<svg xmlns="http://www.w3.org/2000/svg" xmlns:xlink="http://www.w3.org/1999/xlink" width="92.259" height="94" viewBox="0 0 92.259 94">
  <defs>
    <linearGradient id="linear-gradient" x1="0.5" y1="1" x2="0.5" gradientUnits="objectBoundingBox">
      <stop offset="0" stop-color="#0092e0"/>
      <stop offset="1" stop-color="#00b1d2"/>
    </linearGradient>
    <clipPath id="clip-path">
      <rect id="process" width="92.259" height="94" transform="translate(832 2855)" fill="url(#linear-gradient)"/>
    </clipPath>
  </defs>
  <g id="Mask_Group_28" data-name="Mask Group 28" transform="translate(-832 -2855)" clip-path="url(#clip-path)">
    <path id="cloud_6922684" d="M59.287,32.6v4.741a1.442,1.442,0,1,1-2.883,0V36.026l-8.261,8.9a1.442,1.442,0,0,1-1.874.207l-8.687-5.973L28.742,48.2a1.442,1.442,0,0,1-2.061-2.014l9.688-9.908a1.435,1.435,0,0,1,1.846-.18l8.661,5.952,7.44-8.016H53.1a1.442,1.442,0,0,1,0-2.883h4.741A1.442,1.442,0,0,1,59.287,32.6ZM70.834,70.313A18.516,18.516,0,0,0,81.041,36.351a1.434,1.434,0,0,1-.64-1.072,14.592,14.592,0,0,0-24.542-9.3,1.442,1.442,0,0,1-2.262-.37,21.244,21.244,0,0,0-40,9.986c0,.285.008.586.022.917a1.444,1.444,0,0,1-.841,1.373,16.981,16.981,0,0,0,7.053,32.427H44.4a10.951,10.951,0,0,1-.924-1.712H23.324a1.442,1.442,0,1,1,0-2.883h2.947V55.436a1.442,1.442,0,1,1,2.883,0V65.718h6.8V47.387a1.442,1.442,0,1,1,2.882,0v18.33h3.831a11.422,11.422,0,0,1-.106-1.533,11.073,11.073,0,0,1,3.079-7.69V52.188a1.442,1.442,0,0,1,2.883,0v2.121a11.1,11.1,0,0,1,5.193-1.278,11.332,11.332,0,0,1,1.61.116v-9.2a1.442,1.442,0,1,1,2.883,0V53.973a11.169,11.169,0,0,1,5.8,14.516l1.823,1.824Zm-3.788,7.2a1.361,1.361,0,0,1-1.913,0l-1.676-1.677,1.913-1.913L67.045,75.6a1.355,1.355,0,0,1,0,1.914Zm-5.437-5.44a11.527,11.527,0,0,0,.9-1.017l.825.828L61.419,73.8l-.828-.828a11.28,11.28,0,0,0,1.017-.9ZM47.869,70.034a8.276,8.276,0,1,1,5.85,2.421A8.276,8.276,0,0,1,47.869,70.034ZM83.2,34.335A17.475,17.475,0,0,0,55.25,22.718,24.128,24.128,0,0,0,10.719,35.6c0,.028,0,.059,0,.088a19.863,19.863,0,0,0,9.115,37.511H46.994a1.29,1.29,0,0,0,.14-.006,11.186,11.186,0,0,0,10.891,1.291l5.069,5.069a4.235,4.235,0,1,0,5.99-5.99l-.363-.363h2.113A21.4,21.4,0,0,0,83.2,34.335Z" transform="translate(832.026 2855.871)" fill-rule="evenodd" fill="url(#linear-gradient)"/>
  </g>
</svg>
