<svg xmlns="http://www.w3.org/2000/svg" xmlns:xlink="http://www.w3.org/1999/xlink" width="94" height="94" viewBox="0 0 94 94">
  <defs>
    <clipPath id="clip-path">
      <rect id="brain" width="94" height="94" transform="translate(280 2855)" fill="#0092e0"/>
    </clipPath>
  </defs>
  <g id="Mask_Group_27" data-name="Mask Group 27" transform="translate(-280 -2855)" clip-path="url(#clip-path)">
    <path id="workgroup_11802982" d="M26.433,29.019H28.9a2.226,2.226,0,0,1,1.574,3.8l-1.743,1.743a2.739,2.739,0,0,0,0,3.869l3.694,3.694a2.739,2.739,0,0,0,3.869,0l1.743-1.743a2.227,2.227,0,0,1,3.8,1.574v2.465a2.739,2.739,0,0,0,2.736,2.736H49.8a2.739,2.739,0,0,0,2.736-2.736V41.958a2.227,2.227,0,0,1,3.8-1.574l1.743,1.743a2.74,2.74,0,0,0,3.869,0l3.694-3.694a2.739,2.739,0,0,0,0-3.869L63.9,32.82a2.227,2.227,0,0,1,1.574-3.8h2.465a2.739,2.739,0,0,0,2.736-2.736V21.059a2.739,2.739,0,0,0-2.736-2.736H65.471a2.227,2.227,0,0,1-1.574-3.8l1.743-1.743a2.74,2.74,0,0,0,0-3.869L61.945,5.216a2.74,2.74,0,0,0-3.869,0L56.333,6.959a2.227,2.227,0,0,1-3.8-1.574V2.92A2.739,2.739,0,0,0,49.8.184H44.572A2.739,2.739,0,0,0,41.836,2.92V5.385a2.227,2.227,0,0,1-3.8,1.574L36.292,5.216a2.739,2.739,0,0,0-3.869,0L28.729,8.911a2.74,2.74,0,0,0,0,3.869l1.743,1.743a2.227,2.227,0,0,1-1.574,3.8H26.433A2.739,2.739,0,0,0,23.7,21.059v5.225A2.739,2.739,0,0,0,26.433,29.019Zm.029-7.931H28.9a4.991,4.991,0,0,0,3.529-8.521L30.7,10.845l3.653-3.653,1.722,1.722a4.991,4.991,0,0,0,8.52-3.53V2.949h5.166V5.385a4.991,4.991,0,0,0,8.521,3.529l1.722-1.722,3.653,3.653-1.722,1.722a4.991,4.991,0,0,0,3.529,8.521h2.436v5.166H65.471a4.991,4.991,0,0,0-3.529,8.521L63.664,36.5l-3.653,3.653-1.722-1.722a4.991,4.991,0,0,0-8.521,3.529v2.436H44.6V41.958a4.991,4.991,0,0,0-8.521-3.529l-1.722,1.722L30.705,36.5l1.722-1.722A4.991,4.991,0,0,0,28.9,26.255H26.462V21.088ZM47.184,35.225A11.553,11.553,0,1,0,35.631,23.671,11.567,11.567,0,0,0,47.184,35.225Zm0-20.342A8.789,8.789,0,1,1,38.4,23.671a8.8,8.8,0,0,1,8.789-8.789Zm-4.077,6.324A3.854,3.854,0,0,1,45.8,17.535v-.464a1.382,1.382,0,0,1,2.765,0v.544a3.854,3.854,0,0,1,2.465,3.59,1.382,1.382,0,1,1-2.765,0,1.084,1.084,0,0,0-1.083-1.083h-.23a1.083,1.083,0,0,0,0,2.165h.459a3.848,3.848,0,0,1,1.153,7.518v.464a1.382,1.382,0,1,1-2.765,0v-.544a3.854,3.854,0,0,1-2.465-3.59,1.382,1.382,0,1,1,2.765,0,1.084,1.084,0,0,0,1.083,1.083h.23a1.083,1.083,0,0,0,0-2.165h-.459a3.852,3.852,0,0,1-3.848-3.848ZM90.379,63.221A16.078,16.078,0,0,0,83.806,58.6a11.474,11.474,0,0,0,3.566-8.306,11.7,11.7,0,0,0-23.393,0,11.474,11.474,0,0,0,3.564,8.3A16.075,16.075,0,0,0,57.436,70.638a15.989,15.989,0,0,0-2.121-.982,11.474,11.474,0,0,0,3.566-8.306,11.7,11.7,0,0,0-23.393,0,11.475,11.475,0,0,0,3.566,8.306,15.968,15.968,0,0,0-2.121.982A16.075,16.075,0,0,0,26.826,58.6a11.474,11.474,0,0,0,3.564-8.3A11.7,11.7,0,0,0,7,50.292,11.474,11.474,0,0,0,10.563,58.6,16.007,16.007,0,0,0,.184,73.536v8.207a1.382,1.382,0,0,0,1.382,1.382H28.745c-.046.487-.07.977-.07,1.469V92.8a1.382,1.382,0,0,0,1.382,1.382H64.311A1.382,1.382,0,0,0,65.693,92.8V84.595c0-.492-.024-.982-.07-1.469H92.8a1.382,1.382,0,0,0,1.382-1.382V73.536a15.938,15.938,0,0,0-3.805-10.315ZM66.743,50.292A8.933,8.933,0,1,1,75.675,59.1,8.879,8.879,0,0,1,66.743,50.292ZM38.253,61.35a8.933,8.933,0,1,1,8.932,8.805,8.879,8.879,0,0,1-8.932-8.805ZM9.762,50.292A8.933,8.933,0,1,1,18.693,59.1a8.879,8.879,0,0,1-8.932-8.805ZM2.949,80.361V73.536a13.166,13.166,0,0,1,10.5-12.909,11.77,11.77,0,0,0,10.5,0A13.26,13.26,0,0,1,34.386,72.388a15.969,15.969,0,0,0-5.132,7.972H2.949ZM62.929,91.42H31.44V84.595a13.166,13.166,0,0,1,10.5-12.909,11.77,11.77,0,0,0,10.5,0,13.167,13.167,0,0,1,10.5,12.909ZM91.42,80.361H65.114a15.969,15.969,0,0,0-5.132-7.972A13.261,13.261,0,0,1,70.428,60.627a11.771,11.771,0,0,0,10.5,0,13.166,13.166,0,0,1,10.5,12.908Z" transform="translate(279.815 2854.816)" fill="#0092e0"/>
  </g>
</svg>
