<svg xmlns="http://www.w3.org/2000/svg" xmlns:xlink="http://www.w3.org/1999/xlink" width="94" height="94" viewBox="0 0 94 94">
  <defs>
    <clipPath id="clip-path">
      <rect id="security" width="94" height="94" transform="translate(1384 2855)" fill="#0092e0"/>
    </clipPath>
  </defs>
  <g id="Mask_Group_29" data-name="Mask Group 29" transform="translate(-1384 -2855)" clip-path="url(#clip-path)">
    <g id="gear_15942453" transform="translate(1384 2855)">
      <path id="Path_142" data-name="Path 142" d="M89.594,21.3H77.483a8.946,8.946,0,0,1-.009,2.938h12.12A1.471,1.471,0,0,1,91.063,25.7V77.109a1.471,1.471,0,0,1-1.469,1.469H4.406a1.471,1.471,0,0,1-1.469-1.469V25.7a1.471,1.471,0,0,1,1.469-1.469H16.527a8.95,8.95,0,0,1-.009-2.938H4.406A4.411,4.411,0,0,0,0,25.7V77.109a4.411,4.411,0,0,0,4.406,4.406H45.531v2.938H32.313a1.469,1.469,0,0,0,0,2.938H61.688a1.469,1.469,0,0,0,0-2.937H48.469V81.516H89.594A4.411,4.411,0,0,0,94,77.109V25.7A4.411,4.411,0,0,0,89.594,21.3Z" fill="#0092e0"/>
      <path id="Path_143" data-name="Path 143" d="M56.038,66.82a5.744,5.744,0,0,0,2.345-4.582,1.469,1.469,0,0,0-2.938,0,3.141,3.141,0,0,1-3.3,2.938H42.594a3.141,3.141,0,0,1-3.3-2.937,1.469,1.469,0,1,0-2.937,0A5.744,5.744,0,0,0,38.7,66.821c0,.03,0,.059.007.089a9.255,9.255,0,0,1-.742,4.979,1.469,1.469,0,0,0,2.652,1.262,11.934,11.934,0,0,0,1.1-5.1,6.619,6.619,0,0,0,.877.065h9.547a6.619,6.619,0,0,0,.877-.065,11.94,11.94,0,0,0,1.1,5.1,1.469,1.469,0,1,0,2.652-1.262,9.244,9.244,0,0,1-.74-4.985C56.036,66.875,56.034,66.848,56.038,66.82Z" fill="#0092e0"/>
      <path id="Path_144" data-name="Path 144" d="M58.75,55.369l4.455,16.793a1.47,1.47,0,0,0,1.419,1.093A1.493,1.493,0,0,0,65,73.205a1.47,1.47,0,0,0,1.043-1.8l-4.454-16.79A4.1,4.1,0,0,0,58.962,51.7l-5.047-1.649a1.32,1.32,0,0,1-.748-1.139L53,47.358a6.892,6.892,0,0,0,1.713-4.58V39.105A6.969,6.969,0,0,0,47.6,32.129h-.472a7.149,7.149,0,0,0-5.009,2,6.865,6.865,0,0,0-2.1,4.974v3.672a6.892,6.892,0,0,0,1.713,4.58l-.168,1.551a1.32,1.32,0,0,1-.748,1.138L35.773,51.7a4.1,4.1,0,0,0-2.628,2.92L28.689,71.409a1.47,1.47,0,0,0,1.043,1.8,1.49,1.49,0,0,0,.377.049,1.471,1.471,0,0,0,1.419-1.093l4.456-16.8a1.2,1.2,0,0,1,.7-.876l4.1-1.339A7,7,0,0,0,47.367,57.1a7,7,0,0,0,6.583-3.949l4.1,1.339a1.206,1.206,0,0,1,.7.88ZM47.367,54.16c-1.955,0-3.635-1.074-3.973-2.437a4.483,4.483,0,0,0,1.087-2.46,7.366,7.366,0,0,0,2.649.49H47.6a7.371,7.371,0,0,0,2.651-.49,4.484,4.484,0,0,0,1.087,2.46C51,53.087,49.322,54.16,47.367,54.16Zm4.406-11.383A4.063,4.063,0,0,1,47.6,46.816h-.473a4.063,4.063,0,0,1-4.171-4.039V39.1a3.953,3.953,0,0,1,1.2-2.864,4.231,4.231,0,0,1,2.965-1.175H47.6a4.063,4.063,0,0,1,4.171,4.039Z" fill="#0092e0"/>
      <path id="Path_145" data-name="Path 145" d="M27.539,55.482V52.523l2.678,1.672.088-.332a7.392,7.392,0,0,1,1.106-2.386L27.88,49.272a7.88,7.88,0,0,0,1.128-4.108V41.125A7.249,7.249,0,0,0,21.9,33.6h-.472a6.881,6.881,0,0,0-5.057,2.211,7.717,7.717,0,0,0-2.05,5.316v4.039a7.9,7.9,0,0,0,1.126,4.11L10.918,52.1a9.664,9.664,0,0,0-4.075,7.34L5.527,67.509a1.469,1.469,0,1,0,2.9.473L9.75,59.868c.005-.032.009-.063.012-.1a6.864,6.864,0,0,1,2.712-5.18l3.315-2.07v2.959a1.468,1.468,0,0,0,.341.94l3.654,4.384-2.411,5.731a1.469,1.469,0,0,0,.276,1.567l2.938,3.173a1.469,1.469,0,0,0,2.156,0L25.679,68.1a1.469,1.469,0,0,0,.276-1.567l-2.411-5.731L27.2,56.422A1.468,1.468,0,0,0,27.539,55.482ZM21.664,68.118,20.448,66.8l1.216-2.892L22.88,66.8ZM24.6,54.95l-2.937,3.525L18.727,54.95V52.143a6.892,6.892,0,0,0,2.7.548H21.9a6.9,6.9,0,0,0,2.7-.548Zm1.469-9.786a4.348,4.348,0,0,1-4.169,4.59h-.473a4.349,4.349,0,0,1-4.171-4.59V41.124a4.792,4.792,0,0,1,1.254-3.305,3.972,3.972,0,0,1,2.916-1.284H21.9a4.349,4.349,0,0,1,4.171,4.59Z" fill="#0092e0"/>
      <path id="Path_146" data-name="Path 146" d="M30.692,36a16.888,16.888,0,0,1,32.615,0,10.18,10.18,0,0,1,2.169-2.789,19.82,19.82,0,0,0-36.953,0A10.181,10.181,0,0,1,30.692,36Z" fill="#0092e0"/>
      <path id="Path_147" data-name="Path 147" d="M72.964,18.581,68.81,14.426a5.875,5.875,0,0,0-8.242-.066,29.252,29.252,0,0,0-4.757-1.976,5.882,5.882,0,0,0-5.874-5.776H44.063a5.882,5.882,0,0,0-5.874,5.776,29.25,29.25,0,0,0-4.757,1.976,5.875,5.875,0,0,0-8.242.066l-4.154,4.154a5.882,5.882,0,0,0-.066,8.242,29.283,29.283,0,0,0-1.749,4.088,10.014,10.014,0,0,1,2.206-.25H21.9c.18,0,.356.018.534.027A26.332,26.332,0,0,1,23.616,28.1a2.8,2.8,0,0,0-.5-3.285l0,0a2.938,2.938,0,0,1,0-4.154L27.267,16.5a2.937,2.937,0,0,1,4.154,0l0,0a2.8,2.8,0,0,0,3.285.5,26.22,26.22,0,0,1,4.452-1.849,2.8,2.8,0,0,0,1.962-2.674,2.938,2.938,0,0,1,2.938-2.937h5.875a2.938,2.938,0,0,1,2.938,2.938,2.8,2.8,0,0,0,1.962,2.674,26.22,26.22,0,0,1,4.452,1.849,2.8,2.8,0,0,0,3.285-.5l0,0a2.937,2.937,0,0,1,4.154,0l4.154,4.154a2.938,2.938,0,0,1,0,4.154l0,0a2.8,2.8,0,0,0-.5,3.285,26.323,26.323,0,0,1,1.183,2.586c.177-.009.352-.027.532-.027h.472a10.014,10.014,0,0,1,2.208.251,29.276,29.276,0,0,0-1.749-4.088,5.883,5.883,0,0,0-.066-8.241Z" fill="#0092e0"/>
      <path id="Path_148" data-name="Path 148" d="M79.68,41.125A7.249,7.249,0,0,0,72.571,33.6H72.1a6.881,6.881,0,0,0-5.057,2.211,7.717,7.717,0,0,0-2.05,5.316v4.039a7.9,7.9,0,0,0,1.126,4.11l-3.039,1.9A7.36,7.36,0,0,1,64.409,53.8l2.052-1.281v2.959a1.468,1.468,0,0,0,.341.94l3.654,4.384-2.411,5.731a1.451,1.451,0,0,0-.1.573l.193.726a1.448,1.448,0,0,0,.184.268l2.938,3.173a1.469,1.469,0,0,0,2.156,0L76.351,68.1a1.469,1.469,0,0,0,.276-1.567l-2.411-5.731,3.654-4.385a1.468,1.468,0,0,0,.341-.94V52.523l3.316,2.07a6.863,6.863,0,0,1,2.711,5.179c0,.032.007.064.012.1l1.324,8.115a1.469,1.469,0,0,0,1.448,1.232,1.5,1.5,0,0,0,.238-.019,1.468,1.468,0,0,0,1.213-1.686l-1.316-8.069A9.663,9.663,0,0,0,83.083,52.1l-4.529-2.828a7.9,7.9,0,0,0,1.126-4.109ZM72.336,68.118,71.12,66.8l1.216-2.892L73.552,66.8ZM75.273,54.95l-2.937,3.525L69.4,54.95V52.143a6.893,6.893,0,0,0,2.7.548h.473a6.9,6.9,0,0,0,2.7-.548Zm1.469-9.786a4.348,4.348,0,0,1-4.169,4.59H72.1a4.349,4.349,0,0,1-4.171-4.59V41.124a4.792,4.792,0,0,1,1.254-3.305A3.972,3.972,0,0,1,72.1,36.535h.471a4.349,4.349,0,0,1,4.171,4.59Z" fill="#0092e0"/>
    </g>
  </g>
</svg>
