<svg xmlns="http://www.w3.org/2000/svg" xmlns:xlink="http://www.w3.org/1999/xlink" width="120" height="120" viewBox="0 0 120 120">
  <defs>
    <clipPath id="clip-path">
      <rect id="Rectangle_395" data-name="Rectangle 395" width="120" height="120" transform="translate(366 4676)" fill="#1486cd" stroke="#1486cd" stroke-width="3"/>
    </clipPath>
  </defs>
  <g id="Mask_Group_97" data-name="Mask Group 97" transform="translate(-366 -4676)" clip-path="url(#clip-path)">
    <g id="social_10560531" transform="translate(362 4673)">
      <path id="Path_32" data-name="Path 32" d="M78,108l2-4h40a2,2,0,0,1,2,2,8,8,0,0,1-8,8H14a8,8,0,0,1-8-8,2,2,0,0,1,2-2H48l2,4" fill="none" stroke="#1486cd" stroke-linecap="round" stroke-linejoin="round" stroke-width="3"/>
      <path id="Path_33" data-name="Path 33" d="M56,104H72" fill="none" stroke="#1486cd" stroke-linecap="round" stroke-linejoin="round" stroke-width="3"/>
      <path id="Path_34" data-name="Path 34" d="M16,96V42a6,6,0,0,1,6-6h2" fill="none" stroke="#1486cd" stroke-linecap="round" stroke-linejoin="round" stroke-width="3"/>
      <path id="Path_35" data-name="Path 35" d="M112,96V42a6,6,0,0,0-6-6h-2" fill="none" stroke="#1486cd" stroke-linecap="round" stroke-linejoin="round" stroke-width="3"/>
      <path id="Path_36" data-name="Path 36" d="M74,70V65.606A7.606,7.606,0,0,0,66.394,58H61.606A7.606,7.606,0,0,0,54,65.606V70" fill="none" stroke="#1486cd" stroke-linecap="round" stroke-linejoin="round" stroke-width="3"/>
      <circle id="Ellipse_104" data-name="Ellipse 104" cx="6" cy="6" r="6" transform="translate(58 38)" fill="none" stroke="#1486cd" stroke-linecap="round" stroke-linejoin="round" stroke-width="3"/>
      <circle id="Ellipse_105" data-name="Ellipse 105" cx="22" cy="22" r="22" transform="translate(42 30)" fill="none" stroke="#1486cd" stroke-linecap="round" stroke-linejoin="round" stroke-width="3"/>
      <circle id="Ellipse_106" data-name="Ellipse 106" cx="4" cy="4" r="4" transform="translate(60 12)" fill="none" stroke="#1486cd" stroke-linecap="round" stroke-linejoin="round" stroke-width="3"/>
      <circle id="Ellipse_107" data-name="Ellipse 107" cx="4" cy="4" r="4" transform="translate(60 84)" fill="none" stroke="#1486cd" stroke-linecap="round" stroke-linejoin="round" stroke-width="3"/>
      <circle id="Ellipse_108" data-name="Ellipse 108" cx="4" cy="4" r="4" transform="translate(85.456 22.544)" fill="none" stroke="#1486cd" stroke-linecap="round" stroke-linejoin="round" stroke-width="3"/>
      <circle id="Ellipse_109" data-name="Ellipse 109" cx="4" cy="4" r="4" transform="translate(34.544 73.456)" fill="none" stroke="#1486cd" stroke-linecap="round" stroke-linejoin="round" stroke-width="3"/>
      <circle id="Ellipse_110" data-name="Ellipse 110" cx="4" cy="4" r="4" transform="translate(34.544 22.544)" fill="none" stroke="#1486cd" stroke-linecap="round" stroke-linejoin="round" stroke-width="3"/>
      <circle id="Ellipse_111" data-name="Ellipse 111" cx="4" cy="4" r="4" transform="translate(85.456 73.456)" fill="none" stroke="#1486cd" stroke-linecap="round" stroke-linejoin="round" stroke-width="3"/>
      <circle id="Ellipse_112" data-name="Ellipse 112" cx="4" cy="4" r="4" transform="translate(96 48)" fill="none" stroke="#1486cd" stroke-linecap="round" stroke-linejoin="round" stroke-width="3"/>
      <circle id="Ellipse_113" data-name="Ellipse 113" cx="4" cy="4" r="4" transform="translate(24 48)" fill="none" stroke="#1486cd" stroke-linecap="round" stroke-linejoin="round" stroke-width="3"/>
      <path id="Path_37" data-name="Path 37" d="M60,16H57.657A13.657,13.657,0,0,0,48,20" fill="none" stroke="#1486cd" stroke-linecap="round" stroke-linejoin="round" stroke-width="3"/>
      <path id="Path_38" data-name="Path 38" d="M68,88h2.343A13.657,13.657,0,0,0,80,84" fill="none" stroke="#1486cd" stroke-linecap="round" stroke-linejoin="round" stroke-width="3"/>
      <path id="Path_39" data-name="Path 39" d="M35.716,29.373l-1.657,1.657a13.658,13.658,0,0,0-4,9.657" fill="none" stroke="#1486cd" stroke-linecap="round" stroke-linejoin="round" stroke-width="3"/>
      <path id="Path_40" data-name="Path 40" d="M92.284,74.627l1.657-1.657a13.658,13.658,0,0,0,4-9.657" fill="none" stroke="#1486cd" stroke-linecap="round" stroke-linejoin="round" stroke-width="3"/>
      <path id="Path_41" data-name="Path 41" d="M28,56v2.343A13.657,13.657,0,0,0,32,68" fill="none" stroke="#1486cd" stroke-linecap="round" stroke-linejoin="round" stroke-width="3"/>
      <path id="Path_42" data-name="Path 42" d="M100,48V45.657A13.657,13.657,0,0,0,96,36" fill="none" stroke="#1486cd" stroke-linecap="round" stroke-linejoin="round" stroke-width="3"/>
      <path id="Path_43" data-name="Path 43" d="M41.373,80.284l1.657,1.657a13.658,13.658,0,0,0,9.657,4" fill="none" stroke="#1486cd" stroke-linecap="round" stroke-linejoin="round" stroke-width="3"/>
      <path id="Path_44" data-name="Path 44" d="M86.627,23.716l-1.657-1.657a13.658,13.658,0,0,0-9.657-4" fill="none" stroke="#1486cd" stroke-linecap="round" stroke-linejoin="round" stroke-width="3"/>
    </g>
  </g>
</svg>
