<svg xmlns="http://www.w3.org/2000/svg" xmlns:xlink="http://www.w3.org/1999/xlink" width="120" height="120" viewBox="0 0 120 120">
  <defs>
    <clipPath id="clip-path">
      <rect id="Rectangle_398" data-name="Rectangle 398" width="120" height="120" transform="translate(1321 4676)" fill="#1486cd"/>
    </clipPath>
  </defs>
  <g id="Mask_Group_94" data-name="Mask Group 94" transform="translate(-1321 -4676)" clip-path="url(#clip-path)">
    <path id="outsourcing_14436142" d="M91.984,72.229l5.608-.522a5.38,5.38,0,0,0,4.905-4.854,40.412,40.412,0,0,0-.032-8.637A5.385,5.385,0,0,0,97.521,53.4l-5.613-.475a2.565,2.565,0,0,1-1.761-4.2l3.6-4.332a5.382,5.382,0,0,0,.037-6.9,40.282,40.282,0,0,0-6.137-6.086,5.385,5.385,0,0,0-6.9.093l-4.3,3.629A2.564,2.564,0,0,1,72.224,33.4L71.7,27.8a5.387,5.387,0,0,0-4.854-4.908,40.573,40.573,0,0,0-8.637.032,5.386,5.386,0,0,0-4.817,4.947l-.475,5.613a2.565,2.565,0,0,1-4.2,1.761l-4.332-3.6a5.382,5.382,0,0,0-6.9-.037A40.281,40.281,0,0,0,31.4,37.745a5.382,5.382,0,0,0,.093,6.9l3.629,4.3A2.564,2.564,0,0,1,33.4,53.161l-5.608.522a5.38,5.38,0,0,0-4.905,4.854,40.413,40.413,0,0,0,.032,8.637,5.385,5.385,0,0,0,4.944,4.817l5.613.478a2.565,2.565,0,0,1,1.761,4.2L31.64,81a5.382,5.382,0,0,0-.037,6.9,40.281,40.281,0,0,0,6.137,6.086,5.385,5.385,0,0,0,6.9-.093l4.3-3.629a2.564,2.564,0,0,1,4.215,1.724l.522,5.608a5.385,5.385,0,0,0,4.854,4.908,40.045,40.045,0,0,0,4.166.216,40.705,40.705,0,0,0,4.472-.247,5.385,5.385,0,0,0,4.817-4.944l.475-5.613a2.565,2.565,0,0,1,4.2-1.761L81,93.75a5.382,5.382,0,0,0,6.9.037,40.281,40.281,0,0,0,6.086-6.137,5.382,5.382,0,0,0-.093-6.9l-3.629-4.3a2.569,2.569,0,0,1,1.724-4.22Zm-3.6,5.792,3.629,4.3a2.962,2.962,0,0,1,.051,3.793,37.848,37.848,0,0,1-5.716,5.762,2.959,2.959,0,0,1-3.793-.02l-4.332-3.6a5.013,5.013,0,0,0-8.2,3.436l-.475,5.613a2.961,2.961,0,0,1-2.647,2.718,37.915,37.915,0,0,1-8.113.032,2.963,2.963,0,0,1-2.669-2.7L55.6,91.759a5.012,5.012,0,0,0-8.231-3.37l-4.3,3.629a2.959,2.959,0,0,1-3.793.051,37.848,37.848,0,0,1-5.762-5.716,2.959,2.959,0,0,1,.02-3.793l3.6-4.332a5.013,5.013,0,0,0-3.436-8.2l-5.613-.478A2.961,2.961,0,0,1,25.354,66.9a38.074,38.074,0,0,1-.032-8.113,2.963,2.963,0,0,1,2.7-2.669l5.608-.522A5.013,5.013,0,0,0,37,47.365l-3.629-4.3a2.962,2.962,0,0,1-.051-3.793,37.737,37.737,0,0,1,5.716-5.762,2.959,2.959,0,0,1,3.793.02l4.332,3.6a5.013,5.013,0,0,0,8.2-3.436l.475-5.613a2.961,2.961,0,0,1,2.647-2.718,37.756,37.756,0,0,1,8.113-.029,2.963,2.963,0,0,1,2.669,2.7l.522,5.608A5.013,5.013,0,0,0,78.018,37l4.3-3.629a2.959,2.959,0,0,1,3.793-.051,37.848,37.848,0,0,1,5.762,5.716,2.959,2.959,0,0,1-.02,3.793l-3.6,4.332a5.013,5.013,0,0,0,3.436,8.2l5.613.475a2.961,2.961,0,0,1,2.718,2.647,37.915,37.915,0,0,1,.029,8.113,2.963,2.963,0,0,1-2.7,2.669l-5.608.522a5.011,5.011,0,0,0-3.367,8.231ZM62.693,42.038A20.654,20.654,0,1,0,83.347,62.693,20.678,20.678,0,0,0,62.693,42.038ZM61.468,53.774v7.695H53.72a30.208,30.208,0,0,1,1.411-8.415A38.5,38.5,0,0,0,61.468,53.774Zm-5.442-3.042c1.4-3.059,3.313-5.189,5.442-5.789v6.382A36.413,36.413,0,0,1,56.027,50.732Zm5.442,13.185v7.695a38.444,38.444,0,0,0-6.193.693,29.7,29.7,0,0,1-1.538-8.388Zm0,10.146v5.912c-2.025-.571-3.86-2.532-5.236-5.358A36.051,36.051,0,0,1,61.468,74.063Zm2.449,0a36.05,36.05,0,0,1,5.236.553c-1.376,2.826-3.211,4.788-5.236,5.358Zm0-2.451V63.917h7.731A29.7,29.7,0,0,1,70.11,72.3,38.444,38.444,0,0,0,63.917,71.612Zm0-10.143V53.774a38.3,38.3,0,0,0,6.34-.72,30.208,30.208,0,0,1,1.411,8.415Zm0-10.146V44.94c2.128.6,4.043,2.731,5.442,5.789A35.781,35.781,0,0,1,63.917,51.322Zm5.153-5.679a18.209,18.209,0,0,1,5.819,3.546,32.083,32.083,0,0,1-3.071.987A17.745,17.745,0,0,0,69.07,45.643Zm-15.5,4.533a30.988,30.988,0,0,1-3.071-.987,18.219,18.219,0,0,1,5.819-3.546A17.745,17.745,0,0,0,53.568,50.176Zm-.855,2.3a32.683,32.683,0,0,0-1.445,8.988H44.534A18.125,18.125,0,0,1,48.67,51.1a32.859,32.859,0,0,0,4.043,1.384ZM51.285,63.917a32.17,32.17,0,0,0,1.567,8.951,33.19,33.19,0,0,0-4.183,1.42,18.118,18.118,0,0,1-4.136-10.371ZM53.754,75.16a16.38,16.38,0,0,0,3.211,4.81A18.178,18.178,0,0,1,50.5,76.2,31.345,31.345,0,0,1,53.754,75.16Zm17.877,0A31.75,31.75,0,0,1,74.888,76.2a18.25,18.25,0,0,1-6.468,3.774,16.38,16.38,0,0,0,3.211-4.81Zm.9-2.292A32.227,32.227,0,0,0,74.1,63.917h6.752a18.125,18.125,0,0,1-4.136,10.371,33.19,33.19,0,0,0-4.183-1.42Zm1.584-11.4a32.683,32.683,0,0,0-1.445-8.988A33.42,33.42,0,0,0,76.715,51.1a18.118,18.118,0,0,1,4.136,10.371ZM93.99,105.431a1.225,1.225,0,0,1-.3,1.7,54.193,54.193,0,0,1-61.992,0,1.224,1.224,0,1,1,1.4-2.008,51.739,51.739,0,0,0,59.186,0,1.226,1.226,0,0,1,1.707.3Zm-79.4-61.813a51.9,51.9,0,0,0,.088,38.367A1.223,1.223,0,0,1,14,83.577a1.2,1.2,0,0,1-.456.088,1.223,1.223,0,0,1-1.136-.767,54.343,54.343,0,0,1-.1-40.184,1.225,1.225,0,0,1,2.278.9ZM29.95,21.049a1.224,1.224,0,0,1,.245-1.714,54.195,54.195,0,0,1,64.995,0,1.224,1.224,0,0,1-1.469,1.959,51.746,51.746,0,0,0-62.056,0,1.224,1.224,0,0,1-1.714-.245Zm86.925,41.644a53.89,53.89,0,0,1-3.9,20.206,1.223,1.223,0,0,1-1.136.767,1.244,1.244,0,0,1-.455-.088,1.223,1.223,0,0,1-.678-1.592,51.914,51.914,0,0,0,.091-38.367,1.224,1.224,0,1,1,2.275-.9,53.936,53.936,0,0,1,3.8,19.978Zm-8.329-45.379a7.31,7.31,0,1,0-7.31-7.31A7.318,7.318,0,0,0,108.546,17.314Zm0-12.171A4.861,4.861,0,1,1,103.685,10a4.867,4.867,0,0,1,4.861-4.861ZM96.36,35.228a22.831,22.831,0,0,0,24.372,0,4.4,4.4,0,0,0,1.91-4.357,14.57,14.57,0,0,0-14.076-12.352h-.037A14.57,14.57,0,0,0,94.453,30.871,4.394,4.394,0,0,0,96.36,35.228Zm.512-4a11.769,11.769,0,0,1,23.343,0,1.973,1.973,0,0,1-.867,1.979c-3.328,2.273-8.285,3.1-10.8,3.1s-7.479-.825-10.8-3.1A1.979,1.979,0,0,1,96.872,31.226ZM16.839,17.314A7.31,7.31,0,1,0,9.529,10,7.318,7.318,0,0,0,16.839,17.314Zm0-12.171A4.861,4.861,0,1,1,11.978,10a4.867,4.867,0,0,1,4.861-4.861ZM4.653,35.228a23.881,23.881,0,0,0,12.186,3.524,23.874,23.874,0,0,0,12.186-3.524,4.4,4.4,0,0,0,1.91-4.357A14.57,14.57,0,0,0,16.858,18.519h-.037A14.57,14.57,0,0,0,2.745,30.871,4.4,4.4,0,0,0,4.653,35.228Zm.514-4A12.106,12.106,0,0,1,16.839,20.965,12.1,12.1,0,0,1,28.51,31.226a1.975,1.975,0,0,1-.867,1.979c-3.328,2.273-8.285,3.1-10.8,3.1s-7.479-.825-10.8-3.1a1.975,1.975,0,0,1-.867-1.979Zm103.379,70.03a7.31,7.31,0,1,0-7.31-7.31A7.318,7.318,0,0,0,108.546,101.256Zm0-12.171a4.861,4.861,0,1,1-4.861,4.861A4.867,4.867,0,0,1,108.546,89.085Zm.017,13.374h-.037A14.57,14.57,0,0,0,94.45,114.813a4.4,4.4,0,0,0,1.91,4.357,22.831,22.831,0,0,0,24.372,0,4.4,4.4,0,0,0,1.91-4.357A14.575,14.575,0,0,0,108.563,102.458Zm10.788,14.686c-3.326,2.273-8.285,3.1-10.8,3.1s-7.479-.825-10.8-3.1a1.973,1.973,0,0,1-.867-1.979,11.769,11.769,0,0,1,23.343,0A1.973,1.973,0,0,1,119.351,117.145ZM16.839,101.256a7.31,7.31,0,1,0-7.31-7.31A7.318,7.318,0,0,0,16.839,101.256Zm0-12.171a4.861,4.861,0,1,1-4.861,4.861A4.867,4.867,0,0,1,16.839,89.085Zm.02,13.374h-.037A14.57,14.57,0,0,0,2.745,114.813a4.4,4.4,0,0,0,1.91,4.357,23.879,23.879,0,0,0,12.183,3.522,23.874,23.874,0,0,0,12.186-3.524,4.4,4.4,0,0,0,1.91-4.357A14.57,14.57,0,0,0,16.858,102.458Zm10.785,14.686c-3.326,2.273-8.282,3.1-10.8,3.1s-7.479-.825-10.8-3.1a1.973,1.973,0,0,1-.867-1.979A12.106,12.106,0,0,1,16.839,104.9,12.1,12.1,0,0,1,28.51,115.166,1.969,1.969,0,0,1,27.644,117.145Z" transform="translate(1318.307 4673.306)" fill="#1486cd"/>
  </g>
</svg>
