<svg xmlns="http://www.w3.org/2000/svg" xmlns:xlink="http://www.w3.org/1999/xlink" width="120" height="120" viewBox="0 0 120 120">
  <defs>
    <clipPath id="clip-path">
      <rect id="Rectangle_397" data-name="Rectangle 397" width="120" height="120" transform="translate(1003 4676)" fill="#1486cd"/>
    </clipPath>
  </defs>
  <g id="Mask_Group_95" data-name="Mask Group 95" transform="translate(-1003 -4676)" clip-path="url(#clip-path)">
    <path id="enterprise-resource-planning_18047479" d="M15.694,20.292a1.116,1.116,0,0,1-.133.064,3.047,3.047,0,1,0,.133-.064Zm96.717.029a3.044,3.044,0,1,0,1.42,4.063A3.049,3.049,0,0,0,112.411,20.321Zm-3.13-2.437a5.487,5.487,0,1,1,1.947,10.666l-.723,4.527a1.225,1.225,0,0,1-1.222,1.131h-7.006V48.393h10.917a5.49,5.49,0,1,1,0,2.449H102.278V63.75l.99-.005a1.224,1.224,0,0,1,1.224,1.224v1.45h8v0a1.224,1.224,0,0,1,1.106.7l1.463,3.094a5.492,5.492,0,1,1-2.581.26l-.76-1.607h-7.229v1.45h-.005a1.222,1.222,0,0,1-.88,1.172l-9.18,2.652a31.421,31.421,0,0,1-2.419,5.837l4.583,8.3a1.224,1.224,0,0,1-.169,1.52l-2.9,2.9,4.71,4.464a1.217,1.217,0,0,1,.344.594l1.226,4.932a5.492,5.492,0,1,1-2.366.611l-1.146-4.609-4.5-4.261L88.854,97.37h0a1.224,1.224,0,0,1-1.454.207L79.03,92.954a31.332,31.332,0,0,1-5.837,2.419l-2.622,9.079a1.225,1.225,0,0,1-1.2.987H65.244v6.353a5.489,5.489,0,1,1-2.449,0v-6.354H58.67v0a1.222,1.222,0,0,1-1.172-.88l-2.652-9.18a31.421,31.421,0,0,1-5.837-2.419l-8.3,4.584a1.224,1.224,0,0,1-1.52-.169l-2.942-2.942-4.5,4.263L30.6,103.3a5.482,5.482,0,1,1-2.366-.612l1.226-4.932a1.211,1.211,0,0,1,.344-.594l4.71-4.464-2.9-2.9h0a1.224,1.224,0,0,1-.207-1.454l4.621-8.371a31.385,31.385,0,0,1-2.419-5.837l-9.079-2.622a1.225,1.225,0,0,1-.987-1.2v-1.45H16.321l-.76,1.607a5.485,5.485,0,1,1-2.581-.259l1.463-3.094a1.221,1.221,0,0,1,1.106-.7v0h8v-1.45a1.222,1.222,0,0,1,1.334-1.22h.976V50.839H14.845a5.485,5.485,0,1,1,0-2.45H25.86V34.208h-7.1a1.225,1.225,0,0,1-1.222-1.131l-.723-4.527a5.488,5.488,0,1,1,2.4-.484l.59,3.693H25.86V26.521A1.224,1.224,0,0,1,27.085,25.3H45.756V6.645A1.224,1.224,0,0,1,46.981,5.42H81.06a1.224,1.224,0,0,1,1.224,1.224v11.51l19.261,8.489a1.223,1.223,0,0,1,.731,1.119h0v3.995h5.966l.59-3.693a5.493,5.493,0,0,1,.448-10.181Zm10.583,28.991a3.044,3.044,0,1,0,1.42,4.063A3.048,3.048,0,0,0,119.864,46.875ZM65.341,114.4a3.044,3.044,0,1,0,1.42,4.063A3.049,3.049,0,0,0,65.341,114.4Zm-39.786-7.911a3.043,3.043,0,1,0,4.22-.848A3.046,3.046,0,0,0,25.555,106.492Zm77.372,2.311a3.042,3.042,0,1,0-3.572,2.358,3.045,3.045,0,0,0,3.572-2.358ZM12.54,49.689a2.947,2.947,0,0,0-.335-1.46,3.043,3.043,0,1,0,.335,1.46Zm1.252,22.919a3.044,3.044,0,1,0,2.692,1.723,3.047,3.047,0,0,0-2.692-1.723Zm100.509,0a3.044,3.044,0,1,0,2.872,2.039A3.046,3.046,0,0,0,114.3,72.609ZM26.975,66.191H26V69.4l8.943,2.582a1.22,1.22,0,0,1,.836.847,29.393,29.393,0,0,0,2.716,6.546A1.221,1.221,0,0,1,38.5,80.57h0L34,88.722l6.266,6.266,8.152-4.5a1.221,1.221,0,0,1,1.24.037,29.76,29.76,0,0,0,6.5,2.686,1.221,1.221,0,0,1,.86.882l2.57,8.9h8.867l2.582-8.942a1.217,1.217,0,0,1,.847-.836A29.482,29.482,0,0,0,78.428,90.5a1.221,1.221,0,0,1,1.191-.008h0l8.152,4.5,6.266-6.267-4.5-8.152a1.221,1.221,0,0,1,.037-1.24,29.764,29.764,0,0,0,2.688-6.5,1.217,1.217,0,0,1,.882-.859l8.9-2.57V66.191L82.071,66.2a18.095,18.095,0,0,1-36.106,0H27.083A.976.976,0,0,1,26.975,66.191Zm21.446.005a15.649,15.649,0,0,0,31.2,0ZM32.867,57.309H41.2a1.225,1.225,0,0,0,0-2.45H32.867A1.225,1.225,0,0,0,32.867,57.309Zm0-13.786H41.2a1.225,1.225,0,0,0,0-2.45H32.867A1.225,1.225,0,0,0,32.867,43.523Zm0,6.893H41.2a1.224,1.224,0,0,0,0-2.449H32.867A1.224,1.224,0,0,0,32.867,50.416Zm0-13.786H41.2a1.225,1.225,0,0,0,0-2.45H32.867A1.225,1.225,0,0,0,32.867,36.631ZM87.442,28.8a1.226,1.226,0,0,0-1.226,1.224v7.228a1.225,1.225,0,0,0,1.226,1.224h7.228a1.224,1.224,0,0,0,1.224-1.224V30.024A1.224,1.224,0,0,0,94.669,28.8Zm6,2.45H88.667v4.778h4.778Zm-6,9.136a1.226,1.226,0,0,0-1.226,1.224v7.228a1.225,1.225,0,0,0,1.226,1.224h7.228a1.224,1.224,0,0,0,1.224-1.224V41.611a1.224,1.224,0,0,0-1.224-1.224Zm6,2.45H88.667v4.778h4.778Zm-6,9.136A1.226,1.226,0,0,0,86.216,53.2v7.228a1.225,1.225,0,0,0,1.226,1.224h7.228a1.224,1.224,0,0,0,1.224-1.224V53.2a1.224,1.224,0,0,0-1.224-1.224Zm6,2.45H88.667V59.2h4.778Zm-37.8-27.071H62.8V15.665H55.649Zm9.6,0h7.146V15.665H65.245ZM72.391,29.8H65.245V41.487h7.146Zm-9.6,0H55.649V41.487H62.8ZM54.058,51.747H73.983a1.224,1.224,0,0,1,1.224,1.224V63.745h4.627V7.869H48.2V63.746h4.627V52.973A1.226,1.226,0,0,1,54.058,51.747Zm18.7,2.45H55.282v9.548H72.758ZM54.423,13.215A1.224,1.224,0,0,0,53.2,14.439V42.711a1.224,1.224,0,0,0,1.224,1.224H73.616a1.224,1.224,0,0,0,1.224-1.224V14.441a1.224,1.224,0,0,0-1.224-1.224H54.423ZM45.756,63.746v-36H28.309v36ZM82.284,20.828V63.746H99.828V28.561Z" transform="translate(998.979 4671.98)" fill="#1486cd" fill-rule="evenodd"/>
  </g>
</svg>
