<svg xmlns="http://www.w3.org/2000/svg" xmlns:xlink="http://www.w3.org/1999/xlink" width="120" height="120" viewBox="0 0 120 120">
  <defs>
    <clipPath id="clip-path">
      <rect id="Rectangle_399" data-name="Rectangle 399" width="120" height="120" transform="translate(684 4686)" fill="#1a82c6" stroke="#707070" stroke-width="1"/>
    </clipPath>
  </defs>
  <g id="Mask_Group_98" data-name="Mask Group 98" transform="translate(-684 -4686)" clip-path="url(#clip-path)">
    <g id="laptops_5952092" transform="translate(676.632 4678.632)">
      <path id="Path_45" data-name="Path 45" d="M49.737,23.824a1.052,1.052,0,0,0-1.728.563,5.271,5.271,0,0,1-2.376,3.355,1.053,1.053,0,0,0-.145,1.682L60,42.32a1.053,1.053,0,0,0,1.723-.542,5.274,5.274,0,0,1,2.438-3.3,1.053,1.053,0,0,0,.162-1.692Zm33.944-1.078a1.053,1.053,0,0,0-1.73-.291L68.737,36.562a1.053,1.053,0,0,0,.323,1.673,5.283,5.283,0,0,1,2.751,3.041,1.053,1.053,0,0,0,1.762.373l13.493-14.4a1.053,1.053,0,0,0-.4-1.707,5.283,5.283,0,0,1-2.983-2.794ZM37.689,24.2a1.053,1.053,0,0,0-1.709-.626L23.19,34.19a1.053,1.053,0,0,0,.186,1.744,5.28,5.28,0,0,1,2.611,3.144,1.053,1.053,0,0,0,1.68.5l12.359-10.26a1.053,1.053,0,0,0-.085-1.684A5.266,5.266,0,0,1,37.689,24.2Zm11.826,2.246L61.956,37.5a7.4,7.4,0,0,0-1.707,2.226L47.842,28.7a7.4,7.4,0,0,0,1.673-2.255Zm33.008-1.517a7.424,7.424,0,0,0,2.041,1.913L73.084,39.094a7.413,7.413,0,0,0-1.914-2.048ZM36.111,26.2A7.381,7.381,0,0,0,37.7,28.515L27.409,37.059a7.4,7.4,0,0,0-1.788-2.152Z" fill="#1a82c6" fill-rule="evenodd"/>
      <path id="Path_46" data-name="Path 46" d="M42.868,15.9a7.366,7.366,0,1,0,7.366,7.366A7.37,7.37,0,0,0,42.868,15.9Zm0,2.105a5.261,5.261,0,1,1-5.26,5.261A5.263,5.263,0,0,1,42.868,18.007Z" fill="#1a82c6" fill-rule="evenodd"/>
      <path id="Path_47" data-name="Path 47" d="M88.488,13.239A7.366,7.366,0,1,0,95.853,20.6,7.369,7.369,0,0,0,88.488,13.239Zm0,2.105a5.261,5.261,0,1,1-5.261,5.26A5.263,5.263,0,0,1,88.488,15.344Z" fill="#1a82c6" fill-rule="evenodd"/>
      <path id="Path_48" data-name="Path 48" d="M50.163,106.935a1.053,1.053,0,0,0-1.006-.743H10.632a3.264,3.264,0,0,0-3.263,3.263v1.823A10.219,10.219,0,0,0,17.588,121.5h93.045a10.219,10.219,0,0,0,10.219-10.219v-1.823a3.264,3.264,0,0,0-3.263-3.263H79.063a1.053,1.053,0,0,0-1.006.743A2.08,2.08,0,0,1,76.07,108.4H52.151a2.08,2.08,0,0,1-1.988-1.468Zm-1.7,1.362a4.185,4.185,0,0,0,3.69,2.211H76.07a4.186,4.186,0,0,0,3.69-2.211h37.829a1.158,1.158,0,0,1,1.158,1.158v1.823a8.113,8.113,0,0,1-8.114,8.114H17.588a8.114,8.114,0,0,1-8.114-8.114v-1.823a1.158,1.158,0,0,1,1.158-1.158Z" fill="#1a82c6" fill-rule="evenodd"/>
      <path id="Path_49" data-name="Path 49" d="M39.308,65.7a6.757,6.757,0,1,0,6.757,6.757A6.761,6.761,0,0,0,39.308,65.7Zm0,2.105a4.652,4.652,0,1,1-4.652,4.652A4.654,4.654,0,0,1,39.308,67.807Z" fill="#1a82c6" fill-rule="evenodd"/>
      <path id="Path_50" data-name="Path 50" d="M39.314,61.91A14.234,14.234,0,1,0,53.549,76.144,14.242,14.242,0,0,0,39.314,61.91Zm0,2.105A12.129,12.129,0,1,1,27.185,76.144,12.135,12.135,0,0,1,39.314,64.015Z" fill="#1a82c6" fill-rule="evenodd"/>
      <path id="Path_51" data-name="Path 51" d="M44.294,74.837c-.721-.347-.9-.079-1.227.362a4.65,4.65,0,0,1-7.516,0l-1.223-.363s-.38.125-.74.264a7.98,7.98,0,0,0-4.967,8.936l.3,1.583a1.052,1.052,0,0,0,.286.545,14.226,14.226,0,0,0,20.2.015,1.055,1.055,0,0,0,.288-.546l.316-1.665a7.9,7.9,0,0,0-4.915-8.845s-.69-.233-.8-.287Zm-.038,2.222.09.032a5.8,5.8,0,0,1,3.6,6.485l-.255,1.34A12.12,12.12,0,0,1,30.929,84.9h0l-.239-1.26a5.875,5.875,0,0,1,3.648-6.575l.025-.009a6.753,6.753,0,0,0,9.894,0Z" fill="#1a82c6" fill-rule="evenodd"/>
      <path id="Path_52" data-name="Path 52" d="M84.4,51.8a1.053,1.053,0,0,0-1.046-1.174H21.686a3.043,3.043,0,0,0-3.042,3.042v46.948a1.053,1.053,0,0,0,1.053,1.053h88.827a1.053,1.053,0,0,0,1.052-1.053V74.138a1.053,1.053,0,0,0-1.292-1.025A19.566,19.566,0,0,1,84.4,51.8Zm-2.2.931q-.041.666-.041,1.343a21.676,21.676,0,0,0,25.31,21.353V99.56H20.75v-45.9a.937.937,0,0,1,.937-.937Z" fill="#1a82c6" fill-rule="evenodd"/>
      <path id="Path_53" data-name="Path 53" d="M100.755,33.944V53.7a3.439,3.439,0,0,0,3.439,3.439c4.675,0,15,0,19.757-.018a3.422,3.422,0,0,0,3.4-3.74l0-.012A25.752,25.752,0,0,0,104.529,30.52h-.014a3.439,3.439,0,0,0-3.761,3.426ZM102.86,53.7V33.944a1.334,1.334,0,0,1,1.454-1.329,23.643,23.643,0,0,1,20.943,20.964,1.316,1.316,0,0,1-1.31,1.435h0c-4.759.019-15.076.019-19.749.019A1.334,1.334,0,0,1,102.86,53.7Z" fill="#1a82c6" fill-rule="evenodd"/>
      <path id="Path_54" data-name="Path 54" d="M102.879,33.733a1.053,1.053,0,0,0-1.138-1.223,21.66,21.66,0,1,0,23.643,23.62,1.052,1.052,0,0,0-1.226-1.136l-.228.019c-4.76.019-15.049.019-19.723.019a1.346,1.346,0,0,1-1.346-1.347V33.958a1.272,1.272,0,0,1,.019-.224Zm-2.124,1.023v18.93a3.451,3.451,0,0,0,3.451,3.451c4.43,0,13.9,0,18.933-.016a19.556,19.556,0,1,1-22.384-22.365Z" fill="#1a82c6" fill-rule="evenodd"/>
      <path id="Path_55" data-name="Path 55" d="M57.894,68.955H80.021a1.053,1.053,0,0,0,0-2.105H57.894a1.053,1.053,0,0,0,0,2.105Z" fill="#1a82c6" fill-rule="evenodd"/>
      <path id="Path_56" data-name="Path 56" d="M60.093,77.2H87.3a1.053,1.053,0,0,0,0-2.105H60.093a1.053,1.053,0,1,0,0,2.105Z" fill="#1a82c6" fill-rule="evenodd"/>
      <path id="Path_57" data-name="Path 57" d="M57.894,85.439H98.342a1.053,1.053,0,0,0,0-2.105H57.894a1.053,1.053,0,0,0,0,2.105Z" fill="#1a82c6" fill-rule="evenodd"/>
      <path id="Path_58" data-name="Path 58" d="M66.843,35.64a7.366,7.366,0,1,0,7.366,7.366A7.369,7.369,0,0,0,66.843,35.64Zm0,2.105a5.261,5.261,0,1,1-5.26,5.26A5.263,5.263,0,0,1,66.843,37.746Z" fill="#1a82c6" fill-rule="evenodd"/>
      <path id="Path_59" data-name="Path 59" d="M20.952,33.237A7.366,7.366,0,1,0,28.317,40.6,7.369,7.369,0,0,0,20.952,33.237Zm0,2.1A5.261,5.261,0,1,1,15.691,40.6,5.263,5.263,0,0,1,20.952,35.342Z" fill="#1a82c6" fill-rule="evenodd"/>
      <path id="Path_60" data-name="Path 60" d="M72.89,43.77a1.052,1.052,0,0,0-1.008.75,5.263,5.263,0,0,1-10.079,0,1.052,1.052,0,0,0-1.008-.75H25.645a1.053,1.053,0,0,0-.783.349A5.258,5.258,0,0,1,18.069,45a1.053,1.053,0,0,0-1.078-.047,9.9,9.9,0,0,0-5.2,8.71v52.506a9.9,9.9,0,0,0,.073,1.2,1.052,1.052,0,0,0,1.045.925H48.461a4.185,4.185,0,0,0,3.69,2.211H76.07a4.186,4.186,0,0,0,3.69-2.211h35.551a1.052,1.052,0,0,0,1.045-.925,9.9,9.9,0,0,0,.073-1.2V71.132a1.053,1.053,0,0,0-1.644-.871A19.555,19.555,0,0,1,86.344,45.3a1.053,1.053,0,0,0-.94-1.526Zm.738,2.105h10.14a21.663,21.663,0,0,0,30.555,27.14s0,33.156,0,33.156v.021H79.063a1.053,1.053,0,0,0-1.006.743A2.08,2.08,0,0,1,76.07,108.4H52.151a2.08,2.08,0,0,1-1.988-1.468,1.053,1.053,0,0,0-1.006-.743H13.9V53.665A7.791,7.791,0,0,1,17.488,47.1a7.367,7.367,0,0,0,8.606-1.229H60.058a7.367,7.367,0,0,0,13.57,0Z" fill="#1a82c6" fill-rule="evenodd"/>
    </g>
  </g>
</svg>
