<svg xmlns="http://www.w3.org/2000/svg" xmlns:xlink="http://www.w3.org/1999/xlink" width="118" height="118" viewBox="0 0 118 118">
  <defs>
    <clipPath id="clip-path">
      <rect id="Rectangle_162" data-name="Rectangle 162" width="118" height="118" transform="translate(280 3859)" fill="#0092e0" stroke="#707070" stroke-width="1"/>
    </clipPath>
  </defs>
  <g id="Mask_Group_30" data-name="Mask Group 30" transform="translate(-280 -3859)" clip-path="url(#clip-path)">
    <g id="tablet_1304972" transform="translate(292.815 3859)">
      <path id="Path_149" data-name="Path 149" d="M89.825,115.207a9.2,9.2,0,0,0,2.544-6.486V11.634A11.69,11.69,0,0,0,80.737,0H11.624A11.687,11.687,0,0,0,0,11.641v94.725A11.688,11.688,0,0,0,11.629,118H83.246A9.241,9.241,0,0,0,89.825,115.207ZM3.869,106.359V11.645a7.815,7.815,0,0,1,7.76-7.776h69.1A7.818,7.818,0,0,1,88.5,11.641v97.108c0,.02-.012.04-.012.06a5.082,5.082,0,0,1-1.446,3.705,5.264,5.264,0,0,1-3.8,1.618H11.635A7.817,7.817,0,0,1,3.869,106.359Zm0,0" fill="#0092e0"/>
      <path id="Path_150" data-name="Path 150" d="M82.455,11.365A1.935,1.935,0,0,0,80.52,9.43H11.607a1.935,1.935,0,0,0-1.934,1.934V98.656a1.935,1.935,0,0,0,1.934,1.934H80.52a1.935,1.935,0,0,0,1.934-1.934ZM78.828,96.48H13.541V13.3H78.828Zm0,0" fill="#0092e0"/>
      <path id="Path_151" data-name="Path 151" d="M49.219,105.184H43.15a1.934,1.934,0,1,0,0,3.869h6.07a1.934,1.934,0,1,0,0-3.869Zm0,0" fill="#0092e0"/>
      <path id="Path_152" data-name="Path 152" d="M37.963,70.578v7.63a4.938,4.938,0,0,0,4.969,4.972h6.5a4.936,4.936,0,0,0,4.969-4.972V70.619a16.66,16.66,0,0,0,9.043-14.656,16.273,16.273,0,0,0-5.195-11.94A17.7,17.7,0,0,0,45.1,39.3,17.428,17.428,0,0,0,33.652,44.51,16.294,16.294,0,0,0,28.92,55.9,16.487,16.487,0,0,0,37.963,70.578Zm11.473,8.733H42.931a1.065,1.065,0,0,1-1.1-1.1V74.234h8.7v3.975a1.066,1.066,0,0,1-1.1,1.1ZM36.418,47.218a13.574,13.574,0,0,1,8.916-4.052q.415-.024.827-.025a13.8,13.8,0,0,1,9.452,3.7,12.448,12.448,0,0,1,4,9.124,12.947,12.947,0,0,1-7.891,11.679,1.962,1.962,0,0,0-1.181,1.768v.954h-8.7V69.353a1.961,1.961,0,0,0-1.2-1.779,12.7,12.7,0,0,1-7.853-11.657A12.462,12.462,0,0,1,36.418,47.218Zm0,0" fill="#0092e0"/>
      <path id="Path_153" data-name="Path 153" d="M46.184,36.5a1.935,1.935,0,0,0,1.934-1.934V27.026a1.934,1.934,0,1,0-3.869,0V34.57A1.935,1.935,0,0,0,46.184,36.5Zm0,0" fill="#0092e0"/>
      <path id="Path_154" data-name="Path 154" d="M16.853,57.066H24.7a1.934,1.934,0,1,0,0-3.869H16.853a1.934,1.934,0,1,0,0,3.869Zm0,0" fill="#0092e0"/>
      <path id="Path_155" data-name="Path 155" d="M65.73,55.131a1.935,1.935,0,0,0,1.934,1.934h7.851a1.934,1.934,0,1,0,0-3.869H67.664A1.935,1.935,0,0,0,65.73,55.131Zm0,0" fill="#0092e0"/>
      <path id="Path_156" data-name="Path 156" d="M29.716,42.008A1.934,1.934,0,0,0,32.38,39.2l-5.588-5.31A1.935,1.935,0,1,0,24.127,36.7Zm0,0" fill="#0092e0"/>
      <path id="Path_157" data-name="Path 157" d="M61.322,42.539a1.926,1.926,0,0,0,1.332-.532l5.59-5.31a1.935,1.935,0,0,0-2.665-2.805l-5.59,5.31a1.934,1.934,0,0,0,1.333,3.337Zm0,0" fill="#0092e0"/>
    </g>
  </g>
</svg>
