<svg xmlns="http://www.w3.org/2000/svg" xmlns:xlink="http://www.w3.org/1999/xlink" width="118" height="118" viewBox="0 0 118 118">
  <defs>
    <clipPath id="clip-path">
      <rect id="Rectangle_163" data-name="Rectangle 163" width="118" height="118" transform="translate(832 3859)" fill="#0092e0" stroke="#707070" stroke-width="1"/>
    </clipPath>
  </defs>
  <g id="Mask_Group_31" data-name="Mask Group 31" transform="translate(-832 -3859)" clip-path="url(#clip-path)">
    <path id="product_16886519" d="M106.014,77.636V45.665a9.056,9.056,0,1,0-8.335-14.442L69.99,15.239a9.057,9.057,0,1,0-16.679,0L25.623,31.222a9.055,9.055,0,1,0-8.335,14.442V77.634a9.056,9.056,0,1,0,8.335,14.442l27.687,15.986a9.057,9.057,0,1,0,16.679,0L97.677,92.076a9.054,9.054,0,1,0,8.337-14.44ZM104.9,30.028a6.649,6.649,0,1,1-6.649,6.649,6.658,6.658,0,0,1,6.649-6.649ZM61.65,5.057A6.649,6.649,0,1,1,55,11.706,6.656,6.656,0,0,1,61.65,5.057Zm-49.9,31.622A6.649,6.649,0,1,1,18.4,43.329,6.658,6.658,0,0,1,11.747,36.679ZM18.4,93.272a6.649,6.649,0,1,1,6.649-6.649A6.658,6.658,0,0,1,18.4,93.272ZM61.65,118.243a6.649,6.649,0,1,1,6.649-6.649,6.658,6.658,0,0,1-6.649,6.649Zm7.109-12.251a9.04,9.04,0,0,0-14.218,0L26.808,89.98a9.05,9.05,0,0,0-7.114-12.32V45.643a9.05,9.05,0,0,0,7.114-12.32L54.541,17.31a9.04,9.04,0,0,0,14.218,0L96.492,33.322a9.05,9.05,0,0,0,7.114,12.32V77.66a9.05,9.05,0,0,0-7.114,12.32ZM104.9,93.272a6.649,6.649,0,1,1,6.649-6.649A6.656,6.656,0,0,1,104.9,93.272ZM88.839,45.258,62.252,29.908a1.208,1.208,0,0,0-1.2,0L34.462,45.258a1.2,1.2,0,0,0-.6,1.043V77a1.2,1.2,0,0,0,.6,1.043l26.587,15.35a1.2,1.2,0,0,0,1.2,0l26.587-15.35a1.2,1.2,0,0,0,.6-1.043V46.3a1.2,1.2,0,0,0-.6-1.043ZM61.65,32.34,85.831,46.3l-7.367,4.253L54.286,36.593Zm0,27.921L37.472,46.3l7.367-4.253,24.181,13.96Zm9.775-5.642L47.244,40.658l4.631-2.676,24.181,13.96Zm1.2,2.086,4.631-2.673v7.1L72.629,63.8ZM36.268,48.386l24.178,13.96V90.267L36.268,76.307ZM62.854,90.265V62.346l7.367-4.253v7.8a1.2,1.2,0,0,0,1.806,1.043l7.039-4.065a1.2,1.2,0,0,0,.6-1.043V52.639l7.367-4.253V76.307Z" transform="translate(829.349 3856.352)" fill="#0092e0"/>
  </g>
</svg>
