<svg xmlns="http://www.w3.org/2000/svg" xmlns:xlink="http://www.w3.org/1999/xlink" width="118" height="118" viewBox="0 0 118 118">
  <defs>
    <clipPath id="clip-path">
      <rect id="Rectangle_164" data-name="Rectangle 164" width="118" height="118" transform="translate(1384 3859)" fill="#0092e0" stroke="#707070" stroke-width="1"/>
    </clipPath>
  </defs>
  <g id="Mask_Group_32" data-name="Mask Group 32" transform="translate(-1384 -3859)" clip-path="url(#clip-path)">
    <g id="digital-economy_9665642" transform="translate(1381.85 3856.85)">
      <g id="Group_102" data-name="Group 102">
        <g id="Group_89" data-name="Group 89">
          <path id="Path_158" data-name="Path 158" d="M66.878,110.77c-2.369-4.46-3.92-11.783-3.773-17.807l3.343.082c-.15,6.142,1.588,12.777,3.384,16.156Zm-28.955-.01-2.964-1.549c1.72-3.291,3.361-9.9,3.169-16.156l3.343-.1C41.658,99.082,40.2,106.4,37.922,110.761Z" fill="#0092e0"/>
        </g>
        <g id="Group_90" data-name="Group 90">
          <path id="Path_159" data-name="Path 159" d="M94,94.677H10.8A8.657,8.657,0,0,1,2.15,86.03V30.259A8.657,8.657,0,0,1,10.8,21.612H95.856a6.8,6.8,0,0,1,6.8,6.8V86.03A8.657,8.657,0,0,1,94,94.677ZM10.8,24.956a5.309,5.309,0,0,0-5.3,5.3V86.03a5.309,5.309,0,0,0,5.3,5.3H94a5.309,5.309,0,0,0,5.3-5.3V28.408a3.456,3.456,0,0,0-3.451-3.453Z" fill="#0092e0"/>
        </g>
        <g id="Group_91" data-name="Group 91">
          <path id="Path_160" data-name="Path 160" d="M75.11,120.15H29.691a5.918,5.918,0,1,1,0-11.835H75.11a5.918,5.918,0,1,1,0,11.835Zm-45.419-8.491a2.574,2.574,0,0,0,0,5.147H75.11a2.574,2.574,0,0,0,0-5.147H29.691Z" fill="#0092e0"/>
        </g>
        <g id="Group_92" data-name="Group 92">
          <path id="Path_161" data-name="Path 161" d="M3.822,77.459h97.157V80.8H3.822Z" fill="#0092e0"/>
        </g>
        <g id="Group_93" data-name="Group 93">
          <path id="Path_162" data-name="Path 162" d="M111.276,66.875l-4.7-5.366H88.581V58.165H107.33a1.672,1.672,0,0,1,1.257.57l5.2,5.936ZM107.33,44.249H88.581V40.9h17.991l4.7-5.366,2.515,2.2-5.2,5.936a1.672,1.672,0,0,1-1.257.57Z" fill="#0092e0"/>
        </g>
        <g id="Group_94" data-name="Group 94">
          <path id="Path_163" data-name="Path 163" d="M85.431,38.3H82.087V15.484a1.672,1.672,0,0,1,.53-1.221l5.966-5.584,2.285,2.441-5.436,5.089Zm-17.26,0H64.827V16.209l-5.535-5.181,2.285-2.441,6.064,5.677a1.673,1.673,0,0,1,.529,1.221Z" fill="#0092e0"/>
        </g>
        <g id="Group_95" data-name="Group 95">
          <path id="Path_164" data-name="Path 164" d="M57.776,12.66A5.255,5.255,0,1,1,63.031,7.4a5.261,5.261,0,0,1-5.255,5.255Zm0-7.166A1.911,1.911,0,1,0,59.687,7.4,1.913,1.913,0,0,0,57.776,5.494Z" fill="#0092e0"/>
        </g>
        <g id="Group_96" data-name="Group 96">
          <path id="Path_165" data-name="Path 165" d="M44.328,72.276H13.692A1.672,1.672,0,0,1,12.02,70.6V31.81a1.672,1.672,0,0,1,1.672-1.672H32.96a1.672,1.672,0,0,1,1.182.49L45.51,41.995A1.672,1.672,0,0,1,46,43.177V70.6A1.672,1.672,0,0,1,44.328,72.276ZM15.364,68.932H42.656V43.87L32.268,33.482h-16.9Z" fill="#0092e0"/>
        </g>
        <g id="Group_97" data-name="Group 97">
          <path id="Path_166" data-name="Path 166" d="M44.328,44.85H32.96a1.672,1.672,0,0,1-1.672-1.672V31.81h3.344v9.7h9.7Z" fill="#0092e0"/>
        </g>
        <g id="Group_98" data-name="Group 98">
          <path id="Path_167" data-name="Path 167" d="M92.3,12.66A5.255,5.255,0,1,1,97.552,7.4,5.261,5.261,0,0,1,92.3,12.66Zm0-7.166A1.911,1.911,0,1,0,94.207,7.4,1.913,1.913,0,0,0,92.3,5.494Z" fill="#0092e0"/>
        </g>
        <g id="Group_99" data-name="Group 99">
          <path id="Path_168" data-name="Path 168" d="M114.895,39.2a5.255,5.255,0,1,1,5.255-5.255A5.261,5.261,0,0,1,114.895,39.2Zm0-7.166a1.911,1.911,0,1,0,1.911,1.911A1.913,1.913,0,0,0,114.895,32.036Z" fill="#0092e0"/>
        </g>
        <g id="Group_100" data-name="Group 100">
          <path id="Path_169" data-name="Path 169" d="M114.895,73.723a5.255,5.255,0,1,1,5.255-5.255A5.261,5.261,0,0,1,114.895,73.723Zm0-7.166a1.911,1.911,0,1,0,1.911,1.911A1.913,1.913,0,0,0,114.895,66.557Z" fill="#0092e0"/>
        </g>
        <g id="Group_101" data-name="Group 101">
          <path id="Path_170" data-name="Path 170" d="M75.129,68.859A17.652,17.652,0,1,1,92.781,51.207,17.672,17.672,0,0,1,75.129,68.859Zm0-31.961A14.308,14.308,0,1,0,89.437,51.207,14.324,14.324,0,0,0,75.129,36.9Z" fill="#0092e0"/>
        </g>
      </g>
      <g id="Group_103" data-name="Group 103">
        <path id="Path_171" data-name="Path 171" d="M56.235,87.74H48.566a1.672,1.672,0,1,1,0-3.344h7.669a1.672,1.672,0,1,1,0,3.344Z" fill="#0092e0"/>
      </g>
      <g id="Group_104" data-name="Group 104">
        <path id="Path_172" data-name="Path 172" d="M35.726,62.434H22.295a1.672,1.672,0,1,1,0-3.344H35.726a1.672,1.672,0,1,1,0,3.344Zm0-9.554H22.295a1.672,1.672,0,0,1,0-3.344H35.726a1.672,1.672,0,1,1,0,3.344Z" fill="#0092e0"/>
      </g>
      <g id="Group_105" data-name="Group 105">
        <path id="Path_173" data-name="Path 173" d="M75.087,62.847a1.672,1.672,0,0,1-1.671-1.632l-.019-.792a7.01,7.01,0,0,1-3.1-1.905,1.672,1.672,0,1,1,2.3-2.433,3.1,3.1,0,0,0,2.447,1.193,2.2,2.2,0,1,0,0-4.329,5.759,5.759,0,0,1-5.968-5.509,5.6,5.6,0,0,1,4.267-5.28l-.021-.881a1.672,1.672,0,0,1,1.632-1.711h.041A1.672,1.672,0,0,1,76.657,41.2l.024.994a6.45,6.45,0,0,1,3.564,2.266,1.672,1.672,0,1,1-2.794,1.836,4.35,4.35,0,0,0-2.414-1.019,2.431,2.431,0,0,0-2.624,2.165A2.431,2.431,0,0,0,75.037,49.6a5.759,5.759,0,0,1,5.968,5.509,5.6,5.6,0,0,1-4.264,5.28l.018.74a1.672,1.672,0,0,1-1.631,1.712h-.041Z" fill="#0092e0"/>
      </g>
    </g>
  </g>
</svg>
