<svg xmlns="http://www.w3.org/2000/svg" width="92.228" height="90" viewBox="0 0 92.228 90">
  <g id="arrow_16572172" transform="translate(-1 -0.5)">
    <path id="Path_10" data-name="Path 10" d="M20.025,4.51a6.015,6.015,0,1,0,6.015,6.015A6.015,6.015,0,0,0,20.025,4.51ZM10,10.525A10.025,10.025,0,1,1,20.025,20.55,10.025,10.025,0,0,1,10,10.525Z" transform="translate(27.089 0)" fill="#0092e0" fill-rule="evenodd"/>
    <path id="Path_11" data-name="Path 11" d="M18.025,10.51a6.015,6.015,0,0,0-6.015,6.015V38.462a2.005,2.005,0,0,0,2,2h4.01a2,2,0,0,1,2,2V68.654a2.005,2.005,0,0,0,2,2h8.02a2.005,2.005,0,0,0,2-2V42.471a2,2,0,0,1,2-2h4.01a2.005,2.005,0,0,0,2-2V16.525a6.015,6.015,0,0,0-6.015-6.015ZM8,16.525A10.025,10.025,0,0,1,18.025,6.5h16.04A10.025,10.025,0,0,1,44.089,16.525V38.462a6.015,6.015,0,0,1-6.015,6.015h-2V68.654a6.015,6.015,0,0,1-6.015,6.015h-8.02a6.015,6.015,0,0,1-6.015-6.015V44.476h-2A6.015,6.015,0,0,1,8,38.462Z" transform="translate(21.069 15.831)" fill="#0092e0" fill-rule="evenodd"/>
    <path id="Path_12" data-name="Path 12" d="M20.965,14.929a2.005,2.005,0,0,1-1.344,2.5,35.877,35.877,0,0,0-11.062,5.1C6,24.457,5.01,26.293,5.01,27.879c0,1.8,1.289,3.916,4.594,6.085a38.374,38.374,0,0,0,9.609,4.244l-3.959-7.756a2,2,0,1,1,3.572-1.823L24.84,40.413a2,2,0,0,1-.86,2.69l-12.03,6.26A2,2,0,1,1,10.1,45.806l7.5-3.9A41.638,41.638,0,0,1,7.4,37.316c-3.7-2.43-6.4-5.6-6.4-9.437,0-3.4,2.127-6.275,5.143-8.552a39.746,39.746,0,0,1,12.325-5.742,2.005,2.005,0,0,1,2.5,1.344Zm52.3,0a2.005,2.005,0,0,1,2.5-1.344,39.745,39.745,0,0,1,12.325,5.742c3.016,2.277,5.143,5.156,5.143,8.552,0,3.835-2.7,7.007-6.4,9.437-3.769,2.474-9.027,4.5-15.189,5.959a2,2,0,0,1-.925-3.9c5.909-1.4,10.676-3.285,13.914-5.41,3.3-2.169,4.594-4.289,4.594-6.085,0-1.586-.994-3.422-3.55-5.351a35.873,35.873,0,0,0-11.062-5.1,2.005,2.005,0,0,1-1.344-2.5Z" transform="translate(0 36.9)" fill="#0092e0" fill-rule="evenodd"/>
  </g>
</svg>
