<svg xmlns="http://www.w3.org/2000/svg" width="90.383" height="90.021" viewBox="0 0 90.383 90.021">
  <g id="social_16073017" transform="translate(-5 -5.3)">
    <g id="Group_2" data-name="Group 2" transform="translate(5 5.3)">
      <path id="Path_24" data-name="Path 24" d="M49.995,105.8,46.5,109.295a11.166,11.166,0,0,1,1.687,1.687l3.495-3.495c-.3-.3-.6-.542-.9-.844A10.774,10.774,0,0,0,49.995,105.8Z" transform="translate(-21.494 -45.243)" fill="#0092e0"/>
      <path id="Path_25" data-name="Path 25" d="M106.423,106.524a7.219,7.219,0,0,1-.723.663l3.615,3.676A14.868,14.868,0,0,1,111,109.176l-3.676-3.676c-.241.3-.6.663-.9,1.024Z" transform="translate(-45.023 -45.124)" fill="#0092e0"/>
      <path id="Path_26" data-name="Path 26" d="M51.863,49.636,48.187,45.9A14.867,14.867,0,0,1,46.5,47.587l3.676,3.676a6.872,6.872,0,0,1,.663-.663C51.14,50.3,51.5,49.937,51.863,49.636Z" transform="translate(-21.494 -21.436)" fill="#0092e0"/>
      <path id="Path_27" data-name="Path 27" d="M107.087,51.544l3.856-3.856A11.167,11.167,0,0,1,109.256,46L105.4,49.856c.3.3.6.542.9.844A10.773,10.773,0,0,1,107.087,51.544Z" transform="translate(-44.904 -21.476)" fill="#0092e0"/>
      <path id="Path_28" data-name="Path 28" d="M82.683,63.827a3.579,3.579,0,0,0-1.567-.422H74.789a26.764,26.764,0,0,0,.362-5.363v-.121a4.615,4.615,0,0,0-1.205-2.832,2.963,2.963,0,0,0-3.676-.482l-.723.422a1.243,1.243,0,0,0-.6,1.024V58.1a7.326,7.326,0,0,1-.542,2.772,6.989,6.989,0,0,1-1.567,2.35l-1.024,1.085a1.281,1.281,0,0,0-.9-.422h-5.3A1.209,1.209,0,0,0,58.4,65.093V79.614a1.209,1.209,0,0,0,1.205,1.205h5.3a1.209,1.209,0,0,0,1.205-1.205v-.241a11.09,11.09,0,0,0,2.47.3H79.248a3.127,3.127,0,0,0,3.133-3.013c.964-4.158,2.049-9.219,2.049-9.942A3.254,3.254,0,0,0,82.683,63.827ZM63.642,66.84V78.288H60.75V66.177h2.892ZM80.032,76.3v.241a.7.7,0,0,1-.723.723H68.523a6.875,6.875,0,0,1-2.47-.422v-9.52l2.47-2.47a9.117,9.117,0,0,0,2.049-3.133,9.519,9.519,0,0,0,.723-3.676V56.717l.121-.06a.221.221,0,0,1,.181-.06c.181-.06.362.06.542.181a2.4,2.4,0,0,1,.542,1.265v.121a24.434,24.434,0,0,1-.362,5.122l-.241,1.145a1.083,1.083,0,0,0,.241.964,1.282,1.282,0,0,0,.9.422H81a1.117,1.117,0,0,1,.422.121.94.94,0,0,1,.482.783c.121.6-.9,5.363-1.868,9.581Z" transform="translate(-26.224 -24.721)" fill="#0092e0"/>
      <path id="Path_29" data-name="Path 29" d="M27.716,75.956H14.942A5.032,5.032,0,0,0,10.061,72.1a5.061,5.061,0,1,0,0,10.123,5.032,5.032,0,0,0,4.881-3.856H27.716c0-.422-.06-.783-.06-1.205A7.682,7.682,0,0,1,27.716,75.956ZM10.061,79.813a2.651,2.651,0,1,1,2.651-2.651A2.675,2.675,0,0,1,10.061,79.813Z" transform="translate(-5 -31.849)" fill="#0092e0"/>
      <path id="Path_30" data-name="Path 30" d="M75.656,118.2v11.991a5.072,5.072,0,1,0,6.267,4.941,5.1,5.1,0,0,0-3.856-4.941V118.2c-.422,0-.783.06-1.205.06A8.076,8.076,0,0,1,75.656,118.2Zm3.856,16.932a2.651,2.651,0,1,1-2.651-2.651A2.6,2.6,0,0,1,79.513,135.132Z" transform="translate(-31.549 -50.172)" fill="#0092e0"/>
      <path id="Path_31" data-name="Path 31" d="M117.8,78.367h12.473a5.032,5.032,0,0,0,4.881,3.856,5.061,5.061,0,1,0,0-10.123,5.032,5.032,0,0,0-4.881,3.856H117.8c0,.422.06.783.06,1.205S117.8,77.945,117.8,78.367Zm17.354-3.856a2.651,2.651,0,1,1-2.651,2.651A2.675,2.675,0,0,1,135.154,74.51Z" transform="translate(-49.832 -31.849)" fill="#0092e0"/>
      <path id="Path_32" data-name="Path 32" d="M78.067,27.836V15.3A5.072,5.072,0,1,0,71.8,10.361,5.1,5.1,0,0,0,75.656,15.3V27.836c.422,0,.783-.06,1.205-.06S77.705,27.836,78.067,27.836Zm-3.8-17.474a2.651,2.651,0,1,1,2.651,2.651A2.6,2.6,0,0,1,74.27,10.361Z" transform="translate(-31.549 -5.3)" fill="#0092e0"/>
      <g id="Group_1" data-name="Group 1" transform="translate(23.861 23.741)">
        <path id="Path_33" data-name="Path 33" d="M66.051,87.843a21.186,21.186,0,0,1-15.184-6.327,21.676,21.676,0,0,1,0-30.489,21.385,21.385,0,0,1,30.369,0,21.676,21.676,0,0,1,0,30.489A21.085,21.085,0,0,1,66.051,87.843Zm0-40.733a19.133,19.133,0,1,0,13.5,5.6A19.015,19.015,0,0,0,66.051,47.11Z" transform="translate(-44.6 -44.7)" fill="#0092e0"/>
      </g>
      <path id="Path_34" data-name="Path 34" d="M120.288,36.477A11.388,11.388,0,1,0,108.9,25.088a11.418,11.418,0,0,0,11.388,11.388Zm0-20.306a9,9,0,0,1,8.978,8.978,8.785,8.785,0,0,1-1.627,5.122,7.682,7.682,0,0,0-3.736-4.278,4.765,4.765,0,0,0,1.265-3.254,4.82,4.82,0,0,0-9.641,0,4.765,4.765,0,0,0,1.265,3.254,7.682,7.682,0,0,0-3.736,4.278,8.925,8.925,0,0,1-1.627-5.122,8.786,8.786,0,0,1,8.858-8.978Zm-5.3,16.088a5.333,5.333,0,0,1,10.6,0,9.017,9.017,0,0,1-5.3,1.747A8.149,8.149,0,0,1,114.986,32.259Zm2.892-9.52a2.41,2.41,0,1,1,2.41,2.41A2.417,2.417,0,0,1,117.878,22.738Z" transform="translate(-46.295 -8.639)" fill="#0092e0"/>
      <path id="Path_35" data-name="Path 35" d="M25.788,13.8A11.388,11.388,0,1,0,37.177,25.188,11.418,11.418,0,0,0,25.788,13.8Zm-2.47,8.978a2.41,2.41,0,1,1,2.41,2.41A2.417,2.417,0,0,1,23.318,22.778Zm2.47,4.76a5.306,5.306,0,0,1,5.3,4.76,9.017,9.017,0,0,1-5.3,1.747,8.88,8.88,0,0,1-5.3-1.747A5.306,5.306,0,0,1,25.788,27.538Zm7.291,2.772a7.682,7.682,0,0,0-3.736-4.278,4.765,4.765,0,0,0,1.265-3.254,4.82,4.82,0,0,0-9.641,0,4.765,4.765,0,0,0,1.265,3.254A7.682,7.682,0,0,0,18.5,30.31a8.97,8.97,0,1,1,16.329-5.122A10.223,10.223,0,0,1,33.079,30.31Z" transform="translate(-8.736 -8.678)" fill="#0092e0"/>
      <path id="Path_36" data-name="Path 36" d="M25.788,108.8a11.388,11.388,0,1,0,11.388,11.388A11.418,11.418,0,0,0,25.788,108.8Zm-2.47,8.978a2.41,2.41,0,1,1,2.41,2.41A2.417,2.417,0,0,1,23.318,117.778Zm2.47,4.82a5.306,5.306,0,0,1,5.3,4.76,9.017,9.017,0,0,1-5.3,1.747,8.88,8.88,0,0,1-5.3-1.747A5.306,5.306,0,0,1,25.788,122.6Zm7.291,2.711a7.682,7.682,0,0,0-3.736-4.278,4.765,4.765,0,0,0,1.265-3.254,4.82,4.82,0,1,0-9.641,0,4.765,4.765,0,0,0,1.265,3.254A7.682,7.682,0,0,0,18.5,125.31a8.97,8.97,0,1,1,16.329-5.122A9.84,9.84,0,0,1,33.079,125.31Z" transform="translate(-8.736 -46.436)" fill="#0092e0"/>
      <path id="Path_37" data-name="Path 37" d="M120.288,108.8a11.388,11.388,0,1,0,11.388,11.388A11.418,11.418,0,0,0,120.288,108.8Zm-5.3,18.559a5.333,5.333,0,0,1,10.6,0,9.017,9.017,0,0,1-5.3,1.747A8.88,8.88,0,0,1,114.986,127.359Zm2.892-9.581a2.41,2.41,0,1,1,2.41,2.41A2.417,2.417,0,0,1,117.878,117.778Zm9.7,7.532a7.682,7.682,0,0,0-3.736-4.278,4.765,4.765,0,0,0,1.265-3.254,4.82,4.82,0,1,0-9.641,0,4.765,4.765,0,0,0,1.265,3.254A7.682,7.682,0,0,0,113,125.31a8.97,8.97,0,1,1,16.329-5.122,9.84,9.84,0,0,1-1.747,5.122Z" transform="translate(-46.295 -46.436)" fill="#0092e0"/>
    </g>
  </g>
</svg>
