<svg xmlns="http://www.w3.org/2000/svg" width="94.733" height="90.1" viewBox="0 0 94.733 90.1">
  <path id="target-audience_15640534" d="M42.374,68.964l4.479-4.976a1.479,1.479,0,0,0,.182-1.729l-3.886-6.734a1.479,1.479,0,0,0-1.589-.707l-6.545,1.4L28.972,45.749a1.479,1.479,0,0,0-2.562,0L17.478,61.224l-11.6,6.694a11.8,11.8,0,0,0,5.936,22,11.666,11.666,0,0,0,5.854-1.577L20,86.991l7.454,12.9a5.39,5.39,0,0,0,3.3,2.527,5.483,5.483,0,0,0,1.42.188,5.365,5.365,0,0,0,2.692-.725l1.488-.857a5.439,5.439,0,0,0,1.987-7.416L31.428,81.643H47.133a1.479,1.479,0,0,0,1.281-2.219ZM41.124,57.935l2.812,4.872L40.819,66.27l-4.251-7.363ZM16.189,85.775a8.831,8.831,0,0,1-8.831-15.3l10.658-6.15,8.833,15.293ZM34.872,98.466l-1.486.856a2.478,2.478,0,0,1-3.37-.907l-7.454-12.9,5.763-3.327,7.453,12.907a2.476,2.476,0,0,1-.905,3.375ZM29.724,78.685,20.266,62.31l7.425-12.863,16.88,29.238ZM67.288,12.509A27.428,27.428,0,0,0,48.647,60.058l.364,9.6a1.479,1.479,0,0,0,2.266,1.2l7.614-4.792a27.434,27.434,0,1,0,8.4-53.552Zm0,51.906a24.4,24.4,0,0,1-8.1-1.375,1.479,1.479,0,0,0-1.278.144l-6.039,3.8-.291-7.661a1.478,1.478,0,0,0-.5-1.052,24.469,24.469,0,1,1,16.207,6.143ZM88.061,38.171H85.695A18.523,18.523,0,0,0,68.767,21.51V18.876a1.479,1.479,0,0,0-2.958,0V21.51a18.52,18.52,0,0,0-16.923,16.66H46.514a1.479,1.479,0,0,0,0,2.958H48.84A18.515,18.515,0,0,0,65.809,58.372v2.052a1.479,1.479,0,0,0,2.958,0V58.372A18.517,18.517,0,0,0,85.741,41.129h2.32a1.479,1.479,0,0,0,0-2.958ZM67.288,52a1.479,1.479,0,0,0-1.479,1.479V55.4a15.429,15.429,0,0,1-7.075-2.5V47.464c0-1.971,3.723-3.516,8.489-3.531l.065,0,.067,0a16.217,16.217,0,0,1,6.232,1.124c1.029.457,2.254,1.245,2.254,2.407V52.9a15.436,15.436,0,0,1-7.075,2.5V53.48A1.479,1.479,0,0,0,67.288,52ZM63.611,36.288c0-2.585,1.649-4.689,3.676-4.689s3.682,2.1,3.682,4.689c0,2.559-1.618,4.644-3.62,4.687h-.121c-2-.041-3.617-2.127-3.617-4.687ZM78.8,50.359V47.464c0-3.183-2.914-5.117-6.654-5.971a8.277,8.277,0,0,0,1.782-5.2c0-4.216-2.979-7.647-6.64-7.647s-6.634,3.43-6.634,7.647a8.282,8.282,0,0,0,1.781,5.206c-3.742.855-6.658,2.788-6.658,5.971v2.89a15.469,15.469,0,0,1-3.968-9.226h1.655a1.479,1.479,0,0,0,0-2.958h-1.6A15.557,15.557,0,0,1,65.809,24.482v1.344a1.479,1.479,0,1,0,2.958,0V24.482a15.56,15.56,0,0,1,13.951,13.69h-1.6a1.479,1.479,0,1,0,0,2.958h1.655a15.466,15.466,0,0,1-3.973,9.23Z" transform="translate(0.011 -12.509)" fill="#0092e0"/>
</svg>
