<svg xmlns="http://www.w3.org/2000/svg" width="83.993" height="90.155" viewBox="0 0 83.993 90.155">
  <g id="_x36_7" transform="translate(-3.644 -2.003)">
    <path id="Path_38" data-name="Path 38" d="M25.711,10.865H49.58a1.878,1.878,0,0,0,0-3.757H25.711a1.878,1.878,0,0,0,0,3.757Z" transform="translate(17.736 4.484)" fill="#0092e0"/>
    <path id="Path_39" data-name="Path 39" d="M25.711,16.748H49.58a1.878,1.878,0,0,0,0-3.757H25.711a1.878,1.878,0,0,0,0,3.757Z" transform="translate(17.736 9.653)" fill="#0092e0"/>
    <path id="Path_40" data-name="Path 40" d="M25.711,22.631H49.58a1.878,1.878,0,0,0,0-3.757H25.711a1.878,1.878,0,0,0,0,3.757Z" transform="translate(17.736 14.821)" fill="#0092e0"/>
    <path id="Path_41" data-name="Path 41" d="M25.711,28.514H49.58a1.878,1.878,0,0,0,0-3.757H25.711a1.878,1.878,0,0,0,0,3.757Z" transform="translate(17.736 19.989)" fill="#0092e0"/>
    <path id="Path_42" data-name="Path 42" d="M25.711,34.4H49.58a1.878,1.878,0,0,0,0-3.757H25.711a1.878,1.878,0,0,0,0,3.757Z" transform="translate(17.736 25.157)" fill="#0092e0"/>
    <path id="Path_43" data-name="Path 43" d="M12.386,31.531a1.877,1.877,0,0,0,2.632-.023l5-5a1.878,1.878,0,0,0-2.656-2.656l-3.7,3.7L12.584,26.5a1.878,1.878,0,1,0-2.609,2.7Z" transform="translate(5.058 18.709)" fill="#0092e0"/>
    <path id="Path_44" data-name="Path 44" d="M7.311,59.081H18.165v6.557H14.757a1.878,1.878,0,0,0-1.878,1.878v6.817a9.474,9.474,0,0,0,9.455,9.456h6.336a9.934,9.934,0,0,0,9.837,8.369h.007l41.826-.032c3.33,0,7.3-1.676,7.3-9.657V11.632a3.689,3.689,0,0,0-3.685-3.685H77.908V5.633A3.633,3.633,0,0,0,74.279,2H21.8a3.634,3.634,0,0,0-3.63,3.629V15.32A12.5,12.5,0,0,0,7.549,27.657V33.7H7.311a3.671,3.671,0,0,0-3.667,3.667V55.414A3.671,3.671,0,0,0,7.311,59.081Zm9.325,15.253V69.4H60.007v4.938a9.362,9.362,0,0,0,1.915,5.7H22.333A5.715,5.715,0,0,1,16.635,74.333Zm61.273,0V11.7l5.971-.07V82.469c0,5.444-1.827,5.9-3.542,5.9L38.506,88.4a6.171,6.171,0,0,1-6-4.612H69.462C72.835,83.789,77.908,80.052,77.908,74.331Zm-3.757-68.7v68.7a5.686,5.686,0,0,1-5.217,5.649,5.657,5.657,0,0,1-5.17-5.646V67.517a1.878,1.878,0,0,0-1.878-1.878H21.922V59.081H32.778a3.671,3.671,0,0,0,3.667-3.667V37.363A3.671,3.671,0,0,0,32.778,33.7h-.24V27.657A12.5,12.5,0,0,0,21.9,15.317L21.8,5.76ZM11.306,27.657a8.738,8.738,0,0,1,17.475,0V33.7H11.306Zm21.382,9.8.09,17.871L7.4,55.414l-.09-17.961Z" transform="translate(0)" fill="#0092e0"/>
  </g>
</svg>
