<svg xmlns="http://www.w3.org/2000/svg" width="90.589" height="90" viewBox="0 0 90.589 90">
  <g id="Layer_25" data-name="Layer 25" transform="translate(-2.799 -3.229)">
    <path id="Path_13" data-name="Path 13" d="M81.444,39.153a28.735,28.735,0,1,0-55.656-14.32,23.281,23.281,0,0,0,.548,46.559,1.37,1.37,0,0,0,0-2.74,20.543,20.543,0,0,1,0-41.085c.071,0,.139.006.208.011l.3.016a1.309,1.309,0,0,0,1.376-1.1A26,26,0,1,1,78.418,39.732,1.37,1.37,0,0,0,79.471,41.5a13.691,13.691,0,0,1-2.5,27.149H75.6a1.37,1.37,0,0,0,0,2.739h1.368a16.431,16.431,0,0,0,4.478-32.237Z" transform="translate(0 0)" fill="#0092e0"/>
    <path id="Path_14" data-name="Path 14" d="M46.2,53.406A23.2,23.2,0,1,0,23,30.2a23.2,23.2,0,0,0,23.2,23.2Zm0-43.676A20.473,20.473,0,1,1,25.73,30.2,20.473,20.473,0,0,1,46.2,9.73Z" transform="translate(7.516 1.376)" fill="#0092e0"/>
    <path id="Path_15" data-name="Path 15" d="M41.46,34.568a5.454,5.454,0,0,0,5.266-4.095h9.748a1.365,1.365,0,1,0,0-2.73H46.725a5.451,5.451,0,0,0-3.9-3.9V11.365a1.365,1.365,0,0,0-2.73,0V23.843A5.448,5.448,0,0,0,41.46,34.568Zm0-8.189a2.73,2.73,0,1,1-2.73,2.73,2.73,2.73,0,0,1,2.73-2.73Z" transform="translate(12.267 2.471)" fill="#0092e0"/>
    <path id="Path_16" data-name="Path 16" d="M61.582,47H26.095A4.1,4.1,0,0,0,22,51.095v5.46a4.1,4.1,0,0,0,4.095,4.095v2.73A4.1,4.1,0,0,0,22,67.473v5.46a4.1,4.1,0,0,0,4.095,4.095H61.582a4.1,4.1,0,0,0,4.095-4.095v-5.46a4.1,4.1,0,0,0-4.095-4.095H60.217v-2.73h1.365a4.1,4.1,0,0,0,4.095-4.095v-5.46A4.1,4.1,0,0,0,61.582,47Zm1.365,20.473v5.46A1.366,1.366,0,0,1,61.582,74.3H26.095a1.366,1.366,0,0,1-1.365-1.365v-5.46a1.366,1.366,0,0,1,1.365-1.365H61.582a1.366,1.366,0,0,1,1.365,1.365Zm-5.46-4.095H28.824v-2.73H57.487Zm5.46-6.824a1.366,1.366,0,0,1-1.365,1.365H26.095a1.366,1.366,0,0,1-1.365-1.365v-5.46a1.366,1.366,0,0,1,1.365-1.365H61.582a1.366,1.366,0,0,1,1.365,1.365Z" transform="translate(7.136 16.201)" fill="#0092e0"/>
    <path id="Path_17" data-name="Path 17" d="M27.73,51H26.365a1.365,1.365,0,0,0,0,2.73H27.73a1.365,1.365,0,0,0,0-2.73Z" transform="translate(8.182 17.603)" fill="#0092e0"/>
    <path id="Path_18" data-name="Path 18" d="M35.46,51H31.365a1.365,1.365,0,0,0,0,2.73H35.46a1.365,1.365,0,1,0,0-2.73Z" transform="translate(10.028 17.603)" fill="#0092e0"/>
    <path id="Path_19" data-name="Path 19" d="M39.73,51H38.365a1.365,1.365,0,0,0,0,2.73H39.73a1.365,1.365,0,0,0,0-2.73Z" transform="translate(12.604 17.603)" fill="#0092e0"/>
    <path id="Path_20" data-name="Path 20" d="M27.73,63H26.365a1.365,1.365,0,0,0,0,2.73H27.73a1.365,1.365,0,0,0,0-2.73Z" transform="translate(8.182 22.039)" fill="#0092e0"/>
    <path id="Path_21" data-name="Path 21" d="M34.46,63H30.365a1.365,1.365,0,0,0,0,2.73H34.46a1.365,1.365,0,0,0,0-2.73Z" transform="translate(9.659 22.039)" fill="#0092e0"/>
    <path id="Path_22" data-name="Path 22" d="M37.73,63H36.365a1.365,1.365,0,0,0,0,2.73H37.73a1.365,1.365,0,0,0,0-2.73Z" transform="translate(11.867 22.039)" fill="#0092e0"/>
    <path id="Path_23" data-name="Path 23" d="M20.681,22.4A19.009,19.009,0,0,0,6.055,39.508a1.365,1.365,0,0,0,1.257,1.465c.036,0,.071,0,.105,0a1.365,1.365,0,0,0,1.36-1.261A16.287,16.287,0,0,1,21.31,25.055a1.365,1.365,0,1,0-.629-2.656Z" transform="translate(1.186 7.066)" fill="#0092e0"/>
  </g>
</svg>
