<svg xmlns="http://www.w3.org/2000/svg" width="90.899" height="90" viewBox="0 0 90.899 90">
  <g id="file_2521641" transform="translate(-16 -16)">
    <path id="Path_1" data-name="Path 1" d="M99.325,25H70.54V23.5A7.546,7.546,0,0,0,62.965,16H47.815a7.546,7.546,0,0,0-7.575,7.5V37H23.575A7.546,7.546,0,0,0,16,44.5v54a7.546,7.546,0,0,0,7.575,7.5h39.39a7.546,7.546,0,0,0,7.575-7.5V88H99.325a7.546,7.546,0,0,0,7.575-7.5v-48A7.546,7.546,0,0,0,99.325,25ZM67.51,98.5a4.528,4.528,0,0,1-4.545,4.5H23.575a4.528,4.528,0,0,1-4.545-4.5v-54A4.528,4.528,0,0,1,23.575,40H52.36v7.5A7.546,7.546,0,0,0,59.935,55H67.51v9.766c-3.867,2.9-6.06,6.4-6.06,9.734a1.5,1.5,0,0,0,.681,1.252,1.528,1.528,0,0,0,1.431.127c.04-.017,1.578-.662,3.949-1.453Zm-12.12-51V42.121L65.367,52H59.935A4.528,4.528,0,0,1,55.39,47.5Zm9.657,24.591a14.4,14.4,0,0,1,5.208-5.586A23.281,23.281,0,0,1,82.66,62.5,1.508,1.508,0,0,0,84.175,61V59.761L90.937,65.5l-6.762,5.739V70a1.508,1.508,0,0,0-1.515-1.5C76.071,68.5,68.851,70.727,65.046,72.091ZM103.869,80.5A4.528,4.528,0,0,1,99.325,85H70.54V73.487a49.624,49.624,0,0,1,10.6-1.946V74.5a1.5,1.5,0,0,0,.882,1.363,1.527,1.527,0,0,0,1.619-.224l10.6-9a1.49,1.49,0,0,0,0-2.278l-10.6-9a1.527,1.527,0,0,0-1.619-.224,1.5,1.5,0,0,0-.882,1.363v3.058a26.737,26.737,0,0,0-10.6,3.259V53.5a1.493,1.493,0,0,0-.444-1.061l-15.15-15A1.523,1.523,0,0,0,53.875,37H43.27V23.5A4.528,4.528,0,0,1,47.815,19h15.15a4.528,4.528,0,0,1,4.545,4.5v12A1.508,1.508,0,0,0,69.025,37h30.3a4.528,4.528,0,0,1,4.545,4.5Zm0-45A7.584,7.584,0,0,0,99.325,34H70.54V28H99.325a4.528,4.528,0,0,1,4.545,4.5Z" fill="#0092e0"/>
    <path id="Path_2" data-name="Path 2" d="M129.515,259.03h21.21a1.515,1.515,0,1,0,0-3.03h-21.21a1.515,1.515,0,1,0,0,3.03Z" transform="translate(-90.79 -195.016)" fill="#0092e0"/>
    <path id="Path_3" data-name="Path 3" d="M65.515,307.03h21.21a1.515,1.515,0,0,0,0-3.03H65.515a1.515,1.515,0,0,0,0,3.03Z" transform="translate(-38.91 -234.019)" fill="#0092e0"/>
    <path id="Path_4" data-name="Path 4" d="M215.575,400h-6.06a1.515,1.515,0,1,0,0,3.03h6.06a1.515,1.515,0,1,0,0-3.03Z" transform="translate(-155.64 -312.025)" fill="#0092e0"/>
    <path id="Path_5" data-name="Path 5" d="M65.515,259.03h6.06a1.515,1.515,0,1,0,0-3.03h-6.06a1.515,1.515,0,0,0,0,3.03Z" transform="translate(-38.91 -195.016)" fill="#0092e0"/>
    <path id="Path_6" data-name="Path 6" d="M65.515,355.03h15.15a1.515,1.515,0,1,0,0-3.03H65.515a1.515,1.515,0,1,0,0,3.03Z" transform="translate(-38.91 -273.022)" fill="#0092e0"/>
    <path id="Path_7" data-name="Path 7" d="M65.515,211.03H74.6a1.515,1.515,0,1,0,0-3.03h-9.09a1.515,1.515,0,1,0,0,3.03Z" transform="translate(-38.91 -156.012)" fill="#0092e0"/>
    <circle id="Ellipse_7" data-name="Ellipse 7" cx="1.411" cy="1.411" r="1.411" transform="translate(52.674 69.984)" fill="#0092e0"/>
    <path id="Path_8" data-name="Path 8" d="M176,353.515a1.515,1.515,0,0,0,1.515,1.515h9.09a1.515,1.515,0,1,0,0-3.03h-9.09A1.515,1.515,0,0,0,176,353.515Z" transform="translate(-129.7 -273.022)" fill="#0092e0"/>
    <path id="Path_9" data-name="Path 9" d="M86.725,400H65.515a1.515,1.515,0,1,0,0,3.03h21.21a1.515,1.515,0,1,0,0-3.03Z" transform="translate(-38.91 -312.025)" fill="#0092e0"/>
  </g>
</svg>
