<svg xmlns="http://www.w3.org/2000/svg" width="101.005" height="101" viewBox="0 0 101.005 101">
  <g id="bulb_14530364" transform="translate(-53.59 -53.6)">
    <path id="Path_2694" data-name="Path 2694" d="M140.992,91a12.947,12.947,0,0,0-10.077,4.755V78.377a1.1,1.1,0,0,0-1.1-1.1H112.438A12.954,12.954,0,0,0,117.193,67.2a13.1,13.1,0,1,0-26.2,0A12.954,12.954,0,0,0,95.747,77.28H78.369a1.1,1.1,0,0,0-1.1,1.1V95.754A12.949,12.949,0,0,0,67.193,91a13.1,13.1,0,1,0,0,26.2,12.95,12.95,0,0,0,10.077-4.756v17.375a1.1,1.1,0,0,0,1.1,1.1H95.747A12.947,12.947,0,0,0,90.992,141a13.1,13.1,0,0,0,26.2,0,12.952,12.952,0,0,0-4.752-10.077h17.375a1.1,1.1,0,0,0,1.1-1.1v-17.37a12.95,12.95,0,0,0,10.072,4.755,13.1,13.1,0,1,0,0-26.2Zm0,24a10.8,10.8,0,0,1-10.154-7.023,1.1,1.1,0,0,0-2.132.391v20.357H108.35a1.1,1.1,0,0,0-.391,2.132,10.9,10.9,0,1,1-7.746,0,1.1,1.1,0,0,0-.391-2.132H79.464V108.367a1.1,1.1,0,0,0-2.132-.391,10.9,10.9,0,1,1,0-7.749,1.1,1.1,0,0,0,2.132-.391V79.479H99.821a1.1,1.1,0,0,0,.394-2.132,10.9,10.9,0,1,1,7.744,0,1.1,1.1,0,0,0,.394,2.132h20.354V99.836a1.1,1.1,0,0,0,2.132.391A10.882,10.882,0,1,1,140.992,115Z" transform="translate(0)" fill="#fff" stroke="#fff" stroke-width="1"/>
    <path id="Path_2695" data-name="Path 2695" d="M228.254,223.23a8.752,8.752,0,0,0-5.457,15.609v3.042a1.091,1.091,0,0,0,1.091,1.091H232.6a1.091,1.091,0,0,0,1.091-1.091v-3.042a8.755,8.755,0,0,0-5.445-15.609Zm3.734,14.163a1.093,1.093,0,0,0-.471.9v2.5h-6.529v-2.5a1.093,1.093,0,0,0-.476-.9,6.575,6.575,0,1,1,7.47,0Z" transform="translate(-124.345 -127.14)" fill="#fff" stroke="#fff" stroke-width="1"/>
    <path id="Path_2696" data-name="Path 2696" d="M251.9,196.45a1.091,1.091,0,0,0,1.091-1.091V191.1a1.091,1.091,0,0,0-2.182,0v4.258A1.091,1.091,0,0,0,251.9,196.45Z" transform="translate(-147.992 -102.229)" fill="#fff" stroke="#fff" stroke-width="1"/>
    <path id="Path_2697" data-name="Path 2697" d="M308.673,256.93h-4.592a1.091,1.091,0,1,0,0,2.182h4.592a1.091,1.091,0,1,0,0-2.182Z" transform="translate(-187.215 -152.588)" fill="#fff" stroke="#fff" stroke-width="1"/>
    <path id="Path_2698" data-name="Path 2698" d="M289.767,210.244a1.091,1.091,0,0,0-1.545,0l-3.008,3.011a1.091,1.091,0,0,0,1.542,1.545l3.011-3.013a1.088,1.088,0,0,0,0-1.542Z" transform="translate(-173.614 -117.213)" fill="#fff" stroke="#fff" stroke-width="1"/>
    <path id="Path_2699" data-name="Path 2699" d="M191.079,256.79h-4.258a1.091,1.091,0,0,0,0,2.182h4.258a1.091,1.091,0,1,0,0-2.182Z" transform="translate(-99.017 -152.483)" fill="#fff" stroke="#fff" stroke-width="1"/>
    <path id="Path_2700" data-name="Path 2700" d="M209.28,214.8a1.091,1.091,0,0,0,0-1.544l-3.018-3.011a1.091,1.091,0,1,0-1.544,1.542l3.015,3.013a1.091,1.091,0,0,0,1.542,0Z" transform="translate(-113.064 -117.213)" fill="#fff" stroke="#fff" stroke-width="1"/>
    <path id="Path_2701" data-name="Path 2701" d="M242.837,313.65h-8.706a1.091,1.091,0,0,0,0,2.182h8.706a1.091,1.091,0,0,0,0-2.182Z" transform="translate(-134.578 -195.259)" fill="#fff" stroke="#fff" stroke-width="1"/>
  </g>
</svg>
