<svg id="_019---Approved-Blockchain" data-name="019---Approved-Blockchain" xmlns="http://www.w3.org/2000/svg" width="100.002" height="100" viewBox="0 0 100.002 100">
  <path id="Shape" d="M38.316,20H13.35A5.35,5.35,0,0,0,8,25.35V50.316a5.35,5.35,0,0,0,5.35,5.35H38.316a5.35,5.35,0,0,0,5.35-5.35V25.35A5.35,5.35,0,0,0,38.316,20ZM40.1,50.316A1.783,1.783,0,0,1,38.316,52.1H13.35a1.783,1.783,0,0,1-1.783-1.783V25.35a1.783,1.783,0,0,1,1.783-1.783H38.316A1.783,1.783,0,0,1,40.1,25.35Z" transform="translate(6.266 12.167)" fill="#fff"/>
  <path id="Shape-2" data-name="Shape" d="M75,50a24.833,24.833,0,0,0-15,5.047V6.667A6.667,6.667,0,0,0,53.333,0H6.667A6.667,6.667,0,0,0,0,6.667V93.333A6.667,6.667,0,0,0,6.667,100H53.333a6.667,6.667,0,0,0,6.487-5.182A24.985,24.985,0,1,0,75,50ZM6.667,3.333H53.333a3.333,3.333,0,0,1,3.333,3.333V8.333H45a3.333,3.333,0,0,0-3.333,3.333v1.667H18.333V11.667A3.333,3.333,0,0,0,15,8.333H3.333V6.667A3.333,3.333,0,0,1,6.667,3.333ZM53.333,96.667H6.667a3.333,3.333,0,0,1-3.333-3.333V11.667H15v1.667a3.333,3.333,0,0,0,3.333,3.333H41.667A3.333,3.333,0,0,0,45,13.333V11.667H56.667V58.06a24.855,24.855,0,0,0,0,33.88v1.393A3.333,3.333,0,0,1,53.333,96.667Zm21.667,0A21.667,21.667,0,1,1,96.667,75,21.667,21.667,0,0,1,75,96.667Z" fill="#fff"/>
  <path id="Path" d="M15.783,7.567h10.7a1.783,1.783,0,1,0,0-3.567h-10.7a1.783,1.783,0,0,0,0,3.567Z" transform="translate(9.082 3.133)" fill="#fff"/>
  <path id="Path-2" data-name="Path" d="M39.316,54H10.783a1.783,1.783,0,0,0,0,3.567H39.316a1.783,1.783,0,0,0,0-3.567Z" transform="translate(7.05 35.3)" fill="#fff"/>
  <path id="Path-3" data-name="Path" d="M22.7,24H15.567A3.567,3.567,0,0,0,12,27.567v3.567a1.783,1.783,0,0,0,3.567,0V27.567H22.7A1.783,1.783,0,0,0,22.7,24Z" transform="translate(7.815 15.746)" fill="#fff"/>
  <path id="Path-4" data-name="Path" d="M59.912,40.513,45.124,55.3l-4.089-4.089a1.783,1.783,0,0,0-2.522,2.522l5.35,5.35a1.783,1.783,0,0,0,2.522,0l16.05-16.05a1.783,1.783,0,0,0-2.522-2.522Z" transform="translate(22.777 25.629)" fill="#fff"/>
</svg>
