<svg xmlns="http://www.w3.org/2000/svg" width="93.638" height="100" viewBox="0 0 93.638 100">
  <g id="Layer_x0020_1" transform="translate(-229 -3)">
    <g id="_410244800" transform="translate(229 3)">
      <g id="Group_974" data-name="Group 974" transform="translate(0)">
        <g id="Group_966" data-name="Group 966" transform="translate(25.124 25.736)">
          <g id="Group_962" data-name="Group 962" transform="translate(17.773)">
            <path id="Path_2723" data-name="Path 2723" d="M3283.7,1875.431a.754.754,0,0,1-.258-.029,1.4,1.4,0,0,1-1.12-1.637l5.068-26.343a1.4,1.4,0,0,1,2.742.517l-5.053,26.343A1.408,1.408,0,0,1,3283.7,1875.431Z" transform="translate(-3282.294 -1846.293)" fill="#fff" fill-rule="evenodd"/>
          </g>
          <g id="Group_965" data-name="Group 965" transform="translate(0 2.544)">
            <g id="Group_963" data-name="Group 963">
              <path id="Path_2724" data-name="Path 2724" d="M2056.248,2047.51a1.346,1.346,0,0,1-.99-.416l-10.609-10.623a1.413,1.413,0,0,1,0-1.967l10.609-10.595a1.391,1.391,0,1,1,1.967,1.967l-9.6,9.619,9.633,9.633a1.4,1.4,0,0,1-1,2.383Z" transform="translate(-2044.25 -2023.5)" fill="#fff" fill-rule="evenodd"/>
            </g>
            <g id="Group_964" data-name="Group 964" transform="translate(30.008 0.014)">
              <path id="Path_2725" data-name="Path 2725" d="M4135.885,2048.5a1.377,1.377,0,0,1-.976-.388,1.4,1.4,0,0,1,0-1.981l9.619-9.619-9.619-9.633a1.391,1.391,0,0,1,1.967-1.967l10.609,10.595a1.431,1.431,0,0,1,0,1.981l-10.609,10.623A1.438,1.438,0,0,1,4135.885,2048.5Z" transform="translate(-4134.5 -2024.5)" fill="#fff" fill-rule="evenodd"/>
            </g>
          </g>
        </g>
        <g id="Group_967" data-name="Group 967">
          <path id="Path_2726" data-name="Path 2726" d="M303.821,66.081h-56A19.028,19.028,0,0,1,229,46.872a19.266,19.266,0,0,1,6.291-14.3,18.6,18.6,0,0,1,13.934-4.824,18.814,18.814,0,0,1,15.426-7.121,18.81,18.81,0,0,1,37.579,1.55,19.4,19.4,0,0,1-.83,5.642,18.5,18.5,0,0,1,13.849,3.8,19.282,19.282,0,0,1-11.429,34.455Zm-56-35.6a16.019,16.019,0,0,0-10.725,4.163,16.574,16.574,0,0,0-5.376,12.231A16.265,16.265,0,0,0,247.79,63.3h56.017a16.474,16.474,0,0,0,9.768-29.43,15.725,15.725,0,0,0-14-2.814,1.409,1.409,0,0,1-1.407-.431,1.442,1.442,0,0,1-.2-1.493,16.423,16.423,0,0,0,1.478-6.92,16.076,16.076,0,1,0-32.146-.043,1.41,1.41,0,0,1-1.548,1.378,15.955,15.955,0,0,0-14.863,6.489,1.349,1.349,0,0,1-1.253.56A15.039,15.039,0,0,0,247.818,30.478Z" transform="translate(-229 -3)" fill="#fff" fill-rule="evenodd"/>
        </g>
        <g id="Group_968" data-name="Group 968" transform="translate(15.344 58.717)">
          <path id="Path_2727" data-name="Path 2727" d="M1332.393,4228.626a1.385,1.385,0,0,1-1.393-1.393v-12.275a1.385,1.385,0,0,1,1.393-1.392h29.143v-9.174a1.393,1.393,0,1,1,2.785,0v10.566a1.385,1.385,0,0,1-1.392,1.393h-29.143v10.882A1.394,1.394,0,0,1,1332.393,4228.626Z" transform="translate(-1331 -4203)" fill="#fff" fill-rule="evenodd"/>
        </g>
        <g id="Group_969" data-name="Group 969" transform="translate(44.96 58.717)">
          <path id="Path_2728" data-name="Path 2728" d="M3489.942,4228.626a1.385,1.385,0,0,1-1.393-1.393v-10.882h-29.157a1.385,1.385,0,0,1-1.393-1.393v-10.566a1.393,1.393,0,0,1,2.785,0v9.174h29.157a1.385,1.385,0,0,1,1.393,1.392v12.275A1.394,1.394,0,0,1,3489.942,4228.626Z" transform="translate(-3458 -4203)" fill="#fff" fill-rule="evenodd"/>
        </g>
        <g id="Group_970" data-name="Group 970" transform="translate(45.42 69.232)">
          <path id="Path_2729" data-name="Path 2729" d="M3459.393,4954.06a1.385,1.385,0,0,1-1.393-1.393v-12.274a1.393,1.393,0,0,1,2.785,0v12.274A1.394,1.394,0,0,1,3459.393,4954.06Z" transform="translate(-3458 -4939)" fill="#fff" fill-rule="evenodd"/>
        </g>
        <g id="Group_971" data-name="Group 971" transform="translate(7.767 81.107)">
          <path id="Path_2730" data-name="Path 2730" d="M779.446,5810.893a9.446,9.446,0,1,1,9.432-9.446A9.463,9.463,0,0,1,779.446,5810.893Zm0-16.079a6.654,6.654,0,1,0,6.647,6.661A6.663,6.663,0,0,0,779.446,5794.813Z" transform="translate(-770 -5792)" fill="#fff" fill-rule="evenodd"/>
        </g>
        <g id="Group_972" data-name="Group 972" transform="translate(37.38 81.107)">
          <path id="Path_2731" data-name="Path 2731" d="M2907.432,5810.893a9.446,9.446,0,1,1,9.446-9.446A9.451,9.451,0,0,1,2907.432,5810.893Zm0-16.079a6.654,6.654,0,1,0,6.647,6.661A6.642,6.642,0,0,0,2907.432,5794.813Z" transform="translate(-2898 -5792)" fill="#fff" fill-rule="evenodd"/>
        </g>
        <g id="Group_973" data-name="Group 973" transform="translate(66.979 81.107)">
          <path id="Path_2732" data-name="Path 2732" d="M5034.446,5810.893a9.446,9.446,0,1,1,9.446-9.446A9.454,9.454,0,0,1,5034.446,5810.893Zm0-16.079a6.654,6.654,0,1,0,6.646,6.661A6.666,6.666,0,0,0,5034.446,5794.813Z" transform="translate(-5025 -5792)" fill="#fff" fill-rule="evenodd"/>
        </g>
      </g>
    </g>
  </g>
</svg>
