<svg xmlns="http://www.w3.org/2000/svg" width="106.887" height="100" viewBox="0 0 106.887 100">
  <g id="web-chat_18454307" transform="translate(-4 -5.804)">
    <path id="Path_2733" data-name="Path 2733" d="M82.448,45.444a1.94,1.94,0,0,0-1.94,1.94v10.4a1.943,1.943,0,0,1-1.94,1.94H33.94a1.94,1.94,0,1,0,0,3.881H78.568a5.827,5.827,0,0,0,5.821-5.821v-10.4A1.94,1.94,0,0,0,82.448,45.444Z" transform="translate(24.558 35.618)" fill="#fff"/>
    <path id="Path_2734" data-name="Path 2734" d="M11.47,9.8h-.02a1.95,1.95,0,1,0,.02,0Z" transform="translate(5.181 3.761)" fill="#fff"/>
    <path id="Path_2735" data-name="Path 2735" d="M16.47,9.8h-.02a1.95,1.95,0,1,0,.02,0Z" transform="translate(9.538 3.761)" fill="#fff"/>
    <path id="Path_2736" data-name="Path 2736" d="M21.47,9.8h-.02a1.95,1.95,0,1,0,.02,0Z" transform="translate(14.075 3.761)" fill="#fff"/>
    <path id="Path_2737" data-name="Path 2737" d="M104.192,17.446v12.4a1.908,1.908,0,1,0,3.815,0V11.625A5.779,5.779,0,0,0,102.284,5.8H10.723A5.779,5.779,0,0,0,5,11.625V64.771a1.908,1.908,0,1,0,3.815,0V25.207H52.688a1.892,1.892,0,0,0,1.349-.569l7.071-7.193ZM58.97,14.134,51.9,21.327H8.815v-9.7a1.927,1.927,0,0,1,1.908-1.94h91.562a1.927,1.927,0,0,1,1.908,1.94v1.94H60.318a1.891,1.891,0,0,0-1.348.568Z" transform="translate(0.94 0)" fill="#fff"/>
    <path id="Path_2738" data-name="Path 2738" d="M82.508,21.2H74.747a1.94,1.94,0,1,0,0,3.881h5.821V48.36H74.747a1.94,1.94,0,0,0-1.94,1.94v1.94L68.15,48.749a1.942,1.942,0,0,0-1.164-.388h-29.1V25.076h29.1a1.94,1.94,0,0,0,0-3.881H35.94A1.94,1.94,0,0,0,34,23.136V50.3a1.94,1.94,0,0,0,1.94,1.94h30.4l7.244,5.433a1.94,1.94,0,0,0,3.1-1.552V52.241h5.821a1.94,1.94,0,0,0,1.94-1.94V23.136A1.94,1.94,0,0,0,82.508,21.2Z" transform="translate(26.439 13.709)" fill="#fff"/>
    <path id="Path_2739" data-name="Path 2739" d="M72.926,28.136a1.94,1.94,0,0,0-1.94-1.94H39.94a1.94,1.94,0,0,0,0,3.881H70.986A1.94,1.94,0,0,0,72.926,28.136Z" transform="translate(30.2 18.504)" fill="#fff"/>
    <path id="Path_2740" data-name="Path 2740" d="M39.94,30.2a1.94,1.94,0,0,0,0,3.881H55.463a1.94,1.94,0,1,0,0-3.881Z" transform="translate(30.662 22.134)" fill="#fff"/>
    <path id="Path_2741" data-name="Path 2741" d="M52.508,39.2H21.463a1.94,1.94,0,1,0,0,3.881h29.1V66.36h-29.1a1.942,1.942,0,0,0-1.164.388l-4.657,3.492V68.3a1.94,1.94,0,0,0-1.94-1.94H7.881V43.076H13.7a1.94,1.94,0,1,0,0-3.881H5.94A1.94,1.94,0,0,0,4,41.136V68.3a1.94,1.94,0,0,0,1.94,1.94h5.821v3.881a1.94,1.94,0,0,0,3.1,1.552l7.244-5.433h30.4a1.94,1.94,0,0,0,1.94-1.94V41.136A1.94,1.94,0,0,0,52.508,39.2Z" transform="translate(0 29.742)" fill="#fff"/>
    <path id="Path_2742" data-name="Path 2742" d="M40.986,44.2H9.94a1.94,1.94,0,0,0,0,3.881H40.986a1.94,1.94,0,1,0,0-3.881Z" transform="translate(3.761 34.838)" fill="#fff"/>
    <path id="Path_2743" data-name="Path 2743" d="M33.463,48.2H17.94a1.94,1.94,0,0,0,0,3.881H33.463a1.94,1.94,0,1,0,0-3.881Z" transform="translate(10.822 38.205)" fill="#fff"/>
  </g>
</svg>
