<svg xmlns="http://www.w3.org/2000/svg" xmlns:xlink="http://www.w3.org/1999/xlink" width="124" height="124" viewBox="0 0 124 124">
  <defs>
    <clipPath id="clip-path">
      <rect id="Rectangle_705" data-name="Rectangle 705" width="124" height="124" transform="translate(336 6404)" fill="#006fbe" stroke="#707070" stroke-width="1"/>
    </clipPath>
  </defs>
  <g id="Mask_Group_123" data-name="Mask Group 123" transform="translate(-336 -6404)" clip-path="url(#clip-path)">
    <g id="Layer_x0020_1" transform="translate(336 6404)">
      <path id="Path_472" data-name="Path 472" d="M102.571,27.749l-3.7-1.235c-.8,0-3.342,1.743-4.359,1.017-1.09-.8-.218-3.777-.436-4.5-.291-.8-2.76-2.688-2.325-3.923s3.487-1.308,4.141-1.816l2.034-2.833a1.226,1.226,0,0,1,1.961,0l2.034,2.833c.654.508,3.7.581,4.141,1.816.363,1.235-2.034,3.124-2.325,3.923C103.442,23.972,104.677,27.749,102.571,27.749Zm2.034,50.7h-4.213a8.687,8.687,0,0,1-14.383,0H37.992a8.687,8.687,0,0,1-14.383,0H19.4a4.124,4.124,0,0,1-4.141-4.068l.073-10.025a12.938,12.938,0,0,1,12.858-11.7h7.7c20.122-24.262,44.021-26.442,62.4,0h6.32a4.061,4.061,0,0,1,4.068,4.068V74.385A4.061,4.061,0,0,1,104.6,78.453Zm-17-1.961c.073.145.145.218.218.363A6.163,6.163,0,0,0,93.2,79.834a6.284,6.284,0,1,0-5.593-3.342Zm-62.4,0c.073.145.145.218.218.363A6.309,6.309,0,0,0,36.9,71.988l-.218-.581-.073-.291c0-.073-.073-.073-.073-.145l-.218-.436a.254.254,0,0,1-.073-.145l-.145-.218-.073-.145-.073-.145-.145-.073-.073-.145-.073-.145-.145-.073c0-.073,0-.073-.073-.145l-.073-.073c-3.85-4.068-11.4-1.38-10.824,4.94ZM39.081,52.665h26.8V36.176C56.951,37.12,47.726,42.714,39.081,52.665Zm29.2,0H95.306c-7.918-10.9-17.361-16.708-27.023-16.635Zm33.27,23.391c2.034,0,4.722.436,4.722-1.671v-8.5h-3.632a4.061,4.061,0,0,1-4.068-4.068V55.063c-7.192,0-69.882-.218-71.843.073a13.057,13.057,0,0,1-6.465,10.678l-2.542,1.453c0,9.589-.944,8.79,4.722,8.79a8.726,8.726,0,1,1,16.708,0H84.846a8.718,8.718,0,1,1,16.708,0ZM106.2,56.3c-.436-1.743-2.76-1.235-5.23-1.235,0,9.371-.944,8.426,5.3,8.426ZM24.19,55.862A10.519,10.519,0,0,0,17.8,64.434C21.211,62.472,23.681,60.293,24.19,55.862ZM61.6,62.835H55.716a1.2,1.2,0,0,1,0-2.4H61.6A1.2,1.2,0,0,1,61.6,62.835Zm16.708,0H72.424a1.2,1.2,0,1,1,0-2.4h5.884A1.2,1.2,0,1,1,78.308,62.835Zm-1.09,46.781H36.1a5.957,5.957,0,0,0,0,11.913H87.9a5.957,5.957,0,0,0,0-11.913Zm-31.672-2.4V96.759H18.088C8.136,96.759.073,86.88.073,74.676V22.083C.073,9.952,8.136,0,18.088,0h87.824c9.879,0,18.015,9.952,18.015,22.083V74.676c0,12.2-8.136,22.083-18.015,22.083H78.453v10.46H87.9a8.39,8.39,0,0,1,0,16.78H36.1a8.39,8.39,0,1,1,0-16.78Zm2.4,0h28.04V96.759H47.944ZM18.088,2.4C9.516,2.4,2.47,11.26,2.47,22.083V74.676c0,10.824,7.046,19.686,15.618,19.686h87.824c8.572,0,15.545-8.862,15.545-19.686V22.083c0-10.824-6.974-19.686-15.545-19.686Zm87.824,87.025H18.088c-6.974,0-10.678-8.572-10.678-14.746V22.083c0-6.175,3.7-14.746,10.678-14.746h87.824c6.9,0,10.606,8.572,10.606,14.746V74.676C116.518,80.851,112.813,89.422,105.912,89.422ZM18.088,9.807c-5.3,0-8.209,7.264-8.209,12.277V74.676c0,5.012,2.906,12.349,8.209,12.349h87.824c5.3,0,8.209-7.337,8.209-12.349V22.083c0-5.012-2.906-12.277-8.209-12.277Zm3.269,17.943c-2.107,0-.8-3.777-1.162-4.722-.218-.8-2.688-2.688-2.252-3.923.363-1.235,3.487-1.308,4.141-1.816l2.034-2.833a1.226,1.226,0,0,1,1.961,0l2.034,2.833c.654.508,3.7.581,4.141,1.816.363,1.235-2.034,3.124-2.325,3.923-.218.726.654,3.7-.436,4.5-1.017.726-3.559-1.017-4.431-1.017Zm3.7-3.7,2.47.8c-.073-3.124-.363-2.252,1.525-4.722-2.978-.872-2.179-.363-4-2.906-1.743,2.542-1.017,2.034-4,2.906,1.889,2.47,1.6,1.6,1.525,4.722Zm22.156,3.7-3.7-1.235c-.8,0-3.342,1.743-4.359,1.017-1.09-.8-.218-3.777-.508-4.5-.218-.8-2.688-2.688-2.252-3.923.363-1.235,3.487-1.308,4.141-1.816.654-.436,1.671-3.342,2.978-3.342s2.4,2.906,3.051,3.342c.654.508,3.7.581,4.141,1.816.363,1.235-2.034,3.124-2.325,3.923C48.089,23.972,49.324,27.749,47.217,27.749Zm-7.7-7.627c1.889,2.47,1.6,1.6,1.525,4.722,2.978-1.017,2.034-1.017,4.94,0-.073-3.124-.363-2.252,1.525-4.722-2.978-.872-2.179-.363-4-2.906C41.769,19.759,42.5,19.25,39.517,20.122Zm18.742,7.627c-2.107,0-.8-3.777-1.09-4.722-.291-.8-2.76-2.688-2.325-3.923s3.487-1.308,4.141-1.816l2.034-2.833a1.226,1.226,0,0,1,1.961,0l2.034,2.833c.654.508,3.7.581,4.141,1.816.363,1.235-2.034,3.124-2.325,3.923-.218.726.654,3.7-.436,4.5-1.017.726-3.559-1.017-4.431-1.017Zm3.7-3.7,2.47.8c0-3.124-.363-2.252,1.525-4.722-2.978-.872-2.179-.363-4-2.906-1.743,2.542-1.017,2.034-4,2.906,1.889,2.47,1.6,1.6,1.525,4.722Zm22.156,3.7-3.7-1.235c-.8,0-3.342,1.743-4.359,1.017-1.09-.8-.218-3.777-.436-4.5-.291-.8-2.76-2.688-2.325-3.923s3.487-1.308,4.141-1.816l2.034-2.833a1.226,1.226,0,0,1,1.961,0l2.034,2.833c.654.508,3.7.581,4.141,1.816.363,1.235-2.034,3.124-2.325,3.923C84.991,23.972,86.226,27.749,84.12,27.749Zm-3.7-3.7,2.47.8c0-3.124-.363-2.252,1.525-4.722-2.978-.872-2.179-.363-4-2.906-1.743,2.542-1.017,2.034-3.923,2.906,1.816,2.47,1.525,1.6,1.453,4.722Zm18.451,0,2.47.8c0-3.124-.363-2.252,1.525-4.722-2.978-.872-2.179-.363-4-2.906-1.743,2.542-1.017,2.034-3.923,2.906,1.816,2.47,1.525,1.6,1.453,4.722Z" fill="#006fbe" fill-rule="evenodd"/>
    </g>
  </g>
</svg>
