<svg xmlns="http://www.w3.org/2000/svg" xmlns:xlink="http://www.w3.org/1999/xlink" width="124" height="124" viewBox="0 0 124 124">
  <defs>
    <clipPath id="clip-path">
      <rect id="Rectangle_706" data-name="Rectangle 706" width="124" height="124" transform="translate(836 6404)" fill="#006fbe" stroke="#707070" stroke-width="1"/>
    </clipPath>
  </defs>
  <g id="Mask_Group_124" data-name="Mask Group 124" transform="translate(-836 -6404)" clip-path="url(#clip-path)">
    <g id="application_1934888" transform="translate(834 6402)">
      <path id="Path_473" data-name="Path 473" d="M110.622,92.87,114,91.264V80.736l-3.378-1.606a.122.122,0,0,0-.01-.024l1.252-3.526-7.444-7.444-3.526,1.252a.122.122,0,0,1-.024-.01L99.264,66H88.736L87.13,69.378a.122.122,0,0,0-.024.01L83.58,68.136,76.136,75.58l1.252,3.526a.122.122,0,0,1-.01.024L74,80.736V91.264l3.378,1.606a.122.122,0,0,0,.01.024L76.136,96.42l7.444,7.444,3.526-1.252a.122.122,0,0,1,.024.01L88.736,106H99.264l1.606-3.378a.122.122,0,0,0,.024-.01l3.526,1.252,7.444-7.444-1.252-3.526A.122.122,0,0,1,110.622,92.87ZM110,88.736l-2.56,1.218-.28.776c-.152.418-.32.83-.508,1.23l-.354.748.95,2.672-3.87,3.87-2.672-.95-.748.354a13.242,13.242,0,0,1-1.23.508l-.776.28L96.734,102H91.262l-1.218-2.56-.776-.28c-.418-.152-.83-.32-1.23-.508L87.29,98.3l-2.672.95-3.87-3.87.95-2.672-.354-.748a13.242,13.242,0,0,1-.508-1.23l-.28-.776L78,88.736V83.264l2.56-1.218.28-.776c.152-.418.32-.83.508-1.23l.354-.748-.95-2.672,3.87-3.87,2.672.95.748-.354a13.242,13.242,0,0,1,1.23-.508l.776-.28L91.262,70h5.472l1.218,2.56.776.28c.418.152.83.32,1.23.508l.748.354,2.672-.95,3.87,3.87-.95,2.672.354.748a13.242,13.242,0,0,1,.508,1.23l.28.776L110,83.264Z" fill="#006fbe"/>
      <path id="Path_474" data-name="Path 474" d="M94,76a10,10,0,1,0,10,10A10.011,10.011,0,0,0,94,76Zm0,16a6,6,0,1,1,6-6A6.007,6.007,0,0,1,94,92Z" fill="#006fbe"/>
      <path id="Path_475" data-name="Path 475" d="M121.314,55.562A9.91,9.91,0,0,0,122,52V12A10.011,10.011,0,0,0,112,2H36A10.011,10.011,0,0,0,26,12V50.59a13.974,13.974,0,0,0-4.292,24.664A28.05,28.05,0,0,0,2,102v6a10.011,10.011,0,0,0,10,10h2v8H46v-8h2a10.011,10.011,0,0,0,10-10v-6A28.05,28.05,0,0,0,38.292,75.254,13.762,13.762,0,0,0,43.84,62H62.224A10.013,10.013,0,0,0,62,64v44a10.011,10.011,0,0,0,10,10h44a10.011,10.011,0,0,0,10-10V64A9.991,9.991,0,0,0,121.314,55.562ZM42,122H18v-4h9a7,7,0,0,0,0-14H18v-4H42Zm12-20v6a6.007,6.007,0,0,1-6,6H46V96H14v12H27a3,3,0,0,1,0,6H12a6.007,6.007,0,0,1-6-6v-6A23.989,23.989,0,0,1,17.862,81.332l5.356,14.28L30,88.83l6.782,6.782,5.356-14.28A23.989,23.989,0,0,1,54,102ZM21.914,80.744,27.172,86l-2.39,2.39ZM32.828,86l5.258-5.256L35.218,88.39ZM34.7,78.468l-4.7,4.7-4.7-4.7a23.8,23.8,0,0,1,9.4,0ZM30,74A10,10,0,1,1,40,64,10.011,10.011,0,0,1,30,74Zm.016-24L30,12a6.007,6.007,0,0,1,6-6h76a6.007,6.007,0,0,1,6,6V52a6.007,6.007,0,0,1-6,6H42.63a14.009,14.009,0,0,0-12.614-8ZM122,108a6.007,6.007,0,0,1-6,6H72a6.007,6.007,0,0,1-6-6V64a5.992,5.992,0,0,1,.388-2H112a9.957,9.957,0,0,0,7.18-3.068A6,6,0,0,1,122,64Z" fill="#006fbe"/>
      <path id="Path_476" data-name="Path 476" d="M99.864,30.16A17.993,17.993,0,0,0,65.65,20.484a13.994,13.994,0,0,0-17.088,9.61A12,12,0,0,0,50,54H98a11.992,11.992,0,0,0,1.864-23.84ZM98,50H50a8,8,0,1,1,8-8h4a12.011,12.011,0,0,0-9.284-11.678A9.974,9.974,0,0,1,66,24.84l2.016.882.686-2.09a13.979,13.979,0,0,1,27.1,6.578A12.014,12.014,0,0,0,86,42h4a8,8,0,1,1,8,8Z" fill="#006fbe"/>
      <path id="Path_477" data-name="Path 477" d="M114,106h4v4h-4Z" fill="#006fbe"/>
      <path id="Path_478" data-name="Path 478" d="M70,106h4v4H70Z" fill="#006fbe"/>
      <path id="Path_479" data-name="Path 479" d="M70,66h4v4H70Z" fill="#006fbe"/>
      <path id="Path_480" data-name="Path 480" d="M34,10h4v4H34Z" fill="#006fbe"/>
      <path id="Path_481" data-name="Path 481" d="M34,18h4v4H34Z" fill="#006fbe"/>
      <path id="Path_482" data-name="Path 482" d="M34,26h4v4H34Z" fill="#006fbe"/>
      <path id="Path_483" data-name="Path 483" d="M110,26h4v4h-4Z" fill="#006fbe"/>
      <path id="Path_484" data-name="Path 484" d="M110,18h4v4h-4Z" fill="#006fbe"/>
      <path id="Path_485" data-name="Path 485" d="M110,10h4v4h-4Z" fill="#006fbe"/>
      <path id="Path_486" data-name="Path 486" d="M88,28h4A10.011,10.011,0,0,0,82,18v4A6.007,6.007,0,0,1,88,28Z" fill="#006fbe"/>
    </g>
  </g>
</svg>
