<svg xmlns="http://www.w3.org/2000/svg" xmlns:xlink="http://www.w3.org/1999/xlink" width="124" height="124" viewBox="0 0 124 124">
  <defs>
    <clipPath id="clip-path">
      <rect id="Rectangle_707" data-name="Rectangle 707" width="124" height="124" transform="translate(1323 6404)" fill="#006fbe" stroke="#707070" stroke-width="1"/>
    </clipPath>
  </defs>
  <g id="Mask_Group_125" data-name="Mask Group 125" transform="translate(-1323 -6404)" clip-path="url(#clip-path)">
    <g id="cloud-computing_9059768" transform="translate(1311.176 6392.177)">
      <g id="Group_553" data-name="Group 553">
        <g id="Group_550" data-name="Group 550">
          <g id="Group_549" data-name="Group 549">
            <g id="Group_545" data-name="Group 545">
              <g id="Group_536" data-name="Group 536">
                <g id="Group_534" data-name="Group 534">
                  <path id="Path_487" data-name="Path 487" d="M26.934,107.188a1.415,1.415,0,0,1-1.413-1.413V98.537a3.668,3.668,0,0,1,3.662-3.662h3.6a.837.837,0,0,0,.836-.836V85.762a1.413,1.413,0,1,1,2.826,0v8.276A3.668,3.668,0,0,1,32.788,97.7h-3.6a.837.837,0,0,0-.836.836v7.238A1.4,1.4,0,0,1,26.934,107.188Z" fill="#006fbe"/>
                </g>
                <g id="Group_535" data-name="Group 535">
                  <path id="Path_488" data-name="Path 488" d="M26.934,117.685a6.647,6.647,0,1,1,6.661-6.661A6.64,6.64,0,0,1,26.934,117.685Zm0-10.468a3.835,3.835,0,1,0,3.835,3.835A3.852,3.852,0,0,0,26.934,107.217Z" fill="#006fbe"/>
                </g>
              </g>
              <g id="Group_537" data-name="Group 537">
                <path id="Path_489" data-name="Path 489" d="M42.708,116.964a1.415,1.415,0,0,1-1.413-1.413v-7.5a3.668,3.668,0,0,1,3.662-3.662h8.1a.837.837,0,0,0,.836-.836V85.791a1.413,1.413,0,1,1,2.826,0v17.764a3.668,3.668,0,0,1-3.662,3.662h-8.1a.837.837,0,0,0-.836.836v7.5A1.415,1.415,0,0,1,42.708,116.964Z" fill="#006fbe"/>
              </g>
              <g id="Group_538" data-name="Group 538">
                <path id="Path_490" data-name="Path 490" d="M42.708,127.432A6.633,6.633,0,1,1,49.34,120.8,6.658,6.658,0,0,1,42.708,127.432Zm0-10.468a3.835,3.835,0,1,0,3.835,3.835A3.852,3.852,0,0,0,42.708,116.964Z" fill="#006fbe"/>
              </g>
              <g id="Group_544" data-name="Group 544">
                <g id="Group_541" data-name="Group 541">
                  <g id="Group_539" data-name="Group 539">
                    <path id="Path_491" data-name="Path 491" d="M120.713,107.188a1.415,1.415,0,0,1-1.413-1.413V98.537a.837.837,0,0,0-.836-.836h-3.6a3.668,3.668,0,0,1-3.662-3.662V85.762a1.413,1.413,0,1,1,2.826,0v8.276a.837.837,0,0,0,.836.836h3.6a3.668,3.668,0,0,1,3.662,3.662v7.238A1.4,1.4,0,0,1,120.713,107.188Z" fill="#006fbe"/>
                  </g>
                  <g id="Group_540" data-name="Group 540">
                    <path id="Path_492" data-name="Path 492" d="M120.713,117.685a6.647,6.647,0,1,1,6.633-6.661A6.664,6.664,0,0,1,120.713,117.685Zm0-10.468a3.835,3.835,0,1,0,3.835,3.835A3.852,3.852,0,0,0,120.713,107.217Z" fill="#006fbe"/>
                  </g>
                </g>
                <g id="Group_542" data-name="Group 542">
                  <path id="Path_493" data-name="Path 493" d="M104.939,116.964a1.415,1.415,0,0,1-1.413-1.413v-7.5a.837.837,0,0,0-.836-.836h-8.1a3.668,3.668,0,0,1-3.662-3.662V85.791a1.413,1.413,0,1,1,2.826,0v17.764a.837.837,0,0,0,.836.836h8.1a3.668,3.668,0,0,1,3.662,3.662v7.5A1.434,1.434,0,0,1,104.939,116.964Z" fill="#006fbe"/>
                </g>
                <g id="Group_543" data-name="Group 543">
                  <path id="Path_494" data-name="Path 494" d="M104.939,127.432a6.633,6.633,0,1,1,6.633-6.633A6.633,6.633,0,0,1,104.939,127.432Zm0-10.468a3.835,3.835,0,1,0,3.835,3.835A3.852,3.852,0,0,0,104.939,116.964Z" fill="#006fbe"/>
                </g>
              </g>
            </g>
            <g id="Group_548" data-name="Group 548">
              <g id="Group_546" data-name="Group 546">
                <path id="Path_495" data-name="Path 495" d="M73.823,127.432a6.633,6.633,0,1,1,6.633-6.633A6.658,6.658,0,0,1,73.823,127.432Zm0-10.468a3.835,3.835,0,1,0,3.835,3.835,3.852,3.852,0,0,0-3.835-3.835Z" fill="#006fbe"/>
              </g>
              <g id="Group_547" data-name="Group 547">
                <path id="Path_496" data-name="Path 496" d="M73.852,116.964a1.415,1.415,0,0,1-1.413-1.413V85.791a1.413,1.413,0,0,1,2.826,0v29.731A1.422,1.422,0,0,1,73.852,116.964Z" fill="#006fbe"/>
              </g>
            </g>
          </g>
        </g>
        <g id="Group_552" data-name="Group 552">
          <g id="Group_551" data-name="Group 551">
            <path id="Path_497" data-name="Path 497" d="M117.771,87.2h-87.9a18.052,18.052,0,0,1-1.442-36.047,20.355,20.355,0,0,1,5.594-13.928,20,20,0,0,1,14.419-6.142,19.493,19.493,0,0,1,7.18,1.355,19.611,19.611,0,0,1,36.335,0,19.6,19.6,0,0,1,7.18-1.355,20.068,20.068,0,0,1,14.419,6.142,20.623,20.623,0,0,1,5.594,13.928A18.05,18.05,0,0,1,117.771,87.2Zm-69.3-53.291a17.3,17.3,0,0,0-12.4,5.277,17.748,17.748,0,0,0-4.787,13.265,1.325,1.325,0,0,1-.4,1.038,1.353,1.353,0,0,1-1.009.433,15.226,15.226,0,0,0,0,30.452h87.9a15.226,15.226,0,0,0,0-30.452,1.353,1.353,0,0,1-1.009-.433,1.565,1.565,0,0,1-.4-1.038,17.748,17.748,0,0,0-4.787-13.265,17.3,17.3,0,0,0-12.4-5.277,16.7,16.7,0,0,0-7.382,1.7,1.413,1.413,0,0,1-1.182.029,1.438,1.438,0,0,1-.779-.865,16.781,16.781,0,0,0-32.009,0,1.3,1.3,0,0,1-.779.865,1.413,1.413,0,0,1-1.182-.029,16.792,16.792,0,0,0-7.382-1.7Z" fill="#006fbe"/>
          </g>
        </g>
      </g>
      <g id="Group_556" data-name="Group 556">
        <g id="Group_554" data-name="Group 554">
          <path id="Path_498" data-name="Path 498" d="M76.563,78.437H71.055a1.4,1.4,0,0,1-1.384-1.211l-.49-3.259A15.127,15.127,0,0,1,65.662,72.5l-2.653,1.961a1.443,1.443,0,0,1-1.846-.144L57.271,70.42a1.44,1.44,0,0,1-.144-1.846l1.961-2.653A16.243,16.243,0,0,1,57.617,62.4l-3.259-.49a1.421,1.421,0,0,1-1.211-1.384v-5.45a1.4,1.4,0,0,1,1.211-1.384l3.259-.49a15.127,15.127,0,0,1,1.471-3.518l-1.961-2.653a1.409,1.409,0,0,1,.144-1.846l3.893-3.893a1.44,1.44,0,0,1,1.846-.144l2.653,1.961a16.242,16.242,0,0,1,3.518-1.471l.49-3.259a1.421,1.421,0,0,1,1.384-1.211h5.508a1.4,1.4,0,0,1,1.384,1.211l.49,3.259a15.127,15.127,0,0,1,3.518,1.471l2.653-1.961a1.409,1.409,0,0,1,1.846.144l3.893,3.893a1.44,1.44,0,0,1,.144,1.846L88.53,49.687A16.243,16.243,0,0,1,90,53.2l3.259.49a1.421,1.421,0,0,1,1.211,1.384v5.508a1.4,1.4,0,0,1-1.211,1.384L90,62.461A15.128,15.128,0,0,1,88.53,65.98l1.961,2.653a1.409,1.409,0,0,1-.144,1.846l-3.893,3.893a1.44,1.44,0,0,1-1.846.144l-2.653-1.961a16.242,16.242,0,0,1-3.518,1.471l-.49,3.259a1.378,1.378,0,0,1-1.384,1.153Zm-4.268-2.826h3.057l.433-2.97a1.448,1.448,0,0,1,1.1-1.182,13.532,13.532,0,0,0,4.412-1.846,1.389,1.389,0,0,1,1.586.058L85.3,71.459,87.463,69.3l-1.788-2.422a1.389,1.389,0,0,1-.058-1.586,14.48,14.48,0,0,0,1.846-4.412,1.413,1.413,0,0,1,1.182-1.1l2.97-.433V56.29l-2.97-.433a1.448,1.448,0,0,1-1.182-1.1,13.532,13.532,0,0,0-1.846-4.412,1.389,1.389,0,0,1,.058-1.586l1.788-2.422L85.3,44.179l-2.422,1.788a1.389,1.389,0,0,1-1.586.058,14.481,14.481,0,0,0-4.412-1.846A1.413,1.413,0,0,1,75.784,43l-.433-2.97H72.295L71.862,43a1.448,1.448,0,0,1-1.1,1.182,13.532,13.532,0,0,0-4.412,1.846,1.389,1.389,0,0,1-1.586-.058l-2.422-1.788-2.163,2.163,1.788,2.422a1.389,1.389,0,0,1,.058,1.586,14.48,14.48,0,0,0-1.846,4.412A1.413,1.413,0,0,1,59,55.858l-2.97.433v3.057L59,59.78a1.448,1.448,0,0,1,1.182,1.1,13.532,13.532,0,0,0,1.846,4.412,1.389,1.389,0,0,1-.058,1.586L60.183,69.3l2.163,2.163,2.422-1.788a1.389,1.389,0,0,1,1.586-.058,14.481,14.481,0,0,0,4.412,1.846,1.413,1.413,0,0,1,1.1,1.182Z" fill="#006fbe"/>
        </g>
        <g id="Group_555" data-name="Group 555">
          <path id="Path_499" data-name="Path 499" d="M73.823,67.248a9.4,9.4,0,1,1,9.4-9.4A9.4,9.4,0,0,1,73.823,67.248Zm0-16a6.6,6.6,0,1,0,6.6,6.6A6.621,6.621,0,0,0,73.823,51.244Z" fill="#006fbe"/>
        </g>
      </g>
    </g>
  </g>
</svg>
