<svg id="Group_404" data-name="Group 404" xmlns="http://www.w3.org/2000/svg" width="256" height="174.44" viewBox="0 0 256 174.44">
  <path id="Path_353" data-name="Path 353" d="M1564.972,921.3c-9.417,5.442-18.57,10.737-27.785,16.054.116.194.225.388.334.59l23.523-13.586,39.647,68.673-23.523,13.578c.411.714.823,1.421,1.234,2.135,9.332-5.388,18.461-10.659,27.785-16.039L1564.964,921.3Zm-33.157,14.253a4.634,4.634,0,0,0,.637,3.967c.256.466.481.955.807,1.6a.85.85,0,0,0-.2.016c-.738.047-1.3.116-1.871.1-8.392-.248-16.8-.388-25.184-.8-12-.582-23.942-.714-35.913.908-9.952,1.351-17.8,5.613-23.328,14.036-.14.21-.248.512-.45.6-.512.217-1.141.59-1.591.45a78.059,78.059,0,0,1-20.518-10.154c-.054-.031-.109-.07-.163-.109.652-1.133,1.281-2.22,1.9-3.3a7.214,7.214,0,0,0,1.2-3.5L1396.8,922.006l-1.017-.582a.538.538,0,0,0-.745.2l-1.374,2.407,27.878,16.1c-.248.427-.5.862-.745,1.289a.555.555,0,0,1,.124.691l-38.832,67.882a.547.547,0,0,1-.745.2l-.194-.109c-.28.481-.551.963-.831,1.444-9.215-5.318-18.36-10.6-27.6-15.93l-1.413,2.469a.538.538,0,0,0,.2.745l.039.023,31.138,17.817a5.278,5.278,0,0,0,1.654-1.762c.714-1.149,1.4-2.321,2.174-3.633.109.124.21.241.318.357,2.593,2.95,5.023,5.714,7.429,8.454-7.22,10.123-.761,23.864,12.825,23.647-.924,5.178.217,9.8,4.006,13.547,3.858,3.812,8.594,4.7,13.9,3.75-.264,5.2,1.3,9.479,5.225,12.763,3.913,3.268,8.454,3.851,13.36,2.872.039.807.062,1.366.093,1.925a14.391,14.391,0,0,0,15.371,13.663,15.431,15.431,0,0,0,10.411-5.232c2.236-2.375,4.549-2.8,7.724-2.158,5.667,1.164,11.389,2.368,17.265,1.786,5.372-.528,9.052-3.268,10.737-8.454.543-1.661.87-3.393,1.3-5.155,4.945.846,9.626.443,13.655-2.81,4.169-3.361,5.357-7.9,4.619-13.011,12.382-.924,16.489-5.046,18.391-18.345,1.165.194,2.321.443,3.494.567,4.161.45,8.2.132,11.171-3.237,3.175-3.594,4.891-8.058,3.525-12.631-1.149-3.858-.054-5.76,2.865-7.973,2.779-2.1,5.015-4.93,7.507-7.5.062-.07.132-.14.194-.2.683,1.164,1.421,2.406,2.15,3.656a8.2,8.2,0,0,0,1.366,1.8l-43.6-77.772Zm-125.073,102.971c-4.969-.311-7.9-2.073-9.557-5.683a8.93,8.93,0,0,1,1.886-10.131,78.406,78.406,0,0,1,6.731-5.8,9.195,9.195,0,0,1,11.49,14.347,66.207,66.207,0,0,1-5.768,4.891,31.75,31.75,0,0,1-4.79,2.383Zm20.332,15.55a9.21,9.21,0,0,1-11.808-14.137c6.451-5.574,12.864-11.187,19.338-16.73a8.817,8.817,0,0,1,10.077-1.382,8.626,8.626,0,0,1,5.271,7.888c-.062,3.292-1.056,5.574-3.059,7.313C1440.318,1042.74,1433.742,1048.462,1427.074,1054.074Zm18.1,15.7c-1.522,1.242-3.656,1.739-5.5,2.577-.07-.163-.148-.326-.217-.489a9.078,9.078,0,0,1-8.6-5.7,8.962,8.962,0,0,1,2.228-10.24c5.388-4.767,10.83-9.487,16.365-14.082a9.219,9.219,0,0,1,11.979,14c-5.333,4.743-10.721,9.424-16.249,13.919Zm28.018,7.033a110.617,110.617,0,0,1-10.038,8.617c-1.366,1.048-3.3,1.351-4.969,2a10.145,10.145,0,0,1-8.78-6.312,9.008,9.008,0,0,1,2.515-10.154q4.274-3.738,8.6-7.406a9.167,9.167,0,0,1,12.514.606c3.4,3.494,3.633,9.254.163,12.662Zm83.144-49.366c-.551,4.968-3.206,7.119-8.182,6.886a18.485,18.485,0,0,1-9.223-3.059q-16.815-10.783-33.677-21.481a14.267,14.267,0,0,0-1.63-.963,2.327,2.327,0,0,0-3.136.924,2.425,2.425,0,0,0,.357,3.276,7.435,7.435,0,0,0,1.39.978c10.954,6.995,21.9,14,32.9,20.93a4.9,4.9,0,0,1,2.438,3.524c1.126,5.931-3.323,12.561-9.13,13.461a9.527,9.527,0,0,1-6.467-1.607q-15.686-9.362-31.394-18.686a11.916,11.916,0,0,0-1.654-.916,2.555,2.555,0,0,0-2.663,4.27,8.212,8.212,0,0,0,1.421.939c9.921,5.908,19.851,11.792,29.733,17.762a4.161,4.161,0,0,1,1.661,2.259,14.646,14.646,0,0,1,.636,4.658c-.272,4.813-4.673,8.206-9.9,7.616a15.372,15.372,0,0,1-4.86-1.39c-5.861-2.795-11.653-5.745-17.475-8.633q-.5-.256-1.025-.489c-1.77-.815-3.214-.481-3.913.9-.7,1.4-.109,2.849,1.576,3.7,2.756,1.4,5.535,2.764,8.3,4.138,2.375,1.18,4.712,2.422,7.134,3.509,1.335.6,2.1,1.3,1.529,2.849a3.389,3.389,0,0,0-.093.753c-.8,5.846-3.323,8.1-9.176,8.066a41.479,41.479,0,0,1-5.465-.411c-2.81-.388-5.6-.916-8.625-1.429,3.222-4.72,4.138-9.634,1.925-14.812-2.182-5.116-6.3-7.849-11.715-8.765,5.077-10.853-2.267-21.551-13.089-21.613,0-2.414.38-4.9-.07-7.228a14.324,14.324,0,0,0-23.352-8.229c-1.832,1.506-3.61,3.074-5.6,4.774-.932-7.041-4.347-11.761-11.125-13.524-6.863-1.786-11.94,1.607-16.536,6.3-2.849-3.253-5.512-6.366-8.276-9.393a1.719,1.719,0,0,1-.318-.466c-.341-.714.163-1.25.512-1.848q12.25-21.229,24.516-42.465c2.236-3.866,4.472-7.732,6.544-11.319.062.031.132.062.194.1,7.065,3.517,13.974,6.948,21.046,10.473-1.071,1.483-2.383,3.307-3.7,5.116-1.925,2.655-3.905,5.279-5.776,7.965a8.892,8.892,0,0,0-1.087,7.771c2.74,10.395,15.93,15.821,24.959,9.952a66.742,66.742,0,0,0,9.308-8c2.973-2.826,5.621-5.985,8.563-8.85a32.683,32.683,0,0,1,5.069-3.9c1.9-1.227,3.858-1,5.931-.016A163.946,163.946,0,0,1,1510,986.7q20.53,14.591,41.091,29.128a11.838,11.838,0,0,1,5.232,11.629Zm11.2-23.235c-2.461,4.161-6.1,7.181-9.836,10.131-18.608-14.168-37.776-27.164-56.928-40.175-4.456-3.035-9.479-5.256-14.339-7.654-2.616-1.289-5.38-.963-8.074.179-3.967,1.677-6.785,4.743-9.72,7.7-4.083,4.122-8.136,8.291-12.351,12.266-4.192,3.951-9.005,3.7-13.9,1.444a9.663,9.663,0,0,1-5.675-7.748,3.941,3.941,0,0,1,.59-2.647c5.706-7.934,11.381-15.9,17.312-23.67,3.726-4.883,9.331-6.343,15.123-7.313,10.147-1.692,20.347-1.747,30.587-1.351,11.482.442,22.964.683,34.453.947a3.187,3.187,0,0,1,1.444.295,2.416,2.416,0,0,1,.955,1.009q15.278,26.585,30.672,53.1a2.843,2.843,0,0,1,.435,1.413,4.134,4.134,0,0,1-.73,2.081Z" transform="translate(-1351.221 -917.828)" fill="#1486ce"/>
  <path id="Path_354" data-name="Path 354" d="M3736.352,951.452l-41.223-71.406-1.848-3.2a.545.545,0,0,0-.745-.2l-30.572,17.646-1.017.59a.545.545,0,0,0-.2.745l2.453,4.254,3.152,5.458,32.062,55.523,3.431,5.947,2.927,5.077a.545.545,0,0,0,.745.2l.039-.023,31.55-18.213a.545.545,0,0,0,.2-.745l-.955-1.661Zm-29.764,13.718-39.1-67.726a.545.545,0,0,1,.2-.745h0l23.049-13.306a.545.545,0,0,1,.745.2l39.1,67.726a.545.545,0,0,1-.2.745l-23.049,13.306h0a.543.543,0,0,1-.745-.194Z" transform="translate(-3481.378 -876.574)" fill="#1486ce"/>
  <path id="Path_355" data-name="Path 355" d="M1427.339,940.209l-.3-.163L1396.7,922.687l-1.017-.582a.538.538,0,0,0-.745.2l-1.374,2.407-1.064,1.855-3.136,5.473L1357.524,987.7l-3.408,5.962-1.5,2.616-1.413,2.469a.538.538,0,0,0,.2.745l.039.023,31.138,17.817.481.272a.552.552,0,0,0,.745-.2l.955-1.661,1.972-3.447,2.748-4.813,31.767-55.53,2.849-4.984,1.6-2.8,1.832-3.206a.552.552,0,0,0-.2-.745Zm-45.353,70.451a.547.547,0,0,1-.745.2l-.194-.109-22.909-13.1h0a.547.547,0,0,1-.2-.753l38.832-67.882a.545.545,0,0,1,.745-.2l23.1,13.213a.28.28,0,0,1,.078.054.555.555,0,0,1,.124.691l-38.832,67.882Z" transform="translate(-1351.13 -918.501)" fill="#1486ce"/>
</svg>
