<svg xmlns="http://www.w3.org/2000/svg" xmlns:xlink="http://www.w3.org/1999/xlink" width="130" height="130" viewBox="0 0 130 130">
  <defs>
    <clipPath id="clip-path">
      <circle id="Ellipse_4" data-name="Ellipse 4" cx="65" cy="65" r="65" transform="translate(1384 3468)" fill="#fff" stroke="#707070" stroke-width="1"/>
    </clipPath>
  </defs>
  <g id="Mask_Group_67" data-name="Mask Group 67" transform="translate(-1384 -3468)" clip-path="url(#clip-path)">
    <g id="management_12523522" transform="translate(1389.554 3477.221)">
      <g id="Group_259" data-name="Group 259" transform="translate(21.91 4.37)">
        <path id="Path_347" data-name="Path 347" d="M93.473,49.032a4.144,4.144,0,0,0,3.511-4.08V38.875A4.143,4.143,0,0,0,93.478,34.8l-5.632-.857a28.868,28.868,0,0,0-2.678-6.464l3.378-4.593a4.124,4.124,0,0,0-.414-5.36l-4.3-4.31a4.116,4.116,0,0,0-5.349-.394L73.894,16.2a28.458,28.458,0,0,0-6.467-2.678l-.87-5.641a4.094,4.094,0,0,0-4.08-3.51h-6.06a4.148,4.148,0,0,0-4.08,3.5L51.48,13.52A28.461,28.461,0,0,0,45,16.2l-4.591-3.377a4.119,4.119,0,0,0-5.36.4l-4.3,4.3a4.148,4.148,0,0,0-.4,5.358l3.383,4.611a28.885,28.885,0,0,0-2.663,6.447L25.42,34.8a4.144,4.144,0,0,0-3.511,4.08v6.076a4.15,4.15,0,0,0,3.508,4.08l5.644.843a28.424,28.424,0,0,0,2.675,6.478l-3.4,4.6a4.14,4.14,0,0,0,.421,5.351l4.286,4.3a4.129,4.129,0,0,0,.649.525L22.866,96.993a1.558,1.558,0,0,0,1.986,2.134l11.48-4.7,2.42,11.523a1.559,1.559,0,0,0,1.327,1.225,1.736,1.736,0,0,0,.2.012,1.556,1.556,0,0,0,1.394-.866L55.13,79.216a4.141,4.141,0,0,0,1.286.227h6.06a4.145,4.145,0,0,0,1.286-.226l13.458,27.107a1.556,1.556,0,0,0,1.394.866,1.736,1.736,0,0,0,.2-.012,1.559,1.559,0,0,0,1.327-1.225l2.42-11.523,11.48,4.7a1.558,1.558,0,0,0,1.986-2.134L83.2,71.132a3.768,3.768,0,0,0,.65-.528l4.273-4.289a4.144,4.144,0,0,0,.427-5.367l-3.38-4.6a28.92,28.92,0,0,0,2.678-6.476ZM40.879,100.916,39,91.958a1.559,1.559,0,0,0-2.115-1.121L27.492,94.68,38.889,71.7c.033-.007.062-.024.095-.032a3.84,3.84,0,0,0,.569-.191c.057-.024.115-.042.171-.069a4.116,4.116,0,0,0,.682-.4l4.607-3.393A28.6,28.6,0,0,0,51.479,70.3l.859,5.643a4.167,4.167,0,0,0,.353,1.137c0,.008,0,.017.008.025ZM82.011,90.837A1.557,1.557,0,0,0,79.9,91.958l-1.882,8.958L66.194,77.107c.006-.012.009-.024.014-.035s.013-.037.021-.054a4.156,4.156,0,0,0,.326-1.076l.872-5.641a29.312,29.312,0,0,0,6.449-2.675L78.481,71c.013.01.029.015.042.025a4.026,4.026,0,0,0,.627.372c.081.039.165.066.248.1a3.973,3.973,0,0,0,.483.162c.042.011.08.032.122.041L91.4,94.68Zm3.065-42.706a25.756,25.756,0,0,1-3.1,7.506,1.56,1.56,0,0,0,.075,1.734l3.984,5.416a1,1,0,0,1-.11,1.316l-4.3,4.318a.967.967,0,0,1-.7.258c-.007,0-.014,0-.021,0a.961.961,0,0,1-.575-.182l-5.437-3.987a1.56,1.56,0,0,0-1.731-.075,26.229,26.229,0,0,1-7.485,3.1A1.556,1.556,0,0,0,64.5,68.814l-1.028,6.65a1.052,1.052,0,0,1-.251.534.978.978,0,0,1-.749.329h-6.06a.984.984,0,0,1-.755-.336,1.042,1.042,0,0,1-.243-.52l-1.012-6.653a1.56,1.56,0,0,0-1.177-1.281,25.447,25.447,0,0,1-7.489-3.113,1.56,1.56,0,0,0-.416-.177c-.043-.012-.087-.01-.131-.018a1.565,1.565,0,0,0-.273-.038c-.011,0-.021,0-.032.005a1.565,1.565,0,0,0-.292.046,1.523,1.523,0,0,0-.172.032,1.556,1.556,0,0,0-.428.219L38.553,68.5c-.02.015-.044.019-.064.032a.9.9,0,0,1-.324.12,1.021,1.021,0,0,1-.249.023.92.92,0,0,1-.663-.274l-4.3-4.31a.994.994,0,0,1-.1-1.3l4-5.422a1.557,1.557,0,0,0,.074-1.742,25.355,25.355,0,0,1-3.1-7.5,1.559,1.559,0,0,0-1.286-1.185l-6.667-1a1.025,1.025,0,0,1-.854-1V38.875a1.012,1.012,0,0,1,.857-1l6.667-1.012a1.556,1.556,0,0,0,1.282-1.181,25.831,25.831,0,0,1,3.086-7.48,1.556,1.556,0,0,0-.075-1.731l-3.991-5.439a1.026,1.026,0,0,1,.1-1.308l4.291-4.29a1.022,1.022,0,0,1,1.317-.1l5.421,3.989a1.555,1.555,0,0,0,1.74.072,25.316,25.316,0,0,1,7.5-3.1,1.56,1.56,0,0,0,1.184-1.283l1.012-6.671a1.013,1.013,0,0,1,1-.853h6.06a1,1,0,0,1,1,.86L64.5,15.013a1.558,1.558,0,0,0,1.184,1.279,25.3,25.3,0,0,1,7.484,3.1,1.555,1.555,0,0,0,1.74-.072l5.424-3.991a1.021,1.021,0,0,1,1.3.1l4.3,4.31a1.011,1.011,0,0,1,.1,1.3L82.05,26.455a1.559,1.559,0,0,0-.076,1.733,25.735,25.735,0,0,1,3.1,7.493,1.559,1.559,0,0,0,1.283,1.184l6.652,1.012.006,0a1.009,1.009,0,0,1,.851,1v6.076a1.009,1.009,0,0,1-.853,1l-6.652,1A1.559,1.559,0,0,0,85.076,48.131Z" transform="translate(-21.91 -4.37)" fill="#0092e0"/>
        <path id="Path_348" data-name="Path 348" d="M64.413,28.085A18.773,18.773,0,0,0,61.267,65.37a17.341,17.341,0,0,0,3.146.274,18.073,18.073,0,0,0,1.907-.109c.41-.043.817-.09,1.2-.161A18.738,18.738,0,0,0,77.538,60.29q.587-.573,1.126-1.2A18.783,18.783,0,0,0,64.413,28.085Zm15.409,21.56A15.6,15.6,0,0,1,76.3,57.057v0q-.449.523-.94,1a15.648,15.648,0,0,1-8.383,4.246c-.4.074-.817.13-1.246.167s-.868.056-1.311.056A14.944,14.944,0,0,1,61.8,62.3,15.647,15.647,0,1,1,79.822,49.645Z" transform="translate(-26.868 -9.328)" fill="#0092e0"/>
        <path id="Path_349" data-name="Path 349" d="M73.489,43.472,63.764,53.2l-3.385-3.385a1.558,1.558,0,1,0-2.2,2.2L62.662,56.5a1.557,1.557,0,0,0,2.2,0L75.692,45.675a1.558,1.558,0,1,0-2.2-2.2Z" transform="translate(-29.397 -12.45)" fill="#0092e0"/>
      </g>
    </g>
  </g>
</svg>
