<svg xmlns="http://www.w3.org/2000/svg" xmlns:xlink="http://www.w3.org/1999/xlink" width="130" height="130" viewBox="0 0 130 130">
  <defs>
    <clipPath id="clip-path">
      <circle id="Ellipse_2" data-name="Ellipse 2" cx="65" cy="65" r="65" transform="translate(280 3546)" fill="#0092e0" stroke="#707070" stroke-width="1"/>
    </clipPath>
  </defs>
  <g id="Mask_Group_65" data-name="Mask Group 65" transform="translate(-280 -3546)" clip-path="url(#clip-path)">
    <g id="target_11962929" transform="translate(279.66 3545.66)">
      <path id="Path_342" data-name="Path 342" d="M35.984,69.042a33.031,33.031,0,1,0,66.063,0C100.234,25.226,37.794,25.229,35.984,69.042ZM69.015,98.069A28.946,28.946,0,0,1,47.1,88.023a8.479,8.479,0,0,1,5.758-7.592L64.2,76.652a15.509,15.509,0,0,1,9.623,0l11.335,3.779a8.477,8.477,0,0,1,5.763,7.592,28.947,28.947,0,0,1-21.91,10.046Zm0-47.125c13.835.439,13.832,20.5,0,20.938-13.835-.439-13.832-20.5,0-20.938Zm29.027,18.1A28.808,28.808,0,0,1,94,83.752a12.466,12.466,0,0,0-7.564-7.117l-9.452-3.15c11.826-7.694,6.342-26.561-7.965-26.544-14.307-.013-19.791,18.848-7.964,26.544l-9.457,3.15a12.466,12.466,0,0,0-7.559,7.117,28.809,28.809,0,0,1-4.047-14.71C41.583,30.532,96.454,30.545,98.042,69.042Z" transform="translate(-3.675 -3.702)" fill="#0092e0"/>
      <path id="Path_343" data-name="Path 343" d="M130.961,58.848a2,2,0,0,0-1.891-.168l-3.656,1.567a49.737,49.737,0,0,0-37.6-42.291,2,2,0,1,0-.95,3.891,45.68,45.68,0,0,1,33.63,33.647,43.441,43.441,0,0,1,1.082,6.4l-6.519,2.794a2.015,2.015,0,0,0,0,3.679L129.07,74.37a2,2,0,0,0,2.791-1.84V60.519A2,2,0,0,0,130.961,58.848Zm-3.1,10.647-6.929-2.97,6.929-2.97Z" transform="translate(-10.468 -1.185)" fill="#0092e0"/>
      <path id="Path_344" data-name="Path 344" d="M19.427,55.755a2.006,2.006,0,0,0,2.419-1.47,45.68,45.68,0,0,1,33.649-33.63,43.549,43.549,0,0,1,6.4-1.085l2.794,6.52a2,2,0,0,0,3.679,0l6.006-14.013a2.015,2.015,0,0,0-1.84-2.79H60.52a2.015,2.015,0,0,0-1.84,2.79l1.568,3.658a49.732,49.732,0,0,0-42.29,37.6,2,2,0,0,0,1.469,2.42ZM69.5,13.291l-2.97,6.928-2.97-6.928Z" transform="translate(-1.185)" fill="#0092e0"/>
      <path id="Path_345" data-name="Path 345" d="M120.11,85.393a2,2,0,0,0-2.419,1.47,45.68,45.68,0,0,1-33.649,33.63,43.554,43.554,0,0,1-6.4,1.085l-2.794-6.519a2,2,0,0,0-3.679,0l-6.006,14.013A2.015,2.015,0,0,0,67,131.86H79.016a2.015,2.015,0,0,0,1.84-2.79l-1.568-3.657a49.732,49.732,0,0,0,42.29-37.6,2,2,0,0,0-1.469-2.42ZM70.041,127.857l2.97-6.928,2.97,6.928Z" transform="translate(-7.67 -10.468)" fill="#0092e0"/>
      <path id="Path_346" data-name="Path 346" d="M54.285,117.689A45.788,45.788,0,0,1,19.572,77.643l6.519-2.794a2,2,0,0,0,0-3.679L12.078,65.165A2.016,2.016,0,0,0,9.287,67V79.016a2.016,2.016,0,0,0,2.791,1.839l3.656-1.567a46.446,46.446,0,0,0,1.038,5.727,49.659,49.659,0,0,0,36.563,36.564,2,2,0,1,0,.95-3.891ZM13.291,75.979V70.04l6.93,2.97Z" transform="translate(0 -7.67)" fill="#0092e0"/>
    </g>
  </g>
</svg>
