<svg xmlns="http://www.w3.org/2000/svg" xmlns:xlink="http://www.w3.org/1999/xlink" width="130" height="130" viewBox="0 0 130 130">
  <defs>
    <clipPath id="clip-path">
      <circle id="Ellipse_6" data-name="Ellipse 6" cx="65" cy="65" r="65" transform="translate(832 3952)" fill="#0092e0" stroke="#707070" stroke-width="1"/>
    </clipPath>
  </defs>
  <g id="Mask_Group_69" data-name="Mask Group 69" transform="translate(-832 -3952)" clip-path="url(#clip-path)">
    <g id="office-chair_18253065" transform="translate(842.375 3963.956)">
      <path id="Path_351" data-name="Path 351" d="M79.051,28.828a19.418,19.418,0,0,0-6.957,1.3V14.335a10.015,10.015,0,0,0-10.007-10H31.237a10,10,0,0,0-9.969,10v20.2H15.243a4.637,4.637,0,0,0-4.626,4.632V71.416a4.374,4.374,0,0,0,4.368,4.369H40.89v12.9H33.746a6.11,6.11,0,0,0-6.1,6.1v5.339a1.624,1.624,0,0,0,1.624,1.624H64.1a1.624,1.624,0,0,0,1.624-1.624V94.792a6.112,6.112,0,0,0-6.1-6.1H52.478v-12.9h17v7.388a1.624,1.624,0,0,0,2.483,1.377l7.1-4.418,7.082,4.418a1.624,1.624,0,0,0,2.483-1.377V65.462a19.564,19.564,0,0,0-9.572-36.633ZM24.52,14.335a6.746,6.746,0,0,1,6.717-6.754h30.85a6.763,6.763,0,0,1,6.754,6.754V31.73a19.418,19.418,0,0,0-8.662,21.8H29.269V39.166a4.637,4.637,0,0,0-4.632-4.632H24.52Zm26.333,58.2H29.269V67.494h34.82v5.033Zm13.236-8.281H29.269V56.778H61.384A19.588,19.588,0,0,0,64.089,61ZM13.864,71.416V39.166a1.385,1.385,0,0,1,1.385-1.385h9.395a1.387,1.387,0,0,1,1.385,1.385V72.537H14.988a1.122,1.122,0,0,1-1.124-1.122ZM62.485,94.8v3.71h-31.6V94.792a2.858,2.858,0,0,1,2.854-2.856h25.88a2.859,2.859,0,0,1,2.856,2.856Zm-13.249-6.1h-5.1V75.785h5.092Zm18.1-16.149V64.051a19.947,19.947,0,0,0,2.135,1.408v7.086Zm18.039,7.708-5.457-3.41a1.624,1.624,0,0,0-1.718,0l-5.482,3.41V74.2a.21.21,0,0,0,0-.031.233.233,0,0,0,0-.032V66.908a19.262,19.262,0,0,0,12.657,0ZM79.051,64.734A16.328,16.328,0,1,1,95.373,48.408,16.328,16.328,0,0,1,79.051,64.734Z" fill="#0092e0"/>
      <path id="Path_352" data-name="Path 352" d="M107.04,53.4l-4.335-.63-1.945-3.928a3,3,0,0,0-5.374,0L93.437,52.77,89.1,53.4a3,3,0,0,0-1.663,5.115l3.14,3.059-.731,4.316A3,3,0,0,0,94.2,69.051l3.877-2.039,3.881,2.041A3,3,0,0,0,106.3,65.89l-.74-4.319,3.14-3.059A3,3,0,0,0,107.04,53.4ZM103.2,59.338a3,3,0,0,0-.862,2.653l.677,3.95-3.551-1.866a2.991,2.991,0,0,0-2.788,0l-3.553,1.867.677-3.954a3,3,0,0,0-.862-2.651l-2.871-2.8,3.965-.576a2.992,2.992,0,0,0,2.259-1.64l1.775-3.595,1.775,3.6a3,3,0,0,0,2.257,1.638l3.967.576Z" transform="translate(-19.026 -10.735)" fill="#0092e0"/>
    </g>
  </g>
</svg>
