<svg xmlns="http://www.w3.org/2000/svg" xmlns:xlink="http://www.w3.org/1999/xlink" width="130" height="130" viewBox="0 0 130 130">
  <defs>
    <clipPath id="clip-path">
      <circle id="Ellipse_3" data-name="Ellipse 3" cx="65" cy="65" r="65" transform="translate(832 3546)" fill="#0092e0" stroke="#707070" stroke-width="1"/>
    </clipPath>
  </defs>
  <g id="Mask_Group_66" data-name="Mask Group 66" transform="translate(-832 -3546)" clip-path="url(#clip-path)">
    <path id="problem_17435753" d="M96.536,70.668A6.659,6.659,0,0,0,87.517,68L83.7,70.084l-.078-.153A6.659,6.659,0,0,0,74.6,67.266l-6.946,3.778q-7.243-2.335-14.477-4.665a17.983,17.983,0,0,0-14.622,1.369L26.562,74.274l-1.21-2.1a2.965,2.965,0,0,0-4.038-1.088l-6.5,3.736a2.959,2.959,0,0,0-1.088,4.036l14.605,25.354a2.958,2.958,0,0,0,4.038,1.086l6.494-3.738a2.962,2.962,0,0,0,1.082-4.044L38.8,95.523l.413-.225a10.27,10.27,0,0,1,8.352-.784l6.284,2.025a14.2,14.2,0,0,0,4.37.712,13.61,13.61,0,0,0,6.571-1.734L93.873,79.687A6.656,6.656,0,0,0,96.536,70.668Zm-20.356-.5a3.352,3.352,0,0,1,4.535,1.35c.027.047.047.1.072.147l-6.544,3.561a6.7,6.7,0,0,0-2.471-2.663ZM16.6,77.208s0,0,0,0ZM31.027,102.26,16.771,77.513l5.887-3.39L36.912,98.873ZM92.292,76.787,63.21,92.616a10.271,10.271,0,0,1-8.346.78L48.58,91.371A13.462,13.462,0,0,0,37.635,92.4l-.483.262L28.211,77.14l11.921-6.488a14.792,14.792,0,0,1,12.027-1.125q8.518,2.74,17.051,5.493l.149.047a3.367,3.367,0,0,1,2.289,2.774c.006.041.014.083.023.124s0,.1,0,.147a3.273,3.273,0,0,1-.157,1.164A3.362,3.362,0,0,1,67.3,81.434q-7.3-2.353-14.595-4.7A1.652,1.652,0,0,0,51.7,79.879q7.292,2.344,14.593,4.7a6.648,6.648,0,0,0,8.683-5.987L89.1,70.9a3.352,3.352,0,0,1,4.531,1.342,3.354,3.354,0,0,1-1.34,4.544Zm-26.6-54.579v-7.2a1.654,1.654,0,1,1,3.307,0v7.2a1.654,1.654,0,1,1-3.307,0Zm0,4.3v-.017a1.654,1.654,0,1,1,0,.017Zm-8.978,6.1H77.98a3.583,3.583,0,0,0,3.1-5.376L70.447,8.821a3.576,3.576,0,0,0-6.2,0L53.607,27.241a3.584,3.584,0,0,0,3.109,5.369Zm-.244-3.722L67.113,10.466a.229.229,0,0,1,.233-.132.233.233,0,0,1,.233.132s0,0,0,.006l10.635,18.41a.253.253,0,0,1,.006.281.245.245,0,0,1-.244.142H56.715a.235.235,0,0,1-.237-.132A.252.252,0,0,1,56.472,28.888Zm-3.123,11.7a11.307,11.307,0,0,1,2.442,4.63,5.6,5.6,0,0,0,.347,10.918v2.758a5.969,5.969,0,0,0,5.966,5.96H72.59a5.969,5.969,0,0,0,5.966-5.96V56.133A5.6,5.6,0,0,0,78.9,45.215a11.294,11.294,0,0,1,2.44-4.628C81.9,39.939,82.458,39.311,83,38.7c3.592-4.013,6.984-7.8,6.984-16.067a22.637,22.637,0,0,0-45.275,0c0,8.263,3.392,12.054,6.984,16.067.543.609,1.1,1.237,1.656,1.883Zm21.9,18.309a2.658,2.658,0,0,1-2.659,2.653H62.1a2.66,2.66,0,0,1-2.659-2.653V56.232h15.8ZM79.8,50.636a2.294,2.294,0,0,1-2.291,2.291H57.182a2.291,2.291,0,0,1,0-4.583H77.509A2.3,2.3,0,0,1,79.8,50.636ZM67.347,3.3a19.353,19.353,0,0,1,19.33,19.33c0,7-2.71,10.028-6.141,13.862-.555.621-1.131,1.263-1.709,1.943a14.409,14.409,0,0,0-3.274,6.6H59.139a14.4,14.4,0,0,0-3.276-6.6c-.578-.677-1.152-1.319-1.709-1.94-3.431-3.833-6.141-6.862-6.141-13.862A19.36,19.36,0,0,1,67.347,3.3Z" transform="translate(841.659 3558.154)" fill="#0092e0"/>
  </g>
</svg>
