<svg xmlns="http://www.w3.org/2000/svg" xmlns:xlink="http://www.w3.org/1999/xlink" width="130" height="130" viewBox="0 0 130 130">
  <defs>
    <clipPath id="clip-path">
      <circle id="Ellipse_5" data-name="Ellipse 5" cx="65" cy="65" r="65" transform="translate(280 3952)" fill="#0092e0" stroke="#707070" stroke-width="1"/>
    </clipPath>
  </defs>
  <g id="Mask_Group_68" data-name="Mask Group 68" transform="translate(-280 -3952)" clip-path="url(#clip-path)">
    <g id="Layer_1" transform="translate(294.332 3971.536)">
      <g id="Layer_x5F_1" transform="translate(-0.001 0.925)">
        <path id="Path_350" data-name="Path 350" d="M93.92,41.479c-.824,0-7.58-3.46-8.9-4.119l-8.156,3.955A1.753,1.753,0,0,1,74.395,39.5l1.153-8.98-6.261-6.591a1.747,1.747,0,0,1,.989-2.966l8.9-1.565,4.284-7.991a1.785,1.785,0,0,1,3.131,0L90.954,19.4l8.9,1.565a1.772,1.772,0,0,1,.989,2.966l-6.261,6.591,1.153,8.98a1.773,1.773,0,0,1-1.812,1.977ZM66.238,89.593H47.29L40.781,88.44A1.853,1.853,0,0,1,38.969,90H30.4a1.829,1.829,0,0,1-1.812-1.812V61.5A1.777,1.777,0,0,1,30.4,59.687h8.568a1.92,1.92,0,0,1,1.813,1.565c2.719-.577,5.273-1.565,6.014-3.707a26.649,26.649,0,0,0,.906-9.886v-.165c-.412-7.5,7.744-7.744,10.216-1.812,1.071,2.472.906,8.321.247,12.028H73.653c5.6,0,7.332,7.662,2.307,10.051a5.261,5.261,0,0,1-2.472,7.085,5.4,5.4,0,0,1-2.472,7.085,5.332,5.332,0,0,1-4.778,7.662ZM40.781,84.732l7,1.236H66.238a1.731,1.731,0,1,0,0-3.46H54.457a1.772,1.772,0,0,1,0-3.543H68.71a1.772,1.772,0,0,0,0-3.543H56.929a1.771,1.771,0,1,1,0-3.543H71.1a1.73,1.73,0,1,0,0-3.46H59.318a1.772,1.772,0,0,1,0-3.543H73.571a1.772,1.772,0,0,0,0-3.543H55.281a1.994,1.994,0,0,1-1.153-2.472c.906-2.224,1.318-9.8.494-11.781-.906-2.142-3.707-3.048-3.378.165a27.862,27.862,0,0,1-1.153,11.534c-1.565,4.284-6.261,5.6-9.392,6.179V84.9Zm-3.625-21.42h0c0-.082-5.026-.082-5.026-.082V86.38h5.026V63.312ZM41.687,31.84a1.864,1.864,0,0,1-1.812-1.977l1.236-8.98-6.261-6.509a1.771,1.771,0,0,1,.989-2.966l8.98-1.648L49.1,1.852a1.785,1.785,0,0,1,3.131,0l4.284,7.909,8.9,1.648a1.771,1.771,0,0,1,.989,2.966l-6.261,6.509,1.236,8.98a1.78,1.78,0,0,1-2.554,1.812l-8.156-3.955c-1.236.659-8.074,4.119-8.9,4.119Zm8.9-7.827c.824,0,5.685,2.554,6.756,3.048l-.906-6.509a1.736,1.736,0,0,1,.494-1.483l4.531-4.778-6.509-1.153a1.726,1.726,0,0,1-1.236-.906L50.585,6.383l-3.048,5.849a2.149,2.149,0,0,1-1.318.906l-6.426,1.153,4.531,4.778a2.468,2.468,0,0,1,.494,1.483l-.906,6.509c1.071-.494,5.849-3.048,6.673-3.048ZM7.332,41.479A1.864,1.864,0,0,1,5.52,39.5l1.236-8.98L.494,23.931a1.771,1.771,0,0,1,.989-2.966l8.9-1.565,4.284-7.991a1.785,1.785,0,0,1,3.131,0L22.162,19.4l8.9,1.565a1.771,1.771,0,0,1,.989,2.966l-6.261,6.591L26.94,39.5a1.764,1.764,0,0,1-2.554,1.812L16.23,37.36c-1.318.577-8.074,4.119-8.98,4.119ZM5.355,23.849l4.531,4.778a1.509,1.509,0,0,1,.494,1.4l-.906,6.591,6.014-2.884a1.745,1.745,0,0,1,1.565,0l5.932,2.884-.906-6.591a1.742,1.742,0,0,1,.494-1.4L27.1,23.849,20.679,22.7a1.537,1.537,0,0,1-1.236-.906L16.312,15.94l-3.131,5.849a1.726,1.726,0,0,1-1.236.906L5.437,23.849ZM85.023,33.57c.824,0,5.6,2.554,6.673,3.048l-.906-6.591a1.742,1.742,0,0,1,.494-1.4l4.531-4.778L89.389,22.7a1.726,1.726,0,0,1-1.236-.906L85.023,15.94l-3.131,5.849a1.978,1.978,0,0,1-1.236.906l-6.509,1.153,4.531,4.778a1.509,1.509,0,0,1,.494,1.4l-.906,6.591c1.153-.494,5.932-3.048,6.756-3.048Z" transform="translate(0.001 -0.925)" fill="#0092e0" fill-rule="evenodd"/>
      </g>
    </g>
  </g>
</svg>
