<svg xmlns="http://www.w3.org/2000/svg" width="220" height="192.186" viewBox="0 0 220 192.186">
  <path id="AdobeStock_884765475" d="M48.228,110.445v.184a64.118,64.118,0,0,0,101.539,51.917,2.47,2.47,0,0,1,.268-.195,63.95,63.95,0,0,0,13.292-13.039,2.431,2.431,0,0,1,.26-.344,64.072,64.072,0,1,0-115.36-38.523Zm47.39,93.313a2.464,2.464,0,1,1,0,4.929H26.392a2.464,2.464,0,1,1,0-4.929Zm0-14a2.464,2.464,0,0,1,0,4.929H26.392a2.464,2.464,0,1,1,0-4.929Zm-11.874-14a2.464,2.464,0,0,1,0,4.929H26.392a2.464,2.464,0,1,1,0-4.929ZM38.041,158a2.464,2.464,0,1,1,0,4.929H26.392a2.464,2.464,0,1,1,0-4.929Zm0-17.847a2.464,2.464,0,1,1,0,4.929H26.392a2.464,2.464,0,0,1,0-4.929Zm0-16.037a2.464,2.464,0,1,1,0,4.929H26.392a2.464,2.464,0,1,1,0-4.929Zm157.292,36.927,5.4,5.4a6.294,6.294,0,0,1,1.235,7.128L226.2,197.807a14.749,14.749,0,0,1,0,20.809l-6.737,6.737a14.669,14.669,0,0,1-10.4,4.286v.009a14.671,14.671,0,0,1-10.4-4.3L174.42,201.113a6.294,6.294,0,0,1-7.128-1.235l-5.4-5.4a6.291,6.291,0,0,1,0-8.882l3.564-3.563-14.4-14.4A69.316,69.316,0,0,1,114.775,179.5V231.26a2.465,2.465,0,0,1-2.464,2.464H12.964A2.465,2.465,0,0,1,10.5,231.26V110.543a2.465,2.465,0,0,1,2.464-2.464H43.349a68.991,68.991,0,1,1,125.292,42.28l14.247,14.247,3.563-3.563a6.292,6.292,0,0,1,8.882,0Zm3.407,16.269-20.577,20.577,23.98,23.98a9.755,9.755,0,0,0,6.919,2.851v.01a9.759,9.759,0,0,0,6.919-2.861l6.737-6.737a9.823,9.823,0,0,0,0-13.839l-23.979-23.98Zm-29.8,1.24L155.08,164.689a68.9,68.9,0,0,0,10.548-10.373L179.4,168.091l-10.46,10.461Zm28.3-8.627a1.364,1.364,0,0,1,0,1.912l-24.558,24.558a1.364,1.364,0,0,1-1.912,0l-5.4-5.4a1.364,1.364,0,0,1,0-1.912l24.557-24.557a1.364,1.364,0,0,1,1.912,0l5.4,5.4Zm-87.4-24.843v12.863a47.54,47.54,0,0,1-30.091-12.863Zm-37.554-.743a2.5,2.5,0,0,1-.239-.285,52.045,52.045,0,0,1-9.292-16.543l-1.04-3.415a52.354,52.354,0,1,1,10.571,20.242Zm2.918-4.186a47.114,47.114,0,0,1-6.6-11.108h41.238v11.108Zm-8.368-16.037a47.681,47.681,0,0,1-1.928-11.108h44.932v11.108h-43Zm-1.932-16.037a47.458,47.458,0,1,1,49.865,49.861v-47.4a2.465,2.465,0,0,0-2.464-2.464Zm-21.559,4.929a69.075,69.075,0,0,0,66.495,66.5V228.8H15.429V113.007Z" transform="translate(-10.5 -41.538)" fill="#1486ce" fill-rule="evenodd"/>
</svg>
