<svg xmlns="http://www.w3.org/2000/svg" xmlns:xlink="http://www.w3.org/1999/xlink" width="138" height="138" viewBox="0 0 138 138">
  <defs>
    <clipPath id="clip-path">
      <rect id="Rectangle_740" data-name="Rectangle 740" width="138" height="138" transform="translate(280 3133)" fill="#006fbe" stroke="#006fbe" stroke-width="1"/>
    </clipPath>
    <clipPath id="clip-path-2">
      <path id="path2127" d="M0-138H138V0H0Z" fill="#006fbe"/>
    </clipPath>
  </defs>
  <g id="Mask_Group_131" data-name="Mask Group 131" transform="translate(-280 -3133)" clip-path="url(#clip-path)">
    <g id="g2121" transform="translate(280 3271)">
      <g id="g2123">
        <g id="g2125" clip-path="url(#clip-path-2)">
          <g id="g2131" transform="translate(52.109 -54.451)">
            <path id="path2133" d="M0,0A79.925,79.925,0,0,1,16.476-29.678V-42.535L-3.4-58.855l17.49-15.679a12.44,12.44,0,0,1,16.679.062l1.865,1.7a11.289,11.289,0,0,0,15.2,0l1.865-1.7a12.442,12.442,0,0,1,13.269-2.237" fill="none" stroke="#006fbe" stroke-linecap="round" stroke-linejoin="round" stroke-miterlimit="10" stroke-width="4.043"/>
          </g>
          <g id="g2135" transform="translate(121.499 -126.283)">
            <path id="path2137" d="M0,0,14.479,12.978-5.4,29.3V42.155S14.479,62.72,14.479,94.242c0,0-17.3,6.315-43.634,6.315q-3.554,0-6.881-.146" fill="none" stroke="#006fbe" stroke-linecap="round" stroke-linejoin="round" stroke-miterlimit="10" stroke-width="4.043"/>
          </g>
          <g id="g2139" transform="translate(113.477 -53.554)">
            <path id="path2141" d="M0,0A154.551,154.551,0,0,1,2.609,26.081" fill="none" stroke="#006fbe" stroke-linecap="round" stroke-linejoin="round" stroke-miterlimit="10" stroke-width="4.043"/>
          </g>
          <g id="g2143" transform="translate(123.044 -49.348)">
            <path id="path2145" d="M0,0A153.486,153.486,0,0,1,2.407,20.161" fill="none" stroke="#006fbe" stroke-linecap="round" stroke-linejoin="round" stroke-miterlimit="10" stroke-width="4.043"/>
          </g>
          <g id="g2147" transform="translate(68.585 -96.986)">
            <path id="path2149" d="M0,0V-12.543" fill="none" stroke="#006fbe" stroke-linecap="round" stroke-linejoin="round" stroke-miterlimit="10" stroke-width="4.043"/>
          </g>
          <g id="g2151" transform="translate(116.104 -96.986)">
            <path id="path2153" d="M0,0V-12.543" fill="none" stroke="#006fbe" stroke-linecap="round" stroke-linejoin="round" stroke-miterlimit="10" stroke-width="4.043"/>
          </g>
          <g id="g2155" transform="translate(116.104 -84.127)">
            <path id="path2157" d="M0,0A138.182,138.182,0,0,1-47.518,0" fill="none" stroke="#006fbe" stroke-linecap="round" stroke-linejoin="round" stroke-miterlimit="10" stroke-width="4.043"/>
          </g>
          <g id="g2159" transform="translate(30.349 -54.359)">
            <path id="path2161" d="M0,0Q22.843-.5,45.683.7a9.044,9.044,0,0,1,8.509,7.881,122.528,122.528,0,0,1,0,31.22,9.049,9.049,0,0,1-8.509,7.884,618.837,618.837,0,0,1-64.5,0A9.053,9.053,0,0,1-27.33,39.8a122.725,122.725,0,0,1,0-31.22A9.048,9.048,0,0,1-18.818.7Q-13.445.416-8.069.229" fill="none" stroke="#006fbe" stroke-linecap="round" stroke-linejoin="round" stroke-miterlimit="10" stroke-width="4.043"/>
          </g>
          <g id="g2163" transform="translate(60.095 -23.484)">
            <path id="path2165" d="M0,0Q7.969-.21,15.935-.628a9.044,9.044,0,0,0,8.512-7.878q.445-3.449.687-6.895" fill="none" stroke="#006fbe" stroke-linecap="round" stroke-linejoin="round" stroke-miterlimit="10" stroke-width="4.043"/>
          </g>
          <g id="g2167" transform="translate(2.329 -38.885)">
            <path id="path2169" d="M0,0Q.255,3.445.69,6.895A9.041,9.041,0,0,0,9.2,14.773q9.108.477,18.22.687" fill="none" stroke="#006fbe" stroke-linecap="round" stroke-linejoin="round" stroke-miterlimit="10" stroke-width="4.043"/>
          </g>
          <g id="g2171" transform="translate(54.666 -17.033)">
            <path id="path2173" d="M0,0A178.27,178.27,0,0,1-19.493,0a5.687,5.687,0,0,1-5.34-5.245,72.636,72.636,0,0,1,0-11.689,5.687,5.687,0,0,1,5.34-5.245A178.27,178.27,0,0,1,0-22.179a5.687,5.687,0,0,1,5.34,5.245,72.636,72.636,0,0,1,0,11.689A5.687,5.687,0,0,1,0,0Z" fill="none" stroke="#006fbe" stroke-linecap="round" stroke-linejoin="round" stroke-miterlimit="10" stroke-width="4.043"/>
          </g>
          <g id="g2175" transform="translate(44.92 -23.948)">
            <path id="path2177" d="M0,0C-2.659,0-5.35-.063-8.018-.188a65.661,65.661,0,0,1,0-7.972C-5.35-8.284-2.659-8.348,0-8.348s5.349.063,8.017.188a65.662,65.662,0,0,1,0,7.972C5.349-.063,2.658,0,0,0Z" fill="none" stroke="#006fbe" stroke-linecap="round" stroke-linejoin="round" stroke-miterlimit="10" stroke-width="4.043"/>
          </g>
          <g id="g2179" transform="translate(76.031 -53.665)">
            <path id="path2181" d="M0,0C-1.817-18.42-57.215-27.653-57.215-46.8s29.068-14.361,24.964,5.814S-66.657-14.066-64.5,0" fill="none" stroke="#006fbe" stroke-linecap="round" stroke-linejoin="round" stroke-miterlimit="10" stroke-width="4.043"/>
          </g>
          <g id="g2183" transform="translate(77.412 -131.819)">
            <path id="path2185" d="M0,0C.644,3.032,5.693,25.325,14.932,28.562,24.172,25.325,29.223,3.032,29.867,0" fill="none" stroke="#006fbe" stroke-linecap="round" stroke-linejoin="round" stroke-miterlimit="10" stroke-width="4.043"/>
          </g>
        </g>
      </g>
    </g>
  </g>
</svg>
