<svg xmlns="http://www.w3.org/2000/svg" xmlns:xlink="http://www.w3.org/1999/xlink" width="138" height="138" viewBox="0 0 138 138">
  <defs>
    <clipPath id="clip-path">
      <rect id="Rectangle_741" data-name="Rectangle 741" width="138" height="138" transform="translate(648 3133)" fill="#006fbe" stroke="#707070" stroke-width="1"/>
    </clipPath>
  </defs>
  <g id="Mask_Group_132" data-name="Mask Group 132" transform="translate(-648 -3133)" clip-path="url(#clip-path)">
    <path id="household-appliance_10982533" d="M19.742,37.18V27.353a2.226,2.226,0,1,1,4.452,0V37.18a2.226,2.226,0,0,1-4.452,0Zm35.152,74.737A20.209,20.209,0,1,1,34.684,91.708,20.232,20.232,0,0,1,54.893,111.917ZM49.628,116.9a20.915,20.915,0,0,1-4.636.549c-4.779,0-8.159-1.884-11.264-3.615-4.15-2.313-7.768-4.326-14.8-1.829a15.754,15.754,0,0,0,30.7,4.9Zm.814-4.987a15.757,15.757,0,0,0-30.768-4.792c7.571-1.991,12.134.547,16.222,2.825,4.105,2.288,7.686,4.283,14.542,2.129,0-.054,0-.107,0-.162Zm89.784-17.546V138A2.226,2.226,0,0,1,138,140.226H10.263a8.047,8.047,0,0,1-8.038-8.038v-54.9a8.045,8.045,0,0,1,7.889-8.034V8.9a6.685,6.685,0,0,1,6.677-6.677H77.735A6.685,6.685,0,0,1,84.413,8.9V92.146H93.56V74.174a13.407,13.407,0,0,1,7.861-12.153A18.13,18.13,0,0,1,93.56,47.086V31.279H90.221a2.226,2.226,0,1,1,0-4.452H93.7a18.134,18.134,0,0,1,36,0h6.535a2.226,2.226,0,0,1,2.226,2.226v8.294a11.959,11.959,0,0,1-8.707,11.511,18.147,18.147,0,0,1-7.773,13.162,13.407,13.407,0,0,1,7.861,12.153V92.146H138a2.226,2.226,0,0,1,2.226,2.226ZM98.011,76.234v3.954h27.375V76.234ZM134.005,31.28h-4.168v12.8a7.51,7.51,0,0,0,4.168-6.727Zm-35.81-4.452H125.2a13.686,13.686,0,0,0-27.008,0Zm13.5,33.946a13.7,13.7,0,0,0,13.688-13.688V31.28H98.011V47.086A13.7,13.7,0,0,0,111.7,60.774ZM98.359,71.782h26.679a9.24,9.24,0,0,0-8.767-6.557h-9.146a9.239,9.239,0,0,0-8.767,6.557Zm-.348,20.363h27.375V84.639H98.011Zm-18.05,0V63.277h-65.4v5.969H59.105a8.047,8.047,0,0,1,8.038,8.038v54.9a7.985,7.985,0,0,1-.847,3.586h3.653v-41.4a2.226,2.226,0,0,1,2.226-2.226ZM25.987,73.7v7.161h36.7V77.283A3.59,3.59,0,0,0,59.1,73.7H25.987ZM14.566,58.826h65.4v-2h-65.4Zm0-49.923V52.37h65.4V8.9a2.228,2.228,0,0,0-2.226-2.226H16.792A2.228,2.228,0,0,0,14.566,8.9ZM6.677,77.283v3.575H21.535V73.7H10.263A3.59,3.59,0,0,0,6.677,77.283ZM59.1,135.774a3.59,3.59,0,0,0,3.586-3.586V85.31H6.677v46.878a3.59,3.59,0,0,0,3.586,3.586ZM135.774,96.6H74.4v39.177h61.374ZM78.3,129.653V102.718a2.226,2.226,0,0,1,2.226-2.226H117.6a2.226,2.226,0,0,1,2.226,2.226v26.935a2.226,2.226,0,0,1-2.226,2.226H80.521a2.226,2.226,0,0,1-2.226-2.226Zm4.452-2.226h32.628V104.944H82.747ZM121.285,108.4a6.515,6.515,0,1,1,6.515,6.515A6.522,6.522,0,0,1,121.285,108.4Zm4.452,0a2.063,2.063,0,1,0,2.063-2.063A2.066,2.066,0,0,0,125.737,108.4Zm-4.452,15.575a6.515,6.515,0,1,1,6.515,6.515,6.522,6.522,0,0,1-6.515-6.515Zm4.452,0a2.063,2.063,0,1,0,2.063-2.063A2.066,2.066,0,0,0,125.737,123.973ZM106.9,108.346a2.226,2.226,0,0,0-3.148,0L91.221,120.878a2.226,2.226,0,1,0,3.148,3.147L106.9,111.494a2.226,2.226,0,0,0,0-3.148ZM93.24,116.252l5.888-5.888a2.226,2.226,0,1,0-3.148-3.147l-5.888,5.888a2.226,2.226,0,1,0,3.148,3.147Zm11.642-.134-5.888,5.888a2.226,2.226,0,0,0,3.148,3.148l5.888-5.888a2.226,2.226,0,1,0-3.148-3.148Z" transform="translate(645.773 3130.774)" fill="#006fbe"/>
  </g>
</svg>
