<svg xmlns="http://www.w3.org/2000/svg" xmlns:xlink="http://www.w3.org/1999/xlink" width="138" height="138" viewBox="0 0 138 138">
  <defs>
    <clipPath id="clip-path">
      <rect id="Rectangle_746" data-name="Rectangle 746" width="138" height="138" transform="translate(280 3481)" fill="#006fbe" stroke="#006fbe" stroke-width="1"/>
    </clipPath>
  </defs>
  <g id="Mask_Group_135" data-name="Mask Group 135" transform="translate(-280 -3481)" clip-path="url(#clip-path)">
    <g id="fast-food_11842837" transform="translate(280 3481)">
      <line id="Line_189" data-name="Line 189" x1="35.445" transform="translate(47.118 131.298)" fill="none" stroke="#006fbe" stroke-linecap="round" stroke-linejoin="round" stroke-miterlimit="10" stroke-width="4.043"/>
      <line id="Line_190" data-name="Line 190" x2="1.243" y2="45.749" transform="translate(124.812 25.419)" fill="none" stroke="#006fbe" stroke-linecap="round" stroke-linejoin="round" stroke-miterlimit="10" stroke-width="4.043"/>
      <line id="Line_191" data-name="Line 191" y1="19.108" x2="0.519" transform="translate(43.504 25.419)" fill="none" stroke="#006fbe" stroke-linecap="round" stroke-linejoin="round" stroke-miterlimit="10" stroke-width="4.043"/>
      <path id="Path_543" data-name="Path 543" d="M93.514,25.419h33.322a.854.854,0,0,0,.854-.854V7.555a.854.854,0,0,0-.854-.854H42a.854.854,0,0,0-.854.854v17.01a.854.854,0,0,0,.854.854H75.186" fill="none" stroke="#006fbe" stroke-linecap="round" stroke-linejoin="round" stroke-miterlimit="10" stroke-width="4.043"/>
      <circle id="Ellipse_712" data-name="Ellipse 712" cx="8.659" cy="8.659" r="8.659" transform="translate(75.758 16.76)" fill="none" stroke="#006fbe" stroke-linecap="round" stroke-linejoin="round" stroke-miterlimit="10" stroke-width="4.043"/>
      <path id="Path_544" data-name="Path 544" d="M132.556,116.815v3.506A10.976,10.976,0,0,1,121.58,131.3H82.563a10.976,10.976,0,0,1-10.976-10.976v-3.506" fill="none" stroke="#006fbe" stroke-linecap="round" stroke-linejoin="round" stroke-miterlimit="10" stroke-width="4.043"/>
      <path id="Path_545" data-name="Path 545" d="M96.7,94.2H70.828A1.828,1.828,0,0,1,69,92.37V90.042A30.115,30.115,0,0,1,99.115,59.927h3.325a30.115,30.115,0,0,1,30.115,30.115V92.37a1.828,1.828,0,0,1-1.828,1.828H106.135" fill="none" stroke="#006fbe" stroke-linecap="round" stroke-linejoin="round" stroke-miterlimit="10" stroke-width="4.043"/>
      <path id="Path_546" data-name="Path 546" d="M130.111,103.555a5.868,5.868,0,0,1,5.868,5.868v1.524a5.868,5.868,0,0,1-5.868,5.868h-57.7a5.868,5.868,0,0,1-5.868-5.868v-1.524a5.868,5.868,0,0,1,5.868-5.868" fill="none" stroke="#006fbe" stroke-linecap="round" stroke-linejoin="round" stroke-miterlimit="10" stroke-width="4.043"/>
      <path id="Path_547" data-name="Path 547" d="M71.587,94.737v8.818h7.664v2.693a3.937,3.937,0,0,0,3.937,3.937h0a3.937,3.937,0,0,0,3.937-3.937v-2.693H129.97V94.737" fill="none" stroke="#006fbe" stroke-linecap="round" stroke-linejoin="round" stroke-miterlimit="10" stroke-width="4.043"/>
      <path id="Path_548" data-name="Path 548" d="M55.964,66.328,51.23,127.492a4.124,4.124,0,0,1-4.111,3.806H13.654a4.124,4.124,0,0,1-4.111-3.806l-3.8-49.085" fill="none" stroke="#006fbe" stroke-linecap="round" stroke-linejoin="round" stroke-miterlimit="10" stroke-width="4.043"/>
      <path id="Path_549" data-name="Path 549" d="M56.272,66.328H4.334a2.312,2.312,0,0,1-2.312-2.312V58.659a2.312,2.312,0,0,1,2.312-2.312H56.272a2.312,2.312,0,0,1,2.312,2.312v5.356A2.312,2.312,0,0,1,56.272,66.328Z" fill="none" stroke="#006fbe" stroke-linecap="round" stroke-linejoin="round" stroke-miterlimit="10" stroke-width="4.043"/>
      <path id="Path_550" data-name="Path 550" d="M48.478,45.357H12.127a5.756,5.756,0,0,0-5.756,5.756v5.234H54.234V51.113A5.755,5.755,0,0,0,48.478,45.357Z" fill="none" stroke="#006fbe" stroke-linecap="round" stroke-linejoin="round" stroke-miterlimit="10" stroke-width="4.043"/>
      <path id="Path_551" data-name="Path 551" d="M22.875,45.357H15.4V25.11a3.738,3.738,0,0,1,3.738-3.738h0a3.738,3.738,0,0,1,3.738,3.738V45.357Z" fill="none" stroke="#006fbe" stroke-linecap="round" stroke-linejoin="round" stroke-miterlimit="10" stroke-width="4.043"/>
      <line id="Line_192" data-name="Line 192" y2="1.434" transform="translate(116.968 81.862)" fill="none" stroke="#006fbe" stroke-linecap="round" stroke-linejoin="round" stroke-miterlimit="10" stroke-width="4.043"/>
      <line id="Line_193" data-name="Line 193" y2="1.434" transform="translate(101.568 81.862)" fill="none" stroke="#006fbe" stroke-linecap="round" stroke-linejoin="round" stroke-miterlimit="10" stroke-width="4.043"/>
      <line id="Line_194" data-name="Line 194" y2="1.434" transform="translate(86.167 81.862)" fill="none" stroke="#006fbe" stroke-linecap="round" stroke-linejoin="round" stroke-miterlimit="10" stroke-width="4.043"/>
      <line id="Line_195" data-name="Line 195" y2="1.434" transform="translate(109.268 71.168)" fill="none" stroke="#006fbe" stroke-linecap="round" stroke-linejoin="round" stroke-miterlimit="10" stroke-width="4.043"/>
      <line id="Line_196" data-name="Line 196" y2="1.434" transform="translate(93.867 71.168)" fill="none" stroke="#006fbe" stroke-linecap="round" stroke-linejoin="round" stroke-miterlimit="10" stroke-width="4.043"/>
      <g id="Group_582" data-name="Group 582">
        <line id="Line_197" data-name="Line 197" x2="46.187" transform="translate(7.277 91.259)" fill="none" stroke="#006fbe" stroke-linecap="round" stroke-linejoin="round" stroke-miterlimit="10" stroke-width="4.043"/>
        <line id="Line_198" data-name="Line 198" x2="41.919" transform="translate(9.419 109.087)" fill="none" stroke="#006fbe" stroke-linecap="round" stroke-linejoin="round" stroke-miterlimit="10" stroke-width="4.043"/>
      </g>
    </g>
  </g>
</svg>
