<svg xmlns="http://www.w3.org/2000/svg" xmlns:xlink="http://www.w3.org/1999/xlink" width="138" height="138" viewBox="0 0 138 138">
  <defs>
    <clipPath id="clip-path">
      <rect id="Rectangle_743" data-name="Rectangle 743" width="138" height="138" transform="translate(1384 3133)" fill="#006fbe" stroke="#006fbe" stroke-width="1"/>
    </clipPath>
    <clipPath id="clip-path-2">
      <path id="path4221" d="M0-138H138V0H0Z" fill="#006fbe"/>
    </clipPath>
  </defs>
  <g id="Mask_Group_134" data-name="Mask Group 134" transform="translate(-1384 -3133)" clip-path="url(#clip-path)">
    <g id="g4203" transform="translate(1384 3271)">
      <g id="g4205" transform="translate(39.974 -118.039)">
        <path id="path4207" d="M0,0H58.053" fill="none" stroke="#006fbe" stroke-linecap="round" stroke-linejoin="round" stroke-miterlimit="10" stroke-width="4.043"/>
      </g>
      <g id="g4209" transform="translate(83.285 -118.039)">
        <path id="path4211" d="M0,0-7.507,31.385" fill="none" stroke="#006fbe" stroke-linecap="round" stroke-linejoin="round" stroke-miterlimit="10" stroke-width="4.043"/>
      </g>
      <g id="g4213" transform="translate(62.222 -86.655)">
        <path id="path4215" d="M0,0-7.507-31.385" fill="none" stroke="#006fbe" stroke-linecap="round" stroke-linejoin="round" stroke-miterlimit="10" stroke-width="4.043"/>
      </g>
      <g id="g4217">
        <g id="g4219" clip-path="url(#clip-path-2)">
          <g id="g4225" transform="translate(20.29 -97.741)">
            <path id="path4227" d="M0,0-5.33,2.8A1.41,1.41,0,0,1-7.376,1.316l1.018-5.935a1.411,1.411,0,0,0-.405-1.248l-4.312-4.2a1.41,1.41,0,0,1,.781-2.405l5.959-.866a1.409,1.409,0,0,0,1.061-.771l2.665-5.4a1.41,1.41,0,0,1,2.529,0l2.665,5.4a1.41,1.41,0,0,0,1.061.771l5.959.866a1.41,1.41,0,0,1,.781,2.405l-4.312,4.2A1.411,1.411,0,0,0,7.67-4.619L8.688,1.316A1.41,1.41,0,0,1,6.642,2.8L1.312,0A1.41,1.41,0,0,0,0,0Z" fill="none" stroke="#006fbe" stroke-linecap="round" stroke-linejoin="round" stroke-miterlimit="10" stroke-width="4.043"/>
          </g>
          <g id="g4229" transform="translate(116.398 -97.741)">
            <path id="path4231" d="M0,0-5.33,2.8A1.41,1.41,0,0,1-7.376,1.316l1.018-5.935a1.41,1.41,0,0,0-.406-1.248l-4.312-4.2a1.41,1.41,0,0,1,.782-2.405l5.959-.866a1.41,1.41,0,0,0,1.062-.771l2.665-5.4a1.41,1.41,0,0,1,2.528,0l2.665,5.4a1.41,1.41,0,0,0,1.062.771l5.959.866a1.41,1.41,0,0,1,.781,2.405l-4.312,4.2A1.411,1.411,0,0,0,7.67-4.619L8.688,1.316A1.41,1.41,0,0,1,6.643,2.8L1.312,0A1.411,1.411,0,0,0,0,0Z" fill="none" stroke="#006fbe" stroke-linecap="round" stroke-linejoin="round" stroke-miterlimit="10" stroke-width="4.043"/>
          </g>
          <g id="g4233" transform="translate(49.818 -101.438)">
            <path id="path4235" d="M0,0,10.85,14.47" fill="none" stroke="#006fbe" stroke-linecap="round" stroke-linejoin="round" stroke-miterlimit="10" stroke-width="4.043"/>
          </g>
          <g id="g4237" transform="translate(77.507 -87.2)">
            <path id="path4239" d="M0,0,22.026-29.376A2.526,2.526,0,0,0,22.1-32.3L11.779-47.661a2.525,2.525,0,0,0-2.1-1.117H-26.7a2.525,2.525,0,0,0-2.1,1.117L-39.115-32.3a2.526,2.526,0,0,0,.076,2.923l5.8,7.733" fill="none" stroke="#006fbe" stroke-linecap="round" stroke-linejoin="round" stroke-miterlimit="10" stroke-width="4.043"/>
          </g>
          <g id="g4241" transform="translate(66.18 -118.211)">
            <path id="path4243" d="M0,0-16.494-17.5" fill="none" stroke="#006fbe" stroke-linecap="round" stroke-linejoin="round" stroke-miterlimit="10" stroke-width="4.043"/>
          </g>
          <g id="g4245" transform="translate(88.314 -135.711)">
            <path id="path4247" d="M0,0-16.381,17.379" fill="none" stroke="#006fbe" stroke-linecap="round" stroke-linejoin="round" stroke-miterlimit="10" stroke-width="4.043"/>
          </g>
          <g id="g4249" transform="translate(85.726 -24.719)">
            <path id="path4251" d="M0,0H19.829a1.4,1.4,0,0,1,1.4,1.4V9.787a1.4,1.4,0,0,1-1.4,1.4H0a1.4,1.4,0,0,1-1.4-1.4V1.4A1.4,1.4,0,0,1,0,0Z" fill="none" stroke="#006fbe" stroke-linecap="round" stroke-linejoin="round" stroke-miterlimit="10" stroke-width="4.043"/>
          </g>
          <g id="g4253" transform="translate(120.896 -70.53)">
            <path id="path4255" d="M0,0V22.275" fill="none" stroke="#006fbe" stroke-linecap="round" stroke-linejoin="round" stroke-miterlimit="10" stroke-width="4.043"/>
          </g>
          <g id="g4257" transform="translate(120.896 -39.471)">
            <path id="path4259" d="M0,0V30.455a6.994,6.994,0,0,1-6.994,6.994H-96.8a6.994,6.994,0,0,1-6.994-6.994V-31.06" fill="none" stroke="#006fbe" stroke-linecap="round" stroke-linejoin="round" stroke-miterlimit="10" stroke-width="4.043"/>
          </g>
          <g id="g4261" transform="translate(45.651 -85.498)">
            <path id="path4263" d="M0,0H84.479a2.8,2.8,0,0,1,2.8,2.8V12.17a2.8,2.8,0,0,1-2.8,2.8H-37.781a2.8,2.8,0,0,1-2.8-2.8V2.8a2.8,2.8,0,0,1,2.8-2.8H-8.81" fill="none" stroke="#006fbe" stroke-linecap="round" stroke-linejoin="round" stroke-miterlimit="10" stroke-width="4.043"/>
          </g>
        </g>
      </g>
    </g>
  </g>
</svg>
