<svg xmlns="http://www.w3.org/2000/svg" xmlns:xlink="http://www.w3.org/1999/xlink" width="150" height="150" viewBox="0 0 150 150">
  <defs>
    <clipPath id="clip-path">
      <rect id="Rectangle_1164" data-name="Rectangle 1164" width="150" height="150" transform="translate(1298 10215)" fill="#e5e5e5"/>
    </clipPath>
  </defs>
  <g id="Mask_Group_175" data-name="Mask Group 175" transform="translate(-1298 -10215)" clip-path="url(#clip-path)">
    <g id="_247_CS" data-name="247 CS" transform="translate(1284.617 10201.614)">
      <path id="Path_769" data-name="Path 769" d="M142.367,84.491V72.88a54,54,0,0,0-16.3-38.652l.173-.183a5.181,5.181,0,0,0-.382-7.7,60.673,60.673,0,0,0-74.961,0,5.181,5.181,0,0,0-.382,7.7l.178.178a54,54,0,0,0-16.3,38.656V84.494A20.385,20.385,0,0,0,22.2,102.386l0,14.558A20.039,20.039,0,0,0,43,136.624h.264a8.681,8.681,0,0,0,8.852-7.908V90.135a7.9,7.9,0,0,0-8.225-7.821,23.259,23.259,0,0,0-3.976.4V72.88A48.425,48.425,0,0,1,54.667,38.165a5.178,5.178,0,0,0,6.828.191,42.093,42.093,0,0,1,53.747-.022,5.217,5.217,0,0,0,6.832-.192,48.425,48.425,0,0,1,14.77,34.737v9.836a23.268,23.268,0,0,0-3.97-.4,7.9,7.9,0,0,0-8.225,7.78v38.658a8.678,8.678,0,0,0,8.852,7.869h.264c.336,0,.667-.033,1-.048a28.433,28.433,0,0,1-19.336,15.154,8.286,8.286,0,0,0-7.553-4.915H91.3c-10.948,0-10.954,16.572,0,16.572h16.572a8.272,8.272,0,0,0,7.936-6.037,34.318,34.318,0,0,0,25.561-22.082,19.253,19.253,0,0,0,13.188-18.284l0-14.637a20.361,20.361,0,0,0-12.2-17.856ZM43.958,87.839h.036a2.4,2.4,0,0,1,2.6,2.256v38.58c-.015,1.052-1.614,2.4-3.393,2.423a14.548,14.548,0,0,1-15.473-14.115l0-14.558c.113-7.939,7.394-14.483,16.232-14.587ZM118.535,33.9a47.6,47.6,0,0,0-60.333.02l-3.593-3.459A55.165,55.165,0,0,1,122.08,30.4C120.457,32.02,119.9,32.591,118.535,33.9ZM107.876,157.862H91.3a2.762,2.762,0,1,1,0-5.524h16.572a2.762,2.762,0,1,1,0,5.524Zm41.161-40.839A14.548,14.548,0,0,1,133.565,131.1c-1.779-.02-3.378-1.372-3.393-2.384V90.054a2.409,2.409,0,0,1,2.6-2.216h.036c8.838.1,16.119,6.647,16.232,14.548Z" fill="#006fbe"/>
      <path id="Path_770" data-name="Path 770" d="M85.2,81.906H66.555a2.764,2.764,0,0,1-1.239-5.23c8.657-4.349,17.061-11.411,15.053-16.641-1.763-4.591-9.2-3.419-11.525.226a2.762,2.762,0,1,1-4.656-2.975c4.671-7.308,17.842-8.334,21.338.769,2.813,7.33-3.149,13.881-9.163,18.328h8.828a2.762,2.762,0,1,1,.005,5.524Z" fill="#006fbe"/>
      <path id="Path_771" data-name="Path 771" d="M104.338,79.145V72.652H92.427A2.764,2.764,0,0,1,90.414,68l14.673-15.6a2.764,2.764,0,0,1,4.774,1.892v12.84h.69a2.762,2.762,0,0,1,0,5.524h-.69v6.494a2.762,2.762,0,0,1-5.524,0ZM98.815,67.128h5.523V61.256Z" fill="#006fbe"/>
      <path id="Path_772" data-name="Path 772" d="M112.106,91.574H64.979a2.762,2.762,0,1,1,0-5.524h47.126a2.762,2.762,0,0,1,0,5.524Z" fill="#006fbe"/>
      <path id="Path_773" data-name="Path 773" d="M81.257,122.013,92.6,101.241H79.134a2.762,2.762,0,1,1,0-5.524H97.26A2.764,2.764,0,0,1,99.683,99.8L86.1,124.661a2.762,2.762,0,1,1-4.847-2.649Z" fill="#006fbe"/>
    </g>
  </g>
</svg>
