<svg xmlns="http://www.w3.org/2000/svg" xmlns:xlink="http://www.w3.org/1999/xlink" width="100" height="100" viewBox="0 0 100 100">
  <defs>
    <clipPath id="clip-path">
      <rect id="Rectangle_253" data-name="Rectangle 253" width="100" height="100" transform="translate(280 2595)" fill="#0092e0" stroke="#707070" stroke-width="1"/>
    </clipPath>
  </defs>
  <g id="Mask_Group_64" data-name="Mask Group 64" transform="translate(-280 -2595)" clip-path="url(#clip-path)">
    <g id="strategic-consulting_17326416" transform="translate(272.857 2587.857)">
      <path id="Path_333" data-name="Path 333" d="M35.714,50A28.243,28.243,0,0,0,18.4,55.868,1.786,1.786,0,1,0,20.568,58.7a24.7,24.7,0,0,1,15.146-5.132,25,25,0,1,1-25,25,24.7,24.7,0,0,1,5.132-15.146,1.786,1.786,0,1,0-2.836-2.171A28.243,28.243,0,0,0,7.143,78.571,28.571,28.571,0,1,0,35.714,50Z" fill="#0092e0"/>
      <path id="Path_334" data-name="Path 334" d="M35.714,80.218A11.538,11.538,0,1,0,24.177,68.681,11.538,11.538,0,0,0,35.714,80.218Zm0-19.5a7.966,7.966,0,1,1-7.966,7.966A7.966,7.966,0,0,1,35.714,60.714Z" fill="#0092e0"/>
      <path id="Path_335" data-name="Path 335" d="M16.095,85.705a1.785,1.785,0,0,0-.01,1.468,21.422,21.422,0,0,0,39.249,0,1.788,1.788,0,0,0-.011-1.467,11.294,11.294,0,0,0-7.929-6,1.781,1.781,0,0,0-1.748.351,15.067,15.067,0,0,1-19.856,0c-.953-1-2.731.054-3.774.33a10.138,10.138,0,0,0-5.92,5.319Zm19.622,1.657A18.6,18.6,0,0,0,47.2,83.408,7.253,7.253,0,0,1,51.7,86.5a17.911,17.911,0,0,1-31.99,0,7.3,7.3,0,0,1,4.521-3.1,18.6,18.6,0,0,0,11.481,3.954Z" fill="#0092e0"/>
      <path id="Path_336" data-name="Path 336" d="M66.071,44.643h7.143A1.786,1.786,0,0,0,75,42.857V26.786A1.786,1.786,0,0,0,73.214,25H66.071a1.786,1.786,0,0,0-1.786,1.786V42.857A1.786,1.786,0,0,0,66.071,44.643Zm1.786-16.071h3.571v12.5H67.857Z" fill="#0092e0"/>
      <path id="Path_337" data-name="Path 337" d="M80.357,44.643H87.5a1.786,1.786,0,0,0,1.786-1.786V19.643A1.786,1.786,0,0,0,87.5,17.857H80.357a1.786,1.786,0,0,0-1.786,1.786V42.857A1.786,1.786,0,0,0,80.357,44.643Zm1.786-23.214h3.571V41.071H82.143Z" fill="#0092e0"/>
      <path id="Path_338" data-name="Path 338" d="M94.643,44.643h7.143a1.786,1.786,0,0,0,1.786-1.786V12.5a1.786,1.786,0,0,0-1.786-1.786H94.643A1.786,1.786,0,0,0,92.857,12.5V42.857A1.786,1.786,0,0,0,94.643,44.643Zm1.786-30.357H100V41.071H96.428Z" fill="#0092e0"/>
      <path id="Path_339" data-name="Path 339" d="M105.357,48.214H60.714V8.929a1.786,1.786,0,1,0-3.571,0V50a1.786,1.786,0,0,0,1.786,1.786h46.429a1.786,1.786,0,1,0,0-3.571Z" fill="#0092e0"/>
      <path id="Path_340" data-name="Path 340" d="M14.378,53.809a1.958,1.958,0,0,0,.214.012,1.786,1.786,0,0,0,1.771-1.575A40.936,40.936,0,0,1,52.007,16.4a1.786,1.786,0,0,0-.443-3.544A44.5,44.5,0,0,0,12.816,51.825,1.787,1.787,0,0,0,14.378,53.809Z" fill="#0092e0"/>
      <path id="Path_341" data-name="Path 341" d="M100,55.357a1.786,1.786,0,0,0-1.786,1.786,41.073,41.073,0,0,1-36.176,40.78,1.786,1.786,0,0,0,.209,3.559,1.961,1.961,0,0,0,.214-.012,44.647,44.647,0,0,0,39.325-44.327A1.786,1.786,0,0,0,100,55.357Z" fill="#0092e0"/>
    </g>
  </g>
</svg>
