<svg xmlns="http://www.w3.org/2000/svg" xmlns:xlink="http://www.w3.org/1999/xlink" width="100" height="100" viewBox="0 0 100 100">
  <defs>
    <clipPath id="clip-path">
      <rect id="Rectangle_255" data-name="Rectangle 255" width="100" height="100" transform="translate(832 2595)" fill="#0092e0" stroke="#707070" stroke-width="1"/>
    </clipPath>
  </defs>
  <g id="Mask_Group_62" data-name="Mask Group 62" transform="translate(-832 -2595)" clip-path="url(#clip-path)">
    <g id="Layer_x0020_1" transform="translate(832 2595.029)">
      <path id="Path_332" data-name="Path 332" d="M44.347,22.964c-.762,0-2.636-1.23-3.281-1.582L38.43,22.789A1.313,1.313,0,0,1,36.5,21.383l.527-2.929L34.856,16.4a1.331,1.331,0,0,1,.762-2.285l2.929-.41,1.289-2.695a1.339,1.339,0,0,1,2.4,0l1.289,2.695,2.988.41a1.317,1.317,0,0,1,.7,2.285l-2.168,2.05.586,2.929A1.381,1.381,0,0,1,44.347,22.964Zm46.632,59.11V35.618A18.757,18.757,0,0,0,86.292,23.14V65.261a9.426,9.426,0,0,1-9.432,9.432H23.14a9.426,9.426,0,0,1-9.432-9.432V23.14A18.813,18.813,0,0,0,8.963,35.618V82.074ZM86.292,19.391a21.67,21.67,0,0,1,7.381,16.227V82.074h3.515A2.8,2.8,0,0,1,100,84.827,13.013,13.013,0,0,1,86.995,97.832H13.005A13.013,13.013,0,0,1,0,84.827a2.763,2.763,0,0,1,2.812-2.753H6.327V35.618a21.67,21.67,0,0,1,7.381-16.227V11.6a9.476,9.476,0,0,1,9.432-9.49H76.86a9.476,9.476,0,0,1,9.432,9.49ZM2.812,84.71c-.059,0-.176.059-.176.117A10.388,10.388,0,0,0,13.005,95.2H86.936A10.351,10.351,0,0,0,97.305,84.827a.126.126,0,0,0-.117-.117Zm53.427,6.561H43.761a1.318,1.318,0,0,1,0-2.636H56.239A1.319,1.319,0,0,1,56.239,91.271ZM23.14,4.8a6.8,6.8,0,0,0-6.8,6.8V65.261a6.8,6.8,0,0,0,6.8,6.8H76.86a6.838,6.838,0,0,0,6.8-6.8V11.6a6.838,6.838,0,0,0-6.8-6.8ZM67.6,70.533H32.337c-1.757,0-1.289-2.4-1.289-4.394,0-6.268,4.335-11.248,11.6-13.357l1.816-3.163c-3.984-3.163-3.4-7.323-3.339-12.068a8.875,8.875,0,1,1,17.75.117c-.117,4.628.762,8.67-3.4,11.951l1.875,3.163c7.264,2.109,11.6,7.088,11.6,13.357C68.951,68.131,69.42,70.533,67.6,70.533ZM45.226,53.72a7.508,7.508,0,0,0,9.549,0l-1.582-2.753a9.209,9.209,0,0,1-6.385,0ZM33.685,67.9H37.61V60.984a1.348,1.348,0,0,1,2.695,0V67.9h8.377V58a9.833,9.833,0,0,1-5.507-2.578c-3.339,1-9.49,3.808-9.49,10.721Zm17.633,0H59.7V60.984a1.318,1.318,0,1,1,2.636,0V67.9h3.984V66.139c0-6.913-6.151-9.725-9.49-10.721A9.833,9.833,0,0,1,51.318,58ZM49.971,31.4a6.277,6.277,0,0,0-5.682,3.691,15.1,15.1,0,0,1,11.482.176A6.228,6.228,0,0,0,49.971,31.4Zm-6.21,6.913c0,3.925-.644,7.44,3.222,9.842a6.461,6.461,0,0,0,2.988.762,6.275,6.275,0,0,0,6.268-6.268V38.371C50.029,35.149,45.284,37.434,43.761,38.313ZM64.148,26.128h-28.3a9.52,9.52,0,0,1,0-19.039h28.3a9.52,9.52,0,0,1,0,19.039ZM35.852,9.783a6.825,6.825,0,1,0,0,13.65h28.3a6.825,6.825,0,1,0,0-13.65ZM62.214,22.964c-.7,0-2.578-1.23-3.281-1.582L56.3,22.789a1.323,1.323,0,0,1-1.933-1.406l.586-2.929L52.724,16.4a1.331,1.331,0,0,1,.762-2.285l2.988-.41,1.23-2.695a1.387,1.387,0,0,1,2.46,0l1.23,2.695,2.988.41a1.331,1.331,0,0,1,.762,2.285l-2.226,2.05.586,2.929A1.317,1.317,0,0,1,62.214,22.964Zm-3.281-4.452a3.008,3.008,0,0,1,1.406.586c-.293-1.465-.234-1.64.879-2.695-1.465-.176-1.64-.293-2.285-1.7-.644,1.406-.82,1.523-2.285,1.7,1.113,1.054,1.172,1.23.879,2.695A3.008,3.008,0,0,1,58.934,18.512Zm-17.868,0a3.008,3.008,0,0,1,1.406.586c-.293-1.465-.234-1.64.879-2.695-1.523-.176-1.64-.293-2.285-1.7-.644,1.406-.82,1.523-2.343,1.7,1.113,1.054,1.172,1.23.879,2.695A3.51,3.51,0,0,1,41.066,18.512Z" fill="#0092e0" fill-rule="evenodd"/>
    </g>
  </g>
</svg>
