<svg xmlns="http://www.w3.org/2000/svg" xmlns:xlink="http://www.w3.org/1999/xlink" width="100" height="100" viewBox="0 0 100 100">
  <defs>
    <clipPath id="clip-path">
      <rect id="Rectangle_257" data-name="Rectangle 257" width="100" height="100" transform="translate(1384 2595)" fill="#0092e0" stroke="#707070" stroke-width="1"/>
    </clipPath>
  </defs>
  <g id="Mask_Group_60" data-name="Mask Group 60" transform="translate(-1384 -2595)" clip-path="url(#clip-path)">
    <path id="product-management_5576787" d="M102.979,44.1h-10.3a39.379,39.379,0,0,0-3.859-9.321L96.1,27.5a1.489,1.489,0,0,0,0-2.106L83.546,12.835a1.532,1.532,0,0,0-2.106,0l-7.283,7.284a39.379,39.379,0,0,0-9.321-3.859V5.957a1.489,1.489,0,0,0-1.489-1.489H45.59A1.489,1.489,0,0,0,44.1,5.957v10.3a39.309,39.309,0,0,0-9.32,3.859L27.5,12.835a1.489,1.489,0,0,0-2.106,0L12.835,25.391a1.489,1.489,0,0,0,0,2.106l7.283,7.283A39.319,39.319,0,0,0,16.26,44.1H5.957A1.49,1.49,0,0,0,4.468,45.59V63.346a1.49,1.49,0,0,0,1.489,1.489h10.3a39.319,39.319,0,0,0,3.858,9.321l-7.283,7.283a1.489,1.489,0,0,0,0,2.106L25.391,96.1a1.532,1.532,0,0,0,2.106,0l7.283-7.284a39.309,39.309,0,0,0,9.32,3.859v10.3a1.489,1.489,0,0,0,1.489,1.489h57.389a1.488,1.488,0,0,0,1.489-1.489V45.59A1.489,1.489,0,0,0,102.979,44.1Zm-30.006,14h-18.5a1.489,1.489,0,0,0-1.489,1.489V73.259A18.833,18.833,0,1,1,72.973,58.1ZM55.957,61.077H71.715v8.015H55.957Zm18.736,0h8.06v16.9L79.774,75a1.488,1.488,0,0,0-2.106,0L74.69,77.98Zm11.038,0h15.757v8.015H85.732Zm-39.8,28.991a36.351,36.351,0,0,1-10.611-4.392,1.491,1.491,0,0,0-1.833.216l-7.049,7.049L15.994,82.493l7.049-7.049a1.49,1.49,0,0,0,.215-1.833A36.354,36.354,0,0,1,18.867,63a1.489,1.489,0,0,0-1.447-1.143H7.447V47.079h9.972a1.489,1.489,0,0,0,1.447-1.143,36.354,36.354,0,0,1,4.391-10.611,1.49,1.49,0,0,0-.215-1.833l-7.049-7.049L26.443,15.994l7.049,7.049a1.49,1.49,0,0,0,1.833.216,36.351,36.351,0,0,1,10.611-4.392,1.49,1.49,0,0,0,1.143-1.447V7.447H61.857v9.972A1.49,1.49,0,0,0,63,18.866,36.34,36.34,0,0,1,73.61,23.26a1.49,1.49,0,0,0,1.833-.216l7.049-7.049L92.942,26.443l-7.049,7.049a1.491,1.491,0,0,0-.216,1.834,36.34,36.34,0,0,1,4.392,10.61,1.489,1.489,0,0,0,1.447,1.143h9.974V58.1h-25.5A21.831,21.831,0,1,0,52.979,76.245v25.244h-5.9V91.517a1.49,1.49,0,0,0-1.143-1.449Zm10.021,11.42V72.071H71.715v9.5a1.489,1.489,0,0,0,2.542,1.053l4.466-4.466,4.466,4.466a1.489,1.489,0,0,0,2.542-1.053v-9.5h15.757v29.418Z" transform="translate(1379.532 2590.532)" fill="#0092e0"/>
  </g>
</svg>
