<svg xmlns="http://www.w3.org/2000/svg" xmlns:xlink="http://www.w3.org/1999/xlink" width="100" height="100" viewBox="0 0 100 100">
  <defs>
    <clipPath id="clip-path">
      <rect id="Rectangle_254" data-name="Rectangle 254" width="100" height="100" transform="translate(556 2595)" fill="#0092e0" stroke="#707070" stroke-width="1"/>
    </clipPath>
  </defs>
  <g id="Mask_Group_63" data-name="Mask Group 63" transform="translate(-556 -2595)" clip-path="url(#clip-path)">
    <path id="revenue-growth_17311426" d="M57.5,84.584H47.95a1.417,1.417,0,0,1-1.417-1.417V41.137A1.417,1.417,0,0,1,47.95,39.72H59.322a1.417,1.417,0,0,1,1.417,1.417v13.7a3,3,0,0,1,3.256.656,3.894,3.894,0,0,0,5,.455V30.631a1.417,1.417,0,0,1,1.417-1.417H81.781A1.417,1.417,0,0,1,83.2,30.631V55.945a3.894,3.894,0,0,0,5-.455,3,3,0,0,1,4.245,0L95.849,58.9a3,3,0,0,1,0,4.242,3.921,3.921,0,0,0,2.771,6.69,3,3,0,0,1,3,3v4.821a3,3,0,0,1-3,3,3.921,3.921,0,0,0-2.771,6.69,3.005,3.005,0,0,1,0,4.245L92.44,95A3,3,0,0,1,88.2,95a3.921,3.921,0,0,0-6.69,2.771,3,3,0,0,1-3,3H73.685a3,3,0,0,1-3-3A3.919,3.919,0,0,0,63.995,95a3,3,0,0,1-4.242,0l-3.412-3.409a3,3,0,0,1,0-4.245,3.833,3.833,0,0,0,1.154-2.76Zm.41-27.246V42.554H49.367v39.2H56.3a3.833,3.833,0,0,0-2.727-1.1,3,3,0,0,1-3-3V72.833a3,3,0,0,1,3-3,3.92,3.92,0,0,0,2.771-6.69,3,3,0,0,1,0-4.242Zm13.921-6.973a2.987,2.987,0,0,1,1.859-.645h4.821a2.987,2.987,0,0,1,1.859.645V32.048H71.826ZM98.619,77.82a.166.166,0,0,0,.166-.166V72.833a.166.166,0,0,0-.166-.166,6.756,6.756,0,0,1-4.775-11.528.166.166,0,0,0,0-.234l-3.408-3.411a.168.168,0,0,0-.237,0,6.756,6.756,0,0,1-11.528-4.775.166.166,0,0,0-.166-.166H73.685a.166.166,0,0,0-.166.166,6.756,6.756,0,0,1-11.528,4.775.166.166,0,0,0-.234,0l-3.411,3.411a.165.165,0,0,0,0,.234,6.756,6.756,0,0,1-4.775,11.528.166.166,0,0,0-.166.166v4.821a.166.166,0,0,0,.166.166,6.756,6.756,0,0,1,4.775,11.528.168.168,0,0,0,0,.237l3.411,3.408a.165.165,0,0,0,.234,0,6.754,6.754,0,0,1,11.528,4.775.166.166,0,0,0,.166.166h4.821a.166.166,0,0,0,.166-.166A6.756,6.756,0,0,1,90.2,92.993a.168.168,0,0,0,.237,0l3.408-3.408a.168.168,0,0,0,0-.237A6.756,6.756,0,0,1,98.619,77.82ZM76.1,60.953A14.291,14.291,0,1,1,61.8,75.244,14.292,14.292,0,0,1,76.1,60.953Zm0,2.834A11.457,11.457,0,1,0,87.552,75.244,11.457,11.457,0,0,0,76.1,63.787Zm-1.443,4.652-.012-.505a1.417,1.417,0,0,1,2.833-.069l.015.6a6.513,6.513,0,0,1,1.127.461,4.042,4.042,0,0,1,1.473,1.243,1.417,1.417,0,0,1-2.368,1.557,1.163,1.163,0,0,0-.429-.294,2.938,2.938,0,0,0-1.2-.373,1.443,1.443,0,1,0,0,2.819,4.426,4.426,0,0,1,4.583,4.244,4.3,4.3,0,0,1-3.138,4.029l.01.4a1.417,1.417,0,1,1-2.833.069l-.011-.432a5.387,5.387,0,0,1-2.231-1.424A1.417,1.417,0,1,1,74.418,78.7a2.228,2.228,0,0,0,1.677.829,1.443,1.443,0,1,0,0-2.819,4.426,4.426,0,0,1-4.583-4.244,4.3,4.3,0,0,1,3.14-4.03ZM79.11,8.8,4.207,54.255a1.417,1.417,0,1,1-1.47-2.423l75-45.514L73.632,5.261a1.417,1.417,0,0,1,.707-2.745l7.365,1.9a1.417,1.417,0,0,1,1.019,1.725q-.949,3.689-1.9,7.368a1.417,1.417,0,1,1-2.743-.712Q78.6,10.8,79.11,8.8ZM3.036,60.723H14.409a1.417,1.417,0,0,1,1.417,1.417V83.167a1.417,1.417,0,0,1-1.417,1.417H3.036a1.417,1.417,0,0,1-1.417-1.417V62.14A1.417,1.417,0,0,1,3.036,60.723Zm1.417,2.834V81.75h8.538V63.557ZM25.5,50.222H36.868a1.417,1.417,0,0,1,1.417,1.417V83.167a1.417,1.417,0,0,1-1.417,1.417H25.5a1.417,1.417,0,0,1-1.417-1.417V51.639A1.417,1.417,0,0,1,25.5,50.222Zm1.417,2.834V81.75h8.538V53.056Z" transform="translate(554.38 2593.381)" fill="#0092e0" fill-rule="evenodd"/>
  </g>
</svg>
