<svg xmlns="http://www.w3.org/2000/svg" xmlns:xlink="http://www.w3.org/1999/xlink" width="120" height="120" viewBox="0 0 120 120">
  <defs>
    <clipPath id="clip-path">
      <rect id="Rectangle_1024" data-name="Rectangle 1024" width="120" height="120" transform="translate(937 3605)" fill="#fff" stroke="#707070" stroke-width="1"/>
    </clipPath>
  </defs>
  <g id="Mask_Group_169" data-name="Mask Group 169" transform="translate(-937 -3605)" clip-path="url(#clip-path)">
    <path id="ai_17852668" d="M113.432,55.732,89.762,54c-.037,0-.072,0-.11,0a1.647,1.647,0,0,1-.939-.329L68.252,40.849a6.12,6.12,0,0,0-3.388-1.061H62.172v-5.7H72.529a1.486,1.486,0,0,0,1.056-.438l4.4-4.4a5.814,5.814,0,1,0-2.146-2.079L71.909,31.1H60.676a1.5,1.5,0,0,0-1.494,1.494v7.195H53.277V23.912l7.267-1.947a5.8,5.8,0,1,0-1.287-3.64,5.651,5.651,0,0,0,.067.876L51.4,21.326a1.5,1.5,0,0,0-1.108,1.444V39.8H44.387V18.54a5.8,5.8,0,1,0-2.983,0V39.793H35.5V30.131a1.5,1.5,0,0,0-1.093-1.439l-6.67-1.857a5.808,5.808,0,1,0-.2,3.047l4.972,1.384v8.527H29.82a5.78,5.78,0,0,0-4.568,2.139l-6.938,8.313a2.792,2.792,0,0,1-1.6.986l-9.53,2.228a4.445,4.445,0,0,0-3.448,4.347V70.632A4.407,4.407,0,0,0,7.1,74.959c2.467.627,5.009,1.215,7.571,1.755q-.022.366-.022.739a12.673,12.673,0,0,0,25.02,2.853l5.2.055V93.376H34.506a1.486,1.486,0,0,0-1.056.438l-4.4,4.4A5.814,5.814,0,1,0,31.2,100.29l3.926-3.926H46.358a1.5,1.5,0,0,0,1.494-1.494V80.393l5.905.062v23.1L46.49,105.5a5.8,5.8,0,1,0,1.287,3.64,5.65,5.65,0,0,0-.067-.876l7.924-2.124a1.5,1.5,0,0,0,1.108-1.444V80.488l5.905.062v28.376a5.8,5.8,0,1,0,2.987,0V80.583l5.905.062v16.69a1.5,1.5,0,0,0,1.093,1.439l6.67,1.857a5.81,5.81,0,1,0,.2-3.045L74.528,96.2V80.68l5.009.055A12.673,12.673,0,0,0,104.43,78.17l16.722-.667a1.777,1.777,0,0,0,.281-.037,2.968,2.968,0,0,0,2.3-2.9V66.143c0-5.509-4.429-9.981-10.3-10.411ZM80.812,21.373A2.816,2.816,0,1,1,78,24.189,2.819,2.819,0,0,1,80.812,21.373ZM65.065,15.508a2.816,2.816,0,1,1-2.816,2.816,2.819,2.819,0,0,1,2.816-2.816ZM40.082,12.933A2.816,2.816,0,1,1,42.9,15.749,2.819,2.819,0,0,1,40.082,12.933ZM22.05,30.818A2.816,2.816,0,1,1,24.866,28,2.819,2.819,0,0,1,22.05,30.818Zm4.175,75.275a2.816,2.816,0,1,1,2.816-2.816A2.819,2.819,0,0,1,26.225,106.093Zm15.747,5.865a2.816,2.816,0,1,1,2.816-2.816A2.819,2.819,0,0,1,41.972,111.959Zm24.985,2.574a2.816,2.816,0,1,1-2.816-2.816A2.819,2.819,0,0,1,66.957,114.533ZM84.987,96.648a2.816,2.816,0,1,1-2.816,2.816A2.819,2.819,0,0,1,84.987,96.648Zm-57.666-9.51a9.687,9.687,0,1,1,9.687-9.687A9.7,9.7,0,0,1,27.321,87.138Zm64.455,0a9.687,9.687,0,1,1,9.687-9.687A9.7,9.7,0,0,1,91.776,87.138Zm12.468-11.952A12.673,12.673,0,0,0,79.1,77.453c0,.1,0,.192.007.289L39.99,77.321a12.671,12.671,0,0,0-24.8-3.55c-2.49-.525-4.959-1.1-7.359-1.708a1.442,1.442,0,0,1-1.113-1.432V57.805a1.452,1.452,0,0,1,1.14-1.439l9.53-2.228a5.76,5.76,0,0,0,3.214-1.982l6.938-8.313a2.842,2.842,0,0,1,2.275-1.066H64.866a3.252,3.252,0,0,1,1.8.6L87.13,56.2a4.7,4.7,0,0,0,2.462.784l23.621,1.725c4.295.314,7.531,3.505,7.531,7.424l.007,8.39Z" transform="translate(933.266 3601.267)" fill="#006fbe"/>
  </g>
</svg>
