<svg xmlns="http://www.w3.org/2000/svg" xmlns:xlink="http://www.w3.org/1999/xlink" width="120" height="120" viewBox="0 0 120 120">
  <defs>
    <clipPath id="clip-path">
      <rect id="Rectangle_1022" data-name="Rectangle 1022" width="120" height="120" transform="translate(280 3605)" fill="#fff" stroke="#707070" stroke-width="1"/>
    </clipPath>
  </defs>
  <g id="Mask_Group_167" data-name="Mask Group 167" transform="translate(-280 -3605)" clip-path="url(#clip-path)">
    <path id="manufacturing_12539875" d="M115.793,75.7a5.508,5.508,0,0,0,0-10.99H110.6V44.946a1.666,1.666,0,0,0-1.666-1.666H87.509a1.666,1.666,0,0,0-1.666,1.666V64.705H80.371V44.946A1.666,1.666,0,0,0,78.7,43.28H57.28a1.666,1.666,0,0,0-1.666,1.666V64.705H48.871V63.122a4.922,4.922,0,0,0-4.393-4.887L42.842,41.427a10.471,10.471,0,0,0,1.966-5.114l18.14-19.821a7.672,7.672,0,0,0,1.211-.174l8.479,3.854c.01.039.018.077.028.116A6.932,6.932,0,0,0,80.725,25.3a14.749,14.749,0,0,0,22.251,14.95,1.666,1.666,0,0,0-.035-2.865L91.914,31.024v-5.3L96.5,23.08l11.027,6.366a1.666,1.666,0,0,0,2.5-1.4,14.756,14.756,0,0,0-24.08-11.8,6.929,6.929,0,0,0-8.479-4.432L69.888,6.4A7.827,7.827,0,0,0,69.2,4.841,7.775,7.775,0,0,0,54.961,6.716a7.9,7.9,0,0,0-.213,1.1l-20.782,16.9a10.5,10.5,0,0,0-8.09,16.707L24.241,58.235a4.922,4.922,0,0,0-4.393,4.887V64.7H15.786a6.745,6.745,0,0,0-6.738,6.737v9.014L5.715,83.789a2.678,2.678,0,0,0-.33,3.378l1.159,1.728L5.126,92.319l-2.041.4A2.678,2.678,0,0,0,.929,95.342v5.4a2.677,2.677,0,0,0,2.155,2.621l2.041.4,1.418,3.424-1.159,1.728a2.677,2.677,0,0,0,.33,3.377l3.822,3.822a2.678,2.678,0,0,0,3.377.329l1.728-1.159,3.423,1.418.4,2.041a2.678,2.678,0,0,0,2.621,2.155h5.4a2.678,2.678,0,0,0,2.621-2.155l.4-2.041,3.424-1.418,1.728,1.159a2.678,2.678,0,0,0,3.378-.329l1.644-1.644h62.1a16.433,16.433,0,1,0,0-32.866H53.231V75.695h62.562Zm1.8-5.5a2.036,2.036,0,0,1-1.8,2.163H53.231V68.037h62.562A2.035,2.035,0,0,1,117.6,70.2ZM96.21,46.612h4.022V50.2H96.21Zm-7.035,0h3.7v5.257a1.666,1.666,0,0,0,1.666,1.666H101.9a1.666,1.666,0,0,0,1.666-1.666V46.612h3.7V64.705H89.175Zm-23.194,0H70V50.2H65.981Zm-7.035,0h3.7v5.257a1.666,1.666,0,0,0,1.666,1.666h7.354a1.666,1.666,0,0,0,1.666-1.666V46.612h3.7V64.705H58.946Zm-24.587-.888a10.511,10.511,0,0,0,5.408-1.493l1.36,13.975H27.591l1.36-13.975a10.513,10.513,0,0,0,5.408,1.493ZM55.737,12.616a7.716,7.716,0,0,0,3.379,3.127L44.33,31.9a10.494,10.494,0,0,0-6.015-6.422L55.28,11.684a7.881,7.881,0,0,0,.458.933ZM69.98,10.741c.014-.052.025-.1.038-.156l4.339,3.1a6.928,6.928,0,0,0-1,1.328,7,7,0,0,0-.654,1.527l-4.849-2.2a7.726,7.726,0,0,0,2.124-3.6Zm22.345,5.9A11.483,11.483,0,0,1,95.3,16.25a11.433,11.433,0,0,1,11.064,8.676l-9.029-5.213a1.667,1.667,0,0,0-1.666,0l-6.253,3.61a1.666,1.666,0,0,0-.833,1.443v7.22a1.666,1.666,0,0,0,.833,1.443l9.029,5.213a11.417,11.417,0,1,1-6.119-22ZM81.184,15.359a3.62,3.62,0,0,1,1.325,4.936l0,0,0,0a3.615,3.615,0,1,1-1.321-4.941Zm-23-7.779a4.448,4.448,0,0,1,4.284-3.295,4.466,4.466,0,0,1,1.157.153,4.443,4.443,0,1,1-5.441,3.141ZM29.282,30.14a7.18,7.18,0,1,1,0,10.154,7.158,7.158,0,0,1,0-10.154Zm-6.1,32.982a1.585,1.585,0,0,1,1.583-1.583H43.955a1.585,1.585,0,0,1,1.583,1.583v1.583H23.18V63.122Zm12.9,50.26-2.019-1.354a1.665,1.665,0,0,0-1.566-.155l-5.072,2.1a1.666,1.666,0,0,0-1,1.217l-.47,2.384H21.632l-.47-2.384a1.667,1.667,0,0,0-1-1.217l-5.072-2.1a1.665,1.665,0,0,0-1.565.155l-2.019,1.354-3.054-3.054,1.354-2.018a1.665,1.665,0,0,0,.155-1.566l-2.1-5.072a1.665,1.665,0,0,0-1.217-1l-2.384-.47V95.886l2.384-.47a1.666,1.666,0,0,0,1.217-1l2.1-5.072a1.667,1.667,0,0,0-.155-1.566L8.454,85.762l3.054-3.054,2.019,1.354a1.665,1.665,0,0,0,1.565.155l5.072-2.1a1.666,1.666,0,0,0,1-1.217l.47-2.384h4.319l.47,2.384a1.666,1.666,0,0,0,1,1.217l5.072,2.1a1.666,1.666,0,0,0,1.565-.155l2.019-1.354,3.054,3.054-1.354,2.018a1.665,1.665,0,0,0-.155,1.566l2.1,5.072a1.665,1.665,0,0,0,1.217,1l2.384.47V100.2l-2.384.47a1.666,1.666,0,0,0-1.217,1l-2.1,5.072a1.667,1.667,0,0,0,.155,1.566l1.354,2.018-3.054,3.054Zm78.816-15.337a13.116,13.116,0,0,1-13.1,13.1H42.545a2.674,2.674,0,0,0-.347-2.223L41.039,107.2l1.418-3.424,2.041-.4a2.678,2.678,0,0,0,2.155-2.622v-5.4A2.678,2.678,0,0,0,44.5,92.722l-2.041-.4L41.039,88.9,42.2,87.167a2.674,2.674,0,0,0,.347-2.223H101.79a13.116,13.116,0,0,1,13.1,13.1Zm-75.2-16.433-1.644-1.644a2.678,2.678,0,0,0-3.377-.33L32.941,80.8l-3.423-1.418-.4-2.041a2.678,2.678,0,0,0-2.621-2.155h-5.4a2.678,2.678,0,0,0-2.621,2.155l-.4,2.041L14.642,80.8l-1.729-1.159a2.641,2.641,0,0,0-.533-.273V71.443a3.409,3.409,0,0,1,3.406-3.405H49.9V81.612H39.691Zm-15.9,3.9A12.536,12.536,0,1,0,36.327,98.045,12.55,12.55,0,0,0,23.791,85.509Zm0,21.74a9.2,9.2,0,1,1,9.2-9.2,9.214,9.214,0,0,1-9.2,9.2Zm78-.066a9.138,9.138,0,1,0-9.138-9.138A9.149,9.149,0,0,0,101.79,107.183Zm0-14.944a5.806,5.806,0,1,1-5.806,5.806A5.813,5.813,0,0,1,101.79,92.239ZM69.733,107.183a9.138,9.138,0,1,0-9.138-9.138A9.149,9.149,0,0,0,69.733,107.183Zm0-14.944a5.806,5.806,0,1,1-5.806,5.806A5.813,5.813,0,0,1,69.733,92.239ZM86.75,91.181a1.666,1.666,0,0,1,1.666-1.666h2.64a1.666,1.666,0,0,1,0,3.332h-2.64A1.666,1.666,0,0,1,86.75,91.181Zm-7.95,0a1.666,1.666,0,0,1,1.666-1.666h2.64a1.666,1.666,0,0,1,0,3.332h-2.64A1.666,1.666,0,0,1,78.8,91.181Zm7.95,13.729a1.666,1.666,0,0,1,1.666-1.666h2.64a1.666,1.666,0,0,1,0,3.332h-2.64A1.666,1.666,0,0,1,86.75,104.91Zm-1.978,0a1.666,1.666,0,0,1-1.666,1.666h-2.64a1.666,1.666,0,1,1,0-3.332h2.64A1.666,1.666,0,0,1,84.772,104.91Zm-38.029,0a1.666,1.666,0,0,1,1.666-1.666h2.64a1.666,1.666,0,1,1,0,3.332H48.41A1.666,1.666,0,0,1,46.743,104.91Zm7.95-13.729a1.666,1.666,0,0,1,1.666-1.666H59a1.666,1.666,0,1,1,0,3.332H56.36A1.666,1.666,0,0,1,54.694,91.181Zm-7.95,0a1.666,1.666,0,0,1,1.666-1.666h2.64a1.666,1.666,0,0,1,0,3.332H48.41A1.666,1.666,0,0,1,46.743,91.181Zm7.95,13.729a1.666,1.666,0,0,1,1.666-1.666H59a1.666,1.666,0,1,1,0,3.332H56.36A1.666,1.666,0,0,1,54.694,104.91ZM32.5,37.075a2.627,2.627,0,1,1,3.715,0,2.627,2.627,0,0,1-3.715,0Z" transform="translate(279.071 3604.071)" fill="#006fbe" fill-rule="evenodd"/>
  </g>
</svg>
