<svg xmlns="http://www.w3.org/2000/svg" xmlns:xlink="http://www.w3.org/1999/xlink" width="120" height="120" viewBox="0 0 120 120">
  <defs>
    <clipPath id="clip-path">
      <rect id="Rectangle_1023" data-name="Rectangle 1023" width="120" height="120" transform="translate(615 3605)" fill="#fff" stroke="#707070" stroke-width="1"/>
    </clipPath>
  </defs>
  <g id="Mask_Group_168" data-name="Mask Group 168" transform="translate(-615 -3605)" clip-path="url(#clip-path)">
    <g id="cpu_707576" transform="translate(615 3605)">
      <g id="Group_680" data-name="Group 680">
        <g id="Group_679" data-name="Group 679">
          <path id="Path_736" data-name="Path 736" d="M120,41.212a1.758,1.758,0,0,0-1.758-1.758H104.97V33.576h13.272a1.758,1.758,0,1,0,0-3.516H104.97v-.443a5.479,5.479,0,0,0-1.616-3.9l-9.072-9.072a5.479,5.479,0,0,0-3.9-1.616h-.443V1.758a1.758,1.758,0,0,0-3.516,0V15.03H80.545V1.758a1.758,1.758,0,0,0-3.516,0V15.03H71.151V1.758a1.758,1.758,0,0,0-3.516,0V15.03H61.758V1.758a1.758,1.758,0,0,0-3.516,0V15.03H52.364V1.758a1.758,1.758,0,0,0-3.516,0V15.03H42.97V1.758a1.758,1.758,0,0,0-3.516,0V15.03H33.576V1.758a1.758,1.758,0,1,0-3.516,0V15.03h-.443a5.479,5.479,0,0,0-3.9,1.616l-9.072,9.072a5.479,5.479,0,0,0-1.616,3.9v.443H1.758a1.758,1.758,0,1,0,0,3.516H15.03v5.878H1.758a1.758,1.758,0,0,0,0,3.516H15.03v5.878H1.758a1.758,1.758,0,0,0,0,3.516H15.03v5.878H1.758a1.758,1.758,0,0,0,0,3.516H15.03v5.878H1.758a1.758,1.758,0,0,0,0,3.516H15.03V77.03H1.758a1.758,1.758,0,0,0,0,3.516H15.03v5.878H1.758a1.758,1.758,0,0,0,0,3.516H15.03v.443a5.479,5.479,0,0,0,1.616,3.9l9.072,9.072a5.479,5.479,0,0,0,3.9,1.616h.443v13.272a1.758,1.758,0,1,0,3.516,0V104.97h5.878v13.272a1.758,1.758,0,0,0,3.516,0V104.97h5.878v13.272a1.758,1.758,0,0,0,3.516,0V104.97h5.878v13.272a1.758,1.758,0,0,0,3.516,0V104.97h5.878v13.272a1.758,1.758,0,0,0,3.516,0V104.97H77.03v13.272a1.758,1.758,0,0,0,3.516,0V104.97h5.878v13.272a1.758,1.758,0,0,0,3.516,0V104.97h.443a5.479,5.479,0,0,0,3.9-1.616l9.072-9.072a5.479,5.479,0,0,0,1.616-3.9v-.443h13.272a1.758,1.758,0,0,0,0-3.516H104.97V80.545h13.272a1.758,1.758,0,0,0,0-3.516H104.97V71.151h13.272a1.758,1.758,0,0,0,0-3.516H104.97V61.758h13.272a1.758,1.758,0,0,0,0-3.516H104.97V52.364h13.272a1.758,1.758,0,0,0,0-3.516H104.97V42.97h13.272A1.758,1.758,0,0,0,120,41.212Zm-18.546,49.17h0a1.988,1.988,0,0,1-.586,1.414L91.8,100.868a1.987,1.987,0,0,1-1.414.586H29.617a1.987,1.987,0,0,1-1.414-.586L19.132,91.8a1.987,1.987,0,0,1-.586-1.414V29.617a1.987,1.987,0,0,1,.586-1.414L28.2,19.132a1.987,1.987,0,0,1,1.414-.586H90.383a1.987,1.987,0,0,1,1.414.586l9.072,9.072a1.987,1.987,0,0,1,.586,1.414V90.383Z" fill="#006fbe"/>
        </g>
      </g>
      <g id="Group_682" data-name="Group 682">
        <g id="Group_681" data-name="Group 681">
          <path id="Path_737" data-name="Path 737" d="M86.3,28.182a1.758,1.758,0,0,0,0,3.516,2,2,0,0,1,2,2v5.757H75.03a.121.121,0,0,1-.121-.121V31.7h3.878a1.758,1.758,0,0,0,0-3.516H33.7A5.522,5.522,0,0,0,28.182,33.7V86.3A5.522,5.522,0,0,0,33.7,91.818a1.758,1.758,0,0,0,0-3.516,2,2,0,0,1-2-2V33.7a2,2,0,0,1,2-2H62v2.322a1.988,1.988,0,0,1-.586,1.414L56.1,40.747a1.987,1.987,0,0,1-1.414.586H50.2a5.515,5.515,0,1,0,0,3.516h4.49a5.48,5.48,0,0,0,3.9-1.616L63.9,37.919a5.479,5.479,0,0,0,1.616-3.9V31.7h5.878v7.636A3.641,3.641,0,0,0,75.03,42.97H88.3v5.878H70.863a5.515,5.515,0,1,0,0,3.516H88.3v5.878H76.587a5.479,5.479,0,0,0-3.9,1.616l-5.314,5.314a1.987,1.987,0,0,1-1.414.586H59.59a5.515,5.515,0,1,0,0,3.516h6.369a5.479,5.479,0,0,0,3.9-1.616l5.314-5.314a1.987,1.987,0,0,1,1.414-.586H88.3v5.878H80.344a5.479,5.479,0,0,0-3.9,1.616L65.494,80.2a5.479,5.479,0,0,0-1.616,3.9v4.2H54.243V84.1a5.479,5.479,0,0,0-1.616-3.9L43.556,71.13a1.986,1.986,0,0,1-.586-1.414V63.348a5.515,5.515,0,1,0-3.516,0v6.369a5.479,5.479,0,0,0,1.616,3.9l9.072,9.072a1.986,1.986,0,0,1,.586,1.414v4.2H41.212a1.758,1.758,0,0,0,0,3.516H86.3A5.522,5.522,0,0,0,91.818,86.3V33.7A5.522,5.522,0,0,0,86.3,28.182ZM44.97,45.091a2,2,0,1,1,2-2A2,2,0,0,1,44.97,45.091Zm20.666,7.515a2,2,0,1,1,2-2A2,2,0,0,1,65.636,52.606ZM54.364,69.515a2,2,0,1,1,2-2A2,2,0,0,1,54.364,69.515ZM41.212,60.121a2,2,0,1,1,2-2A2,2,0,0,1,41.212,60.121ZM88.3,86.3a2,2,0,0,1-2,2H67.394V84.1a1.986,1.986,0,0,1,.586-1.414l10.95-10.95a1.987,1.987,0,0,1,1.414-.586H88.3Z" fill="#006fbe"/>
        </g>
      </g>
    </g>
  </g>
</svg>
