<svg xmlns="http://www.w3.org/2000/svg" xmlns:xlink="http://www.w3.org/1999/xlink" width="120" height="120" viewBox="0 0 120 120">
  <defs>
    <clipPath id="clip-path">
      <rect id="Rectangle_1025" data-name="Rectangle 1025" width="120" height="120" transform="translate(1259 3605)" fill="#fff" stroke="#707070" stroke-width="1"/>
    </clipPath>
  </defs>
  <g id="Mask_Group_170" data-name="Mask Group 170" transform="translate(-1259 -3605)" clip-path="url(#clip-path)">
    <path id="retail_18302538" d="M130.4,72.457a59.992,59.992,0,0,1-59.7,57.959h-.008a1.818,1.818,0,0,1-.009-3.635,56.187,56.187,0,0,0,56.088-54.447,1.818,1.818,0,0,1,3.633.124ZM56.519,126.948a1.815,1.815,0,0,1-1.749,1.33,1.838,1.838,0,0,1-.489-.067,60.038,60.038,0,0,1-13.795-109.8A1.819,1.819,0,0,1,42.3,21.558,56.384,56.384,0,0,0,55.258,124.709a1.816,1.816,0,0,1,1.262,2.239Zm.27-113.128a1.818,1.818,0,0,0,2.147,1.411,56.56,56.56,0,0,1,65.746,39.85,1.817,1.817,0,0,0,1.746,1.326,1.816,1.816,0,0,0,1.751-2.312A60.136,60.136,0,0,0,58.2,11.67a1.815,1.815,0,0,0-1.411,2.149ZM104.7,104.443a1.815,1.815,0,0,0-2.568-.087,46.286,46.286,0,0,1-64.392-.957,1.818,1.818,0,1,0-2.559,2.583,49.833,49.833,0,0,0,34.509,14.507c.255.005.506.007.759.007a49.811,49.811,0,0,0,34.165-13.485,1.817,1.817,0,0,0,.086-2.568Zm6.267-11.352a1.818,1.818,0,1,0,3.173,1.776A50.242,50.242,0,0,0,97.88,28.538a1.818,1.818,0,0,0-1.994,3.039A46.593,46.593,0,0,1,110.97,93.091ZM24,70.422a46.479,46.479,0,0,1,58.512-44.85,1.817,1.817,0,1,0,.942-3.509A50.089,50.089,0,0,0,26.8,95a1.818,1.818,0,1,0,3.167-1.787A46.433,46.433,0,0,1,24,70.422Zm72.744,4.048,3.444-12.915H51.349l.2.5.841,2.125,7.065,17.9Zm5.18-19.422H48.779l1.135,2.872h51.242ZM84.579,103.5a2.66,2.66,0,1,0-2.658-2.658A2.664,2.664,0,0,0,84.579,103.5Zm-22.1,0a2.66,2.66,0,1,1,2.661-2.658A2.66,2.66,0,0,1,62.479,103.5Zm43.25-51.384a1.813,1.813,0,0,0-1.439-.71H47.344l-2.576-6.526a1.818,1.818,0,0,0-1.692-1.151H36.565a1.818,1.818,0,1,0,0,3.635H41.84L44.417,53.9v0L56.126,83.559,50.11,88.179A1.825,1.825,0,0,0,49.4,89.62v6.512a1.818,1.818,0,0,0,1.819,1.818h5.676a6.3,6.3,0,1,0,11.174,0H78.993a6.3,6.3,0,1,0,11.175,0h7.455a1.818,1.818,0,0,0,0-3.636H53.035v-3.8l6.059-4.656,39.479-8.056a1.818,1.818,0,0,0,1.395-1.313l6.077-22.8a1.815,1.815,0,0,0-.315-1.576Z" transform="translate(1248.584 3594.584)" fill="#006fbe" fill-rule="evenodd"/>
  </g>
</svg>
