<svg xmlns="http://www.w3.org/2000/svg" xmlns:xlink="http://www.w3.org/1999/xlink" width="138" height="138" viewBox="0 0 138 138">
  <defs>
    <clipPath id="clip-path">
      <rect id="Rectangle_915" data-name="Rectangle 915" width="138" height="138" transform="translate(694 2892)" fill="#006fbe" stroke="#006fbe" stroke-width="1"/>
    </clipPath>
  </defs>
  <g id="Mask_Group_146" data-name="Mask Group 146" transform="translate(-694 -2892)" clip-path="url(#clip-path)">
    <g id="blueprint_2974125" transform="translate(691.774 2889.774)">
      <path id="Path_580" data-name="Path 580" d="M138.269,68.348,118.62,48.7a6.629,6.629,0,0,0-4.723-1.956h-9.284V13.355A11.142,11.142,0,0,0,93.484,2.226h-8.9A11.142,11.142,0,0,0,73.452,13.355V46.742H8.9a6.686,6.686,0,0,0-6.677,6.677v80.129A6.686,6.686,0,0,0,8.9,140.226H133.548a6.686,6.686,0,0,0,6.677-6.677V73.071a6.63,6.63,0,0,0-1.956-4.723Zm-20.3-14.007L132.627,69H120.194a2.229,2.229,0,0,1-2.226-2.226ZM87.514,85.965,79.693,73.452H98.372L90.55,85.965A1.854,1.854,0,0,1,87.514,85.965ZM86.806,69V24.484h4.452V69Zm-4.452,0H77.9V24.484h4.452Zm17.806,0H95.71V24.484h4.452ZM84.581,6.677h8.9a6.686,6.686,0,0,1,6.677,6.677v6.677H77.9V13.355A6.686,6.686,0,0,1,84.581,6.677ZM26.654,83.719a21.684,21.684,0,0,1,1.062,2.551l.349,1.019,3.1,1.093v10.2l-3.1,1.093-.349,1.019a21.684,21.684,0,0,1-1.062,2.551l-.476.97,1.42,2.971-7.216,7.216-2.969-1.422-.968.476a21.9,21.9,0,0,1-2.551,1.062l-1.019.347-1.093,3.1h-5.1V111.29a17.806,17.806,0,1,0,0-35.613V69h5.1l1.093,3.1,1.019.349a22.13,22.13,0,0,1,2.553,1.062l.968.476,2.969-1.42L27.6,79.782l-1.42,2.971ZM6.677,89.032a4.452,4.452,0,0,1,0,8.9Zm8.9,4.452a8.912,8.912,0,0,0-8.9-8.9V80.129a13.355,13.355,0,1,1,0,26.71v-4.452A8.912,8.912,0,0,0,15.581,93.484Zm117.968,42.29H8.9a2.228,2.228,0,0,1-2.226-2.226V122.419h8.253l1.436-4.064q.524-.207,1.048-.436l3.891,1.861,11.672-11.668-1.861-3.893c.154-.345.3-.7.436-1.048l4.06-1.433V85.231L31.549,83.8q-.207-.528-.436-1.048l1.861-3.893L21.3,67.188,17.41,69.049c-.347-.154-.7-.3-1.048-.436l-1.431-4.064H6.677V53.419A2.229,2.229,0,0,1,8.9,51.194H73.452V71.865l9.337,14.942H40.065v4.452H89.032a6.207,6.207,0,0,0,5.293-2.931l10.288-16.462V51.194h8.9V66.774a6.686,6.686,0,0,0,6.677,6.677h15.581v60.1a2.228,2.228,0,0,1-2.226,2.226Z" fill="#006fbe"/>
      <path id="Path_581" data-name="Path 581" d="M100.161,104.613H84.581v26.71h31.161V117.968h15.581V91.258H100.161Zm11.129,22.258H89.032V109.065H111.29ZM126.871,95.71v17.806H115.742v-8.9H104.613v-8.9Z" fill="#006fbe"/>
      <path id="Path_582" data-name="Path 582" d="M40.065,113.516H57.871V95.71H40.065Zm4.452-13.355h8.9v8.9h-8.9Z" fill="#006fbe"/>
      <path id="Path_583" data-name="Path 583" d="M62.323,113.516H80.129V95.71H62.323Zm4.452-13.355h8.9v8.9h-8.9Z" fill="#006fbe"/>
      <path id="Path_584" data-name="Path 584" d="M40.065,117.968H80.129v4.452H40.065Z" fill="#006fbe"/>
      <path id="Path_585" data-name="Path 585" d="M40.065,126.871H80.129v4.452H40.065Z" fill="#006fbe"/>
      <path id="Path_586" data-name="Path 586" d="M37.839,55.645H69V60.1H37.839Z" fill="#006fbe"/>
      <path id="Path_587" data-name="Path 587" d="M37.839,64.548H69V69H37.839Z" fill="#006fbe"/>
      <path id="Path_588" data-name="Path 588" d="M46.742,73.452h4.452V77.9H46.742Z" fill="#006fbe"/>
      <path id="Path_589" data-name="Path 589" d="M64.548,73.452H69V77.9H64.548Z" fill="#006fbe"/>
      <path id="Path_590" data-name="Path 590" d="M37.839,73.452H42.29V77.9H37.839Z" fill="#006fbe"/>
      <path id="Path_591" data-name="Path 591" d="M55.645,73.452H60.1V77.9H55.645Z" fill="#006fbe"/>
    </g>
  </g>
</svg>
