<svg xmlns="http://www.w3.org/2000/svg" xmlns:xlink="http://www.w3.org/1999/xlink" width="138" height="138" viewBox="0 0 138 138">
  <defs>
    <clipPath id="clip-path">
      <rect id="Rectangle_916" data-name="Rectangle 916" width="138" height="138" transform="translate(1108 2892)" fill="#fff" stroke="#707070" stroke-width="1"/>
    </clipPath>
  </defs>
  <g id="Mask_Group_147" data-name="Mask Group 147" transform="translate(-1108 -2892)" clip-path="url(#clip-path)">
    <g id="rocket_10836685" transform="translate(1101.531 2885.531)">
      <path id="Path_592" data-name="Path 592" d="M119.931,126.4a16.273,16.273,0,0,0-5.11.841,18.381,18.381,0,0,0-28.01-5.843,22.968,22.968,0,0,1-1.531-8.862h5.8a5.485,5.485,0,0,0,5.477-5.477v-6.577h2.609a3.861,3.861,0,0,0,3.86-3.817l16.474,8.862a4.148,4.148,0,0,0,2.005.518,4.079,4.079,0,0,0,2.156-.6,4.161,4.161,0,0,0,2.048-3.622V77.8a17.56,17.56,0,0,0-9.293-15.525L103,55.049V39.955a24.5,24.5,0,0,0-.367-3.989V35.9c-.022-.129-.065-.259-.086-.388-.065-.345-.108-.712-.173-1.057l-.065-.129A25.928,25.928,0,0,0,93.43,19.751L78.682,7.633a5.134,5.134,0,0,0-6.512,0L57.4,19.751a25.912,25.912,0,0,0-8.862,14.555,1.051,1.051,0,0,0-.065.151c-.086.345-.108.712-.173,1.057-.022.129-.065.259-.086.388v.065a24.5,24.5,0,0,0-.367,3.989V55.049L34.5,62.251a17.61,17.61,0,0,0-9.293,15.525v24.042a4.207,4.207,0,0,0,2.048,3.622,4.133,4.133,0,0,0,2.156.6,4.21,4.21,0,0,0,2.005-.518L47.89,96.665a3.861,3.861,0,0,0,3.86,3.817h2.609v6.577a5.485,5.485,0,0,0,5.477,5.477h5.8a22.969,22.969,0,0,1-1.531,8.862A18.381,18.381,0,0,0,36.1,127.24a15.678,15.678,0,0,0-5.11-.841,16,16,0,0,0-15.978,15.978,2.092,2.092,0,1,0,4.183,0,11.83,11.83,0,0,1,11.795-11.816,12.156,12.156,0,0,1,3.644.582,18.308,18.308,0,0,0-.582,4.507,2.092,2.092,0,1,0,4.183,0,14.258,14.258,0,0,1,23.827-10.566,15.292,15.292,0,0,1-7.094,5.261,2.088,2.088,0,0,0,1.488,3.9,19.173,19.173,0,0,0,9.983-8.237,3.751,3.751,0,0,0,.237-.388A26.437,26.437,0,0,0,69.8,112.535h11.32a26.97,26.97,0,0,0,3.127,13.088,2.332,2.332,0,0,0,.237.388,19.173,19.173,0,0,0,9.983,8.237,2.191,2.191,0,0,0,.733.129,2.11,2.11,0,0,0,1.962-1.358,2.088,2.088,0,0,0-1.208-2.7,15.638,15.638,0,0,1-7.094-5.24,14.258,14.258,0,0,1,23.827,10.566,2.092,2.092,0,1,0,4.183,0,18.308,18.308,0,0,0-.582-4.507,11.415,11.415,0,0,1,3.644-.582,11.834,11.834,0,0,1,11.816,11.816,2.092,2.092,0,1,0,4.183,0,16,16,0,0,0-16-15.978Zm-5.455-60.461A13.428,13.428,0,0,1,121.548,77.8l-.065,24.064-18.458-9.919V59.793ZM60.116,22.986l14.77-12.118a.941.941,0,0,1,1.186,0l14.77,12.118a21.677,21.677,0,0,1,7.2,11.148H52.914a21.677,21.677,0,0,1,7.2-11.148ZM29.39,101.818V77.8a13.47,13.47,0,0,1,7.073-11.859L47.89,59.793V91.921Zm22.684-8.841V39.934q0-.809.065-1.617h46.64q.065.809.065,1.617V96.277H52.073ZM67.6,108.352H59.858a1.3,1.3,0,0,1-1.294-1.294v-6.577h33.81v6.577a1.3,1.3,0,0,1-1.294,1.294H67.6Z" fill="#006fbe"/>
      <path id="Path_593" data-name="Path 593" d="M83.727,54.014a2.085,2.085,0,0,0-2.889.6L66.585,76.374a2.085,2.085,0,0,0,.6,2.889,2.076,2.076,0,0,0,2.889-.6L84.331,56.9a2.066,2.066,0,0,0-.6-2.889Z" fill="#006fbe"/>
      <path id="Path_594" data-name="Path 594" d="M68.612,65.722A2.081,2.081,0,0,0,70.1,62.165L66.736,58.8,70.1,55.459A2.089,2.089,0,0,0,67.146,52.5l-4.83,4.83a2.108,2.108,0,0,0-.022,2.976l4.83,4.83a2.159,2.159,0,0,0,1.488.582Z" fill="#006fbe"/>
      <path id="Path_595" data-name="Path 595" d="M83.813,68.138a2.089,2.089,0,0,0-2.954,2.954l3.364,3.342L80.859,77.8a2.1,2.1,0,0,0,2.976,2.954l4.83-4.83a2.1,2.1,0,0,0,.6-1.488,2.072,2.072,0,0,0-.625-1.488Z" fill="#006fbe"/>
      <path id="Path_596" data-name="Path 596" d="M118.249,36.937l3.967-3.968V50.758a2.092,2.092,0,0,0,4.183,0V32.969l3.967,3.968a2.1,2.1,0,1,0,2.976-2.954L125.8,26.436a2.13,2.13,0,0,0-.69-.453,2.8,2.8,0,0,0-.712-.151c-.022,0-.043-.022-.086-.022a2.041,2.041,0,0,0-.8.173,1.969,1.969,0,0,0-.5.323,1.012,1.012,0,0,0-.194.129l-7.547,7.547a2.082,2.082,0,0,0,0,2.954A2.108,2.108,0,0,0,118.249,36.937Z" fill="#006fbe"/>
      <path id="Path_597" data-name="Path 597" d="M25.034,22.878,29,18.91v15.7a2.092,2.092,0,0,0,4.183,0V18.91l3.967,3.968a2.1,2.1,0,0,0,2.976-2.954L32.6,12.4a2.058,2.058,0,0,0-2.889-.065c-.022.022-.065.043-.086.065L22.08,19.945a2.081,2.081,0,1,0,2.954,2.932Z" fill="#006fbe"/>
    </g>
  </g>
</svg>
