<svg xmlns="http://www.w3.org/2000/svg" xmlns:xlink="http://www.w3.org/1999/xlink" width="138" height="138" viewBox="0 0 138 138">
  <defs>
    <clipPath id="clip-path">
      <rect id="Rectangle_919" data-name="Rectangle 919" width="138" height="138" transform="translate(280 3212)" fill="#fff" stroke="#707070" stroke-width="1"/>
    </clipPath>
  </defs>
  <g id="Mask_Group_148" data-name="Mask Group 148" transform="translate(-280 -3212)" clip-path="url(#clip-path)">
    <g id="website-protection_17143090" transform="translate(275.4 3207.399)">
      <path id="Path_598" data-name="Path 598" d="M16.739,58.091H31.39a2.3,2.3,0,1,0,0-4.6H16.739a2.3,2.3,0,1,0,0,4.6Z" fill="#006fbe"/>
      <path id="Path_599" data-name="Path 599" d="M45.554,61.392H16.739a2.3,2.3,0,1,0,0,4.6H45.554a2.3,2.3,0,1,0,0-4.6Z" fill="#006fbe"/>
      <path id="Path_600" data-name="Path 600" d="M25.824,69.294H16.739a2.3,2.3,0,1,0,0,4.6h9.085a2.3,2.3,0,1,0,0-4.6Z" fill="#006fbe"/>
      <path id="Path_601" data-name="Path 601" d="M141.275,12.549a2.3,2.3,0,0,0-2.449.317c-13.991,11.666-23.952.72-24.362.253a2.378,2.378,0,0,0-3.468,0c-.414.476-10.288,11.486-24.38-.255a2.3,2.3,0,0,0-3.77,1.766V27.74H12.776a8.2,8.2,0,0,0-8.176,8.2v90.728a8.2,8.2,0,0,0,8.177,8.2H124.011a8.2,8.2,0,0,0,8.195-8.2v-67.4c.5-.407,1.012-.816,1.463-1.214A26.307,26.307,0,0,0,142.6,38.212V14.63A2.3,2.3,0,0,0,141.275,12.549Zm-128.5,19.8H82.839v5.865a26.533,26.533,0,0,0,1.017,7.2H9.2V35.944A3.59,3.59,0,0,1,12.776,32.347Zm34.286,74.426a30.13,30.13,0,0,1,51.391,23.5H38.35a29.914,29.914,0,0,1,8.712-23.5Zm56,23.5a34.73,34.73,0,1,0-69.315,0H19.039v-6.778a4.358,4.358,0,0,1,4.37-4.336,8.9,8.9,0,0,0,8.28-5.566c.147-.377.3-.757.52-1.228a8.97,8.97,0,0,0,.69-3.4,9.064,9.064,0,0,0-2.633-6.364,4.292,4.292,0,0,1-1.274-3.059,4.338,4.338,0,0,1,1.281-3.1l6.481-6.516a4.515,4.515,0,0,1,6.155,0,8.885,8.885,0,0,0,9.717,1.962l.527-.23c.212-.09.419-.179.727-.29a8.844,8.844,0,0,0,5.564-8.28A4.37,4.37,0,0,1,63.8,78.734H73a4.37,4.37,0,0,1,4.37,4.359,8.88,8.88,0,0,0,5.658,8.321c.23.076.432.168.646.258l.423.177a9.016,9.016,0,0,0,9.791-1.909,4.4,4.4,0,0,1,6.173,0l6.523,6.523a4.354,4.354,0,0,1-.023,6.159,8.924,8.924,0,0,0-1.884,9.858c.17.359.32.738.46,1.1a8.906,8.906,0,0,0,8.28,5.58,4.352,4.352,0,0,1,4.37,4.336v6.778Zm24.546-3.6a3.6,3.6,0,0,1-3.595,3.6H122.36v-6.778a8.956,8.956,0,0,0-8.97-8.936,4.278,4.278,0,0,1-3.993-2.666c-.189-.472-.38-.941-.552-1.3a4.306,4.306,0,0,1,.938-4.713,8.949,8.949,0,0,0,.014-12.68l-6.516-6.518a9.021,9.021,0,0,0-12.678.018,4.177,4.177,0,0,1-4.74.92l-.414-.172c-.308-.131-.614-.262-.837-.336a4.329,4.329,0,0,1-2.663-4.016,8.97,8.97,0,0,0-8.97-8.959h-9.2A8.97,8.97,0,0,0,54.82,83.09a4.3,4.3,0,0,1-2.574,3.979c-.31.11-.614.23-.92.368l-.485.2a4.294,4.294,0,0,1-4.7-.957,8.956,8.956,0,0,0-12.668,0l-6.511,6.511a8.942,8.942,0,0,0,0,12.664,4.427,4.427,0,0,1,1.281,3.107,4.322,4.322,0,0,1-.288,1.539c-.212.446-.4.92-.6,1.4a4.269,4.269,0,0,1-3.986,2.652,8.97,8.97,0,0,0-8.97,8.936v6.778H12.776a3.59,3.59,0,0,1-3.576-3.6V50.016H85.64a26.429,26.429,0,0,0,6.123,8.05,65.368,65.368,0,0,0,20.155,11.992,2.3,2.3,0,0,0,.812.147h0a2.273,2.273,0,0,0,.81-.147c1.479-.557,2.921-1.175,4.345-1.84.414-.191.819-.393,1.228-.593q1.543-.743,3.034-1.562c.425-.23.853-.46,1.274-.711q1.624-.938,3.185-1.969c.255-.17.52-.327.775-.5.074-.048.152-.094.23-.145ZM138,38.212A21.717,21.717,0,0,1,130.64,54.6c-.669.589-1.38,1.178-2.162,1.794a60.819,60.819,0,0,1-15.743,9.048A60.667,60.667,0,0,1,94.808,54.6a21.7,21.7,0,0,1-5.617-7.781,22.038,22.038,0,0,1-1.748-8.609V19.147a20.562,20.562,0,0,0,25.3-1.38A20.548,20.548,0,0,0,138,19.15Z" fill="#006fbe"/>
      <path id="Path_602" data-name="Path 602" d="M110.478,44.464l-5.352-5.352a2.3,2.3,0,1,0-3.252,3.252l6.978,6.978a2.3,2.3,0,0,0,3.252,0l15.737-15.737a2.3,2.3,0,0,0-3.252-3.245Z" fill="#006fbe"/>
    </g>
  </g>
</svg>
