<svg xmlns="http://www.w3.org/2000/svg" xmlns:xlink="http://www.w3.org/1999/xlink" width="138" height="138" viewBox="0 0 138 138">
  <defs>
    <clipPath id="clip-path">
      <rect id="Rectangle_918" data-name="Rectangle 918" width="138" height="138" transform="translate(694 3212)" fill="#fff" stroke="#707070" stroke-width="1"/>
    </clipPath>
  </defs>
  <g id="Mask_Group_149" data-name="Mask Group 149" transform="translate(-694 -3212)" clip-path="url(#clip-path)">
    <g id="_x39_22_-_Online_File_Transfer" transform="translate(688.859 3206.859)">
      <g id="XMLID_4_">
        <g id="XMLID_748_">
          <path id="Path_603" data-name="Path 603" d="M141.518,123.1H49.585a1.624,1.624,0,0,1-1.624-1.624v-66a1.624,1.624,0,0,1,1.624-1.624h91.932a1.624,1.624,0,0,1,1.624,1.624v66A1.624,1.624,0,0,1,141.518,123.1Zm-90.309-3.247h88.685V57.094H51.209Z" fill="#006fbe"/>
        </g>
        <g id="XMLID_731_">
          <path id="Path_604" data-name="Path 604" d="M109.047,135.632H86.318a1.624,1.624,0,0,1-1.514-2.21l4.857-12.536a1.624,1.624,0,1,1,3.028,1.173l-4,10.326h17.731l-5.1-10.186a1.624,1.624,0,0,1,2.9-1.453l6.275,12.536a1.624,1.624,0,0,1-1.452,2.35Z" fill="#006fbe"/>
        </g>
        <g id="XMLID_746_">
          <path id="Path_605" data-name="Path 605" d="M120.818,143.141H73.6a1.624,1.624,0,0,1-1.624-1.624v-7.509a1.624,1.624,0,0,1,1.624-1.624h47.218a1.624,1.624,0,0,1,1.624,1.624v7.509A1.624,1.624,0,0,1,120.818,143.141Zm-45.594-3.247h43.971v-4.262H75.224Z" fill="#006fbe"/>
        </g>
        <g id="XMLID_745_">
          <path id="Path_606" data-name="Path 606" d="M141.518,100.929H49.585a1.624,1.624,0,1,1,0-3.247h91.932a1.624,1.624,0,1,1,0,3.247Z" fill="#006fbe"/>
        </g>
        <g id="XMLID_741_">
          <path id="Path_607" data-name="Path 607" d="M128.935,115.135a4.668,4.668,0,1,1,4.668-4.668A4.673,4.673,0,0,1,128.935,115.135Zm0-6.088a1.421,1.421,0,1,0,1.421,1.421A1.422,1.422,0,0,0,128.935,109.047Z" fill="#006fbe"/>
        </g>
        <g id="XMLID_740_">
          <path id="Path_608" data-name="Path 608" d="M115.947,115.135a4.668,4.668,0,1,1,4.668-4.668A4.673,4.673,0,0,1,115.947,115.135Zm0-6.088a1.421,1.421,0,1,0,1.421,1.421A1.422,1.422,0,0,0,115.947,109.047Z" fill="#006fbe"/>
        </g>
        <g id="XMLID_738_">
          <path id="Path_609" data-name="Path 609" d="M102.959,115.135a4.668,4.668,0,1,1,4.668-4.668A4.673,4.673,0,0,1,102.959,115.135Zm0-6.088a1.421,1.421,0,1,0,1.421,1.421A1.422,1.422,0,0,0,102.959,109.047Z" fill="#006fbe"/>
        </g>
        <g id="XMLID_737_">
          <path id="Path_610" data-name="Path 610" d="M78,115.541H56.079a1.624,1.624,0,0,1-1.624-1.624v-6.9a1.624,1.624,0,0,1,1.624-1.624H78a1.624,1.624,0,0,1,1.624,1.624v6.9A1.624,1.624,0,0,1,78,115.541ZM57.7,112.294H76.374v-3.653H57.7Z" fill="#006fbe"/>
        </g>
        <g id="XMLID_726_">
          <path id="Path_611" data-name="Path 611" d="M58.718,45.729H6.765a1.624,1.624,0,0,1-1.624-1.624V6.765A1.624,1.624,0,0,1,6.765,5.141H26.247a1.624,1.624,0,0,1,1.452.9l6.045,12.091H58.718a1.624,1.624,0,0,1,1.624,1.624V44.106A1.624,1.624,0,0,1,58.718,45.729ZM8.388,42.482H57.094V21.376H32.741a1.624,1.624,0,0,1-1.452-.9L25.244,8.388H8.388Z" fill="#006fbe"/>
        </g>
        <g id="XMLID_734_">
          <path id="Path_612" data-name="Path 612" d="M53.847,21.376a1.624,1.624,0,0,1-1.624-1.624V11.635H27.871a1.624,1.624,0,0,1,0-3.247H53.847a1.624,1.624,0,0,1,1.624,1.624v9.741A1.624,1.624,0,0,1,53.847,21.376Z" fill="#006fbe"/>
        </g>
        <g id="XMLID_727_">
          <path id="Path_613" data-name="Path 613" d="M58.718,39.235H6.765a1.624,1.624,0,1,1,0-3.247H58.718a1.624,1.624,0,0,1,0,3.247Z" fill="#006fbe"/>
        </g>
        <g id="XMLID_730_">
          <path id="Path_614" data-name="Path 614" d="M100.929,76.576H57.094a1.624,1.624,0,0,1-1.624-1.624V61.965a1.624,1.624,0,0,1,1.624-1.624h43.835a1.624,1.624,0,0,1,1.624,1.624V74.953A1.624,1.624,0,0,1,100.929,76.576ZM58.718,73.329H99.306V63.588H58.718Z" fill="#006fbe"/>
        </g>
        <g id="XMLID_735_">
          <path id="Path_615" data-name="Path 615" d="M100.929,84.694H57.094a1.624,1.624,0,0,1,0-3.247h43.835a1.624,1.624,0,0,1,0,3.247Z" fill="#006fbe"/>
        </g>
        <g id="XMLID_733_">
          <path id="Path_616" data-name="Path 616" d="M100.929,92.812H57.094a1.624,1.624,0,0,1,0-3.247h43.835a1.624,1.624,0,0,1,0,3.247Z" fill="#006fbe"/>
        </g>
        <g id="XMLID_736_">
          <path id="Path_617" data-name="Path 617" d="M133.4,92.812H109.047a1.624,1.624,0,0,1-1.624-1.624V61.965a1.624,1.624,0,0,1,1.624-1.624H133.4a1.624,1.624,0,0,1,1.624,1.624V91.188A1.624,1.624,0,0,1,133.4,92.812Zm-22.729-3.247h21.106V63.588H110.671Z" fill="#006fbe"/>
        </g>
        <g id="XMLID_747_">
          <path id="Path_618" data-name="Path 618" d="M42.482,97.682H23a1.624,1.624,0,0,1-1.624-1.624V58.718a1.624,1.624,0,1,1,3.247,0V94.435H42.482a1.624,1.624,0,1,1,0,3.247Z" fill="#006fbe"/>
        </g>
        <g id="XMLID_749_">
          <path id="Path_619" data-name="Path 619" d="M14.882,70.082a1.624,1.624,0,0,1-1.251-2.657l8.036-9.741A1.624,1.624,0,0,1,24.1,57.6l9.184,9.741a1.624,1.624,0,0,1-2.363,2.227L23,61.17l-6.865,8.321a1.619,1.619,0,0,1-1.253.591Z" fill="#006fbe"/>
        </g>
        <g id="XMLID_750_">
          <path id="Path_620" data-name="Path 620" d="M99.306,47.353a1.624,1.624,0,0,1-1.624-1.624V21.376H66.835a1.624,1.624,0,0,1,0-3.247H99.306a1.624,1.624,0,0,1,1.624,1.624V45.729A1.624,1.624,0,0,1,99.306,47.353Z" fill="#006fbe"/>
        </g>
        <g id="XMLID_751_">
          <path id="Path_621" data-name="Path 621" d="M99.388,47.353a1.624,1.624,0,0,1-1.181-.51L89.022,37.1a1.623,1.623,0,1,1,2.362-2.227l7.922,8.4,6.865-8.321a1.624,1.624,0,1,1,2.5,2.066l-8.036,9.741a1.622,1.622,0,0,1-1.2.589Z" fill="#006fbe"/>
        </g>
      </g>
    </g>
  </g>
</svg>
