<svg xmlns="http://www.w3.org/2000/svg" xmlns:xlink="http://www.w3.org/1999/xlink" width="138" height="138" viewBox="0 0 138 138">
  <defs>
    <clipPath id="clip-path">
      <rect id="Rectangle_914" data-name="Rectangle 914" width="138" height="138" transform="translate(280 2892)" fill="#fff" stroke="#006fbe" stroke-width="1"/>
    </clipPath>
  </defs>
  <g id="Mask_Group_145" data-name="Mask Group 145" transform="translate(-280 -2892)" clip-path="url(#clip-path)">
    <g id="retail-store_6993274" transform="translate(241.108 2853.108)">
      <path id="Path_578" data-name="Path 578" d="M101.32,113.368H81.606a2.191,2.191,0,0,0-2.19,2.19V129.8a2.19,2.19,0,0,0,2.19,2.19H101.32a2.19,2.19,0,0,0,2.19-2.19V115.558A2.19,2.19,0,0,0,101.32,113.368Zm-2.19,14.238H83.8v-9.857H99.13Z" fill="#006fbe"/>
      <path id="Path_579" data-name="Path 579" d="M174.7,150.606H165.94V133.082a2.19,2.19,0,0,0-2.19-2.19H148.416V98.269a15.317,15.317,0,0,0,1.1-5.71,12.485,12.485,0,0,0-2.436-7.667h14.484a2.19,2.19,0,0,0,2.19-2.19V65.178h8.762a2.19,2.19,0,0,0,2.19-2.19v-21.9a2.19,2.19,0,0,0-2.19-2.19h-21.9a2.19,2.19,0,0,0-2.19,2.19v21.9a2.19,2.19,0,0,0,2.19,2.19h8.762V80.511H142.229c-1.259-.839-2.6-1.616-3.987-2.415a46.887,46.887,0,0,1-6.254-4.07V65.178a5.482,5.482,0,0,0-5.476-5.476H89.273A5.482,5.482,0,0,0,83.8,65.178v8.808a53.454,53.454,0,0,1-6.02,3.836c-1.539.887-3.032,1.747-4.414,2.689H56.416V65.178h8.762a2.19,2.19,0,0,0,2.19-2.19v-21.9a2.19,2.19,0,0,0-2.19-2.19h-21.9a2.19,2.19,0,0,0-2.19,2.19v21.9a2.191,2.191,0,0,0,2.19,2.19h8.762V82.7a2.191,2.191,0,0,0,2.19,2.19h14.42a12.73,12.73,0,0,0-2.373,7.667,15.317,15.317,0,0,0,1.1,5.71v32.623H52.035a2.191,2.191,0,0,0-2.19,2.19v17.524H41.082a2.19,2.19,0,0,0-2.19,2.19v21.9a2.19,2.19,0,0,0,2.19,2.19h21.9a2.19,2.19,0,0,0,2.19-2.19V152.8a2.19,2.19,0,0,0-2.19-2.19H54.225V135.273H67.368v9.857a4.386,4.386,0,0,0,4.381,4.381h40.524a2.19,2.19,0,0,0,2.19-2.19V117.749H129.8V147.32a2.19,2.19,0,0,0,2.19,2.19h12.048a4.386,4.386,0,0,0,4.381-4.381v-9.857h13.143v15.333H152.8a2.19,2.19,0,0,0-2.19,2.19v21.9a2.19,2.19,0,0,0,2.19,2.19h21.9a2.19,2.19,0,0,0,2.19-2.19V152.8a2.19,2.19,0,0,0-2.19-2.19ZM152.8,43.273H170.32V60.8H152.8Zm-107.333,0H62.987V60.8H45.463ZM60.8,172.511H43.273V154.987H60.8ZM145.13,92.559a10.952,10.952,0,1,1-21.9,0V77.225h5.755a48.5,48.5,0,0,0,7.069,4.664C141.679,85.142,145.13,87.4,145.13,92.559ZM96.939,77.225h21.9V92.558a10.952,10.952,0,0,1-21.9,0V77.225ZM88.178,65.178a1.1,1.1,0,0,1,1.1-1.1h37.238a1.1,1.1,0,0,1,1.1,1.1v7.667H88.178V65.178Zm-8.214,16.44a54.4,54.4,0,0,0,6.8-4.393h5.794V92.558a10.952,10.952,0,0,1-21.9,0c0-5.307,3.538-7.615,9.31-10.94Zm54.214,63.512V115.558a2.19,2.19,0,0,0-2.19-2.19H112.273a2.191,2.191,0,0,0-2.19,2.19V145.13H71.749V104.3a15.334,15.334,0,0,0,20.7-.9,15.438,15.438,0,0,0,2.3-2.934,15.44,15.44,0,0,0,2.3,2.934,15.333,15.333,0,0,0,21.685,0,15.438,15.438,0,0,0,2.3-2.934,15.44,15.44,0,0,0,2.3,2.934,15.334,15.334,0,0,0,20.7.9V145.13Zm38.333,27.381H154.987V154.987h17.524Z" fill="#006fbe"/>
    </g>
  </g>
</svg>
