<svg xmlns="http://www.w3.org/2000/svg" xmlns:xlink="http://www.w3.org/1999/xlink" width="138" height="138" viewBox="0 0 138 138">
  <defs>
    <clipPath id="clip-path">
      <rect id="Rectangle_917" data-name="Rectangle 917" width="138" height="138" transform="translate(1108 3212)" fill="#fff" stroke="#707070" stroke-width="1"/>
    </clipPath>
  </defs>
  <g id="Mask_Group_150" data-name="Mask Group 150" transform="translate(-1108 -3212)" clip-path="url(#clip-path)">
    <g id="Layer_x0020_1" transform="translate(1108 3212)">
      <path id="Path_622" data-name="Path 622" d="M83.431,88.524a1.677,1.677,0,0,1-1.617-1.617c0-8.974,2.668-12.612,5.012-15.845,2.183-2.91,3.961-5.417,3.961-12.046a21.828,21.828,0,0,0-43.656,0c0,6.629,1.859,9.135,4.042,12.046,2.264,3.234,4.931,6.872,4.931,15.845a1.617,1.617,0,0,1-3.234,0c0-7.923-2.1-10.833-4.366-13.905C46.243,69.849,43.9,66.7,43.9,59.016a25.062,25.062,0,1,1,50.123,0c0,7.68-2.344,10.833-4.608,13.986-2.183,3.072-4.366,5.982-4.366,13.905A1.622,1.622,0,0,1,83.431,88.524Z" fill="#006fbe" fill-rule="evenodd"/>
      <path id="Path_623" data-name="Path 623" d="M80.278,97.821H57.722a4.849,4.849,0,0,1-4.851-4.77V86.907a1.622,1.622,0,0,1,1.617-1.617H83.431a1.622,1.622,0,0,1,1.617,1.617v6.144A4.778,4.778,0,0,1,80.278,97.821Zm-24.172-9.3V92.97a1.622,1.622,0,0,0,1.617,1.617H80.278a1.554,1.554,0,0,0,1.536-1.617V88.524Z" fill="#006fbe" fill-rule="evenodd"/>
      <path id="Path_624" data-name="Path 624" d="M76.478,104.046H61.522a3.8,3.8,0,0,1-3.8-3.8V96.2a1.617,1.617,0,1,1,3.234,0v4.042a.553.553,0,0,0,.566.566H76.478a.541.541,0,0,0,.485-.566V96.2a1.617,1.617,0,1,1,3.234,0v4.042A3.727,3.727,0,0,1,76.478,104.046Z" fill="#006fbe" fill-rule="evenodd"/>
      <path id="Path_625" data-name="Path 625" d="M95.557,46.243a1.553,1.553,0,0,1-1.293-.728,1.671,1.671,0,0,1,.4-2.264l3.072-2.1a1.586,1.586,0,0,1,2.264.4,1.56,1.56,0,0,1-.4,2.183l-3.072,2.183A2.3,2.3,0,0,1,95.557,46.243Z" fill="#006fbe" fill-rule="evenodd"/>
      <path id="Path_626" data-name="Path 626" d="M101.944,58.773H97.578a1.572,1.572,0,0,1-1.617-1.617,1.622,1.622,0,0,1,1.617-1.617h4.366a1.622,1.622,0,0,1,1.617,1.617A1.572,1.572,0,0,1,101.944,58.773Z" fill="#006fbe" fill-rule="evenodd"/>
      <path id="Path_627" data-name="Path 627" d="M98.71,73.568a1.554,1.554,0,0,1-.97-.323l-3.072-2.1a1.626,1.626,0,1,1,1.859-2.668L99.6,70.657a1.608,1.608,0,0,1-.889,2.91Z" fill="#006fbe" fill-rule="evenodd"/>
      <path id="Path_628" data-name="Path 628" d="M39.29,73.568A1.553,1.553,0,0,1,38,72.84a1.5,1.5,0,0,1,.4-2.183l3.072-2.183a1.626,1.626,0,1,1,1.859,2.668l-3.072,2.1A1.554,1.554,0,0,1,39.29,73.568Z" fill="#006fbe" fill-rule="evenodd"/>
      <path id="Path_629" data-name="Path 629" d="M40.341,58.773H35.975a1.572,1.572,0,0,1-1.617-1.617,1.622,1.622,0,0,1,1.617-1.617h4.366a1.617,1.617,0,1,1,0,3.234Z" fill="#006fbe" fill-rule="evenodd"/>
      <path id="Path_630" data-name="Path 630" d="M42.362,46.243a1.216,1.216,0,0,1-.889-.323L38.4,43.736a1.57,1.57,0,1,1,1.779-2.587l3.153,2.1a1.671,1.671,0,0,1,.4,2.264A1.588,1.588,0,0,1,42.362,46.243Z" fill="#006fbe" fill-rule="evenodd"/>
      <path id="Path_631" data-name="Path 631" d="M72.921,88.524A1.622,1.622,0,0,1,71.3,86.907V62.25L68.96,59.905,66.7,62.25V86.907a1.617,1.617,0,0,1-3.234,0V61.6a1.6,1.6,0,0,1,.485-1.132l3.88-4.042a1.659,1.659,0,0,1,2.344,0l3.88,4.042a1.6,1.6,0,0,1,.485,1.132v25.3A1.677,1.677,0,0,1,72.921,88.524Z" fill="#006fbe" fill-rule="evenodd"/>
      <path id="Path_632" data-name="Path 632" d="M119,71.3a1.622,1.622,0,0,1-1.617-1.617V57.48A47.927,47.927,0,0,0,112.453,36.3a1.627,1.627,0,0,1,2.91-1.455,51.1,51.1,0,0,1,5.255,22.636V69.768A1.607,1.607,0,0,1,119,71.3Zm-100,0a1.622,1.622,0,0,1-1.617-1.617V57.48a51.1,51.1,0,0,1,5.255-22.636,1.627,1.627,0,0,1,2.91,1.455A47.927,47.927,0,0,0,20.615,57.48V69.687A1.622,1.622,0,0,1,19,71.3Z" fill="#006fbe" fill-rule="evenodd"/>
      <path id="Path_633" data-name="Path 633" d="M111,37.916a5.5,5.5,0,0,1-1.617-.162,7.184,7.184,0,0,1-4.689-3.234,42.435,42.435,0,0,0-71.385,0,7.156,7.156,0,0,1-4.77,3.234,7.106,7.106,0,0,1-5.578-.97A7.571,7.571,0,0,1,20.7,26.355a57.444,57.444,0,0,1,96.608,0,7.644,7.644,0,0,1-2.264,10.429A7.811,7.811,0,0,1,111,37.916ZM68.96,11.8a45.684,45.684,0,0,1,38.4,20.938,4.362,4.362,0,0,0,2.749,1.859,4.011,4.011,0,0,0,3.153-.566,4.237,4.237,0,0,0,1.294-5.9,54.123,54.123,0,0,0-91.111,0,4.287,4.287,0,0,0,1.213,5.9,4.144,4.144,0,0,0,3.234.566,4,4,0,0,0,2.668-1.859A45.788,45.788,0,0,1,68.96,11.8Z" fill="#006fbe" fill-rule="evenodd"/>
      <path id="Path_634" data-name="Path 634" d="M124.418,109.7H113.585a3.881,3.881,0,0,1-3.88-3.88V71.951a3.881,3.881,0,0,1,3.88-3.88h10.833a3.934,3.934,0,0,1,3.88,3.88v33.873A3.934,3.934,0,0,1,124.418,109.7ZM113.585,71.3a.66.66,0,0,0-.647.728v33.793a.638.638,0,0,0,.647.647h10.833a.7.7,0,0,0,.647-.647V71.951a.7.7,0,0,0-.647-.647Z" fill="#006fbe" fill-rule="evenodd"/>
      <path id="Path_635" data-name="Path 635" d="M111.322,105.016H107.6a5.244,5.244,0,0,1-5.255-5.255V77.852A5.244,5.244,0,0,1,107.6,72.6h3.719a1.617,1.617,0,0,1,0,3.234H107.6a2,2,0,0,0-2.021,2.021V99.761a2,2,0,0,0,2.021,2.021h3.719a1.677,1.677,0,0,1,1.617,1.617A1.622,1.622,0,0,1,111.322,105.016Z" fill="#006fbe" fill-rule="evenodd"/>
      <path id="Path_636" data-name="Path 636" d="M24.415,109.7H13.582a3.934,3.934,0,0,1-3.88-3.88V71.951a3.934,3.934,0,0,1,3.88-3.88H24.415a3.881,3.881,0,0,1,3.88,3.88v33.873A3.881,3.881,0,0,1,24.415,109.7ZM13.582,71.3a.713.713,0,0,0-.647.728v33.793a.7.7,0,0,0,.647.647H24.415a.7.7,0,0,0,.647-.647V71.951a.638.638,0,0,0-.647-.647Z" fill="#006fbe" fill-rule="evenodd"/>
      <path id="Path_637" data-name="Path 637" d="M30.316,105.016H26.678a1.617,1.617,0,1,1,0-3.234h3.638a2,2,0,0,0,2.021-2.021V77.852a2,2,0,0,0-2.021-2.021H26.678a1.617,1.617,0,0,1,0-3.234h3.638a5.244,5.244,0,0,1,5.255,5.255V99.761A5.244,5.244,0,0,1,30.316,105.016Z" fill="#006fbe" fill-rule="evenodd"/>
      <path id="Path_638" data-name="Path 638" d="M108.815,130.077H79.954a1.617,1.617,0,0,1,0-3.234h28.861a8.626,8.626,0,0,0,8.569-8.569V108.088A1.622,1.622,0,0,1,119,106.471a1.677,1.677,0,0,1,1.617,1.617v10.186A11.869,11.869,0,0,1,108.815,130.077Z" fill="#006fbe" fill-rule="evenodd"/>
      <path id="Path_639" data-name="Path 639" d="M72.032,138H65.888a9.54,9.54,0,0,1,0-19.079h6.144a9.54,9.54,0,1,1,0,19.079Zm-6.144-15.845a6.306,6.306,0,0,0,0,12.612h6.144a6.306,6.306,0,1,0,0-12.612Z" fill="#006fbe" fill-rule="evenodd"/>
    </g>
  </g>
</svg>
