<svg xmlns="http://www.w3.org/2000/svg" xmlns:xlink="http://www.w3.org/1999/xlink" width="150" height="150" viewBox="0 0 150 150">
  <defs>
    <clipPath id="clip-path">
      <rect id="Rectangle_1162" data-name="Rectangle 1162" width="150" height="150" transform="translate(608 10215)" fill="#e5e5e5"/>
    </clipPath>
  </defs>
  <g id="Mask_Group_177" data-name="Mask Group 177" transform="translate(-608 -10215)" clip-path="url(#clip-path)">
    <g id="legal_9468333" transform="translate(597.285 10203.364)">
      <path id="Path_774" data-name="Path 774" d="M120.131,135.459a2.679,2.679,0,0,0-2.679,2.679V154a2.156,2.156,0,0,1-2.009,2.274H20.211A2.156,2.156,0,0,1,18.2,154V19.267a2.156,2.156,0,0,1,2.009-2.274h70.9v22.15A8.065,8.065,0,0,0,99.171,47.2h18.282V56.13a2.679,2.679,0,0,0,5.357,0V43.993a7.8,7.8,0,0,0-1.767-4.96l-20.4-24.725a7.253,7.253,0,0,0-5.6-2.672H20.211a7.511,7.511,0,0,0-7.366,7.631V154a7.511,7.511,0,0,0,7.366,7.631h95.233A7.511,7.511,0,0,0,122.809,154V138.138A2.679,2.679,0,0,0,120.131,135.459Zm-3.716-93.617H99.171a2.7,2.7,0,0,1-2.7-2.7V17.679c.011.013.024.025.035.038Z" fill="#006fbe"/>
      <path id="Path_775" data-name="Path 775" d="M120.131,80.138a15.133,15.133,0,1,0,15.133,15.133A15.15,15.15,0,0,0,120.131,80.138Zm0,24.908a9.776,9.776,0,1,1,9.776-9.776A9.787,9.787,0,0,1,120.131,105.047Z" fill="#006fbe"/>
      <path id="Path_776" data-name="Path 776" d="M158.15,130.924,144.162,109.45a27.915,27.915,0,1,0-48.063,0L82.112,130.924a2.678,2.678,0,0,0,2.08,4.135l11.462.7,5.945,9.368a2.679,2.679,0,0,0,4.6-.129l12.216-21.874a25.526,25.526,0,0,0,3.43,0L134.062,145a2.678,2.678,0,0,0,2.263,1.371h.076a2.679,2.679,0,0,0,2.261-1.243l5.945-9.368,11.462-.7a2.678,2.678,0,0,0,2.08-4.135Zm-54.436,7.542-4.27-6.728a2.679,2.679,0,0,0-2.1-1.238l-8.236-.506L99.5,114.05a27.952,27.952,0,0,0,13.3,8.151ZM97.573,95.271a22.557,22.557,0,1,1,22.558,22.557A22.583,22.583,0,0,1,97.573,95.271ZM142.914,130.5a2.679,2.679,0,0,0-2.1,1.238l-4.269,6.728L127.464,122.2a27.952,27.952,0,0,0,13.3-8.151l10.385,15.943Z" fill="#006fbe"/>
      <path id="Path_777" data-name="Path 777" d="M91.685,65.816V53.87a2.679,2.679,0,0,0-2.679-2.679H35.877A2.678,2.678,0,0,0,33.2,53.87V65.816a2.678,2.678,0,0,0,2.679,2.679H89.006A2.679,2.679,0,0,0,91.685,65.816Zm-5.357-2.679H38.556V56.549H86.327Z" fill="#006fbe"/>
      <path id="Path_778" data-name="Path 778" d="M84.582,83.821A2.678,2.678,0,0,0,81.9,81.143H35.877a2.679,2.679,0,0,0,0,5.357H81.9A2.678,2.678,0,0,0,84.582,83.821Z" fill="#006fbe"/>
      <path id="Path_779" data-name="Path 779" d="M83.07,104.038a2.678,2.678,0,0,0-2.679-2.679H35.877a2.679,2.679,0,1,0,0,5.357H80.392A2.678,2.678,0,0,0,83.07,104.038Z" fill="#006fbe"/>
      <path id="Path_780" data-name="Path 780" d="M35.877,121.576a2.679,2.679,0,0,0,0,5.357H54.939a2.679,2.679,0,0,0,0-5.357Z" fill="#006fbe"/>
      <circle id="Ellipse_1918" data-name="Ellipse 1918" cx="3.013" cy="3.013" r="3.013" transform="translate(72.05 121.241)" fill="#006fbe"/>
      <circle id="Ellipse_1919" data-name="Ellipse 1919" cx="3.013" cy="3.013" r="3.013" transform="translate(62.675 121.241)" fill="#006fbe"/>
    </g>
  </g>
</svg>
