<svg xmlns="http://www.w3.org/2000/svg" xmlns:xlink="http://www.w3.org/1999/xlink" width="150" height="150" viewBox="0 0 150 150">
  <defs>
    <clipPath id="clip-path">
      <rect id="Rectangle_1161" data-name="Rectangle 1161" width="150" height="150" transform="translate(280 10215)" fill="#0c8aed"/>
    </clipPath>
  </defs>
  <g id="Mask_Group_178" data-name="Mask Group 178" transform="translate(-280 -10215)" clip-path="url(#clip-path)">
    <path id="trustworthiness_18059571" d="M71.174,57.7A26.514,26.514,0,1,0,44.659,31.183,26.545,26.545,0,0,0,71.174,57.7Zm0-49.293A22.781,22.781,0,1,1,48.393,31.183,22.807,22.807,0,0,1,71.174,8.4ZM114.74,96.018a16.527,16.527,0,1,0,16.525,16.528A16.547,16.547,0,0,0,114.74,96.018Zm0,29.319a12.792,12.792,0,1,1,12.791-12.791,12.807,12.807,0,0,1-12.791,12.791Zm26.07-17.807-4.089-4.089V97.658a7.1,7.1,0,0,0-7.092-7.092h-5.782l-2.175-2.175A44.71,44.71,0,0,0,85.023,62.855a1.869,1.869,0,0,0-1.665.762L71.174,80.348,58.99,63.618a1.872,1.872,0,0,0-1.665-.762,44.7,44.7,0,0,0-40.871,44.4v19.2a1.869,1.869,0,0,0,1.867,1.867H92.812a7.11,7.11,0,0,0,5.583,6.05l-5.362,13.258a1.867,1.867,0,0,0,2.2,2.505l5.845-1.528,3.14,5.16a1.863,1.863,0,0,0,1.593.9c.05,0,.1,0,.152-.006a1.869,1.869,0,0,0,1.581-1.161l5.287-13.077a7.046,7.046,0,0,0,3.8,0l5.287,13.077a1.869,1.869,0,0,0,1.581,1.161c.05,0,.1.006.152.006a1.863,1.863,0,0,0,1.593-.9l3.14-5.16,5.845,1.528a1.867,1.867,0,0,0,2.2-2.505l-5.362-13.258a7.1,7.1,0,0,0,5.642-6.943v-5.782l4.089-4.089a7.1,7.1,0,0,0,0-10.033Zm-120.619-.274A41.066,41.066,0,0,1,56.6,66.674L69.664,84.615a1.866,1.866,0,0,0,3.019,0L85.748,66.674a40.938,40.938,0,0,1,29.381,17.748c-.131-.006-.258-.019-.389-.019a7.037,7.037,0,0,0-5.017,2.073l-4.089,4.089H99.852a7.1,7.1,0,0,0-7.092,7.092v5.782l-4.089,4.089a7.1,7.1,0,0,0,0,10.033l4.089,4.089V124.6H38.316V102.855a1.867,1.867,0,0,0-3.735,0v21.738H20.191Zm85.293,41.4-1.93-3.171a1.866,1.866,0,0,0-2.066-.837l-3.591.94,4.472-11.06h3.268l3.959,3.962Zm22.51-4.005a1.864,1.864,0,0,0-2.066.837L124,148.659l-4.114-10.17,3.962-3.962h3.268l4.472,11.06Zm10.177-29.73-4.637,4.637a1.858,1.858,0,0,0-.548,1.32v6.557a3.362,3.362,0,0,1-3.358,3.358h-6.557a1.858,1.858,0,0,0-1.32.548l-4.637,4.637a3.374,3.374,0,0,1-4.749,0l-4.637-4.637a1.871,1.871,0,0,0-1.32-.548H99.852a3.362,3.362,0,0,1-3.358-3.358v-6.557a1.858,1.858,0,0,0-.548-1.32l-4.637-4.637a3.364,3.364,0,0,1,0-4.752l4.637-4.637a1.858,1.858,0,0,0,.548-1.32V97.658A3.362,3.362,0,0,1,99.852,94.3h6.557a1.858,1.858,0,0,0,1.32-.548l4.637-4.637a3.374,3.374,0,0,1,4.749,0l4.637,4.637a1.871,1.871,0,0,0,1.32.548h6.557a3.362,3.362,0,0,1,3.358,3.358v6.557a1.858,1.858,0,0,0,.548,1.32l4.637,4.637a3.36,3.36,0,0,1,0,4.749Zm-15.436-8.144a1.871,1.871,0,0,1,0,2.642l-8.9,8.9a1.863,1.863,0,0,1-2.639,0l-4.45-4.45a1.867,1.867,0,1,1,2.639-2.642l3.131,3.131,7.581-7.581a1.861,1.861,0,0,1,2.639,0Z" transform="translate(275.33 10210.332)" fill="#006fbe"/>
  </g>
</svg>
