<svg xmlns="http://www.w3.org/2000/svg" xmlns:xlink="http://www.w3.org/1999/xlink" width="150" height="150" viewBox="0 0 150 150">
  <defs>
    <clipPath id="clip-path">
      <rect id="Rectangle_1163" data-name="Rectangle 1163" width="150" height="150" transform="translate(953 10215)" fill="#e5e5e5"/>
    </clipPath>
  </defs>
  <g id="Mask_Group_176" data-name="Mask Group 176" transform="translate(-953 -10215)" clip-path="url(#clip-path)">
    <path id="global_16682856" d="M154.781,47.64a9.3,9.3,0,0,0-9.292-9.292,9.185,9.185,0,0,0-2.822.485,75.327,75.327,0,0,0-55.642-33.5c-2.025-.207-4.11-.3-5.985-.3a11.683,11.683,0,0,0-1.895-.01,60.632,60.632,0,0,0-6.207.312A75.185,75.185,0,0,0,16.609,39.95,9.25,9.25,0,0,0,8.842,56.319a74.9,74.9,0,0,0,3.31,55.622c.012.035.027.065.042.1.007.015.012.032.02.047A74.964,74.964,0,0,0,129.04,136.7a9.189,9.189,0,0,0,4.64,1.29,9.3,9.3,0,0,0,9.292-9.292,9.206,9.206,0,0,0-1.785-5.427,74.76,74.76,0,0,0,9.594-68.016,9.276,9.276,0,0,0,4-7.62Zm-5,0a4.292,4.292,0,1,1-4.292-4.292A4.3,4.3,0,0,1,149.782,47.64ZM138.5,41.588a9.182,9.182,0,0,0-2.18,4.885H106.489c-3.087-16.107-8.26-28.566-14.6-35.426A70.385,70.385,0,0,1,138.5,41.588ZM104.494,80a179.117,179.117,0,0,1-2.225,28.523H64.549a9.254,9.254,0,0,0-7.747-6.67A181.793,181.793,0,0,1,55.5,80a179.416,179.416,0,0,1,2.222-28.523h44.55A179.164,179.164,0,0,1,104.5,80Zm29.186,39.415a9.3,9.3,0,0,0-9.292,9.292,9.191,9.191,0,0,0,1.165,4.412A69.693,69.693,0,0,1,91.78,148.982c6.352-6.812,11.564-19.144,14.7-35.463h34.948a69.768,69.768,0,0,1-4.14,6.62,9.221,9.221,0,0,0-3.6-.73Zm-73.806-.162a9.28,9.28,0,0,0,4.677-5.73h36.838C97.017,135.447,88.57,149.992,80,149.992c-7.707,0-15.5-12-20.121-30.743Zm-4.232-12.517a4.292,4.292,0,1,1-4.292,4.292,4.3,4.3,0,0,1,4.292-4.292ZM74.893,11.7A9.044,9.044,0,0,1,79.823,10C79.878,10,79.94,10,80,10h.012a9.187,9.187,0,0,1,5.065,1.687c6.85,4.5,12.872,17.4,16.329,34.786H58.592c3.46-17.369,9.467-30.261,16.3-34.776ZM68.1,11.042C61.767,17.894,56.6,30.356,53.5,46.47H23.366a9.271,9.271,0,0,0-2.372-4.1A70.229,70.229,0,0,1,68.1,11.042ZM14.457,44.675a4.3,4.3,0,0,1,4.292,4.29v.005a4.292,4.292,0,1,1-4.292-4.3Zm-.912,13.492a9.169,9.169,0,0,0,.912.092,9.28,9.28,0,0,0,8.907-6.787h29.3A184.658,184.658,0,0,0,50.5,80a186.819,186.819,0,0,0,1.352,22.564,9.3,9.3,0,0,0-5.115,5.96H16.1a69.414,69.414,0,0,1-2.555-50.352Zm5.04,55.352H46.735a9.258,9.258,0,0,0,8.242,6.73c3.177,13,7.762,22.851,13.159,28.678a70.342,70.342,0,0,1-49.552-35.406ZM133.68,133a4.292,4.292,0,1,1,4.292-4.292A4.3,4.3,0,0,1,133.68,133Zm16.312-53a69.554,69.554,0,0,1-6.08,28.523H107.324A184.663,184.663,0,0,0,109.491,80a184.974,184.974,0,0,0-2.167-28.523h29.721a9.289,9.289,0,0,0,8.442,5.462c.192,0,.372-.045.562-.057A69.457,69.457,0,0,1,149.989,80Z" transform="translate(948.004 10210.011)" fill="#006fbe"/>
  </g>
</svg>
