<svg xmlns="http://www.w3.org/2000/svg" xmlns:xlink="http://www.w3.org/1999/xlink" width="100" height="100" viewBox="0 0 100 100">
  <defs>
    <clipPath id="clip-path">
      <rect id="Rectangle_1188" data-name="Rectangle 1188" width="100" height="100" transform="translate(953 10215)" fill="#e5e5e5"/>
    </clipPath>
  </defs>
  <g id="Mask_Group_181" data-name="Mask Group 181" transform="translate(-953 -10215)" clip-path="url(#clip-path)">
    <path id="global_16682856" d="M104.854,33.423a6.2,6.2,0,0,0-6.195-6.195,6.123,6.123,0,0,0-1.882.323A50.218,50.218,0,0,0,59.683,5.221c-1.35-.138-2.74-.2-3.99-.2a7.789,7.789,0,0,0-1.263-.007,40.421,40.421,0,0,0-4.138.208A50.123,50.123,0,0,0,12.739,28.3,6.167,6.167,0,0,0,7.561,39.209,49.932,49.932,0,0,0,9.768,76.29c.008.023.018.043.028.065s.008.022.013.032A49.976,49.976,0,0,0,87.693,92.8a6.126,6.126,0,0,0,3.093.86,6.2,6.2,0,0,0,6.195-6.195,6.138,6.138,0,0,0-1.19-3.618,49.84,49.84,0,0,0,6.4-45.344,6.184,6.184,0,0,0,2.667-5.08Zm-3.333,0a2.861,2.861,0,1,1-2.861-2.862A2.865,2.865,0,0,1,101.521,33.423ZM94,29.388a6.121,6.121,0,0,0-1.453,3.256H72.659C70.6,21.907,67.153,13.6,62.923,9.028A46.923,46.923,0,0,1,94,29.388ZM71.329,54.993a119.411,119.411,0,0,1-1.483,19.016H44.7a6.169,6.169,0,0,0-5.165-4.446,121.2,121.2,0,0,1-.868-14.569,119.61,119.61,0,0,1,1.482-19.016h29.7a119.442,119.442,0,0,1,1.483,19.016ZM90.787,81.27a6.2,6.2,0,0,0-6.195,6.195,6.128,6.128,0,0,0,.777,2.941,46.462,46.462,0,0,1-22.515,10.578c4.235-4.541,7.71-12.763,9.8-23.642h23.3a46.512,46.512,0,0,1-2.76,4.413,6.147,6.147,0,0,0-2.4-.487Zm-49.2-.108a6.187,6.187,0,0,0,3.118-3.82H69.259C66.345,91.961,60.713,101.657,55,101.657,49.859,101.657,44.662,93.654,41.583,81.162Zm-2.822-8.345A2.862,2.862,0,1,1,35.9,75.679,2.865,2.865,0,0,1,38.761,72.817ZM51.6,9.461a6.029,6.029,0,0,1,3.286-1.128c.037,0,.078,0,.115,0h.008a6.125,6.125,0,0,1,3.376,1.125c4.566,3,8.581,11.6,10.886,23.19H40.728C43.034,21.065,47.039,12.471,51.6,9.461Zm-4.528-.437C42.844,13.592,39.4,21.9,37.336,32.643H17.244a6.181,6.181,0,0,0-1.582-2.732A46.819,46.819,0,0,1,47.067,9.024ZM11.3,31.446a2.864,2.864,0,0,1,2.862,2.86v0A2.862,2.862,0,1,1,11.3,31.443ZM10.7,40.441a6.112,6.112,0,0,0,.608.062,6.187,6.187,0,0,0,5.938-4.525H36.778a123.1,123.1,0,0,0-1.447,19.016,124.546,124.546,0,0,0,.9,15.042,6.2,6.2,0,0,0-3.41,3.973H12.4a46.276,46.276,0,0,1-1.7-33.568Zm3.36,36.9H32.823a6.172,6.172,0,0,0,5.495,4.486c2.118,8.668,5.175,15.234,8.773,19.119a46.9,46.9,0,0,1-33.035-23.6ZM90.787,90.326a2.862,2.862,0,1,1,2.861-2.862A2.865,2.865,0,0,1,90.787,90.326Zm10.874-35.333a46.37,46.37,0,0,1-4.053,19.016H73.216a123.109,123.109,0,0,0,1.445-19.016,123.316,123.316,0,0,0-1.445-19.016H93.03a6.193,6.193,0,0,0,5.628,3.641c.128,0,.248-.03.375-.038a46.3,46.3,0,0,1,2.627,15.412Z" transform="translate(948.003 10210.011)" fill="#006fbe"/>
  </g>
</svg>
