<svg xmlns="http://www.w3.org/2000/svg" xmlns:xlink="http://www.w3.org/1999/xlink" width="100" height="100" viewBox="0 0 100 100">
  <defs>
    <clipPath id="clip-path">
      <rect id="Rectangle_1187" data-name="Rectangle 1187" width="100" height="100" transform="translate(608 10215)" fill="#e5e5e5"/>
    </clipPath>
  </defs>
  <g id="Mask_Group_180" data-name="Mask Group 180" transform="translate(-608 -10215)" clip-path="url(#clip-path)">
    <g id="legal_9468333" transform="translate(609.42 10215)">
      <path id="Path_781" data-name="Path 781" d="M84.369,94.185a1.786,1.786,0,0,0-1.786,1.786v10.578a1.438,1.438,0,0,1-1.339,1.516H17.755a1.438,1.438,0,0,1-1.339-1.516V16.724a1.438,1.438,0,0,1,1.339-1.516h47.27V29.974a5.376,5.376,0,0,0,5.37,5.37H82.583V41.3a1.786,1.786,0,0,0,3.571,0V33.207A5.2,5.2,0,0,0,84.976,29.9l-13.6-16.483a4.836,4.836,0,0,0-3.733-1.781H17.755a5.007,5.007,0,0,0-4.911,5.088v89.825a5.007,5.007,0,0,0,4.911,5.088H81.244a5.007,5.007,0,0,0,4.911-5.088V95.97A1.786,1.786,0,0,0,84.369,94.185ZM81.891,31.773H70.4a1.8,1.8,0,0,1-1.8-1.8V15.665l.023.025Z" transform="translate(-12.845 -11.636)" fill="#006fbe"/>
      <path id="Path_782" data-name="Path 782" d="M115.087,80.138a10.088,10.088,0,1,0,10.088,10.088A10.1,10.1,0,0,0,115.087,80.138Zm0,16.605a6.517,6.517,0,1,1,6.517-6.517A6.524,6.524,0,0,1,115.087,96.744Z" transform="translate(-43.562 -34.47)" fill="#006fbe"/>
      <path id="Path_783" data-name="Path 783" d="M132.659,109.735l-9.325-14.316a18.61,18.61,0,1,0-32.042,0l-9.325,14.316a1.786,1.786,0,0,0,1.387,2.757l7.641.469,3.964,6.246a1.786,1.786,0,0,0,3.067-.086l8.144-14.583a17.017,17.017,0,0,0,2.287,0L116.6,119.12a1.786,1.786,0,0,0,1.509.914h.05a1.786,1.786,0,0,0,1.508-.829l3.963-6.246,7.641-.469a1.786,1.786,0,0,0,1.387-2.757Zm-36.29,5.028-2.846-4.485a1.786,1.786,0,0,0-1.4-.826l-5.491-.337,6.923-10.629a18.635,18.635,0,0,0,8.868,5.434Zm-4.094-28.8A15.038,15.038,0,1,1,107.313,101,15.055,15.055,0,0,1,92.275,85.966ZM122.5,109.452a1.786,1.786,0,0,0-1.4.826l-2.846,4.485L112.2,103.92a18.635,18.635,0,0,0,8.868-5.434l6.923,10.629Z" transform="translate(-35.789 -30.21)" fill="#006fbe"/>
      <path id="Path_784" data-name="Path 784" d="M72.189,60.941V52.978A1.786,1.786,0,0,0,70.4,51.192H34.984A1.786,1.786,0,0,0,33.2,52.978v7.964a1.786,1.786,0,0,0,1.786,1.786H70.4A1.786,1.786,0,0,0,72.189,60.941Zm-3.571-1.786H36.77V54.763H68.618Z" transform="translate(-19.629 -24.821)" fill="#006fbe"/>
      <path id="Path_785" data-name="Path 785" d="M67.454,82.929a1.786,1.786,0,0,0-1.786-1.786H34.984a1.786,1.786,0,0,0,0,3.571H65.668A1.786,1.786,0,0,0,67.454,82.929Z" transform="translate(-19.629 -34.805)" fill="#006fbe"/>
      <path id="Path_786" data-name="Path 786" d="M66.446,103.145a1.786,1.786,0,0,0-1.786-1.786H34.984a1.786,1.786,0,1,0,0,3.571H64.661A1.786,1.786,0,0,0,66.446,103.145Z" transform="translate(-19.629 -41.544)" fill="#006fbe"/>
      <path id="Path_787" data-name="Path 787" d="M34.984,121.576a1.786,1.786,0,1,0,0,3.571H47.692a1.786,1.786,0,1,0,0-3.571Z" transform="translate(-19.629 -48.283)" fill="#006fbe"/>
      <circle id="Ellipse_1955" data-name="Ellipse 1955" cx="2.009" cy="2.009" r="2.009" transform="translate(39.47 73.07)" fill="#006fbe"/>
      <circle id="Ellipse_1956" data-name="Ellipse 1956" cx="2.009" cy="2.009" r="2.009" transform="translate(33.22 73.07)" fill="#006fbe"/>
    </g>
  </g>
</svg>
