<svg xmlns="http://www.w3.org/2000/svg" xmlns:xlink="http://www.w3.org/1999/xlink" width="100" height="100" viewBox="0 0 100 100">
  <defs>
    <clipPath id="clip-path">
      <rect id="Rectangle_1186" data-name="Rectangle 1186" width="100" height="100" transform="translate(280 10215)" fill="#0c8aed"/>
    </clipPath>
  </defs>
  <g id="Mask_Group_179" data-name="Mask Group 179" transform="translate(-280 -10215)" clip-path="url(#clip-path)">
    <path id="trustworthiness_18059571" d="M52.934,40.02A17.676,17.676,0,1,0,35.257,22.345,17.7,17.7,0,0,0,52.934,40.02Zm0-32.862A15.187,15.187,0,1,1,37.747,22.345,15.2,15.2,0,0,1,52.934,7.158Zm29.044,58.41A11.018,11.018,0,1,0,92.995,76.587,11.031,11.031,0,0,0,81.978,65.568Zm0,19.546A8.528,8.528,0,1,1,90.5,76.587a8.538,8.538,0,0,1-8.527,8.527Zm17.38-11.872-2.726-2.726V66.661A4.734,4.734,0,0,0,91.9,61.933H88.049l-1.45-1.45A29.807,29.807,0,0,0,62.166,43.459a1.246,1.246,0,0,0-1.11.508L52.934,55.121,44.811,43.968a1.248,1.248,0,0,0-1.11-.508,29.8,29.8,0,0,0-27.247,29.6v12.8A1.246,1.246,0,0,0,17.7,87.108H67.359a4.74,4.74,0,0,0,3.722,4.033l-3.575,8.838a1.245,1.245,0,0,0,1.469,1.67l3.9-1.019,2.093,3.44a1.242,1.242,0,0,0,1.062.6c.033,0,.066,0,.1,0a1.246,1.246,0,0,0,1.054-.774l3.525-8.718a4.7,4.7,0,0,0,2.535,0l3.525,8.718a1.246,1.246,0,0,0,1.054.774c.033,0,.068,0,.1,0a1.242,1.242,0,0,0,1.062-.6l2.093-3.44,3.9,1.019a1.245,1.245,0,0,0,1.469-1.67L92.87,91.141a4.737,4.737,0,0,0,3.761-4.629V82.657l2.726-2.726a4.735,4.735,0,0,0,0-6.689ZM18.945,73.06A27.377,27.377,0,0,1,43.218,46.005l8.71,11.961a1.244,1.244,0,0,0,2.012,0l8.71-11.961A27.292,27.292,0,0,1,82.237,57.837c-.087,0-.172-.012-.259-.012a4.691,4.691,0,0,0-3.344,1.382l-2.726,2.726H72.052a4.734,4.734,0,0,0-4.728,4.728v3.855L64.6,73.242a4.735,4.735,0,0,0,0,6.689l2.726,2.726V84.62h-36.3V70.126a1.245,1.245,0,0,0-2.49,0V84.618H18.945Zm56.862,27.6-1.286-2.114a1.244,1.244,0,0,0-1.378-.558l-2.394.627,2.981-7.374h2.178l2.639,2.641Zm15.007-2.67a1.243,1.243,0,0,0-1.378.558l-1.286,2.114-2.743-6.78,2.641-2.641h2.178l2.981,7.374ZM97.6,78.17l-3.091,3.091a1.239,1.239,0,0,0-.365.88v4.371A2.241,2.241,0,0,1,91.9,88.751H87.532a1.239,1.239,0,0,0-.88.365l-3.091,3.091a2.249,2.249,0,0,1-3.166,0L77.3,89.116a1.247,1.247,0,0,0-.88-.365H72.052a2.241,2.241,0,0,1-2.239-2.239V82.141a1.239,1.239,0,0,0-.365-.88L66.357,78.17a2.243,2.243,0,0,1,0-3.168l3.091-3.091a1.239,1.239,0,0,0,.365-.88V66.661a2.241,2.241,0,0,1,2.239-2.239h4.371a1.239,1.239,0,0,0,.88-.365l3.091-3.091a2.249,2.249,0,0,1,3.166,0l3.091,3.091a1.247,1.247,0,0,0,.88.365H91.9a2.241,2.241,0,0,1,2.239,2.239v4.371a1.239,1.239,0,0,0,.365.88L97.6,75a2.24,2.24,0,0,1,0,3.166ZM87.308,72.74a1.247,1.247,0,0,1,0,1.761l-5.934,5.934a1.242,1.242,0,0,1-1.759,0l-2.967-2.967a1.245,1.245,0,0,1,1.759-1.761l2.087,2.087,5.054-5.054a1.241,1.241,0,0,1,1.759,0Z" transform="translate(271.402 10210.332)" fill="#006fbe"/>
  </g>
</svg>
