<svg xmlns="http://www.w3.org/2000/svg" xmlns:xlink="http://www.w3.org/1999/xlink" width="100" height="100" viewBox="0 0 100 100">
  <defs>
    <clipPath id="clip-path">
      <rect id="Rectangle_1189" data-name="Rectangle 1189" width="100" height="100" transform="translate(1298 10215)" fill="#e5e5e5"/>
    </clipPath>
  </defs>
  <g id="Mask_Group_182" data-name="Mask Group 182" transform="translate(-1298 -10215)" clip-path="url(#clip-path)">
    <g id="_247_CS" data-name="247 CS" transform="translate(1303.88 10215)">
      <path id="Path_788" data-name="Path 788" d="M102.312,60.789V53.048A36,36,0,0,0,91.448,27.281l.115-.122a3.454,3.454,0,0,0-.254-5.132,40.449,40.449,0,0,0-49.974,0,3.454,3.454,0,0,0-.254,5.133l.118.118A36,36,0,0,0,30.33,53.048v7.743A13.59,13.59,0,0,0,22.2,72.719l0,9.706A13.359,13.359,0,0,0,36.069,95.544h.176a5.787,5.787,0,0,0,5.9-5.272V64.552a5.268,5.268,0,0,0-5.483-5.214,15.506,15.506,0,0,0-2.65.268V53.048a32.283,32.283,0,0,1,9.832-23.143,3.452,3.452,0,0,0,4.552.128,28.062,28.062,0,0,1,35.831-.014,3.478,3.478,0,0,0,4.555-.128A32.283,32.283,0,0,1,98.63,53.048v6.557a15.512,15.512,0,0,0-2.647-.267A5.267,5.267,0,0,0,90.5,64.525V90.3a5.785,5.785,0,0,0,5.9,5.246h.176c.224,0,.445-.022.667-.032a18.955,18.955,0,0,1-12.89,10.1,5.524,5.524,0,0,0-5.036-3.277H68.271c-7.3,0-7.3,11.048,0,11.048H79.318a5.515,5.515,0,0,0,5.291-4.024A22.879,22.879,0,0,0,101.65,94.64a12.836,12.836,0,0,0,8.792-12.189l0-9.758a13.574,13.574,0,0,0-8.131-11.9ZM36.706,63.021h.024a1.6,1.6,0,0,1,1.733,1.5v25.72c-.01.7-1.076,1.6-2.262,1.616a9.7,9.7,0,0,1-10.315-9.41l0-9.706c.075-5.293,4.93-9.655,10.821-9.724ZM86.424,27.059a31.733,31.733,0,0,0-40.222.014l-2.4-2.306a36.776,36.776,0,0,1,44.981-.04C87.705,25.809,87.334,26.189,86.424,27.059ZM79.318,109.7H68.271a1.841,1.841,0,1,1,0-3.683H79.318a1.841,1.841,0,1,1,0,3.683Zm27.441-27.226a9.7,9.7,0,0,1-10.315,9.384c-1.186-.013-2.252-.914-2.262-1.59V64.5a1.606,1.606,0,0,1,1.733-1.477h.024c5.892.069,10.746,4.432,10.821,9.7Z" transform="translate(-22.202 -13.386)" fill="#006fbe"/>
      <path id="Path_789" data-name="Path 789" d="M78.049,71.776H65.621a1.843,1.843,0,0,1-.826-3.487c5.771-2.9,11.374-7.607,10.036-11.094-1.175-3.061-6.131-2.279-7.684.151a1.842,1.842,0,1,1-3.1-1.983c3.114-4.872,11.895-5.556,14.225.513,1.876,4.887-2.1,9.254-6.108,12.219h5.885a1.841,1.841,0,0,1,0,3.683Z" transform="translate(-36.052 -26.096)" fill="#006fbe"/>
      <path id="Path_790" data-name="Path 790" d="M99.447,69.94V65.611H91.507a1.843,1.843,0,0,1-1.341-3.1l9.782-10.4a1.843,1.843,0,0,1,3.183,1.261v8.56h.46a1.841,1.841,0,0,1,0,3.683h-.46V69.94a1.841,1.841,0,0,1-3.683,0Zm-3.682-8.012h3.682V58.013Z" transform="translate(-44.691 -26.1)" fill="#006fbe"/>
      <path id="Path_791" data-name="Path 791" d="M95.476,89.733H64.059a1.841,1.841,0,0,1,0-3.683H95.476a1.841,1.841,0,0,1,0,3.683Z" transform="translate(-35.541 -37.607)" fill="#006fbe"/>
      <path id="Path_792" data-name="Path 792" d="M79.629,113.248,87.194,99.4h-8.98a1.841,1.841,0,1,1,0-3.683H90.3a1.843,1.843,0,0,1,1.616,2.724L82.86,115.013a1.841,1.841,0,1,1-3.231-1.766Z" transform="translate(-40.259 -40.83)" fill="#006fbe"/>
    </g>
  </g>
</svg>
