<svg xmlns="http://www.w3.org/2000/svg" xmlns:xlink="http://www.w3.org/1999/xlink" width="138" height="138" viewBox="0 0 138 138">
  <defs>
    <clipPath id="clip-path">
      <rect id="Rectangle_358" data-name="Rectangle 358" width="138" height="138" transform="translate(1246 1357)" fill="#0c8ad4" stroke="#0c8ad4" stroke-width="1"/>
    </clipPath>
    <clipPath id="clip-path-2">
      <path id="path855" d="M0-138H138V0H0Z" fill="#0c8ad4"/>
    </clipPath>
  </defs>
  <g id="Mask_Group_90" data-name="Mask Group 90" transform="translate(-1246 -1357)" clip-path="url(#clip-path)">
    <g id="g849" transform="translate(1246 1495)">
      <g id="g851">
        <g id="g853" clip-path="url(#clip-path-2)">
          <g id="g859" transform="translate(83.837 -76.26)">
            <path id="path861" d="M0,0A6.243,6.243,0,0,1-6.243,6.243h-6.128" fill="none" stroke="#0c8ad4" stroke-linecap="round" stroke-linejoin="round" stroke-miterlimit="10" stroke-width="4.043"/>
          </g>
          <g id="g863" transform="translate(109.268 -125.899)">
            <path id="path865" d="M0,0H17.652" fill="none" stroke="#0c8ad4" stroke-linecap="round" stroke-linejoin="round" stroke-miterlimit="10" stroke-width="4.043"/>
          </g>
          <g id="g867" transform="translate(99.244 -125.899)">
            <path id="path869" d="M0,0H2.151" fill="none" stroke="#0c8ad4" stroke-linecap="round" stroke-linejoin="round" stroke-miterlimit="10" stroke-width="4.043"/>
          </g>
          <g id="g871" transform="translate(99.244 -116.395)">
            <path id="path873" d="M0,0H27.677" fill="none" stroke="#0c8ad4" stroke-linecap="round" stroke-linejoin="round" stroke-miterlimit="10" stroke-width="4.043"/>
          </g>
          <g id="g875" transform="translate(12.47 -18.39)">
            <path id="path877" d="M0,0,.41,7.553" fill="none" stroke="#0c8ad4" stroke-linecap="round" stroke-linejoin="round" stroke-miterlimit="10" stroke-width="4.043"/>
          </g>
          <g id="g879" transform="translate(95.404 -10.837)">
            <path id="path881" d="M0,0,2-36.939a6.21,6.21,0,0,0-6.2-6.547H-78.328a6.21,6.21,0,0,0-6.2,6.547l1.084,19.963" fill="none" stroke="#0c8ad4" stroke-linecap="round" stroke-linejoin="round" stroke-miterlimit="10" stroke-width="4.043"/>
          </g>
          <g id="g883" transform="translate(101.911 -10.837)">
            <path id="path885" d="M0,0H-95.54a4.35,4.35,0,0,0-4.35,4.35A4.35,4.35,0,0,0-95.54,8.7H0A4.35,4.35,0,0,0,4.35,4.35,4.35,4.35,0,0,0,0,0Z" fill="none" stroke="#0c8ad4" stroke-linecap="round" stroke-linejoin="round" stroke-miterlimit="10" stroke-width="4.043"/>
          </g>
          <g id="g887" transform="translate(104.744 -9.784)">
            <path id="path889" d="M0,0A8.234,8.234,0,0,0,.043-.84V-10.881A29.92,29.92,0,0,0-7.715-31" fill="none" stroke="#0c8ad4" stroke-linecap="round" stroke-linejoin="round" stroke-miterlimit="10" stroke-width="4.043"/>
          </g>
          <g id="g891" transform="translate(11.254 -40.783)">
            <path id="path893" d="M0,0A29.92,29.92,0,0,0-7.758,20.117V30.159a8.31,8.31,0,0,0,.043.84" fill="none" stroke="#0c8ad4" stroke-linecap="round" stroke-linejoin="round" stroke-miterlimit="10" stroke-width="4.043"/>
          </g>
          <g id="g895" transform="translate(59.637 -10.837)">
            <path id="path897" d="M0,0V-.243A14.415,14.415,0,0,1,3.721-9.884l.053-.06a12.292,12.292,0,0,0,3.137-8.219A12.334,12.334,0,0,0,.658-28.9,1.06,1.06,0,0,0-.93-27.98V-18.8a2.786,2.786,0,0,1-2.786,2.786H-7.14A2.786,2.786,0,0,1-9.926-18.8V-27.98a1.061,1.061,0,0,0-1.588-.918,12.334,12.334,0,0,0-6.252,10.735A12.289,12.289,0,0,0-14.63-9.944l.053.06A14.415,14.415,0,0,1-10.856-.243V0" fill="none" stroke="#0c8ad4" stroke-linecap="round" stroke-linejoin="round" stroke-miterlimit="10" stroke-width="4.043"/>
          </g>
          <g id="g899" transform="translate(71.188 -71.805)">
            <path id="path901" d="M0,0A21.084,21.084,0,0,0,4.129-12.239V-25.65A19.867,19.867,0,0,1-5.854-37.466a1.123,1.123,0,0,0-2.052-.2c-4.6,8.279-13.759,12.013-24.307,12.013h-6.009v13.411A21.18,21.18,0,0,0-17.047,8.62,21.071,21.071,0,0,0-5.193,4.99" fill="none" stroke="#0c8ad4" stroke-linecap="round" stroke-linejoin="round" stroke-miterlimit="10" stroke-width="4.043"/>
          </g>
          <g id="g903" transform="translate(67.966 -66.814)">
            <path id="path905" d="M0,0H-5.12A3.537,3.537,0,0,1-8.657-3.537,3.537,3.537,0,0,1-5.12-7.074H0A3.537,3.537,0,0,1,3.537-3.537,3.537,3.537,0,0,1,0,0Z" fill="none" stroke="#0c8ad4" stroke-linecap="round" stroke-linejoin="round" stroke-miterlimit="10" stroke-width="4.043"/>
          </g>
          <g id="g907" transform="translate(74.987 -80.635)">
            <path id="path909" d="M0,0H6.876A4.228,4.228,0,0,0,11.1-4.228v-8.363a4.228,4.228,0,0,0-4.228-4.228H.33" fill="none" stroke="#0c8ad4" stroke-linecap="round" stroke-linejoin="round" stroke-miterlimit="10" stroke-width="4.043"/>
          </g>
          <g id="g911" transform="translate(32.966 -97.454)">
            <path id="path913" d="M0,0H-6.546a4.228,4.228,0,0,0-4.228,4.228v8.363a4.228,4.228,0,0,0,4.228,4.228H.33" fill="none" stroke="#0c8ad4" stroke-linecap="round" stroke-linejoin="round" stroke-miterlimit="10" stroke-width="4.043"/>
          </g>
          <g id="g915" transform="translate(68.464 -54.323)">
            <path id="path917" d="M0,0A5.627,5.627,0,0,1-3.547-5.223v-6.585" fill="none" stroke="#0c8ad4" stroke-linecap="round" stroke-linejoin="round" stroke-miterlimit="10" stroke-width="4.043"/>
          </g>
          <g id="g919" transform="translate(43.366 -66.131)">
            <path id="path921" d="M0,0V6.585a5.626,5.626,0,0,1-3.547,5.223" fill="none" stroke="#0c8ad4" stroke-linecap="round" stroke-linejoin="round" stroke-miterlimit="10" stroke-width="4.043"/>
          </g>
          <g id="g923" transform="translate(83.838 -54.323)">
            <path id="path925" d="M0,0C0-7.323,0-17.985-.006-26.8" fill="none" stroke="#0c8ad4" stroke-linecap="round" stroke-linejoin="round" stroke-miterlimit="10" stroke-width="4.043"/>
          </g>
          <g id="g927" transform="translate(24.45 -81.123)">
            <path id="path929" d="M0,0C0,8.816,0,19.478-.006,26.8" fill="none" stroke="#0c8ad4" stroke-linecap="round" stroke-linejoin="round" stroke-miterlimit="10" stroke-width="4.043"/>
          </g>
          <g id="g931" transform="translate(135.979 -125.433)">
            <path id="path933" d="M0,0V-4.547A5.883,5.883,0,0,0-5.883-10.43H-39.909a5.883,5.883,0,0,0-5.883,5.883V12.471a5.883,5.883,0,0,0,5.883,5.883,3.436,3.436,0,0,1,3.436,3.436V32.314a1.317,1.317,0,0,0,2.447.677l7.777-12.968A3.436,3.436,0,0,1-23.3,18.354h17.42A5.883,5.883,0,0,0,0,12.471V9.458" fill="none" stroke="#0c8ad4" stroke-linecap="round" stroke-linejoin="round" stroke-miterlimit="10" stroke-width="4.043"/>
          </g>
          <g id="g935" transform="translate(83.828 -96.968)">
            <path id="path937" d="M0,0A29.687,29.687,0,0,0-29.686-29.566,29.687,29.687,0,0,0-59.372,0" fill="none" stroke="#0c8ad4" stroke-linecap="round" stroke-linejoin="round" stroke-miterlimit="10" stroke-width="4.043"/>
          </g>
        </g>
      </g>
    </g>
  </g>
</svg>
