<svg xmlns="http://www.w3.org/2000/svg" xmlns:xlink="http://www.w3.org/1999/xlink" width="138" height="138" viewBox="0 0 138 138">
  <defs>
    <clipPath id="clip-path">
      <rect id="Rectangle_357" data-name="Rectangle 357" width="138" height="138" transform="translate(732 1357)" fill="#0c8ad4" stroke="#707070" stroke-width="1"/>
    </clipPath>
  </defs>
  <g id="Mask_Group_89" data-name="Mask Group 89" transform="translate(-732 -1357)" clip-path="url(#clip-path)">
    <path id="quality-assurance_12166608" d="M129.213,16.13a123.742,123.742,0,0,0-118.235,0,1.643,1.643,0,0,0-.856,1.442v66.19c0,36.485,45.579,51.533,59.548,55.276a1.639,1.639,0,0,0,.85,0c13.969-3.743,59.548-18.791,59.548-55.276V17.572a1.643,1.643,0,0,0-.856-1.442Zm-2.43,67.632c0,33.793-42.817,48.214-56.687,51.988-13.871-3.774-56.688-18.194-56.688-51.988V18.552a120.468,120.468,0,0,1,113.375,0ZM19.805,21.429a1.643,1.643,0,0,0-.922,1.476V83.763c0,11.544,5.959,21.845,17.711,30.62,11.445,8.545,25.617,13.413,33.046,15.555a1.642,1.642,0,0,0,.91,0c7.429-2.141,21.6-7.01,33.045-15.555,11.752-8.774,17.711-19.076,17.711-30.62V22.906a1.643,1.643,0,0,0-.922-1.476,115.063,115.063,0,0,0-100.579,0Zm98.216,62.334c0,10.45-5.515,19.866-16.391,27.987-10.8,8.063-24.21,12.754-31.535,14.9-7.326-2.143-20.736-6.835-31.535-14.9-10.876-8.12-16.391-17.536-16.391-27.987V23.937a111.8,111.8,0,0,1,95.852,0ZM61.729,22.676V24.7a29.8,29.8,0,0,0-6.1,2.531L54.189,25.8a4,4,0,0,0-5.651,0L42.357,31.98a4,4,0,0,0,0,5.651l1.436,1.436a29.783,29.783,0,0,0-2.531,6.1H39.234a4,4,0,0,0-4,4v8.741a4,4,0,0,0,4,4h2.027a29.815,29.815,0,0,0,2.531,6.1l-1.436,1.436a4,4,0,0,0,0,5.651l4.99,4.99-6.771,25.269a1.643,1.643,0,0,0,2.012,2.012l10.276-2.754,7.523,7.523a1.643,1.643,0,0,0,2.748-.737l6.164-23h1.59l6.164,23a1.643,1.643,0,0,0,2.749.737l7.523-7.523L97.6,107.365a1.643,1.643,0,0,0,2.012-2.012L92.843,80.084l4.99-4.99a4,4,0,0,0,0-5.651L96.4,68.007a29.808,29.808,0,0,0,2.531-6.1h2.029a4,4,0,0,0,4-4V49.167a4,4,0,0,0-4-4H98.927a29.817,29.817,0,0,0-2.531-6.1l1.436-1.436a4,4,0,0,0,0-5.651l-6.18-6.18A4,4,0,0,0,86,25.8l-1.435,1.436a29.824,29.824,0,0,0-6.1-2.531V22.676a4,4,0,0,0-4-4H65.725a4,4,0,0,0-4,4ZM60.7,107.8l-6.182-6.182a1.642,1.642,0,0,0-1.587-.425l-8.444,2.262,5.679-21.194a4.015,4.015,0,0,0,1.2.183,3.97,3.97,0,0,0,2.826-1.169l1.436-1.437a29.814,29.814,0,0,0,6.1,2.531V84.4a4,4,0,0,0,4,4H65.9l-5.2,19.4Zm35-4.344-8.444-2.262a1.644,1.644,0,0,0-1.587.425L79.491,107.8l-5.2-19.4h.174a4,4,0,0,0,4-4V82.371a29.794,29.794,0,0,0,6.1-2.531L86,81.275a3.969,3.969,0,0,0,2.826,1.169,4.015,4.015,0,0,0,1.2-.183L95.7,103.455ZM75.176,22.676v3.29a1.643,1.643,0,0,0,1.255,1.6,26.548,26.548,0,0,1,7.549,3.13A1.644,1.644,0,0,0,86,30.451l2.328-2.328a.712.712,0,0,1,1.005,0l6.18,6.18a.715.715,0,0,1,0,1L93.18,37.637a1.643,1.643,0,0,0-.242,2.016A26.556,26.556,0,0,1,96.068,47.2a1.643,1.643,0,0,0,1.6,1.255h3.291a.711.711,0,0,1,.711.711v8.741a.711.711,0,0,1-.711.711H97.665a1.643,1.643,0,0,0-1.6,1.255,26.54,26.54,0,0,1-3.13,7.548,1.643,1.643,0,0,0,.241,2.016l2.33,2.33a.715.715,0,0,1,0,1l-6.18,6.18a.712.712,0,0,1-1.005,0L86,76.623a1.642,1.642,0,0,0-2.016-.241,26.54,26.54,0,0,1-7.549,3.13,1.643,1.643,0,0,0-1.255,1.6V84.4a.711.711,0,0,1-.711.71H65.725a.711.711,0,0,1-.71-.71V81.107a1.643,1.643,0,0,0-1.255-1.6,26.548,26.548,0,0,1-7.548-3.13,1.643,1.643,0,0,0-2.016.241l-2.329,2.33a.712.712,0,0,1-1.005,0l-6.18-6.18a.711.711,0,0,1,0-1l2.328-2.328a1.643,1.643,0,0,0,.242-2.016,26.548,26.548,0,0,1-3.13-7.549,1.643,1.643,0,0,0-1.6-1.255h-3.29a.711.711,0,0,1-.711-.711V49.166a.711.711,0,0,1,.711-.711h3.29a1.643,1.643,0,0,0,1.6-1.255,26.524,26.524,0,0,1,3.13-7.549,1.643,1.643,0,0,0-.242-2.017l-2.328-2.328a.711.711,0,0,1,0-1l6.18-6.18a.712.712,0,0,1,1.005,0L54.2,30.451a1.642,1.642,0,0,0,2.016.241,26.552,26.552,0,0,1,7.548-3.129,1.643,1.643,0,0,0,1.255-1.6V22.675a.711.711,0,0,1,.71-.71h8.741a.711.711,0,0,1,.711.71ZM50.229,53.537A19.866,19.866,0,1,0,70.1,33.671,19.889,19.889,0,0,0,50.229,53.537ZM70.1,36.957A16.581,16.581,0,1,1,53.515,53.537,16.6,16.6,0,0,1,70.1,36.957ZM61.042,55.564a1.643,1.643,0,1,1,2.615-1.989l3.333,4.382,9.544-12.549A1.643,1.643,0,1,1,79.149,47.4L68.3,61.665a1.642,1.642,0,0,1-2.615,0l-4.64-6.1Z" transform="translate(730.905 1355.905)" fill="#0c8ad4"/>
  </g>
</svg>
