<svg xmlns="http://www.w3.org/2000/svg" xmlns:xlink="http://www.w3.org/1999/xlink" width="138" height="138" viewBox="0 0 138 138">
  <defs>
    <clipPath id="clip-path">
      <rect id="Rectangle_356" data-name="Rectangle 356" width="138" height="138" transform="translate(280 1357)" fill="#0c8ad4" stroke="#707070" stroke-width="1"/>
    </clipPath>
  </defs>
  <g id="Mask_Group_88" data-name="Mask Group 88" transform="translate(-280 -1357)" clip-path="url(#clip-path)">
    <g id="certificate_17690049" transform="translate(275.4 1352.4)">
      <path id="Path_8" data-name="Path 8" d="M19.987,142.6H127.213a2.3,2.3,0,0,0,2.3-2.3V35.7c0-.051-.025-.1-.03-.149a2.243,2.243,0,0,0-.11-.566c-.016-.053-.014-.106-.035-.159a.914.914,0,0,0-.051-.078,2.293,2.293,0,0,0-.451-.674l-28.794-28.8a2.231,2.231,0,0,0-.676-.451c-.028-.014-.048-.037-.076-.048-.048-.021-.1-.016-.152-.035a2.175,2.175,0,0,0-.58-.113c-.048,0-.092-.028-.14-.028H19.987a2.3,2.3,0,0,0-2.3,2.3V140.3a2.3,2.3,0,0,0,2.3,2.3ZM121.661,33.4H100.717V12.452ZM22.287,9.2h73.83V35.7a2.3,2.3,0,0,0,2.3,2.3h26.5V138H22.287Z" fill="#0c8ad4"/>
      <path id="Path_9" data-name="Path 9" d="M76.785,85.371a6.964,6.964,0,0,0,5.053-6.778,7.1,7.1,0,0,0-5.032-6.771,2.511,2.511,0,0,1-1.58-1.442,2.426,2.426,0,0,1,.009-1.881,2.436,2.436,0,0,0,.136-.225,7.03,7.03,0,0,0-.2-6.958,7.155,7.155,0,0,0-9.412-2.636,2.494,2.494,0,0,1-3.56-1.447,7.083,7.083,0,0,0-13.547-.028,2.512,2.512,0,0,1-2.408,1.759,2.374,2.374,0,0,1-1.157-.285,6.988,6.988,0,0,0-6.93.154,7.166,7.166,0,0,0-3.5,6.086,7.362,7.362,0,0,0,.869,3.4,2.3,2.3,0,0,1,.262,1.092,2.512,2.512,0,0,1-1.748,2.406,7.072,7.072,0,0,0,.014,13.549A2.524,2.524,0,0,1,35.795,87.8a2.393,2.393,0,0,1-.283,1.157,6.637,6.637,0,0,0-.791,3.859,7.13,7.13,0,0,0,5.755,6.415v26.832a2.3,2.3,0,0,0,3.609,1.893l11.339-7.85,11.314,7.85a2.3,2.3,0,0,0,3.611-1.891V99.236a7.093,7.093,0,0,0,2.912-1.251,7.014,7.014,0,0,0,2.882-5.035,6.722,6.722,0,0,0-.777-3.991,2.1,2.1,0,0,0-.126-.209,2.384,2.384,0,0,1-.184-.948,2.525,2.525,0,0,1,1.732-2.426ZM56.734,115.414a2.3,2.3,0,0,0-2.62,0l-9.039,6.258V98.544l.021-.012a2.494,2.494,0,0,1,3.551,1.451A7.081,7.081,0,0,0,62.194,100a2.5,2.5,0,0,1,2.381-1.778,2.408,2.408,0,0,1,.922.2c.083.035.168.055.251.1v23.138l-9.011-6.254ZM70.454,87.8a6.955,6.955,0,0,0,.826,3.321,1.932,1.932,0,0,0,.122.2,2.189,2.189,0,0,1,.166,1.168,2.509,2.509,0,0,1-1.033,1.787,2.375,2.375,0,0,1-1.925.442,2.887,2.887,0,0,1-.683-.244A7.061,7.061,0,0,0,57.8,98.652a2.483,2.483,0,0,1-4.756-.018,7.065,7.065,0,0,0-10.12-4.156,2.874,2.874,0,0,1-.632.221l-.046.014a2.41,2.41,0,0,1-.524.046A2.548,2.548,0,0,1,39.3,92.384a2.143,2.143,0,0,1,.271-1.26,6.94,6.94,0,0,0,.823-3.321,7.067,7.067,0,0,0-5.007-6.831A2.363,2.363,0,0,1,33.608,78.6a2.432,2.432,0,0,1,1.812-2.383,7.1,7.1,0,0,0,4.973-6.8,6.776,6.776,0,0,0-.81-3.266,2.713,2.713,0,0,1-.322-1.23,2.573,2.573,0,0,1,1.267-2.141,2.31,2.31,0,0,1,2.364-.055,6.9,6.9,0,0,0,3.351.842,7.107,7.107,0,0,0,6.8-5,2.483,2.483,0,0,1,4.754.018,7.091,7.091,0,0,0,10.088,4.172,2.491,2.491,0,0,1,3.346.943,2.4,2.4,0,0,1,.156,2.229,1.694,1.694,0,0,0-.117.2,7.074,7.074,0,0,0,4.151,10.09A2.456,2.456,0,0,1,77.234,78.6a2.408,2.408,0,0,1-1.787,2.376,7.065,7.065,0,0,0-5,6.829Z" fill="#0c8ad4"/>
      <path id="Path_10" data-name="Path 10" d="M55.034,65.824A12.774,12.774,0,1,0,67.809,78.6,12.789,12.789,0,0,0,55.034,65.824Zm0,20.946A8.174,8.174,0,1,1,63.209,78.6a8.183,8.183,0,0,1-8.174,8.174Z" fill="#0c8ad4"/>
      <path id="Path_11" data-name="Path 11" d="M31.31,45.777H88.069a2.3,2.3,0,0,0,2.3-2.3V17.88a2.3,2.3,0,0,0-2.3-2.3H31.31a2.3,2.3,0,0,0-2.3,2.3v25.6a2.3,2.3,0,0,0,2.3,2.3Zm2.3-25.6H85.769v21H33.61Z" fill="#0c8ad4"/>
      <path id="Path_12" data-name="Path 12" d="M115.444,52.208H80.5a2.3,2.3,0,1,0,0,4.6h34.944a2.3,2.3,0,0,0,0-4.6Z" fill="#0c8ad4"/>
      <path id="Path_13" data-name="Path 13" d="M115.444,64.1H86.064a2.3,2.3,0,1,0,0,4.6h29.38a2.3,2.3,0,0,0,0-4.6Z" fill="#0c8ad4"/>
      <path id="Path_14" data-name="Path 14" d="M115.444,76H89.4a2.3,2.3,0,0,0,0,4.6h26.041a2.3,2.3,0,0,0,0-4.6Z" fill="#0c8ad4"/>
      <path id="Path_15" data-name="Path 15" d="M115.444,87.895H86.064a2.3,2.3,0,1,0,0,4.6h29.38a2.3,2.3,0,0,0,0-4.6Z" fill="#0c8ad4"/>
      <path id="Path_16" data-name="Path 16" d="M115.444,99.792H80.5a2.3,2.3,0,0,0,0,4.6h34.944a2.3,2.3,0,0,0,0-4.6Z" fill="#0c8ad4"/>
      <path id="Path_17" data-name="Path 17" d="M115.444,111.688H80.5a2.3,2.3,0,1,0,0,4.6h34.944a2.3,2.3,0,0,0,0-4.6Z" fill="#0c8ad4"/>
      <path id="Path_18" data-name="Path 18" d="M115.444,123.584H80.5a2.3,2.3,0,1,0,0,4.6h34.944a2.3,2.3,0,0,0,0-4.6Z" fill="#0c8ad4"/>
    </g>
  </g>
</svg>
