<svg xmlns="http://www.w3.org/2000/svg" xmlns:xlink="http://www.w3.org/1999/xlink" width="138" height="138" viewBox="0 0 138 138">
  <defs>
    <clipPath id="clip-path">
      <rect id="Rectangle_360" data-name="Rectangle 360" width="138" height="138" transform="translate(280 1595)" fill="#0c8ad4" stroke="#707070" stroke-width="1"/>
    </clipPath>
  </defs>
  <g id="Mask_Group_91" data-name="Mask Group 91" transform="translate(-280 -1595)" clip-path="url(#clip-path)">
    <g id="idea_1472086" transform="translate(280 1595)">
      <path id="Path_19" data-name="Path 19" d="M13.355,111.291A13.355,13.355,0,1,0,26.71,97.936,13.369,13.369,0,0,0,13.355,111.291Zm13.355-8.9a8.9,8.9,0,1,1-8.9,8.9A8.912,8.912,0,0,1,26.71,102.388Zm0,0" fill="#0c8ad4"/>
      <path id="Path_20" data-name="Path 20" d="M129.1,111.291H106.838a4.456,4.456,0,0,1-4.452-4.452v-4.59a20.011,20.011,0,0,0,16.683-13.329,6.629,6.629,0,0,0,3.84-11.017,6.583,6.583,0,0,0-.579-9.466A37.942,37.942,0,0,0,138,37.84a37.739,37.739,0,0,0-66.949-24,15.758,15.758,0,0,0-12.787-2.168A20.018,20.018,0,0,0,20.184,22.437a13.346,13.346,0,0,0,2.074,26.531H64A37.671,37.671,0,0,0,77.99,68.44a6.581,6.581,0,0,0-.576,9.464,6.628,6.628,0,0,0,3.84,11.017A20.011,20.011,0,0,0,97.935,102.25v4.59a8.913,8.913,0,0,0,8.9,8.9H129.1a4.452,4.452,0,1,1,0,8.9H71.225a4.456,4.456,0,0,1-4.452-4.452V80.13a8.912,8.912,0,0,0-8.9-8.9H33.387a8.913,8.913,0,0,0-8.9,8.9v4.452H20.558l-1.6,5.843c-.51.191-1.019.405-1.525.637l-5.263-3.007-8.7,8.7,3.007,5.265q-.347.758-.637,1.525L0,105.138v12.3l5.843,1.6c.192.51.405,1.019.637,1.525l-3.007,5.263,8.7,8.7,5.263-3.007c.505.231,1.013.446,1.525.637l1.6,5.845h12.3l1.6-5.843c.509-.191,1.018-.405,1.524-.637l5.265,3.007,8.7-8.7-3.006-5.263q.347-.758.636-1.525l5.845-1.6v-12.3l-5.843-1.6c-.191-.51-.4-1.019-.636-1.525l3.007-5.265-8.7-8.7-5.265,3.007c-.5-.231-1.012-.446-1.524-.637l-1.6-5.845H28.935V80.13a4.456,4.456,0,0,1,4.452-4.452H57.871a4.456,4.456,0,0,1,4.452,4.452v40.064a8.913,8.913,0,0,0,8.9,8.9H129.1a8.9,8.9,0,1,0,0-17.806ZM80.129,73.452a2.227,2.227,0,0,1,2.226-2.226h35.613a2.226,2.226,0,0,1,0,4.452H82.354A2.227,2.227,0,0,1,80.129,73.452ZM95.416,26.711l4.745-7.116,4.746,7.116Zm-1.932,4.452h4.452v8.9h4.452v-8.9h4.452V66.775h-4.452V44.517H97.935V66.775H93.483ZM22.258,44.517a8.9,8.9,0,1,1,8.9-8.9h4.452A13.37,13.37,0,0,0,24.7,22.493a15.565,15.565,0,0,1,30.159-7.321l.766,2.326,2.243-.981a11.266,11.266,0,0,1,10.562.919,37.238,37.238,0,0,0-6.054,18.346,38.076,38.076,0,0,0,.556,8.737H22.258Zm44.565-8.5A33.642,33.642,0,0,1,98.559,4.491,33.392,33.392,0,0,1,133.548,37.84a33.507,33.507,0,0,1-16.7,28.884l-.089.051H111.29V28.261L100.161,11.568,89.032,28.261V66.775H83.559l-.089-.051A33.306,33.306,0,0,1,66.823,36.017ZM82.354,80.13h35.613a2.226,2.226,0,0,1,0,4.452H82.354a2.226,2.226,0,0,1,0-4.452Zm3.773,8.9h28.067a15.512,15.512,0,0,1-28.067,0ZM30.8,93.914l1.166.359a17.78,17.78,0,0,1,3.05,1.273l1.079.575L40.5,93.6l3.891,3.891L41.876,101.9l.575,1.08a17.479,17.479,0,0,1,1.273,3.049l.359,1.167,4.885,1.341v5.5l-4.881,1.338-.359,1.166a17.658,17.658,0,0,1-1.273,3.05l-.574,1.079,2.515,4.407-3.891,3.891L36.1,126.459l-1.079.574a17.53,17.53,0,0,1-3.05,1.274l-1.166.359-1.342,4.883h-5.5l-1.338-4.881-1.166-.359a17.7,17.7,0,0,1-3.05-1.274l-1.079-.574-4.407,2.515-3.891-3.891,2.515-4.407-.574-1.079a17.58,17.58,0,0,1-1.274-3.05l-.358-1.166-4.884-1.342v-5.5L9.334,107.2l.358-1.167a17.654,17.654,0,0,1,1.274-3.049l.574-1.08L9.024,97.5l3.891-3.891,4.407,2.516,1.079-.575a17.609,17.609,0,0,1,3.05-1.273l1.166-.359,1.342-4.883h5.5Zm0,0" fill="#0c8ad4"/>
      <path id="Path_21" data-name="Path 21" d="M120.621,58.3a28.971,28.971,0,0,0,0-40.921l-3.147,3.146a24.513,24.513,0,0,1,0,34.627Zm0,0" fill="#0c8ad4"/>
    </g>
  </g>
</svg>
