<svg xmlns="http://www.w3.org/2000/svg" xmlns:xlink="http://www.w3.org/1999/xlink" width="138" height="138" viewBox="0 0 138 138">
  <defs>
    <clipPath id="clip-path">
      <rect id="Rectangle_359" data-name="Rectangle 359" width="138" height="138" transform="translate(732 1595)" fill="#0c8ad4" stroke="#707070" stroke-width="1"/>
    </clipPath>
  </defs>
  <g id="Mask_Group_92" data-name="Mask Group 92" transform="translate(-732 -1595)" clip-path="url(#clip-path)">
    <path id="route_17915322" d="M23.007,122.482a16.165,16.165,0,0,1,3.683,1.2c1.962.954,3.129,2.278,3.129,3.838,0,1.805-1.592,3.31-4.164,4.282a24.439,24.439,0,0,1-8.346,1.324A24.433,24.433,0,0,1,8.964,131.8c-2.574-.972-4.166-2.477-4.166-4.282,0-1.56,1.167-2.885,3.129-3.838a16.241,16.241,0,0,1,3.683-1.2l-2.146-2.146a11.082,11.082,0,0,1,6.266-18.817V79.945A6.851,6.851,0,0,1,12.4,78.216a6.267,6.267,0,0,1,0-9.185A6.838,6.838,0,0,1,15.728,67.3V45.8a23.185,23.185,0,0,1-6.938-1.29c-2.574-.972-4.166-2.477-4.166-4.282,0-1.56,1.167-2.885,3.129-3.839a16.168,16.168,0,0,1,3.683-1.2L9.29,33.048a11.083,11.083,0,1,1,15.691,0l-2.146,2.146a16.244,16.244,0,0,1,3.683,1.2c1.962.954,3.129,2.278,3.129,3.839,0,1.805-1.592,3.31-4.164,4.282a23.185,23.185,0,0,1-6.938,1.29V67.3a6.838,6.838,0,0,1,3.331,1.729,6.379,6.379,0,0,1,1.841,3.183l9.473-.057V67.133a1.411,1.411,0,0,1,1.1-1.374L43,63.054q.465-1.475,1.046-2.876.587-1.417,1.3-2.778l-4.3-8.171a1.407,1.407,0,0,1,.248-1.649l0,0L50.468,38.4a1.41,1.41,0,0,1,1.736-.2l8.085,4.255q1.36-.709,2.776-1.3,1.4-.58,2.877-1.046L68.677,31.3a1.406,1.406,0,0,1,1.342-.992v0h5.175l.117-11.878a1.4,1.4,0,0,1,1.4-1.391v0h25.225a6.461,6.461,0,1,1,0,2.816H78.1L78,30.3h5a1.408,1.408,0,0,1,1.373,1.1l2.7,8.712q1.475.465,2.877,1.046t2.776,1.3l8.172-4.3a1.4,1.4,0,0,1,1.647.25l0,0,9.178,9.178a1.41,1.41,0,0,1,.2,1.736L107.678,57.4q.709,1.36,1.3,2.778.58,1.4,1.046,2.876l8.813,2.736a1.4,1.4,0,0,1,.992,1.342h0v5.08l9.47-.057a6.389,6.389,0,0,1,1.844-3.2,6.938,6.938,0,0,1,9.479,0,6.269,6.269,0,0,1,0,9.185,6.938,6.938,0,0,1-9.479,0,6.379,6.379,0,0,1-1.841-3.183l-9.473.057v5.1a1.408,1.408,0,0,1-1.1,1.373l-8.712,2.7q-.465,1.475-1.046,2.877t-1.3,2.776l4.3,8.171a1.4,1.4,0,0,1-.25,1.649l0,0-9.178,9.178a1.41,1.41,0,0,1-1.736.2l-8.085-4.255q-1.36.709-2.778,1.3-1.4.58-2.877,1.046l-2.735,8.813a1.406,1.406,0,0,1-1.342.992v0H78l.1,10.459h23.837a6.461,6.461,0,1,1,0,2.816H76.711v0a1.4,1.4,0,0,1-1.4-1.391l-.117-11.878H70.018a1.411,1.411,0,0,1-1.374-1.1l-2.7-8.714q-1.475-.465-2.877-1.046c-.943-.391-1.871-.824-2.776-1.3l-8.171,4.3a1.407,1.407,0,0,1-1.649-.248l0,0-9.178-9.178a1.41,1.41,0,0,1-.2-1.736l4.255-8.085q-.709-1.36-1.3-2.778-.58-1.4-1.046-2.876l-8.813-2.736a1.4,1.4,0,0,1-.992-1.342h0V74.963l-9.47.055a6.389,6.389,0,0,1-1.844,3.2,6.838,6.838,0,0,1-3.331,1.729v21.53a11.1,11.1,0,0,1,6.609,18.861ZM21.061,73.624a3.516,3.516,0,0,0-1.123-2.557,4.148,4.148,0,0,0-5.606,0,3.474,3.474,0,0,0,0,5.114,4.148,4.148,0,0,0,5.606,0A3.52,3.52,0,0,0,21.061,73.624Zm118.746-.072a3.516,3.516,0,0,0-1.123-2.557,4.146,4.146,0,0,0-5.6,0,3.476,3.476,0,0,0,0,5.114,4.146,4.146,0,0,0,5.6,0A3.51,3.51,0,0,0,139.807,73.552ZM68.183,75.658l5.649,4.77a1.405,1.405,0,0,0,1.98-.164l9.209-11.491a1.4,1.4,0,1,0-2.189-1.759L74.546,77.354,70,73.513a1.4,1.4,0,1,0-1.815,2.144ZM76.509,50.03a23.592,23.592,0,1,0,16.682,6.91A23.527,23.527,0,0,0,76.509,50.03Zm14.691,8.9a20.777,20.777,0,1,0,6.085,14.691A20.713,20.713,0,0,0,91.2,58.933ZM71.051,33.12,68.4,41.653h0a1.4,1.4,0,0,1-.951.936,32.364,32.364,0,0,0-6.482,2.69,1.407,1.407,0,0,1-1.331.011l-7.913-4.164-7.717,7.717L48.15,56.71a1.4,1.4,0,0,1,.012,1.376,32.007,32.007,0,0,0-1.523,3.172,32.334,32.334,0,0,0-1.152,3.258,1.4,1.4,0,0,1-.951,1L36,68.169V79.084l8.533,2.649v0a1.4,1.4,0,0,1,.936.951,32.251,32.251,0,0,0,2.692,6.482,1.407,1.407,0,0,1,.011,1.331L44.01,98.412l7.717,7.717,7.869-4.141a1.4,1.4,0,0,1,1.376-.012,32.184,32.184,0,0,0,3.172,1.523,32.728,32.728,0,0,0,3.258,1.153,1.4,1.4,0,0,1,1,.951l2.647,8.533H81.966l2.647-8.533h0a1.4,1.4,0,0,1,.951-.936,32.366,32.366,0,0,0,6.482-2.69,1.407,1.407,0,0,1,1.331-.011l7.913,4.164,7.717-7.717-4.141-7.869a1.4,1.4,0,0,1-.012-1.376,32.491,32.491,0,0,0,2.677-6.43,1.4,1.4,0,0,1,.949-1l8.533-2.649V68.171l-8.533-2.647v0a1.4,1.4,0,0,1-.936-.951,32.251,32.251,0,0,0-2.692-6.482h0a1.4,1.4,0,0,1-.012-1.331l4.164-7.913-7.717-7.717-7.869,4.141a1.4,1.4,0,0,1-1.376.012,32.362,32.362,0,0,0-6.43-2.675,1.4,1.4,0,0,1-1-.951l-2.647-8.533H71.051Zm39.775-17.263a3.647,3.647,0,1,0,1.069,2.58A3.637,3.637,0,0,0,110.827,15.857Zm-2.58,116.6a3.647,3.647,0,1,0-2.58-1.069A3.629,3.629,0,0,0,108.247,132.46ZM20.4,37.632,18.131,39.9a1.409,1.409,0,0,1-1.991,0l-2.265-2.265a16.014,16.014,0,0,0-4.9,1.291c-.96.468-1.532.93-1.532,1.308,0,.512.893,1.107,2.339,1.653a21.6,21.6,0,0,0,7.356,1.135,21.648,21.648,0,0,0,7.356-1.135c1.445-.546,2.339-1.141,2.339-1.653,0-.379-.572-.841-1.534-1.308a16.037,16.037,0,0,0-4.9-1.291Zm-3.261-.721,5.855-5.855a8.267,8.267,0,1,0-11.709,0Zm-3.091,88.009a16.014,16.014,0,0,0-4.9,1.291c-.962.468-1.534.93-1.534,1.308,0,.512.894,1.107,2.339,1.653a21.607,21.607,0,0,0,7.356,1.137,21.614,21.614,0,0,0,7.356-1.137c1.445-.546,2.339-1.14,2.339-1.653,0-.379-.572-.841-1.532-1.308a16.014,16.014,0,0,0-4.9-1.291L18.3,127.187a1.406,1.406,0,0,1-1.991,0Zm3.262-.721,5.853-5.855a8.267,8.267,0,1,0-11.708,0Z" transform="translate(727.375 1590.378)" fill="#0c8ad4" fill-rule="evenodd"/>
  </g>
</svg>
