<svg xmlns="http://www.w3.org/2000/svg" width="85" height="70.648" viewBox="0 0 85 70.648">
  <path id="Path_371" data-name="Path 371" d="M55.069,157.325V138.083q0-15.128,3.649-24.815A37.1,37.1,0,0,1,71.126,96.813a47.5,47.5,0,0,1,19.905-9.024v15.393q-7.829,4.512-8.891,12.076h8.891v42.066Zm-48.038,0V138.083q0-15.128,3.649-24.815A36.93,36.93,0,0,1,23.154,96.813a48,48,0,0,1,19.839-9.024v15.393q-7.829,4.512-8.891,12.076h8.891v42.066Z" transform="translate(-6.531 -87.176)" fill="#fff" stroke="#0a6bb8" stroke-width="1"/>
</svg>
