<svg xmlns="http://www.w3.org/2000/svg" width="116.662" height="147.702" viewBox="0 0 116.662 147.702">
  <path id="technology_17067409" d="M195.924,134.078a1.2,1.2,0,0,1-.865,1.194l-6.336,2.059a2.242,2.242,0,0,0-1.49,1.641,45.944,45.944,0,0,1-6.085,14.685,2.238,2.238,0,0,0-.1,2.217l3.023,5.934a1.21,1.21,0,0,1-.23,1.458l-7.37,7.372a1.2,1.2,0,0,1-1.456.23l-5.94-3.025a2.234,2.234,0,0,0-2.217.106,45.976,45.976,0,0,1-14.68,6.085,2.233,2.233,0,0,0-1.644,1.492l-2.057,6.335a1.2,1.2,0,0,1-1.192.865H136.853a1.2,1.2,0,0,1-1.192-.865l-2.057-6.335a2.231,2.231,0,0,0-1.641-1.492,45.9,45.9,0,0,1-14.683-6.085,2.234,2.234,0,0,0-2.217-.106l-5.94,3.025a1.2,1.2,0,0,1-1.456-.23l-7.37-7.37a1.21,1.21,0,0,1-.23-1.459l3.026-5.934a2.238,2.238,0,0,0-.108-2.217A45.961,45.961,0,0,1,96.9,138.971a2.246,2.246,0,0,0-1.493-1.641l-6.335-2.059a1.2,1.2,0,0,1-.865-1.194V123.656a1.206,1.206,0,0,1,.865-1.194L95.41,120.4a2.245,2.245,0,0,0,1.493-1.642,45.857,45.857,0,0,1,6.083-14.68,2.238,2.238,0,0,0,.108-2.217l-3.026-5.938a1.2,1.2,0,0,1,.23-1.456l7.37-7.37a1.207,1.207,0,0,1,1.456-.233l3.455,1.761V103.87a38.657,38.657,0,1,0,58.975,0V88.629l3.455-1.761a1.207,1.207,0,0,1,1.456.233l7.37,7.37a1.207,1.207,0,0,1,.23,1.456l-3.023,5.938a2.238,2.238,0,0,0,.1,2.217,45.952,45.952,0,0,1,6.085,14.68,2.24,2.24,0,0,0,1.49,1.642l6.336,2.059a1.206,1.206,0,0,1,.865,1.194v10.422ZM117.057,86.029v16.439h13.691V80.307H118.8C118.3,80.542,117.057,82.57,117.057,86.029Zm18.166-20.061v36.5h13.691V62.139H136.924c-.585,0-1.7,1.491-1.7,3.829Zm18.165-18.846v55.346h13.691V47.122c0-1.892-1.023-3.148-1.7-3.148H155.089c-.677,0-1.7,1.256-1.7,3.148Zm6.846,76.589a3.135,3.135,0,1,0,3.136,3.136A3.139,3.139,0,0,0,160.233,123.712Zm-18.165,16.258a3.136,3.136,0,1,0,3.136,3.136A3.141,3.141,0,0,0,142.068,139.969ZM123.9,123.712a3.135,3.135,0,1,0,3.136,3.136A3.137,3.137,0,0,0,123.9,123.712Zm-8.052-16.769a34.18,34.18,0,1,0,52.438,0H162.47v12.631a7.612,7.612,0,1,1-4.475,0V106.943H144.3V135.83a7.612,7.612,0,1,1-4.475,0V106.943H126.139v12.631a7.609,7.609,0,1,1-4.477,0V106.943ZM196.443,118.2l-5.139-1.668a50.26,50.26,0,0,0-5.7-13.762l2.452-4.816A5.716,5.716,0,0,0,187,91.3l-7.372-7.37a5.711,5.711,0,0,0-6.65-1.054l-1.423.725V47.122c0-4.276-2.712-7.623-6.177-7.623H155.09c-3.464,0-6.177,3.348-6.177,7.623V57.664H136.924c-3.464,0-6.176,3.646-6.176,8.3V75.83H118.756c-3.028,0-5.415,3.247-6.024,7.853l-1.576-.8a5.712,5.712,0,0,0-6.65,1.054L97.132,91.3a5.719,5.719,0,0,0-1.052,6.654l2.452,4.816a50.341,50.341,0,0,0-5.7,13.762L87.692,118.2a5.717,5.717,0,0,0-3.956,5.451v10.422a5.718,5.718,0,0,0,3.956,5.452l5.139,1.669a50.348,50.348,0,0,0,5.7,13.76l-2.452,4.816a5.718,5.718,0,0,0,1.052,6.654l7.374,7.37a5.712,5.712,0,0,0,6.65,1.056l4.818-2.456a50.3,50.3,0,0,0,13.76,5.706l1.671,5.136a5.717,5.717,0,0,0,5.448,3.96H147.28a5.717,5.717,0,0,0,5.448-3.96l1.671-5.136a50.325,50.325,0,0,0,13.76-5.706l4.818,2.456a5.712,5.712,0,0,0,6.65-1.056l7.372-7.37a5.715,5.715,0,0,0,1.054-6.654l-2.452-4.816a50.321,50.321,0,0,0,5.7-13.76l5.139-1.669a5.718,5.718,0,0,0,3.956-5.452V123.656a5.715,5.715,0,0,0-3.955-5.451Z" transform="translate(-83.736 -39.499)" fill="#0a6bb8" fill-rule="evenodd"/>
</svg>
