<svg xmlns="http://www.w3.org/2000/svg" width="121.942" height="122.564" viewBox="0 0 121.942 122.564">
  <g id="cloud-computing_4279195" transform="translate(-5.017 -5)">
    <path id="Path_2912" data-name="Path 2912" d="M49.249,42.66l-5.692,5.715a5.805,5.805,0,0,1-8,0L29.868,42.66a2.268,2.268,0,0,0-3.208,3.208l5.715,5.692a10.142,10.142,0,0,0,14.366,0l5.715-5.692a2.268,2.268,0,0,0-3.208-3.208Z" transform="translate(26.41 46.573)" fill="#0a6bb8"/>
    <path id="Path_2913" data-name="Path 2913" d="M46.744,51.432a10.142,10.142,0,0,0-14.366,0l-5.715,5.692a2.268,2.268,0,1,0,3.208,3.208l5.692-5.715a5.805,5.805,0,0,1,8,0l5.692,5.715a2.268,2.268,0,0,0,3.208-3.208Z" transform="translate(26.408 54.698)" fill="#0a6bb8"/>
    <path id="Path_2914" data-name="Path 2914" d="M113.111,64.792a18.32,18.32,0,0,0,.294-3.321A18.071,18.071,0,0,0,97.592,43.559V18.554h7a11.294,11.294,0,1,0,0-4.518H95.333a2.259,2.259,0,0,0-2.259,2.259V43.582a18.071,18.071,0,0,0-8.109,3.095A24.847,24.847,0,0,0,36.6,54.7v.949a24.463,24.463,0,0,0-6.777-.949,24.848,24.848,0,0,0-4.518.429V40.916a11.294,11.294,0,1,0-4.518,0v15.5a24.847,24.847,0,0,0,9.035,47.978H41.234a24.847,24.847,0,0,0,49.582,0h15.812a20.33,20.33,0,0,0,6.483-39.6Zm2.553-55.274a6.777,6.777,0,1,1-6.777,6.777A6.777,6.777,0,0,1,115.663,9.518Zm-99.39,20.33a6.777,6.777,0,1,1,6.777,6.777,6.777,6.777,0,0,1-6.777-6.777Zm49.695,92.613a20.33,20.33,0,1,1,20.33-20.33A20.33,20.33,0,0,1,65.968,122.461Zm40.659-22.589H90.816a24.847,24.847,0,0,0-49.469,0H29.826a20.33,20.33,0,1,1,0-40.659,19.81,19.81,0,0,1,8.4,1.83A2.372,2.372,0,0,0,41.5,59.529a2.462,2.462,0,0,0,0-1.22,20.894,20.894,0,0,1-.384-3.614,20.33,20.33,0,0,1,40.343-3.614,2.259,2.259,0,0,0,3.976,1.152,13.418,13.418,0,0,1,9.894-4.314,13.553,13.553,0,0,1,13.553,13.553,13.847,13.847,0,0,1-.655,4.2,2.249,2.249,0,0,0,1.672,2.914,15.812,15.812,0,0,1-3.275,31.285Z" transform="translate(0 0)" fill="#0a6bb8"/>
  </g>
</svg>
