<svg xmlns="http://www.w3.org/2000/svg" width="101" height="101" viewBox="0 0 101 101">
  <g id="Group_1089" data-name="Group 1089" transform="translate(-279.5 -3411.5)">
    <circle id="Ellipse_2457" data-name="Ellipse 2457" cx="1.724" cy="1.724" r="1.724" transform="translate(358.604 3433.807)" stroke="#000" stroke-width="1"/>
    <circle id="Ellipse_2458" data-name="Ellipse 2458" cx="1.724" cy="1.724" r="1.724" transform="translate(351.867 3433.807)" stroke="#000" stroke-width="1"/>
    <circle id="Ellipse_2459" data-name="Ellipse 2459" cx="1.724" cy="1.724" r="1.724" transform="translate(345.129 3433.807)" stroke="#000" stroke-width="1"/>
    <circle id="Ellipse_2460" data-name="Ellipse 2460" cx="1.3" cy="1.3" r="1.3" transform="translate(321.988 3426.861)" stroke="#000" stroke-width="1"/>
    <circle id="Ellipse_2461" data-name="Ellipse 2461" cx="1.3" cy="1.3" r="1.3" transform="translate(313.395 3497.596)" stroke="#000" stroke-width="1"/>
    <circle id="Ellipse_2462" data-name="Ellipse 2462" cx="1.3" cy="1.3" r="1.3" transform="translate(345.588 3485.219)" stroke="#000" stroke-width="1"/>
    <path id="Path_2868" data-name="Path 2868" d="M58.924,113.651a1,1,0,0,0,1,1H95.969a1,1,0,0,0,0-2H59.924a1,1,0,0,0-1,1Z" transform="translate(232.861 3321.879)" stroke="#000" stroke-width="1"/>
    <path id="Path_2869" data-name="Path 2869" d="M164.6,190.324a1,1,0,0,0,1-1V186.2a1,1,0,0,0-2,0v3.124A1,1,0,0,0,164.6,190.324Z" transform="translate(149.122 3263.84)" stroke="#000" stroke-width="1"/>
    <path id="Path_2870" data-name="Path 2870" d="M127.114,214.62a1.008,1.008,0,0,0,.707-1.707l-2.209-2.209a1,1,0,1,0-1.414,1.414l2.209,2.209A1,1,0,0,0,127.114,214.62Z" transform="translate(180.876 3243.671)" stroke="#000" stroke-width="1"/>
    <path id="Path_2871" data-name="Path 2871" d="M194.76,210.7l-2.209,2.209a1,1,0,1,0,1.414,1.414l2.209-2.209a1,1,0,0,0-1.414-1.414Z" transform="translate(126.19 3243.671)" stroke="#000" stroke-width="1"/>
    <path id="Path_2872" data-name="Path 2872" d="M204.44,282.889V293.1h-1.5a1,1,0,0,0,0,2h42.736a1,1,0,1,0,0-2h-1.6V270.319a1,1,0,0,0-1-1h-8.364a1,1,0,0,0-1,1V293.1H214.8V282.889a1,1,0,0,0-1-1H205.44A1,1,0,0,0,204.44,282.889Zm31.273-11.57h6.364V293.1h-6.364Zm-22.91,12.57V293.1H206.44v-9.209Z" transform="translate(118.447 3196.545)" stroke="#000" stroke-width="1"/>
    <path id="Path_2873" data-name="Path 2873" d="M296.986,312.149a1,1,0,0,0,1-1v-9.4a1,1,0,0,0-1-1h-8.364a1,1,0,0,0-1,1v11.4a1,1,0,0,0,2,0v-10.4h6.364v8.4A1,1,0,0,0,296.986,312.149Z" transform="translate(49.902 3171.404)" stroke="#000" stroke-width="1"/>
    <path id="Path_2874" data-name="Path 2874" d="M235.94,212.98a1,1,0,0,0-1.2.128L223.079,224a1,1,0,1,0,1.365,1.462l11.117-10.379,10.225,6.109a1,1,0,0,0,1.229-.161l9.639-9.9-.227,1.728a1,1,0,0,0,1.983.26l.62-4.714a1.01,1.01,0,0,0-1.123-1.122l-4.7.622a1,1,0,1,0,.262,1.983l1.844-.244-9.176,9.427Z" transform="translate(101.789 3246.182)" stroke="#000" stroke-width="1"/>
    <path id="Path_2875" data-name="Path 2875" d="M289.58,1a1,1,0,0,0-1-1H238.038a1,1,0,0,0-1,1V19a1,1,0,0,0,1,1h43.133l6.8,6a1.01,1.01,0,0,0,1.662-.752Zm-7.37,17.249a1,1,0,0,0-.662-.25H239.038V2h48.544l.044,21.025Z" transform="translate(90.37 3412)" stroke="#000" stroke-width="1"/>
    <path id="Path_2876" data-name="Path 2876" d="M88.4,84.444a1,1,0,0,0-2,0v6.1H6.879V77.809H38.408a1,1,0,0,0,0-2H5.879a1,1,0,0,0-1,1l.01,61.554H1a1,1,0,0,0-1,1v20.284a1,1,0,0,0,1,1H9.057a1,1,0,0,0,1-1V141.27a27.712,27.712,0,0,0,7.406-6.511l3.222-4.056a6.3,6.3,0,0,1-.239,6.623l-1.04,1.548a1.012,1.012,0,0,0,.83,1.558h9.622a1.525,1.525,0,0,1,0,3.05H24.438a1,1,0,0,0,0,2h3.671a1.541,1.541,0,0,1,1.52,1.569,1.56,1.56,0,0,1-1.572,1.482H23.09a1,1,0,0,0,0,2h3.269a1.525,1.525,0,0,1,0,3.05H21.068a1,1,0,1,0,0,2H24.61a1.525,1.525,0,0,1,0,3.05H20.62a49.977,49.977,0,0,1-7.328-.542A1,1,0,1,0,13,160.069a51.986,51.986,0,0,0,7.622.564h3.99a3.525,3.525,0,0,0,3.043-5.3,3.526,3.526,0,0,0,1.741-5.065,3.552,3.552,0,0,0,2.234-3.167,3.505,3.505,0,0,0-.474-1.871,3.526,3.526,0,0,0-1.3-6.8H22.113A8.308,8.308,0,0,0,22.3,129.5a1.872,1.872,0,0,0-.591-.6L21.7,92.545H86.4l.012,54H38.57a1,1,0,1,0,0,2H87.414a1.015,1.015,0,0,0,1-1Zm-80.345,74.2H2V140.363H8.057Zm11.653-29.754a1.872,1.872,0,0,0-.476.422l-3.336,4.2a25.7,25.7,0,0,1-5.927,5.443,1,1,0,0,0-.913-.595H6.889l-.01-45.817H19.7Z" transform="translate(280 3351.353)" stroke="#000" stroke-width="1"/>
    <path id="Path_2877" data-name="Path 2877" d="M21.142,462.522a1,1,0,0,0-1,1v1.5a1,1,0,0,0,2,0v-1.5A1,1,0,0,0,21.142,462.522Z" transform="translate(263.886 3041.982)" stroke="#000" stroke-width="1"/>
    <circle id="Ellipse_2463" data-name="Ellipse 2463" cx="1.724" cy="1.724" r="1.724" transform="translate(291.573 3464.703)" stroke="#000" stroke-width="1"/>
    <circle id="Ellipse_2464" data-name="Ellipse 2464" cx="1.724" cy="1.724" r="1.724" transform="translate(291.573 3475.694)" stroke="#000" stroke-width="1"/>
    <circle id="Ellipse_2465" data-name="Ellipse 2465" cx="1.724" cy="1.724" r="1.724" transform="translate(291.573 3453.711)" stroke="#000" stroke-width="1"/>
    <path id="Path_2878" data-name="Path 2878" d="M132.775,238.529l3.861-2.03,3.861,2.03a1.009,1.009,0,0,0,1.451-1.054l-.737-4.3,3.124-3.045a1.011,1.011,0,0,0-.554-1.706l-4.317-.627-1.93-3.912a1.011,1.011,0,0,0-1.794,0l-1.931,3.912-4.317.627a1.011,1.011,0,0,0-.554,1.706l3.124,3.045-.737,4.3A1,1,0,0,0,132.775,238.529Zm-.99-8.416,2.832-.411a1,1,0,0,0,.753-.547l1.267-2.566,1.266,2.566a1,1,0,0,0,.753.547l2.832.411-2.049,2a1,1,0,0,0-.288.885l.484,2.82-2.533-1.332a1,1,0,0,0-.931,0l-2.533,1.332.484-2.82a1,1,0,0,0-.288-.885Z" transform="translate(177.083 3233.327)" stroke="#000" stroke-width="1"/>
    <path id="Path_2879" data-name="Path 2879" d="M349.958,24.762l-2.933-.429-1.313-2.68a1.01,1.01,0,0,0-1.8,0l-1.313,2.68-2.933.429a1.011,1.011,0,0,0-.556,1.7l2.127,2.089-.5,2.951a1.011,1.011,0,0,0,1.454,1.051l2.621-1.389,2.621,1.389a1.01,1.01,0,0,0,1.454-1.051l-.5-2.951,2.127-2.089a1.011,1.011,0,0,0-.556-1.7Zm-3.345,2.731a1,1,0,0,0-.285.881l.249,1.464-1.295-.686a1,1,0,0,0-.936,0l-1.295.686.249-1.464a1,1,0,0,0-.285-.881l-1.063-1.044,1.462-.214a1,1,0,0,0,.753-.55l.647-1.32.647,1.32a1,1,0,0,0,.753.55l1.462.214Z" transform="translate(8.94 3395.116)" stroke="#000" stroke-width="1"/>
    <path id="Path_2880" data-name="Path 2880" d="M270.812,24.762l-2.933-.429-1.313-2.68a1.01,1.01,0,0,0-1.8,0l-1.313,2.68-2.933.429a1.011,1.011,0,0,0-.556,1.7l2.127,2.089-.5,2.951a1.01,1.01,0,0,0,1.454,1.051l2.621-1.389,2.621,1.389a1.011,1.011,0,0,0,1.454-1.051l-.5-2.951,2.127-2.089a1.011,1.011,0,0,0-.556-1.7Zm-3.345,2.731a1,1,0,0,0-.285.881l.249,1.464-1.295-.686a1,1,0,0,0-.936,0l-1.295.686.249-1.464a1,1,0,0,0-.285-.881l-1.063-1.044,1.462-.214a1,1,0,0,0,.753-.55l.647-1.32.647,1.32a1,1,0,0,0,.753.55l1.462.214Z" transform="translate(72.257 3395.116)" stroke="#000" stroke-width="1"/>
    <path id="Path_2881" data-name="Path 2881" d="M429.1,24.762l-2.933-.429-1.313-2.68a1.01,1.01,0,0,0-1.8,0l-1.313,2.68-2.933.429a1.011,1.011,0,0,0-.556,1.7l2.127,2.089-.5,2.951a1.011,1.011,0,0,0,1.454,1.051l2.621-1.389,2.621,1.389a1.01,1.01,0,0,0,1.454-1.051l-.5-2.951,2.127-2.089a1.011,1.011,0,0,0-.556-1.7Zm-3.345,2.731a1,1,0,0,0-.285.881l.249,1.464-1.295-.686a1,1,0,0,0-.936,0l-1.295.686.249-1.464a1,1,0,0,0-.285-.881L421.1,26.449l1.462-.214a1,1,0,0,0,.753-.55l.647-1.32.647,1.32a1,1,0,0,0,.753.55l1.462.214Z" transform="translate(-54.377 3395.116)" stroke="#000" stroke-width="1"/>
  </g>
</svg>
