<svg xmlns="http://www.w3.org/2000/svg" width="90.565" height="102" viewBox="0 0 90.565 102">
  <g id="warning_3922198" transform="translate(-2.116 -0.736)">
    <path id="Path_2882" data-name="Path 2882" d="M18.291,4a2.291,2.291,0,0,1,2.291,2.291v9.163a2.291,2.291,0,1,1-4.581,0V6.291A2.291,2.291,0,0,1,18.291,4Z" transform="translate(49.724 11.689)"/>
    <path id="Path_2883" data-name="Path 2883" d="M20.581,10.291a2.291,2.291,0,0,0-4.581,0v2.291a2.291,2.291,0,0,0,4.581,0Z" transform="translate(49.724 26.015)"/>
    <path id="Path_2884" data-name="Path 2884" d="M41.928,4.535a6.872,6.872,0,0,0-12.293,0L11.851,40.1A6.872,6.872,0,0,0,18,50.05h35.57A6.872,6.872,0,0,0,59.714,40.1Zm-8.2,2.049a2.291,2.291,0,0,1,4.1,0l17.785,35.57a2.291,2.291,0,0,1-2.049,3.315H18a2.291,2.291,0,0,1-2.049-3.315Z" transform="translate(32.233 0)" fill-rule="evenodd"/>
    <path id="Path_2885" data-name="Path 2885" d="M38.85,8.273a2.291,2.291,0,0,0-1.228-4.414A41.9,41.9,0,0,0,21.73,12.486l-.254-.509a6.872,6.872,0,0,0-12.293,0L2.85,24.64a6.881,6.881,0,0,0,3.966,9.6A48.444,48.444,0,0,0,3.875,50.62c0,24.206,19.662,41.233,43.524,41.233S90.922,74.826,90.922,50.62a2.291,2.291,0,1,0-4.581,0c0,21.338-17.259,36.651-38.942,36.651S8.456,71.958,8.456,50.62A44.167,44.167,0,0,1,11.58,34.585H21.66a6.872,6.872,0,0,0,6.147-9.945l-3.959-7.918a37.662,37.662,0,0,1,15-8.448ZM17.377,14.026,18.764,16.8a2.277,2.277,0,0,0,.458.917l4.487,8.973A2.291,2.291,0,0,1,21.66,30H10.112q-.067,0-.134,0H9a2.291,2.291,0,0,1-2.049-3.315L13.28,14.026a2.291,2.291,0,0,1,4.1,0Z" transform="translate(0 10.883)" fill-rule="evenodd"/>
    <path id="Path_2886" data-name="Path 2886" d="M12.791,15.5a2.291,2.291,0,0,1,2.291,2.291v4.581a2.291,2.291,0,0,1-4.581,0V17.791A2.291,2.291,0,0,1,12.791,15.5Z" transform="translate(30.026 52.876)"/>
    <path id="Path_2887" data-name="Path 2887" d="M17.081,17.791a2.291,2.291,0,1,0-4.581,0v4.581a2.291,2.291,0,0,0,4.581,0Z" transform="translate(37.189 52.876)"/>
    <path id="Path_2888" data-name="Path 2888" d="M28.116,13.5a27.074,27.074,0,0,0-14.172,3.7c-3.7,2.314-6.444,5.8-6.444,10.042s2.742,7.727,6.444,10.042a27.074,27.074,0,0,0,14.172,3.7,27.073,27.073,0,0,0,14.172-3.7c3.7-2.314,6.444-5.8,6.444-10.042S45.991,19.517,42.289,17.2A27.073,27.073,0,0,0,28.116,13.5ZM12.081,27.244c0-2.088,1.36-4.325,4.291-6.157a22.528,22.528,0,0,1,11.744-3.006A22.527,22.527,0,0,1,39.86,21.088c2.93,1.832,4.291,4.068,4.291,6.157S42.791,31.569,39.86,33.4a22.527,22.527,0,0,1-11.744,3.006A22.528,22.528,0,0,1,16.372,33.4C13.442,31.569,12.081,29.332,12.081,27.244Z" transform="translate(19.282 45.713)" fill-rule="evenodd"/>
  </g>
</svg>
