<svg xmlns="http://www.w3.org/2000/svg" width="83.845" height="100.611" viewBox="0 0 83.845 100.611">
  <g id="file_955224" transform="translate(-42.662)">
    <g id="Group_1103" data-name="Group 1103" transform="translate(42.662)">
      <g id="Group_1102" data-name="Group 1102">
        <path id="Path_2915" data-name="Path 2915" d="M126.259,20.081A23.455,23.455,0,0,0,81.85,13.415H47.693a5.036,5.036,0,0,0-5.031,5.031V95.581a5.036,5.036,0,0,0,5.031,5.031H84.583a1.7,1.7,0,0,0,1.187-.493l23.473-23.473.006-.008a1.769,1.769,0,0,0,.465-1.077c0-.035.02-.065.02-.1v-29.5A23.47,23.47,0,0,0,126.259,20.081Zm-40,74.806V78.812a1.678,1.678,0,0,1,1.677-1.677h16.074Zm20.122-21.1H87.937a5.036,5.036,0,0,0-5.031,5.031V97.258H47.692a1.678,1.678,0,0,1-1.677-1.677V18.445a1.678,1.678,0,0,1,1.677-1.677H80.541a23.373,23.373,0,0,0-.989,6.707H74.522a1.677,1.677,0,0,0,0,3.354h5.3a23.345,23.345,0,0,0,.721,3.354H74.522a1.677,1.677,0,1,0,0,3.354h7.328a23.44,23.44,0,0,0,1.94,3.354H74.522a1.677,1.677,0,1,0,0,3.354H86.631a23.029,23.029,0,0,0,19.752,6.44v27.1ZM103.029,43.6a20.122,20.122,0,1,1,20.122-20.122A20.122,20.122,0,0,1,103.029,43.6Z" transform="translate(-42.662)" fill="#0a6bb8"/>
        <path id="Path_2916" data-name="Path 2916" d="M96.917,120.994a10.061,10.061,0,1,0-10.061,10.061A10.061,10.061,0,0,0,96.917,120.994Zm-16.768,0a6.707,6.707,0,1,1,6.707,6.707A6.707,6.707,0,0,1,80.149,120.994Z" transform="translate(-70.088 -89.134)" fill="#0a6bb8"/>
        <path id="Path_2917" data-name="Path 2917" d="M94.352,239.426a1.677,1.677,0,0,0,1.186,2.863h36.891a1.677,1.677,0,0,0,0-3.354H95.538A1.676,1.676,0,0,0,94.352,239.426Z" transform="translate(-83.8 -191.983)" fill="#0a6bb8"/>
        <path id="Path_2918" data-name="Path 2918" d="M139.137,281.6h-43.6a1.677,1.677,0,1,0,0,3.354h43.6a1.677,1.677,0,1,0,0-3.354Z" transform="translate(-83.801 -226.264)" fill="#0a6bb8"/>
        <path id="Path_2919" data-name="Path 2919" d="M139.137,324.267h-43.6a1.677,1.677,0,1,0,0,3.354h43.6a1.677,1.677,0,1,0,0-3.354Z" transform="translate(-83.801 -260.546)" fill="#0a6bb8"/>
        <path id="Path_2920" data-name="Path 2920" d="M117.338,366.933h-21.8a1.677,1.677,0,1,0,0,3.354h21.8a1.677,1.677,0,1,0,0-3.354Z" transform="translate(-83.801 -294.828)" fill="#0a6bb8"/>
        <path id="Path_2921" data-name="Path 2921" d="M117.338,409.6h-21.8a1.677,1.677,0,1,0,0,3.354h21.8a1.677,1.677,0,1,0,0-3.354Z" transform="translate(-83.801 -329.111)" fill="#0a6bb8"/>
        <path id="Path_2922" data-name="Path 2922" d="M289.93,60.511a6.748,6.748,0,0,0-8.54,1.018l-3.778-2.09a6.019,6.019,0,0,0,0-3.359l3.778-2.09a6.994,6.994,0,1,0-1.623-2.935l-3.778,2.09a6.707,6.707,0,1,0,0,9.229l3.778,2.09a6.61,6.61,0,0,0-.239,1.679,6.748,6.748,0,1,0,10.4-5.632Zm-3.695-14.49a3.354,3.354,0,1,1-3.354,3.354A3.354,3.354,0,0,1,286.235,46.021ZM271.143,61.112a3.354,3.354,0,1,1,3.354-3.354A3.354,3.354,0,0,1,271.143,61.112ZM286.235,69.5a3.354,3.354,0,1,1,3.354-3.354A3.354,3.354,0,0,1,286.235,69.5Z" transform="translate(-220.838 -34.283)" fill="#0a6bb8"/>
      </g>
    </g>
  </g>
</svg>
