<svg xmlns="http://www.w3.org/2000/svg" width="100" height="100" viewBox="0 0 100 100">
  <g id="outline" transform="translate(-16 -24)">
    <path id="Path_2865" data-name="Path 2865" d="M24.065,61.931h2.271A43.171,43.171,0,0,0,32.4,98.7c.014.022.029.041.043.061a43.089,43.089,0,0,0,28.409,17.792A8.074,8.074,0,0,0,68.892,124h39.043A8.074,8.074,0,0,0,116,115.935v-21.8a8.076,8.076,0,0,0-6.911-7.981A43.135,43.135,0,0,0,71.1,31.028a8.075,8.075,0,0,0-8-7.028H24.065A8.074,8.074,0,0,0,16,32.065v21.8A8.074,8.074,0,0,0,24.065,61.931Zm10.4,33.664a39.637,39.637,0,0,1-6.358-19.871H53.942a133.382,133.382,0,0,0,.946,14.6A75.957,75.957,0,0,0,34.464,95.595ZM28.106,72.276a39.5,39.5,0,0,1,1.835-10.345h24.5c-.294,3.355-.463,6.822-.5,10.345Zm32.722,40.78a39.651,39.651,0,0,1-23.013-13.017q-.67-.769-1.3-1.57a73.48,73.48,0,0,1,18.844-4.732c1.188,7.647,3.07,14.009,5.466,18.13Zm0-10.331A76.523,76.523,0,0,1,58.8,93.367q1.006-.09,2.023-.16ZM61.8,79.342a1.724,1.724,0,0,0-.977,1.554v8.855q-1.258.083-2.5.2a129.822,129.822,0,0,1-.936-14.224H78.06c-.043,3.529-.216,7-.518,10.345H71.778L63.629,79.55A1.724,1.724,0,0,0,61.8,79.342Zm50.747,14.791v21.8a4.622,4.622,0,0,1-4.617,4.617H68.892a4.622,4.622,0,0,1-4.617-4.617V84.484l5.819,4.655a1.724,1.724,0,0,0,1.078.378h36.763A4.622,4.622,0,0,1,112.552,94.134Zm-7.042-8.065H81c.294-3.355.464-6.821.505-10.345h25.834A39.543,39.543,0,0,1,105.509,86.069Zm1.832-13.793H81.506a133.51,133.51,0,0,0-.948-14.547,76.31,76.31,0,0,0,20.525-5.2,39.507,39.507,0,0,1,6.258,19.747Zm-8.3-22.627a73.82,73.82,0,0,1-18.954,4.666c-.431-2.779-.954-5.4-1.563-7.816-.98-3.881-2.513-8.5-4.752-11.7A39.53,39.53,0,0,1,99.039,49.648ZM71.172,37.072c2.189,3.31,4.21,9.439,5.49,17.594q-2.705.23-5.49.317ZM69.448,68.828A1.724,1.724,0,0,0,71.172,67.1V58.434q3.023-.091,5.968-.349a129.121,129.121,0,0,1,.918,14.191H57.39c.043-3.529.218-7,.519-10.345h2.314l8.147,6.519A1.724,1.724,0,0,0,69.448,68.828Zm-50-36.763a4.622,4.622,0,0,1,4.617-4.617H63.108a4.622,4.622,0,0,1,4.617,4.617V63.516l-5.819-4.655a1.724,1.724,0,0,0-1.078-.378H24.065a4.622,4.622,0,0,1-4.617-4.617Z"/>
    <path id="Path_2866" data-name="Path 2866" d="M105.021,82.815a1.724,1.724,0,0,0,2.276-.875l1.844-4.15.028,0h6.9l.028,0,1.844,4.15a1.724,1.724,0,0,0,3.151-1.4l-6.9-15.517a1.724,1.724,0,0,0-3.151,0l-6.9,15.517a1.724,1.724,0,0,0,.875,2.276Zm7.6-12.847,1.945,4.375h-3.889Z" transform="translate(-69.032 -31.377)"/>
    <path id="Path_2867" data-name="Path 2867" d="M317.172,372.688a5.171,5.171,0,0,0,2.229-.51,1.722,1.722,0,0,0,2.82-1.853l-.183-.458c-.013-.033-.024-.065-.037-.1l3.141-3.879q.062.138.111.285a3.06,3.06,0,0,1-.167,2.351l-.834,1.669a1.724,1.724,0,1,0,3.084,1.542l.834-1.669a6.535,6.535,0,0,0-.786-7.056,1.724,1.724,0,0,0-2.726-1.965,6.53,6.53,0,0,0-2.326-.428H320.07c-.022-.574-.029-1.149-.016-1.724h4.015a1.724,1.724,0,0,0,0-3.448H320.35c.069-.463.145-.925.237-1.386a1.724,1.724,0,1,0-3.381-.676c-.137.685-.248,1.373-.339,2.062h-3.143a1.724,1.724,0,0,0,0,3.448h2.88c-.013.638,0,1.275.022,1.911a6.137,6.137,0,0,0-4.625,5.94v.77A5.178,5.178,0,0,0,317.172,372.688Zm5.007-8.621-1.412,1.744c-.134-.578-.253-1.16-.35-1.744Zm-6.731,2.678a2.679,2.679,0,0,1,1.523-2.413,31.252,31.252,0,0,0,1.092,4.655,1.719,1.719,0,0,1-2.615-1.473Z" transform="translate(-232.207 -257.309)"/>
    <ellipse id="Ellipse_2454" data-name="Ellipse 2454" cx="2" cy="2.5" rx="2" ry="2.5" transform="translate(85 64)"/>
    <ellipse id="Ellipse_2455" data-name="Ellipse 2455" cx="2" cy="2.5" rx="2" ry="2.5" transform="translate(92 64)"/>
    <ellipse id="Ellipse_2456" data-name="Ellipse 2456" cx="2" cy="2.5" rx="2" ry="2.5" transform="translate(99 64)"/>
  </g>
</svg>
