<svg xmlns="http://www.w3.org/2000/svg" width="158" height="85.934" viewBox="0 0 158 85.934">
  <g id="Group_1104" data-name="Group 1104" transform="translate(-556 -2058)">
    <path id="history_18069680" d="M100.171,26.3a22.706,22.706,0,0,0-13.06,4.159A30.416,30.416,0,0,0,59.084,11.368c-14.946,0-27.6,11.311-30.062,26.287A17.977,17.977,0,0,0,21.7,36.1c-10.266,0-18.616,8.633-18.616,19.245S11.437,74.593,21.7,74.593h9.225a2.082,2.082,0,0,0,0-4.165H21.7c-7.968,0-14.451-6.766-14.451-15.082s6.483-15.08,14.451-15.08A13.945,13.945,0,0,1,29.566,42.7a2.083,2.083,0,0,0,3.25-1.588c.927-14.346,12.466-25.584,26.269-25.584,11.46,0,21.537,7.628,25.071,18.982a2.082,2.082,0,0,0,3.394.919,18.69,18.69,0,0,1,12.621-4.972c10.573,0,19.174,8.965,19.174,19.983s-8.6,19.983-19.174,19.983h-4.6a2.082,2.082,0,1,0,0,4.165h4.6c12.869,0,23.339-10.833,23.339-24.148S113.04,26.3,100.171,26.3ZM63.3,48.405a24.4,24.4,0,0,0-19.062,9.146V52.125a2.082,2.082,0,0,0-4.165,0V64.168a2.081,2.081,0,0,0,2.082,2.082H52.3a2.082,2.082,0,1,0,0-4.165H46.12a20.271,20.271,0,1,1-3.1,10.768,2.082,2.082,0,1,0-4.165,0A24.447,24.447,0,1,0,63.3,48.405ZM61.081,59.076V75.352H73.916V71.187h-8.67V59.076Z" transform="translate(552.913 2046.632)" fill="#0a6bb8"/>
    <g id="Ellipse_2476" data-name="Ellipse 2476" transform="translate(639 2058)" fill="#fff" stroke="#0a6bb8" stroke-width="5">
      <circle cx="37.5" cy="37.5" r="37.5" stroke="none"/>
      <circle cx="37.5" cy="37.5" r="35" fill="none"/>
    </g>
    <line id="Line_612" data-name="Line 612" x1="50" y2="51" transform="translate(653 2071)" fill="none" stroke="#0a6bb8" stroke-width="5"/>
  </g>
</svg>
