<svg xmlns="http://www.w3.org/2000/svg" width="129.543" height="129.57" viewBox="0 0 129.543 129.57">
  <g id="medical_10448496" transform="translate(0.038 0.04)">
    <path id="Path_2906" data-name="Path 2906" d="M90.274,114.453h-8.1a4.149,4.149,0,0,1-4.048-4.048v-7.083H71.048A4.149,4.149,0,0,1,67,99.274v-8.1a4.159,4.159,0,0,1,4.048-4.048h7.083V80.048A4.159,4.159,0,0,1,82.179,76h8.1a4.159,4.159,0,0,1,4.048,4.048v7.083h7.083a4.159,4.159,0,0,1,4.048,4.048v8.1a4.159,4.159,0,0,1-4.048,4.048H94.322v7.083a4.149,4.149,0,0,1-4.048,4.048Zm0-13.155A2.024,2.024,0,0,1,92.3,99.274h9.107v-8.1H92.3a2.024,2.024,0,0,1-2.024-2.024V80.048h-8.1v9.107a2.024,2.024,0,0,1-2.024,2.024H71.048v8.1h9.107a2.024,2.024,0,0,1,2.024,2.024v9.107h8.1Z" transform="translate(0.799 0.906)" fill="#0a6bb8"/>
    <path id="Path_2907" data-name="Path 2907" d="M120.065,46.184A26.027,26.027,0,0,0,94.19,21.251a25.45,25.45,0,0,0-4.5.415,33.049,33.049,0,0,0-63.275,4.048H25.339a25.591,25.591,0,0,0-20.795,40.2A2.025,2.025,0,0,0,7.873,63.61,21.544,21.544,0,0,1,25.3,29.812a22.069,22.069,0,0,1,2.469.152,2.024,2.024,0,0,0,2.267-1.629,29.012,29.012,0,0,1,56.384-3.643,2.024,2.024,0,0,0,2.429,1.366A21.534,21.534,0,0,1,94.19,25.3a21.969,21.969,0,0,1,21.847,22.009v.213a2.024,2.024,0,0,0,1.346,1.963,12.032,12.032,0,0,1,5.95,18.215A2.025,2.025,0,1,0,126.662,70a16.1,16.1,0,0,0-6.618-23.8Z" transform="translate(0)" fill="#0a6bb8"/>
    <path id="Path_2908" data-name="Path 2908" d="M50.118,28.14a2.024,2.024,0,0,0-2.024,2.024V50.4l-4.645-4.635A2.024,2.024,0,0,0,40.6,48.621l8.1,8.1a2.024,2.024,0,0,0,2.854,0l8.1-8.1a2.024,2.024,0,0,0-2.854-2.854l-4.645,4.665V30.194a2.024,2.024,0,0,0-2.024-2.054Z" transform="translate(0.479 0.336)" fill="#0a6bb8"/>
    <path id="Path_2909" data-name="Path 2909" d="M78.12,57.344a2.024,2.024,0,0,0,2.024-2.024V35.081l4.645,4.635a2.024,2.024,0,1,0,2.854-2.854l-8.1-8.1a2.024,2.024,0,0,0-2.854,0l-8.1,8.1a2.024,2.024,0,1,0,2.854,2.854L76.1,35.081V55.32A2.024,2.024,0,0,0,78.12,57.344Z" transform="translate(0.81 0.336)" fill="#0a6bb8"/>
    <path id="Path_2910" data-name="Path 2910" d="M109.745,62h-90.2A9.289,9.289,0,0,0,10,71v48.795a9.289,9.289,0,0,0,9.542,9h90.2a9.289,9.289,0,0,0,9.542-9V71a9.289,9.289,0,0,0-9.542-9Zm5.495,57.791a5.242,5.242,0,0,1-5.495,4.948h-90.2a5.242,5.242,0,0,1-5.495-4.948V71a5.242,5.242,0,0,1,5.495-4.948h90.2A5.242,5.242,0,0,1,115.24,71Z" transform="translate(0.12 0.739)" fill="#0a6bb8"/>
    <path id="Path_2911" data-name="Path 2911" d="M60.429,76H26.024A2.024,2.024,0,0,0,24,78.024v34.405a2.024,2.024,0,0,0,2.024,2.024H60.429a2.024,2.024,0,0,0,2.024-2.024V78.024A2.024,2.024,0,0,0,60.429,76Zm-26.31,34.405c0-4.382,4.169-8.1,9.107-8.1s9.107,3.714,9.107,8.1Zm9.107-12.143a4.048,4.048,0,1,1,4.048-4.048A4.048,4.048,0,0,1,43.226,98.262Zm15.179,12.143H56.381a12.244,12.244,0,0,0-7.195-10.767,8.08,8.08,0,1,0-11.931.03,12.2,12.2,0,0,0-7.185,10.736H28.048V80.048H58.405Z" transform="translate(0.287 0.906)" fill="#0a6bb8"/>
  </g>
</svg>
