<svg xmlns="http://www.w3.org/2000/svg" width="118.002" height="124" viewBox="0 0 118.002 124">
  <g id="Scheduled_maintainence" transform="translate(-5 -2)">
    <g id="Group_1018" data-name="Group 1018">
      <g id="Group_1016" data-name="Group 1016">
        <g id="Group_1014" data-name="Group 1014">
          <path id="Path_2801" data-name="Path 2801" d="M46.705,79.736A20.174,20.174,0,1,1,66.6,59.564a20.058,20.058,0,0,1-19.9,20.172Zm0-36.343A16.174,16.174,0,1,0,62.6,59.565a16.054,16.054,0,0,0-15.9-16.172Z" fill="#0c8aed"/>
          <path id="Path_2802" data-name="Path 2802" d="M41.95,67.29a2,2,0,0,1-1.537-3.277l4.292-5.17V51.115a2,2,0,0,1,4,0v8.449a2,2,0,0,1-.461,1.277l-4.753,5.726A2,2,0,0,1,41.95,67.29Z" fill="#0c8aed"/>
        </g>
        <g id="Group_1015" data-name="Group 1015">
          <path id="Path_2803" data-name="Path 2803" d="M56.3,90.389H11.31A6.236,6.236,0,0,1,5,84.246V30.739a2,2,0,0,1,2-2H86.409a2,2,0,0,1,2,2v26.89a2,2,0,0,1-4,0V32.739H9V84.246a2.233,2.233,0,0,0,2.31,2.143H56.3a2,2,0,1,1,0,4Z" fill="#0c8aed"/>
          <path id="Path_2804" data-name="Path 2804" d="M26.273,22.874H24.036a5.773,5.773,0,0,1-5.766-5.767V7.767A5.773,5.773,0,0,1,24.036,2h2.237a5.773,5.773,0,0,1,5.766,5.767v9.341a5.772,5.772,0,0,1-5.766,5.766ZM24.037,6a1.769,1.769,0,0,0-1.766,1.767v9.341a1.769,1.769,0,0,0,1.766,1.767h2.237a1.769,1.769,0,0,0,1.766-1.767V7.767A1.769,1.769,0,0,0,26.273,6Z" fill="#0c8aed"/>
          <path id="Path_2805" data-name="Path 2805" d="M69.373,22.874H67.136a5.773,5.773,0,0,1-5.766-5.767V7.767A5.773,5.773,0,0,1,67.136,2h2.237a5.773,5.773,0,0,1,5.766,5.767v9.341A5.773,5.773,0,0,1,69.373,22.874ZM67.136,6A1.769,1.769,0,0,0,65.37,7.767v9.341a1.769,1.769,0,0,0,1.766,1.767h2.237a1.769,1.769,0,0,0,1.766-1.767V7.767A1.769,1.769,0,0,0,69.373,6Z" fill="#0c8aed"/>
          <path id="Path_2806" data-name="Path 2806" d="M63.37,14.112H30.04a2,2,0,0,1,0-4H63.37a2,2,0,0,1,0,4Z" fill="#0c8aed"/>
          <path id="Path_2807" data-name="Path 2807" d="M86.409,32.739H7a2,2,0,0,1-2-2V16.255a6.236,6.236,0,0,1,6.31-6.143h8.96a2,2,0,0,1,0,4H11.31A2.233,2.233,0,0,0,9,16.255V28.739H84.409V16.255a2.233,2.233,0,0,0-2.31-2.143H73.138a2,2,0,0,1,0-4H82.1a6.236,6.236,0,0,1,6.31,6.143V30.739A2,2,0,0,1,86.409,32.739Z" fill="#0c8aed"/>
        </g>
      </g>
      <g id="Group_1017" data-name="Group 1017">
        <path id="Path_2808" data-name="Path 2808" d="M114.179,126c-.146,0-.293,0-.44-.011a8.855,8.855,0,0,1-6.376-3.193L94.489,108.379a14.8,14.8,0,0,1-14.1-3.73,14.559,14.559,0,0,1-3.392-15.231,2,2,0,0,1,3.29-.743l5.28,5.233a3.549,3.549,0,0,0,4.1.6l1.612-1.6a3.428,3.428,0,0,0-.606-4.009l-5.28-5.233a2,2,0,0,1,.741-3.306,14.843,14.843,0,0,1,15.328,3.357,14.533,14.533,0,0,1,3.776,13.991l14.592,12.8a8.716,8.716,0,0,1,.593,12.932A8.882,8.882,0,0,1,114.179,126ZM95.125,104.09a2,2,0,0,1,1.492.668L110.4,120.191a4.861,4.861,0,0,0,7.2.409,4.717,4.717,0,0,0-.355-7.033L101.61,99.862a2,2,0,0,1-.558-2.194,10.536,10.536,0,0,0-2.417-11.1,10.842,10.842,0,0,0-7.73-3.052l2.573,2.551a7.429,7.429,0,0,1,1.119,9.1,1.967,1.967,0,0,1-.311.4L92.273,97.55a2.037,2.037,0,0,1-.4.306,7.558,7.558,0,0,1-9.128-1.105l-2.632-2.609A10.342,10.342,0,0,0,83.2,101.81a10.812,10.812,0,0,0,11.247,2.4,1.939,1.939,0,0,1,.677-.121Zm-2.248-9.956h.01Z" fill="#0c8aed"/>
        <path id="Path_2809" data-name="Path 2809" d="M95.807,122.781H86.376a2,2,0,0,1-2-2v-3.854a23.141,23.141,0,0,1-4.879-2.062l-2.6,2.676a2,2,0,0,1-2.869,0l-6.662-6.856a2,2,0,0,1,0-2.787l2.667-2.745a25.491,25.491,0,0,1-2.046-5.1H64.3a2,2,0,0,1-2-2V88.351a2,2,0,0,1,2-2h3.678a24.52,24.52,0,0,1,2.047-5.1l-2.659-2.736a2,2,0,0,1,0-2.787l6.662-6.857a2.061,2.061,0,0,1,2.869,0L79.5,71.554a24.161,24.161,0,0,1,4.871-2.062V65.629a2,2,0,0,1,2-2h9.431a2,2,0,0,1,2,2v3.909a23.22,23.22,0,0,1,4.869,2.056l2.6-2.716a2,2,0,0,1,1.437-.616h.007a2,2,0,0,1,1.435.606l6.662,6.857a2,2,0,0,1,0,2.787l-2.667,2.745a25.578,25.578,0,0,1,2.046,5.094h3.688a2,2,0,0,1,2,2v9.707a2,2,0,0,1-2,2H114.2a24.842,24.842,0,0,1-2.343,5.6,2,2,0,1,1-3.477-1.979,20.7,20.7,0,0,0,2.292-6.024,2,2,0,0,1,1.958-1.593h3.251V90.351h-3.251a2,2,0,0,1-1.956-1.58,21.6,21.6,0,0,0-2.714-6.782,2,2,0,0,1,.27-2.439l2.361-2.431-3.863-3.977-2.281,2.382a2,2,0,0,1-2.55.283,19.254,19.254,0,0,0-6.523-2.766,2,2,0,0,1-1.57-1.953v-3.46H88.375v3.4a2,2,0,0,1-1.557,1.95,20.227,20.227,0,0,0-6.552,2.778,2,2,0,0,1-2.524-.283L75.461,73.13l-3.874,3.987,2.361,2.431A2,2,0,0,1,74.208,82a20.533,20.533,0,0,0-2.7,6.754,2,2,0,0,1-1.958,1.593H66.3v5.707h3.251A2,2,0,0,1,71.5,97.638a21.615,21.615,0,0,0,2.715,6.782,2,2,0,0,1-.271,2.439l-2.361,2.431,3.874,3.986,2.281-2.347a2,2,0,0,1,2.54-.273,19.254,19.254,0,0,0,6.523,2.766,2,2,0,0,1,1.57,1.953v3.4h5.431v-3.4a2,2,0,0,1,1.557-1.95,20.124,20.124,0,0,0,5.171-1.965,2,2,0,0,1,1.913,3.514,24.378,24.378,0,0,1-4.641,1.941v3.864a2,2,0,0,1-2,2Z" fill="#0c8aed"/>
      </g>
    </g>
  </g>
</svg>
