<svg xmlns="http://www.w3.org/2000/svg" width="121.584" height="137.909" viewBox="0 0 121.584 137.909">
  <g id="nlp_18263453" transform="translate(-40 -10.995)">
    <path id="Path_2819" data-name="Path 2819" d="M399.067,87.145H387.913l3.659-3.7a1.938,1.938,0,0,0,0-2.728,1.914,1.914,0,0,0-2.708-.01l-6.927,6.922a1.912,1.912,0,0,0,0,2.705l6.927,6.927a1.917,1.917,0,0,0,2.709,0,1.972,1.972,0,0,0,0-2.754l-3.658-3.7h11.153c2.21,0,4.155,2.334,4.155,4.989v67.7c0,2.654-1.945,4.986-4.155,4.986H386.246a1.831,1.831,0,1,0,0,3.659h12.821c4.36,0,7.814-3.833,7.814-8.645v-67.7C406.881,90.979,403.428,87.145,399.067,87.145Z" transform="translate(-245.297 -49.692)" fill="#0c8aed"/>
    <path id="Path_2820" data-name="Path 2820" d="M60.636,168.444H47.814c-2.21,0-4.155-2.332-4.155-4.986v-67.7c0-2.655,1.945-4.989,4.155-4.989H58.967l-3.658,3.7a1.942,1.942,0,0,0,0,2.731,1.907,1.907,0,0,0,2.708.017l6.914-6.911a1.9,1.9,0,0,0,.539-.992v-.006c.011-.059.02-.117.026-.178,0-.044.058-.089.059-.133,0-.019.055-.037.055-.056h0c0-.064-.055-.128-.062-.192,0-.029-.035-.058-.039-.087s-.022-.067-.028-.1-.024-.07-.032-.1-.016-.053-.024-.078-.024-.063-.035-.094-.02-.056-.031-.083-.021-.044-.032-.067-.032-.07-.05-.1l-.014-.023a1.926,1.926,0,0,0-.317-.422l-6.929-6.927a1.917,1.917,0,0,0-2.709,0,1.965,1.965,0,0,0,0,2.749l3.659,3.7H47.814c-4.36,0-7.814,3.834-7.814,8.648v67.7c0,4.812,3.454,8.645,7.814,8.645H60.636a1.831,1.831,0,1,0,0-3.659Z" transform="translate(0 -49.654)" fill="#0c8aed"/>
    <path id="Path_2821" data-name="Path 2821" d="M191.4,315.3a5.358,5.358,0,0,0-5.171,3.846h-6.292l-3-2.977c7.745-3.047,12.7-8.012,12.7-13.74,0-3.434-1.769-6.68-5.127-9.443a11.549,11.549,0,0,0-14.274-9.6,11.55,11.55,0,0,0-11.216-3.42,15.916,15.916,0,0,0-26.291,12.07q0,.513.032,1.023c-3.31,2.749-5.051,5.976-5.051,9.385,0,5.728,4.955,10.679,12.7,13.727l-3,2.977h-6.291a5.4,5.4,0,0,0-10.565,1.561,5.431,5.431,0,0,0,5.394,5.431,5.6,5.6,0,0,0,4.868-3.051h7.388a1.941,1.941,0,0,0,1.354-.591l4.921-4.935c1.14.314,2.323.583,3.543.821l-4.791,4.57a1.91,1.91,0,0,0-.6,1.381v4.65a5.481,5.481,0,0,0-3.474,5.036,5.42,5.42,0,1,0,7.415-5.036v-3.83l6.28-6.075c1.282.129,2.445.216,3.852.258v9.647a5.414,5.414,0,1,0,3.94,0v-9.647c1.407-.042,2.568-.129,3.848-.258l6.283,6.075v3.83a5.433,5.433,0,1,0,3.94,0v-4.65a1.917,1.917,0,0,0-.6-1.385l-4.791-4.573q1.831-.355,3.543-.828l4.922,4.951a1.946,1.946,0,0,0,1.354.59h7.388a5.611,5.611,0,0,0,4.868,3.058,5.422,5.422,0,0,0,0-10.844Zm-65.459,6.984a1.564,1.564,0,1,1,1.563-1.565A1.566,1.566,0,0,1,125.939,322.285Zm18.609,13.3a1.563,1.563,0,1,1,1.563-1.563A1.565,1.565,0,0,1,144.548,335.581Zm28.24,0a1.563,1.563,0,1,1,1.563-1.563A1.566,1.566,0,0,1,172.788,335.581Zm-41.254-33.138c0-3.08,2.38-5.5,4.377-7a1.917,1.917,0,0,0,.752-1.793,12.085,12.085,0,0,1,20.5-10.187,1.919,1.919,0,0,0,1.988.448,7.723,7.723,0,0,1,8.86,2.8,1.914,1.914,0,0,0,2.257.673,7.717,7.717,0,0,1,10.5,6.717,1.914,1.914,0,0,0,.755,1.412c1.952,1.479,4.279,3.88,4.279,6.923,0,7.1-12.425,13.093-27.133,13.093s-27.134-6-27.134-13.094Zm27.134,33.138a1.563,1.563,0,1,1,1.563-1.563A1.565,1.565,0,0,1,158.668,335.581Zm32.729-13.3a1.564,1.564,0,1,1,1.563-1.565A1.565,1.565,0,0,1,191.4,322.285Z" transform="translate(-57.875 -190.507)" fill="#0c8aed"/>
    <path id="Path_2822" data-name="Path 2822" d="M158.339,71.916v1.219a4.707,4.707,0,0,0,4.6,4.619h21.609a4.635,4.635,0,0,0,4.631-4.62l.005-5.653a.316.316,0,0,1,.035-.079c.1-.028.186-.053.257-.074h.165c.274,0,.7.011,1.388.011,3.432,0,6.176-3.537,6.716-7l1.739-.882a1.95,1.95,0,0,0,1.072-1.7V54.339h1.312a5.441,5.441,0,0,0,4.738-2.749,5.307,5.307,0,0,0-.085-5.41c-.217-.364-.511-.84-.85-1.4-1.216-2-3.454-5.683-4.06-7.08l-.757-2.725A27.936,27.936,0,0,0,173.048,11a29.452,29.452,0,0,0-3.659.231,28.151,28.151,0,0,0-16.127,48.056A17.667,17.667,0,0,1,158.339,71.916Zm-5.217-46.859a24.241,24.241,0,0,1,16.743-10.029,25.467,25.467,0,0,1,3.182-.2,24.134,24.134,0,0,1,24.035,20.825,1.884,1.884,0,0,0,.049.237l.822,2.96a2.041,2.041,0,0,0,.073.214,80.384,80.384,0,0,0,4.37,7.716c.333.547.621,1.022.835,1.38a1.584,1.584,0,0,1,.042,1.626,1.683,1.683,0,0,1-1.406.895h-3.3a1.854,1.854,0,0,0-1.948,1.806v4.105l-1.588.832a1.907,1.907,0,0,0-1.025,1.7c0,1.968-1.64,4.389-2.976,4.389-.661,0-1.066-.007-1.328-.011l-.324,0a2.721,2.721,0,0,0-.964.15c-.071.023-.185.06-.419.116a3.9,3.9,0,0,0-2.635,3.7v5.674a.79.79,0,0,1-.787.789H163a.812.812,0,0,1-.726-.788V71.916A21.557,21.557,0,0,0,156,56.545a24.252,24.252,0,0,1-2.873-31.488Z" transform="translate(-75.278)" fill="#0c8aed"/>
    <path id="Path_2823" data-name="Path 2823" d="M173.808,68.746l3.57,3.57c.041.041.084.081.128.118a2.7,2.7,0,0,0,3.046.238L183.4,71.1c.313.141.628.272.95.394l.93,3.217a2.663,2.663,0,0,0,2.539,1.908c.417,0,4.822,0,4.984,0a2.781,2.781,0,0,0,2.514-1.912l.928-3.21q.483-.182.95-.394l2.854,1.576a2.7,2.7,0,0,0,3.045-.24c.044-.037.087-.077.128-.118l3.6-3.6a2.644,2.644,0,0,0,.408-3.115l-1.615-2.926c.14-.313.272-.629.393-.951l3.024-.894a2.594,2.594,0,0,0,1.963-2.575V53.3a2.6,2.6,0,0,0-1.845-2.542l-3.178-.928c-.122-.322-.235-.637-.376-.95l1.548-2.794a2.625,2.625,0,0,0-.364-3.284l-3.5-3.494a2.7,2.7,0,0,0-3.158-.457L197.2,40.467c-.313-.14-.628-.272-.95-.393l-.894-3.092a2.624,2.624,0,0,0-2.261-2,1.9,1.9,0,0,0-.227,0h-5.132a1.973,1.973,0,0,0-.227,0,2.628,2.628,0,0,0-2.26,2l-.894,3.089c-.322.122-.638.251-.951.391l-2.93-1.619a2.715,2.715,0,0,0-3.145.448l-3.506,3.5a2.632,2.632,0,0,0-.405,3.23l1.574,2.852q-.21.466-.393.948l-3.217.93a2.66,2.66,0,0,0-1.906,2.539v4.959a2.652,2.652,0,0,0,2.031,2.575l3.092.894c.122.323.252.638.393.951l-1.617,2.929a2.645,2.645,0,0,0,.435,3.138Zm-.5-11.38V54.191l3.31-.956a1.918,1.918,0,0,0,1.3-1.272,12.96,12.96,0,0,1,.928-2.241,1.916,1.916,0,0,0-.017-1.821l-1.667-3.02,2.247-2.245,3.018,1.667a1.912,1.912,0,0,0,1.823.015,12.862,12.862,0,0,1,2.237-.927,1.819,1.819,0,0,0,1.275-1.227l.956-3.237h3.178l.955,3.237a1.867,1.867,0,0,0,1.274,1.262,12.82,12.82,0,0,1,2.238.91,1.912,1.912,0,0,0,1.823-.024l3.018-1.671,2.248,2.244L201.778,47.9a1.919,1.919,0,0,0-.017,1.821,12.848,12.848,0,0,1,.927,2.237,1.943,1.943,0,0,0,1.318,1.274l3.331.956v3.175l-3.329.957A1.929,1.929,0,0,0,202.7,59.6a12.88,12.88,0,0,1-.932,2.237,1.914,1.914,0,0,0,.013,1.823l1.667,3.02L201.2,68.929l-3.019-1.666a1.9,1.9,0,0,0-1.822-.015,12.9,12.9,0,0,1-2.238.927,1.914,1.914,0,0,0-1.274,1.3l-.956,3.312-3.172,0-.956-3.313a1.915,1.915,0,0,0-1.272-1.3,12.915,12.915,0,0,1-2.24-.928,1.919,1.919,0,0,0-1.821.017l-3.018,1.666-2.251-2.25,1.668-3.022a1.912,1.912,0,0,0,.015-1.822,12.922,12.922,0,0,1-.926-2.237,1.916,1.916,0,0,0-1.3-1.275Z" transform="translate(-93.034 -17.236)" fill="#0c8aed"/>
    <path id="Path_2824" data-name="Path 2824" d="M218.531,93.73a9.771,9.771,0,1,0-9.771-9.771A9.781,9.781,0,0,0,218.531,93.73Zm0-15.711a5.94,5.94,0,1,1-5.941,5.94,5.946,5.946,0,0,1,5.941-5.94Z" transform="translate(-121.263 -45.408)" fill="#0c8aed"/>
  </g>
</svg>
