<svg xmlns="http://www.w3.org/2000/svg" width="118" height="117.998" viewBox="0 0 118 117.998">
  <g id="predictive-chart_18263433" transform="translate(-10.995 -11)">
    <path id="Path_2810" data-name="Path 2810" d="M75.522,396.639A1.639,1.639,0,0,0,73.883,395H64.639A1.639,1.639,0,0,0,63,396.639v22.249a1.639,1.639,0,0,0,1.639,1.639h9.245a1.639,1.639,0,0,0,1.639-1.639V396.639Zm-3.371,20.516H66.371V398.371h5.779Z" transform="translate(-39.482 -291.529)" fill="#0c8aed"/>
    <path id="Path_2811" data-name="Path 2811" d="M159.521,313.639A1.639,1.639,0,0,0,157.883,312h-9.245A1.639,1.639,0,0,0,147,313.639v42.236a1.639,1.639,0,0,0,1.639,1.639h9.245a1.639,1.639,0,0,0,1.639-1.639Zm-3.371,40.5h-6.02V315.371h6.02Z" transform="translate(-103.253 -228.516)" fill="#0c8aed"/>
    <path id="Path_2812" data-name="Path 2812" d="M242.521,234.639A1.639,1.639,0,0,0,240.883,233h-9.245A1.639,1.639,0,0,0,230,234.639V295.9a1.639,1.639,0,0,0,1.638,1.639h9.245a1.639,1.639,0,0,0,1.638-1.639Zm-3.371,59.527h-5.779V236.131h5.779Z" transform="translate(-166.265 -168.54)" fill="#0c8aed"/>
    <path id="Path_2813" data-name="Path 2813" d="M326.521,286.638A1.639,1.639,0,0,0,324.883,285h-9.245A1.639,1.639,0,0,0,314,286.638v48.738a1.639,1.639,0,0,0,1.639,1.638h9.245a1.639,1.639,0,0,0,1.639-1.638Zm-3.371,47.005h-6.02V288.131h6.02Z" transform="translate(-230.037 -208.018)" fill="#0c8aed"/>
    <path id="Path_2814" data-name="Path 2814" d="M28.351,45.713A17.356,17.356,0,1,0,11,28.356,17.376,17.376,0,0,0,28.351,45.713Zm0-31.436A14.079,14.079,0,1,1,14.272,28.356,14.1,14.1,0,0,1,28.351,14.277Z" fill="#0c8aed"/>
    <path id="Path_2815" data-name="Path 2815" d="M46.129,42.575H53.78a1.689,1.689,0,0,0,1.669-1.667V29.171a1.686,1.686,0,0,0-3.371,0V39.2H46.129a1.686,1.686,0,0,0,0,3.371Z" transform="translate(-25.429 -12.551)" fill="#0c8aed"/>
    <path id="Path_2816" data-name="Path 2816" d="M134.415,126.84l-4.429-16.528a10.212,10.212,0,0,0-7.087-7.169l-2.043-7.626a24.449,24.449,0,1,0-35.635-20.45l-5.239-2.786a6.029,6.029,0,1,0-10.131,3L58.333,96.114a6.009,6.009,0,0,0-5.653,1.629l-3.717-2.057a6.029,6.029,0,1,0-10.441,2.545L26.466,116.374a6.045,6.045,0,1,0,2.728,1.817L41.25,100.048a6.016,6.016,0,0,0,6.124-1.5l3.718,2.058A6.028,6.028,0,1,0,61.2,97.7L72.718,76.871a6.007,6.007,0,0,0,5.721-1.7l7.334,3.9c.077.347.161.694.254,1.04a24.48,24.48,0,0,0,23.6,18.129c.391,0,.782-.013,1.173-.032l2.042,7.624a10.216,10.216,0,0,0-2.554,9.763l2.094,7.822h-.958a1.686,1.686,0,0,0-1.711,1.621v31.417a1.7,1.7,0,0,0,1.711,1.639h9.147a1.66,1.66,0,0,0,1.664-1.639V139.389a9.82,9.82,0,0,0,2.354.28,10.182,10.182,0,0,0,9.821-12.829ZM24.621,124.864a2.751,2.751,0,1,1,2.751-2.751A2.755,2.755,0,0,1,24.621,124.864Zm18.474-27.8a2.751,2.751,0,1,1,2.751-2.751A2.755,2.755,0,0,1,43.095,97.062Zm13.865,7.673a2.751,2.751,0,1,1,2.751-2.751A2.755,2.755,0,0,1,56.959,104.735Zm17.133-30.98A2.751,2.751,0,1,1,76.843,71a2.755,2.755,0,0,1-2.751,2.751Zm15.1,5.512a21.146,21.146,0,1,1,20.437,15.7A21.034,21.034,0,0,1,89.193,79.266Zm24.9,18.561c.63-.117,1.257-.256,1.879-.422s1.24-.359,1.841-.572l1.594,5.952a10.1,10.1,0,0,0-3.719,1Zm4.773,56.9h-5.779V126.791h.176l1.422,5.381a10.424,10.424,0,0,0,4.181,5.793v16.76Zm7.49-18.567a6.855,6.855,0,0,1-1.777.236,6.935,6.935,0,0,1-6.693-5.125l-4.429-16.527a6.924,6.924,0,0,1,4.89-8.471,6.845,6.845,0,0,1,1.777-.236,6.934,6.934,0,0,1,6.693,5.125l4.429,16.528A6.923,6.923,0,0,1,126.359,136.157Z" transform="translate(-5.768 -29.099)" fill="#0c8aed"/>
    <path id="Path_2817" data-name="Path 2817" d="M358.1,106.109a16.875,16.875,0,1,0-14.626,8.442,16.938,16.938,0,0,0,4.378-.579,16.767,16.767,0,0,0,10.248-7.863Zm-11.1,4.7a13.6,13.6,0,1,1,8.258-6.336A13.638,13.638,0,0,1,347.009,110.805Z" transform="translate(-239.611 -52.982)" fill="#0c8aed"/>
    <path id="Path_2818" data-name="Path 2818" d="M162.056,63.72h12.826l-2.234,2.219a1.635,1.635,0,0,0,2.317,2.307L180,63.214a1.64,1.64,0,0,0,0-2.319l-5.032-5.032a1.641,1.641,0,0,0-2.318,0,1.6,1.6,0,0,0,0,2.285l2.234,2.2H162.056a1.686,1.686,0,0,0,0,3.371Z" transform="translate(-113.44 -33.696)" fill="#0c8aed"/>
  </g>
</svg>
