<svg xmlns="http://www.w3.org/2000/svg" width="100" height="100" viewBox="0 0 100 100">
  <g id="electronics_1555608" transform="translate(-1 -1)">
    <rect id="Rectangle_1669" data-name="Rectangle 1669" width="2" height="2" transform="translate(20.6 89)"/>
    <rect id="Rectangle_1670" data-name="Rectangle 1670" width="2" height="2" transform="translate(9 89)"/>
    <rect id="Rectangle_1671" data-name="Rectangle 1671" width="2" height="2" transform="translate(5 89)"/>
    <path id="Path_2855" data-name="Path 2855" d="M92.935,23.581h-31.7a16.118,16.118,0,0,0,1.052-5.634v-.818a16.129,16.129,0,0,0-32.258,0v.818a16.118,16.118,0,0,0,1.052,5.634H9.065A8.074,8.074,0,0,0,1,31.645V83.258a8.074,8.074,0,0,0,8.065,8.065H30.032v6.452H23.581V101H78.419V97.774H71.968V91.323H92.935A8.074,8.074,0,0,0,101,83.258V31.645A8.074,8.074,0,0,0,92.935,23.581ZM33.258,17.129a12.9,12.9,0,0,1,25.806,0v.818a12.906,12.906,0,0,1-1.839,6.639L46.161,43.026,35.1,24.585a12.9,12.9,0,0,1-1.839-6.639ZM9.065,26.806h23.6L35.3,31.2A20.963,20.963,0,1,0,48.726,56.24l-3.124-.8A17.742,17.742,0,1,1,14.794,39.655l2.3,2.3a14.553,14.553,0,1,0,2.281-2.281l-2.3-2.3a17.7,17.7,0,0,1,21.3-1.048L46.048,49.11A17.54,17.54,0,0,1,46.161,51v1.613H63.1l6,8,6.306-14.19,3.713,6.185H94.548V49.387h-13.6l-5.966-9.944-6.6,14.842-3.673-4.9H49.326a20.766,20.766,0,0,0-.76-4.1L59.655,26.806H92.935a4.845,4.845,0,0,1,4.839,4.839V78.419H28.908l-4.839-3.226H4.226V31.645A4.845,4.845,0,0,1,9.065,26.806Zm15,22.121A4.759,4.759,0,0,0,23.581,51a4.839,4.839,0,1,0,4.839-4.839,4.76,4.76,0,0,0-2.073.485l-4.676-4.676a11.336,11.336,0,1,1-2.281,2.281Zm4.353.46A1.613,1.613,0,1,1,26.806,51,1.616,1.616,0,0,1,28.419,49.387ZM92.935,88.1H36.484v3.226H68.742v6.452H33.258V88.1H9.065a4.845,4.845,0,0,1-4.839-4.839V78.419H23.092l4.839,3.226H97.774v1.613A4.845,4.845,0,0,1,92.935,88.1Z"/>
    <rect id="Rectangle_1672" data-name="Rectangle 1672" width="24" height="2" transform="translate(73 66.333)"/>
    <rect id="Rectangle_1673" data-name="Rectangle 1673" width="24" height="2" transform="translate(73 72.867)"/>
    <path id="Path_2856" data-name="Path 2856" d="M29,17a6,6,0,1,0-6-6A6.006,6.006,0,0,0,29,17ZM29,7a4,4,0,1,1-4,4A4,4,0,0,1,29,7Z" transform="translate(16.72)"/>
  </g>
</svg>
