<svg xmlns="http://www.w3.org/2000/svg" width="111.922" height="126.954" viewBox="0 0 111.922 126.954">
  <g id="restart_3106716" transform="translate(-287.7 -191.95)">
    <g id="Group_1012" data-name="Group 1012" transform="translate(330.864 191.95)">
      <g id="Group_1010" data-name="Group 1010" transform="translate(0 0)">
        <path id="Path_2798" data-name="Path 2798" d="M842.182,217.6a5.032,5.032,0,0,1-3.559-8.586l15.61-15.594a5.027,5.027,0,1,1,7.11,7.11l-15.61,15.6A4.982,4.982,0,0,1,842.182,217.6Z" transform="translate(-837.15 -191.95)" fill="#0c8aed"/>
      </g>
      <g id="Group_1011" data-name="Group 1011" transform="translate(0 15.602)">
        <path id="Path_2799" data-name="Path 2799" d="M857.775,416.219a5.021,5.021,0,0,1-3.559-1.477l-15.594-15.61a5.027,5.027,0,0,1,7.109-7.109l15.6,15.61a5.032,5.032,0,0,1-3.559,8.586Z" transform="translate(-837.15 -390.55)" fill="#0c8aed"/>
      </g>
    </g>
    <g id="Group_1013" data-name="Group 1013" transform="translate(287.7 206.982)">
      <path id="Path_2800" data-name="Path 2800" d="M343.657,495.222a55.959,55.959,0,0,1-37.6-97.413,5.028,5.028,0,0,1,6.756,7.447,45.916,45.916,0,1,0,30.842-11.9,45.5,45.5,0,0,0-6.952.526,5.03,5.03,0,1,1-1.508-9.945,56.366,56.366,0,0,1,8.469-.636,55.961,55.961,0,1,1-.008,111.922Z" transform="translate(-287.7 -383.3)" fill="#0c8aed"/>
    </g>
  </g>
</svg>
