<svg xmlns="http://www.w3.org/2000/svg" width="130.502" height="126.059" viewBox="0 0 130.502 126.059">
  <g id="weight-plates_8954027" transform="translate(-3.496 -5.08)">
    <path id="Path_2903" data-name="Path 2903" d="M4.021,73.1A2.1,2.1,0,0,0,3.5,74.634,65.756,65.756,0,0,0,44,130.985a2.25,2.25,0,0,0,.8.154,2.124,2.124,0,0,0,1.95-1.319l2.315-5.655a57.248,57.248,0,0,0,39.387,0l2.315,5.655a2.123,2.123,0,0,0,1.137,1.151,2.062,2.062,0,0,0,.814.168,2.25,2.25,0,0,0,.8-.154,65.739,65.739,0,0,0,40.481-56.337,2.163,2.163,0,0,0-.519-1.529,2.112,2.112,0,0,0-1.445-.716l-6.118-.393c.014-.519.056-1.038.056-1.558a57.13,57.13,0,0,0-23.91-46.5l3.382-5.107a2.1,2.1,0,0,0-.589-2.919,65.475,65.475,0,0,0-72.669.323A2.067,2.067,0,0,0,31.3,17.6a2.143,2.143,0,0,0,.323,1.572l3.424,5.079a57.177,57.177,0,0,0-23.5,46.206c0,.519.028,1.038.042,1.558L5.466,72.4a2.1,2.1,0,0,0-1.445.7Zm89.83,53.137-4.588-11.225A49.363,49.363,0,0,0,117.522,75.7l6.09.379h.042l5.991.379A61.627,61.627,0,0,1,93.851,126.242ZM68.748,9.289a60.928,60.928,0,0,1,31.992,9.022l-6.707,10.1a49.1,49.1,0,0,0-50.934.21l-3.41-5.051h0l-3.368-4.981a60.834,60.834,0,0,1,32.427-9.3Zm-53,61.163A52.919,52.919,0,0,1,37.416,27.741l3.354,4.967a2.067,2.067,0,0,0,1.347.884,1.87,1.87,0,0,0,.393.042,2.088,2.088,0,0,0,1.179-.365,44.874,44.874,0,0,1,49.8-.21A2.106,2.106,0,0,0,96.4,32.47l3.311-5a52.919,52.919,0,0,1,22.029,42.993c0,.435-.028.87-.042,1.291l-5.977-.379a2.163,2.163,0,0,0-1.529.519,2.112,2.112,0,0,0-.716,1.445,45.07,45.07,0,0,1-27.768,38.629,2.055,2.055,0,0,0-1.137,1.137,2.077,2.077,0,0,0,0,1.614l2.273,5.556a53.024,53.024,0,0,1-36.2,0l2.273-5.556a2.112,2.112,0,0,0-1.151-2.75A45.1,45.1,0,0,1,23.988,73.343a2.093,2.093,0,0,0-2.231-1.964l-5.977.379c0-.435-.028-.87-.028-1.3ZM19.975,75.7a49.351,49.351,0,0,0,28.274,39.33L43.66,126.256a61.577,61.577,0,0,1-35.78-49.8Z" transform="translate(0 0)" fill="#0a6bb8"/>
    <path id="Path_2904" data-name="Path 2904" d="M58.333,88.912a29,29,0,1,0-29-28.989A29.031,29.031,0,0,0,58.333,88.912Zm0-53.783a24.787,24.787,0,1,1-24.794,24.78,24.828,24.828,0,0,1,24.794-24.78Z" transform="translate(10.415 10.417)" fill="#0a6bb8"/>
    <path id="Path_2905" data-name="Path 2905" d="M54.08,69.874A14.207,14.207,0,1,0,39.88,55.66,14.216,14.216,0,0,0,54.08,69.874Zm0-24.2a9.99,9.99,0,1,1-9.99,9.99A10,10,0,0,1,54.08,45.669Z" transform="translate(14.668 14.667)" fill="#0a6bb8"/>
  </g>
</svg>
