<svg xmlns="http://www.w3.org/2000/svg" width="114.286" height="100" viewBox="0 0 114.286 100">
  <g id="connection_6793137" transform="translate(-6 -9)">
    <path id="Path_2889" data-name="Path 2889" d="M120.286,59a9.525,9.525,0,0,0-8.048-9.381A49.942,49.942,0,0,0,99.071,24.31a9.406,9.406,0,0,0,1-4.143,9.513,9.513,0,0,0-16.286-6.69,49.9,49.9,0,0,0-41.262-.024,9.512,9.512,0,0,0-16.286,6.69,9.328,9.328,0,0,0,1,4.143A49.761,49.761,0,0,0,14.071,49.6a9.5,9.5,0,0,0,0,18.786,49.95,49.95,0,0,0,13.19,25.333,9.491,9.491,0,0,0,15.31,10.833,49.75,49.75,0,0,0,41.143,0A9.513,9.513,0,0,0,100.048,97.9a9.234,9.234,0,0,0-1.024-4.19,49.95,49.95,0,0,0,13.19-25.333A9.506,9.506,0,0,0,120.286,59Zm-4.762,0a4.762,4.762,0,1,1-4.762-4.762A4.776,4.776,0,0,1,115.524,59Zm-25-43.6a4.762,4.762,0,1,1-4.762,4.762A4.776,4.776,0,0,1,90.524,15.4Zm-54.762,0A4.762,4.762,0,1,1,31,20.167,4.776,4.776,0,0,1,35.762,15.4Zm-25,43.6a4.762,4.762,0,1,1,4.762,4.762A4.776,4.776,0,0,1,10.762,59Zm25,43.667A4.762,4.762,0,1,1,40.524,97.9,4.776,4.776,0,0,1,35.762,102.667Zm27.381,1.571a44.582,44.582,0,0,1-18.214-3.857,9.426,9.426,0,0,0,.357-2.476,9.521,9.521,0,0,0-9.524-9.524,9.63,9.63,0,0,0-5.4,1.69A45.288,45.288,0,0,1,18.81,67.881a9.458,9.458,0,0,0,0-17.786,45.169,45.169,0,0,1,11.5-22.143,9.5,9.5,0,0,0,14.976-7.786,9.049,9.049,0,0,0-.4-2.548A45.288,45.288,0,0,1,81.4,17.6a9.049,9.049,0,0,0-.4,2.548,9.521,9.521,0,0,0,9.524,9.524,9.408,9.408,0,0,0,5.452-1.738,44.974,44.974,0,0,1,11.5,22.143,9.492,9.492,0,0,0,0,17.833A45.287,45.287,0,0,1,95.929,90.1,9.467,9.467,0,0,0,81.357,100.4a44.952,44.952,0,0,1-18.214,3.833Zm27.381-1.571A4.762,4.762,0,1,1,95.286,97.9,4.776,4.776,0,0,1,90.524,102.667Z" transform="translate(0 0)"/>
    <path id="Path_2890" data-name="Path 2890" d="M36.944,41.388A11.944,11.944,0,1,0,25,29.444,11.948,11.948,0,0,0,36.944,41.388Zm0-19.11a7.166,7.166,0,1,1-7.166,7.166A7.187,7.187,0,0,1,36.944,22.278Z" transform="translate(26.199 11.717)"/>
    <path id="Path_2891" data-name="Path 2891" d="M64,59.554V42.427A13.957,13.957,0,0,0,50.072,28.5a2.354,2.354,0,0,0-1.863.908l-5.638,7.119-5.327-7.071a2.422,2.422,0,0,0-1.911-.956h-.406A13.957,13.957,0,0,0,21,42.427V59.554a2.4,2.4,0,0,0,2.389,2.389H61.609A2.4,2.4,0,0,0,64,59.554Zm-4.778-2.389H25.778V42.427A9.193,9.193,0,0,1,34.162,33.3l6.426,8.576a2.376,2.376,0,0,0,1.887.956,2.281,2.281,0,0,0,1.911-.908l6.784-8.576a9.163,9.163,0,0,1,8.05,9.077Z" transform="translate(20.644 26.852)"/>
  </g>
</svg>
